<svg width="56" height="55" viewBox="0 0 56 55" fill="none" xmlns="http://www.w3.org/2000/svg">
<rect x="28.0621" width="38.4844" height="38.4844" rx="7.08987" transform="rotate(45 28.0621 0)" fill="#FDCE25"/>
<mask id="mask0_700_12692" style="mask-type:alpha" maskUnits="userSpaceOnUse" x="3" y="2" width="50" height="50">
<rect x="28.0621" width="38.4844" height="38.4844" rx="7.08987" transform="rotate(45 28.0621 0)" fill="#FDCE25"/>
</mask>
<g mask="url(#mask0_700_12692)">
</g>
<g clip-path="url(#clip0_700_12692)">
<path d="M31.8977 34.5001C28.8357 34.4961 25.9002 33.278 23.735 31.1128C21.5698 28.9476 20.3517 26.0121 20.3477 22.9501C20.3477 22.0351 20.7112 21.1576 21.3582 20.5106C22.0052 19.8636 22.8827 19.5001 23.7977 19.5001C23.9915 19.4986 24.1849 19.5162 24.3752 19.5526C24.5592 19.5798 24.7401 19.625 24.9152 19.6876C25.0384 19.7308 25.1482 19.8054 25.2337 19.9041C25.3192 20.0027 25.3774 20.122 25.4027 20.2501L26.4302 24.7501C26.4579 24.8722 26.4546 24.9994 26.4205 25.1199C26.3865 25.2404 26.3228 25.3505 26.2352 25.4401C26.1377 25.5451 26.1302 25.5526 25.2077 26.0326C25.9465 27.6532 27.2426 28.9547 28.8602 29.7001C29.3477 28.7701 29.3552 28.7626 29.4602 28.6651C29.5498 28.5776 29.6599 28.5138 29.7804 28.4798C29.9009 28.4457 30.0281 28.4424 30.1502 28.4701L34.6502 29.4976C34.7742 29.5264 34.8888 29.5862 34.9833 29.6715C35.0778 29.7568 35.149 29.8647 35.1902 29.9851C35.2535 30.1631 35.3012 30.3463 35.3327 30.5326C35.3629 30.7211 35.3779 30.9117 35.3777 31.1026C35.3639 32.0137 34.9902 32.8823 34.3382 33.5188C33.6862 34.1554 32.8089 34.5081 31.8977 34.5001ZM23.7977 21.0001C23.2812 21.0021 22.7863 21.2081 22.421 21.5734C22.0558 21.9387 21.8497 22.4335 21.8477 22.9501C21.8497 25.6149 22.9092 28.17 24.7935 30.0543C26.6778 31.9386 29.2329 32.9981 31.8977 33.0001C32.4143 32.9981 32.9091 32.792 33.2744 32.4268C33.6397 32.0615 33.8457 31.5666 33.8477 31.0501V30.8026L30.3677 30.0001L30.1502 30.4126C29.8127 31.0651 29.5652 31.5376 28.9352 31.2826C27.6924 30.8377 26.5642 30.1216 25.6328 29.1862C24.7013 28.2509 23.9899 27.1198 23.5502 25.8751C23.2802 25.2901 23.7902 25.0201 24.4352 24.6826L24.8477 24.4801L24.0452 21.0001H23.7977Z" fill="black"/>
</g>
<defs>
<clipPath id="clip0_700_12692">
<rect width="18" height="18" fill="white" transform="translate(18.8492 18)"/>
</clipPath>
</defs>
</svg>
