<svg width="10" height="6" viewBox="0 0 10 6" fill="none" xmlns="http://www.w3.org/2000/svg">
<path d="M5.00015 5.9165C4.89048 5.91713 4.78176 5.89611 4.68023 5.85464C4.5787 5.81317 4.48635 5.75206 4.40849 5.67483L1.07515 2.3415C0.997456 2.2638 0.935822 2.17155 0.893772 2.07004C0.851721 1.96852 0.830078 1.85971 0.830078 1.74983C0.830078 1.63995 0.851721 1.53114 0.893772 1.42962C0.935822 1.3281 0.997456 1.23586 1.07515 1.15816C1.15285 1.08046 1.2451 1.01883 1.34661 0.976779C1.44813 0.934728 1.55694 0.913086 1.66682 0.913086C1.7767 0.913086 1.88551 0.934728 1.98703 0.976779C2.08855 1.01883 2.18079 1.08046 2.25849 1.15816L5.00015 3.9165L7.75016 1.2665C7.82682 1.18125 7.92024 1.11275 8.02458 1.06526C8.12893 1.01777 8.24195 0.992322 8.35657 0.990506C8.4712 0.98869 8.58497 1.01054 8.69077 1.0547C8.79656 1.09886 8.89211 1.16438 8.97143 1.24715C9.05075 1.32992 9.11214 1.42816 9.15176 1.53574C9.19138 1.64332 9.20838 1.75792 9.20169 1.87236C9.195 1.98681 9.16477 2.09865 9.11288 2.20088C9.061 2.30311 8.98858 2.39353 8.90016 2.4665L5.56682 5.68316C5.41443 5.83009 5.21182 5.91352 5.00015 5.9165Z" fill="#0C478B"/>
</svg>
