<svg width="55" height="55" viewBox="0 0 55 55" fill="none" xmlns="http://www.w3.org/2000/svg">
<rect x="27.4871" width="38.4844" height="38.4844" rx="7.08987" transform="rotate(45 27.4871 0)" fill="#E9660B"/>
<mask id="mask0_700_12668" style="mask-type:alpha" maskUnits="userSpaceOnUse" x="3" y="2" width="49" height="50">
<rect x="27.4871" width="38.4844" height="38.4844" rx="7.08987" transform="rotate(45 27.4871 0)" fill="#FDCE25"/>
</mask>
<g mask="url(#mask0_700_12668)">
</g>
<g clip-path="url(#clip0_700_12668)">
<path d="M27.277 19.5322C25.6961 19.5321 24.179 20.1698 23.0555 21.3066C21.932 22.4435 21.2928 23.9875 21.277 25.6033C21.277 29.804 26.5645 34.48 26.7895 34.6793C26.9254 34.798 27.0983 34.8633 27.277 34.8633C27.4558 34.8633 27.6287 34.798 27.7645 34.6793C28.027 34.48 33.277 29.804 33.277 25.6033C33.2612 23.9875 32.6221 22.4435 31.4986 21.3066C30.3751 20.1698 28.858 19.5321 27.277 19.5322ZM27.277 33.0618C26.0245 31.843 22.777 28.4625 22.777 25.6033C22.777 24.3835 23.2511 23.2136 24.0951 22.3511C24.939 21.4886 26.0836 21.004 27.277 21.004C28.4705 21.004 29.6151 21.4886 30.459 22.3511C31.3029 23.2136 31.777 24.3835 31.777 25.6033C31.777 28.4395 28.5295 31.843 27.277 33.0618Z" fill="white"/>
<path d="M27.277 22.5981C26.7579 22.5981 26.2503 22.7555 25.8187 23.0503C25.387 23.3451 25.0505 23.7641 24.8519 24.2544C24.6532 24.7446 24.6012 25.284 24.7025 25.8045C24.8038 26.3249 25.0538 26.803 25.4209 27.1782C25.788 27.5534 26.2557 27.8089 26.7649 27.9124C27.2741 28.016 27.8019 27.9628 28.2816 27.7598C28.7612 27.5567 29.1712 27.2128 29.4596 26.7716C29.7481 26.3304 29.902 25.8117 29.902 25.2811C29.902 24.5695 29.6255 23.8871 29.1332 23.384C28.6409 22.8808 27.9732 22.5981 27.277 22.5981ZM27.277 26.4309C27.0545 26.4309 26.837 26.3635 26.652 26.2371C26.467 26.1108 26.3228 25.9312 26.2377 25.7211C26.1525 25.511 26.1302 25.2798 26.1737 25.0568C26.2171 24.8337 26.3242 24.6288 26.4815 24.468C26.6389 24.3072 26.8393 24.1977 27.0576 24.1533C27.2758 24.109 27.502 24.1317 27.7076 24.2188C27.9131 24.3058 28.0888 24.4532 28.2124 24.6423C28.3361 24.8314 28.402 25.0537 28.402 25.2811C28.402 25.586 28.2835 25.8785 28.0725 26.0941C27.8616 26.3098 27.5754 26.4309 27.277 26.4309Z" fill="white"/>
</g>
<defs>
<clipPath id="clip0_700_12668">
<rect width="18" height="18.3972" fill="white" transform="translate(18.2744 18)"/>
</clipPath>
</defs>
</svg>
