<svg width="34" height="34" viewBox="0 0 34 34" fill="none" xmlns="http://www.w3.org/2000/svg">
<path d="M20.7863 22.4787L17.2659 7.19043C17.1269 6.58674 17.5646 6.00318 18.1831 5.96767L25.6657 5.53805C26.1404 5.51079 26.5686 5.82153 26.69 6.28125L30.3671 20.2155C30.5108 20.7604 30.1763 21.3164 29.6275 21.4445L21.9882 23.2281C21.4492 23.3539 20.9105 23.018 20.7863 22.4787Z" stroke="white" stroke-width="0.5"/>
<path d="M20.3097 25.3306L14.9468 5.00781C14.7839 4.3907 15.233 3.78104 15.8706 3.75358L26.8625 3.28025C27.3321 3.26002 27.7524 3.56964 27.8724 4.02417L32.7357 22.4536C32.8802 23.0013 32.5414 23.5596 31.9888 23.6843L21.4967 26.0509C20.9716 26.1694 20.447 25.851 20.3097 25.3306Z" stroke="white"/>
<path d="M1.54152 13.1056L6.08319 1.63195C6.23417 1.25053 6.60278 1 7.01299 1H14.7489C15.5019 1 15.9848 1.80081 15.6333 2.46676L9.57773 13.9404C9.40462 14.2684 9.06421 14.4737 8.69334 14.4737H2.47133C1.7654 14.4737 1.2817 13.762 1.54152 13.1056Z" stroke="white"/>
<rect x="0.198044" y="0.2887" width="1.86631" height="1.7499" transform="matrix(0.984828 0.173535 -0.192653 0.981267 10.3809 5.46225)" stroke="white" stroke-width="0.5"/>
<rect x="0.198044" y="0.2887" width="1.86631" height="1.7499" transform="matrix(0.984828 0.173535 -0.192653 0.981267 9.19534 7.70786)" stroke="white" stroke-width="0.5"/>
<path d="M12.3059 10.8859L14.5229 6.74841L15.908 10.8859H12.3059Z" stroke="white"/>
<path d="M9.29677 13.9125V23.2143C9.29677 24.4541 8.8362 25.6496 8.00445 26.5689L5.99968 28.7847C5.83332 28.9686 5.74121 29.2077 5.74121 29.4556V30.9386C5.74121 31.4664 6.15142 31.9033 6.67818 31.9366L23.2845 32.9854C23.4387 32.9951 23.5931 32.969 23.7356 32.909L28.2404 31.0123C28.6112 30.8561 28.8523 30.493 28.8523 30.0906V28.509M28.8523 28.509L24.3769 30.0989C24.2034 30.1606 24.0162 30.1731 23.8361 30.1352L20.5467 29.4427C19.4039 29.2021 18.3814 28.5691 17.6565 27.6535L15.6967 25.1779C15.3825 24.781 15.1304 24.3387 14.949 23.8662L13.1098 19.0746C12.939 18.6296 12.8327 18.1625 12.7942 17.6875L12.3475 12.1864C12.3002 11.6041 12.76 11.1055 13.3442 11.1055H13.8872C14.3283 11.1055 14.7173 11.3944 14.8446 11.8167L19.119 25.9897C19.2633 26.4682 19.7387 26.7667 20.2324 26.6887L25.9255 25.7898C26.2709 25.7353 26.6198 25.8652 26.8454 26.1324L28.8523 28.509Z" stroke="white"/>
</svg>
