<svg width="55" height="55" viewBox="0 0 55 55" fill="none" xmlns="http://www.w3.org/2000/svg">
<rect x="27.2129" width="38.4844" height="38.4844" rx="7.08987" transform="rotate(45 27.2129 0)" fill="#0C478B"/>
<mask id="mask0_1005_3" style="mask-type:alpha" maskUnits="userSpaceOnUse" x="2" y="2" width="50" height="50">
<rect x="27.2129" width="38.4844" height="38.4844" rx="7.08987" transform="rotate(45 27.2129 0)" fill="#FDCE25"/>
</mask>
<g mask="url(#mask0_1005_3)">
</g>
<path d="M20.1862 26.8559C24.8992 24.7825 30.9982 22.2546 31.8401 21.9048C34.0485 20.989 34.7261 21.1645 34.3882 23.1925C34.1456 24.6501 33.4455 29.476 32.8875 32.4798C32.5563 34.261 31.8135 34.4721 30.6453 33.7015C30.0836 33.3306 27.2482 31.4556 26.6328 31.0154C26.0711 30.6141 25.2963 30.1315 26.268 29.1809C26.6137 28.8423 28.8802 26.6781 30.6461 24.9936C30.8775 24.7724 30.5868 24.409 30.3198 24.5864C27.9397 26.1648 24.6397 28.3555 24.2197 28.6409C23.5852 29.0718 22.9758 29.2694 21.882 28.9551C21.0555 28.7178 20.2481 28.4346 19.9338 28.3266C18.7237 27.9111 19.011 27.373 20.1862 26.8559Z" fill="white"/>
</svg>
