<svg width="221" height="517" viewBox="0 0 221 517" fill="none" xmlns="http://www.w3.org/2000/svg">
<g opacity="0.1">
<path opacity="0.3" d="M188.271 196.502L161.932 211.953L135.578 196.502V165.57L161.932 150.119L188.271 165.57V196.502Z" fill="#0C478B"/>
<path opacity="0.6" d="M160.589 147.756L134.235 163.221L107.881 147.756V116.839L134.235 101.373L160.589 116.839V147.756Z" fill="#0C478B"/>
<path opacity="0.3" d="M188.271 99.0095L161.932 114.475L135.578 99.0095V68.0926L161.932 52.627L188.271 68.0926V99.0095Z" fill="#0C478B"/>
<path opacity="0.1" d="M215.968 245.233L189.614 260.699L163.274 245.233V214.316L189.614 198.851L215.968 214.316V245.233Z" fill="#0C478B"/>
<path opacity="0.3" d="M243.664 391.457L217.31 406.922L190.956 391.457V360.54L217.31 345.074L243.664 360.54V391.457Z" fill="#0C478B"/>
<path opacity="0.3" d="M271.345 245.233L245.006 260.699L218.652 245.233V214.316L245.006 198.851L271.345 214.316V245.233Z" fill="#0C478B"/>
<path opacity="0.6" d="M243.664 196.502L217.31 211.953L190.956 196.502V165.57L217.31 150.119L243.664 165.57V196.502Z" fill="#0C478B"/>
<path opacity="0.6" d="M243.664 293.979L217.31 309.43L190.956 293.979V263.048L217.31 247.597L243.664 263.048V293.979Z" fill="#0C478B"/>
<path opacity="0.3" d="M188.271 293.979L161.932 309.43L135.578 293.979V263.048L161.932 247.597L188.271 263.048V293.979Z" fill="#0C478B"/>
<path opacity="0.6" d="M132.893 293.979L106.539 309.43L80.1851 293.979V263.048L106.539 247.597L132.893 263.048V293.979Z" fill="#0C478B"/>
<path opacity="0.1" d="M271.345 147.756L245.006 163.207L218.652 147.756V116.824L245.006 101.373L271.345 116.824V147.756Z" fill="#0C478B"/>
<path opacity="0.1" d="M160.589 342.712L134.235 358.177L107.881 342.712V311.795L134.235 296.344L160.589 311.795V342.712Z" fill="#0C478B"/>
<path opacity="0.6" d="M132.893 391.457L106.539 406.922L80.1851 391.457V360.54L106.539 345.074L132.893 360.54V391.457Z" fill="#0C478B"/>
<path opacity="0.1" d="M215.968 50.278L189.614 65.7291L163.274 50.278V19.3466L189.614 3.89551L215.968 19.3466V50.278Z" fill="#0C478B"/>
<path opacity="0.6" d="M243.664 99.0095L217.31 114.475L190.956 99.0095V68.0926L217.31 52.627L243.664 68.0926V99.0095Z" fill="#0C478B"/>
<path opacity="0.1" d="M271.345 342.712L245.006 358.177L218.652 342.712V311.795L245.006 296.344L271.345 311.795V342.712Z" fill="#0C478B"/>
</g>
<path d="M192.488 0H192.416L164.996 16.0493V48.4397L192.299 64.489V96.4417L164.938 112.491V144.59L137.709 160.639L110.348 144.59L82.9142 160.639V192.898L110.333 208.947H110.406L137.694 192.898L164.923 208.86V240.813L137.782 256.862L110.421 240.813L82.9871 256.862V288.961L55.7139 305.024L28.3532 288.975L0.934082 305.024V337.284L28.3678 353.333L55.6702 337.284L82.885 353.333V385.271L55.5242 401.32V433.579L82.9434 449.629L110.377 433.579V401.481L137.723 385.431V353.26L110.435 337.211V305.258L137.65 289.209L165.011 305.258L192.43 289.209V257.11L219.645 241.134L246.874 257.11V289.048L219.514 305.097V337.356L246.801 353.406V385.504H246.874L274.293 401.554H274.366L301.786 385.504V353.26H301.713L274.425 337.211V305.258L301.654 289.209L329.015 305.258L356.449 289.209V256.949H356.376L328.957 240.9H328.884L301.596 256.949L274.366 240.988V209.035L301.931 192.986L329.292 209.035L356.726 192.986V160.887L383.941 144.838L411.302 160.887L438.721 144.838V112.491H438.648L411.374 96.2958H411.302L384.014 112.345L356.784 96.4417V64.489L384.13 48.4397V16.1806L356.697 0.131313L329.263 16.1806V48.2792L301.917 64.3285V96.5876L329.205 112.637V144.59L301.99 160.639L274.629 144.59H274.556L247.137 160.639V192.738L219.908 208.699L192.634 192.752V160.799L219.995 144.75V112.652L247.356 96.6022V64.3285L220.068 48.2792V16.1806L192.488 0ZM356.624 64.1972L347.547 58.8718L329.409 48.2209V16.3411L356.624 0.291807L383.853 16.3411V48.2792L356.624 64.1972ZM356.492 96.3834L347.416 101.694L329.292 112.345L302.063 96.4417V64.489L329.292 48.5273L338.412 53.8527L356.551 64.489L356.492 96.3834ZM384.116 144.531V112.652L411.345 96.6022L438.56 112.652V144.59L411.345 160.639L384.116 144.531ZM356.624 160.581L347.547 155.255L329.409 144.604V112.652L338.485 107.326L356.624 96.6752L383.853 112.724V144.59L356.624 160.581ZM302.048 192.767V160.814L329.278 144.765L338.354 150.09L356.492 160.741V192.694L329.278 208.656L302.048 192.767ZM274.556 208.729L265.451 203.388L247.312 192.752V160.799L274.527 144.75L301.756 160.799V192.752L274.556 208.729ZM302.048 289.063V257.11L329.278 241.134L356.492 257.11V289.048L329.278 305.024L302.048 289.063ZM247.356 353.42L256.418 348.095L274.571 337.444L301.8 353.493V385.431L274.571 401.408L247.356 385.358V353.42ZM247.21 289.223L256.286 294.549L274.439 305.199V337.152L265.363 342.463L247.21 353.114L219.995 337.152V305.199L247.21 289.223ZM247.356 257.052L256.418 251.726L274.571 241.075L301.8 257.052V288.99L274.571 304.966L265.451 299.699L247.312 289.048L247.356 257.052ZM219.995 240.842V208.889L247.21 192.927L256.286 198.253L274.439 208.889V240.842L265.363 246.167L247.21 256.803L219.995 240.842ZM83.0455 385.592L92.122 390.917L110.275 401.568V433.506L83.0455 449.483L55.8453 433.506V401.568L83.0455 385.592ZM83.1914 353.493L92.2679 348.168L110.406 337.517L137.636 353.566V385.504L110.421 401.32L101.344 396.009L83.206 385.358L83.1914 353.493ZM55.5534 305.345V337.298L28.3386 353.26L1.10919 337.298V305.345L28.3386 289.296L55.5534 305.345ZM83.0455 289.296L92.122 294.622L110.275 305.272V337.225L101.198 342.536L83.0455 353.172L55.8453 337.211V305.258L83.0455 289.296ZM137.636 257.125V289.063L110.421 305.024L101.344 299.699L83.206 289.048V257.11L110.421 241.134L137.636 257.125ZM165.128 241.148L174.204 246.474L192.357 257.125V289.063L165.142 305.024L137.913 289.048V257.11L165.128 241.148ZM165.259 208.962L174.336 203.651L192.488 192.986L219.703 208.947V240.9L192.488 256.862L183.412 251.551L165.259 240.9V208.962ZM137.636 160.814V192.767L110.421 208.714L83.206 192.752V160.799L110.421 144.75L137.636 160.814ZM165.128 144.765L174.204 150.09L192.357 160.741V192.694L183.281 198.005L165.128 208.656L137.913 192.752V160.799L165.128 144.765ZM192.488 96.6168L201.55 101.942L219.703 112.593V144.59L192.488 160.566L183.412 155.241L165.259 144.59V112.652L192.488 96.6168ZM192.62 64.4307L201.696 59.1198L219.835 48.4689L247.064 64.4307V96.3834L219.849 112.345L210.787 107.034L192.634 96.4417L192.62 64.4307ZM192.488 0.364757L219.703 16.4141V48.2792L210.627 53.6047L192.488 64.1972L165.259 48.1479V16.3411L192.488 0.364757Z" fill="#0C478B"/>
<path d="M219.849 15.1738C219.565 15.1777 219.294 15.2931 219.095 15.4952C218.896 15.6972 218.784 15.9697 218.784 16.2535C218.76 16.3985 218.76 16.5463 218.784 16.6912L192.372 32.2299V63.3509C192.111 63.3828 191.871 63.5086 191.696 63.7046C191.522 63.9006 191.425 64.1535 191.423 64.416C191.423 64.7037 191.536 64.9799 191.738 65.1847C191.941 65.3895 192.215 65.5065 192.503 65.5103C192.67 65.5087 192.834 65.4668 192.982 65.388C193.129 65.3093 193.255 65.196 193.349 65.058L219.718 80.5383V111.499C219.459 111.531 219.22 111.657 219.048 111.854C218.876 112.05 218.782 112.303 218.784 112.564C218.762 112.709 218.762 112.857 218.784 113.002L192.372 128.54V159.647C192.109 159.679 191.866 159.807 191.692 160.006C191.517 160.205 191.421 160.461 191.423 160.726C191.423 160.872 191.452 161.016 191.511 161.15L165.142 176.615L137.781 160.566L111.267 176.119C111.171 175.984 111.044 175.873 110.897 175.797C110.75 175.721 110.586 175.681 110.421 175.682C110.134 175.664 109.853 175.761 109.638 175.951C109.423 176.141 109.293 176.409 109.275 176.696C109.258 176.982 109.355 177.263 109.545 177.478C109.735 177.693 110.003 177.823 110.289 177.841V208.947L136.716 224.457C136.658 224.59 136.628 224.734 136.629 224.88C136.629 225.166 136.742 225.441 136.945 225.643C137.147 225.846 137.422 225.96 137.708 225.96C137.995 225.96 138.27 225.846 138.472 225.643C138.675 225.441 138.788 225.166 138.788 224.88C138.789 224.734 138.759 224.59 138.701 224.457L165.069 208.991L191.423 224.457C191.401 224.597 191.401 224.74 191.423 224.88C191.424 225.144 191.521 225.399 191.695 225.597C191.87 225.796 192.11 225.924 192.372 225.96V256.906L165.989 272.43C165.892 272.294 165.765 272.183 165.618 272.104C165.472 272.026 165.309 271.982 165.142 271.977C164.975 271.98 164.812 272.023 164.664 272.101C164.517 272.18 164.391 272.292 164.296 272.43L137.781 256.862L110.348 272.911V304.018C110.087 304.05 109.847 304.175 109.673 304.371C109.498 304.567 109.401 304.82 109.399 305.083C109.404 305.232 109.434 305.38 109.487 305.52L83.0453 321.074L55.6992 305.024L29.1994 320.578C29.102 320.444 28.9748 320.335 28.8279 320.259C28.681 320.183 28.5184 320.142 28.353 320.14C28.21 320.14 28.0684 320.168 27.9364 320.223C27.8044 320.279 27.6847 320.359 27.5843 320.461C27.4838 320.563 27.4046 320.684 27.3512 320.816C27.2978 320.949 27.2713 321.091 27.2732 321.234C27.2748 321.497 27.372 321.75 27.5465 321.946C27.7211 322.142 27.9611 322.267 28.2217 322.299V353.42L55.6554 369.47L82.1114 353.946C82.2055 354.081 82.3309 354.192 82.477 354.268C82.6231 354.344 82.7856 354.384 82.9505 354.384C83.1154 354.384 83.2778 354.344 83.424 354.268C83.5701 354.192 83.6955 354.081 83.7896 353.946L110.173 369.426V400.372C109.912 400.404 109.672 400.529 109.497 400.725C109.323 400.922 109.226 401.174 109.224 401.437C109.229 401.587 109.259 401.734 109.312 401.875L82.9286 417.457V449.716L109.355 465.226C109.304 465.361 109.275 465.504 109.268 465.649C109.268 465.935 109.382 466.21 109.584 466.412C109.787 466.615 110.061 466.728 110.348 466.728C110.634 466.728 110.909 466.615 111.111 466.412C111.314 466.21 111.428 465.935 111.428 465.649C111.428 465.503 111.398 465.359 111.34 465.226L136.862 450.256C136.963 450.39 137.092 450.499 137.242 450.575C137.391 450.651 137.556 450.691 137.723 450.694C137.89 450.692 138.054 450.65 138.202 450.571C138.349 450.493 138.475 450.379 138.569 450.241L164.952 465.722V497.674L137.796 513.695L111.428 498.214C111.487 498.081 111.517 497.937 111.515 497.791C111.515 497.505 111.401 497.23 111.199 497.028C110.996 496.825 110.722 496.711 110.435 496.711C110.149 496.711 109.874 496.825 109.672 497.028C109.469 497.23 109.355 497.505 109.355 497.791C109.353 497.937 109.383 498.081 109.443 498.214L82.9432 513.767V544.874C82.684 544.906 82.4457 545.032 82.2735 545.229C82.1013 545.425 82.0073 545.678 82.0093 545.939C82.0053 546.227 82.1149 546.505 82.3143 546.712C82.5137 546.92 82.7868 547.04 83.0745 547.048C83.2416 547.046 83.4059 547.004 83.5532 546.926C83.7006 546.847 83.8268 546.734 83.9209 546.596L110.435 562.149L136.877 546.625C136.97 546.763 137.096 546.877 137.244 546.955C137.391 547.033 137.556 547.074 137.723 547.074C137.89 547.074 138.055 547.033 138.202 546.955C138.35 546.877 138.476 546.763 138.569 546.625L164.952 562.105V594.043L138.642 609.494C138.547 609.359 138.42 609.248 138.273 609.172C138.125 609.096 137.962 609.056 137.796 609.056C137.63 609.056 137.467 609.096 137.319 609.172C137.172 609.248 137.045 609.359 136.95 609.494L110.435 593.941L83.9209 609.494C83.826 609.358 83.6994 609.247 83.5519 609.171C83.4044 609.094 83.2406 609.055 83.0745 609.057C82.7881 609.039 82.5066 609.136 82.2917 609.326C82.0769 609.517 81.9464 609.784 81.929 610.071C81.9116 610.357 82.0087 610.639 82.1989 610.853C82.3891 611.068 82.6568 611.199 82.9432 611.216V642.177L56.5601 657.657C56.4669 657.518 56.341 657.404 56.1934 657.325C56.0458 657.246 55.8811 657.205 55.7138 657.205C55.5494 657.21 55.3885 657.253 55.244 657.332C55.0996 657.41 54.9756 657.522 54.882 657.657L28.3676 642.089L0.948508 658.138V689.245C0.68671 689.28 0.446482 689.409 0.272155 689.607C0.0978273 689.806 0.00116384 690.06 0 690.324C0.00377938 690.614 0.120299 690.89 0.324731 691.094C0.529163 691.298 0.805344 691.415 1.09443 691.419C1.25809 691.41 1.4178 691.365 1.56176 691.287C1.70573 691.209 1.83027 691.099 1.9262 690.966L28.4406 706.534H28.5135L55.8013 690.485L82.1552 705.951C82.1087 706.092 82.0841 706.24 82.0822 706.388C82.0802 706.65 82.1743 706.902 82.3465 707.099C82.5186 707.295 82.757 707.421 83.0162 707.453V738.399L55.6554 754.449V785.555C55.369 785.574 55.102 785.707 54.9132 785.923C54.7244 786.139 54.6292 786.421 54.6485 786.708C54.6679 786.994 54.8002 787.261 55.0164 787.45C55.2326 787.639 55.5149 787.734 55.8013 787.715C55.9649 787.714 56.1258 787.673 56.2706 787.597C56.4153 787.521 56.5396 787.411 56.6331 787.277L83.0453 802.918H83.1183L110.552 786.868V755.674C110.811 755.642 111.05 755.516 111.222 755.32C111.394 755.123 111.488 754.87 111.486 754.609C111.488 754.464 111.458 754.319 111.398 754.186L137.898 738.633V706.374L110.61 690.324V659.378C110.87 659.34 111.106 659.21 111.278 659.012C111.449 658.814 111.544 658.561 111.544 658.299C111.545 658.153 111.515 658.009 111.457 657.876L137.825 642.41L164.194 657.876C164.136 658.039 164.118 658.213 164.14 658.385C164.163 658.556 164.226 658.72 164.325 658.862C164.423 659.005 164.553 659.122 164.706 659.204C164.858 659.286 165.028 659.331 165.201 659.335C165.342 659.333 165.482 659.303 165.613 659.247C165.743 659.191 165.861 659.11 165.96 659.008C166.059 658.907 166.137 658.786 166.189 658.655C166.242 658.523 166.268 658.382 166.266 658.24C166.266 658.095 166.236 657.951 166.178 657.817L192.678 642.264V611.216C192.939 611.184 193.179 611.058 193.353 610.862C193.528 610.666 193.625 610.413 193.627 610.151C193.621 610.006 193.592 609.863 193.539 609.728L219.893 594.262L247.122 610.238V642.177L220.739 657.657C220.646 657.518 220.52 657.404 220.372 657.325C220.225 657.246 220.06 657.205 219.893 657.205C219.621 657.215 219.364 657.326 219.169 657.516C218.975 657.706 218.859 657.961 218.842 658.232C218.826 658.503 218.911 658.771 219.081 658.982C219.251 659.194 219.493 659.336 219.762 659.378V690.324L192.415 706.374V737.495C192.237 737.514 192.066 737.577 191.919 737.678C191.771 737.779 191.651 737.916 191.569 738.075C191.487 738.235 191.446 738.412 191.45 738.591C191.453 738.77 191.502 738.946 191.59 739.102C191.679 739.257 191.805 739.389 191.957 739.484C192.109 739.579 192.282 739.635 192.461 739.646C192.639 739.657 192.818 739.624 192.981 739.549C193.144 739.474 193.285 739.36 193.393 739.216L219.762 754.697V786.795L246.188 802.305C246.132 802.438 246.107 802.583 246.115 802.728C246.113 802.87 246.139 803.01 246.192 803.142C246.244 803.274 246.322 803.394 246.421 803.496C246.52 803.597 246.638 803.678 246.769 803.734C246.899 803.791 247.039 803.82 247.181 803.822C247.468 803.818 247.743 803.701 247.945 803.497C248.147 803.292 248.261 803.016 248.26 802.728C248.264 802.582 248.234 802.437 248.173 802.305L274.673 786.752V755.674C274.959 755.657 275.227 755.526 275.417 755.312C275.607 755.097 275.704 754.815 275.687 754.529C275.669 754.243 275.539 753.975 275.324 753.785C275.109 753.595 274.828 753.498 274.541 753.515C274.374 753.517 274.21 753.558 274.063 753.637C273.915 753.716 273.789 753.829 273.695 753.967L247.356 738.487V707.526C247.616 707.494 247.856 707.369 248.031 707.173C248.205 706.977 248.303 706.724 248.304 706.461C248.305 706.311 248.275 706.162 248.217 706.024L274.716 690.485V659.378C274.978 659.343 275.219 659.215 275.393 659.016C275.567 658.818 275.664 658.563 275.665 658.299C275.665 658.153 275.636 658.009 275.577 657.876L301.931 642.41L329.292 658.459L355.748 642.935C355.842 643.069 355.966 643.179 356.111 643.255C356.255 643.332 356.416 643.372 356.58 643.373C356.866 643.39 357.148 643.293 357.363 643.103C357.577 642.913 357.708 642.645 357.725 642.359C357.743 642.073 357.646 641.791 357.456 641.576C357.265 641.361 356.998 641.231 356.711 641.214V610.078L330.284 594.568C330.331 594.432 330.356 594.289 330.357 594.145C330.375 593.994 330.36 593.841 330.315 593.695C330.269 593.55 330.193 593.416 330.091 593.302C329.99 593.188 329.866 593.097 329.727 593.035C329.588 592.973 329.437 592.94 329.285 592.94C329.132 592.94 328.982 592.973 328.843 593.035C328.704 593.097 328.579 593.188 328.478 593.302C328.377 593.416 328.301 593.55 328.255 593.695C328.209 593.841 328.195 593.994 328.212 594.145C328.19 594.286 328.19 594.428 328.212 594.568L301.931 609.99L275.563 594.525C275.621 594.391 275.651 594.247 275.65 594.102C275.649 593.839 275.552 593.586 275.377 593.39C275.202 593.194 274.962 593.068 274.702 593.036V562.076L301.085 546.596C301.18 546.733 301.306 546.845 301.453 546.924C301.601 547.003 301.764 547.045 301.931 547.048C302.098 547.043 302.261 546.999 302.408 546.921C302.554 546.842 302.681 546.731 302.778 546.596L329.292 562.149L356.726 546.1V514.92C356.886 514.896 357.039 514.836 357.173 514.745C357.307 514.654 357.419 514.534 357.5 514.394C357.581 514.254 357.63 514.097 357.642 513.936C357.655 513.774 357.631 513.612 357.572 513.461L383.941 497.995L411.301 514.045H411.374L437.816 498.521C437.911 498.656 438.038 498.766 438.186 498.843C438.333 498.919 438.496 498.958 438.662 498.958C438.949 498.976 439.23 498.879 439.445 498.689C439.66 498.498 439.79 498.231 439.808 497.944C439.825 497.658 439.728 497.376 439.538 497.162C439.348 496.947 439.08 496.816 438.793 496.799V465.605L411.374 449.556H411.301L384.86 465.065C384.764 464.93 384.637 464.819 384.49 464.743C384.343 464.667 384.179 464.627 384.014 464.627C383.848 464.627 383.684 464.667 383.537 464.743C383.39 464.819 383.263 464.93 383.167 465.065L356.799 449.556V418.61C357.058 418.577 357.296 418.451 357.468 418.255C357.641 418.058 357.735 417.806 357.733 417.545C357.732 417.396 357.708 417.248 357.66 417.107L384.145 401.568V369.309L357.718 353.8C357.765 353.663 357.789 353.521 357.791 353.377C357.809 353.225 357.794 353.072 357.748 352.927C357.703 352.781 357.626 352.647 357.525 352.533C357.424 352.42 357.3 352.329 357.161 352.266C357.022 352.204 356.871 352.172 356.718 352.172C356.566 352.172 356.415 352.204 356.276 352.266C356.137 352.329 356.013 352.42 355.912 352.533C355.811 352.647 355.734 352.781 355.689 352.927C355.643 353.072 355.628 353.225 355.646 353.377C355.624 353.517 355.624 353.659 355.646 353.8L330.138 368.769C330.038 368.635 329.908 368.526 329.759 368.45C329.61 368.374 329.445 368.334 329.277 368.332C329.11 368.332 328.945 368.373 328.798 368.452C328.65 368.531 328.524 368.645 328.431 368.784L302.048 353.304V321.351L329.277 305.302L355.631 320.782C355.578 320.917 355.549 321.06 355.544 321.205C355.544 321.491 355.658 321.766 355.86 321.968C356.063 322.171 356.337 322.285 356.624 322.285C356.91 322.285 357.185 322.171 357.387 321.968C357.59 321.766 357.703 321.491 357.703 321.205C357.727 321.065 357.727 320.922 357.703 320.782L384.189 305.229V274.151C384.449 274.119 384.689 273.994 384.864 273.798C385.038 273.602 385.136 273.349 385.137 273.086C385.139 272.942 385.113 272.8 385.059 272.666C385.006 272.533 384.927 272.411 384.827 272.308C384.727 272.205 384.607 272.123 384.475 272.066C384.343 272.009 384.201 271.979 384.057 271.977C383.891 271.982 383.728 272.026 383.581 272.104C383.434 272.183 383.308 272.294 383.211 272.43L356.653 256.862H356.58L330.124 272.386C330.031 272.25 329.907 272.138 329.763 272.059C329.618 271.98 329.457 271.937 329.292 271.934C329.125 271.936 328.961 271.979 328.814 272.057C328.667 272.136 328.541 272.249 328.446 272.386L302.063 256.906V225.011L328.446 209.531C328.541 209.666 328.668 209.777 328.816 209.853C328.963 209.929 329.126 209.969 329.292 209.969C329.456 209.968 329.617 209.927 329.761 209.851C329.906 209.775 330.03 209.665 330.124 209.531L356.638 225.084L383.08 209.575C383.177 209.708 383.304 209.817 383.451 209.893C383.598 209.969 383.761 210.01 383.926 210.012C384.212 210.03 384.494 209.933 384.709 209.743C384.924 209.552 385.054 209.285 385.072 208.998C385.089 208.712 384.992 208.431 384.802 208.216C384.611 208.001 384.344 207.87 384.057 207.853V176.849L410.44 161.368C410.535 161.506 410.661 161.62 410.808 161.698C410.955 161.777 411.12 161.819 411.287 161.821C411.453 161.816 411.616 161.772 411.763 161.694C411.91 161.615 412.036 161.504 412.133 161.368L438.647 176.936L466.081 160.887V129.693C466.35 129.649 466.593 129.507 466.763 129.293C466.932 129.08 467.016 128.811 466.998 128.54C466.979 128.268 466.86 128.013 466.664 127.824C466.467 127.635 466.208 127.526 465.935 127.519C465.771 127.523 465.609 127.566 465.465 127.645C465.32 127.723 465.196 127.835 465.104 127.971L438.72 112.345H438.647L411.36 128.394L384.991 112.929C385.048 112.79 385.078 112.641 385.079 112.491C385.077 112.229 384.98 111.976 384.805 111.78C384.631 111.584 384.391 111.458 384.13 111.426V80.5529L411.491 64.5036V33.3825C411.633 33.3729 411.771 33.3355 411.899 33.2724C412.026 33.2093 412.14 33.1217 412.233 33.0147C412.327 32.9077 412.398 32.7833 412.444 32.6486C412.489 32.5139 412.507 32.3716 412.498 32.2299C412.488 32.0881 412.451 31.9496 412.388 31.8222C412.325 31.6949 412.237 31.5813 412.13 31.4878C412.023 31.3943 411.899 31.3228 411.764 31.2774C411.629 31.232 411.487 31.2136 411.345 31.2231C411.182 31.2254 411.021 31.2662 410.877 31.3423C410.732 31.4183 410.608 31.5275 410.513 31.6608L383.999 16.0492L356.565 32.0986V63.3509C356.303 63.3861 356.063 63.5148 355.889 63.7133C355.715 63.9117 355.618 64.1665 355.617 64.4306C355.623 64.5707 355.653 64.7087 355.704 64.8391L329.146 80.3924V112.651L356.434 128.701V159.647C356.172 159.682 355.932 159.811 355.758 160.009C355.583 160.208 355.487 160.462 355.485 160.726C355.492 160.871 355.522 161.014 355.573 161.15L329.219 176.615L302.851 161.15C302.91 161.011 302.94 160.862 302.938 160.712C302.938 160.57 302.91 160.43 302.856 160.299C302.802 160.168 302.722 160.049 302.622 159.948C302.522 159.848 302.403 159.769 302.272 159.714C302.141 159.66 302 159.632 301.858 159.632C301.717 159.632 301.576 159.66 301.445 159.714C301.314 159.769 301.195 159.848 301.095 159.948C300.995 160.049 300.915 160.168 300.861 160.299C300.806 160.43 300.779 160.57 300.779 160.712C300.778 160.857 300.808 161.002 300.866 161.135L274.439 176.688V207.809C274.179 207.841 273.939 207.967 273.764 208.163C273.59 208.359 273.492 208.612 273.491 208.874C273.49 209.02 273.52 209.164 273.578 209.297L247.21 224.763L219.995 208.714V176.849L246.378 161.368C246.468 161.507 246.591 161.621 246.737 161.7C246.882 161.779 247.044 161.821 247.21 161.821C247.498 161.817 247.772 161.7 247.974 161.495C248.176 161.29 248.29 161.014 248.29 160.726C248.292 160.464 248.199 160.209 248.027 160.01C247.855 159.812 247.616 159.682 247.356 159.647V128.701L274.702 112.651V81.5304C274.88 81.5115 275.051 81.4485 275.199 81.3472C275.346 81.2458 275.467 81.1093 275.549 80.9499C275.63 80.7905 275.671 80.6132 275.668 80.4341C275.664 80.2549 275.615 80.0795 275.527 79.9237C275.438 79.7678 275.313 79.6365 275.161 79.5415C275.009 79.4464 274.835 79.3907 274.657 79.3793C274.478 79.3679 274.299 79.4012 274.136 79.4761C273.973 79.5511 273.832 79.6654 273.724 79.8088L247.356 64.3285V32.2299L220.856 16.6912C220.879 16.5463 220.879 16.3985 220.856 16.2535C220.857 15.9794 220.753 15.7152 220.566 15.5147C220.379 15.3142 220.123 15.1924 219.849 15.1738ZM383.999 80.2465L374.893 74.9794L357.601 64.7662C357.66 64.6327 357.689 64.4886 357.689 64.3431C357.691 64.0819 357.597 63.8292 357.425 63.6328C357.252 63.4364 357.014 63.3102 356.755 63.278V32.3904L383.97 16.341L410.338 31.8213C410.278 31.9542 410.248 32.0987 410.251 32.2445C410.252 32.5069 410.349 32.7598 410.524 32.9559C410.699 33.1519 410.939 33.2776 411.199 33.3095V64.3431L383.999 80.2465ZM374.791 117.758L356.638 128.409L329.423 112.36V80.5529L355.806 65.0726C355.902 65.2079 356.029 65.3183 356.176 65.3945C356.324 65.4707 356.487 65.5104 356.653 65.5103C356.816 65.5093 356.977 65.4689 357.122 65.3928C357.267 65.3166 357.391 65.2068 357.485 65.0726L365.715 69.902L383.868 80.5529V111.499C383.606 111.534 383.366 111.663 383.191 111.861C383.017 112.06 382.92 112.314 382.919 112.579C382.926 112.719 382.955 112.857 383.007 112.987L374.791 117.758ZM412.352 161.091C412.412 160.953 412.442 160.804 412.44 160.654C412.438 160.391 412.341 160.138 412.166 159.942C411.992 159.746 411.752 159.62 411.491 159.588V128.701L438.72 112.651L465.074 128.117C465.026 128.258 465.002 128.406 465.001 128.555C464.999 128.816 465.093 129.069 465.266 129.265C465.438 129.462 465.676 129.588 465.935 129.62V160.639L438.72 176.688L412.352 161.091ZM383.999 176.557L374.893 171.29L357.601 161.077C357.66 160.943 357.689 160.799 357.689 160.654C357.691 160.391 357.598 160.136 357.426 159.937C357.254 159.739 357.015 159.609 356.755 159.574V128.701L365.831 123.375L383.123 113.162C383.222 113.298 383.352 113.408 383.501 113.484C383.651 113.56 383.816 113.6 383.984 113.6C384.147 113.595 384.307 113.554 384.451 113.478C384.595 113.402 384.72 113.294 384.816 113.162L411.199 128.642V159.588C410.937 159.624 410.697 159.752 410.523 159.951C410.349 160.149 410.252 160.404 410.251 160.668C410.25 160.814 410.28 160.958 410.338 161.091L383.999 176.557ZM330.284 209.239C330.306 209.099 330.306 208.956 330.284 208.816C330.286 208.555 330.192 208.302 330.02 208.106C329.848 207.909 329.61 207.783 329.35 207.751V176.849L355.733 161.368C355.823 161.507 355.947 161.621 356.092 161.7C356.237 161.779 356.4 161.821 356.565 161.821C356.733 161.82 356.897 161.779 357.045 161.7C357.192 161.621 357.318 161.507 357.412 161.368L365.642 166.198L383.795 176.849V207.809C383.534 207.841 383.294 207.967 383.119 208.163C382.945 208.359 382.848 208.612 382.846 208.874C382.846 209.02 382.875 209.164 382.934 209.297L356.565 224.763L330.284 209.239ZM301.931 224.763L292.855 219.438L275.563 209.225C275.621 209.091 275.651 208.947 275.65 208.801C275.649 208.539 275.552 208.286 275.377 208.09C275.202 207.894 274.962 207.768 274.702 207.736V176.849L301.085 161.368C301.179 161.506 301.305 161.62 301.453 161.698C301.6 161.777 301.764 161.819 301.931 161.821C302.098 161.816 302.261 161.772 302.408 161.694C302.554 161.615 302.681 161.504 302.778 161.368L329.146 176.849V207.809C328.887 207.841 328.649 207.968 328.476 208.164C328.304 208.36 328.21 208.613 328.212 208.874C328.212 209.02 328.242 209.164 328.3 209.297L301.931 224.763ZM301.8 256.949L292.724 262.275L274.571 272.926L248.202 257.445C248.263 257.313 248.293 257.168 248.29 257.022C248.292 256.761 248.198 256.508 248.025 256.312C247.853 256.116 247.615 255.989 247.356 255.957V225.011L273.724 209.531C273.82 209.666 273.947 209.777 274.094 209.853C274.241 209.93 274.405 209.969 274.571 209.969C274.736 209.969 274.9 209.93 275.047 209.853C275.194 209.777 275.321 209.666 275.417 209.531L283.647 214.36L301.8 225.011V256.949ZM247.21 258.117C247.375 258.114 247.538 258.074 247.685 257.998C247.832 257.922 247.959 257.812 248.056 257.679L274.439 273.159V304.12C274.179 304.152 273.939 304.277 273.764 304.473C273.59 304.669 273.492 304.922 273.491 305.185C273.49 305.33 273.52 305.474 273.578 305.608L247.079 321.161V352.268C246.9 352.287 246.73 352.35 246.582 352.451C246.434 352.552 246.314 352.689 246.232 352.848C246.15 353.008 246.109 353.185 246.113 353.364C246.117 353.543 246.165 353.719 246.253 353.874C246.342 354.03 246.468 354.162 246.62 354.257C246.772 354.352 246.945 354.407 247.124 354.419C247.303 354.43 247.482 354.397 247.644 354.322C247.807 354.247 247.949 354.133 248.056 353.989L274.439 369.47V400.416C274.255 400.43 274.078 400.49 273.924 400.591C273.769 400.692 273.643 400.83 273.556 400.993C273.47 401.155 273.426 401.337 273.428 401.522C273.431 401.706 273.48 401.887 273.571 402.047C273.662 402.207 273.792 402.342 273.949 402.439C274.106 402.535 274.285 402.591 274.469 402.6C274.653 402.609 274.837 402.571 275.002 402.49C275.168 402.409 275.311 402.288 275.417 402.137L301.8 417.632V448.578C301.541 448.61 301.302 448.737 301.13 448.933C300.958 449.129 300.864 449.382 300.866 449.643C300.866 449.931 300.979 450.207 301.181 450.412C301.384 450.617 301.658 450.734 301.946 450.737C302.113 450.736 302.277 450.694 302.425 450.615C302.572 450.536 302.698 450.423 302.792 450.285L329.161 465.765V497.718L301.931 513.695L275.563 498.214C275.623 498.081 275.653 497.937 275.65 497.791C275.65 497.649 275.622 497.509 275.568 497.378C275.514 497.247 275.434 497.128 275.334 497.028C275.234 496.927 275.115 496.848 274.984 496.794C274.853 496.739 274.712 496.711 274.571 496.711C274.429 496.711 274.288 496.739 274.157 496.794C274.026 496.848 273.907 496.927 273.807 497.028C273.707 497.128 273.627 497.247 273.573 497.378C273.519 497.509 273.491 497.649 273.491 497.791C273.488 497.937 273.518 498.081 273.578 498.214L247.079 513.767V544.874C246.818 544.909 246.58 545.039 246.408 545.237C246.236 545.436 246.142 545.691 246.145 545.954C246.139 546.098 246.164 546.242 246.218 546.377L220.695 561.346C220.601 561.211 220.476 561.1 220.33 561.024C220.184 560.947 220.021 560.908 219.856 560.908C219.691 560.908 219.529 560.947 219.383 561.024C219.237 561.1 219.111 561.211 219.017 561.346L192.649 545.866V514.906C192.909 514.874 193.149 514.748 193.324 514.552C193.499 514.356 193.596 514.103 193.597 513.84C193.591 513.696 193.561 513.553 193.51 513.417L220.01 497.879V466.758C220.151 466.748 220.29 466.711 220.417 466.647C220.545 466.584 220.658 466.497 220.752 466.39C220.845 466.283 220.917 466.158 220.962 466.024C221.008 465.889 221.026 465.747 221.016 465.605C221.007 465.463 220.969 465.325 220.906 465.197C220.843 465.07 220.756 464.956 220.649 464.863C220.542 464.769 220.417 464.698 220.282 464.652C220.148 464.607 220.005 464.589 219.864 464.598C219.7 464.6 219.54 464.641 219.395 464.717C219.251 464.793 219.126 464.903 219.032 465.036L192.649 449.556V418.61C192.911 418.574 193.151 418.446 193.325 418.247C193.5 418.049 193.596 417.794 193.597 417.53C193.594 417.241 193.477 416.965 193.273 416.76C193.068 416.556 192.792 416.44 192.503 416.436C192.339 416.441 192.178 416.484 192.033 416.563C191.889 416.641 191.765 416.753 191.671 416.888L165.273 401.408V370.447C165.534 370.415 165.774 370.29 165.949 370.093C166.123 369.897 166.22 369.645 166.222 369.382C166.222 369.094 166.109 368.818 165.907 368.613C165.705 368.409 165.43 368.292 165.142 368.288C164.975 368.288 164.81 368.33 164.663 368.408C164.515 368.487 164.389 368.601 164.296 368.74L137.913 353.26V321.307L165.142 305.258L191.496 320.738C191.473 320.878 191.473 321.021 191.496 321.161C191.496 321.448 191.61 321.722 191.812 321.925C192.015 322.127 192.289 322.241 192.576 322.241C192.862 322.241 193.137 322.127 193.339 321.925C193.542 321.722 193.656 321.448 193.656 321.161C193.651 321.016 193.621 320.873 193.568 320.738L220.068 305.185V274.151C220.327 274.113 220.564 273.983 220.735 273.785C220.907 273.587 221.001 273.334 221.002 273.072C221.024 272.931 221.024 272.789 221.002 272.648L246.509 257.679C246.591 257.795 246.695 257.893 246.815 257.968C246.936 258.044 247.07 258.094 247.21 258.117ZM329.423 305.097V274.151C329.683 274.119 329.921 273.993 330.093 273.796C330.265 273.6 330.359 273.347 330.357 273.086C330.381 272.941 330.381 272.793 330.357 272.648L356.726 257.183L383.08 272.648C383.02 272.787 382.99 272.936 382.992 273.086C382.994 273.349 383.091 273.602 383.265 273.798C383.44 273.994 383.68 274.119 383.941 274.151V305.097L357.558 320.578C357.462 320.442 357.335 320.332 357.188 320.256C357.04 320.18 356.877 320.14 356.711 320.14C356.548 320.141 356.387 320.181 356.242 320.257C356.097 320.334 355.973 320.443 355.879 320.578L329.423 305.097ZM301.931 321.074L292.855 315.748L275.563 305.535C275.621 305.402 275.651 305.257 275.65 305.112C275.652 304.849 275.556 304.594 275.381 304.397C275.206 304.201 274.964 304.076 274.702 304.047V273.159L283.778 267.834L301.931 257.183L328.3 272.648C328.241 272.799 328.217 272.962 328.23 273.123C328.242 273.285 328.291 273.441 328.372 273.581C328.453 273.722 328.565 273.842 328.699 273.933C328.833 274.024 328.986 274.084 329.146 274.108V305.053L301.931 321.074ZM301.8 353.26L292.724 358.585L274.571 369.222L248.202 353.756C248.26 353.622 248.29 353.478 248.29 353.333C248.292 353.072 248.198 352.819 248.025 352.622C247.853 352.426 247.615 352.3 247.356 352.268V321.307L273.724 305.827C273.818 305.965 273.944 306.079 274.091 306.157C274.239 306.235 274.404 306.276 274.571 306.276C274.738 306.276 274.902 306.235 275.05 306.157C275.197 306.079 275.323 305.965 275.417 305.827L283.647 310.656L301.8 321.307V353.26ZM328.3 368.959C328.241 369.11 328.217 369.272 328.23 369.434C328.242 369.595 328.291 369.752 328.372 369.892C328.453 370.032 328.565 370.152 328.699 370.243C328.833 370.334 328.986 370.394 329.146 370.418V401.379L301.931 417.384L275.563 401.918C275.621 401.785 275.651 401.641 275.65 401.495C275.652 401.23 275.557 400.974 275.382 400.775C275.207 400.576 274.965 400.448 274.702 400.416V369.47L283.778 364.144L301.931 353.493L328.3 368.959ZM356.667 416.45C356.502 416.45 356.338 416.49 356.191 416.566C356.044 416.642 355.917 416.753 355.821 416.888L347.591 412.059L329.438 401.408V370.447C329.695 370.412 329.929 370.284 330.099 370.088C330.268 369.892 330.36 369.641 330.357 369.382C330.381 369.247 330.381 369.109 330.357 368.974L355.894 353.989C355.988 354.125 356.113 354.235 356.26 354.312C356.406 354.388 356.568 354.428 356.733 354.428C356.898 354.428 357.06 354.388 357.207 354.312C357.353 354.235 357.478 354.125 357.572 353.989L383.955 369.47V401.408L357.572 416.888C357.471 416.744 357.335 416.629 357.176 416.552C357.018 416.476 356.843 416.44 356.667 416.45ZM356.521 449.556L347.445 454.881L329.307 465.532L302.938 450.066C302.996 449.933 303.026 449.789 303.026 449.643C303.024 449.381 302.927 449.128 302.752 448.932C302.578 448.736 302.338 448.61 302.077 448.578V417.618L329.307 401.568L338.383 406.894L355.661 417.034C355.637 417.179 355.637 417.327 355.661 417.472C355.659 417.733 355.753 417.986 355.925 418.182C356.097 418.378 356.335 418.505 356.594 418.537L356.521 449.556ZM384.145 497.704V466.758C384.405 466.726 384.645 466.6 384.82 466.404C384.995 466.208 385.092 465.955 385.093 465.693C385.094 465.547 385.064 465.403 385.006 465.269L411.374 449.804L438.604 465.765V496.726C438.343 496.758 438.103 496.884 437.929 497.08C437.754 497.276 437.657 497.529 437.655 497.791C437.653 497.937 437.683 498.081 437.743 498.214L411.374 513.695L384.145 497.704ZM356.667 512.732C356.501 512.734 356.337 512.777 356.19 512.855C356.042 512.934 355.916 513.047 355.821 513.184L347.591 508.34L329.438 497.704V465.751L338.514 460.44L356.667 449.789L383.021 465.255C382.963 465.388 382.933 465.532 382.934 465.678C382.935 465.94 383.033 466.193 383.207 466.389C383.382 466.585 383.622 466.711 383.882 466.743V497.704L357.499 513.184C357.404 513.051 357.279 512.943 357.135 512.867C356.991 512.791 356.831 512.75 356.667 512.746V512.732ZM302.938 546.362C302.996 546.229 303.026 546.085 303.026 545.939C303.025 545.675 302.928 545.42 302.754 545.222C302.579 545.023 302.339 544.895 302.077 544.859V513.928L329.307 497.952L338.383 503.277L355.661 513.417C355.637 513.562 355.637 513.71 355.661 513.855C355.659 514.116 355.753 514.369 355.925 514.565C356.097 514.762 356.335 514.888 356.594 514.92V545.866L329.38 561.842L302.938 546.362ZM274.585 561.828L265.45 556.517L248.158 546.377C248.217 546.243 248.246 546.099 248.246 545.954C248.248 545.689 248.152 545.432 247.977 545.233C247.802 545.034 247.56 544.906 247.297 544.874V513.928L273.68 498.448C273.774 498.586 273.9 498.699 274.048 498.778C274.195 498.856 274.36 498.897 274.527 498.897C274.694 498.897 274.858 498.856 275.006 498.778C275.154 498.699 275.28 498.586 275.373 498.448L301.742 513.928V544.874C301.481 544.909 301.243 545.039 301.071 545.237C300.899 545.436 300.805 545.691 300.808 545.954C300.807 546.099 300.837 546.243 300.895 546.377L274.585 561.828ZM302.077 642.162V610.238L328.46 594.758C328.556 594.893 328.683 595.004 328.83 595.08C328.977 595.156 329.141 595.196 329.307 595.196C329.472 595.194 329.635 595.153 329.782 595.077C329.928 595.001 330.056 594.892 330.153 594.758L356.521 610.238V641.184C356.261 641.216 356.021 641.342 355.846 641.538C355.672 641.734 355.575 641.987 355.573 642.25C355.578 642.394 355.608 642.538 355.661 642.673L329.307 658.138L302.077 642.162ZM220.01 754.682L229.071 749.357L247.224 738.706L273.593 754.172C273.535 754.305 273.505 754.449 273.505 754.595C273.507 754.857 273.604 755.11 273.779 755.306C273.953 755.502 274.193 755.628 274.454 755.66V786.62L248.071 802.101C247.976 801.963 247.849 801.851 247.702 801.772C247.555 801.693 247.391 801.651 247.224 801.648C247.058 801.653 246.895 801.697 246.748 801.775C246.601 801.854 246.475 801.965 246.378 802.101L220.01 786.62V754.682ZM219.864 690.485L228.969 695.956L246.261 706.097C246.208 706.236 246.183 706.385 246.188 706.534C246.186 706.795 246.28 707.048 246.453 707.245C246.625 707.441 246.863 707.567 247.122 707.599V738.56L238.046 743.885L219.893 754.522L193.51 738.983C193.561 738.847 193.591 738.705 193.597 738.56C193.596 738.297 193.499 738.045 193.324 737.849C193.149 737.652 192.909 737.527 192.649 737.495V706.534L219.864 690.485ZM247.224 642.337L256.301 647.662L273.593 657.803C273.535 657.936 273.505 658.08 273.505 658.226C273.507 658.49 273.603 658.745 273.777 658.943C273.952 659.142 274.192 659.27 274.454 659.306V690.252L248.071 705.732C247.975 705.596 247.848 705.486 247.701 705.41C247.554 705.334 247.39 705.294 247.224 705.294C247.059 705.296 246.896 705.337 246.75 705.413C246.603 705.489 246.475 705.598 246.378 705.732L238.148 700.902L220.01 690.252V659.378C220.269 659.34 220.506 659.21 220.677 659.012C220.848 658.814 220.943 658.561 220.944 658.299C220.966 658.159 220.966 658.016 220.944 657.876L247.224 642.337ZM247.356 610.165L256.432 604.825L273.739 594.685C273.834 594.821 273.961 594.931 274.109 595.008C274.256 595.084 274.419 595.124 274.585 595.124C274.751 595.124 274.914 595.084 275.062 595.008C275.209 594.931 275.336 594.821 275.432 594.685L301.8 610.165V642.104L275.432 657.584C275.338 657.445 275.212 657.332 275.064 657.254C274.917 657.175 274.752 657.134 274.585 657.134C274.418 657.134 274.254 657.175 274.106 657.254C273.958 657.332 273.832 657.445 273.739 657.584L265.45 652.827L247.297 642.177L247.356 610.165ZM220.01 593.941V563.068C220.269 563.036 220.507 562.91 220.679 562.713C220.851 562.517 220.945 562.264 220.944 562.003C220.968 561.863 220.968 561.72 220.944 561.58L246.451 546.596C246.548 546.731 246.674 546.842 246.821 546.921C246.968 546.999 247.131 547.043 247.297 547.048C247.464 547.045 247.628 547.003 247.775 546.924C247.922 546.845 248.049 546.733 248.144 546.596L256.374 551.425L274.527 562.076V593.036C274.266 593.068 274.026 593.194 273.852 593.39C273.677 593.586 273.58 593.839 273.578 594.102C273.578 594.247 273.608 594.391 273.666 594.525L265.45 599.339L247.297 609.99L220.01 593.941ZM83.0453 738.72L92.151 744.104L109.443 754.245C109.385 754.378 109.355 754.522 109.355 754.668C109.36 754.929 109.458 755.18 109.632 755.376C109.806 755.571 110.045 755.698 110.304 755.733V786.693L83.0453 802.597L56.779 787.131C56.8077 786.991 56.8077 786.847 56.779 786.708C56.7774 786.445 56.6802 786.192 56.5057 785.996C56.3311 785.8 56.0911 785.675 55.8305 785.643V754.682L83.0453 738.72ZM92.2677 701.209L110.406 690.558L137.635 706.607V738.545L111.282 753.953C111.186 753.817 111.059 753.707 110.912 753.631C110.764 753.555 110.601 753.515 110.435 753.515C110.272 753.516 110.111 753.556 109.966 753.632C109.821 753.709 109.697 753.818 109.604 753.953L101.359 749.123L83.2204 738.472V707.526C83.4822 707.494 83.7225 707.366 83.8951 707.166C84.0676 706.967 84.16 706.71 84.1544 706.447C84.1536 706.301 84.1238 706.157 84.0668 706.024L92.2677 701.209ZM54.7361 657.876C54.6774 658.027 54.6534 658.189 54.6659 658.35C54.6784 658.512 54.7271 658.669 54.8084 658.809C54.8897 658.949 55.0015 659.069 55.1355 659.16C55.2695 659.251 55.4222 659.311 55.5824 659.335V690.281L28.3676 706.33L1.99916 690.864C2.05894 690.726 2.08878 690.577 2.08671 690.427C2.08511 690.164 1.98794 689.911 1.81336 689.715C1.63879 689.519 1.39877 689.393 1.13821 689.361V658.386L28.3676 642.41L54.7361 657.876ZM83.0453 642.41L92.151 647.808L109.443 657.949C109.385 658.082 109.355 658.226 109.355 658.372C109.357 658.636 109.453 658.891 109.628 659.089C109.802 659.288 110.042 659.416 110.304 659.451V690.397L101.227 695.723L83.9209 705.936C83.8251 705.801 83.6983 705.69 83.551 705.614C83.4037 705.538 83.2403 705.498 83.0745 705.498C82.911 705.499 82.75 705.54 82.6053 705.616C82.4606 705.692 82.3362 705.802 82.2428 705.936L55.8597 690.324V659.378C56.1215 659.343 56.3617 659.215 56.5361 659.016C56.7104 658.818 56.807 658.563 56.8082 658.299C56.8205 658.157 56.8106 658.014 56.779 657.876L83.0453 642.41ZM136.775 609.728C136.715 609.861 136.685 610.005 136.687 610.151C136.689 610.413 136.786 610.666 136.96 610.862C137.135 611.058 137.375 611.184 137.635 611.216V642.177L111.282 657.657C111.188 657.518 111.062 657.404 110.915 657.325C110.767 657.246 110.603 657.205 110.435 657.205C110.27 657.205 110.107 657.246 109.962 657.325C109.817 657.404 109.693 657.518 109.604 657.657L101.359 652.827L83.2204 642.177V611.216C83.4796 611.184 83.718 611.057 83.8901 610.861C84.0623 610.665 84.1563 610.412 84.1544 610.151C84.1566 610.005 84.1267 609.861 84.0668 609.728L110.435 594.262L136.775 609.728ZM165.128 594.262L174.233 599.66L191.511 609.801C191.487 609.941 191.487 610.084 191.511 610.224C191.512 610.486 191.609 610.739 191.784 610.935C191.959 611.131 192.199 611.257 192.459 611.289V642.25L166.003 657.657C165.906 657.518 165.777 657.405 165.627 657.327C165.478 657.248 165.311 657.206 165.142 657.205C164.978 657.21 164.817 657.253 164.672 657.332C164.528 657.41 164.404 657.522 164.31 657.657L137.927 642.177V611.216C138.188 611.184 138.428 611.058 138.603 610.862C138.777 610.666 138.874 610.413 138.876 610.151C138.878 610.005 138.848 609.861 138.788 609.728L165.128 594.262ZM165.259 562.076L174.335 556.75L192.488 546.1L218.857 561.58C218.832 561.72 218.832 561.863 218.857 562.003C218.855 562.264 218.949 562.517 219.121 562.713C219.293 562.91 219.532 563.036 219.791 563.068V594.014L193.364 609.494C193.265 609.359 193.135 609.248 192.986 609.172C192.836 609.096 192.671 609.057 192.503 609.057C192.34 609.059 192.179 609.1 192.035 609.176C191.89 609.252 191.765 609.361 191.671 609.494L183.441 604.665L165.288 594.014L165.259 562.076ZM137.635 513.928V544.874C137.375 544.906 137.135 545.032 136.96 545.228C136.786 545.424 136.689 545.677 136.687 545.939C136.685 546.089 136.715 546.239 136.775 546.377L110.406 561.842L84.0668 546.377C84.1255 546.226 84.1495 546.064 84.137 545.902C84.1245 545.741 84.0758 545.584 83.9945 545.444C83.9132 545.304 83.8014 545.184 83.6674 545.093C83.5334 545.001 83.3807 544.942 83.2204 544.918V513.928L109.604 498.448C109.697 498.582 109.821 498.692 109.966 498.768C110.111 498.844 110.272 498.884 110.435 498.885C110.601 498.885 110.764 498.846 110.912 498.77C111.059 498.693 111.186 498.583 111.282 498.448L137.635 513.928ZM165.128 497.952L174.204 503.277L191.481 513.417C191.459 513.557 191.459 513.7 191.481 513.84C191.48 514.104 191.576 514.358 191.751 514.555C191.926 514.752 192.168 514.877 192.43 514.906V545.866L183.353 551.192L165.201 561.842L138.788 546.377C138.847 546.225 138.871 546.061 138.857 545.899C138.844 545.736 138.794 545.579 138.711 545.439C138.628 545.298 138.515 545.179 138.379 545.088C138.243 544.998 138.089 544.94 137.927 544.918V513.928L165.128 497.952ZM165.259 465.765L174.335 460.455L192.488 449.804L218.857 465.269C218.835 465.41 218.835 465.552 218.857 465.693C218.855 465.954 218.949 466.206 219.121 466.403C219.293 466.599 219.532 466.725 219.791 466.758V497.718L193.364 513.198C193.266 513.061 193.137 512.948 192.987 512.87C192.838 512.791 192.672 512.749 192.503 512.746C192.339 512.751 192.178 512.795 192.033 512.873C191.889 512.952 191.765 513.063 191.671 513.198L183.441 508.354L165.288 497.718L165.259 465.765ZM138.788 450.066C138.846 449.933 138.876 449.789 138.876 449.643C138.878 449.378 138.782 449.122 138.607 448.923C138.432 448.724 138.19 448.596 137.927 448.564V417.618L165.157 401.568L191.511 417.034C191.489 417.174 191.489 417.317 191.511 417.457C191.509 417.722 191.604 417.979 191.779 418.178C191.954 418.377 192.196 418.504 192.459 418.537V449.483L183.383 454.808L165.23 465.459L138.788 450.066ZM110.421 402.575C110.586 402.575 110.75 402.535 110.897 402.459C111.044 402.383 111.171 402.273 111.267 402.137L119.526 406.967L137.679 417.618V448.578C137.42 448.61 137.182 448.737 137.01 448.933C136.837 449.129 136.743 449.382 136.745 449.643C136.743 449.784 136.773 449.924 136.833 450.052L111.296 465.036C111.2 464.901 111.074 464.79 110.926 464.714C110.779 464.638 110.616 464.598 110.45 464.598C110.286 464.599 110.125 464.64 109.981 464.716C109.836 464.792 109.712 464.902 109.618 465.036L83.2059 449.556V417.618L109.589 402.137C109.682 402.271 109.807 402.381 109.951 402.457C110.096 402.534 110.257 402.574 110.421 402.575ZM110.567 369.47L119.643 364.144L137.781 353.493L164.15 368.959C164.092 369.092 164.062 369.237 164.062 369.382C164.064 369.645 164.161 369.897 164.336 370.093C164.51 370.29 164.75 370.415 165.011 370.447V401.408L137.781 417.384L128.705 412.059L111.413 401.918C111.472 401.767 111.496 401.605 111.483 401.444C111.471 401.282 111.422 401.126 111.341 400.985C111.259 400.845 111.148 400.725 111.014 400.634C110.88 400.543 110.727 400.483 110.567 400.459V369.47ZM82.9286 321.322V352.282C82.6694 352.314 82.4311 352.441 82.2589 352.637C82.0867 352.833 81.9927 353.086 81.9947 353.347C81.9942 353.493 82.024 353.637 82.0822 353.77L55.7138 369.222L28.4844 353.26V322.299C28.7449 322.267 28.9849 322.142 29.1595 321.946C29.3341 321.75 29.4313 321.497 29.4329 321.234C29.4351 321.088 29.4052 320.944 29.3453 320.811L55.7138 305.331L82.9286 321.322ZM110.421 306.294C110.588 306.291 110.751 306.248 110.899 306.17C111.046 306.091 111.172 305.979 111.267 305.841L119.526 310.656L137.679 321.307V353.26L128.603 358.585L110.45 369.222L84.0668 353.756C84.1182 353.62 84.1477 353.478 84.1544 353.333C84.1528 353.07 84.0556 352.817 83.881 352.621C83.7064 352.425 83.4664 352.3 83.2059 352.268V321.307L109.589 305.827C109.682 305.963 109.805 306.075 109.95 306.154C110.095 306.232 110.256 306.275 110.421 306.279V306.294ZM164.15 272.663C164.092 272.797 164.062 272.941 164.062 273.086C164.063 273.35 164.16 273.605 164.334 273.804C164.509 274.002 164.749 274.131 165.011 274.166V305.112L137.781 321.074L128.705 315.748L111.413 305.535C111.472 305.384 111.496 305.222 111.483 305.06C111.471 304.899 111.422 304.742 111.341 304.602C111.259 304.462 111.148 304.342 111.014 304.251C110.88 304.16 110.727 304.1 110.567 304.076V273.159L137.781 257.183L164.15 272.663ZM192.488 257.183L201.55 262.508L218.842 272.721C218.82 272.862 218.82 273.004 218.842 273.145C218.843 273.406 218.937 273.66 219.109 273.858C219.28 274.056 219.517 274.186 219.776 274.224V305.17L193.349 320.578C193.256 320.439 193.13 320.326 192.982 320.247C192.835 320.169 192.67 320.128 192.503 320.128C192.336 320.128 192.171 320.169 192.024 320.247C191.876 320.326 191.75 320.439 191.657 320.578L165.273 305.097V274.151C165.535 274.116 165.776 273.987 165.95 273.789C166.124 273.591 166.221 273.336 166.222 273.072C166.222 272.926 166.193 272.782 166.134 272.648L192.488 257.183ZM193.481 224.501L201.696 219.686L219.834 209.035L247.064 225.011V255.957C246.805 255.989 246.566 256.116 246.394 256.312C246.222 256.508 246.128 256.761 246.13 257.022C246.098 257.162 246.098 257.306 246.13 257.445L220.608 272.43C220.516 272.291 220.391 272.178 220.245 272.099C220.099 272.021 219.935 271.979 219.769 271.979C219.603 271.979 219.439 272.021 219.293 272.099C219.146 272.178 219.022 272.291 218.93 272.43L210.7 267.6L192.547 256.949V226.003C192.807 225.965 193.046 225.836 193.22 225.638C193.393 225.44 193.491 225.187 193.495 224.924C193.517 224.784 193.517 224.641 193.495 224.501H193.481ZM165.011 176.849V208.787L138.628 224.282C138.534 224.143 138.408 224.03 138.261 223.952C138.113 223.873 137.949 223.832 137.781 223.832C137.614 223.832 137.45 223.873 137.302 223.952C137.155 224.03 137.029 224.143 136.935 224.282L110.567 208.787V177.841C110.826 177.809 111.064 177.682 111.236 177.486C111.408 177.29 111.503 177.037 111.501 176.776C111.503 176.63 111.473 176.486 111.413 176.353L137.781 160.887L165.011 176.849ZM192.488 161.821C192.655 161.819 192.82 161.777 192.967 161.698C193.114 161.62 193.241 161.506 193.335 161.368L201.55 166.198L219.703 176.849V208.787L210.627 214.127L193.335 224.34C193.241 224.202 193.115 224.088 192.967 224.01C192.82 223.932 192.655 223.891 192.488 223.891C192.321 223.891 192.157 223.932 192.009 224.01C191.862 224.088 191.736 224.202 191.642 224.34L165.273 208.787V176.849L191.657 161.368C191.749 161.504 191.873 161.616 192.018 161.695C192.162 161.774 192.324 161.817 192.488 161.821ZM219.834 113.673C220 113.673 220.164 113.633 220.311 113.557C220.458 113.481 220.585 113.37 220.681 113.235L228.911 118.064L247.064 128.715V159.661C246.803 159.697 246.565 159.826 246.393 160.025C246.221 160.224 246.128 160.478 246.13 160.741C246.101 160.881 246.101 161.025 246.13 161.164L219.762 176.63L210.7 171.304L193.408 161.091C193.459 160.956 193.489 160.813 193.495 160.668C193.494 160.404 193.397 160.149 193.223 159.951C193.049 159.752 192.808 159.624 192.547 159.588V128.701L218.93 113.221C219.032 113.366 219.171 113.483 219.332 113.56C219.493 113.637 219.671 113.671 219.849 113.658L219.834 113.673ZM219.98 80.5529L229.057 75.2274L247.195 64.5911L273.564 80.0568C273.505 80.1903 273.476 80.3343 273.476 80.4799C273.478 80.7424 273.575 80.9953 273.749 81.1913C273.924 81.3874 274.164 81.5131 274.425 81.545V112.491L247.195 128.54L238.119 123.215L220.841 113.002C220.863 112.857 220.863 112.709 220.841 112.564C220.843 112.303 220.749 112.05 220.577 111.854C220.405 111.657 220.167 111.531 219.907 111.499L219.98 80.5529ZM219.834 17.3624C220 17.3625 220.164 17.3227 220.311 17.2466C220.458 17.1704 220.585 17.06 220.681 16.9247L247.079 32.3904V64.3285L238.002 69.6539L219.849 80.2465L193.495 64.7808C193.547 64.6453 193.576 64.5024 193.583 64.3577C193.581 64.0952 193.484 63.8423 193.309 63.6462C193.135 63.4502 192.895 63.3245 192.634 63.2926V32.3904L219.017 16.9101C219.112 17.0434 219.236 17.1526 219.381 17.2287C219.525 17.3047 219.686 17.3455 219.849 17.3478L219.834 17.3624Z" fill="#0C478B"/>
</svg>
