<svg width="266" height="265" viewBox="0 0 266 265" fill="none" xmlns="http://www.w3.org/2000/svg">
<rect x="133" width="187.383" height="187.383" rx="30.8184" transform="rotate(45 133 0)" fill="#D9D9D9"/>
<path d="M169.388 154.169L168.484 154.701C168.144 154.392 167.748 154.1 167.287 153.833L126.726 130.416C122.774 128.134 115.806 128.423 111.242 131.058L99.0391 138.103C98.0576 138.67 97.2757 139.303 96.6738 139.967L95.8264 139.435C95.8264 139.435 94.0731 142.019 95.6742 144.832L95.701 144.869C96.1264 145.679 96.8583 146.426 97.9277 147.043L138.488 170.46C142.44 172.743 149.408 172.454 153.972 169.819L166.175 162.774C167.651 161.921 168.695 160.923 169.308 159.886L169.338 159.846C171.173 156.721 169.388 154.169 169.388 154.169Z" fill="#838383"/>
<path d="M138.487 168.773L97.9271 145.356C93.9745 143.073 94.475 139.05 99.0389 136.415L111.241 129.37C115.805 126.735 122.774 126.446 126.726 128.729L167.286 152.146C171.239 154.428 170.739 158.451 166.175 161.086L153.972 168.131C149.408 170.766 142.44 171.055 138.487 168.773Z" fill="#D9D9D9"/>
<path d="M107.667 141.278C105.249 141.278 103.289 140.236 103.289 138.95V142.023C103.289 143.309 105.249 144.352 107.667 144.352C110.084 144.352 112.044 143.309 112.044 142.023V138.95C112.044 140.236 110.084 141.278 107.667 141.278Z" fill="#399EE2"/>
<path d="M107.667 136.62C105.249 136.62 103.289 137.663 103.289 138.949C103.289 140.235 105.249 141.277 107.667 141.277C110.084 141.277 112.044 140.235 112.044 138.949C112.044 137.663 110.084 136.62 107.667 136.62Z" fill="#65B6F8"/>
<path d="M107.667 146.035C104.318 146.035 101.604 144.591 101.604 142.81V138.553C101.604 139.419 102.245 140.206 103.289 140.785V142.02C103.289 143.306 105.249 144.349 107.667 144.349C110.085 144.349 112.045 143.306 112.045 142.02V140.785C113.089 140.206 113.731 139.419 113.731 138.553V142.81C113.731 144.591 111.016 146.035 107.667 146.035Z" fill="#E2DEE2"/>
<path d="M107.667 144.352C105.249 144.352 103.289 143.309 103.289 142.023V140.787C104.393 141.4 105.946 141.781 107.667 141.781C109.387 141.781 110.941 141.4 112.044 140.787V142.023C112.044 143.309 110.084 144.352 107.667 144.352Z" fill="#838383"/>
<path d="M112.045 140.785V138.947C112.045 137.662 110.085 136.619 107.667 136.619C105.249 136.619 103.289 137.662 103.289 138.947V140.785C102.245 140.206 101.604 139.419 101.604 138.553C101.604 136.772 104.318 135.328 107.667 135.328C111.016 135.328 113.731 136.772 113.731 138.553C113.731 139.419 113.089 140.206 112.045 140.785Z" fill="#EFE4E2"/>
<path d="M107.667 141.781C105.946 141.781 104.393 141.4 103.289 140.788V138.95C103.289 140.236 105.249 141.279 107.667 141.279C110.084 141.279 112.044 140.236 112.044 138.95V140.788C110.941 141.4 109.387 141.781 107.667 141.781Z" fill="white"/>
<path d="M107.667 141.277C105.249 141.277 103.289 140.235 103.289 138.949C103.289 137.663 105.249 136.62 107.667 136.62C110.084 136.62 112.044 137.663 112.044 138.949C112.044 140.235 110.084 141.277 107.667 141.277Z" fill="#F5F5F5"/>
<path d="M119.795 134.197C117.377 134.197 115.417 133.154 115.417 131.868V134.941C115.417 136.227 117.377 137.27 119.795 137.27C122.213 137.27 124.173 136.227 124.173 134.941V131.868C124.173 133.154 122.213 134.197 119.795 134.197Z" fill="#399EE2"/>
<path d="M119.795 129.542C117.377 129.542 115.417 130.584 115.417 131.87C115.417 133.156 117.377 134.199 119.795 134.199C122.213 134.199 124.173 133.156 124.173 131.87C124.173 130.584 122.213 129.542 119.795 129.542Z" fill="#65B6F8"/>
<path d="M119.795 138.957C116.446 138.957 113.731 137.513 113.731 135.732V131.475C113.731 132.341 114.373 133.127 115.417 133.707V134.942C115.417 136.228 117.378 137.271 119.795 137.271C122.213 137.271 124.173 136.228 124.173 134.942V133.707C125.217 133.127 125.859 132.341 125.859 131.475V135.732C125.859 137.513 123.144 138.957 119.795 138.957Z" fill="#E2DEE2"/>
<path d="M119.795 137.27C117.377 137.27 115.417 136.227 115.417 134.941V133.706C116.521 134.318 118.074 134.699 119.795 134.699C121.516 134.699 123.069 134.318 124.173 133.706V134.941C124.173 136.227 122.213 137.27 119.795 137.27Z" fill="#838383"/>
<path d="M115.417 133.707C114.373 133.127 113.731 132.341 113.731 131.475C113.731 129.694 116.446 128.25 119.795 128.25C123.144 128.25 125.859 129.694 125.859 131.475C125.859 132.341 125.217 133.127 124.173 133.707V131.869C124.173 130.583 122.213 129.541 119.795 129.541C117.378 129.541 115.417 130.583 115.417 131.869V133.707Z" fill="#EFE4E2"/>
<path d="M119.795 134.699C118.074 134.699 116.521 134.318 115.417 133.706V131.868C115.417 133.154 117.377 134.197 119.795 134.197C122.213 134.197 124.173 133.154 124.173 131.868V133.706C123.069 134.318 121.516 134.699 119.795 134.699Z" fill="white"/>
<path d="M119.795 134.199C117.377 134.199 115.417 133.156 115.417 131.87C115.417 130.584 117.377 129.542 119.795 129.542C122.213 129.542 124.173 130.584 124.173 131.87C124.173 133.156 122.213 134.199 119.795 134.199Z" fill="#F5F5F5"/>
<path d="M120.479 148.485C118.062 148.485 116.102 147.443 116.102 146.157V149.23C116.102 150.516 118.062 151.559 120.479 151.559C122.897 151.559 124.857 150.516 124.857 149.23V146.157C124.857 147.443 122.897 148.485 120.479 148.485Z" fill="#399EE2"/>
<path d="M120.479 143.827C118.062 143.827 116.102 144.87 116.102 146.156C116.102 147.442 118.062 148.484 120.479 148.484C122.897 148.484 124.857 147.442 124.857 146.156C124.857 144.87 122.897 143.827 120.479 143.827Z" fill="#65B6F8"/>
<path d="M120.478 153.242C117.129 153.242 114.414 151.798 114.414 150.017V145.76C114.414 146.626 115.056 147.412 116.1 147.992V149.227C116.1 150.513 118.06 151.556 120.478 151.556C122.896 151.556 124.856 150.513 124.856 149.227V147.992C125.9 147.412 126.542 146.626 126.542 145.76V150.017C126.542 151.798 123.827 153.242 120.478 153.242Z" fill="#E2DEE2"/>
<path d="M120.479 151.559C118.062 151.559 116.102 150.516 116.102 149.23V147.995C117.205 148.607 118.759 148.988 120.479 148.988C122.2 148.988 123.753 148.607 124.857 147.995V149.23C124.857 150.516 122.897 151.559 120.479 151.559Z" fill="#838383"/>
<path d="M124.856 147.992V146.154C124.856 144.868 122.896 143.826 120.478 143.826C118.06 143.826 116.1 144.868 116.1 146.154V147.992C115.056 147.413 114.414 146.626 114.414 145.76C114.414 143.979 117.129 142.535 120.478 142.535C123.827 142.535 126.542 143.979 126.542 145.76C126.542 146.626 125.9 147.413 124.856 147.992Z" fill="#EFE4E2"/>
<path d="M120.479 148.988C118.759 148.988 117.205 148.607 116.102 147.995V146.157C116.102 147.443 118.062 148.485 120.479 148.485C122.897 148.485 124.857 147.443 124.857 146.157V147.995C123.753 148.607 122.2 148.988 120.479 148.988Z" fill="white"/>
<path d="M120.479 148.484C118.062 148.484 116.102 147.442 116.102 146.156C116.102 144.87 118.062 143.827 120.479 143.827C122.897 143.827 124.857 144.87 124.857 146.156C124.857 147.442 122.897 148.484 120.479 148.484Z" fill="#F5F5F5"/>
<path d="M132.606 141.403C130.188 141.403 128.229 140.361 128.229 139.075V142.148C128.229 143.434 130.188 144.477 132.606 144.477C135.024 144.477 136.984 143.434 136.984 142.148V139.075C136.984 140.361 135.024 141.403 132.606 141.403Z" fill="#399EE2"/>
<path d="M132.606 136.749C130.188 136.749 128.229 137.792 128.229 139.078C128.229 140.364 130.188 141.406 132.606 141.406C135.024 141.406 136.984 140.364 136.984 139.078C136.984 137.792 135.024 136.749 132.606 136.749Z" fill="#65B6F8"/>
<path d="M132.607 146.164C129.258 146.164 126.543 144.72 126.543 142.938V138.682C126.543 139.548 127.185 140.334 128.229 140.914V142.149C128.229 143.435 130.189 144.478 132.607 144.478C135.025 144.478 136.985 143.435 136.985 142.149V140.914C138.029 140.334 138.671 139.548 138.671 138.682V142.938C138.671 144.72 135.956 146.164 132.607 146.164Z" fill="#E2DEE2"/>
<path d="M132.606 144.477C130.188 144.477 128.229 143.434 128.229 142.148V140.912C129.332 141.525 130.886 141.906 132.607 141.906C134.327 141.906 135.88 141.525 136.984 140.913V142.148C136.984 143.434 135.024 144.477 132.606 144.477Z" fill="#838383"/>
<path d="M136.985 140.914V139.076C136.985 137.79 135.025 136.748 132.607 136.748C130.189 136.748 128.229 137.79 128.229 139.076V140.914C127.185 140.334 126.543 139.548 126.543 138.682C126.543 136.901 129.258 135.457 132.607 135.457C135.956 135.457 138.671 136.901 138.671 138.682C138.671 139.548 138.029 140.334 136.985 140.914Z" fill="#EFE4E2"/>
<path d="M132.607 141.906C130.886 141.906 129.332 141.525 128.229 140.913V139.075C128.229 140.361 130.188 141.404 132.606 141.404C135.024 141.404 136.984 140.361 136.984 139.075V140.913C135.88 141.525 134.327 141.906 132.607 141.906Z" fill="white"/>
<path d="M132.606 141.406C130.188 141.406 128.229 140.364 128.229 139.078C128.229 137.792 130.188 136.749 132.606 136.749C135.024 136.749 136.984 137.792 136.984 139.078C136.984 140.364 135.024 141.406 132.606 141.406Z" fill="#F5F5F5"/>
<path d="M133.292 155.692C130.874 155.692 128.914 154.65 128.914 153.364V156.437C128.914 157.723 130.874 158.766 133.292 158.766C135.709 158.766 137.669 157.723 137.669 156.437V153.364C137.669 154.65 135.709 155.692 133.292 155.692Z" fill="#399EE2"/>
<path d="M133.292 151.034C130.874 151.034 128.914 152.077 128.914 153.363C128.914 154.649 130.874 155.691 133.292 155.691C135.709 155.691 137.669 154.649 137.669 153.363C137.669 152.077 135.709 151.034 133.292 151.034Z" fill="#65B6F8"/>
<path d="M133.291 160.449C129.942 160.449 127.228 159.005 127.228 157.224V152.967C127.228 153.833 127.869 154.619 128.913 155.199V156.434C128.913 157.72 130.873 158.763 133.291 158.763C135.709 158.763 137.669 157.72 137.669 156.434V155.199C138.713 154.619 139.355 153.833 139.355 152.967V157.224C139.355 159.005 136.64 160.449 133.291 160.449Z" fill="#E2DEE2"/>
<path d="M133.292 158.766C130.874 158.766 128.914 157.723 128.914 156.437V155.201C130.018 155.814 131.571 156.195 133.292 156.195C135.012 156.195 136.566 155.814 137.669 155.201V156.437C137.669 157.723 135.709 158.766 133.292 158.766Z" fill="#838383"/>
<path d="M137.669 155.199V153.362C137.669 152.076 135.709 151.033 133.291 151.033C130.873 151.033 128.913 152.076 128.913 153.362V155.199C127.869 154.62 127.228 153.834 127.228 152.968C127.228 151.186 129.942 149.742 133.291 149.742C136.64 149.742 139.355 151.186 139.355 152.968C139.355 153.834 138.713 154.62 137.669 155.199Z" fill="#EFE4E2"/>
<path d="M133.292 156.195C131.571 156.195 130.018 155.814 128.914 155.202V153.364C128.914 154.65 130.874 155.693 133.292 155.693C135.709 155.693 137.669 154.65 137.669 153.364V155.202C136.566 155.814 135.012 156.195 133.292 156.195Z" fill="white"/>
<path d="M133.292 155.691C130.874 155.691 128.914 154.649 128.914 153.363C128.914 152.077 130.874 151.034 133.292 151.034C135.709 151.034 137.669 152.077 137.669 153.363C137.669 154.649 135.709 155.691 133.292 155.691Z" fill="#F5F5F5"/>
<path d="M145.42 148.61C143.002 148.61 141.042 147.568 141.042 146.282V149.355C141.042 150.641 143.002 151.684 145.42 151.684C147.838 151.684 149.797 150.641 149.797 149.355V146.282C149.797 147.568 147.838 148.61 145.42 148.61Z" fill="#399EE2"/>
<path d="M145.42 143.956C143.002 143.956 141.042 144.999 141.042 146.285C141.042 147.571 143.002 148.613 145.42 148.613C147.838 148.613 149.797 147.571 149.797 146.285C149.797 144.999 147.838 143.956 145.42 143.956Z" fill="#65B6F8"/>
<path d="M145.419 153.371C142.07 153.371 139.355 151.927 139.355 150.145V145.889C139.355 146.755 139.997 147.541 141.041 148.121V149.356C141.041 150.642 143.002 151.685 145.419 151.685C147.837 151.685 149.797 150.642 149.797 149.356V148.121C150.841 147.541 151.483 146.755 151.483 145.889V150.145C151.483 151.927 148.768 153.371 145.419 153.371Z" fill="#E2DEE2"/>
<path d="M145.42 151.684C143.002 151.684 141.042 150.641 141.042 149.355V148.119C142.146 148.732 143.699 149.113 145.42 149.113C147.141 149.113 148.694 148.732 149.797 148.119V149.355C149.797 150.641 147.838 151.684 145.42 151.684Z" fill="#838383"/>
<path d="M149.797 148.121V146.284C149.797 144.998 147.837 143.955 145.419 143.955C143.002 143.955 141.041 144.998 141.041 146.284V148.121C139.997 147.542 139.355 146.755 139.355 145.889C139.355 144.108 142.07 142.664 145.419 142.664C148.768 142.664 151.483 144.108 151.483 145.889C151.483 146.755 150.841 147.542 149.797 148.121Z" fill="#EFE4E2"/>
<path d="M145.42 149.113C143.699 149.113 142.146 148.732 141.042 148.12V146.282C141.042 147.568 143.002 148.611 145.42 148.611C147.838 148.611 149.797 147.568 149.797 146.282V148.12C148.694 148.732 147.141 149.113 145.42 149.113Z" fill="white"/>
<path d="M145.42 148.613C143.002 148.613 141.042 147.571 141.042 146.285C141.042 144.999 143.002 143.956 145.42 143.956C147.838 143.956 149.797 144.999 149.797 146.285C149.797 147.571 147.838 148.613 145.42 148.613Z" fill="#F5F5F5"/>
<path d="M146.105 162.899C143.687 162.899 141.728 161.857 141.728 160.571V163.644C141.728 164.93 143.687 165.973 146.105 165.973C148.523 165.973 150.483 164.93 150.483 163.644V160.571C150.483 161.857 148.523 162.899 146.105 162.899Z" fill="#399EE2"/>
<path d="M146.105 158.241C143.687 158.241 141.728 159.284 141.728 160.57C141.728 161.856 143.687 162.898 146.105 162.898C148.523 162.898 150.483 161.856 150.483 160.57C150.483 159.284 148.523 158.241 146.105 158.241Z" fill="#65B6F8"/>
<path d="M146.104 167.656C142.755 167.656 140.04 166.212 140.04 164.431V160.174C140.04 161.04 140.682 161.826 141.726 162.406V163.641C141.726 164.927 143.686 165.97 146.104 165.97C148.522 165.97 150.482 164.927 150.482 163.641V162.406C151.526 161.826 152.168 161.04 152.168 160.174V164.431C152.168 166.212 149.453 167.656 146.104 167.656Z" fill="#E2DEE2"/>
<path d="M146.105 165.973C143.687 165.973 141.728 164.93 141.728 163.644V162.408C142.831 163.021 144.385 163.402 146.105 163.402C147.826 163.402 149.379 163.021 150.483 162.408V163.644C150.483 164.93 148.523 165.973 146.105 165.973Z" fill="#838383"/>
<path d="M141.726 162.406C140.682 161.827 140.04 161.041 140.04 160.174C140.04 158.393 142.755 156.949 146.104 156.949C149.453 156.949 152.168 158.393 152.168 160.174C152.168 161.041 151.526 161.827 150.482 162.406V160.569C150.482 159.283 148.522 158.24 146.104 158.24C143.686 158.24 141.726 159.283 141.726 160.569V162.406Z" fill="#EFE4E2"/>
<path d="M146.105 163.402C144.385 163.402 142.831 163.021 141.728 162.409V160.571C141.728 161.857 143.687 162.9 146.105 162.9C148.523 162.9 150.483 161.857 150.483 160.571V162.409C149.379 163.021 147.826 163.402 146.105 163.402Z" fill="white"/>
<path d="M146.105 162.898C143.687 162.898 141.728 161.856 141.728 160.57C141.728 159.284 143.687 158.241 146.105 158.241C148.523 158.241 150.483 159.284 150.483 160.57C150.483 161.856 148.523 162.898 146.105 162.898Z" fill="#F5F5F5"/>
<path d="M158.232 155.817C155.814 155.817 153.854 154.775 153.854 153.489V156.562C153.854 157.848 155.814 158.891 158.232 158.891C160.65 158.891 162.61 157.848 162.61 156.562V153.489C162.61 154.775 160.65 155.817 158.232 155.817Z" fill="#399EE2"/>
<path d="M158.232 151.163C155.814 151.163 153.854 152.205 153.854 153.491C153.854 154.778 155.814 155.82 158.232 155.82C160.65 155.82 162.61 154.778 162.61 153.491C162.61 152.205 160.65 151.163 158.232 151.163Z" fill="#65B6F8"/>
<path d="M158.231 160.578C154.882 160.578 152.167 159.134 152.167 157.353V153.096C152.167 153.962 152.809 154.748 153.853 155.328V156.563C153.853 157.849 155.813 158.892 158.231 158.892C160.649 158.892 162.609 157.849 162.609 156.563V155.328C163.653 154.748 164.295 153.962 164.295 153.096V157.353C164.295 159.134 161.58 160.578 158.231 160.578Z" fill="#E2DEE2"/>
<path d="M158.232 158.891C155.814 158.891 153.854 157.848 153.854 156.562V155.326C154.958 155.939 156.512 156.32 158.232 156.32C159.953 156.32 161.506 155.939 162.61 155.326V156.562C162.61 157.848 160.65 158.891 158.232 158.891Z" fill="#838383"/>
<path d="M153.853 155.328C152.809 154.749 152.167 153.962 152.167 153.096C152.167 151.315 154.882 149.871 158.231 149.871C161.58 149.871 164.295 151.315 164.295 153.096C164.295 153.962 163.653 154.749 162.609 155.328V153.49C162.609 152.204 160.649 151.162 158.231 151.162C155.813 151.162 153.853 152.204 153.853 153.49V155.328Z" fill="#EFE4E2"/>
<path d="M158.232 156.32C156.512 156.32 154.958 155.939 153.854 155.327V153.489C153.854 154.775 155.814 155.818 158.232 155.818C160.65 155.818 162.61 154.775 162.61 153.489V155.327C161.506 155.939 159.953 156.32 158.232 156.32Z" fill="white"/>
<path d="M158.232 155.82C155.814 155.82 153.854 154.778 153.854 153.491C153.854 152.205 155.814 151.163 158.232 151.163C160.65 151.163 162.61 152.205 162.61 153.491C162.61 154.778 160.65 155.82 158.232 155.82Z" fill="#F5F5F5"/>
<path d="M153.089 123.846C147.3 123.846 142.608 126.342 142.608 129.421C142.608 132.5 147.3 134.996 153.089 134.996C158.877 134.996 163.569 132.5 163.569 129.421C163.569 126.342 158.877 123.846 153.089 123.846Z" fill="#838383"/>
<path d="M140.152 97.8587V125.958C140.152 129.759 145.945 132.84 153.089 132.84C160.235 132.84 166.027 129.759 166.027 125.958V97.8587H140.152Z" fill="#E9660B"/>
<path d="M153.089 110.002C145.944 110.002 140.152 106.922 140.152 103.121V119.587C140.152 123.388 145.944 126.469 153.089 126.469C160.234 126.469 166.027 123.388 166.027 119.587V103.121C166.027 106.922 160.234 110.002 153.089 110.002Z" fill="white"/>
<path d="M166.027 97.5751C166.027 93.8042 161.309 90.224 161.309 90.224L159.605 91.9471C157.685 91.3473 155.477 90.9791 153.089 90.9791C150.702 90.9791 148.494 91.3473 146.574 91.9471L144.87 90.224C144.87 90.224 140.152 93.8042 140.152 97.5751C140.152 97.6106 140.152 97.7905 140.152 97.8606C140.152 101.661 145.944 104.742 153.089 104.742C160.234 104.742 166.027 101.661 166.027 97.8606C166.027 97.7905 166.027 97.6106 166.027 97.5751Z" fill="#CB5C0E"/>
<path d="M153.088 87.7147C147.822 87.7147 143.553 89.9859 143.553 92.787C143.553 95.5886 147.822 97.8594 153.088 97.8594C158.355 97.8594 162.624 95.5886 162.624 92.787C162.624 89.9859 158.355 87.7147 153.088 87.7147Z" fill="#CB5C0E"/>
<path d="M153.09 87.7158C149.458 87.7158 146.515 89.2819 146.515 91.2134C146.515 93.1449 149.458 94.7109 153.09 94.7109C156.721 94.7109 159.665 93.1449 159.665 91.2134C159.665 89.2819 156.721 87.7158 153.09 87.7158Z" fill="#FDCE25"/>
<path d="M145.034 80.2797V86.9268C145.034 87.711 145.538 88.4057 146.23 89.0382V83.9356C146.23 83.6192 146.424 83.4726 146.661 83.6098C146.898 83.7467 147.092 84.1176 147.092 84.4333V89.7189C147.765 90.1277 148.565 90.457 149.484 90.7067V85.5024C149.484 85.2287 149.708 85.0047 149.982 85.0047C150.256 85.0047 150.48 85.2287 150.48 85.5024V90.9314C151.225 91.069 152.002 91.1683 152.828 91.1836V85.8105C152.828 85.5368 153.052 85.3128 153.326 85.3128C153.6 85.3128 153.824 85.5368 153.824 85.8105V91.1325C154.663 91.0902 155.499 91.0367 156.243 90.8682V85.2892C156.243 85.0148 156.467 84.7907 156.741 84.7907C157.015 84.7907 157.239 85.0148 157.239 85.2892V90.5112C158 90.2611 158.669 89.97 159.233 89.6033V84.4333C159.233 84.1176 159.427 83.7467 159.665 83.6098C159.902 83.4726 160.096 83.6192 160.096 83.9356V88.9229C160.708 88.3185 161.145 87.6607 161.145 86.9268V80.2797H145.034Z" fill="#37474F"/>
<path d="M153.326 85.3123C153.052 85.3123 152.828 85.5363 152.828 85.81V91.1831C152.92 91.1845 152.997 91.2109 153.089 91.2109C153.35 91.2109 153.57 91.1449 153.824 91.1321V85.81C153.824 85.5363 153.6 85.3123 153.326 85.3123Z" fill="#2F3D44"/>
<path d="M149.981 85.0068C149.707 85.0068 149.483 85.2309 149.483 85.5046V90.7089C149.809 90.7971 150.13 90.869 150.479 90.9336V85.5046C150.479 85.2309 150.255 85.0068 149.981 85.0068Z" fill="#2F3D44"/>
<path d="M156.741 84.7936C156.467 84.7936 156.242 85.0176 156.242 85.292V90.8711C156.617 90.7863 156.896 90.6273 157.238 90.514V85.292C157.238 85.0176 157.015 84.7936 156.741 84.7936Z" fill="#2F3D44"/>
<path d="M159.663 83.612C159.426 83.7489 159.231 84.1198 159.231 84.4355V89.6055C159.559 89.3933 159.848 89.1678 160.094 88.9251V83.9378C160.094 83.6214 159.9 83.4748 159.663 83.612Z" fill="#2F3D44"/>
<path d="M146.66 83.6097C146.423 83.4725 146.229 83.619 146.229 83.9354V89.038C146.489 89.2763 146.752 89.5124 147.091 89.7188V84.4332C147.091 84.1174 146.897 83.7465 146.66 83.6097Z" fill="#2F3D44"/>
<path d="M153.089 75.9965C148.641 75.9965 145.034 77.9151 145.034 80.2815C145.034 82.6478 148.641 84.5664 153.089 84.5664C157.539 84.5664 161.145 82.6478 161.145 80.2815C161.145 77.9151 157.539 75.9965 153.089 75.9965Z" fill="#2F3D44"/>
<path d="M153.163 75.995C149.811 75.995 147.093 77.4409 147.093 79.224C147.093 81.0076 149.811 82.4531 153.163 82.4531C156.516 82.4531 159.234 81.0076 159.234 79.224C159.234 77.4409 156.516 75.995 153.163 75.995Z" fill="#2F3D44"/>
<path d="M147.667 100.66C146.711 101.684 145.853 103.231 145.518 104.027C145.192 104.802 144.564 106.384 145.186 107.168C145.697 107.81 146.415 107.342 146.68 106.751C147 106.038 147.114 105.179 147.314 104.421C147.572 103.444 148.063 101.977 148.279 100.989C148.386 100.5 148.208 100.08 147.667 100.66Z" fill="white"/>
<path d="M159.99 117.716C160.092 121.757 156.934 124.473 153.164 124.473C149.394 124.473 146.338 121.757 146.338 117.716C146.338 114.292 149.394 112.072 153.164 112.072C156.934 112.072 159.904 114.293 159.99 117.716Z" fill="#E9660B"/>
<path d="M157.435 116.382C156.531 116.634 155.565 116.795 154.581 116.879V113.715H151.752V116.889C150.77 116.812 149.804 116.66 148.894 116.417L148.407 116.287V118.987L148.694 119.064C149.671 119.325 150.697 119.49 151.752 119.568V122.828H154.581V119.558C155.642 119.471 156.669 119.298 157.643 119.026L157.926 118.947V116.245L157.435 116.382Z" fill="#EFE2E1"/>
<path d="M135.412 74.6811V113.61C135.412 118.513 127.939 122.488 118.722 122.488C109.504 122.488 102.031 118.513 102.031 113.61L102.032 74.5148L135.412 74.6811Z" fill="#0C478B"/>
<path d="M108.679 88.1523C111.48 89.2835 114.933 89.9806 118.721 89.9806C127.939 89.9806 135.412 86.0058 135.412 81.103V107.189C135.412 112.092 127.939 116.066 118.721 116.066C114.933 116.066 111.48 115.37 108.679 114.238V88.1523Z" fill="white"/>
<path d="M112.31 94.4401C114.285 94.892 116.43 95.1713 118.721 95.1713C127.939 95.1713 135.411 91.1965 135.411 86.2936V89.2747C135.411 94.1776 127.939 98.1523 118.721 98.1523C116.43 98.1523 114.285 97.8727 112.31 97.4212V94.4401Z" fill="#E9660B"/>
<path d="M102.763 72.0544L102.744 72.0471C102.744 72.0471 102.897 71.7473 103.21 71.2885C103.298 71.1684 103.378 71.0478 103.476 70.9301C104.678 69.3025 107.538 66.2884 113.176 64.7328C115.128 64.1944 116.244 64.6977 116.835 65.74C117.462 65.7022 118.076 65.639 118.721 65.639C119.382 65.639 120.008 65.7025 120.648 65.7425C121.239 64.6977 122.355 64.1941 124.31 64.7328C130.202 66.3583 133.098 69.6068 134.196 71.1687C134.576 71.7084 135.411 73.6615 135.411 74.5162C135.411 79.4197 127.939 83.3945 118.721 83.3945C109.504 83.3945 102.031 79.4197 102.031 74.5162C102.031 73.6562 102.333 72.8411 102.763 72.0544Z" fill="#0964CD"/>
<path d="M118.358 64.0254C123.319 64.0254 127.341 66.1649 127.341 68.8039C127.341 71.4429 123.319 73.582 118.358 73.582C113.397 73.582 109.375 71.4429 109.375 68.8039C109.375 66.1649 113.397 64.0254 118.358 64.0254Z" fill="#399EE2"/>
<path d="M127.743 58.013V65.5958C127.743 66.4908 127.168 67.2834 126.379 68.0048C126.082 68.2764 125.783 68.546 125.395 68.7814C124.628 69.2479 123.715 69.6237 122.666 69.9082C122.295 70.0089 121.929 70.0909 121.53 70.1645C120.68 70.3215 119.794 70.435 118.852 70.4521C118.747 70.4538 118.66 70.4844 118.554 70.4844C118.256 70.4844 118.006 70.4087 117.716 70.3941C116.759 70.3458 115.805 70.2847 114.956 70.0926C114.529 69.9957 114.21 69.8144 113.82 69.6855C112.952 69.4 112.189 69.0676 111.545 68.6495C111.172 68.4074 110.842 68.15 110.561 67.8732C109.863 67.1837 109.364 66.4335 109.364 65.5958V58.013H127.743Z" fill="#37474F"/>
<path d="M118.284 63.755C118.597 63.755 118.852 64.0106 118.852 64.3232V70.4524C118.747 70.4542 118.66 70.4844 118.554 70.4844C118.257 70.4844 118.006 70.409 117.716 70.3944V64.3232C117.716 64.0106 117.971 63.755 118.284 63.755Z" fill="#2F3D44"/>
<path d="M122.1 63.4027C122.413 63.4027 122.668 63.6583 122.668 63.9709V69.9077C122.297 70.0085 121.931 70.0904 121.532 70.1641V63.9709C121.532 63.6583 121.788 63.4027 122.1 63.4027Z" fill="#2F3D44"/>
<path d="M114.389 63.1569C114.701 63.1569 114.957 63.4122 114.957 63.7251V70.0898C114.53 69.9929 114.211 69.8116 113.82 69.6828V63.7251C113.82 63.4122 114.076 63.1569 114.389 63.1569Z" fill="#2F3D44"/>
<path d="M111.053 61.811C111.324 61.967 111.545 62.3903 111.545 62.7509V68.6484C111.172 68.4064 110.843 68.149 110.562 67.8722V62.1826C110.562 61.8221 110.783 61.6547 111.053 61.811Z" fill="#2F3D44"/>
<path d="M125.888 61.8118C126.159 61.6555 126.38 61.8229 126.38 62.1835V68.0046C126.083 68.2762 125.784 68.5458 125.396 68.7812V62.7517C125.396 62.3912 125.618 61.9678 125.888 61.8118Z" fill="#2F3D44"/>
<path d="M118.554 53.1219C123.629 53.1219 127.744 55.3104 127.744 58.0102C127.744 60.7099 123.629 62.8984 118.554 62.8984C113.479 62.8984 109.364 60.7099 109.364 58.0102C109.364 55.3104 113.479 53.1219 118.554 53.1219Z" fill="#2F3D44"/>
<path d="M127.088 101.566C129.3 100.523 132.816 100.495 132.816 100.495L133.769 102.354C134.609 104.133 132.979 106.666 130.129 108.011C127.337 109.328 124.422 109.007 123.515 107.321L122.495 105.365C122.495 105.365 124.876 102.61 127.088 101.566Z" fill="#838383"/>
<path d="M129.177 106.152C132.027 104.807 133.657 102.274 132.817 100.495C131.977 98.715 128.986 98.3625 126.136 99.7073C123.286 101.052 121.657 103.585 122.496 105.365C123.336 107.144 126.327 107.497 129.177 106.152Z" fill="#FDCE25"/>
<path d="M113.503 103.954C115.096 103.75 117.242 104.13 119.413 105.139C121.75 106.227 123.536 107.764 124.333 109.206L125.472 109.759L124.619 111.547C123.777 113.358 120.081 113.423 116.364 111.694C112.647 109.965 110.315 107.096 111.157 105.286L112.095 103.271L113.503 103.954Z" fill="#838383"/>
<path d="M117.301 109.679C121.018 111.408 124.714 111.342 125.556 109.532C126.398 107.722 124.067 104.853 120.35 103.124C116.633 101.395 112.937 101.46 112.095 103.27C111.253 105.08 113.584 107.949 117.301 109.679Z" fill="#FDCE25"/>
</svg>
