<svg width="266" height="265" viewBox="0 0 266 265" fill="none" xmlns="http://www.w3.org/2000/svg">
<rect x="133.379" width="187.383" height="187.383" rx="30.8184" transform="rotate(45 133.379 0)" fill="#D9D9D9"/>
<path d="M116.049 85.3164L109.167 56.369L112.411 54.7371C112.411 54.7371 132.464 59.097 148.702 53.0004L155.631 55.5247L149.186 86.7031L116.049 85.3164Z" fill="#FDCE25"/>
<path d="M152.565 54.8198L155.593 55.7111L155.631 55.5232L148.702 52.9989C132.464 59.0955 112.411 54.7356 112.411 54.7356L109.167 56.3675L109.271 56.8034C115.056 57.634 135.51 59.9961 152.565 54.8198Z" fill="#0C478B"/>
<path d="M93.0507 93.144L81.229 93.647C81.229 93.647 79.9682 95.8288 83.3633 99.2422C86.7591 102.656 102.268 110.256 102.598 108.76C102.928 107.265 101.426 101.928 100.113 100.608C98.8002 99.2881 93.0507 93.144 93.0507 93.144Z" fill="#0C478B"/>
<path d="M81.2295 93.6482C81.2295 93.6482 100.209 101.638 102.599 108.762L105.213 96.9245L106.76 73.1098L94.6999 63.6472L81.2295 93.6482Z" fill="white"/>
<path d="M183.743 91.2798C184.405 93.2339 165.922 109.351 162.715 108.028C162.715 108.028 162.857 104.674 164.035 101.048C165.212 97.4212 177.758 90.9794 183.743 91.2798Z" fill="#0C478B"/>
<path d="M169.998 60.7584L183.743 91.2826C183.743 91.2826 164.453 97.5436 162.714 108.031L160.602 97.3715V78.0969L169.998 60.7584Z" fill="white"/>
<path d="M94.7002 63.6461C94.7002 63.6461 105.347 88.5936 105.347 94.8546C105.347 101.116 101.328 152.688 98.0682 167.377C98.0682 167.377 141.747 176.586 165.868 168.64C165.868 168.64 157.994 120.997 160.602 97.3696C160.745 96.0736 169.997 60.7565 169.997 60.7565L148.848 53.053C148.848 53.053 144.034 71.207 129.584 71.207C118.038 71.207 111.955 54.9657 111.955 54.9657L94.7002 63.6461Z" fill="#E9660B"/>
<path d="M130.797 171.586C114.119 170.641 99.448 167.665 98.16 167.398C98.1595 167.398 98.1595 167.398 98.1589 167.398C98.1568 167.398 98.1551 167.397 98.1535 167.396C98.1524 167.396 98.1513 167.396 98.1508 167.396C98.1367 167.393 98.1247 167.391 98.1144 167.389C98.1111 167.388 98.1079 167.387 98.1052 167.387C98.0997 167.386 98.0948 167.384 98.0905 167.384C98.0899 167.383 98.0894 167.383 98.0889 167.383C98.0867 167.383 98.0845 167.382 98.0823 167.382H98.0818C98.0812 167.382 98.0807 167.382 98.0807 167.382C98.0796 167.381 98.0785 167.381 98.078 167.381C98.0769 167.381 98.0764 167.381 98.0753 167.381C98.0753 167.381 98.0747 167.38 98.0742 167.38C98.0731 167.38 98.0726 167.38 98.0715 167.38C98.0709 167.38 98.0709 167.38 98.0704 167.38H98.0698C98.0693 167.379 98.0693 167.379 98.0693 167.379C98.0687 167.379 98.0688 167.379 98.0688 167.379C98.0682 167.379 98.0682 167.379 98.0682 167.379C101.328 152.69 105.347 101.118 105.347 94.8566C105.347 88.5956 94.7002 63.6481 94.7002 63.6481L103.712 59.1146C103.637 69.8507 104.472 101.806 116.592 113.99C131.259 128.736 111.248 125.391 109.166 134.027C107.085 142.663 121.245 149.217 128.017 158.501C131.037 162.64 131.361 167.485 130.797 171.586Z" fill="#C0560D"/>
<path d="M129.811 73.6641C140.431 73.6641 147.765 60.6827 150.905 53.8023L148.701 52.9989C148.701 52.9989 143.795 70.4773 129.344 70.4773C117.799 70.4773 112.41 54.7357 112.41 54.7357L109.97 55.9634C113.675 62.2987 121.482 73.6641 129.811 73.6641Z" fill="#0C478B"/>
</svg>
