<svg width="44" height="44" viewBox="0 0 44 44" fill="none" xmlns="http://www.w3.org/2000/svg">
<path d="M32.84 9.22084L21.9995 20.0613L11.159 9.22084C10.8983 8.98224 10.5556 8.85345 10.2022 8.86128C9.84891 8.8691 9.51222 9.01296 9.26232 9.26286C9.01241 9.51277 8.86856 9.84946 8.86073 10.2028C8.8529 10.5561 8.9817 10.8989 9.22029 11.1596L20.0553 22.0001L9.21754 32.8378C9.08513 32.964 8.97929 33.1154 8.90623 33.2831C8.83317 33.4508 8.79436 33.6313 8.7921 33.8142C8.78983 33.9971 8.82415 34.1786 8.89304 34.3481C8.96192 34.5175 9.06399 34.6714 9.19323 34.8009C9.32247 34.9303 9.47628 35.0326 9.64561 35.1017C9.81495 35.1708 9.9964 35.2054 10.1793 35.2034C10.3622 35.2014 10.5428 35.1628 10.7106 35.09C10.8784 35.0172 11.0299 34.9116 11.1563 34.7793L21.9995 23.9416L32.84 34.7821C33.1008 35.0207 33.4435 35.1495 33.7968 35.1416C34.1502 35.1338 34.4869 34.99 34.7368 34.7401C34.9867 34.4902 35.1305 34.1535 35.1384 33.8001C35.1462 33.4468 35.0174 33.1041 34.7788 32.8433L23.9383 22.0028L34.7788 11.1596C34.9112 11.0334 35.017 10.882 35.0901 10.7143C35.1632 10.5467 35.202 10.3661 35.2042 10.1832C35.2065 10.0003 35.1722 9.8188 35.1033 9.64937C35.0344 9.47993 34.9323 9.32598 34.8031 9.19656C34.6739 9.06713 34.5201 8.96485 34.3507 8.89572C34.1814 8.8266 33.9999 8.79202 33.817 8.79403C33.6341 8.79603 33.4535 8.83458 33.2857 8.9074C33.1179 8.98023 32.9664 9.08586 32.84 9.21809V9.22084Z" fill="white"/>
</svg>
