<svg width="266" height="265" viewBox="0 0 266 265" fill="none" xmlns="http://www.w3.org/2000/svg">
<rect x="133" width="187.383" height="187.383" rx="30.8184" transform="rotate(45 133 0)" fill="#D9D9D9"/>
<path d="M142.789 82.0002C142.789 82.0002 117.576 104.516 100.245 111.233C83.6919 117.649 68.5961 116.683 64.7519 118.378C57.3686 121.632 59.0049 130.777 59.0049 130.777C59.0049 130.777 54.1044 146.768 162.431 141.524C170.199 141.983 191.2 144.5 203.538 136.144C211.56 111.388 198.132 91.9222 194.984 87.512C191.833 83.1045 187.494 82.2752 185.036 84.481C182.58 86.6855 182.399 97.1576 171.075 97.7104C159.755 98.2592 147.364 82.0002 147.364 82.0002H142.789Z" fill="#0C478B"/>
<path d="M117.37 142.553C129.642 142.681 144.481 142.394 162.431 141.524C165.459 141.705 170.507 142.193 176.264 142.233C172.66 139.921 168.978 138.43 165.882 138.965C155.917 140.702 118.442 140.702 118.442 140.702C118.442 140.702 118.004 141.446 117.37 142.553Z" fill="#0C478B"/>
<path d="M147.365 81.9998H142.79C142.79 81.9998 126.982 96.1162 111.797 105.326C117.357 109.134 128.92 114.067 143.615 103.941C149.433 99.9296 154.543 96.3156 158.889 93.1884C152.352 88.543 147.365 81.9998 147.365 81.9998Z" fill="#37474F"/>
<path d="M195.052 87.6088L194.985 87.5125C191.834 83.105 187.495 82.2758 185.037 84.4816C182.581 86.686 182.4 97.1582 171.076 97.711C159.756 98.2597 147.365 82.0007 147.365 82.0007H143.554C146.455 88.3981 156.21 105.695 176.555 104.517C188.933 103.8 193.877 96.0305 195.052 87.6088Z" fill="#D9D9D9"/>
<path d="M203.54 136.145C204.201 134.11 204.711 132.11 205.1 130.15C190.046 122.998 168.434 116.982 142.595 118.423C114.763 119.977 88.5285 131.433 73.9209 139.036C76.4304 139.569 79.3606 140.071 82.7768 140.519C96.5052 134.871 114.978 129.875 137.479 128.906C158.803 127.984 174.531 135.409 184.111 141.955C191.023 141.388 198.117 139.817 203.54 136.145Z" fill="#FDCE25"/>
<path d="M127.938 143.425C124.02 137.157 121.472 136.822 113.459 137.018C104.578 137.234 76.2004 133.551 71.2198 131.385C66.2366 129.217 67.2119 125.479 66.0196 122.067C65.5336 120.674 64.446 119.35 62.8596 118.421C57.1948 122.11 57.9623 129.566 58.1272 130.765C58.0713 131.207 58.0842 132.179 58.9649 133.37C61.749 137.135 73.7777 143.447 123.07 143.447C124.665 143.447 126.287 143.44 127.938 143.425Z" fill="#37474F"/>
<path d="M204.024 136.864L204.273 136.697L204.365 136.411C205.063 134.258 205.601 132.143 206.002 130.069C201.479 131.505 185.612 134.005 173.464 134.2C162.807 134.372 161.428 140.09 161.312 142.448C161.683 142.43 162.053 142.411 162.429 142.393C163.165 142.439 164.024 142.501 164.978 142.568C168.078 142.792 172.323 143.102 176.954 143.102C188.97 143.102 197.823 141.064 204.024 136.864Z" fill="#37474F"/>
<path d="M138.415 119.751L117.268 100.252C112.949 103.181 108.507 105.911 104.342 107.983L119.158 121.643C127.937 123.86 134.871 121.497 138.415 119.751Z" fill="#E9660B"/>
<path d="M82.2812 114.625L94.9153 126.272C103.696 128.49 110.627 126.124 114.173 124.378L98.9362 110.332C93.034 112.539 87.3203 113.814 82.2812 114.625Z" fill="#E9660B"/>
<path d="M134.034 87.6856C130.781 90.3288 126.76 93.4862 122.424 96.6299L143.504 116.063C152.283 118.284 159.215 115.918 162.761 114.172L134.034 87.6856Z" fill="#E9660B"/>
<path d="M134.034 87.6846C130.781 90.3278 126.76 93.4852 122.424 96.6289L131.925 105.385C136.172 103.274 140.649 100.858 145.348 98.1141L134.034 87.6846Z" fill="white"/>
<path d="M117.268 100.252C112.949 103.181 108.507 105.911 104.342 107.984L111.067 114.182C115.625 112.63 120.58 110.676 125.929 108.239L117.268 100.252Z" fill="white"/>
<path d="M98.9362 110.331C93.034 112.538 87.3203 113.813 82.2812 114.625L87.6147 119.541C92.3987 119.071 98.2369 118.039 105.136 116.047L98.9362 110.331Z" fill="white"/>
</svg>
