<svg width="266" height="265" viewBox="0 0 266 265" fill="none" xmlns="http://www.w3.org/2000/svg">
<rect x="133" width="187.383" height="187.383" rx="30.8184" transform="rotate(45 133 0)" fill="#D9D9D9"/>
<path d="M169.388 154.169L168.484 154.701C168.144 154.392 167.748 154.1 167.287 153.833L126.726 130.416C122.774 128.134 115.806 128.423 111.242 131.058L99.0391 138.103C98.0576 138.67 97.2757 139.303 96.6738 139.967L95.8264 139.435C95.8264 139.435 94.0731 142.019 95.6742 144.832L95.701 144.869C96.1264 145.679 96.8583 146.426 97.9277 147.043L138.488 170.46C142.44 172.743 149.408 172.454 153.972 169.819L166.175 162.774C167.651 161.921 168.695 160.923 169.308 159.886L169.338 159.846C171.173 156.721 169.388 154.169 169.388 154.169Z" fill="#838383"/>
<path d="M138.487 168.773L97.9271 145.356C93.9745 143.073 94.475 139.05 99.0389 136.415L111.241 129.37C115.805 126.735 122.774 126.446 126.726 128.729L167.286 152.146C171.239 154.428 170.739 158.451 166.175 161.086L153.972 168.131C149.408 170.766 142.44 171.055 138.487 168.773Z" fill="#D9D9D9"/>
<path d="M107.667 141.276C105.249 141.276 103.289 140.234 103.289 138.948V142.021C103.289 143.307 105.249 144.35 107.667 144.35C110.084 144.35 112.044 143.307 112.044 142.021V138.948C112.044 140.234 110.084 141.276 107.667 141.276Z" fill="#399EE2"/>
<path d="M107.667 136.62C105.249 136.62 103.289 137.663 103.289 138.949C103.289 140.235 105.249 141.277 107.667 141.277C110.084 141.277 112.044 140.235 112.044 138.949C112.044 137.663 110.084 136.62 107.667 136.62Z" fill="#65B6F8"/>
<path d="M107.667 146.035C104.318 146.035 101.604 144.591 101.604 142.81V138.553C101.604 139.419 102.245 140.206 103.289 140.785V142.02C103.289 143.306 105.249 144.349 107.667 144.349C110.085 144.349 112.045 143.306 112.045 142.02V140.785C113.089 140.206 113.731 139.419 113.731 138.553V142.81C113.731 144.591 111.016 146.035 107.667 146.035Z" fill="#E2DEE2"/>
<path d="M107.667 144.35C105.249 144.35 103.289 143.307 103.289 142.021V140.785C104.393 141.398 105.946 141.779 107.667 141.779C109.387 141.779 110.941 141.398 112.044 140.785V142.021C112.044 143.307 110.084 144.35 107.667 144.35Z" fill="#838383"/>
<path d="M112.045 140.785V138.947C112.045 137.662 110.085 136.619 107.667 136.619C105.249 136.619 103.289 137.662 103.289 138.947V140.785C102.245 140.206 101.604 139.419 101.604 138.553C101.604 136.772 104.318 135.328 107.667 135.328C111.016 135.328 113.731 136.772 113.731 138.553C113.731 139.419 113.089 140.206 112.045 140.785Z" fill="#EFE4E2"/>
<path d="M107.667 141.779C105.946 141.779 104.393 141.398 103.289 140.786V138.948C103.289 140.234 105.249 141.277 107.667 141.277C110.084 141.277 112.044 140.234 112.044 138.948V140.786C110.941 141.398 109.387 141.779 107.667 141.779Z" fill="white"/>
<path d="M107.667 141.277C105.249 141.277 103.289 140.235 103.289 138.949C103.289 137.663 105.249 136.62 107.667 136.62C110.084 136.62 112.044 137.663 112.044 138.949C112.044 140.235 110.084 141.277 107.667 141.277Z" fill="#F5F5F5"/>
<path d="M119.795 134.197C117.377 134.197 115.417 133.154 115.417 131.868V134.941C115.417 136.227 117.377 137.27 119.795 137.27C122.213 137.27 124.173 136.227 124.173 134.941V131.868C124.173 133.154 122.213 134.197 119.795 134.197Z" fill="#399EE2"/>
<path d="M119.795 129.54C117.377 129.54 115.417 130.582 115.417 131.868C115.417 133.154 117.377 134.197 119.795 134.197C122.213 134.197 124.173 133.154 124.173 131.868C124.173 130.582 122.213 129.54 119.795 129.54Z" fill="#65B6F8"/>
<path d="M119.795 138.957C116.446 138.957 113.731 137.513 113.731 135.732V131.475C113.731 132.341 114.373 133.127 115.417 133.707V134.942C115.417 136.228 117.378 137.271 119.795 137.271C122.213 137.271 124.173 136.228 124.173 134.942V133.707C125.217 133.127 125.859 132.341 125.859 131.475V135.732C125.859 137.513 123.144 138.957 119.795 138.957Z" fill="#E2DEE2"/>
<path d="M119.795 137.27C117.377 137.27 115.417 136.227 115.417 134.941V133.706C116.521 134.318 118.074 134.699 119.795 134.699C121.516 134.699 123.069 134.318 124.173 133.706V134.941C124.173 136.227 122.213 137.27 119.795 137.27Z" fill="#838383"/>
<path d="M115.417 133.707C114.373 133.127 113.731 132.341 113.731 131.475C113.731 129.694 116.446 128.25 119.795 128.25C123.144 128.25 125.859 129.694 125.859 131.475C125.859 132.341 125.217 133.127 124.173 133.707V131.869C124.173 130.583 122.213 129.541 119.795 129.541C117.378 129.541 115.417 130.583 115.417 131.869V133.707Z" fill="#EFE4E2"/>
<path d="M119.795 134.701C118.074 134.701 116.521 134.32 115.417 133.707V131.87C115.417 133.156 117.377 134.199 119.795 134.199C122.213 134.199 124.173 133.156 124.173 131.87V133.707C123.069 134.32 121.516 134.701 119.795 134.701Z" fill="white"/>
<path d="M119.795 134.197C117.377 134.197 115.417 133.154 115.417 131.868C115.417 130.582 117.377 129.54 119.795 129.54C122.213 129.54 124.173 130.582 124.173 131.868C124.173 133.154 122.213 134.197 119.795 134.197Z" fill="#F5F5F5"/>
<path d="M120.479 148.484C118.062 148.484 116.102 147.441 116.102 146.155V149.228C116.102 150.514 118.062 151.557 120.479 151.557C122.897 151.557 124.857 150.514 124.857 149.228V146.155C124.857 147.441 122.897 148.484 120.479 148.484Z" fill="#399EE2"/>
<path d="M120.479 143.827C118.062 143.827 116.102 144.87 116.102 146.156C116.102 147.442 118.062 148.484 120.479 148.484C122.897 148.484 124.857 147.442 124.857 146.156C124.857 144.87 122.897 143.827 120.479 143.827Z" fill="#65B6F8"/>
<path d="M120.478 153.242C117.129 153.242 114.414 151.798 114.414 150.017V145.76C114.414 146.626 115.056 147.412 116.1 147.992V149.227C116.1 150.513 118.06 151.556 120.478 151.556C122.896 151.556 124.856 150.513 124.856 149.227V147.992C125.9 147.412 126.542 146.626 126.542 145.76V150.017C126.542 151.798 123.827 153.242 120.478 153.242Z" fill="#E2DEE2"/>
<path d="M120.479 151.557C118.062 151.557 116.102 150.514 116.102 149.228V147.993C117.205 148.605 118.759 148.986 120.479 148.986C122.2 148.986 123.753 148.605 124.857 147.993V149.228C124.857 150.514 122.897 151.557 120.479 151.557Z" fill="#838383"/>
<path d="M124.856 147.992V146.154C124.856 144.868 122.896 143.826 120.478 143.826C118.06 143.826 116.1 144.868 116.1 146.154V147.992C115.056 147.413 114.414 146.626 114.414 145.76C114.414 143.979 117.129 142.535 120.478 142.535C123.827 142.535 126.542 143.979 126.542 145.76C126.542 146.626 125.9 147.413 124.856 147.992Z" fill="#EFE4E2"/>
<path d="M120.479 148.986C118.759 148.986 117.205 148.605 116.102 147.993V146.155C116.102 147.441 118.062 148.483 120.479 148.483C122.897 148.483 124.857 147.441 124.857 146.155V147.993C123.753 148.605 122.2 148.986 120.479 148.986Z" fill="white"/>
<path d="M120.479 148.484C118.062 148.484 116.102 147.442 116.102 146.156C116.102 144.87 118.062 143.827 120.479 143.827C122.897 143.827 124.857 144.87 124.857 146.156C124.857 147.442 122.897 148.484 120.479 148.484Z" fill="#F5F5F5"/>
<path d="M132.606 141.405C130.188 141.405 128.229 140.363 128.229 139.077V142.15C128.229 143.436 130.188 144.479 132.606 144.479C135.024 144.479 136.984 143.436 136.984 142.15V139.077C136.984 140.363 135.024 141.405 132.606 141.405Z" fill="#399EE2"/>
<path d="M132.606 136.747C130.188 136.747 128.229 137.79 128.229 139.076C128.229 140.362 130.188 141.404 132.606 141.404C135.024 141.404 136.984 140.362 136.984 139.076C136.984 137.79 135.024 136.747 132.606 136.747Z" fill="#65B6F8"/>
<path d="M132.607 146.164C129.258 146.164 126.543 144.72 126.543 142.938V138.682C126.543 139.548 127.185 140.334 128.229 140.914V142.149C128.229 143.435 130.189 144.478 132.607 144.478C135.025 144.478 136.985 143.435 136.985 142.149V140.914C138.029 140.334 138.671 139.548 138.671 138.682V142.938C138.671 144.72 135.956 146.164 132.607 146.164Z" fill="#E2DEE2"/>
<path d="M132.606 144.479C130.188 144.479 128.229 143.436 128.229 142.15V140.914C129.332 141.527 130.886 141.908 132.607 141.908C134.327 141.908 135.88 141.527 136.984 140.915V142.15C136.984 143.436 135.024 144.479 132.606 144.479Z" fill="#838383"/>
<path d="M136.985 140.914V139.076C136.985 137.79 135.025 136.748 132.607 136.748C130.189 136.748 128.229 137.79 128.229 139.076V140.914C127.185 140.334 126.543 139.548 126.543 138.682C126.543 136.901 129.258 135.457 132.607 135.457C135.956 135.457 138.671 136.901 138.671 138.682C138.671 139.548 138.029 140.334 136.985 140.914Z" fill="#EFE4E2"/>
<path d="M132.607 141.906C130.886 141.906 129.332 141.525 128.229 140.913V139.075C128.229 140.361 130.188 141.404 132.606 141.404C135.024 141.404 136.984 140.361 136.984 139.075V140.913C135.88 141.525 134.327 141.906 132.607 141.906Z" fill="white"/>
<path d="M132.606 141.404C130.188 141.404 128.229 140.362 128.229 139.076C128.229 137.79 130.188 136.747 132.606 136.747C135.024 136.747 136.984 137.79 136.984 139.076C136.984 140.362 135.024 141.404 132.606 141.404Z" fill="#F5F5F5"/>
<path d="M133.292 155.691C130.874 155.691 128.914 154.648 128.914 153.362V156.435C128.914 157.721 130.874 158.764 133.292 158.764C135.709 158.764 137.669 157.721 137.669 156.435V153.362C137.669 154.648 135.709 155.691 133.292 155.691Z" fill="#399EE2"/>
<path d="M133.292 151.034C130.874 151.034 128.914 152.077 128.914 153.363C128.914 154.649 130.874 155.691 133.292 155.691C135.709 155.691 137.669 154.649 137.669 153.363C137.669 152.077 135.709 151.034 133.292 151.034Z" fill="#65B6F8"/>
<path d="M133.291 160.451C129.942 160.451 127.228 159.007 127.228 157.226V152.969C127.228 153.835 127.869 154.621 128.913 155.201V156.436C128.913 157.722 130.873 158.765 133.291 158.765C135.709 158.765 137.669 157.722 137.669 156.436V155.201C138.713 154.621 139.355 153.835 139.355 152.969V157.226C139.355 159.007 136.64 160.451 133.291 160.451Z" fill="#E2DEE2"/>
<path d="M133.292 158.764C130.874 158.764 128.914 157.721 128.914 156.435V155.199C130.018 155.812 131.571 156.193 133.292 156.193C135.012 156.193 136.566 155.812 137.669 155.199V156.435C137.669 157.721 135.709 158.764 133.292 158.764Z" fill="#838383"/>
<path d="M137.669 155.199V153.362C137.669 152.076 135.709 151.033 133.291 151.033C130.873 151.033 128.913 152.076 128.913 153.362V155.199C127.869 154.62 127.228 153.834 127.228 152.968C127.228 151.186 129.942 149.742 133.291 149.742C136.64 149.742 139.355 151.186 139.355 152.968C139.355 153.834 138.713 154.62 137.669 155.199Z" fill="#EFE4E2"/>
<path d="M133.292 156.193C131.571 156.193 130.018 155.812 128.914 155.2V153.362C128.914 154.648 130.874 155.691 133.292 155.691C135.709 155.691 137.669 154.648 137.669 153.362V155.2C136.566 155.812 135.012 156.193 133.292 156.193Z" fill="white"/>
<path d="M133.292 155.691C130.874 155.691 128.914 154.649 128.914 153.363C128.914 152.077 130.874 151.034 133.292 151.034C135.709 151.034 137.669 152.077 137.669 153.363C137.669 154.649 135.709 155.691 133.292 155.691Z" fill="#F5F5F5"/>
<path d="M145.42 148.612C143.002 148.612 141.042 147.57 141.042 146.284V149.357C141.042 150.643 143.002 151.686 145.42 151.686C147.838 151.686 149.797 150.643 149.797 149.357V146.284C149.797 147.57 147.838 148.612 145.42 148.612Z" fill="#399EE2"/>
<path d="M145.42 143.954C143.002 143.954 141.042 144.997 141.042 146.283C141.042 147.569 143.002 148.611 145.42 148.611C147.838 148.611 149.797 147.569 149.797 146.283C149.797 144.997 147.838 143.954 145.42 143.954Z" fill="#65B6F8"/>
<path d="M145.419 153.371C142.07 153.371 139.355 151.927 139.355 150.145V145.889C139.355 146.755 139.997 147.541 141.041 148.121V149.356C141.041 150.642 143.002 151.685 145.419 151.685C147.837 151.685 149.797 150.642 149.797 149.356V148.121C150.841 147.541 151.483 146.755 151.483 145.889V150.145C151.483 151.927 148.768 153.371 145.419 153.371Z" fill="#E2DEE2"/>
<path d="M145.42 151.686C143.002 151.686 141.042 150.643 141.042 149.357V148.121C142.146 148.734 143.699 149.115 145.42 149.115C147.141 149.115 148.694 148.734 149.797 148.121V149.357C149.797 150.643 147.838 151.686 145.42 151.686Z" fill="#838383"/>
<path d="M149.797 148.121V146.284C149.797 144.998 147.837 143.955 145.419 143.955C143.002 143.955 141.041 144.998 141.041 146.284V148.121C139.997 147.542 139.355 146.755 139.355 145.889C139.355 144.108 142.07 142.664 145.419 142.664C148.768 142.664 151.483 144.108 151.483 145.889C151.483 146.755 150.841 147.542 149.797 148.121Z" fill="#EFE4E2"/>
<path d="M145.42 149.115C143.699 149.115 142.146 148.734 141.042 148.122V146.284C141.042 147.57 143.002 148.613 145.42 148.613C147.838 148.613 149.797 147.57 149.797 146.284V148.122C148.694 148.734 147.141 149.115 145.42 149.115Z" fill="white"/>
<path d="M145.42 148.611C143.002 148.611 141.042 147.569 141.042 146.283C141.042 144.997 143.002 143.954 145.42 143.954C147.838 143.954 149.797 144.997 149.797 146.283C149.797 147.569 147.838 148.611 145.42 148.611Z" fill="#F5F5F5"/>
<path d="M146.105 162.899C143.687 162.899 141.728 161.857 141.728 160.571V163.644C141.728 164.93 143.687 165.973 146.105 165.973C148.523 165.973 150.483 164.93 150.483 163.644V160.571C150.483 161.857 148.523 162.899 146.105 162.899Z" fill="#399EE2"/>
<path d="M146.105 158.241C143.687 158.241 141.728 159.284 141.728 160.57C141.728 161.856 143.687 162.898 146.105 162.898C148.523 162.898 150.483 161.856 150.483 160.57C150.483 159.284 148.523 158.241 146.105 158.241Z" fill="#65B6F8"/>
<path d="M146.104 167.658C142.755 167.658 140.04 166.214 140.04 164.433V160.176C140.04 161.042 140.682 161.828 141.726 162.408V163.643C141.726 164.929 143.686 165.972 146.104 165.972C148.522 165.972 150.482 164.929 150.482 163.643V162.408C151.526 161.828 152.168 161.042 152.168 160.176V164.433C152.168 166.214 149.453 167.658 146.104 167.658Z" fill="#E2DEE2"/>
<path d="M146.105 165.973C143.687 165.973 141.728 164.93 141.728 163.644V162.408C142.831 163.021 144.385 163.402 146.105 163.402C147.826 163.402 149.379 163.021 150.483 162.408V163.644C150.483 164.93 148.523 165.973 146.105 165.973Z" fill="#838383"/>
<path d="M141.726 162.408C140.682 161.829 140.04 161.042 140.04 160.176C140.04 158.395 142.755 156.951 146.104 156.951C149.453 156.951 152.168 158.395 152.168 160.176C152.168 161.042 151.526 161.829 150.482 162.408V160.571C150.482 159.285 148.522 158.242 146.104 158.242C143.686 158.242 141.726 159.285 141.726 160.571V162.408Z" fill="#EFE4E2"/>
<path d="M146.105 163.4C144.385 163.4 142.831 163.019 141.728 162.407V160.569C141.728 161.855 143.687 162.898 146.105 162.898C148.523 162.898 150.483 161.855 150.483 160.569V162.407C149.379 163.019 147.826 163.4 146.105 163.4Z" fill="white"/>
<path d="M146.105 162.898C143.687 162.898 141.728 161.856 141.728 160.57C141.728 159.284 143.687 158.241 146.105 158.241C148.523 158.241 150.483 159.284 150.483 160.57C150.483 161.856 148.523 162.898 146.105 162.898Z" fill="#F5F5F5"/>
<path d="M158.232 155.819C155.814 155.819 153.854 154.777 153.854 153.491V156.564C153.854 157.849 155.814 158.893 158.232 158.893C160.65 158.893 162.61 157.849 162.61 156.564V153.491C162.61 154.777 160.65 155.819 158.232 155.819Z" fill="#399EE2"/>
<path d="M158.232 151.161C155.814 151.161 153.854 152.203 153.854 153.49C153.854 154.776 155.814 155.818 158.232 155.818C160.65 155.818 162.61 154.776 162.61 153.49C162.61 152.203 160.65 151.161 158.232 151.161Z" fill="#65B6F8"/>
<path d="M158.231 160.578C154.882 160.578 152.167 159.134 152.167 157.353V153.096C152.167 153.962 152.809 154.748 153.853 155.328V156.563C153.853 157.849 155.813 158.892 158.231 158.892C160.649 158.892 162.609 157.849 162.609 156.563V155.328C163.653 154.748 164.295 153.962 164.295 153.096V157.353C164.295 159.134 161.58 160.578 158.231 160.578Z" fill="#E2DEE2"/>
<path d="M158.232 158.893C155.814 158.893 153.854 157.849 153.854 156.564V155.328C154.958 155.941 156.512 156.322 158.232 156.322C159.953 156.322 161.506 155.941 162.61 155.328V156.564C162.61 157.849 160.65 158.893 158.232 158.893Z" fill="#838383"/>
<path d="M153.853 155.328C152.809 154.749 152.167 153.962 152.167 153.096C152.167 151.315 154.882 149.871 158.231 149.871C161.58 149.871 164.295 151.315 164.295 153.096C164.295 153.962 163.653 154.749 162.609 155.328V153.49C162.609 152.204 160.649 151.162 158.231 151.162C155.813 151.162 153.853 152.204 153.853 153.49V155.328Z" fill="#EFE4E2"/>
<path d="M158.232 156.322C156.512 156.322 154.958 155.941 153.854 155.329V153.491C153.854 154.777 155.814 155.82 158.232 155.82C160.65 155.82 162.61 154.777 162.61 153.491V155.329C161.506 155.941 159.953 156.322 158.232 156.322Z" fill="white"/>
<path d="M158.232 155.818C155.814 155.818 153.854 154.776 153.854 153.49C153.854 152.203 155.814 151.161 158.232 151.161C160.65 151.161 162.61 152.203 162.61 153.49C162.61 154.776 160.65 155.818 158.232 155.818Z" fill="#F5F5F5"/>
<path d="M153.089 123.848C147.3 123.848 142.608 126.344 142.608 129.423C142.608 132.502 147.3 134.998 153.089 134.998C158.877 134.998 163.569 132.502 163.569 129.423C163.569 126.344 158.877 123.848 153.089 123.848Z" fill="#838383"/>
<path d="M140.152 97.8607V125.96C140.152 129.761 145.945 132.842 153.089 132.842C160.235 132.842 166.027 129.761 166.027 125.96V97.8607H140.152Z" fill="#E9660B"/>
<path d="M153.089 110.002C145.944 110.002 140.152 106.922 140.152 103.121V119.587C140.152 123.388 145.944 126.469 153.089 126.469C160.234 126.469 166.027 123.388 166.027 119.587V103.121C166.027 106.922 160.234 110.002 153.089 110.002Z" fill="white"/>
<path d="M166.027 97.5751C166.027 93.8042 161.309 90.224 161.309 90.224L159.605 91.9471C157.685 91.3473 155.477 90.9791 153.089 90.9791C150.702 90.9791 148.494 91.3473 146.574 91.9471L144.87 90.224C144.87 90.224 140.152 93.8042 140.152 97.5751C140.152 97.6106 140.152 97.7905 140.152 97.8606C140.152 101.661 145.944 104.742 153.089 104.742C160.234 104.742 166.027 101.661 166.027 97.8606C166.027 97.7905 166.027 97.6106 166.027 97.5751Z" fill="#CB5C0E"/>
<path d="M153.088 87.7167C147.822 87.7167 143.553 89.9878 143.553 92.789C143.553 95.5905 147.822 97.8613 153.088 97.8613C158.355 97.8613 162.624 95.5905 162.624 92.789C162.624 89.9878 158.355 87.7167 153.088 87.7167Z" fill="#CB5C0E"/>
<path d="M153.09 87.7158C149.458 87.7158 146.515 89.2819 146.515 91.2134C146.515 93.1449 149.458 94.7109 153.09 94.7109C156.721 94.7109 159.665 93.1449 159.665 91.2134C159.665 89.2819 156.721 87.7158 153.09 87.7158Z" fill="#FDCE25"/>
<path d="M145.034 80.2816V86.9287C145.034 87.713 145.538 88.4077 146.23 89.0401V83.9376C146.23 83.6212 146.424 83.4746 146.661 83.6118C146.898 83.7486 147.092 84.1196 147.092 84.4353V89.7209C147.765 90.1297 148.565 90.4589 149.484 90.7087V85.5044C149.484 85.2307 149.708 85.0066 149.982 85.0066C150.256 85.0066 150.48 85.2307 150.48 85.5044V90.9334C151.225 91.0709 152.002 91.1703 152.828 91.1855V85.8124C152.828 85.5387 153.052 85.3147 153.326 85.3147C153.6 85.3147 153.824 85.5387 153.824 85.8124V91.1345C154.663 91.0921 155.499 91.0386 156.243 90.8702V85.2911C156.243 85.0167 156.467 84.7927 156.741 84.7927C157.015 84.7927 157.239 85.0167 157.239 85.2911V90.5131C158 90.2631 158.669 89.972 159.233 89.6052V84.4353C159.233 84.1196 159.427 83.7486 159.665 83.6118C159.902 83.4746 160.096 83.6212 160.096 83.9376V88.9248C160.708 88.3205 161.145 87.6626 161.145 86.9287V80.2816H145.034Z" fill="#37474F"/>
<path d="M153.326 85.3143C153.052 85.3143 152.828 85.5383 152.828 85.812V91.1851C152.92 91.1865 152.997 91.2129 153.089 91.2129C153.35 91.2129 153.57 91.1469 153.824 91.134V85.812C153.824 85.5383 153.6 85.3143 153.326 85.3143Z" fill="#2F3D44"/>
<path d="M149.981 85.0068C149.707 85.0068 149.483 85.2309 149.483 85.5046V90.7089C149.809 90.7971 150.13 90.869 150.479 90.9336V85.5046C150.479 85.2309 150.255 85.0068 149.981 85.0068Z" fill="#2F3D44"/>
<path d="M156.741 84.7917C156.467 84.7917 156.242 85.0157 156.242 85.2901V90.8691C156.617 90.7844 156.896 90.6253 157.238 90.5121V85.2901C157.238 85.0157 157.015 84.7917 156.741 84.7917Z" fill="#2F3D44"/>
<path d="M159.663 83.612C159.426 83.7489 159.231 84.1198 159.231 84.4355V89.6055C159.559 89.3933 159.848 89.1678 160.094 88.9251V83.9378C160.094 83.6214 159.9 83.4748 159.663 83.612Z" fill="#2F3D44"/>
<path d="M146.66 83.6116C146.423 83.4744 146.229 83.621 146.229 83.9374V89.04C146.489 89.2782 146.752 89.5144 147.091 89.7207V84.4351C147.091 84.1194 146.897 83.7485 146.66 83.6116Z" fill="#2F3D44"/>
<path d="M153.089 75.9965C148.641 75.9965 145.034 77.9151 145.034 80.2815C145.034 82.6478 148.641 84.5664 153.089 84.5664C157.539 84.5664 161.145 82.6478 161.145 80.2815C161.145 77.9151 157.539 75.9965 153.089 75.9965Z" fill="#2F3D44"/>
<path d="M153.163 75.9969C149.811 75.9969 147.093 77.4428 147.093 79.226C147.093 81.0095 149.811 82.4551 153.163 82.4551C156.516 82.4551 159.234 81.0095 159.234 79.226C159.234 77.4428 156.516 75.9969 153.163 75.9969Z" fill="#2F3D44"/>
<path d="M147.667 100.66C146.711 101.684 145.853 103.231 145.518 104.027C145.192 104.802 144.564 106.384 145.186 107.168C145.697 107.81 146.415 107.342 146.68 106.751C147 106.038 147.114 105.179 147.314 104.421C147.572 103.444 148.063 101.977 148.279 100.989C148.386 100.5 148.208 100.08 147.667 100.66Z" fill="white"/>
<path d="M159.99 117.716C160.092 121.757 156.934 124.473 153.164 124.473C149.394 124.473 146.338 121.757 146.338 117.716C146.338 114.292 149.394 112.072 153.164 112.072C156.934 112.072 159.904 114.293 159.99 117.716Z" fill="#E9660B"/>
<path d="M157.435 116.384C156.531 116.636 155.565 116.797 154.581 116.881V113.717H151.752V116.891C150.77 116.814 149.804 116.662 148.894 116.419L148.407 116.289V118.989L148.694 119.066C149.671 119.327 150.697 119.492 151.752 119.57V122.83H154.581V119.56C155.642 119.473 156.669 119.3 157.643 119.028L157.926 118.949V116.247L157.435 116.384Z" fill="#EFE2E1"/>
<path d="M135.412 74.6831V113.612C135.412 118.515 127.939 122.49 118.722 122.49C109.504 122.49 102.031 118.515 102.031 113.612L102.032 74.5167L135.412 74.6831Z" fill="#0C478B"/>
<path d="M108.679 88.1542C111.48 89.2855 114.933 89.9825 118.721 89.9825C127.939 89.9825 135.412 86.0078 135.412 81.1049V107.191C135.412 112.094 127.939 116.068 118.721 116.068C114.933 116.068 111.48 115.372 108.679 114.24V88.1542Z" fill="white"/>
<path d="M112.31 94.4401C114.285 94.892 116.43 95.1713 118.721 95.1713C127.939 95.1713 135.411 91.1965 135.411 86.2936V89.2747C135.411 94.1776 127.939 98.1523 118.721 98.1523C116.43 98.1523 114.285 97.8727 112.31 97.4212V94.4401Z" fill="#E9660B"/>
<path d="M102.763 72.0544L102.744 72.0471C102.744 72.0471 102.897 71.7473 103.21 71.2885C103.298 71.1684 103.378 71.0478 103.476 70.9301C104.678 69.3025 107.538 66.2884 113.176 64.7328C115.128 64.1944 116.244 64.6977 116.835 65.74C117.462 65.7022 118.076 65.639 118.721 65.639C119.382 65.639 120.008 65.7025 120.648 65.7425C121.239 64.6977 122.355 64.1941 124.31 64.7328C130.202 66.3583 133.098 69.6068 134.196 71.1687C134.576 71.7084 135.411 73.6615 135.411 74.5162C135.411 79.4197 127.939 83.3945 118.721 83.3945C109.504 83.3945 102.031 79.4197 102.031 74.5162C102.031 73.6562 102.333 72.8411 102.763 72.0544Z" fill="#0964CD"/>
<path d="M118.358 64.0254C123.319 64.0254 127.341 66.1649 127.341 68.8039C127.341 71.4429 123.319 73.582 118.358 73.582C113.397 73.582 109.375 71.4429 109.375 68.8039C109.375 66.1649 113.397 64.0254 118.358 64.0254Z" fill="#399EE2"/>
<path d="M127.743 58.011V65.5938C127.743 66.4889 127.168 67.2815 126.379 68.0029C126.082 68.2745 125.783 68.544 125.395 68.7795C124.628 69.2459 123.715 69.6217 122.666 69.9062C122.295 70.0069 121.929 70.0889 121.53 70.1625C120.68 70.3195 119.794 70.4331 118.852 70.4501C118.747 70.4519 118.66 70.4824 118.554 70.4824C118.256 70.4824 118.006 70.4067 117.716 70.3921C116.759 70.3438 115.805 70.2827 114.956 70.0906C114.529 69.9937 114.21 69.8124 113.82 69.6836C112.952 69.3981 112.189 69.0657 111.545 68.6475C111.172 68.4054 110.842 68.148 110.561 67.8712C109.863 67.1818 109.364 66.4316 109.364 65.5938V58.011H127.743Z" fill="#37474F"/>
<path d="M118.284 63.753C118.597 63.753 118.852 64.0086 118.852 64.3212V70.4505C118.747 70.4522 118.66 70.4824 118.554 70.4824C118.257 70.4824 118.006 70.407 117.716 70.3925V64.3212C117.716 64.0086 117.971 63.753 118.284 63.753Z" fill="#2F3D44"/>
<path d="M122.1 63.4027C122.413 63.4027 122.668 63.6583 122.668 63.9709V69.9077C122.297 70.0085 121.931 70.0904 121.532 70.1641V63.9709C121.532 63.6583 121.788 63.4027 122.1 63.4027Z" fill="#2F3D44"/>
<path d="M114.389 63.1588C114.701 63.1588 114.957 63.4141 114.957 63.7271V70.0918C114.53 69.9949 114.211 69.8136 113.82 69.6847V63.7271C113.82 63.4141 114.076 63.1588 114.389 63.1588Z" fill="#2F3D44"/>
<path d="M111.053 61.811C111.324 61.967 111.545 62.3903 111.545 62.7509V68.6484C111.172 68.4064 110.843 68.149 110.562 67.8722V62.1826C110.562 61.8221 110.783 61.6547 111.053 61.811Z" fill="#2F3D44"/>
<path d="M125.888 61.8118C126.159 61.6555 126.38 61.8229 126.38 62.1835V68.0046C126.083 68.2762 125.784 68.5458 125.396 68.7812V62.7517C125.396 62.3912 125.618 61.9678 125.888 61.8118Z" fill="#2F3D44"/>
<path d="M118.554 53.1239C123.629 53.1239 127.744 55.3124 127.744 58.0121C127.744 60.7119 123.629 62.9004 118.554 62.9004C113.479 62.9004 109.364 60.7119 109.364 58.0121C109.364 55.3124 113.479 53.1239 118.554 53.1239Z" fill="#2F3D44"/>
<path d="M127.088 101.566C129.3 100.523 132.816 100.495 132.816 100.495L133.769 102.354C134.609 104.133 132.979 106.666 130.129 108.011C127.337 109.328 124.422 109.007 123.515 107.321L122.495 105.365C122.495 105.365 124.876 102.61 127.088 101.566Z" fill="#838383"/>
<path d="M129.177 106.152C132.027 104.807 133.657 102.274 132.817 100.495C131.977 98.715 128.986 98.3625 126.136 99.7073C123.286 101.052 121.657 103.585 122.496 105.365C123.336 107.144 126.327 107.497 129.177 106.152Z" fill="#FDCE25"/>
<path d="M113.503 103.952C115.096 103.748 117.242 104.128 119.413 105.137C121.75 106.225 123.536 107.762 124.333 109.204L125.472 109.757L124.619 111.545C123.777 113.356 120.081 113.421 116.364 111.692C112.647 109.963 110.315 107.094 111.157 105.284L112.095 103.269L113.503 103.952Z" fill="#838383"/>
<path d="M117.301 109.679C121.018 111.408 124.714 111.342 125.556 109.532C126.398 107.722 124.067 104.853 120.35 103.124C116.633 101.395 112.937 101.46 112.095 103.27C111.253 105.08 113.584 107.949 117.301 109.679Z" fill="#FDCE25"/>
</svg>
