<svg width="266" height="265" viewBox="0 0 266 265" fill="none" xmlns="http://www.w3.org/2000/svg">
<rect x="133" width="187.383" height="187.383" rx="30.8184" transform="rotate(45 133 0)" fill="#D9D9D9"/>
<path d="M142.788 82.0004C142.788 82.0004 117.575 104.517 100.244 111.233C83.6909 117.65 68.5951 116.683 64.7509 118.378C57.3676 121.632 59.004 130.777 59.004 130.777C59.004 130.777 54.1034 146.768 162.43 141.524C170.198 141.984 191.199 144.5 203.537 136.145C211.559 111.388 198.131 91.9225 194.983 87.5122C191.832 83.1047 187.493 82.2755 185.035 84.4813C182.579 86.6857 182.398 97.1579 171.074 97.7107C159.754 98.2594 147.363 82.0004 147.363 82.0004H142.788Z" fill="#0C478B"/>
<path d="M117.371 142.553C129.643 142.68 144.482 142.393 162.432 141.524C165.46 141.704 170.508 142.192 176.265 142.232C172.661 139.92 168.979 138.43 165.882 138.965C155.918 140.702 118.443 140.702 118.443 140.702C118.443 140.702 118.005 141.446 117.371 142.553Z" fill="#0C478B"/>
<path d="M147.365 82H142.79C142.79 82 126.982 96.1164 111.797 105.326C117.357 109.134 128.92 114.067 143.615 103.941C149.433 99.9299 154.543 96.3158 158.889 93.1887C152.352 88.5432 147.365 82 147.365 82Z" fill="#37474F"/>
<path d="M195.053 87.6083L194.986 87.512C191.835 83.1045 187.496 82.2753 185.038 84.4811C182.582 86.6855 182.401 97.1577 171.077 97.7105C159.757 98.2592 147.366 82.0003 147.366 82.0003H143.555C146.456 88.3977 156.211 105.695 176.556 104.516C188.934 103.8 193.878 96.03 195.053 87.6083Z" fill="#D9D9D9"/>
<path d="M203.541 136.144C204.202 134.109 204.712 132.109 205.101 130.15C190.047 122.997 168.435 116.981 142.596 118.422C114.764 119.976 88.5295 131.433 73.9219 139.035C76.4314 139.568 79.3616 140.07 82.7778 140.519C96.5062 134.871 114.979 129.875 137.48 128.905C158.804 127.984 174.532 135.408 184.112 141.954C191.024 141.388 198.118 139.816 203.541 136.144Z" fill="#FDCE25"/>
<path d="M127.938 143.426C124.02 137.158 121.472 136.822 113.459 137.019C104.578 137.235 76.2004 133.552 71.2198 131.386C66.2366 129.217 67.2119 125.479 66.0196 122.068C65.5336 120.675 64.446 119.35 62.8596 118.422C57.1948 122.11 57.9623 129.567 58.1272 130.766C58.0713 131.207 58.0842 132.179 58.9649 133.37C61.749 137.136 73.7777 143.448 123.07 143.448C124.665 143.448 126.287 143.441 127.938 143.426Z" fill="#37474F"/>
<path d="M204.025 136.864L204.274 136.698L204.366 136.411C205.064 134.258 205.602 132.143 206.003 130.069C201.48 131.505 185.613 134.005 173.465 134.2C162.808 134.372 161.429 140.09 161.312 142.449C161.684 142.431 162.054 142.411 162.43 142.394C163.166 142.439 164.025 142.501 164.979 142.568C168.079 142.792 172.324 143.102 176.955 143.102C188.971 143.102 197.824 141.064 204.025 136.864Z" fill="#37474F"/>
<path d="M138.415 119.751L117.268 100.252C112.949 103.181 108.507 105.911 104.342 107.983L119.158 121.643C127.937 123.86 134.871 121.497 138.415 119.751Z" fill="#E9660B"/>
<path d="M82.2812 114.624L94.9153 126.271C103.696 128.489 110.627 126.123 114.173 124.377L98.9362 110.331C93.034 112.538 87.3203 113.813 82.2812 114.624Z" fill="#E9660B"/>
<path d="M134.034 87.6854C130.781 90.3285 126.76 93.486 122.424 96.6297L143.504 116.063C152.283 118.283 159.215 115.918 162.761 114.172L134.034 87.6854Z" fill="#E9660B"/>
<path d="M134.034 87.6851C130.781 90.3282 126.76 93.4857 122.424 96.6294L131.925 105.385C136.172 103.274 140.649 100.858 145.348 98.1146L134.034 87.6851Z" fill="white"/>
<path d="M117.268 100.252C112.949 103.181 108.507 105.911 104.342 107.983L111.067 114.181C115.625 112.63 120.58 110.676 125.929 108.239L117.268 100.252Z" fill="white"/>
<path d="M98.9362 110.331C93.034 112.538 87.3203 113.813 82.2812 114.624L87.6147 119.541C92.3987 119.07 98.2369 118.039 105.136 116.046L98.9362 110.331Z" fill="white"/>
</svg>
