<svg width="1440" height="631" viewBox="0 0 1440 631" fill="none" xmlns="http://www.w3.org/2000/svg">
<mask id="mask0_1309_4" style="mask-type:alpha" maskUnits="userSpaceOnUse" x="0" y="0" width="1440" height="631">
<rect width="1440" height="631" fill="#0C478B"/>
</mask>
<g mask="url(#mask0_1309_4)">
<g opacity="0.7">
<g opacity="0.1">
<path opacity="0.3" d="M1507.05 36.7173L1472.9 56.7459L1438.74 36.7173V-3.37768L1472.9 -23.4062L1507.05 -3.37768V36.7173Z" fill="#FDCE25"/>
<path opacity="0.3" d="M1507.05 163.073L1472.9 183.101L1438.74 163.073V122.978L1472.9 102.949L1507.05 122.978V163.073Z" fill="#FDCE25"/>
<path opacity="0.6" d="M1435.26 163.073L1401.1 183.101L1366.94 163.073V122.978L1401.1 102.949L1435.26 122.978V163.073Z" fill="#FDCE25"/>
<path opacity="0.1" d="M1471.16 226.241L1437 246.289L1402.84 226.241V186.165L1437 166.137L1471.16 186.165V226.241Z" fill="#FDCE25"/>
<path opacity="0.6" d="M1435.26 289.428L1401.1 309.476L1366.94 289.428V249.352L1401.1 229.305L1435.26 249.352V289.428Z" fill="#FDCE25"/>
</g>
<path d="M1512.51 -218H1512.42L1476.88 -197.196V-155.21L1512.27 -134.406V-92.9869L1476.8 -72.1829V-30.5749L1441.51 -9.77092L1406.04 -30.5749L1370.48 -9.77092V32.0451L1406.02 52.8491H1406.11L1441.49 32.0451L1476.78 52.7356V94.1545L1441.6 114.958L1406.13 94.1545L1370.57 114.958V156.566L1335.22 177.389L1299.75 156.585L1264.21 177.389V219.205L1299.77 240.009L1335.16 219.205L1370.44 240.009V281.409L1334.97 302.213V344.029L1370.52 364.833L1406.08 344.029V302.421L1441.52 281.617V239.915L1406.15 219.111V177.692L1441.43 156.888L1476.9 177.692L1512.44 156.888V115.28L1547.72 94.5706L1583.01 115.28V156.68L1547.55 177.484V219.3L1582.92 240.104V281.712H1583.01L1618.55 302.516H1618.65L1654.19 281.712V239.915H1654.1L1618.72 219.111V177.692L1654.02 156.888L1689.49 177.692L1725.05 156.888V115.072H1724.95L1689.41 94.2679H1689.32L1653.94 115.072L1618.65 94.3814V52.9626L1654.38 32.1586L1689.85 52.9626L1725.41 32.1586V-9.4494L1760.68 -30.2534L1796.15 -9.4494L1831.69 -30.2534V-72.1829H1831.6L1796.25 -93.176H1796.15L1760.78 -72.372L1725.48 -92.9869V-134.406L1760.93 -155.21V-197.026L1725.37 -217.83L1689.81 -197.026V-155.418L1654.36 -134.614V-92.7978L1689.73 -71.9938V-30.5749L1654.46 -9.77092L1618.99 -30.5749H1618.89L1583.35 -9.77092V31.8371L1548.06 52.5276L1512.7 31.856V-9.56288L1548.17 -30.3669V-71.9749L1583.64 -92.7789V-134.614L1548.26 -155.418V-197.026L1512.51 -218ZM1725.27 -134.784L1713.51 -141.687L1690 -155.493V-196.818L1725.27 -217.622L1760.57 -196.818V-155.418L1725.27 -134.784ZM1725.1 -93.0626L1713.34 -86.1783L1689.85 -72.372L1654.55 -92.9869V-134.406L1689.85 -155.096L1701.67 -148.193L1725.18 -134.406L1725.1 -93.0626ZM1760.91 -30.6506V-71.9749L1796.21 -92.7789L1831.49 -71.9749V-30.5749L1796.21 -9.77092L1760.91 -30.6506ZM1725.27 -9.84659L1713.51 -16.7497L1690 -30.556V-71.9749L1701.76 -78.878L1725.27 -92.6843L1760.57 -71.8803V-30.5749L1725.27 -9.84659ZM1654.53 31.8749V-9.54398L1689.83 -30.348L1701.59 -23.4448L1725.1 -9.63855V31.7803L1689.83 52.4708L1654.53 31.8749ZM1618.89 52.5654L1607.09 45.6433L1583.58 31.856V-9.56288L1618.86 -30.3669L1654.15 -9.56288V31.856L1618.89 52.5654ZM1654.53 156.699V115.28L1689.83 94.5706L1725.1 115.28V156.68L1689.83 177.389L1654.53 156.699ZM1583.64 240.123L1595.38 233.22L1618.91 219.413L1654.21 240.217V281.617L1618.91 302.327L1583.64 281.523V240.123ZM1583.45 156.907L1595.21 163.81L1618.74 177.616V219.035L1606.98 225.919L1583.45 239.726L1548.17 219.035V177.616L1583.45 156.907ZM1583.64 115.204L1595.38 108.301L1618.91 94.4949L1654.21 115.204V156.604L1618.91 177.314L1607.09 170.486L1583.58 156.68L1583.64 115.204ZM1548.17 94.1923V52.7734L1583.45 32.0829L1595.21 38.9861L1618.74 52.7734V94.1923L1606.98 101.095L1583.45 114.883L1548.17 94.1923ZM1370.65 281.825L1382.41 288.729L1405.94 302.535V343.935L1370.65 364.644L1335.39 343.935V302.535L1370.65 281.825ZM1370.84 240.217L1382.6 233.314L1406.11 219.508L1441.41 240.312V281.712L1406.13 302.213L1394.37 295.329L1370.86 281.523L1370.84 240.217ZM1335.01 177.805V219.224L1299.73 239.915L1264.44 219.224V177.805L1299.73 157.001L1335.01 177.805ZM1370.65 157.001L1382.41 163.905L1405.94 177.711V219.13L1394.18 226.014L1370.65 239.801L1335.39 219.111V177.692L1370.65 157.001ZM1441.41 115.299V156.699L1406.13 177.389L1394.37 170.486L1370.86 156.68V115.28L1406.13 94.5706L1441.41 115.299ZM1477.05 94.5895L1488.81 101.493L1512.34 115.299V156.699L1477.07 177.389L1441.77 156.68V115.28L1477.05 94.5895ZM1477.22 52.868L1488.98 45.9838L1512.51 32.1586L1547.79 52.8491V94.2679L1512.51 114.958L1500.75 108.074L1477.22 94.2679V52.868ZM1441.41 -9.54398V31.8749L1406.13 52.5465L1370.86 31.856V-9.56288L1406.13 -30.3669L1441.41 -9.54398ZM1477.05 -30.348L1488.81 -23.4448L1512.34 -9.63855V31.7803L1500.58 38.6646L1477.05 52.4708L1441.77 31.856V-9.56288L1477.05 -30.348ZM1512.51 -92.76L1524.26 -85.8568L1547.79 -72.0505V-30.5749L1512.51 -9.86549L1500.75 -16.7686L1477.22 -30.5749V-71.9749L1512.51 -92.76ZM1512.68 -134.481L1524.45 -141.366L1547.96 -155.172L1583.26 -134.481V-93.0626L1547.98 -72.372L1536.23 -79.2563L1512.7 -92.9869L1512.68 -134.481ZM1512.51 -217.527L1547.79 -196.723V-155.418L1536.03 -148.515L1512.51 -134.784L1477.22 -155.588V-196.818L1512.51 -217.527Z" fill="#FDCE25"/>
<path d="M1547.98 -198.332C1547.61 -198.327 1547.26 -198.177 1547 -197.915C1546.74 -197.654 1546.6 -197.3 1546.6 -196.932C1546.57 -196.745 1546.57 -196.553 1546.6 -196.365L1512.36 -176.223V-135.882C1512.02 -135.841 1511.71 -135.678 1511.49 -135.424C1511.26 -135.17 1511.14 -134.842 1511.13 -134.502C1511.13 -134.129 1511.28 -133.771 1511.54 -133.505C1511.8 -133.24 1512.16 -133.088 1512.53 -133.083C1512.75 -133.085 1512.96 -133.14 1513.15 -133.242C1513.34 -133.344 1513.51 -133.491 1513.63 -133.669L1547.81 -113.603V-73.4703C1547.47 -73.4285 1547.17 -73.2648 1546.94 -73.0103C1546.72 -72.7558 1546.6 -72.4281 1546.6 -72.0896C1546.57 -71.9016 1546.57 -71.7103 1546.6 -71.5222L1512.36 -51.3802V-11.0583C1512.02 -11.0165 1511.71 -10.8508 1511.48 -10.5927C1511.25 -10.3347 1511.13 -10.0022 1511.13 -9.65872C1511.13 -9.47002 1511.17 -9.28325 1511.25 -9.11028L1477.07 10.9372L1441.6 -9.86676L1407.23 10.2942C1407.11 10.1188 1406.94 9.97563 1406.75 9.87691C1406.56 9.77818 1406.35 9.72672 1406.13 9.72681C1405.76 9.70424 1405.4 9.83005 1405.12 10.0766C1404.84 10.3231 1404.67 10.67 1404.65 11.0412C1404.63 11.4124 1404.75 11.7774 1405 12.0558C1405.24 12.3342 1405.59 12.5033 1405.96 12.5259V52.8478L1440.22 72.952C1440.14 73.125 1440.1 73.3118 1440.11 73.5005C1440.11 73.8717 1440.25 74.2277 1440.52 74.4901C1440.78 74.7526 1441.13 74.9001 1441.51 74.9001C1441.88 74.9001 1442.23 74.7526 1442.5 74.4901C1442.76 74.2277 1442.91 73.8717 1442.91 73.5005C1442.91 73.3118 1442.87 73.125 1442.79 72.952L1476.97 52.9045L1511.13 72.952C1511.1 73.1337 1511.1 73.3188 1511.13 73.5005C1511.13 73.8429 1511.26 74.1731 1511.49 74.4304C1511.71 74.6876 1512.02 74.8544 1512.36 74.9001V115.014L1478.16 135.137C1478.04 134.961 1477.87 134.817 1477.68 134.715C1477.49 134.614 1477.28 134.557 1477.07 134.551C1476.85 134.554 1476.64 134.609 1476.45 134.711C1476.26 134.813 1476.09 134.959 1475.97 135.137L1441.6 114.957L1406.04 135.761V176.083C1405.7 176.124 1405.39 176.287 1405.16 176.542C1404.94 176.796 1404.81 177.124 1404.81 177.464C1404.82 177.658 1404.85 177.849 1404.92 178.031L1370.65 198.192L1335.2 177.388L1300.85 197.549C1300.72 197.376 1300.56 197.234 1300.37 197.136C1300.18 197.037 1299.97 196.985 1299.75 196.982C1299.57 196.982 1299.38 197.018 1299.21 197.09C1299.04 197.161 1298.89 197.266 1298.76 197.398C1298.63 197.53 1298.52 197.687 1298.45 197.859C1298.38 198.031 1298.35 198.215 1298.35 198.4C1298.36 198.74 1298.48 199.068 1298.71 199.322C1298.93 199.576 1299.24 199.739 1299.58 199.781V240.122L1335.14 260.926L1369.44 240.802C1369.56 240.978 1369.72 241.121 1369.91 241.22C1370.1 241.32 1370.31 241.371 1370.52 241.371C1370.74 241.371 1370.95 241.32 1371.14 241.22C1371.33 241.121 1371.49 240.978 1371.61 240.802L1405.81 260.869V300.983C1405.47 301.024 1405.16 301.187 1404.94 301.441C1404.71 301.695 1404.58 302.023 1404.58 302.363C1404.59 302.557 1404.63 302.749 1404.7 302.931L1370.5 323.13V364.946L1404.75 385.05C1404.69 385.225 1404.65 385.411 1404.64 385.598C1404.64 385.969 1404.79 386.325 1405.05 386.588C1405.31 386.85 1405.67 386.998 1406.04 386.998C1406.41 386.998 1406.77 386.85 1407.03 386.588C1407.29 386.325 1407.44 385.969 1407.44 385.598C1407.44 385.409 1407.4 385.223 1407.33 385.05L1440.41 365.645C1440.54 365.819 1440.71 365.96 1440.9 366.059C1441.09 366.157 1441.31 366.21 1441.52 366.213C1441.74 366.211 1441.95 366.156 1442.14 366.054C1442.34 365.952 1442.5 365.805 1442.62 365.626L1476.82 385.693V427.112L1441.62 447.878L1407.44 427.811C1407.52 427.639 1407.55 427.452 1407.55 427.263C1407.55 426.892 1407.4 426.536 1407.14 426.273C1406.88 426.011 1406.52 425.863 1406.15 425.863C1405.78 425.863 1405.42 426.011 1405.16 426.273C1404.9 426.536 1404.75 426.892 1404.75 427.263C1404.75 427.452 1404.79 427.639 1404.87 427.811L1370.52 447.972V488.294C1370.18 488.336 1369.87 488.5 1369.65 488.754C1369.42 489.009 1369.3 489.336 1369.3 489.675C1369.3 490.048 1369.44 490.408 1369.7 490.677C1369.96 490.946 1370.31 491.102 1370.69 491.112C1370.9 491.11 1371.12 491.056 1371.31 490.954C1371.5 490.852 1371.66 490.705 1371.78 490.526L1406.15 510.687L1440.43 490.564C1440.55 490.743 1440.71 490.89 1440.9 490.992C1441.09 491.093 1441.31 491.146 1441.52 491.146C1441.74 491.146 1441.95 491.093 1442.15 490.992C1442.34 490.89 1442.5 490.743 1442.62 490.564L1476.82 510.63V552.03L1442.72 572.059C1442.59 571.883 1442.43 571.74 1442.24 571.641C1442.05 571.542 1441.83 571.49 1441.62 571.49C1441.4 571.49 1441.19 571.542 1441 571.641C1440.81 571.74 1440.65 571.883 1440.52 572.059L1406.15 551.898L1371.78 572.059C1371.66 571.882 1371.5 571.738 1371.3 571.639C1371.11 571.54 1370.9 571.49 1370.69 571.491C1370.31 571.469 1369.95 571.595 1369.67 571.841C1369.39 572.088 1369.22 572.435 1369.2 572.806C1369.18 573.177 1369.3 573.542 1369.55 573.82C1369.8 574.099 1370.14 574.268 1370.52 574.29V614.423L1336.32 634.49C1336.2 634.31 1336.03 634.162 1335.84 634.06C1335.65 633.957 1335.44 633.904 1335.22 633.903C1335.01 633.91 1334.8 633.966 1334.61 634.068C1334.42 634.17 1334.26 634.314 1334.14 634.49L1299.77 614.31L1264.23 635.114V675.436C1263.89 675.481 1263.58 675.648 1263.35 675.905C1263.13 676.163 1263 676.493 1263 676.835C1263 677.21 1263.16 677.568 1263.42 677.833C1263.69 678.098 1264.04 678.249 1264.42 678.254C1264.63 678.243 1264.84 678.185 1265.02 678.083C1265.21 677.982 1265.37 677.84 1265.5 677.667L1299.87 697.847H1299.96L1335.33 677.043L1369.49 697.091C1369.43 697.274 1369.4 697.465 1369.4 697.658C1369.4 697.997 1369.52 698.324 1369.74 698.579C1369.97 698.833 1370.27 698.997 1370.61 699.039V739.153L1335.14 759.957V800.278C1334.77 800.304 1334.43 800.475 1334.18 800.755C1333.94 801.036 1333.81 801.401 1333.84 801.773C1333.86 802.144 1334.04 802.49 1334.32 802.734C1334.6 802.979 1334.96 803.103 1335.33 803.078C1335.54 803.076 1335.75 803.024 1335.94 802.925C1336.13 802.826 1336.29 802.684 1336.41 802.51L1370.65 822.785H1370.74L1406.3 801.981V761.545C1406.64 761.504 1406.95 761.34 1407.17 761.085C1407.39 760.831 1407.52 760.503 1407.51 760.165C1407.52 759.976 1407.48 759.788 1407.4 759.616L1441.75 739.455V697.639L1406.38 676.835V636.721C1406.72 636.672 1407.02 636.503 1407.24 636.246C1407.47 635.989 1407.59 635.661 1407.59 635.322C1407.59 635.133 1407.55 634.946 1407.48 634.773L1441.66 614.726L1475.84 634.773C1475.76 634.985 1475.74 635.211 1475.77 635.433C1475.8 635.655 1475.88 635.868 1476.01 636.052C1476.13 636.237 1476.3 636.388 1476.5 636.495C1476.7 636.601 1476.92 636.659 1477.14 636.665C1477.33 636.662 1477.51 636.624 1477.68 636.551C1477.85 636.478 1478 636.373 1478.13 636.241C1478.25 636.11 1478.36 635.954 1478.42 635.783C1478.49 635.612 1478.53 635.43 1478.52 635.246C1478.52 635.057 1478.48 634.871 1478.41 634.698L1512.76 614.537V574.29C1513.1 574.249 1513.41 574.086 1513.64 573.832C1513.86 573.578 1513.99 573.25 1513.99 572.91C1513.98 572.722 1513.94 572.536 1513.88 572.361L1548.04 552.314L1583.33 573.023V614.423L1549.13 634.49C1549.01 634.31 1548.85 634.162 1548.66 634.06C1548.47 633.957 1548.25 633.904 1548.04 633.903C1547.69 633.917 1547.35 634.061 1547.1 634.307C1546.85 634.553 1546.7 634.884 1546.68 635.235C1546.65 635.587 1546.76 635.933 1546.98 636.208C1547.2 636.483 1547.52 636.666 1547.87 636.721V676.835L1512.42 697.639V737.98C1512.19 738.005 1511.97 738.086 1511.78 738.218C1511.58 738.349 1511.43 738.526 1511.32 738.732C1511.22 738.939 1511.16 739.169 1511.17 739.401C1511.17 739.633 1511.24 739.861 1511.35 740.063C1511.46 740.265 1511.63 740.435 1511.82 740.558C1512.02 740.681 1512.25 740.754 1512.48 740.769C1512.71 740.783 1512.94 740.74 1513.15 740.643C1513.36 740.546 1513.55 740.398 1513.69 740.212L1547.87 760.278V801.886L1582.12 821.99C1582.05 822.164 1582.02 822.351 1582.03 822.539C1582.03 822.723 1582.06 822.905 1582.13 823.076C1582.2 823.247 1582.3 823.402 1582.42 823.534C1582.55 823.666 1582.71 823.771 1582.87 823.844C1583.04 823.916 1583.23 823.955 1583.41 823.957C1583.78 823.952 1584.14 823.801 1584.4 823.535C1584.66 823.27 1584.81 822.912 1584.81 822.539C1584.81 822.35 1584.77 822.162 1584.7 821.99L1619.05 801.829V761.545C1619.42 761.523 1619.76 761.354 1620.01 761.075C1620.26 760.797 1620.38 760.432 1620.36 760.061C1620.34 759.69 1620.17 759.343 1619.89 759.096C1619.61 758.849 1619.25 758.724 1618.88 758.746C1618.66 758.748 1618.45 758.803 1618.26 758.905C1618.06 759.007 1617.9 759.154 1617.78 759.333L1583.64 739.266V699.133C1583.97 699.092 1584.28 698.929 1584.51 698.675C1584.74 698.421 1584.86 698.093 1584.87 697.753C1584.87 697.558 1584.83 697.365 1584.75 697.185L1619.1 677.043V636.721C1619.44 636.676 1619.75 636.509 1619.98 636.252C1620.21 635.994 1620.33 635.664 1620.33 635.322C1620.33 635.133 1620.29 634.946 1620.22 634.773L1654.38 614.726L1689.85 635.53L1724.14 615.407C1724.26 615.581 1724.42 615.723 1724.61 615.822C1724.8 615.92 1725.01 615.973 1725.22 615.974C1725.59 615.997 1725.95 615.871 1726.23 615.624C1726.51 615.378 1726.68 615.031 1726.7 614.66C1726.73 614.289 1726.6 613.924 1726.35 613.645C1726.11 613.367 1725.76 613.198 1725.39 613.175V572.815L1691.13 552.711C1691.19 552.534 1691.23 552.349 1691.23 552.163C1691.25 551.966 1691.23 551.768 1691.17 551.579C1691.11 551.391 1691.01 551.217 1690.88 551.07C1690.75 550.922 1690.59 550.804 1690.41 550.723C1690.23 550.642 1690.03 550.601 1689.84 550.601C1689.64 550.601 1689.44 550.642 1689.26 550.723C1689.08 550.804 1688.92 550.922 1688.79 551.07C1688.66 551.217 1688.56 551.391 1688.5 551.579C1688.44 551.768 1688.42 551.966 1688.45 552.163C1688.42 552.344 1688.42 552.529 1688.45 552.711L1654.38 572.702L1620.2 552.654C1620.28 552.481 1620.31 552.295 1620.31 552.106C1620.31 551.766 1620.19 551.438 1619.96 551.184C1619.73 550.93 1619.42 550.767 1619.08 550.725V510.592L1653.28 490.526C1653.41 490.704 1653.57 490.85 1653.76 490.952C1653.95 491.054 1654.16 491.109 1654.38 491.112C1654.6 491.106 1654.81 491.049 1655 490.948C1655.19 490.846 1655.35 490.702 1655.48 490.526L1689.85 510.687L1725.41 489.883V449.466C1725.62 449.435 1725.81 449.358 1725.99 449.24C1726.16 449.122 1726.31 448.966 1726.41 448.785C1726.52 448.603 1726.58 448.4 1726.6 448.191C1726.61 447.981 1726.58 447.771 1726.5 447.575L1760.68 427.528L1796.15 448.332H1796.25L1830.52 428.209C1830.64 428.384 1830.81 428.527 1831 428.626C1831.19 428.725 1831.4 428.776 1831.62 428.776C1831.99 428.799 1832.35 428.673 1832.63 428.426C1832.91 428.18 1833.08 427.833 1833.1 427.462C1833.13 427.09 1833 426.725 1832.75 426.447C1832.51 426.169 1832.16 425.999 1831.79 425.977V385.542L1796.25 364.737H1796.15L1761.88 384.842C1761.75 384.666 1761.59 384.523 1761.4 384.424C1761.21 384.325 1760.99 384.273 1760.78 384.273C1760.56 384.273 1760.35 384.325 1760.16 384.424C1759.97 384.523 1759.81 384.666 1759.68 384.842L1725.5 364.737V324.624C1725.84 324.582 1726.15 324.418 1726.37 324.164C1726.59 323.909 1726.72 323.581 1726.71 323.243C1726.71 323.05 1726.68 322.858 1726.62 322.676L1760.95 302.534V260.718L1726.69 240.613C1726.75 240.437 1726.79 240.252 1726.79 240.065C1726.81 239.869 1726.79 239.67 1726.73 239.482C1726.67 239.293 1726.58 239.12 1726.44 238.972C1726.31 238.824 1726.15 238.706 1725.97 238.626C1725.79 238.545 1725.6 238.503 1725.4 238.503C1725.2 238.503 1725.01 238.545 1724.83 238.626C1724.64 238.706 1724.48 238.824 1724.35 238.972C1724.22 239.12 1724.12 239.293 1724.06 239.482C1724 239.67 1723.98 239.869 1724.01 240.065C1723.98 240.247 1723.98 240.432 1724.01 240.613L1690.94 260.018C1690.81 259.844 1690.64 259.703 1690.45 259.604C1690.26 259.506 1690.04 259.453 1689.83 259.45C1689.61 259.451 1689.4 259.504 1689.21 259.607C1689.01 259.709 1688.85 259.857 1688.73 260.037L1654.53 239.97V198.551L1689.83 177.747L1723.99 197.814C1723.92 197.989 1723.88 198.174 1723.88 198.362C1723.88 198.733 1724.02 199.089 1724.29 199.352C1724.55 199.614 1724.9 199.762 1725.28 199.762C1725.65 199.762 1726 199.614 1726.26 199.352C1726.53 199.089 1726.67 198.733 1726.67 198.362C1726.71 198.181 1726.71 197.995 1726.67 197.814L1761.01 177.653V137.369C1761.34 137.327 1761.66 137.164 1761.88 136.91C1762.11 136.656 1762.23 136.328 1762.24 135.988C1762.24 135.802 1762.2 135.617 1762.14 135.444C1762.07 135.271 1761.96 135.113 1761.83 134.98C1761.7 134.846 1761.55 134.74 1761.38 134.666C1761.21 134.592 1761.02 134.553 1760.84 134.551C1760.62 134.557 1760.41 134.614 1760.22 134.715C1760.03 134.817 1759.86 134.961 1759.74 135.137L1725.31 114.957H1725.22L1690.92 135.08C1690.8 134.904 1690.64 134.759 1690.46 134.657C1690.27 134.555 1690.06 134.499 1689.85 134.494C1689.63 134.498 1689.42 134.553 1689.23 134.655C1689.04 134.757 1688.87 134.903 1688.75 135.08L1654.55 115.014V73.6707L1688.75 53.6043C1688.87 53.7798 1689.04 53.9229 1689.23 54.0216C1689.42 54.1203 1689.63 54.1718 1689.85 54.1717C1690.06 54.1704 1690.27 54.1181 1690.45 54.0193C1690.64 53.9206 1690.8 53.7783 1690.92 53.6043L1725.29 73.7653L1759.57 53.661C1759.7 53.8343 1759.86 53.9758 1760.05 54.0742C1760.24 54.1727 1760.45 54.2255 1760.67 54.2285C1761.04 54.251 1761.4 54.1252 1761.68 53.8787C1761.96 53.6322 1762.13 53.2852 1762.15 52.914C1762.17 52.5428 1762.05 52.1779 1761.8 51.8995C1761.55 51.621 1761.21 51.4519 1760.84 51.4294V11.2398L1795.04 -8.82657C1795.16 -8.64761 1795.32 -8.50085 1795.51 -8.39876C1795.7 -8.29668 1795.92 -8.24229 1796.13 -8.24026C1796.35 -8.24683 1796.56 -8.30318 1796.75 -8.40488C1796.94 -8.50659 1797.1 -8.65089 1797.23 -8.82657L1831.6 11.3533L1867.16 -9.45068V-49.8861C1867.51 -49.9428 1867.82 -50.1274 1868.04 -50.4039C1868.26 -50.6804 1868.37 -51.0288 1868.35 -51.3811C1868.32 -51.7334 1868.17 -52.0643 1867.92 -52.3089C1867.66 -52.5536 1867.32 -52.6945 1866.97 -52.7041C1866.76 -52.6991 1866.55 -52.6432 1866.36 -52.5413C1866.17 -52.4393 1866.01 -52.2941 1865.89 -52.1178L1831.69 -72.3733H1831.6L1796.23 -51.5693L1762.05 -71.6168C1762.12 -71.7969 1762.16 -71.9895 1762.16 -72.1842C1762.16 -72.5244 1762.03 -72.8522 1761.81 -73.1063C1761.58 -73.3605 1761.27 -73.5235 1760.93 -73.5648V-113.584L1796.4 -134.388V-174.729C1796.58 -174.741 1796.76 -174.79 1796.93 -174.872C1797.09 -174.953 1797.24 -175.067 1797.36 -175.206C1797.48 -175.344 1797.57 -175.506 1797.63 -175.68C1797.69 -175.855 1797.71 -176.039 1797.7 -176.223C1797.69 -176.407 1797.64 -176.586 1797.56 -176.751C1797.48 -176.916 1797.36 -177.064 1797.23 -177.185C1797.09 -177.306 1796.93 -177.399 1796.75 -177.458C1796.58 -177.517 1796.39 -177.54 1796.21 -177.528C1796 -177.525 1795.79 -177.472 1795.6 -177.374C1795.41 -177.275 1795.25 -177.134 1795.13 -176.961L1760.76 -197.197L1725.2 -176.393V-135.882C1724.86 -135.837 1724.55 -135.67 1724.32 -135.413C1724.1 -135.155 1723.97 -134.825 1723.97 -134.483C1723.98 -134.301 1724.02 -134.122 1724.08 -133.953L1689.66 -113.792V-71.9761L1725.03 -51.1721V-11.0583C1724.69 -11.0126 1724.38 -10.8458 1724.15 -10.5886C1723.93 -10.3314 1723.8 -10.0011 1723.8 -9.65872C1723.81 -9.47105 1723.85 -9.28595 1723.91 -9.11028L1689.75 10.9372L1655.57 -9.11028C1655.65 -9.28926 1655.69 -9.48264 1655.69 -9.67766C1655.69 -9.86145 1655.65 -10.0434 1655.58 -10.2132C1655.51 -10.383 1655.41 -10.5373 1655.28 -10.6673C1655.15 -10.7972 1654.99 -10.9003 1654.82 -10.9707C1654.65 -11.041 1654.47 -11.0772 1654.29 -11.0772C1654.1 -11.0772 1653.92 -11.041 1653.75 -10.9707C1653.58 -10.9003 1653.43 -10.7972 1653.3 -10.6673C1653.17 -10.5373 1653.06 -10.383 1652.99 -10.2132C1652.92 -10.0434 1652.89 -9.86145 1652.89 -9.67766C1652.89 -9.48895 1652.92 -9.30215 1653 -9.12917L1618.74 11.0318V51.3726C1618.41 51.414 1618.09 51.577 1617.87 51.8311C1617.64 52.0852 1617.52 52.413 1617.51 52.7533C1617.51 52.942 1617.55 53.1287 1617.63 53.3017L1583.45 73.3492L1548.17 52.5452V11.2398L1582.37 -8.82657C1582.49 -8.64676 1582.65 -8.49896 1582.83 -8.39658C1583.02 -8.29417 1583.23 -8.24043 1583.45 -8.24026C1583.82 -8.24524 1584.18 -8.39688 1584.44 -8.66235C1584.7 -8.92783 1584.85 -9.28578 1584.85 -9.65872C1584.85 -9.99934 1584.73 -10.3294 1584.51 -10.5871C1584.28 -10.8447 1583.97 -11.0123 1583.64 -11.0583V-51.1721L1619.08 -71.9761V-112.317C1619.31 -112.341 1619.54 -112.423 1619.73 -112.554C1619.92 -112.686 1620.08 -112.863 1620.18 -113.069C1620.29 -113.276 1620.34 -113.506 1620.34 -113.738C1620.33 -113.97 1620.27 -114.198 1620.15 -114.4C1620.04 -114.602 1619.88 -114.772 1619.68 -114.895C1619.48 -115.018 1619.26 -115.091 1619.02 -115.105C1618.79 -115.12 1618.56 -115.077 1618.35 -114.98C1618.14 -114.883 1617.96 -114.734 1617.82 -114.549L1583.64 -134.615V-176.223L1549.29 -196.365C1549.32 -196.553 1549.32 -196.745 1549.29 -196.932C1549.29 -197.288 1549.15 -197.63 1548.91 -197.89C1548.67 -198.15 1548.34 -198.308 1547.98 -198.332ZM1760.76 -113.981L1748.96 -120.809L1726.54 -134.048C1726.62 -134.221 1726.66 -134.407 1726.66 -134.596C1726.66 -134.935 1726.54 -135.262 1726.31 -135.517C1726.09 -135.771 1725.78 -135.935 1725.45 -135.977V-176.015L1760.72 -196.819L1794.9 -176.753C1794.83 -176.58 1794.79 -176.393 1794.79 -176.204C1794.79 -175.864 1794.92 -175.536 1795.14 -175.282C1795.37 -175.028 1795.68 -174.865 1796.02 -174.824V-134.596L1760.76 -113.981ZM1748.82 -65.3567L1725.29 -51.5504L1690.02 -72.3544V-113.584L1724.22 -133.651C1724.34 -133.475 1724.5 -133.332 1724.7 -133.233C1724.89 -133.135 1725.1 -133.083 1725.31 -133.083C1725.52 -133.084 1725.73 -133.137 1725.92 -133.235C1726.11 -133.334 1726.27 -133.477 1726.39 -133.651L1737.06 -127.39L1760.59 -113.584V-73.4703C1760.25 -73.4246 1759.94 -73.2578 1759.71 -73.0006C1759.49 -72.7433 1759.36 -72.4131 1759.36 -72.0707C1759.37 -71.8892 1759.41 -71.7103 1759.47 -71.5412L1748.82 -65.3567ZM1797.51 -9.18591C1797.59 -9.3649 1797.63 -9.55827 1797.63 -9.7533C1797.62 -10.0935 1797.5 -10.4214 1797.27 -10.6755C1797.05 -10.9296 1796.73 -11.0925 1796.4 -11.1339V-51.1721L1831.69 -71.9761L1865.85 -51.9287C1865.79 -51.7459 1865.76 -51.5543 1865.76 -51.3613C1865.76 -51.0228 1865.88 -50.6951 1866.1 -50.4406C1866.33 -50.1861 1866.63 -50.0224 1866.97 -49.9807V-9.7722L1831.69 11.0318L1797.51 -9.18591ZM1760.76 10.8616L1748.96 4.03407L1726.54 -9.20483C1726.62 -9.37782 1726.66 -9.56459 1726.66 -9.7533C1726.66 -10.0939 1726.54 -10.424 1726.31 -10.6816C1726.09 -10.9393 1725.78 -11.1068 1725.45 -11.1528V-51.1721L1737.21 -58.0753L1759.63 -71.3142C1759.75 -71.1384 1759.92 -70.9954 1760.12 -70.8968C1760.31 -70.7982 1760.52 -70.7468 1760.74 -70.7468C1760.95 -70.7526 1761.16 -70.8068 1761.35 -70.9052C1761.53 -71.0036 1761.7 -71.1435 1761.82 -71.3142L1796.02 -51.2478V-11.1339C1795.68 -11.0883 1795.37 -10.9215 1795.14 -10.6642C1794.92 -10.407 1794.79 -10.0768 1794.79 -9.73439C1794.79 -9.54568 1794.83 -9.35889 1794.9 -9.18591L1760.76 10.8616ZM1691.13 53.2261C1691.16 53.0444 1691.16 52.8593 1691.13 52.6776C1691.14 52.3391 1691.01 52.0114 1690.79 51.7569C1690.57 51.5024 1690.26 51.3387 1689.92 51.297V11.2398L1724.12 -8.82657C1724.24 -8.64676 1724.4 -8.49896 1724.59 -8.39658C1724.77 -8.29417 1724.99 -8.24043 1725.2 -8.24026C1725.42 -8.24068 1725.63 -8.29437 1725.82 -8.39659C1726.01 -8.49883 1726.18 -8.64647 1726.3 -8.82657L1736.96 -2.56645L1760.5 11.2398V51.3726C1760.16 51.414 1759.85 51.577 1759.62 51.8311C1759.39 52.0852 1759.27 52.413 1759.27 52.7533C1759.27 52.942 1759.3 53.1287 1759.38 53.3017L1725.2 73.3492L1691.13 53.2261ZM1654.38 73.3492L1642.61 66.446L1620.2 53.2072C1620.28 53.0342 1620.31 52.8474 1620.31 52.6587C1620.31 52.3184 1620.19 51.9906 1619.96 51.7365C1619.73 51.4824 1619.42 51.3195 1619.08 51.2781V11.2398L1653.28 -8.82657C1653.4 -8.64761 1653.57 -8.50085 1653.76 -8.39876C1653.95 -8.29668 1654.16 -8.24229 1654.38 -8.24026C1654.6 -8.24683 1654.81 -8.30318 1655 -8.40488C1655.19 -8.50659 1655.35 -8.65089 1655.48 -8.82657L1689.66 11.2398V51.3726C1689.32 51.4143 1689.01 51.578 1688.79 51.8326C1688.57 52.0871 1688.44 52.4148 1688.45 52.7533C1688.45 52.942 1688.48 53.1287 1688.56 53.3017L1654.38 73.3492ZM1654.21 115.071L1642.44 121.974L1618.91 135.78L1584.73 115.714C1584.81 115.542 1584.85 115.354 1584.85 115.165C1584.85 114.827 1584.73 114.499 1584.5 114.245C1584.28 113.99 1583.97 113.826 1583.64 113.785V73.6707L1617.82 53.6043C1617.94 53.7799 1618.1 53.9232 1618.3 54.0221C1618.49 54.121 1618.7 54.1726 1618.91 54.1726C1619.13 54.1726 1619.34 54.121 1619.53 54.0221C1619.72 53.9232 1619.89 53.7799 1620.01 53.6043L1630.68 59.8644L1654.21 73.6707V115.071ZM1583.45 116.584C1583.66 116.581 1583.87 116.528 1584.06 116.429C1584.25 116.331 1584.42 116.19 1584.54 116.016L1618.74 136.083V176.216C1618.41 176.257 1618.09 176.42 1617.87 176.674C1617.64 176.928 1617.52 177.256 1617.51 177.596C1617.51 177.785 1617.55 177.972 1617.63 178.145L1583.28 198.306V238.627C1583.05 238.652 1582.82 238.734 1582.63 238.865C1582.44 238.996 1582.29 239.173 1582.18 239.38C1582.07 239.587 1582.02 239.816 1582.02 240.049C1582.03 240.281 1582.09 240.508 1582.21 240.71C1582.32 240.912 1582.49 241.083 1582.68 241.206C1582.88 241.329 1583.1 241.401 1583.34 241.416C1583.57 241.431 1583.8 241.388 1584.01 241.29C1584.22 241.193 1584.4 241.045 1584.54 240.859L1618.74 260.926V301.039C1618.5 301.058 1618.28 301.136 1618.07 301.266C1617.87 301.397 1617.71 301.576 1617.6 301.787C1617.49 301.998 1617.43 302.234 1617.43 302.473C1617.44 302.712 1617.5 302.946 1617.62 303.154C1617.74 303.362 1617.9 303.537 1618.11 303.662C1618.31 303.787 1618.54 303.859 1618.78 303.871C1619.02 303.882 1619.26 303.833 1619.47 303.729C1619.69 303.624 1619.87 303.466 1620.01 303.271L1654.21 323.356V363.47C1653.87 363.512 1653.56 363.676 1653.34 363.93C1653.12 364.185 1653 364.512 1653 364.851C1653 365.224 1653.15 365.582 1653.41 365.847C1653.67 366.113 1654.03 366.264 1654.4 366.269C1654.62 366.267 1654.83 366.213 1655.02 366.111C1655.21 366.009 1655.37 365.862 1655.5 365.683L1689.68 385.75V427.168L1654.38 447.878L1620.2 427.811C1620.28 427.639 1620.32 427.452 1620.31 427.263C1620.31 427.079 1620.28 426.897 1620.21 426.727C1620.14 426.558 1620.03 426.403 1619.9 426.273C1619.77 426.143 1619.62 426.04 1619.45 425.97C1619.28 425.9 1619.1 425.863 1618.91 425.863C1618.73 425.863 1618.55 425.9 1618.38 425.97C1618.21 426.04 1618.05 426.143 1617.92 426.273C1617.79 426.403 1617.69 426.558 1617.62 426.727C1617.55 426.897 1617.51 427.079 1617.51 427.263C1617.51 427.452 1617.55 427.639 1617.63 427.811L1583.28 447.972V488.294C1582.94 488.34 1582.63 488.508 1582.41 488.766C1582.18 489.023 1582.06 489.353 1582.07 489.694C1582.06 489.881 1582.09 490.068 1582.16 490.242L1549.08 509.647C1548.96 509.471 1548.79 509.328 1548.6 509.229C1548.41 509.13 1548.2 509.078 1547.99 509.078C1547.78 509.078 1547.57 509.13 1547.38 509.229C1547.19 509.328 1547.02 509.471 1546.9 509.647L1512.72 489.58V449.448C1513.06 449.406 1513.37 449.243 1513.6 448.989C1513.82 448.735 1513.95 448.407 1513.95 448.067C1513.94 447.879 1513.9 447.694 1513.84 447.518L1548.19 427.376V387.036C1548.37 387.023 1548.55 386.975 1548.72 386.893C1548.88 386.811 1549.03 386.698 1549.15 386.559C1549.27 386.42 1549.36 386.259 1549.42 386.084C1549.48 385.91 1549.51 385.725 1549.49 385.542C1549.48 385.358 1549.43 385.178 1549.35 385.013C1549.27 384.848 1549.16 384.701 1549.02 384.58C1548.88 384.458 1548.72 384.366 1548.54 384.307C1548.37 384.248 1548.18 384.224 1548 384.237C1547.79 384.239 1547.58 384.292 1547.39 384.391C1547.2 384.49 1547.04 384.631 1546.92 384.804L1512.72 364.737V324.624C1513.06 324.578 1513.37 324.411 1513.6 324.154C1513.82 323.897 1513.95 323.566 1513.95 323.224C1513.95 322.849 1513.8 322.491 1513.53 322.227C1513.27 321.962 1512.91 321.811 1512.53 321.806C1512.32 321.812 1512.11 321.869 1511.92 321.97C1511.74 322.072 1511.58 322.217 1511.45 322.392L1477.24 302.326V262.193C1477.57 262.151 1477.89 261.988 1478.11 261.734C1478.34 261.48 1478.46 261.152 1478.47 260.812C1478.47 260.439 1478.32 260.081 1478.06 259.816C1477.8 259.55 1477.44 259.399 1477.07 259.394C1476.85 259.394 1476.64 259.448 1476.44 259.55C1476.25 259.652 1476.09 259.8 1475.97 259.98L1441.77 239.914V198.495L1477.07 177.691L1511.23 197.757C1511.2 197.939 1511.2 198.124 1511.23 198.306C1511.23 198.677 1511.38 199.033 1511.64 199.295C1511.9 199.558 1512.26 199.705 1512.63 199.705C1513 199.705 1513.35 199.558 1513.62 199.295C1513.88 199.033 1514.03 198.677 1514.03 198.306C1514.02 198.118 1513.98 197.932 1513.91 197.757L1548.26 177.596V137.369C1548.6 137.319 1548.91 137.15 1549.13 136.894C1549.35 136.637 1549.47 136.309 1549.47 135.969C1549.5 135.788 1549.5 135.602 1549.47 135.421L1582.54 116.016C1582.64 116.167 1582.78 116.294 1582.94 116.392C1583.09 116.489 1583.27 116.554 1583.45 116.584ZM1690.02 177.483V137.369C1690.35 137.327 1690.66 137.163 1690.88 136.909C1691.11 136.654 1691.23 136.327 1691.23 135.988C1691.26 135.8 1691.26 135.609 1691.23 135.421L1725.41 115.373L1759.57 135.421C1759.49 135.6 1759.45 135.793 1759.46 135.988C1759.46 136.328 1759.58 136.656 1759.81 136.91C1760.04 137.164 1760.35 137.327 1760.68 137.369V177.483L1726.49 197.549C1726.36 197.374 1726.2 197.23 1726.01 197.132C1725.82 197.033 1725.6 196.982 1725.39 196.982C1725.18 196.983 1724.97 197.035 1724.78 197.134C1724.59 197.233 1724.43 197.375 1724.31 197.549L1690.02 177.483ZM1654.38 198.192L1642.61 191.289L1620.2 178.05C1620.28 177.877 1620.31 177.69 1620.31 177.502C1620.32 177.16 1620.19 176.83 1619.96 176.575C1619.74 176.32 1619.42 176.158 1619.08 176.121V136.083L1630.85 129.18L1654.38 115.373L1688.56 135.421C1688.48 135.616 1688.45 135.827 1688.47 136.036C1688.49 136.245 1688.55 136.448 1688.65 136.63C1688.76 136.812 1688.9 136.967 1689.08 137.085C1689.25 137.203 1689.45 137.281 1689.66 137.312V177.426L1654.38 198.192ZM1654.21 239.914L1642.44 246.817L1618.91 260.604L1584.73 240.557C1584.81 240.384 1584.85 240.197 1584.85 240.008C1584.85 239.67 1584.73 239.342 1584.5 239.087C1584.28 238.833 1583.97 238.669 1583.64 238.627V198.495L1617.82 178.428C1617.94 178.608 1618.1 178.755 1618.29 178.856C1618.48 178.958 1618.7 179.011 1618.91 179.011C1619.13 179.011 1619.34 178.958 1619.53 178.856C1619.73 178.755 1619.89 178.608 1620.01 178.428L1630.68 184.688L1654.21 198.495V239.914ZM1688.56 260.264C1688.48 260.459 1688.45 260.67 1688.47 260.879C1688.49 261.088 1688.55 261.291 1688.65 261.473C1688.76 261.655 1688.9 261.81 1689.08 261.928C1689.25 262.046 1689.45 262.124 1689.66 262.155V302.288L1654.38 323.035L1620.2 302.987C1620.28 302.814 1620.31 302.628 1620.31 302.439C1620.32 302.095 1620.19 301.763 1619.97 301.505C1619.74 301.247 1619.42 301.081 1619.08 301.039V260.926L1630.85 254.022L1654.38 240.216L1688.56 260.264ZM1725.33 321.825C1725.12 321.824 1724.91 321.876 1724.71 321.975C1724.52 322.073 1724.36 322.216 1724.23 322.392L1713.57 316.132L1690.04 302.326V262.193C1690.37 262.147 1690.67 261.981 1690.89 261.727C1691.11 261.473 1691.23 261.148 1691.23 260.812C1691.26 260.637 1691.26 260.458 1691.23 260.283L1724.33 240.859C1724.45 241.035 1724.61 241.178 1724.8 241.277C1724.99 241.376 1725.2 241.428 1725.42 241.428C1725.63 241.428 1725.84 241.376 1726.03 241.277C1726.22 241.178 1726.38 241.035 1726.5 240.859L1760.7 260.926V302.326L1726.5 322.392C1726.37 322.206 1726.2 322.056 1725.99 321.957C1725.79 321.857 1725.56 321.812 1725.33 321.825ZM1725.14 364.737L1713.38 371.641L1689.87 385.447L1655.69 365.399C1655.76 365.226 1655.8 365.04 1655.8 364.851C1655.8 364.511 1655.67 364.183 1655.44 363.929C1655.22 363.675 1654.91 363.512 1654.57 363.47V323.338L1689.87 302.534L1701.63 309.437L1724.03 322.581C1724 322.769 1724 322.961 1724.03 323.148C1724.02 323.487 1724.15 323.815 1724.37 324.069C1724.59 324.324 1724.9 324.487 1725.24 324.529L1725.14 364.737ZM1760.95 427.149V387.036C1761.29 386.994 1761.6 386.831 1761.82 386.577C1762.05 386.323 1762.18 385.995 1762.18 385.655C1762.18 385.466 1762.14 385.28 1762.07 385.107L1796.25 365.059L1831.54 385.75V425.882C1831.2 425.924 1830.89 426.087 1830.67 426.341C1830.44 426.595 1830.31 426.923 1830.31 427.263C1830.31 427.452 1830.35 427.639 1830.43 427.811L1796.25 447.878L1760.95 427.149ZM1725.33 446.63C1725.12 446.633 1724.9 446.688 1724.71 446.79C1724.52 446.892 1724.36 447.038 1724.23 447.216L1713.57 440.937L1690.04 427.149V385.731L1701.8 378.846L1725.33 365.04L1759.49 385.088C1759.42 385.261 1759.38 385.447 1759.38 385.636C1759.38 385.976 1759.51 386.304 1759.73 386.558C1759.96 386.812 1760.27 386.975 1760.61 387.017V427.149L1726.41 447.216C1726.29 447.044 1726.13 446.903 1725.94 446.805C1725.75 446.706 1725.54 446.653 1725.33 446.648V446.63ZM1655.69 490.223C1655.76 490.05 1655.8 489.864 1655.8 489.675C1655.8 489.333 1655.67 489.002 1655.45 488.745C1655.22 488.488 1654.91 488.321 1654.57 488.275V448.18L1689.87 427.471L1701.63 434.374L1724.03 447.518C1724 447.706 1724 447.898 1724.03 448.086C1724.02 448.424 1724.15 448.752 1724.37 449.007C1724.59 449.261 1724.9 449.425 1725.24 449.466V489.58L1689.96 510.29L1655.69 490.223ZM1618.93 510.271L1607.09 503.387L1584.68 490.242C1584.75 490.069 1584.79 489.883 1584.79 489.694C1584.79 489.35 1584.67 489.018 1584.44 488.76C1584.22 488.502 1583.9 488.336 1583.56 488.294V448.18L1617.76 428.114C1617.88 428.293 1618.04 428.44 1618.24 428.542C1618.43 428.644 1618.64 428.697 1618.86 428.697C1619.07 428.697 1619.29 428.644 1619.48 428.542C1619.67 428.44 1619.83 428.293 1619.95 428.114L1654.13 448.18V488.294C1653.8 488.34 1653.49 488.508 1653.26 488.766C1653.04 489.023 1652.92 489.353 1652.92 489.694C1652.92 489.883 1652.96 490.069 1653.04 490.242L1618.93 510.271ZM1654.57 614.404V573.023L1688.77 552.957C1688.89 553.132 1689.06 553.275 1689.25 553.374C1689.44 553.473 1689.65 553.524 1689.87 553.524C1690.08 553.521 1690.29 553.469 1690.48 553.37C1690.67 553.272 1690.84 553.13 1690.96 552.957L1725.14 573.023V613.137C1724.8 613.179 1724.49 613.342 1724.27 613.596C1724.04 613.85 1723.92 614.178 1723.91 614.518C1723.92 614.706 1723.96 614.891 1724.03 615.066L1689.87 635.114L1654.57 614.404ZM1548.19 760.259L1559.93 753.356L1583.47 739.55L1617.65 759.597C1617.57 759.77 1617.53 759.957 1617.53 760.146C1617.53 760.486 1617.66 760.814 1617.89 761.068C1618.11 761.322 1618.42 761.485 1618.76 761.526V801.659L1584.56 821.726C1584.44 821.548 1584.28 821.402 1584.09 821.3C1583.89 821.198 1583.68 821.143 1583.47 821.139C1583.25 821.146 1583.04 821.202 1582.85 821.304C1582.66 821.406 1582.49 821.55 1582.37 821.726L1548.19 801.659V760.259ZM1548 677.043L1559.8 684.135L1582.22 697.28C1582.15 697.461 1582.12 697.654 1582.12 697.847C1582.12 698.186 1582.24 698.513 1582.47 698.768C1582.69 699.022 1583 699.186 1583.33 699.228V739.361L1571.57 746.264L1548.04 760.051L1513.84 739.909C1513.9 739.733 1513.94 739.548 1513.95 739.361C1513.95 739.02 1513.82 738.693 1513.6 738.438C1513.37 738.184 1513.06 738.021 1512.72 737.98V697.847L1548 677.043ZM1583.47 614.631L1595.23 621.534L1617.65 634.679C1617.57 634.852 1617.53 635.039 1617.53 635.227C1617.53 635.57 1617.66 635.9 1617.89 636.157C1618.11 636.414 1618.42 636.581 1618.76 636.627V676.741L1584.56 696.807C1584.44 696.632 1584.27 696.489 1584.08 696.39C1583.89 696.291 1583.68 696.24 1583.47 696.24C1583.25 696.243 1583.04 696.295 1582.85 696.394C1582.66 696.492 1582.49 696.634 1582.37 696.807L1571.7 690.547L1548.19 676.741V636.721C1548.52 636.672 1548.83 636.503 1549.05 636.246C1549.28 635.989 1549.4 635.661 1549.4 635.322C1549.43 635.14 1549.43 634.955 1549.4 634.773L1583.47 614.631ZM1583.64 572.929L1595.4 566.007L1617.84 552.862C1617.96 553.038 1618.12 553.181 1618.31 553.28C1618.51 553.379 1618.72 553.431 1618.93 553.431C1619.15 553.431 1619.36 553.379 1619.55 553.28C1619.74 553.181 1619.91 553.038 1620.03 552.862L1654.21 572.929V614.329L1620.03 634.395C1619.91 634.216 1619.74 634.069 1619.55 633.967C1619.36 633.866 1619.15 633.812 1618.93 633.812C1618.72 633.812 1618.5 633.866 1618.31 633.967C1618.12 634.069 1617.96 634.216 1617.84 634.395L1607.09 628.23L1583.56 614.423L1583.64 572.929ZM1548.19 551.898V511.878C1548.52 511.837 1548.83 511.673 1549.06 511.419C1549.28 511.164 1549.4 510.836 1549.4 510.498C1549.43 510.316 1549.43 510.131 1549.4 509.949L1582.46 490.526C1582.59 490.702 1582.75 490.846 1582.94 490.948C1583.13 491.049 1583.34 491.106 1583.56 491.112C1583.78 491.109 1583.99 491.054 1584.18 490.952C1584.37 490.85 1584.53 490.704 1584.66 490.526L1595.33 496.786L1618.86 510.592V550.725C1618.52 550.767 1618.21 550.93 1617.98 551.184C1617.76 551.438 1617.63 551.766 1617.63 552.106C1617.63 552.295 1617.67 552.481 1617.74 552.654L1607.09 558.896L1583.56 572.702L1548.19 551.898ZM1370.65 739.569L1382.45 746.547L1404.87 759.692C1404.79 759.865 1404.75 760.052 1404.75 760.24C1404.76 760.579 1404.89 760.905 1405.11 761.158C1405.34 761.412 1405.65 761.576 1405.98 761.621V801.754L1370.65 822.369L1336.6 802.321C1336.64 802.14 1336.64 801.954 1336.6 801.773C1336.6 801.432 1336.47 801.104 1336.25 800.85C1336.02 800.596 1335.71 800.433 1335.37 800.392V760.259L1370.65 739.569ZM1382.6 690.944L1406.11 677.138L1441.41 697.942V739.342L1407.25 759.314C1407.13 759.138 1406.96 758.995 1406.77 758.896C1406.58 758.798 1406.37 758.746 1406.15 758.746C1405.94 758.748 1405.73 758.8 1405.54 758.898C1405.36 758.997 1405.2 759.14 1405.07 759.314L1394.39 753.053L1370.87 739.247V699.133C1371.21 699.091 1371.53 698.925 1371.75 698.666C1371.97 698.408 1372.09 698.076 1372.09 697.734C1372.08 697.545 1372.05 697.359 1371.97 697.185L1382.6 690.944ZM1333.95 634.773C1333.88 634.969 1333.84 635.179 1333.86 635.389C1333.88 635.598 1333.94 635.801 1334.05 635.983C1334.15 636.164 1334.3 636.32 1334.47 636.438C1334.64 636.556 1334.84 636.633 1335.05 636.665V676.778L1299.77 697.582L1265.59 677.535C1265.67 677.356 1265.71 677.163 1265.7 676.968C1265.7 676.627 1265.58 676.3 1265.35 676.045C1265.12 675.791 1264.81 675.628 1264.48 675.587V635.435L1299.77 614.726L1333.95 634.773ZM1370.65 614.726L1382.45 621.724L1404.87 634.868C1404.79 635.041 1404.75 635.228 1404.75 635.416C1404.75 635.759 1404.88 636.089 1405.11 636.346C1405.33 636.603 1405.64 636.77 1405.98 636.816V676.93L1394.22 683.833L1371.78 697.072C1371.66 696.896 1371.49 696.753 1371.3 696.655C1371.11 696.556 1370.9 696.504 1370.69 696.504C1370.47 696.506 1370.27 696.558 1370.08 696.657C1369.89 696.755 1369.73 696.898 1369.61 697.072L1335.41 676.835V636.721C1335.75 636.676 1336.06 636.509 1336.29 636.252C1336.51 635.994 1336.64 635.664 1336.64 635.322C1336.65 635.138 1336.64 634.953 1336.6 634.773L1370.65 614.726ZM1440.29 572.361C1440.22 572.534 1440.18 572.721 1440.18 572.91C1440.18 573.25 1440.31 573.578 1440.54 573.832C1440.76 574.086 1441.07 574.249 1441.41 574.29V614.423L1407.25 634.49C1407.13 634.31 1406.97 634.162 1406.77 634.06C1406.58 633.957 1406.37 633.904 1406.15 633.903C1405.94 633.904 1405.73 633.957 1405.54 634.06C1405.35 634.162 1405.19 634.31 1405.07 634.49L1394.39 628.23L1370.87 614.423V574.29C1371.21 574.249 1371.52 574.085 1371.74 573.831C1371.97 573.576 1372.09 573.248 1372.09 572.91C1372.09 572.721 1372.05 572.534 1371.97 572.361L1406.15 552.314L1440.29 572.361ZM1477.05 552.314L1488.85 559.312L1511.25 572.456C1511.22 572.638 1511.22 572.823 1511.25 573.004C1511.25 573.345 1511.37 573.672 1511.6 573.927C1511.83 574.181 1512.14 574.344 1512.48 574.385V614.518L1478.18 634.49C1478.06 634.31 1477.89 634.164 1477.7 634.062C1477.5 633.96 1477.29 633.905 1477.07 633.903C1476.85 633.91 1476.64 633.966 1476.46 634.068C1476.27 634.17 1476.11 634.314 1475.99 634.49L1441.79 614.423V574.29C1442.13 574.249 1442.44 574.086 1442.66 573.832C1442.89 573.578 1443.02 573.25 1443.02 572.91C1443.02 572.721 1442.98 572.534 1442.91 572.361L1477.05 552.314ZM1477.22 510.592L1488.98 503.689L1512.51 489.883L1546.69 509.949C1546.66 510.131 1546.66 510.316 1546.69 510.498C1546.69 510.836 1546.81 511.164 1547.04 511.419C1547.26 511.673 1547.57 511.837 1547.9 511.878V551.992L1513.65 572.059C1513.52 571.883 1513.35 571.74 1513.16 571.641C1512.96 571.543 1512.75 571.491 1512.53 571.491C1512.32 571.494 1512.11 571.547 1511.93 571.646C1511.74 571.744 1511.58 571.886 1511.45 572.059L1500.79 565.799L1477.26 551.992L1477.22 510.592ZM1441.41 448.18V488.294C1441.07 488.336 1440.76 488.499 1440.54 488.753C1440.31 489.007 1440.18 489.335 1440.18 489.675C1440.18 489.87 1440.22 490.063 1440.29 490.242L1406.11 510.29L1371.97 490.242C1372.05 490.047 1372.08 489.836 1372.06 489.627C1372.05 489.418 1371.98 489.215 1371.88 489.033C1371.77 488.851 1371.63 488.696 1371.45 488.578C1371.28 488.46 1371.08 488.382 1370.87 488.351V448.18L1405.07 428.114C1405.2 428.288 1405.36 428.43 1405.54 428.529C1405.73 428.628 1405.94 428.68 1406.15 428.681C1406.37 428.682 1406.58 428.63 1406.77 428.531C1406.96 428.433 1407.13 428.289 1407.25 428.114L1441.41 448.18ZM1477.05 427.471L1488.81 434.374L1511.21 447.518C1511.18 447.7 1511.18 447.885 1511.21 448.067C1511.21 448.408 1511.33 448.738 1511.56 448.993C1511.79 449.248 1512.1 449.41 1512.44 449.448V489.58L1500.67 496.484L1477.14 510.29L1442.91 490.242C1442.98 490.045 1443.01 489.833 1442.99 489.623C1442.98 489.412 1442.91 489.208 1442.8 489.027C1442.7 488.845 1442.55 488.689 1442.37 488.572C1442.2 488.455 1442 488.38 1441.79 488.351V448.18L1477.05 427.471ZM1477.22 385.75L1488.98 378.865L1512.51 365.059L1546.69 385.107C1546.67 385.288 1546.67 385.473 1546.69 385.655C1546.69 385.993 1546.81 386.321 1547.04 386.576C1547.26 386.83 1547.57 386.994 1547.9 387.036V427.168L1513.65 447.235C1513.52 447.057 1513.35 446.911 1513.16 446.809C1512.97 446.707 1512.75 446.652 1512.53 446.648C1512.32 446.655 1512.11 446.711 1511.92 446.813C1511.74 446.915 1511.58 447.06 1511.45 447.235L1500.79 440.956L1477.26 427.168L1477.22 385.75ZM1442.91 365.399C1442.98 365.226 1443.02 365.04 1443.02 364.851C1443.02 364.507 1442.9 364.175 1442.67 363.917C1442.44 363.659 1442.13 363.493 1441.79 363.451V323.338L1477.09 302.534L1511.25 322.581C1511.22 322.763 1511.22 322.948 1511.25 323.13C1511.24 323.473 1511.37 323.805 1511.59 324.064C1511.82 324.322 1512.14 324.487 1512.48 324.529V364.643L1500.71 371.546L1477.18 385.352L1442.91 365.399ZM1406.13 303.839C1406.35 303.839 1406.56 303.787 1406.75 303.688C1406.94 303.59 1407.11 303.447 1407.23 303.271L1417.94 309.531L1441.47 323.338V363.47C1441.13 363.512 1440.82 363.676 1440.6 363.93C1440.38 364.185 1440.25 364.512 1440.26 364.851C1440.25 365.034 1440.29 365.215 1440.37 365.38L1407.27 384.804C1407.14 384.628 1406.98 384.485 1406.79 384.387C1406.6 384.288 1406.39 384.236 1406.17 384.237C1405.96 384.238 1405.75 384.29 1405.56 384.389C1405.38 384.488 1405.21 384.63 1405.09 384.804L1370.86 364.737V323.338L1405.06 303.271C1405.18 303.445 1405.34 303.587 1405.53 303.686C1405.71 303.785 1405.92 303.837 1406.13 303.839ZM1406.32 260.926L1418.09 254.022L1441.6 240.216L1475.78 260.264C1475.7 260.437 1475.67 260.623 1475.67 260.812C1475.67 261.152 1475.79 261.48 1476.02 261.734C1476.25 261.988 1476.56 262.151 1476.9 262.193V302.326L1441.6 323.035L1429.83 316.132L1407.42 302.987C1407.5 302.792 1407.53 302.581 1407.51 302.372C1407.49 302.163 1407.43 301.96 1407.33 301.778C1407.22 301.596 1407.08 301.441 1406.9 301.323C1406.73 301.205 1406.53 301.127 1406.32 301.096V260.926ZM1370.5 198.514V238.646C1370.16 238.688 1369.85 238.852 1369.63 239.106C1369.41 239.361 1369.28 239.689 1369.29 240.027C1369.29 240.216 1369.32 240.402 1369.4 240.576L1335.22 260.604L1299.92 239.914V199.781C1300.26 199.739 1300.57 199.576 1300.8 199.322C1301.02 199.068 1301.15 198.74 1301.15 198.4C1301.16 198.211 1301.12 198.024 1301.04 197.852L1335.22 177.785L1370.5 198.514ZM1406.13 179.033C1406.35 179.03 1406.56 178.975 1406.75 178.873C1406.94 178.771 1407.11 178.625 1407.23 178.447L1417.94 184.688L1441.47 198.495V239.914L1429.7 246.817L1406.17 260.604L1371.97 240.557C1372.04 240.381 1372.08 240.196 1372.09 240.008C1372.08 239.668 1371.96 239.34 1371.73 239.086C1371.5 238.832 1371.19 238.669 1370.86 238.627V198.495L1405.06 178.428C1405.18 178.605 1405.34 178.75 1405.52 178.852C1405.71 178.954 1405.92 179.01 1406.13 179.015V179.033ZM1475.78 135.44C1475.7 135.613 1475.67 135.799 1475.67 135.988C1475.67 136.33 1475.79 136.661 1476.02 136.918C1476.25 137.175 1476.56 137.342 1476.9 137.388V177.502L1441.6 198.192L1429.83 191.289L1407.42 178.05C1407.5 177.854 1407.53 177.644 1407.51 177.435C1407.49 177.225 1407.43 177.022 1407.33 176.841C1407.22 176.659 1407.08 176.503 1406.9 176.385C1406.73 176.267 1406.53 176.19 1406.32 176.159V136.083L1441.6 115.373L1475.78 135.44ZM1512.51 115.373L1524.26 122.276L1546.68 135.515C1546.65 135.697 1546.65 135.882 1546.68 136.064C1546.68 136.403 1546.8 136.731 1547.02 136.988C1547.24 137.245 1547.55 137.414 1547.89 137.463V177.577L1513.63 197.549C1513.51 197.37 1513.35 197.223 1513.15 197.121C1512.96 197.02 1512.75 196.966 1512.53 196.966C1512.32 196.966 1512.1 197.02 1511.91 197.121C1511.72 197.223 1511.56 197.37 1511.44 197.549L1477.24 177.483V137.369C1477.58 137.323 1477.89 137.156 1478.11 136.899C1478.34 136.642 1478.46 136.312 1478.47 135.969C1478.47 135.781 1478.43 135.594 1478.35 135.421L1512.51 115.373ZM1513.8 73.0088L1524.45 66.7676L1547.96 52.9613L1583.26 73.6707V113.785C1582.92 113.826 1582.61 113.99 1582.39 114.245C1582.17 114.499 1582.04 114.827 1582.05 115.165C1582.01 115.346 1582.01 115.533 1582.05 115.714L1548.96 135.137C1548.84 134.958 1548.68 134.81 1548.49 134.709C1548.3 134.607 1548.09 134.553 1547.88 134.553C1547.66 134.553 1547.45 134.607 1547.26 134.709C1547.07 134.81 1546.91 134.958 1546.79 135.137L1536.12 128.877L1512.59 115.071V74.9568C1512.93 74.9074 1513.24 74.7395 1513.46 74.4831C1513.69 74.2267 1513.81 73.8985 1513.82 73.5573C1513.85 73.3755 1513.85 73.1905 1513.82 73.0088H1513.8ZM1476.9 11.2398V52.6398L1442.7 72.7251C1442.58 72.5457 1442.41 72.3987 1442.22 72.2971C1442.03 72.1955 1441.82 72.1424 1441.6 72.1424C1441.38 72.1424 1441.17 72.1955 1440.98 72.2971C1440.79 72.3987 1440.62 72.5457 1440.5 72.7251L1406.32 52.6398V12.5259C1406.66 12.4842 1406.97 12.3205 1407.19 12.0659C1407.41 11.8114 1407.54 11.4838 1407.53 11.1453C1407.54 10.9563 1407.5 10.769 1407.42 10.5968L1441.6 -9.45068L1476.9 11.2398ZM1512.51 -8.24026C1512.73 -8.24229 1512.94 -8.29668 1513.13 -8.39876C1513.33 -8.50085 1513.49 -8.64761 1513.61 -8.82657L1524.26 -2.56645L1547.79 11.2398V52.6398L1536.03 59.5618L1513.61 72.8007C1513.49 72.6213 1513.33 72.4744 1513.14 72.3728C1512.94 72.2712 1512.73 72.218 1512.51 72.218C1512.3 72.218 1512.08 72.2712 1511.89 72.3728C1511.7 72.4744 1511.54 72.6213 1511.42 72.8007L1477.24 52.6398V11.2398L1511.44 -8.82657C1511.56 -8.65021 1511.72 -8.50505 1511.9 -8.40309C1512.09 -8.30113 1512.3 -8.2453 1512.51 -8.24026ZM1547.96 -70.6523C1548.18 -70.6521 1548.39 -70.7036 1548.58 -70.8024C1548.77 -70.9011 1548.93 -71.0442 1549.06 -71.2196L1559.73 -64.9595L1583.26 -51.1532V-11.0394C1582.92 -10.9934 1582.61 -10.8258 1582.39 -10.5682C1582.17 -10.3105 1582.04 -9.98045 1582.05 -9.63982C1582.01 -9.45895 1582.01 -9.27222 1582.05 -9.09134L1547.87 10.9561L1536.12 4.05299L1513.71 -9.18591C1513.77 -9.36159 1513.81 -9.54672 1513.82 -9.73439C1513.82 -10.0768 1513.69 -10.407 1513.47 -10.6642C1513.24 -10.9215 1512.93 -11.0883 1512.59 -11.1339V-51.1721L1546.79 -71.2385C1546.92 -71.0494 1547.1 -70.8978 1547.31 -70.7984C1547.52 -70.699 1547.75 -70.6552 1547.98 -70.6712L1547.96 -70.6523ZM1548.15 -113.584L1559.92 -120.487L1583.43 -134.275L1617.61 -114.227C1617.53 -114.054 1617.49 -113.867 1617.49 -113.679C1617.5 -113.338 1617.62 -113.011 1617.85 -112.757C1618.08 -112.502 1618.39 -112.339 1618.72 -112.298V-72.1842L1583.43 -51.3802L1571.66 -58.2833L1549.27 -71.5222C1549.3 -71.7103 1549.3 -71.9016 1549.27 -72.0896C1549.27 -72.4281 1549.15 -72.7558 1548.92 -73.0103C1548.7 -73.2648 1548.39 -73.4285 1548.06 -73.4703L1548.15 -113.584ZM1547.96 -195.495C1548.18 -195.495 1548.39 -195.547 1548.58 -195.645C1548.77 -195.744 1548.93 -195.887 1549.06 -196.063L1583.28 -176.015V-134.615L1571.51 -127.712L1547.98 -113.981L1513.82 -134.029C1513.89 -134.204 1513.92 -134.39 1513.93 -134.577C1513.93 -134.917 1513.8 -135.245 1513.58 -135.499C1513.35 -135.754 1513.04 -135.917 1512.7 -135.958V-176.015L1546.9 -196.081C1547.02 -195.909 1547.19 -195.767 1547.37 -195.668C1547.56 -195.57 1547.77 -195.517 1547.98 -195.514L1547.96 -195.495Z" fill="#FDCE25"/>
</g>
</g>
</svg>
