<svg width="1440" height="604" viewBox="0 0 1440 604" fill="none" xmlns="http://www.w3.org/2000/svg">
<mask id="mask0_1303_3" style="mask-type:alpha" maskUnits="userSpaceOnUse" x="0" y="0" width="1440" height="604">
<rect width="1440" height="604" fill="#0C478B"/>
</mask>
<g mask="url(#mask0_1303_3)">
<g opacity="0.2">
<g opacity="0.1">
<path opacity="0.3" d="M13.0469 285.715L-21.0955 305.744L-55.2568 285.715V245.62L-21.0955 225.592L13.0469 245.62V285.715Z" fill="white"/>
<path opacity="0.3" d="M13.0469 159.34L-21.0955 179.388L-55.2568 159.34V119.264L-21.0955 99.2168L13.0469 119.264V159.34Z" fill="white"/>
<path opacity="0.1" d="M48.9492 348.883L14.7879 368.931L-19.3545 348.883V308.807L14.7879 288.76L48.9492 308.807V348.883Z" fill="white"/>
<path opacity="0.3" d="M84.85 538.428L50.6887 558.476L16.5273 538.428V498.352L50.6887 478.305L84.85 498.352V538.428Z" fill="white"/>
<path opacity="0.6" d="M156.635 538.428L122.473 558.476L88.3311 538.428V498.352L122.473 478.305L156.635 498.352V538.428Z" fill="white"/>
<path opacity="0.3" d="M120.733 348.883L86.591 368.931L52.4297 348.883V308.807L86.591 288.76L120.733 308.807V348.883Z" fill="white"/>
<path opacity="0.6" d="M84.85 285.715L50.6887 305.744L16.5273 285.715V245.62L50.6887 225.592L84.85 245.62V285.715Z" fill="white"/>
<path opacity="0.6" d="M84.85 412.071L50.6887 432.099L16.5273 412.071V371.976L50.6887 351.947L84.85 371.976V412.071Z" fill="white"/>
<path opacity="0.3" d="M13.0469 412.071L-21.0955 432.099L-55.2568 412.071V371.976L-21.0955 351.947L13.0469 371.976V412.071Z" fill="white"/>
<path opacity="0.1" d="M120.733 222.528L86.591 242.556L52.4297 222.528V182.433L86.591 162.404L120.733 182.433V222.528Z" fill="white"/>
<path opacity="0.1" d="M48.9492 96.1724L14.7879 116.201L-19.3545 96.1724V56.0774L14.7879 36.0488L48.9492 56.0774V96.1724Z" fill="white"/>
<path opacity="0.6" d="M84.85 159.34L50.6887 179.388L16.5273 159.34V119.264L50.6887 99.2168L84.85 119.264V159.34Z" fill="white"/>
<path opacity="0.1" d="M120.733 475.239L86.591 495.287L52.4297 475.239V435.163L86.591 415.135L120.733 435.163V475.239Z" fill="white"/>
</g>
<path d="M18.5143 31H18.4197L-17.1225 51.804V93.7902L18.2684 114.594V156.013L-17.1981 176.817V218.425L-52.4944 239.229L-87.9609 218.425L-123.522 239.229V281.045L-87.9798 301.849H-87.8852L-52.5133 281.045L-17.217 301.736V343.154L-52.3998 363.958L-87.8663 343.154L-123.427 363.958V405.566L-158.78 426.389L-194.247 405.585L-229.789 426.389V468.205L-194.228 489.009L-158.837 468.205L-123.56 489.009V530.409L-159.026 551.213V593.029L-123.484 613.833L-87.9231 593.029V551.421L-52.4755 530.617V488.915L-87.8474 468.111V426.692L-52.57 405.888L-17.1035 426.692L18.4386 405.888V364.28L53.716 343.571L89.0122 364.28V405.68L53.5457 426.484V468.3L88.9177 489.104V530.712H89.0122L124.554 551.516H124.649L160.191 530.712V488.915H160.097L124.725 468.111V426.692L160.021 405.888L195.487 426.692L231.048 405.888V364.072H230.954L195.412 343.268H195.317L159.945 364.072L124.649 343.381V301.963L160.38 281.159L195.847 301.963L231.408 281.159V239.551L266.685 218.747L302.152 239.551L337.694 218.747V176.817H337.599L302.246 155.824H302.152L266.78 176.628L231.484 156.013V114.594L266.931 93.7902V51.9742L231.37 31.1702L195.809 51.9742V93.5822L160.361 114.386V156.202L195.733 177.006V218.425L160.456 239.229L124.989 218.425H124.895L89.3527 239.229V280.837L54.0564 301.528L18.7034 280.856V239.437L54.1699 218.633V177.025L89.6364 156.221V114.386L54.2645 93.5822V51.9742L18.5143 31ZM231.275 114.216L219.51 107.313L195.998 93.5065V52.1822L231.275 31.3783L266.572 52.1822V93.5822L231.275 114.216ZM231.105 155.937L219.34 162.822L195.847 176.628L160.551 156.013V114.594L195.847 93.9037L207.669 100.807L231.181 114.594L231.105 155.937ZM266.912 218.349V177.025L302.208 156.221L337.486 177.025V218.425L302.208 239.229L266.912 218.349ZM231.275 239.153L219.51 232.25L195.998 218.444V177.025L207.764 170.122L231.275 156.316L266.572 177.12V218.425L231.275 239.153ZM160.532 280.875V239.456L195.828 218.652L207.593 225.555L231.105 239.361V280.78L195.828 301.471L160.532 280.875ZM124.895 301.565L113.092 294.643L89.5797 280.856V239.437L124.857 218.633L160.153 239.437V280.856L124.895 301.565ZM160.532 405.699V364.28L195.828 343.571L231.105 364.28V405.68L195.828 426.389L160.532 405.699ZM89.6364 489.123L101.383 482.22L124.914 468.413L160.21 489.217V530.617L124.914 551.327L89.6364 530.523V489.123ZM89.4473 405.907L101.213 412.81L124.744 426.616V468.035L112.978 474.919L89.4473 488.726L54.1699 468.035V426.616L89.4473 405.907ZM89.6364 364.204L101.383 357.301L124.914 343.495L160.21 364.204V405.604L124.914 426.314L113.092 419.486L89.5797 405.68L89.6364 364.204ZM54.1699 343.192V301.773L89.4473 281.083L101.213 287.986L124.744 301.773V343.192L112.978 350.095L89.4473 363.883L54.1699 343.192ZM-123.352 530.825L-111.586 537.729L-88.0555 551.535V592.935L-123.352 613.644L-158.61 592.935V551.535L-123.352 530.825ZM-123.163 489.217L-111.397 482.314L-87.8852 468.508L-52.589 489.312V530.712L-87.8663 551.213L-99.6317 544.329L-123.144 530.523L-123.163 489.217ZM-158.988 426.805V468.224L-194.266 488.915L-229.562 468.224V426.805L-194.266 406.001L-158.988 426.805ZM-123.352 406.001L-111.586 412.905L-88.0555 426.711V468.13L-99.8209 475.014L-123.352 488.801L-158.61 468.111V426.692L-123.352 406.001ZM-52.589 364.299V405.699L-87.8663 426.389L-99.6317 419.486L-123.144 405.68V364.28L-87.8663 343.571L-52.589 364.299ZM-16.9522 343.589L-5.1868 350.493L18.3441 364.299V405.699L-16.9333 426.389L-52.2296 405.68V364.28L-16.9522 343.589ZM-16.782 301.868L-5.01656 294.984L18.5143 281.159L53.7916 301.849V343.268L18.5143 363.958L6.74886 357.074L-16.782 343.268V301.868ZM-52.589 239.456V280.875L-87.8663 301.546L-123.144 280.856V239.437L-87.8663 218.633L-52.589 239.456ZM-16.9522 218.652L-5.1868 225.555L18.3441 239.361V280.78L6.57863 287.665L-16.9522 301.471L-52.2296 280.856V239.437L-16.9522 218.652ZM18.5143 156.24L30.2608 163.143L53.7916 176.949V218.425L18.5143 239.135L6.74886 232.231L-16.782 218.425V177.025L18.5143 156.24ZM18.6845 114.519L30.45 107.634L53.9619 93.8281L89.2581 114.519V155.937L53.9808 176.628L42.2343 169.744L18.7034 156.013L18.6845 114.519ZM18.5143 31.4728L53.7916 52.2768V93.5822L42.0262 100.485L18.5143 114.216L-16.782 93.412V52.1822L18.5143 31.4728Z" fill="white"/>
<path d="M53.9804 50.6699C53.6125 50.6749 53.2613 50.8245 53.0029 51.0865C52.7444 51.3484 52.5995 51.7015 52.5996 52.0695C52.5692 52.2574 52.5692 52.4489 52.5996 52.6368L18.3626 72.7789V113.12C18.0248 113.161 17.7137 113.324 17.4874 113.578C17.2611 113.832 17.1352 114.16 17.1331 114.5C17.1331 114.873 17.2799 115.231 17.5419 115.497C17.8039 115.762 18.1599 115.914 18.5328 115.919C18.7494 115.917 18.9624 115.862 19.1534 115.76C19.3444 115.658 19.5079 115.511 19.6299 115.333L53.8102 135.399V175.532C53.4742 175.573 53.1653 175.737 52.9421 175.992C52.7189 176.246 52.597 176.574 52.5996 176.912C52.571 177.1 52.571 177.292 52.5996 177.48L18.3626 197.622V237.944C18.0216 237.985 17.7079 238.151 17.4811 238.409C17.2544 238.667 17.1305 239 17.1331 239.343C17.1325 239.532 17.1712 239.719 17.2466 239.892L-16.9337 259.939L-52.4002 239.135L-86.7696 259.296C-86.8937 259.121 -87.0581 258.978 -87.249 258.879C-87.4399 258.78 -87.6517 258.729 -87.8667 258.729C-88.2379 258.706 -88.6029 258.832 -88.8814 259.079C-89.1598 259.325 -89.329 259.672 -89.3515 260.043C-89.3741 260.414 -89.2483 260.779 -89.0017 261.058C-88.7552 261.336 -88.4081 261.505 -88.0369 261.528V301.85L-53.781 321.954C-53.8564 322.127 -53.8951 322.314 -53.8945 322.502C-53.8945 322.874 -53.747 323.23 -53.4845 323.492C-53.222 323.755 -52.866 323.902 -52.4948 323.902C-52.1235 323.902 -51.7675 323.755 -51.505 323.492C-51.2425 323.23 -51.095 322.874 -51.095 322.502C-51.0944 322.314 -51.133 322.127 -51.2085 321.954L-17.0282 301.906L17.1331 321.954C17.1044 322.136 17.1044 322.321 17.1331 322.502C17.1346 322.845 17.2599 323.175 17.4859 323.432C17.7119 323.69 18.0233 323.856 18.3626 323.902V364.016L-15.8366 384.139C-15.9619 383.963 -16.1261 383.819 -16.3164 383.717C-16.5067 383.616 -16.718 383.559 -16.9337 383.553C-17.1499 383.556 -17.3623 383.611 -17.5531 383.713C-17.7438 383.815 -17.9076 383.961 -18.0308 384.139L-52.4002 363.959L-87.9612 384.763V425.085C-88.299 425.126 -88.6101 425.289 -88.8364 425.543C-89.0627 425.798 -89.1887 426.125 -89.1907 426.466C-89.1842 426.66 -89.1458 426.851 -89.0773 427.033L-123.352 447.194L-158.8 426.39L-193.15 446.551C-193.276 446.378 -193.441 446.236 -193.632 446.138C-193.822 446.039 -194.033 445.987 -194.247 445.984C-194.433 445.984 -194.616 446.02 -194.787 446.092C-194.958 446.163 -195.114 446.268 -195.244 446.4C-195.374 446.532 -195.477 446.689 -195.546 446.861C-195.615 447.033 -195.65 447.217 -195.647 447.402C-195.645 447.742 -195.519 448.07 -195.293 448.324C-195.066 448.578 -194.755 448.741 -194.417 448.783V489.124L-158.856 509.928L-124.563 489.804C-124.441 489.98 -124.278 490.123 -124.089 490.222C-123.899 490.322 -123.689 490.373 -123.475 490.373C-123.261 490.373 -123.051 490.322 -122.861 490.222C-122.672 490.123 -122.509 489.98 -122.387 489.804L-88.1882 509.871V549.985C-88.526 550.026 -88.8371 550.189 -89.0634 550.443C-89.2897 550.697 -89.4157 551.025 -89.4177 551.365C-89.4111 551.559 -89.3728 551.751 -89.3042 551.933L-123.503 572.131V613.948L-89.2475 634.052C-89.3141 634.227 -89.3524 634.412 -89.361 634.6C-89.361 634.971 -89.2135 635.327 -88.951 635.59C-88.6885 635.852 -88.3325 636 -87.9612 636C-87.59 636 -87.234 635.852 -86.9715 635.59C-86.709 635.327 -86.5615 634.971 -86.5615 634.6C-86.5609 634.411 -86.5995 634.225 -86.675 634.052L-53.5918 614.647C-53.4616 614.821 -53.2933 614.962 -53.0998 615.061C-52.9063 615.159 -52.6928 615.212 -52.4758 615.215C-52.2592 615.213 -52.0463 615.158 -51.8553 615.056C-51.6643 614.954 -51.5007 614.807 -51.3787 614.628L-17.1796 634.695V676.114L-52.3812 696.88L-86.5615 676.813C-86.4838 676.641 -86.4451 676.454 -86.448 676.265C-86.448 675.894 -86.5955 675.538 -86.858 675.275C-87.1205 675.013 -87.4765 674.865 -87.8477 674.865C-88.219 674.865 -88.575 675.013 -88.8375 675.275C-89.1 675.538 -89.2475 675.894 -89.2475 676.265C-89.2504 676.454 -89.2117 676.641 -89.134 676.813L-123.484 696.974V737.296C-123.82 737.338 -124.129 737.502 -124.353 737.756C-124.576 738.011 -124.698 738.338 -124.695 738.677C-124.7 739.05 -124.558 739.41 -124.3 739.679C-124.041 739.948 -123.687 740.104 -123.314 740.114C-123.098 740.112 -122.885 740.058 -122.694 739.956C-122.503 739.854 -122.339 739.707 -122.217 739.528L-87.8477 759.689L-53.5729 739.566C-53.4516 739.745 -53.2882 739.892 -53.097 739.994C-52.9057 740.095 -52.6924 740.148 -52.4758 740.148C-52.2592 740.148 -52.046 740.095 -51.8547 739.994C-51.6634 739.892 -51.5 739.745 -51.3787 739.566L-17.1796 759.632V801.032L-51.2841 821.061C-51.4082 820.885 -51.5725 820.742 -51.7634 820.643C-51.9544 820.544 -52.1662 820.492 -52.3812 820.492C-52.5963 820.492 -52.8081 820.544 -52.999 820.643C-53.1899 820.742 -53.3543 820.885 -53.4783 821.061L-87.8477 800.9L-122.217 821.061C-122.34 820.884 -122.504 820.74 -122.695 820.641C-122.887 820.542 -123.099 820.492 -123.314 820.493C-123.685 820.471 -124.05 820.596 -124.329 820.843C-124.607 821.09 -124.777 821.437 -124.799 821.808C-124.822 822.179 -124.696 822.544 -124.449 822.822C-124.203 823.101 -123.856 823.27 -123.484 823.292V863.425L-157.684 883.492C-157.805 883.311 -157.968 883.164 -158.159 883.062C-158.35 882.959 -158.564 882.906 -158.781 882.905C-158.994 882.912 -159.202 882.968 -159.39 883.07C-159.577 883.172 -159.738 883.316 -159.859 883.492L-194.228 863.312L-229.77 884.116V924.438C-230.11 924.483 -230.421 924.65 -230.647 924.907C-230.873 925.165 -230.998 925.495 -231 925.837C-230.995 926.212 -230.844 926.57 -230.579 926.835C-230.314 927.1 -229.956 927.251 -229.581 927.256C-229.369 927.245 -229.162 927.187 -228.976 927.085C-228.789 926.984 -228.628 926.842 -228.503 926.669L-194.134 946.849H-194.039L-158.667 926.045L-124.506 946.093C-124.566 946.276 -124.598 946.467 -124.6 946.66C-124.603 946.999 -124.481 947.326 -124.258 947.581C-124.035 947.835 -123.726 947.999 -123.39 948.041V988.155L-158.856 1008.96V1049.28C-159.228 1049.31 -159.574 1049.48 -159.818 1049.76C-160.063 1050.04 -160.187 1050.4 -160.162 1050.77C-160.136 1051.15 -159.965 1051.49 -159.685 1051.74C-159.404 1051.98 -159.038 1052.1 -158.667 1052.08C-158.455 1052.08 -158.247 1052.03 -158.059 1051.93C-157.871 1051.83 -157.71 1051.69 -157.589 1051.51L-123.352 1071.79H-123.257L-87.6964 1050.98V1010.55C-87.3605 1010.51 -87.0515 1010.34 -86.8283 1010.09C-86.6051 1009.83 -86.4832 1009.51 -86.4858 1009.17C-86.4829 1008.98 -86.5217 1008.79 -86.5993 1008.62L-52.2488 988.457V946.641L-87.6208 925.837V885.723C-87.2848 885.673 -86.9779 885.505 -86.7558 885.248C-86.5337 884.991 -86.411 884.663 -86.4102 884.324C-86.4096 884.135 -86.4482 883.948 -86.5237 883.775L-52.3434 863.728L-18.1631 883.775C-18.238 883.987 -18.2616 884.213 -18.2321 884.435C-18.2026 884.657 -18.1208 884.87 -17.9934 885.054C-17.8661 885.239 -17.6967 885.39 -17.4994 885.497C-17.302 885.603 -17.0822 885.661 -16.858 885.667C-16.6742 885.664 -16.4926 885.625 -16.3238 885.553C-16.1549 885.48 -16.002 885.375 -15.8737 885.243C-15.7455 885.112 -15.6445 884.956 -15.5764 884.785C-15.5084 884.614 -15.4747 884.432 -15.4772 884.248C-15.4766 884.059 -15.5152 883.873 -15.5907 883.7L18.7598 863.539V823.292C19.0976 823.251 19.4087 823.088 19.635 822.834C19.8613 822.58 19.9873 822.252 19.9893 821.912C19.9828 821.724 19.9444 821.538 19.8759 821.363L54.0372 801.316L89.3334 822.025V863.425L55.1343 883.492C55.0134 883.311 54.8502 883.164 54.6589 883.062C54.4676 882.959 54.2541 882.906 54.0372 882.905C53.6854 882.919 53.3511 883.062 53.0994 883.309C52.8477 883.555 52.6966 883.886 52.6754 884.237C52.6541 884.589 52.7643 884.935 52.9846 885.21C53.2048 885.485 53.5193 885.668 53.8669 885.723V925.837L18.4194 946.641V986.982C18.1883 987.006 17.9671 987.088 17.7755 987.219C17.5839 987.351 17.428 987.528 17.3219 987.734C17.2158 987.941 17.1628 988.171 17.1676 988.403C17.1725 988.635 17.2352 988.863 17.3499 989.065C17.4646 989.267 17.6278 989.437 17.8247 989.56C18.0217 989.683 18.2462 989.756 18.478 989.771C18.7099 989.785 18.9418 989.742 19.1528 989.645C19.3638 989.548 19.5473 989.4 19.6867 989.214L53.8669 1009.28V1050.89L88.1229 1070.99C88.0498 1071.17 88.0175 1071.35 88.0283 1071.54C88.0258 1071.72 88.0595 1071.91 88.1276 1072.08C88.1956 1072.25 88.2966 1072.4 88.4249 1072.54C88.5531 1072.67 88.706 1072.77 88.8749 1072.85C89.0438 1072.92 89.2253 1072.96 89.4091 1072.96C89.7821 1072.95 90.1381 1072.8 90.4001 1072.54C90.662 1072.27 90.8089 1071.91 90.8089 1071.54C90.8137 1071.35 90.7749 1071.16 90.6954 1070.99L125.046 1050.83V1010.55C125.417 1010.52 125.764 1010.36 126.011 1010.08C126.257 1009.8 126.383 1009.43 126.36 1009.06C126.338 1008.69 126.169 1008.34 125.89 1008.1C125.612 1007.85 125.247 1007.73 124.876 1007.75C124.659 1007.75 124.446 1007.8 124.255 1007.91C124.064 1008.01 123.901 1008.16 123.779 1008.33L89.6361 988.268V948.135C89.9739 948.094 90.285 947.931 90.5113 947.677C90.7376 947.423 90.8635 947.095 90.8656 946.755C90.8661 946.56 90.8275 946.367 90.7521 946.187L125.103 926.045V885.723C125.442 885.678 125.753 885.511 125.979 885.254C126.205 884.996 126.331 884.666 126.332 884.324C126.333 884.135 126.294 883.948 126.219 883.775L160.38 863.728L195.846 884.532L230.14 864.409C230.261 864.583 230.423 864.725 230.61 864.824C230.798 864.922 231.006 864.975 231.218 864.976C231.59 864.999 231.955 864.873 232.233 864.626C232.512 864.38 232.681 864.033 232.703 863.662C232.726 863.29 232.6 862.925 232.353 862.647C232.107 862.369 231.76 862.2 231.389 862.177V821.817L197.133 801.713C197.193 801.536 197.225 801.351 197.227 801.164C197.25 800.968 197.231 800.77 197.172 800.581C197.113 800.393 197.014 800.219 196.883 800.072C196.751 799.924 196.59 799.806 196.41 799.725C196.23 799.644 196.035 799.603 195.837 799.603C195.639 799.603 195.444 799.644 195.264 799.725C195.084 799.806 194.923 799.924 194.791 800.072C194.66 800.219 194.561 800.393 194.502 800.581C194.443 800.77 194.424 800.968 194.447 801.164C194.418 801.346 194.418 801.531 194.447 801.713L160.38 821.704L126.2 801.656C126.275 801.483 126.314 801.297 126.313 801.108C126.311 800.768 126.185 800.44 125.959 800.186C125.733 799.932 125.421 799.768 125.084 799.727V759.594L159.283 739.528C159.406 739.706 159.57 739.852 159.761 739.954C159.951 740.056 160.164 740.111 160.38 740.114C160.596 740.108 160.807 740.051 160.997 739.95C161.188 739.848 161.352 739.704 161.477 739.528L195.846 759.689L231.408 738.885V698.468C231.615 698.437 231.813 698.36 231.987 698.242C232.161 698.124 232.305 697.968 232.411 697.787C232.516 697.605 232.579 697.402 232.596 697.193C232.612 696.983 232.581 696.773 232.505 696.577L266.685 676.53L302.151 697.334H302.246L336.521 677.211C336.645 677.386 336.809 677.529 337 677.628C337.191 677.727 337.403 677.778 337.618 677.778C337.989 677.801 338.354 677.675 338.633 677.428C338.911 677.182 339.08 676.835 339.103 676.464C339.125 676.092 339 675.727 338.753 675.449C338.506 675.171 338.159 675.001 337.788 674.979V634.543L302.246 613.739H302.151L267.877 633.844C267.753 633.668 267.588 633.525 267.397 633.426C267.206 633.327 266.994 633.275 266.779 633.275C266.564 633.275 266.353 633.327 266.162 633.426C265.971 633.525 265.806 633.668 265.682 633.844L231.502 613.739V573.626C231.838 573.584 232.147 573.42 232.37 573.166C232.593 572.911 232.715 572.583 232.713 572.245C232.712 572.052 232.68 571.86 232.618 571.678L266.95 551.536V509.719L232.694 489.615C232.754 489.439 232.786 489.254 232.788 489.067C232.811 488.871 232.792 488.672 232.733 488.483C232.674 488.295 232.575 488.121 232.444 487.974C232.312 487.826 232.151 487.708 231.971 487.627C231.791 487.547 231.596 487.505 231.398 487.505C231.201 487.505 231.005 487.547 230.825 487.627C230.645 487.708 230.484 487.826 230.352 487.974C230.221 488.121 230.123 488.295 230.063 488.483C230.004 488.672 229.985 488.871 230.008 489.067C229.979 489.249 229.979 489.434 230.008 489.615L196.944 509.02C196.813 508.846 196.645 508.705 196.452 508.606C196.258 508.508 196.045 508.455 195.828 508.452C195.611 508.453 195.397 508.506 195.206 508.609C195.015 508.711 194.851 508.859 194.73 509.039L160.531 488.972V447.553L195.828 426.749L229.989 446.816C229.92 446.991 229.882 447.176 229.875 447.364C229.875 447.735 230.023 448.091 230.285 448.354C230.548 448.616 230.904 448.764 231.275 448.764C231.646 448.764 232.002 448.616 232.265 448.354C232.527 448.091 232.675 447.735 232.675 447.364C232.705 447.183 232.705 446.997 232.675 446.816L267.006 426.655V386.371C267.344 386.329 267.655 386.166 267.882 385.912C268.108 385.658 268.234 385.33 268.236 384.99C268.238 384.804 268.204 384.619 268.135 384.446C268.066 384.273 267.964 384.115 267.834 383.982C267.704 383.848 267.549 383.741 267.378 383.668C267.206 383.594 267.022 383.555 266.836 383.553C266.62 383.559 266.409 383.616 266.219 383.717C266.029 383.819 265.864 383.963 265.739 384.139L231.313 363.959H231.218L196.925 384.082C196.804 383.906 196.644 383.761 196.456 383.659C196.269 383.557 196.06 383.501 195.846 383.496C195.63 383.5 195.418 383.555 195.227 383.657C195.036 383.759 194.872 383.904 194.749 384.082L160.55 364.016V322.673L194.749 302.606C194.873 302.782 195.038 302.925 195.229 303.024C195.42 303.122 195.632 303.174 195.846 303.174C196.058 303.172 196.267 303.12 196.455 303.021C196.642 302.923 196.803 302.78 196.925 302.606L231.294 322.767L265.569 302.663C265.695 302.836 265.86 302.978 266.05 303.076C266.241 303.175 266.452 303.227 266.666 303.23C267.037 303.253 267.402 303.127 267.681 302.881C267.959 302.634 268.128 302.287 268.151 301.916C268.173 301.545 268.048 301.18 267.801 300.901C267.554 300.623 267.207 300.454 266.836 300.431V260.242L301.035 240.175C301.157 240.354 301.321 240.501 301.512 240.603C301.703 240.705 301.916 240.76 302.132 240.762C302.348 240.755 302.559 240.699 302.75 240.597C302.94 240.495 303.104 240.351 303.23 240.175L337.599 260.355L373.16 239.551V199.116C373.509 199.059 373.823 198.875 374.043 198.598C374.263 198.322 374.371 197.973 374.348 197.621C374.324 197.269 374.17 196.938 373.915 196.693C373.661 196.448 373.324 196.307 372.971 196.298C372.758 196.303 372.548 196.359 372.361 196.461C372.173 196.563 372.013 196.708 371.893 196.884L337.693 176.629H337.599L302.227 197.433L268.047 177.385C268.121 177.205 268.159 177.012 268.16 176.818C268.158 176.478 268.032 176.15 267.806 175.896C267.58 175.641 267.268 175.479 266.931 175.437V135.418L302.397 114.614V74.273C302.581 74.2606 302.761 74.2121 302.926 74.1303C303.091 74.0485 303.238 73.935 303.359 73.7962C303.48 73.6575 303.573 73.4962 303.632 73.3217C303.691 73.1471 303.715 72.9627 303.702 72.7789C303.69 72.5951 303.641 72.4156 303.56 72.2505C303.478 72.0855 303.364 71.9381 303.226 71.817C303.087 71.6958 302.926 71.6031 302.751 71.5443C302.576 71.4854 302.392 71.4615 302.208 71.4739C301.996 71.4768 301.788 71.5297 301.601 71.6283C301.414 71.7269 301.252 71.8684 301.13 72.0413L266.76 51.8047L231.199 72.6087V113.12C230.86 113.165 230.549 113.332 230.323 113.589C230.097 113.847 229.971 114.177 229.97 114.519C229.979 114.701 230.017 114.88 230.083 115.049L195.657 135.21V177.026L231.029 197.83V237.944C230.69 237.989 230.378 238.156 230.152 238.413C229.927 238.671 229.801 239.001 229.8 239.343C229.808 239.531 229.847 239.716 229.913 239.892L195.752 259.939L161.572 239.892C161.649 239.713 161.688 239.519 161.685 239.324C161.685 239.141 161.649 238.959 161.579 238.789C161.508 238.619 161.405 238.465 161.275 238.335C161.145 238.205 160.991 238.102 160.821 238.031C160.651 237.961 160.469 237.925 160.285 237.925C160.102 237.925 159.92 237.961 159.75 238.031C159.58 238.102 159.426 238.205 159.296 238.335C159.166 238.465 159.062 238.619 158.992 238.789C158.922 238.959 158.886 239.141 158.886 239.324C158.885 239.513 158.924 239.7 158.999 239.873L124.743 260.034V300.375C124.405 300.416 124.094 300.579 123.868 300.833C123.642 301.087 123.516 301.415 123.514 301.755C123.513 301.944 123.552 302.131 123.627 302.304L89.4469 322.351L54.1696 301.547V260.242L88.3687 240.175C88.4854 240.355 88.6451 240.503 88.8334 240.605C89.0217 240.708 89.2326 240.762 89.4469 240.762C89.8199 240.757 90.1759 240.605 90.4379 240.34C90.6999 240.074 90.8467 239.716 90.8467 239.343C90.8498 239.003 90.7286 238.673 90.5057 238.415C90.2828 238.157 89.9737 237.99 89.6361 237.944V197.83L125.084 177.026V136.685C125.315 136.66 125.536 136.579 125.728 136.447C125.919 136.316 126.075 136.139 126.181 135.932C126.287 135.726 126.34 135.496 126.335 135.264C126.331 135.032 126.268 134.804 126.153 134.602C126.038 134.4 125.875 134.23 125.678 134.107C125.481 133.984 125.257 133.911 125.025 133.897C124.793 133.882 124.561 133.925 124.35 134.022C124.139 134.119 123.956 134.267 123.816 134.453L89.6361 114.387V72.7789L55.2856 52.6368C55.316 52.4489 55.316 52.2574 55.2856 52.0695C55.2864 51.7141 55.152 51.3717 54.9096 51.1118C54.6672 50.8519 54.3351 50.6939 53.9804 50.6699ZM266.76 135.021L254.957 128.193L232.542 114.954C232.618 114.781 232.657 114.594 232.656 114.406C232.659 114.067 232.537 113.74 232.313 113.485C232.09 113.231 231.781 113.067 231.445 113.025V72.9869L266.723 52.1829L300.903 72.2493C300.825 72.4216 300.786 72.6089 300.789 72.7978C300.792 73.138 300.917 73.4659 301.144 73.72C301.37 73.9741 301.681 74.1371 302.019 74.1784V114.406L266.76 135.021ZM254.825 183.645L231.294 197.452L196.017 176.648V135.418L230.216 115.351C230.34 115.527 230.504 115.67 230.695 115.769C230.886 115.867 231.098 115.919 231.313 115.919C231.525 115.917 231.734 115.865 231.921 115.766C232.109 115.668 232.27 115.525 232.391 115.351L243.059 121.612L266.59 135.418V175.532C266.251 175.577 265.94 175.744 265.714 176.001C265.488 176.259 265.362 176.589 265.361 176.931C265.369 177.113 265.408 177.292 265.474 177.461L254.825 183.645ZM303.513 239.816C303.591 239.637 303.629 239.444 303.627 239.249C303.625 238.908 303.499 238.581 303.272 238.326C303.046 238.072 302.735 237.909 302.397 237.868V197.83L337.693 177.026L371.855 197.073C371.793 197.256 371.761 197.448 371.76 197.641C371.758 197.979 371.88 198.307 372.103 198.561C372.326 198.816 372.635 198.98 372.971 199.021V239.23L337.693 260.034L303.513 239.816ZM266.76 259.864L254.957 253.036L232.542 239.797C232.618 239.624 232.657 239.437 232.656 239.249C232.659 238.908 232.538 238.578 232.315 238.32C232.092 238.063 231.783 237.895 231.445 237.849V197.83L243.211 190.927L265.626 177.688C265.754 177.864 265.922 178.007 266.116 178.105C266.31 178.204 266.524 178.255 266.742 178.255C266.953 178.249 267.16 178.195 267.347 178.097C267.534 177.998 267.695 177.858 267.82 177.688L302.019 197.754V237.868C301.68 237.914 301.368 238.08 301.142 238.338C300.916 238.595 300.791 238.925 300.789 239.268C300.789 239.456 300.827 239.643 300.903 239.816L266.76 259.864ZM197.133 302.228C197.161 302.046 197.161 301.861 197.133 301.68C197.135 301.341 197.013 301.013 196.79 300.759C196.567 300.504 196.258 300.341 195.922 300.299V260.242L230.121 240.175C230.238 240.355 230.398 240.503 230.586 240.605C230.774 240.708 230.985 240.762 231.199 240.762C231.416 240.761 231.63 240.708 231.821 240.605C232.012 240.503 232.176 240.355 232.297 240.175L242.965 246.436L266.496 260.242V300.375C266.158 300.416 265.847 300.579 265.62 300.833C265.394 301.087 265.268 301.415 265.266 301.755C265.266 301.944 265.304 302.131 265.38 302.304L231.199 322.351L197.133 302.228ZM160.38 322.351L148.615 315.448L126.2 302.209C126.275 302.036 126.314 301.849 126.313 301.661C126.311 301.32 126.185 300.993 125.959 300.738C125.733 300.484 125.421 300.321 125.084 300.28V260.242L159.283 240.175C159.405 240.354 159.568 240.501 159.759 240.603C159.95 240.705 160.163 240.76 160.38 240.762C160.596 240.755 160.807 240.699 160.997 240.597C161.188 240.495 161.352 240.351 161.477 240.175L195.657 260.242V300.375C195.321 300.416 195.012 300.58 194.789 300.835C194.566 301.089 194.444 301.417 194.447 301.755C194.446 301.944 194.485 302.131 194.56 302.304L160.38 322.351ZM160.21 364.073L148.444 370.976L124.913 384.782L90.7332 364.716C90.8127 364.544 90.8516 364.356 90.8467 364.167C90.8493 363.829 90.7274 363.501 90.5042 363.246C90.281 362.992 89.9721 362.828 89.6361 362.787V322.673L123.816 302.606C123.94 302.782 124.105 302.925 124.296 303.024C124.487 303.123 124.698 303.175 124.913 303.175C125.128 303.175 125.34 303.123 125.531 303.024C125.722 302.925 125.887 302.782 126.011 302.606L136.679 308.866L160.21 322.673V364.073ZM89.4469 365.586C89.6613 365.583 89.872 365.53 90.0625 365.431C90.2529 365.333 90.4178 365.191 90.544 365.018L124.743 385.085V425.217C124.405 425.259 124.094 425.422 123.868 425.676C123.642 425.93 123.516 426.258 123.514 426.598C123.513 426.787 123.552 426.974 123.627 427.147L89.2767 447.307V487.629C89.0457 487.654 88.8244 487.736 88.6328 487.867C88.4412 487.998 88.2853 488.175 88.1792 488.382C88.0731 488.589 88.0201 488.818 88.025 489.051C88.0299 489.283 88.0925 489.51 88.2072 489.712C88.3219 489.914 88.4851 490.084 88.682 490.208C88.879 490.331 89.1035 490.403 89.3354 490.418C89.5672 490.433 89.7991 490.389 90.0101 490.292C90.2211 490.195 90.4046 490.047 90.544 489.861L124.743 509.928V550.041C124.505 550.06 124.275 550.138 124.075 550.268C123.875 550.399 123.711 550.578 123.599 550.789C123.486 551 123.429 551.236 123.433 551.475C123.436 551.714 123.499 551.948 123.617 552.156C123.735 552.364 123.904 552.539 124.108 552.664C124.311 552.789 124.543 552.861 124.782 552.872C125.021 552.884 125.258 552.835 125.473 552.731C125.688 552.626 125.873 552.468 126.011 552.273L160.21 572.358V612.472C159.874 612.514 159.565 612.678 159.342 612.932C159.118 613.187 158.997 613.514 158.999 613.853C158.999 614.226 159.146 614.584 159.408 614.849C159.67 615.115 160.026 615.266 160.399 615.271C160.615 615.269 160.828 615.215 161.019 615.113C161.21 615.011 161.374 614.864 161.496 614.685L195.676 634.752V676.17L160.38 696.88L126.2 676.813C126.277 676.641 126.316 676.454 126.313 676.265C126.313 676.081 126.277 675.899 126.207 675.729C126.136 675.56 126.033 675.405 125.903 675.275C125.773 675.145 125.619 675.042 125.449 674.972C125.279 674.902 125.097 674.865 124.913 674.865C124.73 674.865 124.548 674.902 124.378 674.972C124.208 675.042 124.054 675.145 123.924 675.275C123.794 675.405 123.691 675.56 123.62 675.729C123.55 675.899 123.514 676.081 123.514 676.265C123.511 676.454 123.55 676.641 123.627 676.813L89.2767 696.974V737.296C88.9391 737.342 88.6299 737.51 88.4071 737.767C88.1842 738.025 88.063 738.355 88.0661 738.696C88.059 738.883 88.0912 739.07 88.1607 739.244L55.0775 758.649C54.9556 758.473 54.793 758.33 54.6036 758.231C54.4142 758.132 54.2036 758.08 53.9899 758.08C53.7761 758.08 53.5656 758.132 53.3762 758.231C53.1868 758.33 53.0241 758.473 52.9023 758.649L18.722 738.582V698.45C19.0598 698.408 19.3709 698.245 19.5972 697.991C19.8235 697.737 19.9494 697.409 19.9515 697.069C19.9429 696.881 19.9046 696.696 19.838 696.52L54.1885 676.378V636.038C54.3723 636.025 54.5519 635.977 54.7169 635.895C54.882 635.813 55.0294 635.7 55.1506 635.561C55.2718 635.422 55.3644 635.261 55.4233 635.086C55.4822 634.912 55.5061 634.727 55.4937 634.543C55.4813 634.36 55.4327 634.18 55.3509 634.015C55.2691 633.85 55.1556 633.703 55.0168 633.582C54.8781 633.46 54.7168 633.368 54.5422 633.309C54.3676 633.25 54.1832 633.226 53.9993 633.238C53.7876 633.241 53.5796 633.294 53.3922 633.393C53.2048 633.491 53.0434 633.633 52.9212 633.806L18.722 613.739V573.626C19.0614 573.58 19.3727 573.413 19.5987 573.156C19.8247 572.899 19.95 572.568 19.9515 572.226C19.9466 571.851 19.7956 571.493 19.5306 571.228C19.2656 570.964 18.9076 570.812 18.5328 570.808C18.3198 570.814 18.1112 570.871 17.924 570.972C17.7367 571.074 17.576 571.219 17.4547 571.394L-16.7634 551.327V511.195C-16.4257 511.153 -16.1145 510.99 -15.8883 510.736C-15.662 510.482 -15.536 510.154 -15.5339 509.814C-15.5339 509.441 -15.6807 509.083 -15.9427 508.818C-16.2047 508.552 -16.5607 508.401 -16.9337 508.396C-17.1506 508.396 -17.3641 508.45 -17.5554 508.552C-17.7467 508.654 -17.9099 508.802 -18.0308 508.982L-52.2299 488.915V447.497L-16.9337 426.693L17.2277 446.759C17.1973 446.941 17.1973 447.126 17.2277 447.307C17.2277 447.679 17.3752 448.035 17.6377 448.297C17.9002 448.56 18.2562 448.707 18.6274 448.707C18.9987 448.707 19.3547 448.56 19.6172 448.297C19.8797 448.035 20.0272 447.679 20.0272 447.307C20.0206 447.12 19.9822 446.934 19.9137 446.759L54.2642 426.598V386.371C54.6001 386.321 54.907 386.152 55.1291 385.895C55.3513 385.639 55.4739 385.311 55.4747 384.971C55.5034 384.789 55.5034 384.604 55.4747 384.423L88.539 365.018C88.6449 365.168 88.7798 365.296 88.9357 365.394C89.0916 365.491 89.2654 365.556 89.4469 365.586ZM196.017 426.485V386.371C196.353 386.329 196.662 386.165 196.885 385.911C197.108 385.656 197.23 385.329 197.227 384.99C197.258 384.802 197.258 384.611 197.227 384.423L231.408 364.375L265.569 384.423C265.491 384.602 265.453 384.795 265.455 384.99C265.457 385.33 265.583 385.658 265.81 385.912C266.036 386.166 266.347 386.329 266.685 386.371V426.485L232.486 446.551C232.362 446.376 232.197 446.232 232.006 446.134C231.815 446.035 231.604 445.984 231.389 445.984C231.177 445.985 230.968 446.037 230.78 446.136C230.593 446.235 230.432 446.377 230.31 446.551L196.017 426.485ZM160.38 447.194L148.615 440.291L126.2 427.052C126.275 426.879 126.314 426.692 126.313 426.504C126.315 426.162 126.191 425.832 125.964 425.577C125.737 425.322 125.423 425.16 125.084 425.123V385.085L136.849 378.182L160.38 364.375L194.56 384.423C194.484 384.618 194.453 384.829 194.469 385.038C194.485 385.247 194.549 385.45 194.654 385.632C194.759 385.814 194.904 385.969 195.078 386.087C195.252 386.205 195.45 386.283 195.657 386.314V426.428L160.38 447.194ZM160.21 488.915L148.444 495.819L124.913 509.606L90.7332 489.559C90.8086 489.386 90.8473 489.199 90.8467 489.01C90.8493 488.672 90.7274 488.344 90.5042 488.089C90.281 487.835 89.9721 487.671 89.6361 487.629V447.497L123.816 427.43C123.938 427.61 124.101 427.757 124.292 427.858C124.484 427.96 124.697 428.013 124.913 428.013C125.13 428.013 125.343 427.96 125.535 427.858C125.726 427.757 125.889 427.61 126.011 427.43L136.679 433.69L160.21 447.497V488.915ZM194.56 509.266C194.484 509.461 194.453 509.672 194.469 509.881C194.485 510.09 194.549 510.293 194.654 510.475C194.759 510.657 194.904 510.812 195.078 510.93C195.252 511.048 195.45 511.126 195.657 511.157V551.29L160.38 572.037L126.2 551.989C126.275 551.816 126.314 551.63 126.313 551.441C126.316 551.097 126.192 550.765 125.965 550.507C125.738 550.249 125.425 550.083 125.084 550.041V509.928L136.849 503.024L160.38 489.218L194.56 509.266ZM231.332 570.826C231.117 570.826 230.905 570.878 230.714 570.977C230.523 571.075 230.359 571.218 230.235 571.394L219.566 565.134L196.036 551.327V511.195C196.368 511.149 196.673 510.983 196.892 510.729C197.111 510.475 197.23 510.15 197.227 509.814C197.258 509.639 197.258 509.46 197.227 509.285L230.329 489.861C230.451 490.037 230.614 490.18 230.803 490.279C230.993 490.378 231.203 490.43 231.417 490.43C231.631 490.43 231.841 490.378 232.031 490.279C232.22 490.18 232.383 490.037 232.505 489.861L266.704 509.928V551.327L232.505 571.394C232.373 571.208 232.197 571.058 231.992 570.958C231.786 570.859 231.559 570.814 231.332 570.826ZM231.143 613.739L219.377 620.643L195.865 634.449L161.685 614.401C161.761 614.228 161.799 614.042 161.799 613.853C161.797 613.513 161.671 613.185 161.444 612.931C161.218 612.677 160.907 612.514 160.569 612.472V572.34L195.865 551.536L207.631 558.439L230.027 571.583C229.996 571.771 229.996 571.962 230.027 572.15C230.024 572.489 230.146 572.817 230.369 573.071C230.592 573.326 230.901 573.489 231.237 573.531L231.143 613.739ZM266.95 676.151V636.038C267.287 635.996 267.599 635.833 267.825 635.579C268.051 635.325 268.177 634.997 268.179 634.657C268.18 634.468 268.141 634.281 268.066 634.108L302.246 614.061L337.542 634.752V674.884C337.204 674.926 336.893 675.089 336.667 675.343C336.441 675.597 336.315 675.925 336.313 676.265C336.31 676.454 336.349 676.641 336.426 676.813L302.246 696.88L266.95 676.151ZM231.332 695.632C231.116 695.635 230.903 695.69 230.712 695.792C230.522 695.894 230.358 696.04 230.235 696.218L219.566 689.939L196.036 676.151V634.733L207.801 627.848L231.332 614.042L265.493 634.09C265.418 634.263 265.379 634.449 265.38 634.638C265.382 634.978 265.508 635.306 265.734 635.56C265.96 635.814 266.271 635.977 266.609 636.019V676.151L232.41 696.218C232.287 696.046 232.125 695.905 231.938 695.807C231.751 695.708 231.543 695.655 231.332 695.65V695.632ZM161.685 739.225C161.761 739.052 161.799 738.866 161.799 738.677C161.797 738.335 161.672 738.004 161.446 737.747C161.22 737.49 160.908 737.323 160.569 737.277V697.182L195.865 676.473L207.631 683.376L230.027 696.52C229.996 696.708 229.996 696.9 230.027 697.088C230.024 697.426 230.146 697.754 230.369 698.009C230.592 698.263 230.901 698.427 231.237 698.468V738.582L195.96 759.292L161.685 739.225ZM124.932 759.273L113.091 752.389L90.6764 739.244C90.7519 739.071 90.7905 738.885 90.7899 738.696C90.7925 738.352 90.6686 738.02 90.4419 737.762C90.2152 737.504 89.9014 737.338 89.5604 737.296V697.182L123.76 677.116C123.881 677.295 124.044 677.442 124.236 677.544C124.427 677.646 124.64 677.699 124.857 677.699C125.073 677.699 125.287 677.646 125.478 677.544C125.669 677.442 125.833 677.295 125.954 677.116L160.134 697.182V737.296C159.796 737.342 159.487 737.51 159.264 737.767C159.042 738.025 158.92 738.355 158.923 738.696C158.923 738.885 158.961 739.071 159.037 739.244L124.932 759.273ZM160.569 863.406V822.025L194.768 801.959C194.892 802.134 195.057 802.277 195.248 802.376C195.439 802.475 195.65 802.526 195.865 802.526C196.08 802.523 196.29 802.471 196.481 802.372C196.671 802.274 196.836 802.132 196.962 801.959L231.143 822.025V862.139C230.805 862.18 230.494 862.344 230.268 862.598C230.041 862.852 229.915 863.18 229.913 863.52C229.92 863.708 229.958 863.893 230.027 864.068L195.865 884.116L160.569 863.406ZM54.1885 1009.26L65.935 1002.36L89.4659 988.552L123.646 1008.6C123.571 1008.77 123.532 1008.96 123.533 1009.15C123.535 1009.49 123.661 1009.82 123.887 1010.07C124.113 1010.32 124.424 1010.49 124.762 1010.53V1050.66L90.563 1070.73C90.4398 1070.55 90.2761 1070.4 90.0853 1070.3C89.8945 1070.2 89.6821 1070.14 89.4659 1070.14C89.2502 1070.15 89.0389 1070.2 88.8486 1070.31C88.6583 1070.41 88.494 1070.55 88.3687 1070.73L54.1885 1050.66V1009.26ZM53.9993 926.045L65.8026 933.137L88.2174 946.282C88.148 946.463 88.1158 946.656 88.1229 946.849C88.1203 947.188 88.2422 947.515 88.4653 947.77C88.6885 948.024 88.9975 948.188 89.3334 948.23V988.363L77.568 995.266L54.0372 1009.05L19.838 988.911C19.9046 988.735 19.9429 988.55 19.9515 988.363C19.9494 988.022 19.8235 987.695 19.5972 987.44C19.3709 987.186 19.0598 987.023 18.722 986.982V946.849L53.9993 926.045ZM89.4659 863.633L101.231 870.536L123.646 883.681C123.571 883.854 123.532 884.041 123.533 884.229C123.534 884.572 123.659 884.902 123.885 885.159C124.111 885.416 124.423 885.583 124.762 885.629V925.743L90.563 945.809C90.4388 945.634 90.2744 945.49 90.0835 945.392C89.8926 945.293 89.6808 945.242 89.4659 945.242C89.2515 945.245 89.0407 945.297 88.8503 945.396C88.6599 945.494 88.495 945.636 88.3687 945.809L77.7004 939.549L54.1885 925.743V885.723C54.5244 885.673 54.8313 885.505 55.0535 885.248C55.2756 884.991 55.3983 884.663 55.3991 884.324C55.4278 884.142 55.4278 883.957 55.3991 883.775L89.4659 863.633ZM89.6361 821.931L101.402 815.009L123.835 801.864C123.959 802.04 124.124 802.183 124.315 802.282C124.505 802.381 124.717 802.433 124.932 802.433C125.147 802.433 125.359 802.381 125.55 802.282C125.741 802.183 125.905 802.04 126.029 801.864L160.21 821.931V863.331L126.029 883.397C125.908 883.218 125.745 883.071 125.553 882.969C125.362 882.867 125.149 882.814 124.932 882.814C124.716 882.814 124.503 882.867 124.311 882.969C124.12 883.071 123.957 883.218 123.835 883.397L113.091 877.232L89.5604 863.425L89.6361 821.931ZM54.1885 800.9V760.88C54.5245 760.839 54.8334 760.675 55.0566 760.42C55.2798 760.166 55.4017 759.838 55.3991 759.5C55.4309 759.318 55.4309 759.133 55.3991 758.951L88.4633 739.528C88.5886 739.704 88.7528 739.848 88.9432 739.95C89.1335 740.051 89.3447 740.108 89.5604 740.114C89.7767 740.111 89.9891 740.056 90.1798 739.954C90.3706 739.852 90.5344 739.706 90.6575 739.528L101.326 745.788L124.857 759.594V799.727C124.519 799.768 124.208 799.932 123.982 800.186C123.755 800.44 123.629 800.768 123.627 801.108C123.627 801.297 123.665 801.483 123.741 801.656L113.091 807.897L89.5604 821.704L54.1885 800.9ZM-123.352 988.571L-111.549 995.549L-89.134 1008.69C-89.2094 1008.87 -89.2481 1009.05 -89.2475 1009.24C-89.2415 1009.58 -89.1141 1009.91 -88.8886 1010.16C-88.663 1010.41 -88.3542 1010.58 -88.018 1010.62V1050.76L-123.352 1071.37L-157.4 1051.32C-157.363 1051.14 -157.363 1050.96 -157.4 1050.77C-157.402 1050.43 -157.528 1050.11 -157.754 1049.85C-157.981 1049.6 -158.292 1049.44 -158.629 1049.39V1009.26L-123.352 988.571ZM-111.397 939.946L-87.8856 926.14L-52.5893 946.944V988.344L-86.7507 1008.32C-86.8748 1008.14 -87.0392 1008 -87.2301 1007.9C-87.421 1007.8 -87.6328 1007.75 -87.8477 1007.75C-88.0598 1007.75 -88.2684 1007.8 -88.456 1007.9C-88.6436 1008 -88.8048 1008.14 -88.9259 1008.32L-99.6132 1002.06L-123.125 988.249V948.135C-122.786 948.093 -122.474 947.927 -122.251 947.668C-122.027 947.41 -121.907 947.077 -121.915 946.736C-121.915 946.547 -121.954 946.361 -122.028 946.187L-111.397 939.946ZM-160.048 883.775C-160.124 883.971 -160.155 884.181 -160.139 884.391C-160.123 884.6 -160.06 884.803 -159.954 884.985C-159.849 885.166 -159.704 885.322 -159.53 885.44C-159.357 885.558 -159.159 885.635 -158.951 885.667V925.78L-194.228 946.584L-228.409 926.537C-228.331 926.358 -228.292 926.165 -228.295 925.97C-228.297 925.629 -228.423 925.302 -228.649 925.047C-228.876 924.793 -229.187 924.63 -229.525 924.589V884.437L-194.228 863.728L-160.048 883.775ZM-123.352 863.728L-111.549 870.726L-89.134 883.87C-89.2094 884.043 -89.2481 884.23 -89.2475 884.418C-89.246 884.761 -89.1207 885.091 -88.8947 885.348C-88.6687 885.605 -88.3573 885.772 -88.018 885.818V925.932L-99.7834 932.835L-122.217 946.074C-122.341 945.898 -122.506 945.755 -122.697 945.657C-122.887 945.558 -123.099 945.506 -123.314 945.506C-123.526 945.508 -123.735 945.56 -123.922 945.659C-124.11 945.757 -124.271 945.9 -124.392 946.074L-158.592 925.837V885.723C-158.252 885.678 -157.941 885.511 -157.715 885.254C-157.489 884.996 -157.364 884.666 -157.362 884.324C-157.346 884.14 -157.359 883.955 -157.4 883.775L-123.352 863.728ZM-53.7053 821.363C-53.783 821.536 -53.8217 821.723 -53.8188 821.912C-53.8167 822.252 -53.6908 822.58 -53.4645 822.834C-53.2382 823.088 -52.9271 823.251 -52.5893 823.292V863.425L-86.7507 883.492C-86.8715 883.311 -87.0348 883.164 -87.2261 883.062C-87.4174 882.959 -87.6308 882.906 -87.8477 882.905C-88.0621 882.905 -88.273 882.959 -88.4613 883.062C-88.6496 883.164 -88.8093 883.312 -88.9259 883.492L-99.6132 877.232L-123.125 863.425V823.292C-122.789 823.251 -122.48 823.087 -122.257 822.832C-122.034 822.578 -121.912 822.25 -121.915 821.912C-121.912 821.723 -121.95 821.536 -122.028 821.363L-87.8477 801.316L-53.7053 821.363ZM-16.9526 801.316L-5.14934 808.314L17.2466 821.458C17.2163 821.639 17.2163 821.825 17.2466 822.006C17.2487 822.347 17.3746 822.674 17.6009 822.929C17.8272 823.183 18.1383 823.346 18.4761 823.387V863.52L-15.8177 883.492C-15.9438 883.312 -16.1108 883.166 -16.3048 883.064C-16.4989 882.962 -16.7144 882.907 -16.9337 882.905C-17.1467 882.912 -17.3553 882.968 -17.5425 883.07C-17.7298 883.172 -17.8905 883.316 -18.0118 883.492L-52.211 863.425V823.292C-51.8732 823.251 -51.5621 823.088 -51.3358 822.834C-51.1095 822.58 -50.9836 822.252 -50.9815 821.912C-50.9786 821.723 -51.0173 821.536 -51.095 821.363L-16.9526 801.316ZM-16.7823 759.594L-5.01691 752.691L18.5139 738.885L52.6942 758.951C52.6624 759.133 52.6624 759.318 52.6942 759.5C52.6916 759.838 52.8135 760.166 53.0367 760.42C53.2599 760.675 53.5688 760.839 53.9048 760.88V800.994L19.6488 821.061C19.5207 820.885 19.3528 820.742 19.1589 820.643C18.9649 820.545 18.7504 820.493 18.5328 820.493C18.3211 820.496 18.1131 820.549 17.9257 820.648C17.7383 820.746 17.5769 820.888 17.4547 821.061L6.78635 814.801L-16.7445 800.994L-16.7823 759.594ZM-52.5893 697.182V737.296C-52.9271 737.338 -53.2382 737.501 -53.4645 737.755C-53.6908 738.009 -53.8167 738.337 -53.8188 738.677C-53.8215 738.872 -53.7828 739.065 -53.7053 739.244L-87.8856 759.292L-122.028 739.244C-121.952 739.049 -121.921 738.838 -121.937 738.629C-121.953 738.42 -122.016 738.217 -122.122 738.035C-122.227 737.853 -122.372 737.698 -122.546 737.58C-122.719 737.462 -122.917 737.384 -123.125 737.353V697.182L-88.9259 677.116C-88.8048 677.29 -88.6436 677.432 -88.456 677.531C-88.2684 677.63 -88.0598 677.682 -87.8477 677.683C-87.6328 677.683 -87.421 677.632 -87.2301 677.533C-87.0392 677.435 -86.8748 677.291 -86.7507 677.116L-52.5893 697.182ZM-16.9526 676.473L-5.18715 683.376L17.2088 696.52C17.1801 696.702 17.1801 696.887 17.2088 697.069C17.2067 697.41 17.3312 697.74 17.5583 697.995C17.7854 698.25 18.0989 698.412 18.4383 698.45V738.582L6.67284 745.485L-16.858 759.292L-51.095 739.244C-51.0188 739.047 -50.9882 738.835 -51.0055 738.625C-51.0229 738.414 -51.0877 738.21 -51.195 738.029C-51.3024 737.846 -51.4496 737.691 -51.6255 737.574C-51.8015 737.457 -52.0016 737.382 -52.211 737.353V697.182L-16.9526 676.473ZM-16.7823 634.752L-5.01691 627.867L18.5139 614.061L52.6942 634.108C52.6655 634.29 52.6655 634.475 52.6942 634.657C52.6916 634.995 52.8135 635.323 53.0367 635.578C53.2599 635.832 53.5688 635.996 53.9048 636.038V676.17L19.6488 696.237C19.5217 696.059 19.3544 695.913 19.1606 695.811C18.9668 695.709 18.7518 695.654 18.5328 695.65C18.3198 695.657 18.1112 695.713 17.924 695.815C17.7367 695.917 17.576 696.061 17.4547 696.237L6.78635 689.958L-16.7445 676.17L-16.7823 634.752ZM-51.095 614.401C-51.0196 614.228 -50.9809 614.042 -50.9815 613.853C-50.979 613.509 -51.1028 613.177 -51.3296 612.919C-51.5563 612.661 -51.87 612.495 -52.211 612.453V572.34L-16.9147 551.536L17.2466 571.583C17.2179 571.765 17.2179 571.95 17.2466 572.131C17.244 572.475 17.3679 572.807 17.5947 573.065C17.8214 573.324 18.1351 573.489 18.4761 573.531V613.645L6.71068 620.548L-16.8202 634.354L-51.095 614.401ZM-87.8667 552.841C-87.6517 552.841 -87.4399 552.789 -87.249 552.69C-87.0581 552.592 -86.8937 552.449 -86.7696 552.273L-76.0634 558.533L-52.5326 572.34V612.472C-52.8685 612.514 -53.1775 612.678 -53.4007 612.932C-53.6238 613.187 -53.7457 613.514 -53.7432 613.853C-53.7458 614.036 -53.707 614.217 -53.6297 614.382L-86.7317 633.806C-86.8558 633.63 -87.0202 633.487 -87.2112 633.389C-87.4021 633.29 -87.6139 633.238 -87.8288 633.238C-88.0408 633.24 -88.2495 633.292 -88.4371 633.391C-88.6247 633.49 -88.7859 633.632 -88.907 633.806L-123.144 613.739V572.34L-88.9448 552.273C-88.8237 552.447 -88.6625 552.589 -88.4749 552.688C-88.2873 552.787 -88.0787 552.839 -87.8667 552.841ZM-87.6775 509.928L-75.9121 503.024L-52.4002 489.218L-18.2199 509.266C-18.2953 509.439 -18.334 509.625 -18.3334 509.814C-18.3313 510.154 -18.2054 510.482 -17.9791 510.736C-17.7528 510.99 -17.4417 511.153 -17.1039 511.195V551.327L-52.4002 572.037L-64.1656 565.134L-86.5804 551.989C-86.5043 551.794 -86.4732 551.583 -86.4895 551.374C-86.5057 551.165 -86.5688 550.962 -86.6742 550.78C-86.7795 550.598 -86.9244 550.443 -87.0981 550.325C-87.2718 550.207 -87.4698 550.129 -87.6775 550.098V509.928ZM-123.503 447.516V487.648C-123.839 487.69 -124.148 487.854 -124.371 488.108C-124.595 488.363 -124.717 488.69 -124.714 489.029C-124.715 489.218 -124.676 489.404 -124.6 489.577L-158.781 509.606L-194.077 488.915V448.783C-193.739 448.741 -193.428 448.578 -193.202 448.324C-192.976 448.07 -192.85 447.742 -192.848 447.402C-192.845 447.213 -192.883 447.026 -192.961 446.854L-158.781 426.787L-123.503 447.516ZM-87.8667 428.035C-87.6504 428.032 -87.438 427.977 -87.2472 427.875C-87.0565 427.773 -86.8927 427.627 -86.7696 427.449L-76.0634 433.69L-52.5326 447.497V488.915L-64.298 495.819L-87.8288 509.606L-122.028 489.559C-121.961 489.383 -121.923 489.198 -121.915 489.01C-121.917 488.67 -122.043 488.342 -122.269 488.088C-122.495 487.834 -122.806 487.671 -123.144 487.629V447.497L-88.9448 427.43C-88.8247 427.607 -88.6642 427.752 -88.4767 427.854C-88.2891 427.956 -88.08 428.012 -87.8667 428.017V428.035ZM-18.2199 384.442C-18.2953 384.615 -18.334 384.801 -18.3334 384.99C-18.3319 385.332 -18.2066 385.663 -17.9806 385.92C-17.7547 386.177 -17.4433 386.344 -17.1039 386.39V426.504L-52.4002 447.194L-64.1656 440.291L-86.5804 427.052C-86.5043 426.856 -86.4732 426.646 -86.4895 426.437C-86.5057 426.227 -86.5688 426.024 -86.6742 425.843C-86.7795 425.661 -86.9244 425.505 -87.0981 425.387C-87.2718 425.269 -87.4698 425.192 -87.6775 425.161V385.085L-52.4002 364.375L-18.2199 384.442ZM18.5139 364.375L30.2604 371.278L52.6753 384.517C52.6466 384.699 52.6466 384.884 52.6753 385.066C52.6761 385.405 52.7988 385.733 53.0209 385.99C53.243 386.247 53.5499 386.415 53.8859 386.465V426.579L19.6299 446.551C19.5087 446.372 19.3452 446.225 19.154 446.123C18.9627 446.021 18.7494 445.968 18.5328 445.968C18.3163 445.968 18.103 446.021 17.9117 446.123C17.7204 446.225 17.557 446.372 17.4357 446.551L-16.7634 426.485V386.371C-16.4241 386.325 -16.1127 386.158 -15.8867 385.901C-15.6607 385.644 -15.5354 385.314 -15.5339 384.971C-15.5333 384.782 -15.572 384.596 -15.6474 384.423L18.5139 364.375ZM19.8002 322.011L30.4496 315.77L53.9615 301.963L89.2578 322.673V362.787C88.9218 362.828 88.6129 362.992 88.3897 363.246C88.1665 363.501 88.0446 363.829 88.0472 364.167C88.0059 364.348 88.0059 364.535 88.0472 364.716L54.964 384.139C54.845 383.96 54.6833 383.812 54.4936 383.711C54.3038 383.609 54.0918 383.555 53.8764 383.555C53.661 383.555 53.449 383.609 53.2592 383.711C53.0694 383.812 52.9078 383.96 52.7888 384.139L42.1204 377.879L18.5896 364.073V323.959C18.9273 323.909 19.2365 323.741 19.4618 323.485C19.6871 323.229 19.8137 322.9 19.8191 322.559C19.8475 322.378 19.8475 322.192 19.8191 322.011H19.8002ZM-17.1039 260.242V301.642L-51.3031 321.727C-51.4243 321.548 -51.5878 321.401 -51.779 321.299C-51.9703 321.197 -52.1836 321.144 -52.4002 321.144C-52.6167 321.144 -52.83 321.197 -53.0213 321.299C-53.2126 321.401 -53.376 321.548 -53.4973 321.727L-87.6775 301.642V261.528C-87.3415 261.486 -87.0326 261.322 -86.8094 261.068C-86.5862 260.813 -86.4643 260.486 -86.4669 260.147C-86.464 259.958 -86.5027 259.771 -86.5804 259.599L-52.4002 239.551L-17.1039 260.242ZM18.5139 240.762C18.7305 240.76 18.9434 240.705 19.1345 240.603C19.3255 240.501 19.489 240.354 19.611 240.175L30.2604 246.436L53.7913 260.242V301.642L42.0258 308.564L19.611 321.803C19.4898 321.623 19.3263 321.476 19.1351 321.375C18.9438 321.273 18.7305 321.22 18.5139 321.22C18.2973 321.22 18.0841 321.273 17.8928 321.375C17.7015 321.476 17.5381 321.623 17.4168 321.803L-16.7634 301.642V260.242L17.4357 240.175C17.5559 240.352 17.7164 240.497 17.9039 240.599C18.0914 240.701 18.3006 240.757 18.5139 240.762ZM53.9615 178.35C54.1764 178.35 54.3882 178.298 54.5792 178.2C54.7701 178.101 54.9345 177.958 55.0586 177.782L65.7269 184.042L89.2578 197.849V237.963C88.9202 238.009 88.611 238.176 88.3882 238.434C88.1653 238.691 88.0441 239.021 88.0472 239.362C88.0094 239.543 88.0094 239.73 88.0472 239.911L53.8669 259.958L42.1204 253.055L19.7056 239.816C19.7722 239.64 19.8105 239.455 19.8191 239.268C19.8176 238.925 19.6923 238.595 19.4663 238.338C19.2403 238.08 18.9289 237.914 18.5896 237.868V197.83L52.7888 177.763C52.9217 177.953 53.1013 178.104 53.3101 178.204C53.5188 178.303 53.7498 178.347 53.9804 178.331L53.9615 178.35ZM54.1507 135.418L65.9161 128.515L89.428 114.727L123.608 134.775C123.533 134.948 123.494 135.135 123.495 135.323C123.497 135.663 123.623 135.991 123.849 136.245C124.075 136.5 124.387 136.663 124.724 136.704V176.818L89.428 197.622L77.6626 190.719L55.2667 177.48C55.2952 177.292 55.2952 177.1 55.2667 176.912C55.2693 176.574 55.1474 176.246 54.9242 175.992C54.701 175.737 54.3921 175.573 54.0561 175.532L54.1507 135.418ZM53.9615 53.5068C54.1764 53.5069 54.3882 53.4555 54.5792 53.3567C54.7701 53.258 54.9345 53.1149 55.0586 52.9394L89.2767 72.9869V114.387L77.5113 121.29L53.9804 135.021L19.8191 114.973C19.8857 114.797 19.924 114.612 19.9326 114.425C19.9305 114.084 19.8045 113.757 19.5782 113.503C19.352 113.248 19.0408 113.085 18.7031 113.044V72.9869L52.9023 52.9205C53.0245 53.0934 53.1859 53.2349 53.3733 53.3335C53.5607 53.4321 53.7687 53.485 53.9804 53.4879L53.9615 53.5068Z" fill="white"/>
</g>
</g>
</svg>
