<svg width="230" height="544" viewBox="0 0 230 544" fill="none" xmlns="http://www.w3.org/2000/svg">
<g opacity="0.7">
<g opacity="0.1">
<path opacity="0.3" d="M44.1601 161.261L69.879 176.348L95.6121 161.261V131.058L69.879 115.971L44.1601 131.058V161.261Z" fill="#0C478B"/>
<path opacity="0.6" d="M71.1901 113.664L96.9232 128.765L122.656 113.664V83.4751L96.9232 68.3737L71.1901 83.4751V113.664Z" fill="#0C478B"/>
<path opacity="0.3" d="M44.1601 66.0649L69.879 81.1663L95.6121 66.0649V35.8764L69.879 20.775L44.1601 35.8764V66.0649Z" fill="#0C478B"/>
<path opacity="0.1" d="M17.1158 208.845L42.8489 223.947L68.5677 208.845V178.657L42.8489 163.555L17.1158 178.657V208.845Z" fill="#0C478B"/>
<path opacity="0.3" d="M-9.92456 351.624L15.8085 366.726L41.5416 351.624V321.436L15.8085 306.335L-9.92456 321.436V351.624Z" fill="#0C478B"/>
<path opacity="0.3" d="M-36.9546 208.845L-11.2358 223.947L14.4973 208.845V178.657L-11.2358 163.555L-36.9546 178.657V208.845Z" fill="#0C478B"/>
<path opacity="0.6" d="M-9.92456 161.261L15.8085 176.348L41.5416 161.261V131.058L15.8085 115.971L-9.92456 131.058V161.261Z" fill="#0C478B"/>
<path opacity="0.6" d="M-9.92456 256.443L15.8085 271.53L41.5416 256.443V226.24L15.8085 211.153L-9.92456 226.24V256.443Z" fill="#0C478B"/>
<path opacity="0.3" d="M44.1601 256.443L69.879 271.53L95.6121 256.443V226.24L69.879 211.153L44.1601 226.24V256.443Z" fill="#0C478B"/>
<path opacity="0.6" d="M98.2344 256.443L123.967 271.53L149.701 256.443V226.24L123.967 211.153L98.2344 226.24V256.443Z" fill="#0C478B"/>
<path opacity="0.1" d="M-36.9546 113.664L-11.2358 128.751L14.4973 113.664V83.4609L-11.2358 68.3737L-36.9546 83.4609V113.664Z" fill="#0C478B"/>
<path opacity="0.1" d="M71.1901 304.027L96.9232 319.129L122.656 304.027V273.839L96.9232 258.752L71.1901 273.839V304.027Z" fill="#0C478B"/>
<path opacity="0.6" d="M98.2344 351.624L123.967 366.726L149.701 351.624V321.436L123.967 306.335L98.2344 321.436V351.624Z" fill="#0C478B"/>
<path opacity="0.1" d="M17.1158 18.482L42.8489 33.5692L68.5677 18.482V-11.7207L42.8489 -26.8079L17.1158 -11.7207V18.482Z" fill="#0C478B"/>
<path opacity="0.6" d="M-9.92456 66.0649L15.8085 81.1663L41.5416 66.0649V35.8764L15.8085 20.775L-9.92456 35.8764V66.0649Z" fill="#0C478B"/>
<path opacity="0.1" d="M-36.9546 304.027L-11.2358 319.129L14.4973 304.027V273.839L-11.2358 258.752L-36.9546 273.839V304.027Z" fill="#0C478B"/>
</g>
<path d="M40.0446 -30.6127H40.1158L66.8891 -14.9414V16.686L40.2298 32.3573V63.5573L66.9461 79.2286V110.571L93.5341 126.242L120.25 110.571L147.038 126.242V157.742L120.265 173.413H120.193L93.5483 157.742L66.9603 173.327V204.527L93.4628 220.199L120.179 204.527L146.967 220.199V251.541L173.597 267.227L200.314 251.555L227.087 267.227V298.726L200.299 314.397L173.64 298.726L147.066 314.397V345.583L173.783 361.254V392.753L147.009 408.425L120.222 392.753V361.411L93.5198 345.74V314.326L120.165 298.655V267.455L93.5911 251.783L66.8748 267.455L40.1016 251.783V220.441L13.5278 204.841L-13.0602 220.441V251.627L13.6561 267.298V298.797L-12.9889 314.468V345.811H-13.0602L-39.8334 361.482H-39.9047L-66.6779 345.811V314.326H-66.6067L-39.9616 298.655V267.455L-66.5497 251.783L-93.2659 267.455L-120.053 251.783V220.284H-119.982L-93.2089 204.613H-93.1377L-66.4927 220.284L-39.9047 204.698V173.498L-66.8204 157.827L-93.5366 173.498L-120.324 157.827V126.485L-146.898 110.813L-173.614 126.485L-200.387 110.813V79.2286H-200.316L-173.685 63.4149H-173.614L-146.969 79.0861L-120.381 63.5573V32.3573L-147.083 16.686V-14.8132L-120.296 -30.4845L-93.5081 -14.8132V16.5293L-66.8062 32.2006V63.6998L-93.4511 79.371V110.571L-66.8774 126.242L-40.1611 110.571H-40.0899L-13.3167 126.242V157.585L13.2714 173.171L39.9021 157.599V126.399L13.1859 110.728V79.3853L-13.5304 63.714V32.2006L13.1146 16.5293V-14.8132L40.0446 -30.6127ZM-120.224 32.0723L-111.362 26.8723L-93.6506 16.4723V-14.6565L-120.224 -30.3277L-146.812 -14.6565V16.5293L-120.224 32.0723ZM-120.096 63.5003L-111.233 68.6861L-93.5366 79.0861L-66.9486 63.5573V32.3573L-93.5366 16.7715L-102.442 21.9715L-120.153 32.3573L-120.096 63.5003ZM-147.069 110.514V79.3853L-173.657 63.714L-200.231 79.3853V110.571L-173.657 126.242L-147.069 110.514ZM-120.224 126.185L-111.362 120.985L-93.6506 110.585V79.3853L-102.513 74.1853L-120.224 63.7853L-146.812 79.4565V110.571L-120.224 126.185ZM-66.9344 157.613V126.413L-93.5224 110.742L-102.385 115.942L-120.096 126.342V157.542L-93.5224 173.128L-66.9344 157.613ZM-40.0899 173.199L-31.1987 167.985L-13.4877 157.599V126.399L-40.0614 110.728L-66.6494 126.399V157.599L-40.0899 173.199ZM-66.9344 251.641V220.441L-93.5224 204.841L-120.096 220.441V251.627L-93.5224 267.227L-66.9344 251.641ZM-13.5304 314.483L-22.3788 309.283L-40.1042 298.883L-66.6922 314.554V345.74L-40.1042 361.34L-13.5304 345.668V314.483ZM-13.3879 251.798L-22.2506 256.998L-39.9759 267.398V298.598L-31.1133 303.783L-13.3879 314.183L13.1859 298.598V267.398L-13.3879 251.798ZM-13.5304 220.384L-22.3788 215.184L-40.1042 204.784L-66.6922 220.384V251.57L-40.1042 267.17L-31.1987 262.027L-13.4877 251.627L-13.5304 220.384ZM13.1859 204.556V173.356L-13.3879 157.77L-22.2506 162.97L-39.9759 173.356V204.556L-31.1133 209.756L-13.3879 220.142L13.1859 204.556ZM146.91 345.896L138.047 351.096L120.322 361.496V392.682L146.91 408.282L173.469 392.682V361.496L146.91 345.896ZM146.767 314.554L137.904 309.354L120.193 298.954L93.6053 314.625V345.811L120.179 361.254L129.042 356.068L146.753 345.668L146.767 314.554ZM173.754 267.54V298.74L200.328 314.326L226.916 298.74V267.54L200.328 251.869L173.754 267.54ZM146.91 251.869L138.047 257.069L120.322 267.469V298.669L129.184 303.855L146.91 314.24L173.469 298.655V267.455L146.91 251.869ZM93.6053 220.455V251.641L120.179 267.227L129.042 262.027L146.753 251.627V220.441L120.179 204.841L93.6053 220.455ZM66.7608 204.855L57.8982 210.055L40.1728 220.455V251.641L66.7466 267.227L93.3346 251.627V220.441L66.7608 204.855ZM66.6326 173.427L57.7699 168.241L40.0446 157.827L13.4708 173.413V204.613L40.0446 220.199L48.9073 215.013L66.6326 204.613V173.427ZM93.6053 126.413V157.613L120.179 173.185L146.753 157.599V126.399L120.179 110.728L93.6053 126.413ZM66.7608 110.742L57.8982 115.942L40.1728 126.342V157.542L49.0355 162.728L66.7608 173.128L93.3346 157.599V126.399L66.7608 110.742ZM40.0446 63.7283L31.1962 68.9283L13.4708 79.3283V110.571L40.0446 126.171L48.9073 120.971L66.6326 110.571V79.3853L40.0446 63.7283ZM39.9164 32.3003L31.0537 27.1145L13.3426 16.7145L-13.2454 32.3003V63.5003L13.3283 79.0861L22.1768 73.9004L39.9021 63.5573L39.9164 32.3003ZM40.0446 -30.2565L13.4708 -14.5853V16.5293L22.3335 21.7293L40.0446 32.0723L66.6326 16.4011V-14.6565L40.0446 -30.2565Z" fill="#0C478B"/>
<path d="M13.3296 -15.7964C13.6068 -15.7927 13.8714 -15.68 14.066 -15.4827C14.2607 -15.2853 14.3698 -15.0193 14.3698 -14.7422C14.3927 -14.6006 14.3927 -14.4563 14.3698 -14.3148L40.1599 0.857832V31.2458C40.4143 31.277 40.6487 31.3998 40.8191 31.5912C40.9896 31.7826 41.0845 32.0295 41.086 32.2858C41.0861 32.5668 40.9754 32.8364 40.7781 33.0364C40.5808 33.2363 40.3126 33.3506 40.0316 33.3543C39.8685 33.3528 39.7081 33.3118 39.5642 33.2349C39.4203 33.158 39.2971 33.0475 39.2052 32.9127L13.4579 48.0283V78.2596C13.711 78.291 13.9437 78.4143 14.1118 78.606C14.2799 78.7978 14.3717 79.0446 14.3698 79.2996C14.3913 79.4412 14.3913 79.5853 14.3698 79.727L40.1599 94.8996V125.273C40.4167 125.305 40.6531 125.43 40.8239 125.624C40.9946 125.818 41.088 126.069 41.086 126.328C41.0865 126.47 41.0574 126.61 41.0005 126.741L66.7479 141.842L93.4641 126.171L119.354 141.358C119.447 141.226 119.571 141.118 119.715 141.043C119.859 140.969 120.018 140.93 120.18 140.93C120.46 140.913 120.735 141.008 120.945 141.194C121.154 141.379 121.282 141.641 121.299 141.92C121.316 142.2 121.221 142.475 121.035 142.685C120.85 142.894 120.588 143.022 120.309 143.039V173.413L94.5043 188.557C94.5611 188.687 94.5902 188.828 94.5898 188.97C94.5898 189.249 94.4787 189.518 94.2809 189.715C94.0832 189.913 93.815 190.024 93.5354 190.024C93.2557 190.024 92.9875 189.913 92.7898 189.715C92.5921 189.518 92.481 189.249 92.481 188.97C92.4805 188.828 92.5096 188.687 92.5665 188.557L66.8191 173.455L41.086 188.557C41.1077 188.694 41.1077 188.833 41.086 188.97C41.0849 189.228 40.9905 189.477 40.8203 189.67C40.6501 189.864 40.4155 189.99 40.1599 190.024V220.241L65.9215 235.4C66.0158 235.267 66.1396 235.158 66.2829 235.082C66.4263 235.005 66.5854 234.963 66.7479 234.958C66.9108 234.961 67.0707 235.002 67.2145 235.079C67.3582 235.156 67.4815 235.266 67.5743 235.4L93.4641 220.198L120.252 235.87V266.243C120.506 266.275 120.74 266.397 120.911 266.589C121.081 266.78 121.176 267.027 121.178 267.283C121.173 267.43 121.144 267.574 121.092 267.711L146.911 282.898L173.613 267.226L199.488 282.413C199.584 282.283 199.708 282.176 199.851 282.102C199.995 282.028 200.153 281.988 200.315 281.986C200.455 281.986 200.593 282.014 200.722 282.067C200.851 282.121 200.967 282.2 201.066 282.3C201.164 282.399 201.241 282.517 201.293 282.647C201.345 282.776 201.371 282.915 201.369 283.054C201.368 283.311 201.273 283.558 201.102 283.749C200.932 283.94 200.698 284.063 200.443 284.094V314.482L173.656 330.154L147.823 314.995C147.731 315.127 147.608 315.236 147.466 315.31C147.323 315.385 147.164 315.424 147.003 315.424C146.842 315.424 146.684 315.385 146.541 315.31C146.398 315.236 146.276 315.127 146.184 314.995L120.423 330.111V360.328C120.677 360.359 120.911 360.482 121.082 360.673C121.252 360.865 121.347 361.112 121.349 361.368C121.344 361.514 121.315 361.658 121.263 361.795L147.025 377.011V408.51L121.221 423.654C121.271 423.786 121.3 423.926 121.306 424.067C121.306 424.347 121.195 424.615 120.997 424.813C120.799 425.01 120.531 425.121 120.252 425.121C119.972 425.121 119.704 425.01 119.506 424.813C119.308 424.615 119.197 424.347 119.197 424.067C119.197 423.925 119.226 423.784 119.283 423.654L94.3618 409.037C94.2637 409.168 94.1369 409.274 93.9912 409.348C93.8454 409.423 93.6846 409.462 93.5211 409.464C93.358 409.463 93.1976 409.422 93.0537 409.345C92.9098 409.268 92.7866 409.158 92.6947 409.023L66.9331 424.138V455.338L93.4499 470.981L119.197 455.866C119.139 455.736 119.11 455.595 119.112 455.452C119.112 455.173 119.223 454.905 119.421 454.707C119.618 454.509 119.886 454.398 120.166 454.398C120.446 454.398 120.714 454.509 120.912 454.707C121.109 454.905 121.221 455.173 121.221 455.452C121.223 455.595 121.194 455.736 121.135 455.866L147.011 471.052V501.426C147.264 501.458 147.496 501.581 147.665 501.773C147.833 501.964 147.924 502.211 147.923 502.466C147.926 502.747 147.819 503.018 147.625 503.221C147.43 503.424 147.163 503.541 146.882 503.549C146.719 503.547 146.559 503.506 146.415 503.43C146.271 503.353 146.148 503.242 146.056 503.107L120.166 518.294L94.3475 503.136C94.2562 503.271 94.1331 503.382 93.989 503.458C93.8449 503.535 93.6842 503.575 93.5211 503.575C93.358 503.575 93.1973 503.535 93.0532 503.458C92.9091 503.382 92.786 503.271 92.6947 503.136L66.9331 518.251V549.437L92.6235 564.524C92.7169 564.392 92.8407 564.284 92.9845 564.21C93.1283 564.135 93.2879 564.096 93.4499 564.096C93.6118 564.096 93.7714 564.135 93.9152 564.21C94.0591 564.284 94.1829 564.392 94.2763 564.524L120.166 549.337L146.056 564.524C146.149 564.391 146.272 564.283 146.416 564.208C146.56 564.134 146.72 564.096 146.882 564.097C147.162 564.08 147.437 564.175 147.647 564.36C147.856 564.546 147.984 564.807 148.001 565.087C148.018 565.367 147.923 565.642 147.737 565.851C147.552 566.061 147.29 566.188 147.011 566.205V596.437L172.772 611.552C172.863 611.417 172.986 611.305 173.13 611.228C173.274 611.151 173.435 611.111 173.599 611.111C173.759 611.116 173.916 611.158 174.057 611.235C174.198 611.312 174.319 611.42 174.411 611.552L200.301 596.351L227.074 612.022V642.396C227.329 642.431 227.564 642.556 227.734 642.75C227.904 642.944 227.999 643.193 228 643.45C227.996 643.733 227.883 644.002 227.683 644.202C227.483 644.402 227.214 644.515 226.931 644.519C226.772 644.511 226.616 644.467 226.475 644.39C226.334 644.314 226.213 644.207 226.119 644.077L200.229 659.278H200.158L173.513 643.607L147.78 658.709C147.825 658.847 147.849 658.991 147.851 659.136C147.853 659.391 147.761 659.638 147.593 659.829C147.425 660.021 147.192 660.145 146.939 660.176V690.393L173.656 706.064V736.438C173.935 736.457 174.196 736.586 174.38 736.797C174.565 737.008 174.658 737.284 174.639 737.563C174.62 737.843 174.491 738.104 174.28 738.288C174.068 738.472 173.793 738.565 173.513 738.546C173.353 738.545 173.196 738.506 173.055 738.432C172.914 738.357 172.792 738.25 172.701 738.119L146.911 753.391H146.84L120.052 737.72V707.261C119.799 707.23 119.566 707.106 119.398 706.915C119.23 706.723 119.138 706.476 119.14 706.221C119.138 706.079 119.167 705.938 119.226 705.808L93.3501 690.621V659.122L119.995 643.45V613.233C119.742 613.196 119.511 613.069 119.344 612.875C119.176 612.682 119.084 612.435 119.083 612.179C119.083 612.037 119.112 611.896 119.169 611.766L93.4214 596.665L67.674 611.766C67.7304 611.925 67.7482 612.096 67.726 612.263C67.7038 612.431 67.6421 612.59 67.5462 612.729C67.4503 612.868 67.3227 612.983 67.174 613.063C67.0253 613.143 66.8598 613.187 66.6909 613.191C66.5524 613.189 66.4157 613.16 66.2885 613.105C66.1612 613.05 66.0461 612.971 65.9495 612.872C65.8529 612.773 65.7768 612.655 65.7255 612.527C65.6743 612.398 65.6488 612.261 65.6507 612.122C65.6503 611.98 65.6794 611.839 65.7362 611.709L39.8607 596.522V566.205C39.6062 566.174 39.3718 566.051 39.2014 565.86C39.0309 565.669 38.9361 565.422 38.9345 565.165C38.9394 565.024 38.9683 564.884 39.02 564.752L13.2869 549.651L-13.3011 565.251V596.437L12.4605 611.552C12.5515 611.417 12.6745 611.305 12.8186 611.228C12.9627 611.151 13.1235 611.111 13.2869 611.111C13.5519 611.121 13.8037 611.229 13.9933 611.415C14.1829 611.6 14.2967 611.849 14.3127 612.114C14.3287 612.379 14.2457 612.64 14.0798 612.847C13.9139 613.054 13.677 613.191 13.4151 613.233V643.45L40.1171 659.122V689.51C40.2912 689.528 40.4578 689.59 40.6022 689.689C40.7465 689.788 40.8639 689.921 40.9438 690.076C41.0238 690.232 41.0637 690.405 41.06 690.58C41.0563 690.755 41.0092 690.926 40.9227 691.079C40.8363 691.231 40.7134 691.359 40.565 691.452C40.4167 691.545 40.2476 691.599 40.0729 691.61C39.8983 691.621 39.7236 691.589 39.5647 691.516C39.4057 691.442 39.2675 691.331 39.1625 691.191L13.4151 706.306V737.649L-12.3892 752.793C-12.3342 752.923 -12.3098 753.065 -12.318 753.206C-12.3161 753.345 -12.3415 753.482 -12.3927 753.611C-12.444 753.739 -12.5201 753.857 -12.6167 753.956C-12.7133 754.055 -12.8285 754.134 -12.9557 754.189C-13.0829 754.244 -13.2196 754.273 -13.3581 754.275C-13.6391 754.271 -13.9072 754.157 -14.1046 753.957C-14.3019 753.757 -14.4125 753.487 -14.4125 753.206C-14.4162 753.064 -14.3869 752.922 -14.327 752.793L-40.2026 737.606V707.261C-40.4822 707.244 -40.7437 707.117 -40.9294 706.907C-41.1151 706.697 -41.2099 706.422 -41.1929 706.143C-41.1759 705.863 -41.0485 705.602 -40.8387 705.416C-40.6289 705.23 -40.354 705.135 -40.0743 705.152C-39.9112 705.154 -39.7508 705.195 -39.6069 705.272C-39.463 705.349 -39.3398 705.459 -39.2479 705.594L-13.5291 690.478V660.247C-13.7835 660.216 -14.0179 660.093 -14.1884 659.902C-14.3588 659.71 -14.4537 659.464 -14.4553 659.207C-14.4556 659.06 -14.4266 658.915 -14.3698 658.78L-40.2454 643.607V613.233C-40.501 613.199 -40.7355 613.073 -40.9058 612.88C-41.076 612.686 -41.1704 612.437 -41.1715 612.179C-41.1719 612.037 -41.1428 611.896 -41.086 611.766L-66.8191 596.665L-93.5353 612.336L-119.368 597.178C-119.459 597.309 -119.581 597.416 -119.722 597.49C-119.863 597.565 -120.021 597.604 -120.18 597.605C-120.46 597.622 -120.735 597.527 -120.945 597.341C-121.154 597.156 -121.282 596.894 -121.299 596.615C-121.316 596.335 -121.221 596.06 -121.035 595.851C-120.85 595.641 -120.588 595.513 -120.309 595.496V565.094L-94.5042 549.95C-94.5498 549.817 -94.5738 549.678 -94.5755 549.537C-94.5927 549.389 -94.5786 549.239 -94.5338 549.098C-94.489 548.956 -94.4148 548.825 -94.3159 548.714C-94.2169 548.603 -94.0956 548.514 -93.9599 548.453C-93.8241 548.392 -93.677 548.36 -93.5282 548.36C-93.3794 548.36 -93.2323 548.392 -93.0966 548.453C-92.9608 548.514 -92.8395 548.603 -92.7406 548.714C-92.6417 548.825 -92.5674 548.956 -92.5226 549.098C-92.4779 549.239 -92.4637 549.389 -92.4809 549.537C-92.4593 549.674 -92.4593 549.813 -92.4809 549.95L-66.8191 565.009L-41.0717 549.907C-41.1286 549.777 -41.1577 549.636 -41.1573 549.494C-41.1557 549.238 -41.0608 548.991 -40.8904 548.8C-40.7199 548.608 -40.4855 548.485 -40.2311 548.454V518.223L-65.9927 503.107C-66.0854 503.241 -66.2088 503.351 -66.3525 503.428C-66.4962 503.505 -66.6562 503.546 -66.8191 503.549C-66.9816 503.544 -67.1407 503.502 -67.2841 503.425C-67.4274 503.348 -67.5511 503.24 -67.6455 503.107L-93.5353 518.294L-120.323 502.623V472.178C-120.479 472.154 -120.628 472.096 -120.759 472.007C-120.89 471.918 -120.999 471.801 -121.079 471.664C-121.158 471.527 -121.206 471.374 -121.218 471.217C-121.23 471.059 -121.207 470.901 -121.149 470.753L-146.897 455.652L-173.613 471.323H-173.684L-199.503 456.165C-199.596 456.297 -199.72 456.405 -199.864 456.479C-200.008 456.553 -200.167 456.592 -200.329 456.592C-200.609 456.609 -200.884 456.514 -201.093 456.329C-201.303 456.143 -201.431 455.882 -201.448 455.602C-201.465 455.322 -201.37 455.048 -201.184 454.838C-200.998 454.628 -200.737 454.501 -200.457 454.484V424.024L-173.684 408.353H-173.613L-147.794 423.497C-147.701 423.365 -147.577 423.257 -147.433 423.183C-147.289 423.108 -147.13 423.069 -146.968 423.069C-146.806 423.069 -146.646 423.108 -146.502 423.183C-146.359 423.257 -146.235 423.365 -146.141 423.497L-120.394 408.353V378.136C-120.647 378.105 -120.88 377.981 -121.048 377.79C-121.216 377.598 -121.308 377.351 -121.306 377.096C-121.306 376.951 -121.282 376.806 -121.235 376.669L-147.096 361.496V329.997L-121.292 314.853C-121.337 314.72 -121.361 314.58 -121.363 314.44C-121.38 314.292 -121.366 314.142 -121.321 314C-121.277 313.858 -121.202 313.728 -121.103 313.616C-121.004 313.505 -120.883 313.416 -120.747 313.355C-120.612 313.295 -120.464 313.263 -120.316 313.263C-120.167 313.263 -120.02 313.295 -119.884 313.355C-119.748 313.416 -119.627 313.505 -119.528 313.616C-119.429 313.728 -119.355 313.858 -119.31 314C-119.265 314.142 -119.251 314.292 -119.268 314.44C-119.247 314.576 -119.247 314.716 -119.268 314.853L-94.3618 329.47C-94.2637 329.339 -94.1369 329.232 -93.9911 329.158C-93.8454 329.084 -93.6846 329.045 -93.5211 329.042C-93.3577 329.043 -93.1969 329.083 -93.0528 329.16C-92.9087 329.237 -92.7857 329.348 -92.6947 329.484L-66.9331 314.368V283.168L-93.5211 267.497L-119.254 282.613C-119.203 282.745 -119.174 282.884 -119.169 283.026C-119.169 283.305 -119.28 283.574 -119.478 283.771C-119.675 283.969 -119.943 284.08 -120.223 284.08C-120.503 284.08 -120.771 283.969 -120.969 283.771C-121.166 283.574 -121.277 283.305 -121.277 283.026C-121.3 282.889 -121.3 282.749 -121.277 282.613L-147.139 267.426V237.081C-147.393 237.049 -147.628 236.927 -147.798 236.735C-147.969 236.544 -148.063 236.297 -148.065 236.041C-148.067 235.9 -148.041 235.761 -147.989 235.631C-147.937 235.5 -147.86 235.381 -147.762 235.281C-147.664 235.18 -147.547 235.1 -147.418 235.045C-147.289 234.989 -147.151 234.96 -147.011 234.958C-146.848 234.963 -146.689 235.005 -146.546 235.082C-146.402 235.158 -146.279 235.267 -146.184 235.4L-120.252 220.198H-120.18L-94.3475 235.357C-94.257 235.224 -94.1361 235.115 -93.9948 235.038C-93.8536 234.961 -93.6961 234.919 -93.5353 234.915C-93.3724 234.918 -93.2125 234.959 -93.0687 235.036C-92.925 235.113 -92.8017 235.223 -92.7089 235.357L-66.9473 220.241V189.098L-92.7089 173.982C-92.8024 174.115 -92.9263 174.222 -93.0701 174.297C-93.2139 174.371 -93.3734 174.41 -93.5353 174.41C-93.695 174.409 -93.8522 174.369 -93.9935 174.295C-94.1349 174.221 -94.2563 174.113 -94.3475 173.982L-120.237 189.169L-146.056 174.025C-146.151 174.156 -146.275 174.262 -146.419 174.336C-146.562 174.411 -146.721 174.45 -146.882 174.453C-147.162 174.47 -147.437 174.375 -147.647 174.189C-147.856 174.003 -147.984 173.742 -148.001 173.462C-148.018 173.183 -147.923 172.908 -147.737 172.698C-147.552 172.488 -147.29 172.361 -147.011 172.344V142.07L-172.772 126.954C-172.864 127.089 -172.987 127.2 -173.131 127.277C-173.275 127.354 -173.435 127.395 -173.599 127.396C-173.761 127.391 -173.92 127.349 -174.064 127.272C-174.207 127.195 -174.331 127.087 -174.425 126.954L-200.315 142.156L-227.102 126.484V96.0251C-227.365 95.9824 -227.602 95.8433 -227.768 95.6351C-227.933 95.4268 -228.015 95.1643 -227.997 94.8989C-227.979 94.6335 -227.863 94.3843 -227.671 94.2C-227.479 94.0157 -227.226 93.9096 -226.96 93.9023C-226.799 93.9061 -226.642 93.9482 -226.5 94.025C-226.359 94.1018 -226.238 94.2111 -226.148 94.344L-200.386 79.0859H-200.315L-173.67 94.7571L-147.922 79.6557C-147.978 79.5201 -148.007 79.375 -148.008 79.2284C-148.006 78.9721 -147.911 78.7251 -147.741 78.5337C-147.571 78.3423 -147.336 78.2195 -147.082 78.1883V48.0426L-173.798 32.3713V1.98331C-173.936 1.97396 -174.072 1.93743 -174.196 1.87581C-174.32 1.81418 -174.431 1.72868 -174.523 1.62417C-174.614 1.51966 -174.684 1.39819 -174.728 1.2667C-174.773 1.13522 -174.791 0.996277 -174.781 0.857832C-174.772 0.719387 -174.735 0.584148 -174.674 0.45982C-174.612 0.335493 -174.527 0.224512 -174.422 0.133231C-174.317 0.0419493 -174.196 -0.0278492 -174.065 -0.0721874C-173.933 -0.116527 -173.794 -0.13453 -173.656 -0.125175C-173.496 -0.122996 -173.339 -0.0831413 -173.198 -0.00886345C-173.057 0.0654144 -172.935 0.172003 -172.843 0.302216L-146.954 -14.9416L-120.166 0.729618V31.2458C-119.91 31.2802 -119.676 31.4059 -119.506 31.5996C-119.335 31.7934 -119.241 32.0422 -119.24 32.3001C-119.246 32.4368 -119.275 32.5716 -119.325 32.699L-93.3929 47.8858V79.3851L-120.038 95.0563V125.273C-119.782 125.308 -119.548 125.433 -119.377 125.627C-119.207 125.821 -119.113 126.07 -119.112 126.328C-119.118 126.469 -119.147 126.608 -119.197 126.741L-93.4641 141.842L-67.7168 126.741C-67.7751 126.606 -67.8043 126.46 -67.8022 126.313C-67.8022 126.175 -67.775 126.038 -67.722 125.91C-67.669 125.782 -67.5913 125.666 -67.4934 125.568C-67.3955 125.47 -67.2793 125.392 -67.1514 125.339C-67.0234 125.286 -66.8863 125.259 -66.7478 125.259C-66.6094 125.259 -66.4723 125.286 -66.3443 125.339C-66.2164 125.392 -66.1002 125.47 -66.0023 125.568C-65.9044 125.666 -65.8267 125.782 -65.7737 125.91C-65.7207 126.038 -65.6935 126.175 -65.6935 126.313C-65.693 126.455 -65.7221 126.596 -65.779 126.726L-39.9746 141.913V172.301C-39.7202 172.333 -39.4858 172.455 -39.3154 172.647C-39.1449 172.838 -39.05 173.085 -39.0484 173.341C-39.048 173.484 -39.0771 173.624 -39.1339 173.754L-13.3866 188.856L13.1872 173.185V142.07L-12.5744 126.954C-12.6623 127.09 -12.7826 127.201 -12.9244 127.278C-13.0663 127.355 -13.2251 127.396 -13.3866 127.396C-13.6676 127.392 -13.9357 127.278 -14.1331 127.078C-14.3304 126.878 -14.441 126.609 -14.441 126.328C-14.4434 126.071 -14.352 125.822 -14.1842 125.628C-14.0163 125.434 -13.7834 125.308 -13.5291 125.273V95.0563L-40.2311 79.3851V48.9971C-40.4051 48.9786 -40.5718 48.9171 -40.7161 48.8182C-40.8604 48.7192 -40.9779 48.5859 -41.0578 48.4302C-41.1378 48.2746 -41.1777 48.1015 -41.174 47.9265C-41.1703 47.7516 -41.1231 47.5803 -41.0367 47.4282C-40.9503 47.276 -40.8274 47.1478 -40.679 47.055C-40.5307 46.9622 -40.3615 46.9077 -40.1869 46.8966C-40.0122 46.8855 -39.8376 46.918 -39.6786 46.9912C-39.5197 47.0644 -39.3815 47.176 -39.2764 47.316L-13.5291 32.2003V0.857832L12.3465 -14.3148C12.3236 -14.4563 12.3236 -14.6006 12.3465 -14.7422C12.3459 -15.0099 12.4471 -15.2678 12.6297 -15.4636C12.8123 -15.6593 13.0625 -15.7783 13.3296 -15.7964ZM-146.954 47.7434L-138.062 42.6004L-121.178 32.6277C-121.235 32.4974 -121.264 32.3567 -121.263 32.2146C-121.265 31.9596 -121.173 31.7128 -121.005 31.521C-120.837 31.3293 -120.604 31.206 -120.351 31.1746V1.01455L-146.925 -14.6567L-172.672 0.458929C-172.614 0.588694 -172.585 0.729757 -172.587 0.872082C-172.588 1.12837 -172.683 1.37532 -172.854 1.56674C-173.024 1.75815 -173.259 1.88092 -173.513 1.91209V32.2146L-146.954 47.7434ZM-137.963 84.3714L-120.237 94.7714L-93.6636 79.1001V48.0426L-119.425 32.9269C-119.519 33.0591 -119.643 33.1669 -119.786 33.2412C-119.93 33.3156 -120.09 33.3544 -120.252 33.3543C-120.411 33.3533 -120.568 33.3139 -120.71 33.2396C-120.851 33.1652 -120.973 33.058 -121.064 32.9269L-129.1 37.6425L-146.825 48.0426V78.2596C-146.57 78.294 -146.335 78.4196 -146.165 78.6134C-145.995 78.8072 -145.9 79.0559 -145.899 79.3138C-145.906 79.4506 -145.935 79.5853 -145.985 79.7127L-137.963 84.3714ZM-174.639 126.684C-174.697 126.549 -174.726 126.403 -174.724 126.256C-174.723 126 -174.628 125.753 -174.457 125.562C-174.287 125.37 -174.052 125.248 -173.798 125.216V95.0563L-200.386 79.3851L-226.119 94.4864C-226.072 94.6241 -226.048 94.7685 -226.048 94.9139C-226.046 95.1688 -226.138 95.4156 -226.306 95.6074C-226.474 95.7991 -226.707 95.9224 -226.96 95.9538V126.242L-200.386 141.913L-174.639 126.684ZM-146.954 141.785L-138.062 136.642L-121.178 126.669C-121.235 126.539 -121.264 126.399 -121.263 126.256C-121.266 126 -121.174 125.751 -121.006 125.557C-120.839 125.363 -120.606 125.237 -120.351 125.202V95.0563L-129.214 89.8563L-146.099 79.8837C-146.195 80.0161 -146.322 80.1239 -146.468 80.1981C-146.614 80.2724 -146.775 80.3111 -146.939 80.3111C-147.098 80.3067 -147.254 80.2659 -147.395 80.1918C-147.536 80.1177 -147.658 80.0123 -147.751 79.8837L-173.513 94.9993V125.216C-173.257 125.251 -173.023 125.376 -172.853 125.57C-172.682 125.764 -172.588 126.013 -172.587 126.271C-172.586 126.413 -172.616 126.553 -172.672 126.684L-146.954 141.785ZM-94.5042 173.698C-94.5258 173.561 -94.5258 173.421 -94.5042 173.284C-94.5062 173.029 -94.4144 172.783 -94.2462 172.591C-94.0781 172.399 -93.8454 172.276 -93.5923 172.244V142.07L-119.354 126.954C-119.442 127.09 -119.562 127.201 -119.704 127.278C-119.846 127.355 -120.005 127.396 -120.166 127.396C-120.329 127.396 -120.49 127.355 -120.634 127.278C-120.779 127.201 -120.901 127.09 -120.993 126.954L-129.029 131.67L-146.754 142.07V172.301C-146.5 172.333 -146.265 172.455 -146.095 172.647C-145.924 172.838 -145.829 173.085 -145.828 173.341C-145.827 173.484 -145.857 173.624 -145.913 173.754L-120.166 188.856L-94.5042 173.698ZM-66.8191 188.856L-57.9564 183.656L-41.0717 173.683C-41.1286 173.553 -41.1577 173.412 -41.1573 173.27C-41.1557 173.014 -41.0608 172.767 -40.8904 172.575C-40.7199 172.384 -40.4855 172.261 -40.2311 172.23V142.07L-65.9927 126.954C-66.0846 127.089 -66.2077 127.2 -66.3517 127.277C-66.4955 127.354 -66.6559 127.395 -66.8191 127.396C-66.9816 127.391 -67.1407 127.349 -67.2841 127.272C-67.4274 127.195 -67.5511 127.087 -67.6455 126.954L-93.3929 142.07V172.301C-93.1398 172.333 -92.9071 172.456 -92.739 172.648C-92.5708 172.84 -92.479 173.086 -92.4809 173.341C-92.4805 173.484 -92.5096 173.624 -92.5664 173.754L-66.8191 188.856ZM-66.6909 220.284L-57.8282 225.484L-40.1028 235.884L-14.3555 220.768C-14.4154 220.639 -14.4447 220.498 -14.441 220.355C-14.443 220.1 -14.3511 219.853 -14.183 219.662C-14.0149 219.47 -13.7822 219.347 -13.5291 219.315V189.098L-39.2764 173.982C-39.3698 174.115 -39.4937 174.223 -39.6375 174.297C-39.7813 174.372 -39.9409 174.411 -40.1028 174.411C-40.2648 174.411 -40.4244 174.372 -40.5682 174.297C-40.712 174.223 -40.8358 174.115 -40.9293 173.982L-48.9655 178.698L-66.6909 189.098V220.284ZM-13.3866 221.424C-13.5481 221.421 -13.7068 221.382 -13.8503 221.307C-13.9937 221.233 -14.1179 221.127 -14.213 220.996L-39.9746 236.112V266.343C-39.7202 266.374 -39.4858 266.497 -39.3154 266.688C-39.1449 266.88 -39.05 267.127 -39.0484 267.383C-39.048 267.525 -39.0771 267.666 -39.1339 267.796L-13.2584 282.983V313.357C-13.0844 313.375 -12.9177 313.437 -12.7733 313.536C-12.629 313.635 -12.5116 313.768 -12.4316 313.924C-12.3517 314.079 -12.3118 314.252 -12.3155 314.427C-12.3192 314.602 -12.3663 314.774 -12.4527 314.926C-12.5391 315.078 -12.6621 315.206 -12.8104 315.299C-12.9588 315.392 -13.1279 315.446 -13.3026 315.457C-13.4772 315.468 -13.6519 315.436 -13.8108 315.363C-13.9698 315.29 -14.108 315.178 -14.213 315.038L-39.9746 330.154V360.371C-39.7951 360.384 -39.6219 360.443 -39.4712 360.542C-39.3205 360.64 -39.1971 360.775 -39.1125 360.934C-39.028 361.093 -38.9849 361.271 -38.9873 361.451C-38.9898 361.631 -39.0377 361.807 -39.1266 361.964C-39.2155 362.12 -39.3425 362.252 -39.4958 362.346C-39.6492 362.44 -39.8239 362.494 -40.0037 362.503C-40.1835 362.512 -40.3626 362.475 -40.5245 362.396C-40.6863 362.317 -40.8255 362.199 -40.9293 362.052L-66.6909 377.182V407.399C-66.4378 407.43 -66.205 407.553 -66.0369 407.745C-65.8688 407.937 -65.777 408.184 -65.779 408.439C-65.7789 408.72 -65.8896 408.989 -66.0869 409.189C-66.2842 409.389 -66.5524 409.503 -66.8333 409.507C-66.9965 409.506 -67.1569 409.465 -67.3008 409.388C-67.4447 409.311 -67.5678 409.2 -67.6598 409.065L-93.4071 424.181V455.381L-66.8191 470.981L-41.0717 455.866C-41.1302 455.736 -41.1595 455.595 -41.1573 455.452C-41.1573 455.314 -41.13 455.177 -41.077 455.049C-41.024 454.921 -40.9463 454.805 -40.8484 454.707C-40.7505 454.609 -40.6343 454.531 -40.5063 454.478C-40.3784 454.425 -40.2413 454.398 -40.1028 454.398C-39.9644 454.398 -39.8273 454.425 -39.6993 454.478C-39.5714 454.531 -39.4552 454.609 -39.3573 454.707C-39.2594 454.805 -39.1817 454.921 -39.1287 455.049C-39.0757 455.177 -39.0484 455.314 -39.0484 455.452C-39.0462 455.595 -39.0754 455.736 -39.1339 455.866L-13.2584 471.052V501.426C-13.0041 501.461 -12.7712 501.587 -12.6033 501.781C-12.4354 501.975 -12.3441 502.224 -12.3465 502.48C-12.3411 502.622 -12.3654 502.762 -12.4177 502.894L12.5032 517.511C12.595 517.378 12.7175 517.27 12.8602 517.196C13.0029 517.121 13.1615 517.082 13.3225 517.082C13.4835 517.082 13.6422 517.121 13.7848 517.196C13.9275 517.27 14.05 517.378 14.1418 517.511L39.8891 502.395V472.164C39.6347 472.132 39.4003 472.01 39.2299 471.818C39.0594 471.627 38.9646 471.38 38.963 471.124C38.9695 470.982 38.9983 470.843 39.0485 470.711L13.1729 455.538V425.15C13.0344 425.141 12.8992 425.104 12.7748 425.042C12.6505 424.981 12.5395 424.895 12.4482 424.791C12.3569 424.686 12.2871 424.565 12.2427 424.433C12.1984 424.302 12.1804 424.163 12.1897 424.024C12.1991 423.886 12.2356 423.751 12.2973 423.626C12.3589 423.502 12.4444 423.391 12.549 423.3C12.6535 423.209 12.775 423.139 12.9065 423.094C13.038 423.05 13.1769 423.032 13.3154 423.041C13.4749 423.044 13.6316 423.083 13.7728 423.158C13.9139 423.232 14.0355 423.339 14.1276 423.469L39.8891 408.353V378.136C39.6335 378.102 39.399 377.976 39.2287 377.782C39.0585 377.589 38.9641 377.34 38.963 377.082C38.9667 376.8 39.0805 376.53 39.2801 376.33C39.4797 376.131 39.7494 376.017 40.0316 376.013C40.1921 376.018 40.3492 376.061 40.4903 376.138C40.6314 376.214 40.7524 376.323 40.8438 376.455L66.6196 361.339V331.108C66.3652 331.077 66.1309 330.954 65.9604 330.763C65.7899 330.571 65.695 330.324 65.6935 330.068C65.6935 329.787 65.8041 329.518 66.0014 329.318C66.1988 329.118 66.4669 329.003 66.7479 329C66.9113 329 67.0721 329.04 67.2162 329.117C67.3603 329.194 67.4833 329.306 67.5743 329.441L93.3359 314.326V283.126L66.7479 267.454L41.0148 282.57C41.0376 282.707 41.0376 282.846 41.0148 282.983C41.0148 283.263 40.9037 283.531 40.706 283.729C40.5082 283.926 40.24 284.037 39.9604 284.037C39.6807 284.037 39.4126 283.926 39.2148 283.729C39.0171 283.531 38.906 283.263 38.906 282.983C38.9109 282.842 38.9398 282.702 38.9915 282.57L13.1159 267.383V237.081C12.8629 237.043 12.6317 236.916 12.4644 236.723C12.297 236.529 12.2047 236.282 12.204 236.026C12.1824 235.889 12.1824 235.75 12.204 235.613L-12.7027 220.996C-12.7825 221.109 -12.8841 221.205 -13.0015 221.279C-13.119 221.352 -13.2499 221.401 -13.3866 221.424ZM-93.6636 267.298V237.081C-93.9167 237.049 -94.1494 236.926 -94.3175 236.734C-94.4856 236.542 -94.5774 236.296 -94.5755 236.041C-94.5984 235.899 -94.5984 235.755 -94.5755 235.613L-120.323 220.512L-146.056 235.613C-145.998 235.748 -145.968 235.894 -145.97 236.041C-145.972 236.297 -146.067 236.544 -146.237 236.735C-146.408 236.927 -146.642 237.049 -146.897 237.081V267.298L-121.135 282.413C-121.042 282.281 -120.918 282.173 -120.774 282.099C-120.63 282.025 -120.47 281.986 -120.309 281.986C-120.149 281.987 -119.992 282.026 -119.85 282.101C-119.709 282.175 -119.588 282.282 -119.496 282.413L-93.6636 267.298ZM-66.8191 282.898L-57.9564 277.698L-41.0717 267.725C-41.1286 267.595 -41.1577 267.454 -41.1573 267.312C-41.1588 267.055 -41.065 266.806 -40.894 266.614C-40.7229 266.422 -40.4868 266.3 -40.2311 266.272V236.112L-49.0938 230.912L-66.8191 220.512L-92.5664 235.613C-92.5091 235.761 -92.4857 235.919 -92.4979 236.077C-92.5101 236.234 -92.5577 236.387 -92.6371 236.524C-92.7164 236.661 -92.8256 236.778 -92.9564 236.867C-93.0872 236.956 -93.2364 237.014 -93.3929 237.038V267.255L-66.8191 282.898ZM-66.6909 314.326L-57.8282 319.526L-40.1028 329.911L-14.3555 314.81C-14.4123 314.68 -14.4415 314.539 -14.441 314.397C-14.443 314.142 -14.3511 313.895 -14.183 313.703C-14.0149 313.512 -13.7822 313.388 -13.5291 313.357V283.126L-39.2764 268.01C-39.3678 268.145 -39.4909 268.256 -39.635 268.332C-39.7791 268.409 -39.9397 268.449 -40.1028 268.449C-40.266 268.449 -40.4267 268.409 -40.5707 268.332C-40.7148 268.256 -40.8379 268.145 -40.9293 268.01L-48.9655 272.726L-66.6909 283.126V314.326ZM-92.5664 329.655C-92.5091 329.802 -92.4857 329.961 -92.4979 330.119C-92.5101 330.276 -92.5577 330.429 -92.6371 330.566C-92.7164 330.703 -92.8256 330.82 -92.9564 330.909C-93.0872 330.998 -93.2364 331.056 -93.3929 331.08V361.311L-66.8191 376.939L-41.0717 361.838C-41.1286 361.708 -41.1577 361.567 -41.1573 361.425C-41.1592 361.166 -41.0659 360.916 -40.8951 360.721C-40.7243 360.527 -40.4879 360.402 -40.2311 360.371V330.154L-49.0938 324.954L-66.8191 314.554L-92.5664 329.655ZM-120.266 376.028C-120.104 376.028 -119.944 376.066 -119.801 376.141C-119.657 376.215 -119.533 376.323 -119.439 376.455L-111.403 371.739L-93.6778 361.339V331.108C-93.9283 331.074 -94.1576 330.949 -94.3228 330.757C-94.4881 330.566 -94.5779 330.321 -94.5755 330.068C-94.5984 329.936 -94.5984 329.801 -94.5755 329.669L-119.511 315.038C-119.602 315.17 -119.725 315.278 -119.868 315.353C-120.01 315.428 -120.169 315.466 -120.33 315.466C-120.491 315.466 -120.65 315.428 -120.792 315.353C-120.935 315.278 -121.057 315.17 -121.149 315.038L-146.911 330.154V361.339L-121.149 376.455C-121.05 376.315 -120.917 376.202 -120.763 376.127C-120.608 376.052 -120.437 376.018 -120.266 376.028ZM-120.123 408.353L-111.261 413.553L-93.5496 423.953L-67.8022 408.852C-67.8591 408.721 -67.8882 408.581 -67.8878 408.439C-67.8862 408.182 -67.7913 407.935 -67.6208 407.744C-67.4504 407.553 -67.216 407.43 -66.9616 407.399V377.167L-93.5496 361.496L-102.412 366.696L-119.283 376.597C-119.26 376.739 -119.26 376.883 -119.283 377.025C-119.281 377.28 -119.373 377.527 -119.541 377.718C-119.709 377.91 -119.942 378.033 -120.195 378.065L-120.123 408.353ZM-147.096 455.367V425.15C-147.35 425.119 -147.585 424.996 -147.755 424.805C-147.926 424.613 -148.021 424.366 -148.022 424.11C-148.023 423.968 -147.994 423.827 -147.937 423.697L-173.684 408.595L-200.272 424.181V454.412C-200.018 454.444 -199.783 454.566 -199.613 454.758C-199.442 454.949 -199.347 455.196 -199.346 455.452C-199.344 455.595 -199.373 455.736 -199.431 455.866L-173.684 470.981L-147.096 455.367ZM-120.266 470.041C-120.103 470.044 -119.943 470.085 -119.799 470.162C-119.656 470.239 -119.532 470.349 -119.439 470.483L-111.403 465.753L-93.6778 455.367V424.167L-102.54 418.981L-120.266 408.581L-145.999 423.683C-145.942 423.813 -145.913 423.954 -145.913 424.096C-145.915 424.352 -146.01 424.599 -146.18 424.79C-146.351 424.982 -146.585 425.104 -146.84 425.136V455.367L-121.078 470.483C-120.985 470.353 -120.863 470.247 -120.722 470.173C-120.581 470.099 -120.425 470.058 -120.266 470.055V470.041ZM-67.8022 502.879C-67.8591 502.749 -67.8882 502.608 -67.8878 502.466C-67.8866 502.208 -67.7922 501.959 -67.622 501.766C-67.4518 501.572 -67.2172 501.446 -66.9616 501.412V471.209L-93.5496 455.609L-102.412 460.809L-119.283 470.711C-119.26 470.852 -119.26 470.996 -119.283 471.138C-119.281 471.393 -119.373 471.64 -119.541 471.831C-119.709 472.023 -119.942 472.147 -120.195 472.178V502.395L-93.6208 517.995L-67.8022 502.879ZM-40.1171 517.981L-31.1974 512.795L-14.3128 502.894C-14.3696 502.763 -14.3987 502.623 -14.3983 502.48C-14.4002 502.222 -14.3069 501.971 -14.1361 501.777C-13.9653 501.582 -13.729 501.458 -13.4721 501.426V471.209L-39.2337 456.094C-39.325 456.229 -39.4482 456.339 -39.5922 456.416C-39.7363 456.492 -39.897 456.532 -40.0601 456.532C-40.2233 456.532 -40.3839 456.492 -40.528 456.416C-40.6721 456.339 -40.7952 456.229 -40.8865 456.094L-66.6339 471.209V501.426C-66.3796 501.461 -66.1467 501.587 -65.9788 501.781C-65.8109 501.975 -65.7196 502.224 -65.722 502.48C-65.7215 502.623 -65.7506 502.763 -65.8074 502.894L-40.1171 517.981ZM-66.9616 596.422V565.251L-92.7231 550.135C-92.8167 550.267 -92.9405 550.375 -93.0843 550.45C-93.2281 550.524 -93.3877 550.563 -93.5496 550.563C-93.7111 550.56 -93.8698 550.521 -94.0133 550.446C-94.1567 550.372 -94.2809 550.266 -94.376 550.135L-120.123 565.251V595.468C-119.869 595.499 -119.635 595.622 -119.464 595.813C-119.294 596.005 -119.199 596.252 -119.197 596.508C-119.202 596.649 -119.231 596.789 -119.283 596.921L-93.5496 612.022L-66.9616 596.422ZM13.1729 706.292L4.32449 701.092L-13.4008 690.692L-39.1482 705.794C-39.0914 705.924 -39.0623 706.065 -39.0627 706.207C-39.0643 706.463 -39.1591 706.71 -39.3296 706.901C-39.5001 707.093 -39.7344 707.216 -39.9889 707.247V737.478L-14.2273 752.594C-14.1345 752.46 -14.0112 752.35 -13.8674 752.273C-13.7237 752.196 -13.5638 752.155 -13.4008 752.152C-13.2384 752.157 -13.0792 752.199 -12.9359 752.276C-12.7925 752.353 -12.6688 752.461 -12.5744 752.594L13.1729 737.478V706.292ZM13.3154 643.607L4.42422 648.95L-12.4604 658.851C-12.4081 658.987 -12.3839 659.133 -12.3892 659.278C-12.3873 659.533 -12.4791 659.78 -12.6472 659.972C-12.8153 660.164 -13.048 660.287 -13.3011 660.318V690.55L-4.43845 695.75L13.2869 706.136L39.0485 690.963C38.9983 690.831 38.9695 690.691 38.963 690.55C38.9646 690.293 39.0594 690.046 39.2299 689.855C39.4003 689.664 39.6347 689.541 39.8891 689.51V659.278L13.3154 643.607ZM-13.4008 596.593L-22.2635 601.793L-39.1482 611.695C-39.0914 611.825 -39.0623 611.966 -39.0627 612.108C-39.0638 612.366 -39.1582 612.615 -39.3284 612.808C-39.4987 613.002 -39.7332 613.128 -39.9889 613.162V643.379L-14.2273 658.495C-14.1338 658.363 -14.0099 658.255 -13.8661 658.181C-13.7223 658.106 -13.5628 658.067 -13.4008 658.068C-13.2394 658.07 -13.0806 658.109 -12.9372 658.184C-12.7937 658.258 -12.6695 658.364 -12.5744 658.495L-4.53818 653.779L13.1729 643.379V613.233C12.9199 613.196 12.6887 613.069 12.5213 612.875C12.354 612.682 12.2616 612.435 12.261 612.179C12.2394 612.042 12.2394 611.903 12.261 611.766L-13.4008 596.593ZM-13.5291 565.18L-22.3918 559.965L-39.2907 550.064C-39.3841 550.196 -39.5079 550.304 -39.6517 550.379C-39.7955 550.453 -39.9551 550.492 -40.1171 550.492C-40.2791 550.492 -40.4387 550.453 -40.5825 550.379C-40.7263 550.304 -40.8501 550.196 -40.9435 550.064L-66.6909 565.18V596.365L-40.9435 611.481C-40.8522 611.346 -40.7291 611.235 -40.585 611.159C-40.4409 611.082 -40.2802 611.042 -40.1171 611.042C-39.9539 611.042 -39.7933 611.082 -39.6492 611.159C-39.5051 611.235 -39.382 611.346 -39.2907 611.481L-31.1974 606.837L-13.4721 596.437L-13.5291 565.18ZM13.1729 549.337V519.192C12.9198 519.16 12.6871 519.037 12.519 518.845C12.3508 518.653 12.259 518.407 12.261 518.152C12.237 518.015 12.237 517.875 12.261 517.738L-12.6457 503.107C-12.7401 503.24 -12.8638 503.348 -13.0071 503.425C-13.1505 503.502 -13.3096 503.544 -13.4721 503.549C-13.635 503.546 -13.795 503.505 -13.9387 503.428C-14.0824 503.351 -14.2057 503.241 -14.2985 503.107L-22.3348 507.823L-40.0601 518.223V548.454C-39.8057 548.485 -39.5713 548.608 -39.4008 548.8C-39.2304 548.991 -39.1355 549.238 -39.1339 549.494C-39.1335 549.636 -39.1626 549.777 -39.2195 549.907L-31.1974 554.609L-13.4721 565.009L13.1729 549.337ZM146.911 690.706L138.02 695.963L121.135 705.865C121.192 705.995 121.221 706.136 121.221 706.278C121.216 706.533 121.12 706.779 120.95 706.969C120.78 707.16 120.548 707.284 120.294 707.318V737.549L146.911 753.078L172.558 737.977C172.53 737.84 172.53 737.7 172.558 737.563C172.56 737.307 172.655 737.06 172.825 736.869C172.996 736.677 173.23 736.555 173.485 736.523V706.292L146.911 690.706ZM137.906 654.078L120.195 643.678L93.6066 659.35V690.535L119.34 705.58C119.433 705.448 119.557 705.34 119.701 705.266C119.845 705.191 120.004 705.152 120.166 705.152C120.326 705.153 120.483 705.193 120.624 705.267C120.766 705.342 120.887 705.449 120.978 705.58L129.029 700.864L146.74 690.464V660.247C146.484 660.215 146.25 660.09 146.081 659.895C145.913 659.701 145.822 659.45 145.828 659.193C145.829 659.051 145.858 658.91 145.913 658.78L137.906 654.078ZM174.553 611.766C174.611 611.913 174.634 612.072 174.622 612.23C174.61 612.387 174.562 612.54 174.483 612.677C174.403 612.814 174.294 612.931 174.163 613.02C174.032 613.109 173.883 613.167 173.727 613.191V643.408L200.301 659.079L226.048 643.978C225.99 643.843 225.96 643.697 225.962 643.55C225.964 643.294 226.059 643.047 226.229 642.856C226.4 642.664 226.634 642.541 226.889 642.51V612.265L200.301 596.665L174.553 611.766ZM146.911 596.665L138.02 601.936L121.135 611.837C121.192 611.968 121.221 612.108 121.221 612.25C121.219 612.508 121.125 612.757 120.955 612.951C120.785 613.145 120.55 613.27 120.294 613.305V643.522L129.157 648.722L146.056 658.694C146.149 658.562 146.273 658.454 146.417 658.38C146.561 658.306 146.72 658.267 146.882 658.267C147.042 658.268 147.199 658.307 147.341 658.382C147.482 658.456 147.603 658.563 147.695 658.694L173.456 643.45V613.233C173.2 613.199 172.966 613.073 172.796 612.88C172.625 612.686 172.531 612.437 172.53 612.179C172.518 612.041 172.528 611.901 172.558 611.766L146.911 596.665ZM94.4473 564.752C94.5058 564.882 94.535 565.023 94.5328 565.165C94.5312 565.422 94.4363 565.669 94.2659 565.86C94.0954 566.051 93.861 566.174 93.6066 566.205V596.437L119.34 611.552C119.431 611.417 119.554 611.305 119.698 611.228C119.842 611.151 120.003 611.111 120.166 611.111C120.328 611.111 120.486 611.151 120.628 611.228C120.77 611.306 120.89 611.417 120.978 611.552L129.029 606.837L146.74 596.437V566.205C146.487 566.174 146.254 566.051 146.086 565.859C145.918 565.667 145.826 565.42 145.828 565.165C145.826 565.023 145.855 564.882 145.913 564.752L120.166 549.651L94.4473 564.752ZM66.7621 549.651L57.871 554.922L41.0005 564.824C41.0234 564.96 41.0234 565.1 41.0005 565.237C40.999 565.493 40.9041 565.74 40.7336 565.931C40.5632 566.123 40.3288 566.246 40.0744 566.277V596.508L65.9072 611.552C66.0022 611.417 66.128 611.307 66.2742 611.23C66.4204 611.153 66.5827 611.112 66.7479 611.111C66.9084 611.116 67.0655 611.158 67.2065 611.235C67.3476 611.312 67.4687 611.42 67.56 611.552L93.3216 596.437V566.205C93.0672 566.174 92.8328 566.051 92.6624 565.86C92.4919 565.669 92.397 565.422 92.3955 565.165C92.3933 565.023 92.4225 564.882 92.481 564.752L66.7621 549.651ZM66.6339 518.223L57.7712 513.023L40.0459 502.623L14.2986 517.738C14.3225 517.875 14.3225 518.015 14.2986 518.152C14.3005 518.407 14.2087 518.653 14.0406 518.845C13.8725 519.037 13.6397 519.16 13.3866 519.192V549.409L39.191 564.524C39.2875 564.392 39.414 564.284 39.5601 564.21C39.7061 564.136 39.8677 564.097 40.0316 564.097C40.1911 564.099 40.3479 564.139 40.489 564.213C40.6301 564.287 40.7517 564.394 40.8438 564.524L48.8801 559.809L66.6054 549.409L66.6339 518.223ZM93.6066 471.209V501.426C93.861 501.457 94.0954 501.58 94.2659 501.772C94.4363 501.963 94.5312 502.21 94.5328 502.466C94.5348 502.613 94.5057 502.759 94.4473 502.894L120.195 517.995L145.913 502.894C145.856 502.746 145.833 502.588 145.845 502.43C145.857 502.272 145.905 502.119 145.984 501.983C146.063 501.846 146.173 501.729 146.303 501.64C146.434 501.551 146.583 501.492 146.74 501.469V471.209L120.978 456.094C120.887 456.225 120.766 456.332 120.624 456.406C120.483 456.481 120.326 456.52 120.166 456.521C120.004 456.521 119.845 456.482 119.701 456.408C119.557 456.333 119.433 456.226 119.34 456.094L93.6066 471.209ZM66.7621 455.609L57.8994 460.809L41.029 470.711C41.0506 470.847 41.0506 470.987 41.029 471.124C41.0306 471.381 40.9368 471.629 40.7657 471.821C40.5947 472.014 40.3586 472.135 40.1029 472.164V502.395L48.9656 507.595L66.6909 517.995L92.481 502.894C92.4236 502.745 92.4005 502.586 92.4136 502.427C92.4266 502.268 92.4754 502.115 92.5563 501.978C92.6372 501.841 92.7481 501.724 92.8806 501.636C93.0132 501.547 93.1639 501.49 93.3216 501.469V471.209L66.7621 455.609ZM66.6339 424.181L57.7712 418.995L40.0459 408.595L14.2986 423.697C14.3202 423.834 14.3202 423.973 14.2986 424.11C14.3005 424.365 14.2087 424.612 14.0406 424.803C13.8725 424.995 13.6397 425.118 13.3866 425.15V455.381L39.191 470.497C39.2868 470.363 39.4128 470.253 39.5588 470.176C39.7048 470.099 39.8667 470.058 40.0316 470.055C40.1921 470.06 40.3492 470.103 40.4903 470.179C40.6314 470.256 40.7524 470.365 40.8438 470.497L48.8801 465.767L66.6054 455.381L66.6339 424.181ZM92.481 408.852C92.4241 408.721 92.395 408.581 92.3955 408.439C92.3936 408.18 92.4869 407.929 92.6577 407.735C92.8284 407.541 93.0648 407.416 93.3216 407.384V377.167L66.7336 361.496L41.0005 376.597C41.0221 376.734 41.0221 376.874 41.0005 377.011C41.0025 377.269 40.9091 377.52 40.7384 377.714C40.5676 377.909 40.3313 378.033 40.0744 378.065V408.282L48.9371 413.482L66.6624 423.882L92.481 408.852ZM120.18 362.479C120.018 362.479 119.859 362.44 119.715 362.366C119.571 362.292 119.447 362.184 119.354 362.052L111.289 366.767L93.5639 377.167V407.399C93.817 407.43 94.0497 407.553 94.2178 407.745C94.3859 407.937 94.4777 408.184 94.4758 408.439C94.4778 408.576 94.4485 408.713 94.3903 408.838L119.325 423.469C119.419 423.337 119.543 423.229 119.687 423.154C119.83 423.08 119.99 423.041 120.152 423.041C120.312 423.042 120.469 423.082 120.61 423.156C120.751 423.231 120.873 423.338 120.964 423.469L146.754 408.353V377.167L120.993 362.052C120.901 362.183 120.78 362.29 120.639 362.364C120.497 362.439 120.34 362.478 120.18 362.479ZM120.038 330.154L111.175 324.954L93.4641 314.554L67.7168 329.655C67.7736 329.785 67.8027 329.926 67.8023 330.068C67.8007 330.324 67.7058 330.571 67.5354 330.763C67.3649 330.954 67.1305 331.077 66.8761 331.108V361.339L93.4641 376.939L102.327 371.739L119.211 361.838C119.154 361.691 119.131 361.532 119.143 361.375C119.155 361.217 119.203 361.064 119.282 360.927C119.361 360.79 119.471 360.673 119.601 360.584C119.732 360.495 119.881 360.437 120.038 360.413V330.154ZM147.025 283.14V313.371C147.278 313.403 147.511 313.526 147.679 313.718C147.847 313.909 147.939 314.156 147.937 314.411C147.937 314.553 147.908 314.694 147.851 314.824L173.599 329.911L200.187 314.326V284.094C199.932 284.063 199.698 283.94 199.527 283.749C199.357 283.558 199.262 283.311 199.26 283.054C199.258 282.912 199.287 282.771 199.346 282.641L173.599 267.526L147.025 283.14ZM120.18 268.466C120.017 268.463 119.857 268.422 119.714 268.345C119.57 268.268 119.447 268.158 119.354 268.024L111.289 272.726L93.5639 283.126V314.326L102.427 319.526L120.152 329.911L145.913 314.81C145.863 314.678 145.834 314.538 145.828 314.397C145.83 314.141 145.924 313.894 146.095 313.702C146.265 313.511 146.5 313.388 146.754 313.357V283.126L120.993 268.01C120.902 268.143 120.781 268.252 120.64 268.329C120.499 268.406 120.341 268.448 120.18 268.452V268.466ZM67.7168 235.627C67.7736 235.758 67.8027 235.898 67.8023 236.041C67.8011 236.298 67.7068 236.547 67.5365 236.741C67.3663 236.935 67.1317 237.06 66.8761 237.095V267.312L93.4641 282.898L102.327 277.698L119.211 267.725C119.154 267.578 119.131 267.419 119.143 267.261C119.155 267.104 119.203 266.951 119.282 266.814C119.361 266.677 119.471 266.56 119.601 266.471C119.732 266.382 119.881 266.324 120.038 266.3V236.112L93.4641 220.512L67.7168 235.627ZM40.0459 220.512L31.1975 225.712L14.3128 235.684C14.3344 235.821 14.3344 235.961 14.3128 236.098C14.3121 236.353 14.2198 236.6 14.0524 236.794C13.8851 236.987 13.6539 237.114 13.4009 237.152V267.369L39.2052 282.413C39.2966 282.278 39.4197 282.167 39.5638 282.091C39.7078 282.014 39.8685 281.974 40.0316 281.974C40.1948 281.974 40.3554 282.014 40.4995 282.091C40.6436 282.167 40.7667 282.278 40.8581 282.413L66.6196 267.298V237.081C66.364 237.046 66.1294 236.921 65.9592 236.727C65.789 236.533 65.6946 236.284 65.6935 236.026C65.693 235.884 65.7221 235.744 65.779 235.613L40.0459 220.512ZM39.077 188.599L31.055 183.898L13.3439 173.498L-13.2441 189.098V219.315C-12.991 219.347 -12.7583 219.47 -12.5902 219.662C-12.4221 219.853 -12.3303 220.1 -12.3322 220.355C-12.3011 220.491 -12.3011 220.632 -12.3322 220.768L12.5887 235.4C12.6784 235.264 12.8001 235.153 12.9431 235.077C13.086 235 13.2458 234.96 13.408 234.96C13.5703 234.96 13.73 235 13.8729 235.077C14.0159 235.153 14.1376 235.264 14.2273 235.4L22.2635 230.684L39.9889 220.284V190.067C39.7345 190.03 39.5016 189.903 39.3319 189.71C39.1622 189.517 39.0668 189.27 39.0627 189.013C39.0413 188.876 39.0413 188.736 39.0627 188.599H39.077ZM66.8761 142.07V173.256L92.6377 188.386C92.729 188.251 92.8522 188.14 92.9962 188.063C93.1403 187.987 93.301 187.947 93.4641 187.947C93.6273 187.947 93.7879 187.987 93.932 188.063C94.0761 188.14 94.1992 188.251 94.2905 188.386L120.038 173.256V143.039C119.785 143.007 119.552 142.884 119.384 142.692C119.216 142.501 119.124 142.254 119.126 141.999C119.124 141.857 119.153 141.715 119.211 141.586L93.4641 126.484L66.8761 142.07ZM40.0459 127.396C39.8827 127.395 39.7224 127.354 39.5785 127.277C39.4346 127.2 39.3114 127.089 39.2195 126.954L31.1975 131.67L13.4721 142.07V173.256L22.3348 178.47L39.2195 188.443C39.3108 188.308 39.4339 188.197 39.578 188.12C39.7221 188.044 39.8827 188.004 40.0459 188.004C40.209 188.004 40.3697 188.044 40.5138 188.12C40.6578 188.197 40.781 188.308 40.8723 188.443L66.6196 173.256V142.07L40.8581 126.954C40.7675 127.087 40.6466 127.197 40.5054 127.273C40.3642 127.35 40.2066 127.392 40.0459 127.396ZM13.3439 80.3823C13.182 80.3824 13.0224 80.3436 12.8786 80.2692C12.7348 80.1949 12.611 80.0871 12.5175 79.9549L4.48123 84.6705L-13.2441 95.0706V125.288C-12.9898 125.322 -12.7569 125.448 -12.5891 125.643C-12.4212 125.837 -12.3298 126.085 -12.3322 126.342C-12.3038 126.478 -12.3038 126.619 -12.3322 126.755L13.4151 141.856L22.2635 136.656L39.1482 126.684C39.0981 126.551 39.0692 126.412 39.0627 126.271C39.0639 126.013 39.1582 125.764 39.3285 125.57C39.4987 125.376 39.7333 125.251 39.9889 125.216V95.0563L14.2273 79.9407C14.1271 80.0832 13.9919 80.1974 13.8346 80.2722C13.6773 80.3471 13.5034 80.3801 13.3296 80.3681L13.3439 80.3823ZM13.2014 48.0426L4.33873 42.8425L-13.3724 32.4568L-39.1197 47.5582C-39.0629 47.6885 -39.0338 47.8292 -39.0342 47.9713C-39.0358 48.2276 -39.1306 48.4746 -39.3011 48.666C-39.4716 48.8574 -39.7059 48.9802 -39.9604 49.0113V79.2284L-13.3724 94.8996L-4.5097 89.6996L12.3607 79.727C12.3392 79.5853 12.3392 79.4412 12.3607 79.2996C12.3588 79.0446 12.4506 78.7978 12.6187 78.606C12.7868 78.4143 13.0196 78.291 13.2726 78.2596L13.2014 48.0426ZM13.3439 -13.6594C13.182 -13.6594 13.0224 -13.6981 12.8786 -13.7725C12.7348 -13.8469 12.611 -13.9547 12.5175 -14.0868L-13.2584 1.01455V32.2003L-4.39571 37.4003L13.3296 47.7434L39.0627 32.642C39.0126 32.5097 38.9837 32.3702 38.9772 32.2288C38.9788 31.9725 39.0737 31.7256 39.2442 31.5342C39.4146 31.3428 39.649 31.22 39.9034 31.1888V1.01455L14.1418 -14.1011C14.0497 -13.9709 13.9281 -13.8643 13.787 -13.79C13.6458 -13.7157 13.4891 -13.6759 13.3296 -13.6737L13.3439 -13.6594Z" fill="#0C478B"/>
</g>
</svg>
