<svg width="197" height="631" viewBox="0 0 197 631" fill="none" xmlns="http://www.w3.org/2000/svg">
<g opacity="0.1">
<path opacity="0.3" d="M-47.6954 248.716L-13.5529 268.745L20.6084 248.716V208.621L-13.5529 188.593L-47.6954 208.621V248.716Z" fill="#FDCE25"/>
<path opacity="0.6" d="M-11.8129 185.529L22.3484 205.576L56.5098 185.529V145.453L22.3484 125.405L-11.8129 145.453V185.529Z" fill="#FDCE25"/>
<path opacity="0.3" d="M-47.6954 122.341L-13.5529 142.389L20.6084 122.341V82.2653L-13.5529 62.2178L-47.6954 82.2653V122.341Z" fill="#FDCE25"/>
<path opacity="0.3" d="M-47.6954 375.073L-13.5529 395.101L20.6084 375.073V334.978L-13.5529 314.949L-47.6954 334.978V375.073Z" fill="#FDCE25"/>
<path opacity="0.6" d="M24.0885 375.073L58.2498 395.101L92.4111 375.073V334.978L58.2498 314.949L24.0885 334.978V375.073Z" fill="#FDCE25"/>
<path opacity="0.1" d="M-11.8129 438.241L22.3484 458.289L56.5098 438.241V398.165L22.3484 378.137L-11.8129 398.165V438.241Z" fill="#FDCE25"/>
<path opacity="0.6" d="M24.0885 501.428L58.2498 521.476L92.4111 501.428V461.352L58.2498 441.305L24.0885 461.352V501.428Z" fill="#FDCE25"/>
</g>
<path d="M-53.1627 -6H-53.0681L-17.526 14.804V56.7902L-52.9168 77.5942V119.013L-17.4503 139.817V181.425L17.846 202.229L53.3125 181.425L88.8735 202.229V244.045L53.3314 264.849H53.2368L17.8649 244.045L-17.4314 264.736V306.154L17.7514 326.958L53.2179 306.154L88.779 326.958V368.566L124.132 389.389L159.598 368.585L195.141 389.389V431.205L159.58 452.009L124.189 431.205L88.9114 452.009V493.409L124.378 514.213V556.029L88.8357 576.833L53.2746 556.029V514.421L17.827 493.617V451.915L53.199 431.111V389.692L17.9216 368.888L-17.5449 389.692L-53.0871 368.888V327.28L-88.3644 306.571L-123.661 327.28V368.68L-88.1942 389.484V431.3L-123.566 452.104V493.712H-123.661L-159.203 514.516H-159.297L-194.84 493.712V451.915H-194.745L-159.373 431.111V389.692L-194.669 368.888L-230.136 389.692L-265.697 368.888V327.072H-265.602L-230.06 306.268H-229.966L-194.594 327.072L-159.297 306.381V264.963L-195.029 244.159L-230.495 264.963L-266.056 244.159V202.551L-301.334 181.747L-336.8 202.551L-372.342 181.747V139.817H-372.248L-336.895 118.824H-336.8L-301.428 139.628L-266.132 119.013V77.5942L-301.58 56.7902V14.9742L-266.018 -5.82979L-230.457 14.9742V56.5822L-195.01 77.3862V119.202L-230.382 140.006V181.425L-195.104 202.229L-159.638 181.425H-159.543L-124.001 202.229V243.837L-88.7049 264.528L-53.3519 243.856V202.437L-88.8184 181.633V140.025L-124.285 119.221V77.3862L-88.9129 56.5822V14.9742L-53.1627 -6ZM-265.924 77.216L-254.158 70.3128L-230.647 56.5065V15.1822L-265.924 -5.62174L-301.22 15.1822V56.5822L-265.924 77.216ZM-265.754 118.937L-253.988 125.822L-230.495 139.628L-195.199 119.013V77.5942L-230.495 56.9037L-242.317 63.8069L-265.829 77.5942L-265.754 118.937ZM-301.561 181.349V140.025L-336.857 119.221L-372.134 140.025V181.425L-336.857 202.229L-301.561 181.349ZM-265.924 202.153L-254.158 195.25L-230.647 181.444V140.025L-242.412 133.122L-265.924 119.316L-301.22 140.12V181.425L-265.924 202.153ZM-195.18 243.875V202.456L-230.476 181.652L-242.242 188.555L-265.754 202.361V243.78L-230.476 264.471L-195.18 243.875ZM-159.543 264.565L-147.74 257.643L-124.228 243.856V202.437L-159.505 181.633L-194.802 202.437V243.856L-159.543 264.565ZM-195.18 368.699V327.28L-230.476 306.571L-265.754 327.28V368.68L-230.476 389.389L-195.18 368.699ZM-124.285 452.123L-136.031 445.22L-159.562 431.413L-194.858 452.217V493.617L-159.562 514.327L-124.285 493.523V452.123ZM-124.096 368.907L-135.861 375.81L-159.392 389.616V431.035L-147.627 437.919L-124.096 451.726L-88.8184 431.035V389.616L-124.096 368.907ZM-124.285 327.204L-136.031 320.301L-159.562 306.495L-194.858 327.204V368.604L-159.562 389.314L-147.74 382.486L-124.228 368.68L-124.285 327.204ZM-88.8184 306.192V264.773L-124.096 244.083L-135.861 250.986L-159.392 264.773V306.192L-147.627 313.095L-124.096 326.883L-88.8184 306.192ZM88.7033 493.825L76.9379 500.729L53.407 514.535V555.935L88.7033 576.644L123.962 555.935V514.535L88.7033 493.825ZM88.5141 452.217L76.7487 445.314L53.2368 431.508L17.9405 452.312V493.712L53.2179 514.213L64.9833 507.329L88.4952 493.523L88.5141 452.217ZM124.34 389.805V431.224L159.617 451.915L194.914 431.224V389.805L159.617 369.001L124.34 389.805ZM88.7033 369.001L76.9379 375.905L53.407 389.711V431.13L65.1725 438.014L88.7033 451.801L123.962 431.111V389.692L88.7033 369.001ZM17.9405 327.299V368.699L53.2179 389.389L64.9833 382.486L88.4952 368.68V327.28L53.2179 306.571L17.9405 327.299ZM-17.6962 306.589L-29.4616 313.493L-52.9925 327.299V368.699L-17.7151 389.389L17.5811 368.68V327.28L-17.6962 306.589ZM-17.8665 264.868L-29.6319 257.984L-53.1627 244.159L-88.4401 264.849V306.268L-53.1627 326.958L-41.3973 320.074L-17.8665 306.268V264.868ZM17.9405 202.456V243.875L53.2179 264.546L88.4952 243.856V202.437L53.2179 181.633L17.9405 202.456ZM-17.6962 181.652L-29.4616 188.555L-52.9925 202.361V243.78L-41.2271 250.665L-17.6962 264.471L17.5811 243.856V202.437L-17.6962 181.652ZM-53.1627 119.24L-64.9092 126.143L-88.4401 139.949V181.425L-53.1627 202.135L-41.3973 195.231L-17.8665 181.425V140.025L-53.1627 119.24ZM-53.3329 77.5186L-65.0984 70.6343L-88.6103 56.8281L-123.907 77.5186V118.937L-88.6292 139.628L-76.8827 132.744L-53.3519 119.013L-53.3329 77.5186ZM-53.1627 -5.52718L-88.4401 15.2768V56.5822L-76.6746 63.4853L-53.1627 77.216L-17.8665 56.412V15.1822L-53.1627 -5.52718Z" fill="#FDCE25"/>
<path d="M-88.6289 13.6689C-88.2609 13.6739 -87.9097 13.8236 -87.6513 14.0855C-87.3929 14.3474 -87.248 14.7006 -87.248 15.0685C-87.2177 15.2564 -87.2177 15.448 -87.248 15.6359L-53.011 35.7779V76.1187C-52.6733 76.1601 -52.3622 76.3231 -52.1359 76.5772C-51.9096 76.8313 -51.7836 77.1591 -51.7815 77.4994C-51.7815 77.8723 -51.9284 78.2303 -52.1903 78.4958C-52.4523 78.7612 -52.8083 78.9129 -53.1813 78.9178C-53.3979 78.9158 -53.6108 78.8614 -53.8018 78.7593C-53.9929 78.6572 -54.1564 78.5105 -54.2784 78.3315L-88.4586 98.3979V138.531C-88.1227 138.572 -87.8137 138.736 -87.5905 138.991C-87.3673 139.245 -87.2455 139.573 -87.248 139.911C-87.2195 140.099 -87.2195 140.291 -87.248 140.479L-53.011 160.621V200.943C-52.67 200.984 -52.3563 201.15 -52.1296 201.408C-51.9029 201.666 -51.779 201.999 -51.7815 202.342C-51.7809 202.531 -51.8196 202.718 -51.895 202.891L-17.7148 222.938L17.7517 202.134L52.1211 222.295C52.2452 222.12 52.4097 221.977 52.6006 221.878C52.7915 221.779 53.0033 221.728 53.2182 221.728C53.5895 221.705 53.9545 221.831 54.2329 222.078C54.5114 222.324 54.6805 222.671 54.7031 223.042C54.7257 223.413 54.5999 223.778 54.3533 224.057C54.1068 224.335 53.7597 224.504 53.3885 224.527V264.849L19.1325 284.953C19.208 285.126 19.2466 285.313 19.246 285.501C19.246 285.873 19.0986 286.229 18.8361 286.491C18.5736 286.754 18.2175 286.901 17.8463 286.901C17.4751 286.901 17.119 286.754 16.8565 286.491C16.594 286.229 16.4465 285.873 16.4465 285.501C16.446 285.313 16.4846 285.126 16.56 284.953L-17.6202 264.906L-51.7815 284.953C-51.7528 285.135 -51.7528 285.32 -51.7815 285.501C-51.783 285.844 -51.9083 286.174 -52.1343 286.431C-52.3603 286.689 -52.6717 286.855 -53.011 286.901V327.015L-18.8119 347.138C-18.6866 346.962 -18.5224 346.818 -18.332 346.716C-18.1417 346.615 -17.9305 346.558 -17.7148 346.552C-17.4985 346.555 -17.2862 346.61 -17.0954 346.712C-16.9046 346.814 -16.7408 346.96 -16.6177 347.138L17.7517 326.958L53.3128 347.762V388.084C53.6506 388.125 53.9617 388.288 54.188 388.543C54.4143 388.797 54.5402 389.124 54.5423 389.465C54.5357 389.659 54.4974 389.85 54.4288 390.032L88.7036 410.193L124.151 389.389L158.502 409.55C158.628 409.377 158.793 409.235 158.983 409.137C159.174 409.038 159.384 408.986 159.599 408.983C159.784 408.983 159.968 409.019 160.139 409.091C160.31 409.162 160.465 409.267 160.595 409.399C160.726 409.531 160.828 409.688 160.897 409.86C160.967 410.032 161.001 410.216 160.999 410.401C160.996 410.741 160.871 411.069 160.644 411.323C160.418 411.577 160.107 411.74 159.769 411.782V452.123L124.208 472.927L89.9142 452.803C89.7923 452.979 89.6297 453.122 89.4403 453.221C89.2509 453.321 89.0403 453.372 88.8266 453.372C88.6128 453.372 88.4023 453.321 88.2129 453.221C88.0235 453.122 87.8609 452.979 87.739 452.803L53.5398 472.87V512.984C53.8775 513.025 54.1887 513.188 54.415 513.442C54.6413 513.696 54.7672 514.024 54.7693 514.364C54.7627 514.558 54.7243 514.75 54.6558 514.932L88.855 535.13V576.947L54.599 597.051C54.6656 597.226 54.7039 597.411 54.7125 597.599C54.7125 597.97 54.5651 598.326 54.3026 598.589C54.0401 598.851 53.684 598.999 53.3128 598.999C52.9416 598.999 52.5855 598.851 52.323 598.589C52.0605 598.326 51.9131 597.97 51.9131 597.599C51.9125 597.41 51.9511 597.224 52.0265 597.051L18.9434 577.646C18.8132 577.82 18.6449 577.961 18.4514 578.06C18.2579 578.158 18.0444 578.211 17.8274 578.214C17.6108 578.212 17.3979 578.157 17.2068 578.055C17.0158 577.953 16.8523 577.806 16.7303 577.627L-17.4689 597.694V639.113L17.7328 659.879L51.9131 639.812C51.8354 639.64 51.7966 639.453 51.7996 639.264C51.7996 638.893 51.947 638.537 52.2095 638.274C52.472 638.012 52.8281 637.864 53.1993 637.864C53.5705 637.864 53.9266 638.012 54.1891 638.274C54.4516 638.537 54.599 638.893 54.599 639.264C54.602 639.453 54.5632 639.64 54.4856 639.812L88.836 659.973V700.295C89.172 700.337 89.481 700.501 89.7041 700.755C89.9273 701.01 90.0492 701.337 90.0466 701.676C90.0517 702.049 89.9097 702.409 89.6512 702.678C89.3928 702.947 89.0388 703.103 88.6658 703.113C88.4492 703.111 88.2363 703.057 88.0453 702.955C87.8542 702.853 87.6907 702.706 87.5687 702.527L53.1993 722.688L18.9245 702.565C18.8032 702.744 18.6398 702.891 18.4485 702.993C18.2572 703.094 18.044 703.147 17.8274 703.147C17.6108 703.147 17.3975 703.094 17.2063 702.993C17.015 702.891 16.8515 702.744 16.7303 702.565L-17.4689 722.631V764.031L16.6357 784.06C16.7597 783.884 16.9241 783.741 17.115 783.642C17.3059 783.543 17.5178 783.491 17.7328 783.491C17.9478 783.491 18.1597 783.543 18.3506 783.642C18.5415 783.741 18.7059 783.884 18.8299 784.06L53.1993 763.899L87.5687 784.06C87.6917 783.883 87.8559 783.739 88.047 783.64C88.2382 783.541 88.4506 783.491 88.6658 783.492C89.037 783.47 89.402 783.596 89.6805 783.842C89.959 784.089 90.1281 784.436 90.1507 784.807C90.1732 785.178 90.0474 785.543 89.8009 785.821C89.5543 786.1 89.2073 786.269 88.836 786.291V826.424L123.035 846.491C123.156 846.31 123.319 846.163 123.511 846.061C123.702 845.958 123.915 845.905 124.132 845.904C124.345 845.911 124.554 845.967 124.741 846.069C124.928 846.171 125.089 846.315 125.21 846.491L159.58 826.311L195.122 847.115V887.437C195.461 887.482 195.773 887.649 195.999 887.906C196.225 888.164 196.35 888.494 196.352 888.836C196.347 889.211 196.196 889.569 195.931 889.834C195.666 890.099 195.308 890.25 194.933 890.255C194.721 890.244 194.514 890.186 194.327 890.084C194.141 889.983 193.979 889.841 193.855 889.668L159.485 909.848H159.391L124.019 889.044L89.8575 909.092C89.9178 909.275 89.9497 909.466 89.9521 909.659C89.9546 909.998 89.8328 910.325 89.6096 910.58C89.3864 910.834 89.0774 910.998 88.7415 911.04V951.154L124.208 971.958V1012.28C124.579 1012.3 124.925 1012.48 125.17 1012.76C125.415 1013.04 125.538 1013.4 125.513 1013.77C125.488 1014.14 125.317 1014.49 125.036 1014.74C124.756 1014.98 124.39 1015.1 124.019 1015.08C123.807 1015.08 123.598 1015.02 123.411 1014.93C123.223 1014.83 123.062 1014.69 122.941 1014.51L88.7036 1034.79H88.6091L53.048 1013.98V973.546C52.712 973.505 52.4031 973.341 52.1799 973.086C51.9567 972.832 51.8348 972.504 51.8374 972.166C51.8345 971.977 51.8732 971.789 51.9509 971.617L17.6004 951.456V909.64L52.9723 888.836V848.722C52.6364 848.672 52.3295 848.504 52.1074 848.247C51.8852 847.99 51.7626 847.662 51.7617 847.323C51.7611 847.134 51.7998 846.947 51.8752 846.774L17.695 826.727L-16.4853 846.774C-16.4105 846.986 -16.3868 847.212 -16.4163 847.434C-16.4458 847.656 -16.5276 847.869 -16.655 848.053C-16.7824 848.238 -16.9517 848.389 -17.1491 848.496C-17.3464 848.602 -17.5663 848.66 -17.7905 848.666C-17.9743 848.663 -18.1558 848.625 -18.3247 848.552C-18.4936 848.479 -18.6465 848.374 -18.7747 848.242C-18.9029 848.111 -19.004 847.955 -19.072 847.784C-19.14 847.613 -19.1738 847.431 -19.1713 847.247C-19.1719 847.058 -19.1332 846.872 -19.0578 846.699L-53.4082 826.538V786.291C-53.746 786.25 -54.0572 786.087 -54.2835 785.833C-54.5098 785.579 -54.6357 785.251 -54.6378 784.911C-54.6312 784.723 -54.5928 784.537 -54.5243 784.362L-88.6856 764.315L-123.982 785.024V826.424L-89.7827 846.491C-89.6619 846.31 -89.4986 846.163 -89.3073 846.061C-89.116 845.958 -88.9025 845.905 -88.6856 845.904C-88.3338 845.918 -87.9995 846.062 -87.7479 846.308C-87.4962 846.554 -87.345 846.885 -87.3238 847.236C-87.3026 847.588 -87.4128 847.934 -87.633 848.209C-87.8532 848.484 -88.1678 848.667 -88.5154 848.722V888.836L-53.0678 909.64V949.981C-52.8368 950.005 -52.6155 950.087 -52.4239 950.219C-52.2323 950.35 -52.0764 950.527 -51.9703 950.733C-51.8642 950.94 -51.8112 951.17 -51.8161 951.402C-51.821 951.634 -51.8836 951.862 -51.9983 952.064C-52.113 952.266 -52.2762 952.436 -52.4732 952.559C-52.6701 952.682 -52.8946 952.755 -53.1265 952.77C-53.3583 952.784 -53.5902 952.741 -53.8012 952.644C-54.0122 952.547 -54.1957 952.399 -54.3351 952.213L-88.5154 972.279V1013.89L-122.771 1033.99C-122.698 1034.16 -122.666 1034.35 -122.677 1034.54C-122.674 1034.72 -122.708 1034.91 -122.776 1035.08C-122.844 1035.25 -122.945 1035.4 -123.073 1035.53C-123.202 1035.67 -123.354 1035.77 -123.523 1035.84C-123.692 1035.92 -123.874 1035.96 -124.058 1035.96C-124.431 1035.95 -124.786 1035.8 -125.048 1035.54C-125.31 1035.27 -125.457 1034.91 -125.457 1034.54C-125.462 1034.35 -125.423 1034.16 -125.344 1033.99L-159.694 1013.83V973.546C-160.066 973.524 -160.413 973.355 -160.659 973.076C-160.906 972.798 -161.031 972.433 -161.009 972.062C-160.986 971.69 -160.817 971.344 -160.539 971.097C-160.26 970.85 -159.895 970.725 -159.524 970.747C-159.307 970.749 -159.095 970.804 -158.904 970.906C-158.712 971.008 -158.549 971.155 -158.427 971.333L-124.285 951.267V911.134C-124.622 911.093 -124.933 910.93 -125.16 910.676C-125.386 910.422 -125.512 910.094 -125.514 909.754C-125.515 909.559 -125.476 909.366 -125.401 909.186L-159.751 889.044V848.722C-160.09 848.677 -160.402 848.51 -160.628 848.253C-160.854 847.995 -160.979 847.665 -160.981 847.323C-160.981 847.134 -160.942 846.947 -160.867 846.774L-195.028 826.727L-230.495 847.531L-264.789 827.408C-264.91 827.582 -265.071 827.724 -265.259 827.823C-265.446 827.921 -265.655 827.974 -265.867 827.975C-266.238 827.998 -266.603 827.872 -266.882 827.625C-267.16 827.379 -267.329 827.032 -267.352 826.661C-267.374 826.289 -267.248 825.924 -267.002 825.646C-266.755 825.368 -266.408 825.199 -266.037 825.176V784.816L-231.781 764.712C-231.842 764.535 -231.873 764.35 -231.876 764.164C-231.899 763.967 -231.88 763.769 -231.82 763.58C-231.761 763.392 -231.662 763.218 -231.531 763.071C-231.4 762.923 -231.239 762.805 -231.058 762.724C-230.878 762.643 -230.683 762.602 -230.485 762.602C-230.288 762.602 -230.093 762.643 -229.912 762.724C-229.732 762.805 -229.571 762.923 -229.44 763.071C-229.308 763.218 -229.21 763.392 -229.15 763.58C-229.091 763.769 -229.072 763.967 -229.095 764.164C-229.066 764.345 -229.066 764.53 -229.095 764.712L-195.028 784.703L-160.848 764.655C-160.924 764.482 -160.962 764.296 -160.962 764.107C-160.96 763.767 -160.834 763.439 -160.607 763.185C-160.381 762.931 -160.07 762.768 -159.732 762.726V722.593L-193.931 702.527C-194.054 702.705 -194.218 702.851 -194.409 702.953C-194.6 703.055 -194.812 703.11 -195.028 703.113C-195.244 703.107 -195.455 703.05 -195.646 702.949C-195.836 702.847 -196 702.703 -196.125 702.527L-230.495 722.688L-266.056 701.884V661.467C-266.264 661.436 -266.462 661.359 -266.635 661.241C-266.809 661.123 -266.954 660.967 -267.059 660.786C-267.165 660.604 -267.228 660.401 -267.244 660.192C-267.26 659.982 -267.229 659.772 -267.153 659.576L-301.333 639.529L-336.8 660.333H-336.894L-371.169 640.21C-371.293 640.385 -371.458 640.528 -371.649 640.627C-371.84 640.726 -372.051 640.777 -372.266 640.777C-372.638 640.8 -373.003 640.674 -373.281 640.427C-373.56 640.181 -373.729 639.834 -373.751 639.463C-373.774 639.091 -373.648 638.726 -373.401 638.448C-373.155 638.17 -372.808 638 -372.437 637.978V597.542L-336.894 576.738H-336.8L-302.525 596.843C-302.401 596.667 -302.237 596.524 -302.046 596.425C-301.855 596.326 -301.643 596.274 -301.428 596.274C-301.213 596.274 -301.001 596.326 -300.81 596.425C-300.619 596.524 -300.455 596.667 -300.331 596.843L-266.151 576.738V536.625C-266.487 536.583 -266.795 536.419 -267.019 536.165C-267.242 535.91 -267.364 535.582 -267.361 535.244C-267.361 535.051 -267.329 534.859 -267.267 534.677L-301.598 514.535V472.719L-267.342 452.614C-267.403 452.438 -267.435 452.253 -267.437 452.066C-267.46 451.87 -267.441 451.671 -267.381 451.483C-267.322 451.294 -267.223 451.121 -267.092 450.973C-266.961 450.825 -266.8 450.707 -266.62 450.626C-266.439 450.546 -266.244 450.504 -266.047 450.504C-265.849 450.504 -265.654 450.546 -265.473 450.626C-265.293 450.707 -265.132 450.825 -265.001 450.973C-264.87 451.121 -264.771 451.294 -264.712 451.483C-264.652 451.671 -264.633 451.87 -264.656 452.066C-264.628 452.248 -264.628 452.433 -264.656 452.614L-231.592 472.019C-231.462 471.845 -231.293 471.704 -231.1 471.605C-230.906 471.507 -230.693 471.454 -230.476 471.451C-230.259 471.452 -230.046 471.505 -229.854 471.608C-229.663 471.71 -229.5 471.858 -229.379 472.038L-195.18 451.971V410.552L-230.476 389.748L-264.637 409.815C-264.569 409.99 -264.53 410.175 -264.524 410.363C-264.524 410.734 -264.671 411.09 -264.934 411.353C-265.196 411.615 -265.552 411.763 -265.924 411.763C-266.295 411.763 -266.651 411.615 -266.913 411.353C-267.176 411.09 -267.323 410.734 -267.323 410.363C-267.354 410.182 -267.354 409.996 -267.323 409.815L-301.655 389.654V349.37C-301.993 349.328 -302.304 349.165 -302.53 348.911C-302.756 348.657 -302.882 348.329 -302.884 347.989C-302.887 347.803 -302.853 347.618 -302.784 347.445C-302.715 347.272 -302.612 347.114 -302.482 346.981C-302.352 346.847 -302.197 346.74 -302.026 346.667C-301.855 346.593 -301.671 346.554 -301.485 346.552C-301.269 346.558 -301.058 346.615 -300.867 346.716C-300.677 346.818 -300.513 346.962 -300.387 347.138L-265.961 326.958H-265.867L-231.573 347.081C-231.453 346.905 -231.292 346.76 -231.105 346.658C-230.917 346.556 -230.708 346.5 -230.495 346.495C-230.279 346.499 -230.066 346.554 -229.875 346.656C-229.685 346.758 -229.521 346.904 -229.398 347.081L-195.199 327.015V285.672L-229.398 265.605C-229.522 265.781 -229.686 265.924 -229.877 266.023C-230.068 266.121 -230.28 266.173 -230.495 266.173C-230.707 266.171 -230.915 266.119 -231.103 266.02C-231.291 265.922 -231.452 265.779 -231.573 265.605L-265.942 285.766L-300.217 265.662C-300.344 265.835 -300.508 265.977 -300.699 266.075C-300.889 266.174 -301.1 266.227 -301.314 266.229C-301.686 266.252 -302.051 266.126 -302.329 265.88C-302.608 265.633 -302.777 265.286 -302.799 264.915C-302.822 264.544 -302.696 264.179 -302.449 263.9C-302.203 263.622 -301.856 263.453 -301.485 263.43V223.241L-335.684 203.174C-335.806 203.353 -335.969 203.5 -336.16 203.602C-336.351 203.704 -336.564 203.759 -336.781 203.761C-336.997 203.754 -337.208 203.698 -337.398 203.596C-337.588 203.494 -337.753 203.35 -337.878 203.174L-372.247 223.354L-407.808 202.55V162.115C-408.157 162.058 -408.472 161.874 -408.692 161.597C-408.911 161.321 -409.02 160.972 -408.996 160.62C-408.973 160.268 -408.818 159.937 -408.564 159.692C-408.309 159.447 -407.972 159.306 -407.619 159.297C-407.406 159.302 -407.197 159.358 -407.009 159.46C-406.822 159.562 -406.661 159.707 -406.541 159.883L-372.342 139.628H-372.247L-336.875 160.432L-302.695 140.384C-302.769 140.204 -302.808 140.011 -302.809 139.817C-302.807 139.477 -302.681 139.149 -302.454 138.895C-302.228 138.641 -301.917 138.478 -301.579 138.436V98.4168L-337.046 77.6129V37.272C-337.229 37.2596 -337.409 37.2111 -337.574 37.1293C-337.739 37.0475 -337.887 36.934 -338.008 36.7952C-338.129 36.6565 -338.222 36.4952 -338.28 36.3207C-338.339 36.1461 -338.363 35.9617 -338.351 35.7779C-338.338 35.5941 -338.29 35.4146 -338.208 35.2495C-338.126 35.0845 -338.013 34.9372 -337.874 34.816C-337.735 34.6948 -337.574 34.6021 -337.399 34.5433C-337.225 34.4844 -337.04 34.4605 -336.857 34.4729C-336.645 34.4758 -336.437 34.5287 -336.249 34.6273C-336.062 34.726 -335.901 34.8674 -335.778 35.0403L-301.409 14.8037L-265.848 35.6077V76.1187C-265.509 76.1644 -265.197 76.3312 -264.971 76.5884C-264.745 76.8457 -264.62 77.1759 -264.618 77.5183C-264.627 77.6998 -264.665 77.8787 -264.732 78.0479L-230.306 98.2088V140.025L-265.678 160.829V200.943C-265.338 200.988 -265.027 201.155 -264.801 201.412C-264.575 201.67 -264.45 202 -264.448 202.342C-264.457 202.53 -264.495 202.715 -264.562 202.891L-230.4 222.938L-196.22 202.891C-196.298 202.712 -196.336 202.518 -196.334 202.323C-196.334 202.14 -196.297 201.958 -196.227 201.788C-196.157 201.618 -196.054 201.464 -195.924 201.334C-195.794 201.204 -195.639 201.101 -195.469 201.03C-195.3 200.96 -195.118 200.924 -194.934 200.924C-194.75 200.924 -194.568 200.96 -194.398 201.03C-194.228 201.101 -194.074 201.204 -193.944 201.334C-193.814 201.464 -193.711 201.618 -193.641 201.788C-193.57 201.958 -193.534 202.14 -193.534 202.323C-193.533 202.512 -193.572 202.699 -193.648 202.872L-159.392 223.033V263.374C-159.054 263.415 -158.743 263.578 -158.516 263.832C-158.29 264.086 -158.164 264.414 -158.162 264.754C-158.162 264.943 -158.2 265.13 -158.276 265.303L-124.095 285.35L-88.818 264.546V223.241L-123.017 203.174C-123.134 203.354 -123.294 203.502 -123.482 203.604C-123.67 203.707 -123.881 203.761 -124.095 203.761C-124.468 203.756 -124.824 203.604 -125.086 203.339C-125.348 203.073 -125.495 202.715 -125.495 202.342C-125.498 202.002 -125.377 201.672 -125.154 201.414C-124.931 201.156 -124.622 200.989 -124.285 200.943V160.829L-159.732 140.025V99.684C-159.963 99.6595 -160.184 99.5779 -160.376 99.4465C-160.568 99.3151 -160.724 99.1381 -160.83 98.9315C-160.936 98.7249 -160.989 98.4951 -160.984 98.2628C-160.979 98.0306 -160.916 97.8032 -160.802 97.6012C-160.687 97.3992 -160.524 97.229 -160.327 97.1058C-160.13 96.9826 -159.905 96.9103 -159.673 96.8956C-159.442 96.8808 -159.21 96.9239 -158.999 97.0211C-158.788 97.1183 -158.604 97.2665 -158.465 97.4523L-124.285 77.3859V35.7779L-89.9341 15.6359C-89.9644 15.448 -89.9644 15.2564 -89.9341 15.0685C-89.9348 14.7131 -89.8004 14.3707 -89.558 14.1108C-89.3157 13.8509 -88.9835 13.693 -88.6289 13.6689ZM-301.409 98.0197L-289.606 91.1922L-267.191 77.9533C-267.266 77.7803 -267.305 77.5935 -267.304 77.4048C-267.307 77.0663 -267.185 76.7387 -266.962 76.4841C-266.739 76.2296 -266.43 76.0659 -266.094 76.0242V35.9859L-301.371 15.182L-335.551 35.2484C-335.474 35.4206 -335.435 35.6079 -335.438 35.7968C-335.44 36.1371 -335.566 36.4649 -335.792 36.719C-336.018 36.9731 -336.33 37.1361 -336.667 37.1775V77.4048L-301.409 98.0197ZM-289.473 146.644L-265.942 160.451L-230.665 139.647V98.4168L-264.864 78.3504C-264.988 78.5259 -265.153 78.669 -265.344 78.7677C-265.535 78.8665 -265.746 78.9179 -265.961 78.9178C-266.173 78.9165 -266.382 78.8642 -266.57 78.7655C-266.757 78.6668 -266.918 78.5244 -267.04 78.3504L-277.708 84.6106L-301.239 98.4168V138.531C-300.899 138.576 -300.588 138.743 -300.362 139C-300.136 139.258 -300.011 139.588 -300.009 139.93C-300.018 140.112 -300.056 140.291 -300.123 140.46L-289.473 146.644ZM-338.162 202.815C-338.239 202.636 -338.278 202.443 -338.275 202.248C-338.273 201.907 -338.147 201.58 -337.921 201.326C-337.695 201.071 -337.383 200.908 -337.046 200.867V160.829L-372.342 140.025L-406.503 160.072C-406.441 160.255 -406.409 160.447 -406.409 160.64C-406.406 160.978 -406.528 161.306 -406.751 161.56C-406.974 161.815 -407.283 161.979 -407.619 162.02V202.229L-372.342 223.033L-338.162 202.815ZM-301.409 222.863L-289.606 216.035L-267.191 202.796C-267.266 202.623 -267.305 202.436 -267.304 202.248C-267.308 201.907 -267.186 201.577 -266.963 201.319C-266.741 201.062 -266.431 200.894 -266.094 200.848V160.829L-277.859 153.926L-300.274 140.687C-300.402 140.863 -300.57 141.006 -300.764 141.104C-300.958 141.203 -301.172 141.254 -301.39 141.254C-301.601 141.248 -301.808 141.194 -301.995 141.096C-302.182 140.997 -302.344 140.857 -302.468 140.687L-336.667 160.753V200.867C-336.328 200.913 -336.017 201.08 -335.791 201.337C-335.565 201.594 -335.439 201.924 -335.438 202.267C-335.437 202.455 -335.476 202.642 -335.551 202.815L-301.409 222.863ZM-231.781 265.227C-231.81 265.045 -231.81 264.86 -231.781 264.679C-231.784 264.34 -231.662 264.012 -231.439 263.758C-231.215 263.503 -230.906 263.34 -230.571 263.298V223.241L-264.77 203.174C-264.886 203.354 -265.046 203.502 -265.234 203.604C-265.423 203.707 -265.634 203.761 -265.848 203.761C-266.065 203.76 -266.278 203.707 -266.47 203.604C-266.661 203.502 -266.824 203.355 -266.945 203.174L-277.613 209.435L-301.144 223.241V263.374C-300.806 263.415 -300.495 263.578 -300.269 263.832C-300.043 264.086 -299.917 264.414 -299.915 264.754C-299.914 264.943 -299.953 265.13 -300.028 265.303L-265.848 285.35L-231.781 265.227ZM-195.028 285.35L-183.263 278.447L-160.848 265.208C-160.924 265.035 -160.962 264.848 -160.962 264.66C-160.96 264.319 -160.834 263.992 -160.607 263.738C-160.381 263.483 -160.07 263.32 -159.732 263.279V223.241L-193.931 203.174C-194.053 203.353 -194.217 203.5 -194.408 203.602C-194.599 203.704 -194.812 203.759 -195.028 203.761C-195.244 203.754 -195.455 203.698 -195.646 203.596C-195.836 203.494 -196 203.35 -196.125 203.174L-230.306 223.241V263.374C-229.97 263.415 -229.661 263.579 -229.438 263.834C-229.214 264.088 -229.093 264.416 -229.095 264.754C-229.095 264.943 -229.133 265.13 -229.209 265.303L-195.028 285.35ZM-194.858 327.072L-183.093 333.975L-159.562 347.781L-125.382 327.715C-125.461 327.543 -125.5 327.355 -125.495 327.166C-125.498 326.828 -125.376 326.5 -125.153 326.246C-124.929 325.991 -124.621 325.827 -124.285 325.786V285.672L-158.465 265.605C-158.589 265.781 -158.753 265.924 -158.944 266.023C-159.135 266.122 -159.347 266.174 -159.562 266.174C-159.777 266.174 -159.989 266.122 -160.18 266.023C-160.371 265.924 -160.535 265.781 -160.659 265.605L-171.327 271.865L-194.858 285.672V327.072ZM-124.095 328.585C-124.31 328.582 -124.52 328.529 -124.711 328.43C-124.901 328.332 -125.066 328.19 -125.192 328.017L-159.392 348.084V388.216C-159.054 388.258 -158.743 388.421 -158.516 388.675C-158.29 388.929 -158.164 389.257 -158.162 389.597C-158.162 389.786 -158.2 389.973 -158.276 390.146L-123.925 410.307V450.628C-123.694 450.653 -123.473 450.735 -123.281 450.866C-123.09 450.997 -122.934 451.174 -122.828 451.381C-122.722 451.588 -122.669 451.817 -122.673 452.05C-122.678 452.282 -122.741 452.509 -122.856 452.711C-122.97 452.913 -123.134 453.083 -123.33 453.207C-123.527 453.33 -123.752 453.402 -123.984 453.417C-124.216 453.432 -124.448 453.388 -124.659 453.291C-124.87 453.194 -125.053 453.046 -125.192 452.86L-159.392 472.927V513.04C-159.153 513.059 -158.923 513.137 -158.723 513.267C-158.523 513.398 -158.36 513.577 -158.247 513.788C-158.135 513.999 -158.078 514.235 -158.081 514.474C-158.084 514.713 -158.148 514.947 -158.266 515.155C-158.384 515.363 -158.552 515.538 -158.756 515.663C-158.96 515.788 -159.191 515.86 -159.43 515.872C-159.669 515.883 -159.907 515.834 -160.122 515.73C-160.336 515.625 -160.521 515.467 -160.659 515.272L-194.858 535.357V575.471C-194.522 575.513 -194.213 575.677 -193.99 575.931C-193.767 576.186 -193.645 576.513 -193.648 576.852C-193.648 577.225 -193.794 577.583 -194.056 577.848C-194.318 578.114 -194.674 578.265 -195.047 578.27C-195.264 578.268 -195.477 578.214 -195.668 578.112C-195.859 578.01 -196.022 577.863 -196.144 577.684L-230.325 597.751V639.169L-195.028 659.879L-160.848 639.812C-160.926 639.64 -160.965 639.453 -160.962 639.264C-160.962 639.08 -160.925 638.898 -160.855 638.728C-160.785 638.559 -160.682 638.404 -160.552 638.274C-160.422 638.144 -160.267 638.041 -160.098 637.971C-159.928 637.901 -159.746 637.864 -159.562 637.864C-159.378 637.864 -159.196 637.901 -159.026 637.971C-158.856 638.041 -158.702 638.144 -158.572 638.274C-158.442 638.404 -158.339 638.559 -158.269 638.728C-158.198 638.898 -158.162 639.08 -158.162 639.264C-158.159 639.453 -158.198 639.64 -158.276 639.812L-123.925 659.973V700.295C-123.588 700.341 -123.278 700.509 -123.056 700.766C-122.833 701.024 -122.711 701.354 -122.715 701.695C-122.707 701.882 -122.74 702.069 -122.809 702.243L-89.726 721.648C-89.6041 721.472 -89.4415 721.329 -89.252 721.23C-89.0627 721.131 -88.8521 721.079 -88.6383 721.079C-88.4246 721.079 -88.214 721.131 -88.0246 721.23C-87.8352 721.329 -87.6726 721.472 -87.5507 721.648L-53.3704 701.581V661.449C-53.7082 661.407 -54.0193 661.244 -54.2456 660.99C-54.4719 660.736 -54.5979 660.408 -54.5999 660.068C-54.5913 659.88 -54.553 659.695 -54.4865 659.519L-88.8369 639.377V599.037C-89.0208 599.024 -89.2003 598.976 -89.3654 598.894C-89.5305 598.812 -89.6778 598.699 -89.799 598.56C-89.9202 598.421 -90.0129 598.26 -90.0717 598.085C-90.1306 597.911 -90.1545 597.726 -90.1421 597.542C-90.1297 597.359 -90.0812 597.179 -89.9994 597.014C-89.9175 596.849 -89.804 596.702 -89.6653 596.581C-89.5265 596.459 -89.3652 596.367 -89.1906 596.308C-89.0161 596.249 -88.8316 596.225 -88.6478 596.237C-88.4361 596.24 -88.228 596.293 -88.0406 596.392C-87.8532 596.49 -87.6919 596.632 -87.5696 596.805L-53.3704 576.738V536.625C-53.7098 536.579 -54.0212 536.412 -54.2471 536.155C-54.4731 535.898 -54.5984 535.567 -54.5999 535.225C-54.595 534.85 -54.444 534.492 -54.179 534.227C-53.914 533.963 -53.556 533.812 -53.1813 533.807C-52.9682 533.813 -52.7597 533.87 -52.5724 533.971C-52.3851 534.073 -52.2244 534.218 -52.1031 534.393L-17.885 514.326V474.194C-18.2228 474.152 -18.5339 473.989 -18.7602 473.735C-18.9865 473.481 -19.1125 473.153 -19.1145 472.813C-19.1146 472.44 -18.9677 472.082 -18.7057 471.817C-18.4437 471.551 -18.0877 471.4 -17.7148 471.395C-17.4979 471.395 -17.2844 471.449 -17.0931 471.551C-16.9018 471.653 -16.7385 471.801 -16.6177 471.981L17.5815 451.915V410.496L-17.7148 389.692L-51.8761 409.758C-51.8458 409.94 -51.8458 410.125 -51.8761 410.307C-51.8761 410.678 -52.0236 411.034 -52.2861 411.296C-52.5486 411.559 -52.9046 411.706 -53.2759 411.706C-53.6471 411.706 -54.0031 411.559 -54.2656 411.296C-54.5281 411.034 -54.6756 410.678 -54.6756 410.307C-54.6691 410.119 -54.6306 409.933 -54.5621 409.758L-88.9126 389.597V349.37C-89.2485 349.32 -89.5554 349.151 -89.7776 348.895C-89.9997 348.638 -90.1223 348.31 -90.1232 347.97C-90.1519 347.789 -90.1519 347.603 -90.1232 347.422L-123.187 328.017C-123.293 328.168 -123.428 328.295 -123.584 328.393C-123.74 328.49 -123.914 328.555 -124.095 328.585ZM-230.665 389.484V349.37C-231.001 349.328 -231.31 349.164 -231.533 348.91C-231.756 348.655 -231.878 348.328 -231.876 347.989C-231.906 347.801 -231.906 347.61 -231.876 347.422L-266.056 327.374L-300.217 347.422C-300.14 347.601 -300.101 347.794 -300.104 347.989C-300.106 348.329 -300.232 348.657 -300.458 348.911C-300.684 349.165 -300.996 349.328 -301.333 349.37V389.484L-267.134 409.55C-267.01 409.375 -266.846 409.231 -266.655 409.133C-266.464 409.034 -266.252 408.983 -266.037 408.983C-265.825 408.984 -265.616 409.036 -265.429 409.135C-265.241 409.234 -265.08 409.376 -264.959 409.55L-230.665 389.484ZM-195.028 410.193L-183.263 403.29L-160.848 390.051C-160.924 389.878 -160.962 389.691 -160.962 389.503C-160.964 389.161 -160.839 388.831 -160.612 388.576C-160.385 388.321 -160.072 388.159 -159.732 388.122V348.084L-171.498 341.181L-195.028 327.374L-229.209 347.422C-229.133 347.617 -229.101 347.828 -229.118 348.037C-229.134 348.246 -229.197 348.449 -229.302 348.631C-229.408 348.813 -229.553 348.968 -229.726 349.086C-229.9 349.204 -230.098 349.282 -230.306 349.313V389.427L-195.028 410.193ZM-194.858 451.915L-183.093 458.818L-159.562 472.605L-125.382 452.558C-125.457 452.385 -125.496 452.198 -125.495 452.009C-125.498 451.671 -125.376 451.343 -125.153 451.088C-124.929 450.834 -124.621 450.67 -124.285 450.628V410.496L-158.465 390.429C-158.586 390.609 -158.749 390.756 -158.941 390.857C-159.132 390.959 -159.345 391.012 -159.562 391.012C-159.778 391.012 -159.992 390.959 -160.183 390.857C-160.374 390.756 -160.538 390.609 -160.659 390.429L-171.327 396.689L-194.858 410.496V451.915ZM-229.209 472.265C-229.133 472.46 -229.101 472.671 -229.118 472.88C-229.134 473.089 -229.197 473.292 -229.302 473.474C-229.408 473.656 -229.553 473.811 -229.726 473.929C-229.9 474.047 -230.098 474.125 -230.306 474.156V514.289L-195.028 535.036L-160.848 514.988C-160.924 514.815 -160.962 514.629 -160.962 514.44C-160.964 514.096 -160.84 513.764 -160.614 513.506C-160.387 513.248 -160.073 513.082 -159.732 513.04V472.927L-171.498 466.023L-195.028 452.217L-229.209 472.265ZM-265.98 533.826C-265.765 533.825 -265.554 533.877 -265.363 533.976C-265.172 534.074 -265.007 534.217 -264.883 534.393L-254.215 528.133L-230.684 514.326V474.194C-231.017 474.148 -231.321 473.982 -231.54 473.728C-231.76 473.474 -231.879 473.149 -231.876 472.813C-231.906 472.638 -231.906 472.459 -231.876 472.284L-264.978 452.86C-265.1 453.036 -265.262 453.179 -265.452 453.278C-265.641 453.377 -265.852 453.429 -266.065 453.429C-266.279 453.429 -266.49 453.377 -266.679 453.278C-266.869 453.179 -267.031 453.036 -267.153 452.86L-301.352 472.927V514.326L-267.153 534.393C-267.022 534.207 -266.845 534.057 -266.64 533.958C-266.435 533.858 -266.208 533.813 -265.98 533.826ZM-265.791 576.738L-254.026 583.642L-230.514 597.448L-196.334 577.4C-196.409 577.227 -196.448 577.041 -196.447 576.852C-196.445 576.512 -196.319 576.184 -196.093 575.93C-195.866 575.676 -195.555 575.513 -195.218 575.471V535.339L-230.514 514.535L-242.279 521.438L-264.675 534.582C-264.645 534.77 -264.645 534.961 -264.675 535.149C-264.673 535.488 -264.794 535.816 -265.018 536.07C-265.241 536.325 -265.55 536.488 -265.886 536.53L-265.791 576.738ZM-301.598 639.15V599.037C-301.936 598.995 -302.247 598.832 -302.473 598.578C-302.7 598.324 -302.826 597.996 -302.828 597.656C-302.828 597.467 -302.79 597.281 -302.714 597.107L-336.894 577.06L-372.191 597.751V637.883C-371.853 637.925 -371.542 638.088 -371.315 638.342C-371.089 638.596 -370.963 638.924 -370.961 639.264C-370.958 639.453 -370.997 639.64 -371.075 639.812L-336.894 659.879L-301.598 639.15ZM-265.98 658.631C-265.764 658.634 -265.552 658.689 -265.361 658.791C-265.17 658.893 -265.006 659.039 -264.883 659.217L-254.215 652.938L-230.684 639.15V597.732L-242.449 590.847L-265.98 577.041L-300.142 597.089C-300.066 597.262 -300.027 597.448 -300.028 597.637C-300.03 597.977 -300.156 598.305 -300.382 598.559C-300.609 598.813 -300.92 598.976 -301.258 599.018V639.15L-267.058 659.217C-266.935 659.045 -266.774 658.904 -266.586 658.806C-266.399 658.707 -266.192 658.654 -265.98 658.649V658.631ZM-196.334 702.224C-196.409 702.051 -196.448 701.865 -196.447 701.676C-196.446 701.334 -196.32 701.003 -196.094 700.746C-195.868 700.489 -195.557 700.322 -195.218 700.276V660.181L-230.514 639.472L-242.279 646.375L-264.675 659.519C-264.645 659.707 -264.645 659.899 -264.675 660.087C-264.673 660.425 -264.794 660.753 -265.018 661.008C-265.241 661.262 -265.55 661.426 -265.886 661.467V701.581L-230.608 722.291L-196.334 702.224ZM-159.581 722.272L-147.74 715.388L-125.325 702.243C-125.4 702.07 -125.439 701.884 -125.438 701.695C-125.441 701.351 -125.317 701.019 -125.09 700.761C-124.864 700.503 -124.55 700.337 -124.209 700.295V660.181L-158.408 640.115C-158.529 640.294 -158.693 640.441 -158.884 640.543C-159.075 640.645 -159.289 640.698 -159.505 640.698C-159.722 640.698 -159.935 640.645 -160.126 640.543C-160.318 640.441 -160.481 640.294 -160.602 640.115L-194.782 660.181V700.295C-194.445 700.341 -194.136 700.509 -193.913 700.766C-193.69 701.024 -193.569 701.354 -193.572 701.695C-193.571 701.884 -193.61 702.07 -193.685 702.243L-159.581 722.272ZM-195.218 826.405V785.024L-229.417 764.958C-229.541 765.133 -229.705 765.276 -229.896 765.375C-230.087 765.474 -230.299 765.525 -230.514 765.525C-230.728 765.522 -230.939 765.47 -231.129 765.371C-231.32 765.273 -231.485 765.131 -231.611 764.958L-265.791 785.024V825.138C-265.453 825.18 -265.142 825.343 -264.916 825.597C-264.69 825.851 -264.564 826.179 -264.562 826.519C-264.568 826.707 -264.607 826.892 -264.675 827.067L-230.514 847.115L-195.218 826.405ZM-88.8369 972.26L-100.583 965.357L-124.114 951.551L-158.295 971.598C-158.219 971.771 -158.18 971.958 -158.181 972.147C-158.183 972.487 -158.309 972.815 -158.535 973.069C-158.762 973.323 -159.073 973.486 -159.411 973.527V1013.66L-125.211 1033.73C-125.088 1033.55 -124.924 1033.4 -124.734 1033.3C-124.543 1033.2 -124.331 1033.14 -124.114 1033.14C-123.899 1033.15 -123.687 1033.2 -123.497 1033.3C-123.307 1033.41 -123.142 1033.55 -123.017 1033.73L-88.8369 1013.66V972.26ZM-88.6478 889.044L-100.451 896.136L-122.866 909.281C-122.796 909.462 -122.764 909.655 -122.771 909.848C-122.769 910.187 -122.891 910.514 -123.114 910.769C-123.337 911.023 -123.646 911.187 -123.982 911.229V951.362L-112.216 958.265L-88.6856 972.052L-54.4865 951.91C-54.553 951.734 -54.5913 951.549 -54.5999 951.362C-54.5979 951.021 -54.4719 950.694 -54.2456 950.439C-54.0193 950.185 -53.7082 950.022 -53.3704 949.981V909.848L-88.6478 889.044ZM-124.114 826.632L-135.88 833.535L-158.295 846.68C-158.219 846.853 -158.18 847.04 -158.181 847.228C-158.183 847.571 -158.308 847.901 -158.534 848.158C-158.76 848.415 -159.071 848.582 -159.411 848.628V888.742L-125.211 908.808C-125.087 908.633 -124.923 908.49 -124.732 908.391C-124.541 908.292 -124.329 908.241 -124.114 908.241C-123.9 908.244 -123.689 908.296 -123.499 908.395C-123.308 908.493 -123.143 908.635 -123.017 908.808L-112.349 902.548L-88.8369 888.742V848.722C-89.1729 848.672 -89.4798 848.504 -89.7019 848.247C-89.924 847.99 -90.0467 847.662 -90.0475 847.323C-90.0762 847.141 -90.0762 846.956 -90.0475 846.774L-124.114 826.632ZM-124.285 784.93L-136.05 778.008L-158.484 764.863C-158.608 765.039 -158.772 765.182 -158.963 765.281C-159.154 765.38 -159.366 765.432 -159.581 765.432C-159.796 765.432 -160.008 765.38 -160.199 765.281C-160.389 765.182 -160.554 765.039 -160.678 764.863L-194.858 784.93V826.33L-160.678 846.396C-160.557 846.217 -160.393 846.07 -160.202 845.968C-160.011 845.867 -159.797 845.813 -159.581 845.813C-159.364 845.813 -159.151 845.867 -158.96 845.968C-158.768 846.07 -158.605 846.217 -158.484 846.396L-147.74 840.231L-124.209 826.424L-124.285 784.93ZM-88.8369 763.899V723.879C-89.1729 723.838 -89.4819 723.674 -89.705 723.419C-89.9282 723.165 -90.0501 722.837 -90.0475 722.499C-90.0793 722.317 -90.0793 722.132 -90.0475 721.95L-123.112 702.527C-123.237 702.703 -123.401 702.847 -123.592 702.949C-123.782 703.05 -123.993 703.107 -124.209 703.113C-124.425 703.11 -124.638 703.055 -124.828 702.953C-125.019 702.851 -125.183 702.705 -125.306 702.527L-135.974 708.787L-159.505 722.593V762.726C-159.167 762.768 -158.856 762.931 -158.63 763.185C-158.404 763.439 -158.278 763.767 -158.276 764.107C-158.275 764.296 -158.314 764.482 -158.389 764.655L-147.74 770.896L-124.209 784.703L-88.8369 763.899ZM88.7036 951.57L76.9004 958.548L54.4856 971.693C54.561 971.866 54.5996 972.053 54.599 972.241C54.593 972.58 54.4657 972.906 54.2401 973.159C54.0146 973.413 53.7057 973.577 53.3696 973.622V1013.75L88.7036 1034.37L122.751 1014.32C122.714 1014.14 122.714 1013.95 122.751 1013.77C122.754 1013.43 122.88 1013.11 123.106 1012.85C123.332 1012.6 123.643 1012.43 123.981 1012.39V972.26L88.7036 951.57ZM76.7491 902.945L53.2371 889.139L17.9409 909.943V951.343L52.1022 971.315C52.2263 971.139 52.3907 970.996 52.5817 970.897C52.7726 970.799 52.9844 970.747 53.1993 970.747C53.4113 970.749 53.6199 970.801 53.8075 970.899C53.9952 970.998 54.1563 971.141 54.2775 971.315L64.9647 965.054L88.4767 951.248V911.134C88.1374 911.092 87.8258 910.926 87.6022 910.667C87.3785 910.409 87.2588 910.076 87.2661 909.735C87.2671 909.546 87.3056 909.36 87.3796 909.186L76.7491 902.945ZM125.4 846.774C125.476 846.97 125.507 847.18 125.491 847.39C125.474 847.599 125.411 847.802 125.306 847.984C125.201 848.165 125.056 848.321 124.882 848.439C124.708 848.557 124.51 848.634 124.303 848.666V888.779L159.58 909.583L193.76 889.536C193.683 889.357 193.644 889.164 193.647 888.969C193.649 888.628 193.775 888.301 194.001 888.046C194.227 887.792 194.538 887.629 194.876 887.588V847.436L159.58 826.727L125.4 846.774ZM88.7036 826.727L76.9004 833.725L54.4856 846.869C54.561 847.042 54.5996 847.229 54.599 847.417C54.5975 847.76 54.4722 848.09 54.2463 848.347C54.0203 848.604 53.7089 848.771 53.3696 848.817V888.931L65.135 895.834L87.5687 909.073C87.6928 908.897 87.8572 908.754 88.0481 908.656C88.2391 908.557 88.4509 908.505 88.6658 908.505C88.8778 908.507 89.0864 908.559 89.274 908.658C89.4617 908.756 89.6228 908.899 89.744 909.073L123.943 888.836V848.722C123.604 848.677 123.292 848.51 123.066 848.253C122.84 847.995 122.715 847.665 122.714 847.323C122.698 847.139 122.711 846.954 122.751 846.774L88.7036 826.727ZM19.0569 784.362C19.1346 784.535 19.1733 784.722 19.1704 784.911C19.1683 785.251 19.0423 785.579 18.8161 785.833C18.5898 786.087 18.2786 786.25 17.9409 786.291V826.424L52.1022 846.491C52.2231 846.31 52.3863 846.163 52.5776 846.061C52.7689 845.958 52.9824 845.905 53.1993 845.904C53.4137 845.904 53.6246 845.958 53.8129 846.061C54.0011 846.163 54.1609 846.311 54.2775 846.491L64.9647 840.231L88.4767 826.424V786.291C88.1407 786.25 87.8317 786.086 87.6086 785.831C87.3854 785.577 87.2635 785.249 87.2661 784.911C87.2631 784.722 87.3019 784.535 87.3796 784.362L53.1993 764.315L19.0569 784.362ZM-17.6959 764.315L-29.4991 771.313L-51.895 784.457C-51.8647 784.638 -51.8647 784.824 -51.895 785.005C-51.8971 785.346 -52.0231 785.673 -52.2494 785.928C-52.4756 786.182 -52.7868 786.345 -53.1245 786.386V826.519L-18.8308 846.491C-18.7047 846.311 -18.5377 846.165 -18.3436 846.063C-18.1496 845.961 -17.934 845.906 -17.7148 845.904C-17.5017 845.911 -17.2932 845.967 -17.1059 846.069C-16.9186 846.171 -16.7579 846.315 -16.6366 846.491L17.5626 826.424V786.291C17.2248 786.25 16.9137 786.087 16.6874 785.833C16.4611 785.579 16.3351 785.251 16.3331 784.911C16.3301 784.722 16.3689 784.535 16.4465 784.362L-17.6959 764.315ZM-17.8661 722.593L-29.6315 715.69L-53.1624 701.884L-87.3426 721.95C-87.3108 722.132 -87.3108 722.317 -87.3426 722.499C-87.34 722.837 -87.4619 723.165 -87.6851 723.419C-87.9083 723.674 -88.2172 723.838 -88.5532 723.879V763.993L-54.2973 784.06C-54.1691 783.884 -54.0013 783.741 -53.8073 783.642C-53.6134 783.544 -53.3988 783.492 -53.1813 783.492C-52.9696 783.495 -52.7615 783.548 -52.5741 783.647C-52.3867 783.745 -52.2254 783.887 -52.1031 784.06L-41.4348 777.8L-17.9039 763.993L-17.8661 722.593ZM17.9409 660.181V700.295C18.2786 700.337 18.5898 700.5 18.8161 700.754C19.0423 701.008 19.1683 701.336 19.1704 701.676C19.1731 701.871 19.1344 702.064 19.0569 702.243L53.2371 722.291L87.3796 702.243C87.3035 702.048 87.2724 701.837 87.2886 701.628C87.3048 701.419 87.368 701.216 87.4733 701.034C87.5787 700.852 87.7236 700.697 87.8973 700.579C88.0709 700.461 88.269 700.383 88.4767 700.352V660.181L54.2775 640.115C54.1563 640.289 53.9952 640.431 53.8075 640.53C53.6199 640.629 53.4113 640.681 53.1993 640.682C52.9844 640.682 52.7726 640.631 52.5817 640.532C52.3907 640.434 52.2263 640.29 52.1022 640.115L17.9409 660.181ZM-17.6959 639.472L-29.4613 646.375L-51.8572 659.519C-51.8285 659.701 -51.8285 659.886 -51.8572 660.068C-51.8551 660.409 -51.9797 660.739 -52.2067 660.994C-52.4338 661.249 -52.7473 661.411 -53.0867 661.449V701.581L-41.3213 708.484L-17.7905 722.291L16.4465 702.243C16.3704 702.046 16.3398 701.834 16.3571 701.624C16.3744 701.413 16.4392 701.209 16.5466 701.028C16.654 700.846 16.8011 700.69 16.9771 700.573C17.1531 700.456 17.3532 700.381 17.5626 700.352V660.181L-17.6959 639.472ZM-17.8661 597.751L-29.6315 590.866L-53.1624 577.06L-87.3426 597.107C-87.3139 597.289 -87.3139 597.474 -87.3426 597.656C-87.34 597.994 -87.4619 598.322 -87.6851 598.577C-87.9083 598.831 -88.2172 598.995 -88.5532 599.037V639.169L-54.2973 659.236C-54.1701 659.058 -54.0029 658.912 -53.809 658.81C-53.6152 658.708 -53.4002 658.653 -53.1813 658.649C-52.9682 658.656 -52.7597 658.712 -52.5724 658.814C-52.3851 658.916 -52.2244 659.06 -52.1031 659.236L-41.4348 652.957L-17.9039 639.169L-17.8661 597.751ZM16.4465 577.4C16.3711 577.227 16.3325 577.041 16.3331 576.852C16.3305 576.508 16.4544 576.176 16.6811 575.918C16.9078 575.66 17.2216 575.494 17.5626 575.452V535.339L-17.7337 514.535L-51.895 534.582C-51.8664 534.764 -51.8664 534.949 -51.895 535.13C-51.8925 535.474 -52.0164 535.806 -52.2431 536.065C-52.4698 536.323 -52.7835 536.488 -53.1245 536.53V576.644L-41.3591 583.547L-17.8283 597.353L16.4465 577.4ZM53.2182 515.84C53.0033 515.84 52.7915 515.788 52.6006 515.689C52.4097 515.591 52.2452 515.448 52.1211 515.272L41.415 521.532L17.8841 535.339V575.471C18.2201 575.513 18.529 575.677 18.7522 575.931C18.9754 576.186 19.0973 576.513 19.0947 576.852C19.0974 577.035 19.0586 577.216 18.9812 577.381L52.0833 596.805C52.2074 596.629 52.3718 596.486 52.5627 596.388C52.7536 596.289 52.9655 596.237 53.1804 596.237C53.3924 596.239 53.601 596.291 53.7886 596.39C53.9763 596.489 54.1374 596.631 54.2586 596.805L88.4956 576.738V535.339L54.2964 515.272C54.1752 515.446 54.0141 515.588 53.8265 515.687C53.6388 515.786 53.4303 515.838 53.2182 515.84ZM53.0291 472.927L41.2636 466.023L17.7517 452.217L-16.4285 472.265C-16.3531 472.438 -16.3144 472.624 -16.315 472.813C-16.3171 473.153 -16.4431 473.481 -16.6694 473.735C-16.8957 473.989 -17.2068 474.152 -17.5445 474.194V514.326L17.7517 535.036L29.5172 528.133L51.932 514.988C51.8559 514.793 51.8248 514.582 51.841 514.373C51.8572 514.164 51.9204 513.961 52.0257 513.779C52.1311 513.597 52.276 513.442 52.4497 513.324C52.6234 513.206 52.8214 513.128 53.0291 513.097V472.927ZM88.855 410.515V450.647C89.1909 450.689 89.4999 450.853 89.7231 451.107C89.9463 451.362 90.0681 451.689 90.0655 452.028C90.0661 452.217 90.0275 452.403 89.9521 452.576L124.132 472.605L159.429 451.915V411.782C159.091 411.74 158.78 411.577 158.553 411.323C158.327 411.069 158.201 410.741 158.199 410.401C158.196 410.212 158.235 410.025 158.313 409.853L124.132 389.786L88.855 410.515ZM53.2182 391.034C53.0019 391.031 52.7896 390.976 52.5988 390.874C52.408 390.772 52.2443 390.626 52.1211 390.448L41.415 396.689L17.8841 410.496V451.915L29.6495 458.818L53.1804 472.605L87.3796 452.558C87.313 452.382 87.2747 452.197 87.2661 452.009C87.2681 451.669 87.3941 451.341 87.6204 451.087C87.8467 450.833 88.1578 450.67 88.4956 450.628V410.496L54.2964 390.429C54.1762 390.606 54.0157 390.751 53.8282 390.853C53.6407 390.955 53.4316 391.011 53.2182 391.016V391.034ZM-16.4285 347.441C-16.3531 347.614 -16.3144 347.8 -16.315 347.989C-16.3165 348.331 -16.4418 348.662 -16.6678 348.919C-16.8938 349.176 -17.2052 349.343 -17.5445 349.389V389.503L17.7517 410.193L29.5172 403.29L51.932 390.051C51.8559 389.855 51.8248 389.645 51.841 389.436C51.8572 389.226 51.9204 389.023 52.0257 388.842C52.1311 388.66 52.276 388.504 52.4497 388.386C52.6234 388.268 52.8214 388.191 53.0291 388.16V348.084L17.7517 327.374L-16.4285 347.441ZM-53.1624 327.374L-64.9089 334.277L-87.3237 347.516C-87.295 347.698 -87.295 347.883 -87.3237 348.065C-87.3246 348.404 -87.4472 348.732 -87.6693 348.989C-87.8915 349.246 -88.1984 349.414 -88.5343 349.464V389.578L-54.2784 409.55C-54.1571 409.371 -53.9937 409.224 -53.8024 409.122C-53.6111 409.02 -53.3979 408.967 -53.1813 408.967C-52.9647 408.967 -52.7514 409.02 -52.5602 409.122C-52.3689 409.224 -52.2054 409.371 -52.0842 409.55L-17.885 389.484V349.37C-18.2244 349.324 -18.5358 349.157 -18.7617 348.9C-18.9877 348.643 -19.113 348.313 -19.1145 347.97C-19.1151 347.781 -19.0765 347.595 -19.001 347.422L-53.1624 327.374ZM-54.4486 285.01L-65.098 278.769L-88.61 264.962L-123.906 285.672V325.786C-123.57 325.827 -123.261 325.991 -123.038 326.246C-122.815 326.5 -122.693 326.828 -122.696 327.166C-122.654 327.347 -122.654 327.534 -122.696 327.715L-89.6125 347.138C-89.4934 346.959 -89.3318 346.811 -89.142 346.71C-88.9522 346.608 -88.7402 346.554 -88.5248 346.554C-88.3094 346.554 -88.0974 346.608 -87.9077 346.71C-87.7179 346.811 -87.5562 346.959 -87.4372 347.138L-76.7689 340.878L-53.238 327.072V286.958C-53.5758 286.908 -53.885 286.74 -54.1102 286.484C-54.3355 286.228 -54.4621 285.899 -54.4675 285.558C-54.4959 285.377 -54.4959 285.191 -54.4675 285.01H-54.4486ZM-17.5445 223.241V264.641L16.6546 284.726C16.7759 284.547 16.9393 284.4 17.1306 284.298C17.3219 284.197 17.5351 284.143 17.7517 284.143C17.9683 284.143 18.1816 284.197 18.3728 284.298C18.5641 284.4 18.7276 284.547 18.8488 284.726L53.0291 264.641V224.527C52.6931 224.485 52.3842 224.321 52.161 224.067C51.9378 223.812 51.8159 223.485 51.8185 223.146C51.8155 222.957 51.8543 222.77 51.932 222.598L17.7517 202.55L-17.5445 223.241ZM-53.1624 203.761C-53.379 203.759 -53.5919 203.704 -53.7829 203.602C-53.9739 203.5 -54.1375 203.353 -54.2595 203.174L-64.9089 209.435L-88.4397 223.241V264.641L-76.6743 271.563L-54.2595 284.802C-54.1382 284.622 -53.9748 284.475 -53.7835 284.374C-53.5922 284.272 -53.379 284.219 -53.1624 284.219C-52.9458 284.219 -52.7325 284.272 -52.5412 284.374C-52.35 284.475 -52.1865 284.622 -52.0653 284.802L-17.885 264.641V223.241L-52.0842 203.174C-52.2044 203.351 -52.3649 203.496 -52.5524 203.598C-52.7399 203.7 -52.949 203.756 -53.1624 203.761ZM-88.61 141.349C-88.8249 141.349 -89.0367 141.297 -89.2276 141.199C-89.4185 141.1 -89.5829 140.957 -89.707 140.781L-100.375 147.041L-123.906 160.848V200.962C-123.569 201.008 -123.259 201.175 -123.037 201.433C-122.814 201.69 -122.693 202.021 -122.696 202.361C-122.658 202.542 -122.658 202.729 -122.696 202.91L-88.5154 222.957L-76.7689 216.054L-54.354 202.815C-54.4206 202.639 -54.4589 202.454 -54.4675 202.267C-54.466 201.924 -54.3407 201.594 -54.1148 201.337C-53.8888 201.08 -53.5774 200.913 -53.238 200.867V160.829L-87.4372 140.762C-87.5702 140.952 -87.7497 141.103 -87.9585 141.203C-88.1673 141.302 -88.3982 141.346 -88.6289 141.33L-88.61 141.349ZM-88.7991 98.4168L-100.565 91.5137L-124.076 77.7263L-158.257 97.7738C-158.181 97.9468 -158.143 98.1336 -158.143 98.3223C-158.145 98.6625 -158.271 98.9903 -158.498 99.2444C-158.724 99.4986 -159.035 99.6615 -159.373 99.7029V139.817L-124.076 160.621L-112.311 153.718L-89.9151 140.479C-89.9436 140.291 -89.9436 140.099 -89.9151 139.911C-89.9177 139.573 -89.7958 139.245 -89.5726 138.991C-89.3494 138.736 -89.0405 138.572 -88.7045 138.531L-88.7991 98.4168ZM-88.61 16.5059C-88.8249 16.506 -89.0367 16.4545 -89.2276 16.3557C-89.4185 16.257 -89.5829 16.1139 -89.707 15.9385L-123.925 35.9859V77.3859L-112.16 84.289L-88.6289 98.0197L-54.4675 77.9722C-54.5341 77.7965 -54.5724 77.6114 -54.581 77.4237C-54.579 77.0835 -54.453 76.7557 -54.2267 76.5016C-54.0004 76.2474 -53.6893 76.0845 -53.3515 76.0431V35.9859L-87.5507 15.9195C-87.6729 16.0924 -87.8344 16.2339 -88.0217 16.3325C-88.2091 16.4311 -88.4171 16.484 -88.6289 16.4869L-88.61 16.5059Z" fill="#FDCE25"/>
</svg>
