<svg width="375" height="553" viewBox="0 0 375 553" fill="none" xmlns="http://www.w3.org/2000/svg">
<g opacity="0.2">
<g opacity="0.1">
<path opacity="0.3" d="M13.0469 254.715L-21.0955 274.744L-55.2568 254.715V214.62L-21.0955 194.592L13.0469 214.62V254.715Z" fill="white"/>
<path opacity="0.3" d="M13.0469 128.34L-21.0955 148.388L-55.2568 128.34V88.2643L-21.0955 68.2168L13.0469 88.2643V128.34Z" fill="white"/>
<path opacity="0.1" d="M48.9492 317.883L14.7879 337.931L-19.3545 317.883V277.807L14.7879 257.76L48.9492 277.807V317.883Z" fill="white"/>
<path opacity="0.3" d="M84.85 507.428L50.6887 527.476L16.5273 507.428V467.352L50.6887 447.305L84.85 467.352V507.428Z" fill="white"/>
<path opacity="0.6" d="M156.635 507.428L122.473 527.476L88.3311 507.428V467.352L122.473 447.305L156.635 467.352V507.428Z" fill="white"/>
<path opacity="0.3" d="M120.733 317.883L86.591 337.931L52.4297 317.883V277.807L86.591 257.76L120.733 277.807V317.883Z" fill="white"/>
<path opacity="0.6" d="M84.85 254.715L50.6887 274.744L16.5273 254.715V214.62L50.6887 194.592L84.85 214.62V254.715Z" fill="white"/>
<path opacity="0.6" d="M84.85 381.071L50.6887 401.099L16.5273 381.071V340.976L50.6887 320.947L84.85 340.976V381.071Z" fill="white"/>
<path opacity="0.3" d="M13.0469 381.071L-21.0955 401.099L-55.2568 381.071V340.976L-21.0955 320.947L13.0469 340.976V381.071Z" fill="white"/>
<path opacity="0.1" d="M120.733 191.528L86.591 211.556L52.4297 191.528V151.433L86.591 131.404L120.733 151.433V191.528Z" fill="white"/>
<path opacity="0.1" d="M48.9492 65.1724L14.7879 85.201L-19.3545 65.1724V25.0774L14.7879 5.04883L48.9492 25.0774V65.1724Z" fill="white"/>
<path opacity="0.6" d="M84.85 128.34L50.6887 148.388L16.5273 128.34V88.2643L50.6887 68.2168L84.85 88.2643V128.34Z" fill="white"/>
<path opacity="0.1" d="M120.733 444.239L86.591 464.287L52.4297 444.239V404.163L86.591 384.135L120.733 404.163V444.239Z" fill="white"/>
</g>
<path d="M18.5143 0H18.4197L-17.1225 20.804V62.7902L18.2684 83.5942V125.013L-17.1981 145.817V187.425L-52.4944 208.229L-87.9609 187.425L-123.522 208.229V250.045L-87.9798 270.849H-87.8852L-52.5133 250.045L-17.217 270.736V312.154L-52.3998 332.958L-87.8663 312.154L-123.427 332.958V374.566L-158.78 395.389L-194.247 374.585L-229.789 395.389V437.205L-194.228 458.009L-158.837 437.205L-123.56 458.009V499.409L-159.026 520.213V562.029L-123.484 582.833L-87.9231 562.029V520.421L-52.4755 499.617V457.915L-87.8474 437.111V395.692L-52.57 374.888L-17.1035 395.692L18.4386 374.888V333.28L53.716 312.571L89.0122 333.28V374.68L53.5457 395.484V437.3L88.9177 458.104V499.712H89.0122L124.554 520.516H124.649L160.191 499.712V457.915H160.097L124.725 437.111V395.692L160.021 374.888L195.487 395.692L231.048 374.888V333.072H230.954L195.412 312.268H195.317L159.945 333.072L124.649 312.381V270.963L160.38 250.159L195.847 270.963L231.408 250.159V208.551L266.685 187.747L302.152 208.551L337.694 187.747V145.817H337.599L302.246 124.824H302.152L266.78 145.628L231.484 125.013V83.5942L266.931 62.7902V20.9742L231.37 0.170215L195.809 20.9742V62.5822L160.361 83.3862V125.202L195.733 146.006V187.425L160.456 208.229L124.989 187.425H124.895L89.3527 208.229V249.837L54.0564 270.528L18.7034 249.856V208.437L54.1699 187.633V146.025L89.6364 125.221V83.3862L54.2645 62.5822V20.9742L18.5143 0ZM231.275 83.216L219.51 76.3128L195.998 62.5065V21.1822L231.275 0.378256L266.572 21.1822V62.5822L231.275 83.216ZM231.105 124.937L219.34 131.822L195.847 145.628L160.551 125.013V83.5942L195.847 62.9037L207.669 69.8069L231.181 83.5942L231.105 124.937ZM266.912 187.349V146.025L302.208 125.221L337.486 146.025V187.425L302.208 208.229L266.912 187.349ZM231.275 208.153L219.51 201.25L195.998 187.444V146.025L207.764 139.122L231.275 125.316L266.572 146.12V187.425L231.275 208.153ZM160.532 249.875V208.456L195.828 187.652L207.593 194.555L231.105 208.361V249.78L195.828 270.471L160.532 249.875ZM124.895 270.565L113.092 263.643L89.5797 249.856V208.437L124.857 187.633L160.153 208.437V249.856L124.895 270.565ZM160.532 374.699V333.28L195.828 312.571L231.105 333.28V374.68L195.828 395.389L160.532 374.699ZM89.6364 458.123L101.383 451.22L124.914 437.413L160.21 458.217V499.617L124.914 520.327L89.6364 499.523V458.123ZM89.4473 374.907L101.213 381.81L124.744 395.616V437.035L112.978 443.919L89.4473 457.726L54.1699 437.035V395.616L89.4473 374.907ZM89.6364 333.204L101.383 326.301L124.914 312.495L160.21 333.204V374.604L124.914 395.314L113.092 388.486L89.5797 374.68L89.6364 333.204ZM54.1699 312.192V270.773L89.4473 250.083L101.213 256.986L124.744 270.773V312.192L112.978 319.095L89.4473 332.883L54.1699 312.192ZM-123.352 499.825L-111.586 506.729L-88.0555 520.535V561.935L-123.352 582.644L-158.61 561.935V520.535L-123.352 499.825ZM-123.163 458.217L-111.397 451.314L-87.8852 437.508L-52.589 458.312V499.712L-87.8663 520.213L-99.6317 513.329L-123.144 499.523L-123.163 458.217ZM-158.988 395.805V437.224L-194.266 457.915L-229.562 437.224V395.805L-194.266 375.001L-158.988 395.805ZM-123.352 375.001L-111.586 381.905L-88.0555 395.711V437.13L-99.8209 444.014L-123.352 457.801L-158.61 437.111V395.692L-123.352 375.001ZM-52.589 333.299V374.699L-87.8663 395.389L-99.6317 388.486L-123.144 374.68V333.28L-87.8663 312.571L-52.589 333.299ZM-16.9522 312.589L-5.1868 319.493L18.3441 333.299V374.699L-16.9333 395.389L-52.2296 374.68V333.28L-16.9522 312.589ZM-16.782 270.868L-5.01656 263.984L18.5143 250.159L53.7916 270.849V312.268L18.5143 332.958L6.74886 326.074L-16.782 312.268V270.868ZM-52.589 208.456V249.875L-87.8663 270.546L-123.144 249.856V208.437L-87.8663 187.633L-52.589 208.456ZM-16.9522 187.652L-5.1868 194.555L18.3441 208.361V249.78L6.57863 256.665L-16.9522 270.471L-52.2296 249.856V208.437L-16.9522 187.652ZM18.5143 125.24L30.2608 132.143L53.7916 145.949V187.425L18.5143 208.135L6.74886 201.231L-16.782 187.425V146.025L18.5143 125.24ZM18.6845 83.5186L30.45 76.6343L53.9619 62.8281L89.2581 83.5186V124.937L53.9808 145.628L42.2343 138.744L18.7034 125.013L18.6845 83.5186ZM18.5143 0.472818L53.7916 21.2768V62.5822L42.0262 69.4853L18.5143 83.216L-16.782 62.412V21.1822L18.5143 0.472818Z" fill="white"/>
<path d="M53.9804 19.6699C53.6125 19.6749 53.2613 19.8245 53.0029 20.0865C52.7444 20.3484 52.5995 20.7015 52.5996 21.0695C52.5692 21.2574 52.5692 21.4489 52.5996 21.6368L18.3626 41.7789V82.1197C18.0248 82.1611 17.7137 82.3241 17.4874 82.5782C17.2611 82.8323 17.1352 83.1601 17.1331 83.5004C17.1331 83.8733 17.2799 84.2312 17.5419 84.4967C17.8039 84.7622 18.1599 84.9138 18.5328 84.9188C18.7494 84.9168 18.9624 84.8624 19.1534 84.7603C19.3444 84.6582 19.5079 84.5114 19.6299 84.3325L53.8102 104.399V144.532C53.4742 144.573 53.1653 144.737 52.9421 144.992C52.7189 145.246 52.597 145.574 52.5996 145.912C52.571 146.1 52.571 146.292 52.5996 146.48L18.3626 166.622V206.944C18.0216 206.985 17.7079 207.151 17.4811 207.409C17.2544 207.667 17.1305 208 17.1331 208.343C17.1325 208.532 17.1712 208.719 17.2466 208.892L-16.9337 228.939L-52.4002 208.135L-86.7696 228.296C-86.8937 228.121 -87.0581 227.978 -87.249 227.879C-87.4399 227.78 -87.6517 227.729 -87.8667 227.729C-88.2379 227.706 -88.6029 227.832 -88.8814 228.079C-89.1598 228.325 -89.329 228.672 -89.3515 229.043C-89.3741 229.414 -89.2483 229.779 -89.0017 230.058C-88.7552 230.336 -88.4081 230.505 -88.0369 230.528V270.85L-53.781 290.954C-53.8564 291.127 -53.8951 291.314 -53.8945 291.502C-53.8945 291.874 -53.747 292.23 -53.4845 292.492C-53.222 292.755 -52.866 292.902 -52.4948 292.902C-52.1235 292.902 -51.7675 292.755 -51.505 292.492C-51.2425 292.23 -51.095 291.874 -51.095 291.502C-51.0944 291.314 -51.133 291.127 -51.2085 290.954L-17.0282 270.906L17.1331 290.954C17.1044 291.136 17.1044 291.321 17.1331 291.502C17.1346 291.845 17.2599 292.175 17.4859 292.432C17.7119 292.69 18.0233 292.856 18.3626 292.902V333.016L-15.8366 353.139C-15.9619 352.963 -16.1261 352.819 -16.3164 352.717C-16.5067 352.616 -16.718 352.559 -16.9337 352.553C-17.1499 352.556 -17.3623 352.611 -17.5531 352.713C-17.7438 352.815 -17.9076 352.961 -18.0308 353.139L-52.4002 332.959L-87.9612 353.763V394.085C-88.299 394.126 -88.6101 394.289 -88.8364 394.543C-89.0627 394.798 -89.1887 395.125 -89.1907 395.466C-89.1842 395.66 -89.1458 395.851 -89.0773 396.033L-123.352 416.194L-158.8 395.39L-193.15 415.551C-193.276 415.378 -193.441 415.236 -193.632 415.138C-193.822 415.039 -194.033 414.987 -194.247 414.984C-194.433 414.984 -194.616 415.02 -194.787 415.092C-194.958 415.163 -195.114 415.268 -195.244 415.4C-195.374 415.532 -195.477 415.689 -195.546 415.861C-195.615 416.033 -195.65 416.217 -195.647 416.402C-195.645 416.742 -195.519 417.07 -195.293 417.324C-195.066 417.578 -194.755 417.741 -194.417 417.783V458.124L-158.856 478.928L-124.563 458.804C-124.441 458.98 -124.278 459.123 -124.089 459.222C-123.899 459.322 -123.689 459.373 -123.475 459.373C-123.261 459.373 -123.051 459.322 -122.861 459.222C-122.672 459.123 -122.509 458.98 -122.387 458.804L-88.1882 478.871V518.985C-88.526 519.026 -88.8371 519.189 -89.0634 519.443C-89.2897 519.697 -89.4157 520.025 -89.4177 520.365C-89.4111 520.559 -89.3728 520.751 -89.3042 520.933L-123.503 541.131V582.948L-89.2475 603.052C-89.3141 603.227 -89.3524 603.412 -89.361 603.6C-89.361 603.971 -89.2135 604.327 -88.951 604.59C-88.6885 604.852 -88.3325 605 -87.9612 605C-87.59 605 -87.234 604.852 -86.9715 604.59C-86.709 604.327 -86.5615 603.971 -86.5615 603.6C-86.5609 603.411 -86.5995 603.225 -86.675 603.052L-53.5918 583.647C-53.4616 583.821 -53.2933 583.962 -53.0998 584.061C-52.9063 584.159 -52.6928 584.212 -52.4758 584.215C-52.2592 584.213 -52.0463 584.158 -51.8553 584.056C-51.6643 583.954 -51.5007 583.807 -51.3787 583.628L-17.1796 603.695V645.114L-52.3812 665.88L-86.5615 645.813C-86.4838 645.641 -86.4451 645.454 -86.448 645.265C-86.448 644.894 -86.5955 644.538 -86.858 644.275C-87.1205 644.013 -87.4765 643.865 -87.8477 643.865C-88.219 643.865 -88.575 644.013 -88.8375 644.275C-89.1 644.538 -89.2475 644.894 -89.2475 645.265C-89.2504 645.454 -89.2117 645.641 -89.134 645.813L-123.484 665.974V706.296C-123.82 706.338 -124.129 706.502 -124.353 706.756C-124.576 707.011 -124.698 707.338 -124.695 707.677C-124.7 708.05 -124.558 708.41 -124.3 708.679C-124.041 708.948 -123.687 709.104 -123.314 709.114C-123.098 709.112 -122.885 709.058 -122.694 708.956C-122.503 708.854 -122.339 708.707 -122.217 708.528L-87.8477 728.689L-53.5729 708.566C-53.4516 708.745 -53.2882 708.892 -53.097 708.994C-52.9057 709.095 -52.6924 709.148 -52.4758 709.148C-52.2592 709.148 -52.046 709.095 -51.8547 708.994C-51.6634 708.892 -51.5 708.745 -51.3787 708.566L-17.1796 728.632V770.032L-51.2841 790.061C-51.4082 789.885 -51.5725 789.742 -51.7634 789.643C-51.9544 789.544 -52.1662 789.492 -52.3812 789.492C-52.5963 789.492 -52.8081 789.544 -52.999 789.643C-53.1899 789.742 -53.3543 789.885 -53.4783 790.061L-87.8477 769.9L-122.217 790.061C-122.34 789.884 -122.504 789.74 -122.695 789.641C-122.887 789.542 -123.099 789.492 -123.314 789.493C-123.685 789.471 -124.05 789.596 -124.329 789.843C-124.607 790.09 -124.777 790.437 -124.799 790.808C-124.822 791.179 -124.696 791.544 -124.449 791.822C-124.203 792.101 -123.856 792.27 -123.484 792.292V832.425L-157.684 852.492C-157.805 852.311 -157.968 852.164 -158.159 852.062C-158.35 851.959 -158.564 851.906 -158.781 851.905C-158.994 851.912 -159.202 851.968 -159.39 852.07C-159.577 852.172 -159.738 852.316 -159.859 852.492L-194.228 832.312L-229.77 853.116V893.438C-230.11 893.483 -230.421 893.65 -230.647 893.907C-230.873 894.165 -230.998 894.495 -231 894.837C-230.995 895.212 -230.844 895.57 -230.579 895.835C-230.314 896.1 -229.956 896.251 -229.581 896.256C-229.369 896.245 -229.162 896.187 -228.976 896.085C-228.789 895.984 -228.628 895.842 -228.503 895.669L-194.134 915.849H-194.039L-158.667 895.045L-124.506 915.093C-124.566 915.276 -124.598 915.467 -124.6 915.66C-124.603 915.999 -124.481 916.326 -124.258 916.581C-124.035 916.835 -123.726 916.999 -123.39 917.041V957.155L-158.856 977.959V1018.28C-159.228 1018.31 -159.574 1018.48 -159.818 1018.76C-160.063 1019.04 -160.187 1019.4 -160.162 1019.77C-160.136 1020.15 -159.965 1020.49 -159.685 1020.74C-159.404 1020.98 -159.038 1021.1 -158.667 1021.08C-158.455 1021.08 -158.247 1021.03 -158.059 1020.93C-157.871 1020.83 -157.71 1020.69 -157.589 1020.51L-123.352 1040.79H-123.257L-87.6964 1019.98V979.547C-87.3605 979.505 -87.0515 979.342 -86.8283 979.087C-86.6051 978.833 -86.4832 978.505 -86.4858 978.167C-86.4829 977.978 -86.5217 977.79 -86.5993 977.618L-52.2488 957.457V915.641L-87.6208 894.837V854.723C-87.2848 854.673 -86.9779 854.505 -86.7558 854.248C-86.5337 853.991 -86.411 853.663 -86.4102 853.324C-86.4096 853.135 -86.4482 852.948 -86.5237 852.775L-52.3434 832.728L-18.1631 852.775C-18.238 852.987 -18.2616 853.213 -18.2321 853.435C-18.2026 853.657 -18.1208 853.87 -17.9934 854.054C-17.8661 854.239 -17.6967 854.39 -17.4994 854.497C-17.302 854.603 -17.0822 854.661 -16.858 854.667C-16.6742 854.664 -16.4926 854.625 -16.3238 854.553C-16.1549 854.48 -16.002 854.375 -15.8737 854.243C-15.7455 854.112 -15.6445 853.956 -15.5764 853.785C-15.5084 853.614 -15.4747 853.432 -15.4772 853.248C-15.4766 853.059 -15.5152 852.873 -15.5907 852.7L18.7598 832.539V792.292C19.0976 792.251 19.4087 792.088 19.635 791.834C19.8613 791.58 19.9873 791.252 19.9893 790.912C19.9828 790.724 19.9444 790.538 19.8759 790.363L54.0372 770.316L89.3334 791.025V832.425L55.1343 852.492C55.0134 852.311 54.8502 852.164 54.6589 852.062C54.4676 851.959 54.2541 851.906 54.0372 851.905C53.6854 851.919 53.3511 852.062 53.0994 852.309C52.8477 852.555 52.6966 852.886 52.6754 853.237C52.6541 853.589 52.7643 853.935 52.9846 854.21C53.2048 854.485 53.5193 854.668 53.8669 854.723V894.837L18.4194 915.641V955.982C18.1883 956.006 17.9671 956.088 17.7755 956.219C17.5839 956.351 17.428 956.528 17.3219 956.734C17.2158 956.941 17.1628 957.171 17.1676 957.403C17.1725 957.635 17.2352 957.863 17.3499 958.065C17.4646 958.267 17.6278 958.437 17.8247 958.56C18.0217 958.683 18.2462 958.756 18.478 958.771C18.7099 958.785 18.9418 958.742 19.1528 958.645C19.3638 958.548 19.5473 958.4 19.6867 958.214L53.8669 978.28V1019.89L88.1229 1039.99C88.0498 1040.17 88.0175 1040.35 88.0283 1040.54C88.0258 1040.72 88.0595 1040.91 88.1276 1041.08C88.1956 1041.25 88.2966 1041.4 88.4249 1041.54C88.5531 1041.67 88.706 1041.77 88.8749 1041.85C89.0438 1041.92 89.2253 1041.96 89.4091 1041.96C89.7821 1041.95 90.1381 1041.8 90.4001 1041.54C90.662 1041.27 90.8089 1040.91 90.8089 1040.54C90.8137 1040.35 90.7749 1040.16 90.6954 1039.99L125.046 1019.83V979.547C125.417 979.525 125.764 979.356 126.011 979.077C126.257 978.799 126.383 978.434 126.36 978.063C126.338 977.691 126.169 977.344 125.89 977.098C125.612 976.851 125.247 976.726 124.876 976.748C124.659 976.75 124.446 976.805 124.255 976.907C124.064 977.009 123.901 977.156 123.779 977.334L89.6361 957.268V917.135C89.9739 917.094 90.285 916.931 90.5113 916.677C90.7376 916.423 90.8635 916.095 90.8656 915.755C90.8661 915.56 90.8275 915.367 90.7521 915.187L125.103 895.045V854.723C125.442 854.678 125.753 854.511 125.979 854.254C126.205 853.996 126.331 853.666 126.332 853.324C126.333 853.135 126.294 852.948 126.219 852.775L160.38 832.728L195.846 853.532L230.14 833.409C230.261 833.583 230.423 833.725 230.61 833.824C230.798 833.922 231.006 833.975 231.218 833.976C231.59 833.999 231.955 833.873 232.233 833.626C232.512 833.38 232.681 833.033 232.703 832.662C232.726 832.29 232.6 831.925 232.353 831.647C232.107 831.369 231.76 831.2 231.389 831.177V790.817L197.133 770.713C197.193 770.536 197.225 770.351 197.227 770.164C197.25 769.968 197.231 769.77 197.172 769.581C197.113 769.393 197.014 769.219 196.883 769.072C196.751 768.924 196.59 768.806 196.41 768.725C196.23 768.644 196.035 768.603 195.837 768.603C195.639 768.603 195.444 768.644 195.264 768.725C195.084 768.806 194.923 768.924 194.791 769.072C194.66 769.219 194.561 769.393 194.502 769.581C194.443 769.77 194.424 769.968 194.447 770.164C194.418 770.346 194.418 770.531 194.447 770.713L160.38 790.704L126.2 770.656C126.275 770.483 126.314 770.297 126.313 770.108C126.311 769.768 126.185 769.44 125.959 769.186C125.733 768.932 125.421 768.768 125.084 768.727V728.594L159.283 708.528C159.406 708.706 159.57 708.852 159.761 708.954C159.951 709.056 160.164 709.111 160.38 709.114C160.596 709.108 160.807 709.051 160.997 708.95C161.188 708.848 161.352 708.704 161.477 708.528L195.846 728.689L231.408 707.885V667.468C231.615 667.437 231.813 667.36 231.987 667.242C232.161 667.124 232.305 666.968 232.411 666.787C232.516 666.605 232.579 666.402 232.596 666.193C232.612 665.983 232.581 665.773 232.505 665.577L266.685 645.53L302.151 666.334H302.246L336.521 646.211C336.645 646.386 336.809 646.529 337 646.628C337.191 646.727 337.403 646.778 337.618 646.778C337.989 646.801 338.354 646.675 338.633 646.428C338.911 646.182 339.08 645.835 339.103 645.464C339.125 645.092 339 644.727 338.753 644.449C338.506 644.171 338.159 644.001 337.788 643.979V603.543L302.246 582.739H302.151L267.877 602.844C267.753 602.668 267.588 602.525 267.397 602.426C267.206 602.327 266.994 602.275 266.779 602.275C266.564 602.275 266.353 602.327 266.162 602.426C265.971 602.525 265.806 602.668 265.682 602.844L231.502 582.739V542.626C231.838 542.584 232.147 542.42 232.37 542.166C232.593 541.911 232.715 541.583 232.713 541.245C232.712 541.052 232.68 540.86 232.618 540.678L266.95 520.536V478.719L232.694 458.615C232.754 458.439 232.786 458.254 232.788 458.067C232.811 457.871 232.792 457.672 232.733 457.483C232.674 457.295 232.575 457.121 232.444 456.974C232.312 456.826 232.151 456.708 231.971 456.627C231.791 456.547 231.596 456.505 231.398 456.505C231.201 456.505 231.005 456.547 230.825 456.627C230.645 456.708 230.484 456.826 230.352 456.974C230.221 457.121 230.123 457.295 230.063 457.483C230.004 457.672 229.985 457.871 230.008 458.067C229.979 458.249 229.979 458.434 230.008 458.615L196.944 478.02C196.813 477.846 196.645 477.705 196.452 477.606C196.258 477.508 196.045 477.455 195.828 477.452C195.611 477.453 195.397 477.506 195.206 477.609C195.015 477.711 194.851 477.859 194.73 478.039L160.531 457.972V416.553L195.828 395.749L229.989 415.816C229.92 415.991 229.882 416.176 229.875 416.364C229.875 416.735 230.023 417.091 230.285 417.354C230.548 417.616 230.904 417.764 231.275 417.764C231.646 417.764 232.002 417.616 232.265 417.354C232.527 417.091 232.675 416.735 232.675 416.364C232.705 416.183 232.705 415.997 232.675 415.816L267.006 395.655V355.371C267.344 355.329 267.655 355.166 267.882 354.912C268.108 354.658 268.234 354.33 268.236 353.99C268.238 353.804 268.204 353.619 268.135 353.446C268.066 353.273 267.964 353.115 267.834 352.982C267.704 352.848 267.549 352.741 267.378 352.668C267.206 352.594 267.022 352.555 266.836 352.553C266.62 352.559 266.409 352.616 266.219 352.717C266.029 352.819 265.864 352.963 265.739 353.139L231.313 332.959H231.218L196.925 353.082C196.804 352.906 196.644 352.761 196.456 352.659C196.269 352.557 196.06 352.501 195.846 352.496C195.63 352.5 195.418 352.555 195.227 352.657C195.036 352.759 194.872 352.904 194.749 353.082L160.55 333.016V291.673L194.749 271.606C194.873 271.782 195.038 271.925 195.229 272.024C195.42 272.122 195.632 272.174 195.846 272.174C196.058 272.172 196.267 272.12 196.455 272.021C196.642 271.923 196.803 271.78 196.925 271.606L231.294 291.767L265.569 271.663C265.695 271.836 265.86 271.978 266.05 272.076C266.241 272.175 266.452 272.227 266.666 272.23C267.037 272.253 267.402 272.127 267.681 271.881C267.959 271.634 268.128 271.287 268.151 270.916C268.173 270.545 268.048 270.18 267.801 269.901C267.554 269.623 267.207 269.454 266.836 269.431V229.242L301.035 209.175C301.157 209.354 301.321 209.501 301.512 209.603C301.703 209.705 301.916 209.76 302.132 209.762C302.348 209.755 302.559 209.699 302.75 209.597C302.94 209.495 303.104 209.351 303.23 209.175L337.599 229.355L373.16 208.551V168.116C373.509 168.059 373.823 167.875 374.043 167.598C374.263 167.322 374.371 166.973 374.348 166.621C374.324 166.269 374.17 165.938 373.915 165.693C373.661 165.448 373.324 165.307 372.971 165.298C372.758 165.303 372.548 165.359 372.361 165.461C372.173 165.563 372.013 165.708 371.893 165.884L337.693 145.629H337.599L302.227 166.433L268.047 146.385C268.121 146.205 268.159 146.012 268.16 145.818C268.158 145.478 268.032 145.15 267.806 144.896C267.58 144.641 267.268 144.479 266.931 144.437V104.418L302.397 83.6138V43.273C302.581 43.2606 302.761 43.2121 302.926 43.1303C303.091 43.0485 303.238 42.935 303.359 42.7962C303.48 42.6575 303.573 42.4962 303.632 42.3217C303.691 42.1471 303.715 41.9627 303.702 41.7789C303.69 41.5951 303.641 41.4156 303.56 41.2505C303.478 41.0855 303.364 40.9381 303.226 40.817C303.087 40.6958 302.926 40.6031 302.751 40.5443C302.576 40.4854 302.392 40.4615 302.208 40.4739C301.996 40.4768 301.788 40.5297 301.601 40.6283C301.414 40.7269 301.252 40.8684 301.13 41.0413L266.76 20.8047L231.199 41.6087V82.1197C230.86 82.1654 230.549 82.3322 230.323 82.5894C230.097 82.8466 229.971 83.1769 229.97 83.5193C229.979 83.7008 230.017 83.8797 230.083 84.0488L195.657 104.21V146.026L231.029 166.83V206.944C230.69 206.989 230.378 207.156 230.152 207.413C229.927 207.671 229.801 208.001 229.8 208.343C229.808 208.531 229.847 208.716 229.913 208.892L195.752 228.939L161.572 208.892C161.649 208.713 161.688 208.519 161.685 208.324C161.685 208.141 161.649 207.959 161.579 207.789C161.508 207.619 161.405 207.465 161.275 207.335C161.145 207.205 160.991 207.102 160.821 207.031C160.651 206.961 160.469 206.925 160.285 206.925C160.102 206.925 159.92 206.961 159.75 207.031C159.58 207.102 159.426 207.205 159.296 207.335C159.166 207.465 159.062 207.619 158.992 207.789C158.922 207.959 158.886 208.141 158.886 208.324C158.885 208.513 158.924 208.7 158.999 208.873L124.743 229.034V269.375C124.405 269.416 124.094 269.579 123.868 269.833C123.642 270.087 123.516 270.415 123.514 270.755C123.513 270.944 123.552 271.131 123.627 271.304L89.4469 291.351L54.1696 270.547V229.242L88.3687 209.175C88.4854 209.355 88.6451 209.503 88.8334 209.605C89.0217 209.708 89.2326 209.762 89.4469 209.762C89.8199 209.757 90.1759 209.605 90.4379 209.34C90.6999 209.074 90.8467 208.716 90.8467 208.343C90.8498 208.003 90.7286 207.673 90.5057 207.415C90.2828 207.157 89.9737 206.99 89.6361 206.944V166.83L125.084 146.026V105.685C125.315 105.66 125.536 105.579 125.728 105.447C125.919 105.316 126.075 105.139 126.181 104.932C126.287 104.726 126.34 104.496 126.335 104.264C126.331 104.032 126.268 103.804 126.153 103.602C126.038 103.4 125.875 103.23 125.678 103.107C125.481 102.984 125.257 102.911 125.025 102.897C124.793 102.882 124.561 102.925 124.35 103.022C124.139 103.119 123.956 103.267 123.816 103.453L89.6361 83.3869V41.7789L55.2856 21.6368C55.316 21.4489 55.316 21.2574 55.2856 21.0695C55.2864 20.7141 55.152 20.3717 54.9096 20.1118C54.6672 19.8519 54.3351 19.6939 53.9804 19.6699ZM266.76 104.021L254.957 97.1932L232.542 83.9543C232.618 83.7813 232.657 83.5945 232.656 83.4058C232.659 83.0673 232.537 82.7396 232.313 82.4851C232.09 82.2306 231.781 82.0669 231.445 82.0252V41.9869L266.723 21.1829L300.903 41.2493C300.825 41.4216 300.786 41.6089 300.789 41.7978C300.792 42.138 300.917 42.4659 301.144 42.72C301.37 42.9741 301.681 43.1371 302.019 43.1784V83.4058L266.76 104.021ZM254.825 152.645L231.294 166.452L196.017 145.648V104.418L230.216 84.3514C230.34 84.5269 230.504 84.67 230.695 84.7687C230.886 84.8674 231.098 84.9189 231.313 84.9188C231.525 84.9175 231.734 84.8652 231.921 84.7665C232.109 84.6677 232.27 84.5254 232.391 84.3514L243.059 90.6115L266.59 104.418V144.532C266.251 144.577 265.94 144.744 265.714 145.001C265.488 145.259 265.362 145.589 265.361 145.931C265.369 146.113 265.408 146.292 265.474 146.461L254.825 152.645ZM303.513 208.816C303.591 208.637 303.629 208.444 303.627 208.249C303.625 207.908 303.499 207.581 303.272 207.326C303.046 207.072 302.735 206.909 302.397 206.868V166.83L337.693 146.026L371.855 166.073C371.793 166.256 371.761 166.448 371.76 166.641C371.758 166.979 371.88 167.307 372.103 167.561C372.326 167.816 372.635 167.98 372.971 168.021V208.23L337.693 229.034L303.513 208.816ZM266.76 228.864L254.957 222.036L232.542 208.797C232.618 208.624 232.657 208.437 232.656 208.249C232.659 207.908 232.538 207.578 232.315 207.32C232.092 207.063 231.783 206.895 231.445 206.849V166.83L243.211 159.927L265.626 146.688C265.754 146.864 265.922 147.007 266.116 147.105C266.31 147.204 266.524 147.255 266.742 147.255C266.953 147.249 267.16 147.195 267.347 147.097C267.534 146.998 267.695 146.858 267.82 146.688L302.019 166.754V206.868C301.68 206.914 301.368 207.08 301.142 207.338C300.916 207.595 300.791 207.925 300.789 208.268C300.789 208.456 300.827 208.643 300.903 208.816L266.76 228.864ZM197.133 271.228C197.161 271.046 197.161 270.861 197.133 270.68C197.135 270.341 197.013 270.013 196.79 269.759C196.567 269.504 196.258 269.341 195.922 269.299V229.242L230.121 209.175C230.238 209.355 230.398 209.503 230.586 209.605C230.774 209.708 230.985 209.762 231.199 209.762C231.416 209.761 231.63 209.708 231.821 209.605C232.012 209.503 232.176 209.355 232.297 209.175L242.965 215.436L266.496 229.242V269.375C266.158 269.416 265.847 269.579 265.62 269.833C265.394 270.087 265.268 270.415 265.266 270.755C265.266 270.944 265.304 271.131 265.38 271.304L231.199 291.351L197.133 271.228ZM160.38 291.351L148.615 284.448L126.2 271.209C126.275 271.036 126.314 270.849 126.313 270.661C126.311 270.32 126.185 269.993 125.959 269.738C125.733 269.484 125.421 269.321 125.084 269.28V229.242L159.283 209.175C159.405 209.354 159.568 209.501 159.759 209.603C159.95 209.705 160.163 209.76 160.38 209.762C160.596 209.755 160.807 209.699 160.997 209.597C161.188 209.495 161.352 209.351 161.477 209.175L195.657 229.242V269.375C195.321 269.416 195.012 269.58 194.789 269.835C194.566 270.089 194.444 270.417 194.447 270.755C194.446 270.944 194.485 271.131 194.56 271.304L160.38 291.351ZM160.21 333.073L148.444 339.976L124.913 353.782L90.7332 333.716C90.8127 333.544 90.8516 333.356 90.8467 333.167C90.8493 332.829 90.7274 332.501 90.5042 332.246C90.281 331.992 89.9721 331.828 89.6361 331.787V291.673L123.816 271.606C123.94 271.782 124.105 271.925 124.296 272.024C124.487 272.123 124.698 272.175 124.913 272.175C125.128 272.175 125.34 272.123 125.531 272.024C125.722 271.925 125.887 271.782 126.011 271.606L136.679 277.866L160.21 291.673V333.073ZM89.4469 334.586C89.6613 334.583 89.872 334.53 90.0625 334.431C90.2529 334.333 90.4178 334.191 90.544 334.018L124.743 354.085V394.217C124.405 394.259 124.094 394.422 123.868 394.676C123.642 394.93 123.516 395.258 123.514 395.598C123.513 395.787 123.552 395.974 123.627 396.147L89.2767 416.307V456.629C89.0457 456.654 88.8244 456.736 88.6328 456.867C88.4412 456.998 88.2853 457.175 88.1792 457.382C88.0731 457.589 88.0201 457.818 88.025 458.051C88.0299 458.283 88.0925 458.51 88.2072 458.712C88.3219 458.914 88.4851 459.084 88.682 459.208C88.879 459.331 89.1035 459.403 89.3354 459.418C89.5672 459.433 89.7991 459.389 90.0101 459.292C90.2211 459.195 90.4046 459.047 90.544 458.861L124.743 478.928V519.041C124.505 519.06 124.275 519.138 124.075 519.268C123.875 519.399 123.711 519.578 123.599 519.789C123.486 520 123.429 520.236 123.433 520.475C123.436 520.714 123.499 520.948 123.617 521.156C123.735 521.364 123.904 521.539 124.108 521.664C124.311 521.789 124.543 521.861 124.782 521.872C125.021 521.884 125.258 521.835 125.473 521.731C125.688 521.626 125.873 521.468 126.011 521.273L160.21 541.358V581.472C159.874 581.514 159.565 581.678 159.342 581.932C159.118 582.187 158.997 582.514 158.999 582.853C158.999 583.226 159.146 583.584 159.408 583.849C159.67 584.115 160.026 584.266 160.399 584.271C160.615 584.269 160.828 584.215 161.019 584.113C161.21 584.011 161.374 583.864 161.496 583.685L195.676 603.752V645.17L160.38 665.88L126.2 645.813C126.277 645.641 126.316 645.454 126.313 645.265C126.313 645.081 126.277 644.899 126.207 644.729C126.136 644.56 126.033 644.405 125.903 644.275C125.773 644.145 125.619 644.042 125.449 643.972C125.279 643.902 125.097 643.865 124.913 643.865C124.73 643.865 124.548 643.902 124.378 643.972C124.208 644.042 124.054 644.145 123.924 644.275C123.794 644.405 123.691 644.56 123.62 644.729C123.55 644.899 123.514 645.081 123.514 645.265C123.511 645.454 123.55 645.641 123.627 645.813L89.2767 665.974V706.296C88.9391 706.342 88.6299 706.51 88.4071 706.767C88.1842 707.025 88.063 707.355 88.0661 707.696C88.059 707.883 88.0912 708.07 88.1607 708.244L55.0775 727.649C54.9556 727.473 54.793 727.33 54.6036 727.231C54.4142 727.132 54.2036 727.08 53.9899 727.08C53.7761 727.08 53.5656 727.132 53.3762 727.231C53.1868 727.33 53.0241 727.473 52.9023 727.649L18.722 707.582V667.45C19.0598 667.408 19.3709 667.245 19.5972 666.991C19.8235 666.737 19.9494 666.409 19.9515 666.069C19.9429 665.881 19.9046 665.696 19.838 665.52L54.1885 645.378V605.038C54.3723 605.025 54.5519 604.977 54.7169 604.895C54.882 604.813 55.0294 604.7 55.1506 604.561C55.2718 604.422 55.3644 604.261 55.4233 604.086C55.4822 603.912 55.5061 603.727 55.4937 603.543C55.4813 603.36 55.4327 603.18 55.3509 603.015C55.2691 602.85 55.1556 602.703 55.0168 602.582C54.8781 602.46 54.7168 602.368 54.5422 602.309C54.3676 602.25 54.1832 602.226 53.9993 602.238C53.7876 602.241 53.5796 602.294 53.3922 602.393C53.2048 602.491 53.0434 602.633 52.9212 602.806L18.722 582.739V542.626C19.0614 542.58 19.3727 542.413 19.5987 542.156C19.8247 541.899 19.95 541.568 19.9515 541.226C19.9466 540.851 19.7956 540.493 19.5306 540.228C19.2656 539.964 18.9076 539.812 18.5328 539.808C18.3198 539.814 18.1112 539.871 17.924 539.972C17.7367 540.074 17.576 540.219 17.4547 540.394L-16.7634 520.327V480.195C-16.4257 480.153 -16.1145 479.99 -15.8883 479.736C-15.662 479.482 -15.536 479.154 -15.5339 478.814C-15.5339 478.441 -15.6807 478.083 -15.9427 477.818C-16.2047 477.552 -16.5607 477.401 -16.9337 477.396C-17.1506 477.396 -17.3641 477.45 -17.5554 477.552C-17.7467 477.654 -17.9099 477.802 -18.0308 477.982L-52.2299 457.915V416.497L-16.9337 395.693L17.2277 415.759C17.1973 415.941 17.1973 416.126 17.2277 416.307C17.2277 416.679 17.3752 417.035 17.6377 417.297C17.9002 417.56 18.2562 417.707 18.6274 417.707C18.9987 417.707 19.3547 417.56 19.6172 417.297C19.8797 417.035 20.0272 416.679 20.0272 416.307C20.0206 416.12 19.9822 415.934 19.9137 415.759L54.2642 395.598V355.371C54.6001 355.321 54.907 355.152 55.1291 354.895C55.3513 354.639 55.4739 354.311 55.4747 353.971C55.5034 353.789 55.5034 353.604 55.4747 353.423L88.539 334.018C88.6449 334.168 88.7798 334.296 88.9357 334.394C89.0916 334.491 89.2654 334.556 89.4469 334.586ZM196.017 395.485V355.371C196.353 355.329 196.662 355.165 196.885 354.911C197.108 354.656 197.23 354.329 197.227 353.99C197.258 353.802 197.258 353.611 197.227 353.423L231.408 333.375L265.569 353.423C265.491 353.602 265.453 353.795 265.455 353.99C265.457 354.33 265.583 354.658 265.81 354.912C266.036 355.166 266.347 355.329 266.685 355.371V395.485L232.486 415.551C232.362 415.376 232.197 415.232 232.006 415.134C231.815 415.035 231.604 414.984 231.389 414.984C231.177 414.985 230.968 415.037 230.78 415.136C230.593 415.235 230.432 415.377 230.31 415.551L196.017 395.485ZM160.38 416.194L148.615 409.291L126.2 396.052C126.275 395.879 126.314 395.692 126.313 395.504C126.315 395.162 126.191 394.832 125.964 394.577C125.737 394.322 125.423 394.16 125.084 394.123V354.085L136.849 347.182L160.38 333.375L194.56 353.423C194.484 353.618 194.453 353.829 194.469 354.038C194.485 354.247 194.549 354.45 194.654 354.632C194.759 354.814 194.904 354.969 195.078 355.087C195.252 355.205 195.45 355.283 195.657 355.314V395.428L160.38 416.194ZM160.21 457.915L148.444 464.819L124.913 478.606L90.7332 458.559C90.8086 458.386 90.8473 458.199 90.8467 458.01C90.8493 457.672 90.7274 457.344 90.5042 457.089C90.281 456.835 89.9721 456.671 89.6361 456.629V416.497L123.816 396.43C123.938 396.61 124.101 396.757 124.292 396.858C124.484 396.96 124.697 397.013 124.913 397.013C125.13 397.013 125.343 396.96 125.535 396.858C125.726 396.757 125.889 396.61 126.011 396.43L136.679 402.69L160.21 416.497V457.915ZM194.56 478.266C194.484 478.461 194.453 478.672 194.469 478.881C194.485 479.09 194.549 479.293 194.654 479.475C194.759 479.657 194.904 479.812 195.078 479.93C195.252 480.048 195.45 480.126 195.657 480.157V520.29L160.38 541.037L126.2 520.989C126.275 520.816 126.314 520.63 126.313 520.441C126.316 520.097 126.192 519.765 125.965 519.507C125.738 519.249 125.425 519.083 125.084 519.041V478.928L136.849 472.024L160.38 458.218L194.56 478.266ZM231.332 539.826C231.117 539.826 230.905 539.878 230.714 539.977C230.523 540.075 230.359 540.218 230.235 540.394L219.566 534.134L196.036 520.327V480.195C196.368 480.149 196.673 479.983 196.892 479.729C197.111 479.475 197.23 479.15 197.227 478.814C197.258 478.639 197.258 478.46 197.227 478.285L230.329 458.861C230.451 459.037 230.614 459.18 230.803 459.279C230.993 459.378 231.203 459.43 231.417 459.43C231.631 459.43 231.841 459.378 232.031 459.279C232.22 459.18 232.383 459.037 232.505 458.861L266.704 478.928V520.327L232.505 540.394C232.373 540.208 232.197 540.058 231.992 539.958C231.786 539.859 231.559 539.814 231.332 539.826ZM231.143 582.739L219.377 589.643L195.865 603.449L161.685 583.401C161.761 583.228 161.799 583.042 161.799 582.853C161.797 582.513 161.671 582.185 161.444 581.931C161.218 581.677 160.907 581.514 160.569 581.472V541.34L195.865 520.536L207.631 527.439L230.027 540.583C229.996 540.771 229.996 540.962 230.027 541.15C230.024 541.489 230.146 541.817 230.369 542.071C230.592 542.326 230.901 542.489 231.237 542.531L231.143 582.739ZM266.95 645.151V605.038C267.287 604.996 267.599 604.833 267.825 604.579C268.051 604.325 268.177 603.997 268.179 603.657C268.18 603.468 268.141 603.281 268.066 603.108L302.246 583.061L337.542 603.752V643.884C337.204 643.926 336.893 644.089 336.667 644.343C336.441 644.597 336.315 644.925 336.313 645.265C336.31 645.454 336.349 645.641 336.426 645.813L302.246 665.88L266.95 645.151ZM231.332 664.632C231.116 664.635 230.903 664.69 230.712 664.792C230.522 664.894 230.358 665.04 230.235 665.218L219.566 658.939L196.036 645.151V603.733L207.801 596.848L231.332 583.042L265.493 603.09C265.418 603.263 265.379 603.449 265.38 603.638C265.382 603.978 265.508 604.306 265.734 604.56C265.96 604.814 266.271 604.977 266.609 605.019V645.151L232.41 665.218C232.287 665.046 232.125 664.905 231.938 664.807C231.751 664.708 231.543 664.655 231.332 664.65V664.632ZM161.685 708.225C161.761 708.052 161.799 707.866 161.799 707.677C161.797 707.335 161.672 707.004 161.446 706.747C161.22 706.49 160.908 706.323 160.569 706.277V666.182L195.865 645.473L207.631 652.376L230.027 665.52C229.996 665.708 229.996 665.9 230.027 666.088C230.024 666.426 230.146 666.754 230.369 667.009C230.592 667.263 230.901 667.427 231.237 667.468V707.582L195.96 728.292L161.685 708.225ZM124.932 728.273L113.091 721.389L90.6764 708.244C90.7519 708.071 90.7905 707.885 90.7899 707.696C90.7925 707.352 90.6686 707.02 90.4419 706.762C90.2152 706.504 89.9014 706.338 89.5604 706.296V666.182L123.76 646.116C123.881 646.295 124.044 646.442 124.236 646.544C124.427 646.646 124.64 646.699 124.857 646.699C125.073 646.699 125.287 646.646 125.478 646.544C125.669 646.442 125.833 646.295 125.954 646.116L160.134 666.182V706.296C159.796 706.342 159.487 706.51 159.264 706.767C159.042 707.025 158.92 707.355 158.923 707.696C158.923 707.885 158.961 708.071 159.037 708.244L124.932 728.273ZM160.569 832.406V791.025L194.768 770.959C194.892 771.134 195.057 771.277 195.248 771.376C195.439 771.475 195.65 771.526 195.865 771.526C196.08 771.523 196.29 771.471 196.481 771.372C196.671 771.274 196.836 771.132 196.962 770.959L231.143 791.025V831.139C230.805 831.18 230.494 831.344 230.268 831.598C230.041 831.852 229.915 832.18 229.913 832.52C229.92 832.708 229.958 832.893 230.027 833.068L195.865 853.116L160.569 832.406ZM54.1885 978.261L65.935 971.358L89.4659 957.552L123.646 977.599C123.571 977.772 123.532 977.959 123.533 978.148C123.535 978.488 123.661 978.816 123.887 979.07C124.113 979.324 124.424 979.487 124.762 979.528V1019.66L90.563 1039.73C90.4398 1039.55 90.2761 1039.4 90.0853 1039.3C89.8945 1039.2 89.6821 1039.14 89.4659 1039.14C89.2502 1039.15 89.0389 1039.2 88.8486 1039.31C88.6583 1039.41 88.494 1039.55 88.3687 1039.73L54.1885 1019.66V978.261ZM53.9993 895.045L65.8026 902.137L88.2174 915.282C88.148 915.463 88.1158 915.656 88.1229 915.849C88.1203 916.188 88.2422 916.515 88.4653 916.77C88.6885 917.024 88.9975 917.188 89.3334 917.23V957.363L77.568 964.266L54.0372 978.053L19.838 957.911C19.9046 957.735 19.9429 957.55 19.9515 957.363C19.9494 957.022 19.8235 956.695 19.5972 956.44C19.3709 956.186 19.0598 956.023 18.722 955.982V915.849L53.9993 895.045ZM89.4659 832.633L101.231 839.536L123.646 852.681C123.571 852.854 123.532 853.041 123.533 853.229C123.534 853.572 123.659 853.902 123.885 854.159C124.111 854.416 124.423 854.583 124.762 854.629V894.743L90.563 914.809C90.4388 914.634 90.2744 914.49 90.0835 914.392C89.8926 914.293 89.6808 914.242 89.4659 914.242C89.2515 914.245 89.0407 914.297 88.8503 914.396C88.6599 914.494 88.495 914.636 88.3687 914.809L77.7004 908.549L54.1885 894.743V854.723C54.5244 854.673 54.8313 854.505 55.0535 854.248C55.2756 853.991 55.3983 853.663 55.3991 853.324C55.4278 853.142 55.4278 852.957 55.3991 852.775L89.4659 832.633ZM89.6361 790.931L101.402 784.009L123.835 770.864C123.959 771.04 124.124 771.183 124.315 771.282C124.505 771.381 124.717 771.433 124.932 771.433C125.147 771.433 125.359 771.381 125.55 771.282C125.741 771.183 125.905 771.04 126.029 770.864L160.21 790.931V832.331L126.029 852.397C125.908 852.218 125.745 852.071 125.553 851.969C125.362 851.867 125.149 851.814 124.932 851.814C124.716 851.814 124.503 851.867 124.311 851.969C124.12 852.071 123.957 852.218 123.835 852.397L113.091 846.232L89.5604 832.425L89.6361 790.931ZM54.1885 769.9V729.88C54.5245 729.839 54.8334 729.675 55.0566 729.42C55.2798 729.166 55.4017 728.838 55.3991 728.5C55.4309 728.318 55.4309 728.133 55.3991 727.951L88.4633 708.528C88.5886 708.704 88.7528 708.848 88.9432 708.95C89.1335 709.051 89.3447 709.108 89.5604 709.114C89.7767 709.111 89.9891 709.056 90.1798 708.954C90.3706 708.852 90.5344 708.706 90.6575 708.528L101.326 714.788L124.857 728.594V768.727C124.519 768.768 124.208 768.932 123.982 769.186C123.755 769.44 123.629 769.768 123.627 770.108C123.627 770.297 123.665 770.483 123.741 770.656L113.091 776.897L89.5604 790.704L54.1885 769.9ZM-123.352 957.571L-111.549 964.549L-89.134 977.694C-89.2094 977.867 -89.2481 978.054 -89.2475 978.242C-89.2415 978.581 -89.1141 978.907 -88.8886 979.16C-88.663 979.414 -88.3542 979.578 -88.018 979.623V1019.76L-123.352 1040.37L-157.4 1020.32C-157.363 1020.14 -157.363 1019.96 -157.4 1019.77C-157.402 1019.43 -157.528 1019.11 -157.754 1018.85C-157.981 1018.6 -158.292 1018.44 -158.629 1018.39V978.261L-123.352 957.571ZM-111.397 908.946L-87.8856 895.14L-52.5893 915.944V957.344L-86.7507 977.316C-86.8748 977.14 -87.0392 976.997 -87.2301 976.898C-87.421 976.799 -87.6328 976.748 -87.8477 976.748C-88.0598 976.75 -88.2684 976.802 -88.456 976.9C-88.6436 976.999 -88.8048 977.142 -88.9259 977.316L-99.6132 971.055L-123.125 957.249V917.135C-122.786 917.093 -122.474 916.927 -122.251 916.668C-122.027 916.41 -121.907 916.077 -121.915 915.736C-121.915 915.547 -121.954 915.361 -122.028 915.187L-111.397 908.946ZM-160.048 852.775C-160.124 852.971 -160.155 853.181 -160.139 853.391C-160.123 853.6 -160.06 853.803 -159.954 853.985C-159.849 854.166 -159.704 854.322 -159.53 854.44C-159.357 854.558 -159.159 854.635 -158.951 854.667V894.78L-194.228 915.584L-228.409 895.537C-228.331 895.358 -228.292 895.165 -228.295 894.97C-228.297 894.629 -228.423 894.302 -228.649 894.047C-228.876 893.793 -229.187 893.63 -229.525 893.589V853.437L-194.228 832.728L-160.048 852.775ZM-123.352 832.728L-111.549 839.726L-89.134 852.87C-89.2094 853.043 -89.2481 853.23 -89.2475 853.418C-89.246 853.761 -89.1207 854.091 -88.8947 854.348C-88.6687 854.605 -88.3573 854.772 -88.018 854.818V894.932L-99.7834 901.835L-122.217 915.074C-122.341 914.898 -122.506 914.755 -122.697 914.657C-122.887 914.558 -123.099 914.506 -123.314 914.506C-123.526 914.508 -123.735 914.56 -123.922 914.659C-124.11 914.757 -124.271 914.9 -124.392 915.074L-158.592 894.837V854.723C-158.252 854.678 -157.941 854.511 -157.715 854.254C-157.489 853.996 -157.364 853.666 -157.362 853.324C-157.346 853.14 -157.359 852.955 -157.4 852.775L-123.352 832.728ZM-53.7053 790.363C-53.783 790.536 -53.8217 790.723 -53.8188 790.912C-53.8167 791.252 -53.6908 791.58 -53.4645 791.834C-53.2382 792.088 -52.9271 792.251 -52.5893 792.292V832.425L-86.7507 852.492C-86.8715 852.311 -87.0348 852.164 -87.2261 852.062C-87.4174 851.959 -87.6308 851.906 -87.8477 851.905C-88.0621 851.905 -88.273 851.959 -88.4613 852.062C-88.6496 852.164 -88.8093 852.312 -88.9259 852.492L-99.6132 846.232L-123.125 832.425V792.292C-122.789 792.251 -122.48 792.087 -122.257 791.832C-122.034 791.578 -121.912 791.25 -121.915 790.912C-121.912 790.723 -121.95 790.536 -122.028 790.363L-87.8477 770.316L-53.7053 790.363ZM-16.9526 770.316L-5.14934 777.314L17.2466 790.458C17.2163 790.639 17.2163 790.825 17.2466 791.006C17.2487 791.347 17.3746 791.674 17.6009 791.929C17.8272 792.183 18.1383 792.346 18.4761 792.387V832.52L-15.8177 852.492C-15.9438 852.312 -16.1108 852.166 -16.3048 852.064C-16.4989 851.962 -16.7144 851.907 -16.9337 851.905C-17.1467 851.912 -17.3553 851.968 -17.5425 852.07C-17.7298 852.172 -17.8905 852.316 -18.0118 852.492L-52.211 832.425V792.292C-51.8732 792.251 -51.5621 792.088 -51.3358 791.834C-51.1095 791.58 -50.9836 791.252 -50.9815 790.912C-50.9786 790.723 -51.0173 790.536 -51.095 790.363L-16.9526 770.316ZM-16.7823 728.594L-5.01691 721.691L18.5139 707.885L52.6942 727.951C52.6624 728.133 52.6624 728.318 52.6942 728.5C52.6916 728.838 52.8135 729.166 53.0367 729.42C53.2599 729.675 53.5688 729.839 53.9048 729.88V769.994L19.6488 790.061C19.5207 789.885 19.3528 789.742 19.1589 789.643C18.9649 789.545 18.7504 789.493 18.5328 789.493C18.3211 789.496 18.1131 789.549 17.9257 789.648C17.7383 789.746 17.5769 789.888 17.4547 790.061L6.78635 783.801L-16.7445 769.994L-16.7823 728.594ZM-52.5893 666.182V706.296C-52.9271 706.338 -53.2382 706.501 -53.4645 706.755C-53.6908 707.009 -53.8167 707.337 -53.8188 707.677C-53.8215 707.872 -53.7828 708.065 -53.7053 708.244L-87.8856 728.292L-122.028 708.244C-121.952 708.049 -121.921 707.838 -121.937 707.629C-121.953 707.42 -122.016 707.217 -122.122 707.035C-122.227 706.853 -122.372 706.698 -122.546 706.58C-122.719 706.462 -122.917 706.384 -123.125 706.353V666.182L-88.9259 646.116C-88.8048 646.29 -88.6436 646.432 -88.456 646.531C-88.2684 646.63 -88.0598 646.682 -87.8477 646.683C-87.6328 646.683 -87.421 646.632 -87.2301 646.533C-87.0392 646.435 -86.8748 646.291 -86.7507 646.116L-52.5893 666.182ZM-16.9526 645.473L-5.18715 652.376L17.2088 665.52C17.1801 665.702 17.1801 665.887 17.2088 666.069C17.2067 666.41 17.3312 666.74 17.5583 666.995C17.7854 667.25 18.0989 667.412 18.4383 667.45V707.582L6.67284 714.485L-16.858 728.292L-51.095 708.244C-51.0188 708.047 -50.9882 707.835 -51.0055 707.625C-51.0229 707.414 -51.0877 707.21 -51.195 707.029C-51.3024 706.846 -51.4496 706.691 -51.6255 706.574C-51.8015 706.457 -52.0016 706.382 -52.211 706.353V666.182L-16.9526 645.473ZM-16.7823 603.752L-5.01691 596.867L18.5139 583.061L52.6942 603.108C52.6655 603.29 52.6655 603.475 52.6942 603.657C52.6916 603.995 52.8135 604.323 53.0367 604.578C53.2599 604.832 53.5688 604.996 53.9048 605.038V645.17L19.6488 665.237C19.5217 665.059 19.3544 664.913 19.1606 664.811C18.9668 664.709 18.7518 664.654 18.5328 664.65C18.3198 664.657 18.1112 664.713 17.924 664.815C17.7367 664.917 17.576 665.061 17.4547 665.237L6.78635 658.958L-16.7445 645.17L-16.7823 603.752ZM-51.095 583.401C-51.0196 583.228 -50.9809 583.042 -50.9815 582.853C-50.979 582.509 -51.1028 582.177 -51.3296 581.919C-51.5563 581.661 -51.87 581.495 -52.211 581.453V541.34L-16.9147 520.536L17.2466 540.583C17.2179 540.765 17.2179 540.95 17.2466 541.131C17.244 541.475 17.3679 541.807 17.5947 542.065C17.8214 542.324 18.1351 542.489 18.4761 542.531V582.645L6.71068 589.548L-16.8202 603.354L-51.095 583.401ZM-87.8667 521.841C-87.6517 521.841 -87.4399 521.789 -87.249 521.69C-87.0581 521.592 -86.8937 521.449 -86.7696 521.273L-76.0634 527.533L-52.5326 541.34V581.472C-52.8685 581.514 -53.1775 581.678 -53.4007 581.932C-53.6238 582.187 -53.7457 582.514 -53.7432 582.853C-53.7458 583.036 -53.707 583.217 -53.6297 583.382L-86.7317 602.806C-86.8558 602.63 -87.0202 602.487 -87.2112 602.389C-87.4021 602.29 -87.6139 602.238 -87.8288 602.238C-88.0408 602.24 -88.2495 602.292 -88.4371 602.391C-88.6247 602.49 -88.7859 602.632 -88.907 602.806L-123.144 582.739V541.34L-88.9448 521.273C-88.8237 521.447 -88.6625 521.589 -88.4749 521.688C-88.2873 521.787 -88.0787 521.839 -87.8667 521.841ZM-87.6775 478.928L-75.9121 472.024L-52.4002 458.218L-18.2199 478.266C-18.2953 478.439 -18.334 478.625 -18.3334 478.814C-18.3313 479.154 -18.2054 479.482 -17.9791 479.736C-17.7528 479.99 -17.4417 480.153 -17.1039 480.195V520.327L-52.4002 541.037L-64.1656 534.134L-86.5804 520.989C-86.5043 520.794 -86.4732 520.583 -86.4895 520.374C-86.5057 520.165 -86.5688 519.962 -86.6742 519.78C-86.7795 519.598 -86.9244 519.443 -87.0981 519.325C-87.2718 519.207 -87.4698 519.129 -87.6775 519.098V478.928ZM-123.503 416.516V456.648C-123.839 456.69 -124.148 456.854 -124.371 457.108C-124.595 457.363 -124.717 457.69 -124.714 458.029C-124.715 458.218 -124.676 458.404 -124.6 458.577L-158.781 478.606L-194.077 457.915V417.783C-193.739 417.741 -193.428 417.578 -193.202 417.324C-192.976 417.07 -192.85 416.742 -192.848 416.402C-192.845 416.213 -192.883 416.026 -192.961 415.854L-158.781 395.787L-123.503 416.516ZM-87.8667 397.035C-87.6504 397.032 -87.438 396.977 -87.2472 396.875C-87.0565 396.773 -86.8927 396.627 -86.7696 396.449L-76.0634 402.69L-52.5326 416.497V457.915L-64.298 464.819L-87.8288 478.606L-122.028 458.559C-121.961 458.383 -121.923 458.198 -121.915 458.01C-121.917 457.67 -122.043 457.342 -122.269 457.088C-122.495 456.834 -122.806 456.671 -123.144 456.629V416.497L-88.9448 396.43C-88.8247 396.607 -88.6642 396.752 -88.4767 396.854C-88.2891 396.956 -88.08 397.012 -87.8667 397.017V397.035ZM-18.2199 353.442C-18.2953 353.615 -18.334 353.801 -18.3334 353.99C-18.3319 354.332 -18.2066 354.663 -17.9806 354.92C-17.7547 355.177 -17.4433 355.344 -17.1039 355.39V395.504L-52.4002 416.194L-64.1656 409.291L-86.5804 396.052C-86.5043 395.856 -86.4732 395.646 -86.4895 395.437C-86.5057 395.227 -86.5688 395.024 -86.6742 394.843C-86.7795 394.661 -86.9244 394.505 -87.0981 394.387C-87.2718 394.269 -87.4698 394.192 -87.6775 394.161V354.085L-52.4002 333.375L-18.2199 353.442ZM18.5139 333.375L30.2604 340.278L52.6753 353.517C52.6466 353.699 52.6466 353.884 52.6753 354.066C52.6761 354.405 52.7988 354.733 53.0209 354.99C53.243 355.247 53.5499 355.415 53.8859 355.465V395.579L19.6299 415.551C19.5087 415.372 19.3452 415.225 19.154 415.123C18.9627 415.021 18.7494 414.968 18.5328 414.968C18.3163 414.968 18.103 415.021 17.9117 415.123C17.7204 415.225 17.557 415.372 17.4357 415.551L-16.7634 395.485V355.371C-16.4241 355.325 -16.1127 355.158 -15.8867 354.901C-15.6607 354.644 -15.5354 354.314 -15.5339 353.971C-15.5333 353.782 -15.572 353.596 -15.6474 353.423L18.5139 333.375ZM19.8002 291.011L30.4496 284.77L53.9615 270.963L89.2578 291.673V331.787C88.9218 331.828 88.6129 331.992 88.3897 332.246C88.1665 332.501 88.0446 332.829 88.0472 333.167C88.0059 333.348 88.0059 333.535 88.0472 333.716L54.964 353.139C54.845 352.96 54.6833 352.812 54.4936 352.711C54.3038 352.609 54.0918 352.555 53.8764 352.555C53.661 352.555 53.449 352.609 53.2592 352.711C53.0694 352.812 52.9078 352.96 52.7888 353.139L42.1204 346.879L18.5896 333.073V292.959C18.9273 292.909 19.2365 292.741 19.4618 292.485C19.6871 292.229 19.8137 291.9 19.8191 291.559C19.8475 291.378 19.8475 291.192 19.8191 291.011H19.8002ZM-17.1039 229.242V270.642L-51.3031 290.727C-51.4243 290.548 -51.5878 290.401 -51.779 290.299C-51.9703 290.197 -52.1836 290.144 -52.4002 290.144C-52.6167 290.144 -52.83 290.197 -53.0213 290.299C-53.2126 290.401 -53.376 290.548 -53.4973 290.727L-87.6775 270.642V230.528C-87.3415 230.486 -87.0326 230.322 -86.8094 230.068C-86.5862 229.813 -86.4643 229.486 -86.4669 229.147C-86.464 228.958 -86.5027 228.771 -86.5804 228.599L-52.4002 208.551L-17.1039 229.242ZM18.5139 209.762C18.7305 209.76 18.9434 209.705 19.1345 209.603C19.3255 209.501 19.489 209.354 19.611 209.175L30.2604 215.436L53.7913 229.242V270.642L42.0258 277.564L19.611 290.803C19.4898 290.623 19.3263 290.476 19.1351 290.375C18.9438 290.273 18.7305 290.22 18.5139 290.22C18.2973 290.22 18.0841 290.273 17.8928 290.375C17.7015 290.476 17.5381 290.623 17.4168 290.803L-16.7634 270.642V229.242L17.4357 209.175C17.5559 209.352 17.7164 209.497 17.9039 209.599C18.0914 209.701 18.3006 209.757 18.5139 209.762ZM53.9615 147.35C54.1764 147.35 54.3882 147.298 54.5792 147.2C54.7701 147.101 54.9345 146.958 55.0586 146.782L65.7269 153.042L89.2578 166.849V206.963C88.9202 207.009 88.611 207.176 88.3882 207.434C88.1653 207.691 88.0441 208.021 88.0472 208.362C88.0094 208.543 88.0094 208.73 88.0472 208.911L53.8669 228.958L42.1204 222.055L19.7056 208.816C19.7722 208.64 19.8105 208.455 19.8191 208.268C19.8176 207.925 19.6923 207.595 19.4663 207.338C19.2403 207.08 18.9289 206.914 18.5896 206.868V166.83L52.7888 146.763C52.9217 146.953 53.1013 147.104 53.3101 147.204C53.5188 147.303 53.7498 147.347 53.9804 147.331L53.9615 147.35ZM54.1507 104.418L65.9161 97.5147L89.428 83.7273L123.608 103.775C123.533 103.948 123.494 104.135 123.495 104.323C123.497 104.663 123.623 104.991 123.849 105.245C124.075 105.5 124.387 105.663 124.724 105.704V145.818L89.428 166.622L77.6626 159.719L55.2667 146.48C55.2952 146.292 55.2952 146.1 55.2667 145.912C55.2693 145.574 55.1474 145.246 54.9242 144.992C54.701 144.737 54.3921 144.573 54.0561 144.532L54.1507 104.418ZM53.9615 22.5068C54.1764 22.5069 54.3882 22.4555 54.5792 22.3567C54.7701 22.258 54.9345 22.1149 55.0586 21.9394L89.2767 41.9869V83.3869L77.5113 90.29L53.9804 104.021L19.8191 83.9732C19.8857 83.7975 19.924 83.6124 19.9326 83.4247C19.9305 83.0845 19.8045 82.7566 19.5782 82.5025C19.352 82.2484 19.0408 82.0854 18.7031 82.0441V41.9869L52.9023 21.9205C53.0245 22.0934 53.1859 22.2349 53.3733 22.3335C53.5607 22.4321 53.7687 22.485 53.9804 22.4879L53.9615 22.5068Z" fill="white"/>
</g>
</svg>
