<svg width="249" height="621" viewBox="0 0 249 621" fill="none" xmlns="http://www.w3.org/2000/svg">
<g opacity="0.1">
<path opacity="0.3" d="M25.0716 146.676L3.93657 159.074L-17.2102 146.676V121.856L3.93657 109.458L25.0716 121.856V146.676Z" fill="#0C478B"/>
<path opacity="0.6" d="M2.85948 107.562L-18.2873 119.972L-39.4341 107.562V82.7537L-18.2873 70.3438L2.85948 82.7537V107.562Z" fill="#0C478B"/>
<path opacity="0.3" d="M25.0716 68.4466L3.93657 80.8565L-17.2102 68.4466V43.6384L3.93657 31.2285L25.0716 43.6384V68.4466Z" fill="#0C478B"/>
<path opacity="0.1" d="M47.2958 185.78L26.149 198.19L5.01392 185.78V160.971L26.149 148.562L47.2958 160.971V185.78Z" fill="#0C478B"/>
<path opacity="0.3" d="M69.5196 303.112L48.3729 315.522L27.2261 303.112V278.303L48.3729 265.894L69.5196 278.303V303.112Z" fill="#0C478B"/>
<path opacity="0.6" d="M113.956 303.112L92.8094 315.522L71.6743 303.112V278.303L92.8094 265.894L113.956 278.303V303.112Z" fill="#0C478B"/>
<path opacity="0.3" d="M91.732 185.78L70.597 198.19L49.4502 185.78V160.971L70.597 148.562L91.732 160.971V185.78Z" fill="#0C478B"/>
<path opacity="0.6" d="M69.5196 146.676L48.3729 159.074L27.2261 146.676V121.856L48.3729 109.458L69.5196 121.856V146.676Z" fill="#0C478B"/>
<path opacity="0.6" d="M69.5196 224.894L48.3729 237.292L27.2261 224.894V200.074L48.3729 187.676L69.5196 200.074V224.894Z" fill="#0C478B"/>
<path opacity="0.3" d="M25.0716 224.894L3.93657 237.292L-17.2102 224.894V200.074L3.93657 187.676L25.0716 200.074V224.894Z" fill="#0C478B"/>
<path opacity="0.1" d="M91.732 107.562L70.597 119.96L49.4502 107.562V82.742L70.597 70.3438L91.732 82.742V107.562Z" fill="#0C478B"/>
<path opacity="0.1" d="M2.85948 263.997L-18.2873 276.407L-39.4341 263.997V239.189L-18.2873 226.791L2.85948 239.189V263.997Z" fill="#0C478B"/>
<path opacity="0.1" d="M47.2958 29.3441L26.149 41.7423L5.01392 29.3441V4.5242L26.149 -7.87402L47.2958 4.5242V29.3441Z" fill="#0C478B"/>
<path opacity="0.6" d="M69.5196 68.4466L48.3729 80.8565L27.2261 68.4466V43.6384L48.3729 31.2285L69.5196 43.6384V68.4466Z" fill="#0C478B"/>
<path opacity="0.1" d="M91.732 263.997L70.597 276.407L49.4502 263.997V239.189L70.597 226.791L91.732 239.189V263.997Z" fill="#0C478B"/>
</g>
<path d="M28.4559 -11H28.3974L6.39584 1.87823V27.8688L28.3037 40.7471V66.3865L6.349 79.2647V105.021L-15.5003 117.899L-37.4551 105.021L-59.4683 117.899V143.785L-37.4668 156.663H-37.4082L-15.512 143.785L6.3373 156.593V182.232L-15.4418 195.11L-37.3965 182.232L-59.4098 195.11V220.867L-81.2942 233.757L-103.249 220.878L-125.25 233.757V259.642L-103.237 272.52L-81.3293 259.642L-59.4917 272.52V298.148L-81.4464 311.026V336.911L-59.4449 349.789L-37.4316 336.911V311.155L-15.4886 298.277V272.462L-37.3848 259.583V233.944L-15.5472 221.066L6.40755 233.944L28.4091 221.066V195.309L50.2467 182.49L72.0961 195.309V220.937L50.1413 233.815V259.7L72.0375 272.579V298.335H72.0961L94.0976 311.213H94.1562L116.158 298.335V272.462H116.099L94.203 259.583V233.944L116.052 221.066L138.007 233.944L160.02 221.066V195.18H159.962L137.96 182.302H137.902L116.005 195.18L94.1562 182.372V156.733L116.275 143.855L138.23 156.733L160.243 143.855V118.098L182.08 105.22L204.035 118.098L226.037 105.22V79.2647H225.978L204.094 66.2694H204.035L182.139 79.1476L160.29 66.3865V40.7471L182.233 27.8688V1.98359L160.219 -10.8946L138.206 1.98359V27.7401L116.263 40.6183V66.5035L138.159 79.3818V105.021L116.322 117.899L94.3669 105.021H94.3084L72.3068 117.899V143.656L50.4575 156.464L28.573 143.668V118.028L50.5277 105.15V79.3935L72.4825 66.5152V40.6183L50.5863 27.7401V1.98359L28.4559 -11ZM160.161 40.5129L152.878 36.2397L138.323 27.6932V2.11238L160.161 -10.7658L182.01 2.11238V27.7401L160.161 40.5129ZM160.055 66.3396L152.772 70.6011L138.23 79.1476L116.38 66.3865V40.7471L138.23 27.9391L145.548 32.2123L160.102 40.7471L160.055 66.3396ZM182.221 104.974V79.3935L204.07 66.5152L225.908 79.3935V105.021L204.07 117.899L182.221 104.974ZM160.161 117.853L152.878 113.579L138.323 105.033V79.3935L145.606 75.1202L160.161 66.5738L182.01 79.452V105.021L160.161 117.853ZM116.368 143.679V118.04L138.218 105.162L145.501 109.435L160.055 117.981V143.621L138.218 156.429L116.368 143.679ZM94.3084 156.487L87.0018 152.202L72.4473 143.668V118.028L94.285 105.15L116.134 118.028V143.668L94.3084 156.487ZM116.368 220.949V195.309L138.218 182.49L160.055 195.309V220.937L138.218 233.757L116.368 220.949ZM72.4825 272.59L79.7539 268.317L94.3201 259.771L116.169 272.649V298.277L94.3201 311.096L72.4825 298.218V272.59ZM72.3654 221.077L79.6485 225.351L94.2147 233.897V259.536L86.9316 263.798L72.3654 272.344L50.5277 259.536V233.897L72.3654 221.077ZM72.4825 195.262L79.7539 190.989L94.3201 182.443L116.169 195.262V220.89L94.3201 233.71L87.0018 229.483L72.4473 220.937L72.4825 195.262ZM50.5277 182.255V156.616L72.3654 143.808L79.6485 148.081L94.2147 156.616V182.255L86.9316 186.529L72.3654 195.063L50.5277 182.255ZM-59.3629 298.405L-52.0798 302.679L-37.5136 311.225V336.853L-59.3629 349.672L-81.1888 336.853V311.225L-59.3629 298.405ZM-59.2458 272.649L-51.9627 268.376L-37.4082 259.829L-15.5589 272.707V298.335L-37.3965 311.026L-44.6796 306.764L-59.2341 298.218L-59.2458 272.649ZM-81.423 234.014V259.654L-103.261 272.462L-125.11 259.654V234.014L-103.261 221.136L-81.423 234.014ZM-59.3629 221.136L-52.0798 225.409L-37.5136 233.956V259.595L-44.7967 263.857L-59.3629 272.391L-81.1888 259.583V233.944L-59.3629 221.136ZM-15.5589 195.321V220.949L-37.3965 233.757L-44.6796 229.483L-59.2341 220.937V195.309L-37.3965 182.49L-15.5589 195.321ZM6.50122 182.501L13.7843 186.774L28.3506 195.321V220.949L6.51292 233.757L-15.3364 220.937V195.309L6.50122 182.501ZM6.6066 156.675L13.8897 152.413L28.4559 143.855L50.2935 156.663V182.302L28.4559 195.11L21.1728 190.849L6.6066 182.302V156.675ZM-15.5589 118.04V143.679L-37.3965 156.476L-59.2341 143.668V118.028L-37.3965 105.15L-15.5589 118.04ZM6.50122 105.162L13.7843 109.435L28.3506 117.981V143.621L21.0674 147.882L6.50122 156.429L-15.3364 143.668V118.028L6.50122 105.162ZM28.4559 66.5269L35.7273 70.8002L50.2935 79.3466V105.021L28.4559 117.841L21.1728 113.568L6.6066 105.021V79.3935L28.4559 66.5269ZM28.5613 40.7002L35.8444 36.4387L50.3989 27.8923L72.2483 40.7002V66.3396L50.4106 79.1476L43.1392 74.8861L28.573 66.3865L28.5613 40.7002ZM28.4559 -10.7073L50.2935 2.17092V27.7401L43.0104 32.0133L28.4559 40.5129L6.6066 27.6347V2.11238L28.4559 -10.7073Z" fill="#0C478B"/>
<path d="M50.4105 1.17578C50.1828 1.17886 49.9653 1.27149 49.8054 1.43363C49.6454 1.59577 49.5557 1.81438 49.5557 2.04213C49.5369 2.15845 49.5369 2.27704 49.5557 2.39336L28.3621 14.8618V39.8339C28.153 39.8595 27.9605 39.9604 27.8204 40.1177C27.6803 40.275 27.6023 40.4779 27.601 40.6885C27.601 40.9194 27.6919 41.141 27.8541 41.3053C28.0163 41.4696 28.2366 41.5635 28.4675 41.5666C28.6016 41.5653 28.7334 41.5317 28.8517 41.4685C28.9699 41.4053 29.0711 41.3144 29.1467 41.2036L50.3051 53.6253V78.4686C50.0972 78.4944 49.9059 78.5957 49.7678 78.7533C49.6296 78.9108 49.5541 79.1137 49.5557 79.3232C49.5381 79.4396 49.5381 79.558 49.5557 79.6744L28.3621 92.1429V117.103C28.151 117.129 27.9568 117.232 27.8165 117.391C27.6761 117.551 27.5995 117.757 27.601 117.97C27.6007 118.086 27.6246 118.202 27.6713 118.309L6.5128 130.719L-15.4419 117.841L-36.7175 130.321C-36.7943 130.212 -36.8961 130.124 -37.0143 130.063C-37.1325 130.002 -37.2636 129.97 -37.3966 129.97C-37.6264 129.956 -37.8524 130.034 -38.0248 130.186C-38.1971 130.339 -38.3018 130.554 -38.3158 130.783C-38.3298 131.013 -38.2519 131.239 -38.0993 131.411C-37.9467 131.584 -37.7318 131.689 -37.502 131.702V156.663L-16.2967 169.108C-16.3434 169.215 -16.3673 169.331 -16.3669 169.447C-16.3669 169.677 -16.2757 169.898 -16.1132 170.06C-15.9507 170.222 -15.7303 170.314 -15.5005 170.314C-15.2707 170.314 -15.0503 170.222 -14.8878 170.06C-14.7253 169.898 -14.634 169.677 -14.634 169.447C-14.6336 169.331 -14.6575 169.215 -14.7042 169.108L6.45425 156.698L27.601 169.108C27.5833 169.22 27.5833 169.335 27.601 169.447C27.602 169.659 27.6795 169.864 27.8194 170.023C27.9593 170.182 28.1521 170.285 28.3621 170.314V195.145L7.19194 207.602C7.11438 207.493 7.01271 207.404 6.8949 207.341C6.77708 207.278 6.64632 207.243 6.5128 207.239C6.37891 207.241 6.24748 207.275 6.12938 207.339C6.01128 207.402 5.9099 207.492 5.83366 207.602L-15.4419 195.11L-37.4552 207.988V232.949C-37.6643 232.974 -37.8569 233.075 -37.9969 233.233C-38.137 233.39 -38.215 233.593 -38.2163 233.803C-38.2122 233.924 -38.1885 234.042 -38.146 234.155L-59.3631 246.635L-81.3061 233.757L-102.57 246.237C-102.648 246.13 -102.75 246.042 -102.868 245.981C-102.986 245.92 -103.116 245.887 -103.249 245.886C-103.364 245.886 -103.477 245.908 -103.583 245.953C-103.689 245.997 -103.785 246.062 -103.866 246.143C-103.947 246.225 -104.01 246.322 -104.053 246.428C-104.096 246.535 -104.117 246.649 -104.116 246.764C-104.114 246.974 -104.036 247.177 -103.896 247.334C-103.756 247.492 -103.564 247.593 -103.354 247.618V272.59L-81.3412 285.469L-60.1124 273.012C-60.037 273.12 -59.9363 273.209 -59.8191 273.271C-59.7018 273.332 -59.5715 273.364 -59.4392 273.364C-59.3068 273.364 -59.1765 273.332 -59.0592 273.271C-58.942 273.209 -58.8413 273.12 -58.7659 273.012L-37.5957 285.433V310.265C-37.8048 310.291 -37.9974 310.391 -38.1374 310.549C-38.2775 310.706 -38.3555 310.909 -38.3568 311.12C-38.3527 311.24 -38.329 311.358 -38.2865 311.471L-59.4567 323.974V349.86L-38.2514 362.305C-38.2926 362.413 -38.3163 362.528 -38.3216 362.644C-38.3216 362.874 -38.2304 363.094 -38.0679 363.257C-37.9054 363.419 -37.685 363.511 -37.4552 363.511C-37.2254 363.511 -37.005 363.419 -36.8425 363.257C-36.68 363.094 -36.5887 362.874 -36.5887 362.644C-36.5883 362.527 -36.6123 362.412 -36.6589 362.305L-16.1796 350.293C-16.099 350.4 -15.9948 350.488 -15.875 350.549C-15.7553 350.61 -15.6231 350.642 -15.4887 350.644C-15.3547 350.643 -15.2229 350.609 -15.1046 350.546C-14.9864 350.483 -14.8852 350.392 -14.8096 350.281L6.36058 362.703V388.342L-15.4302 401.197L-36.5887 388.775C-36.5406 388.669 -36.5166 388.553 -36.5184 388.436C-36.5184 388.206 -36.6097 387.986 -36.7722 387.823C-36.9347 387.661 -37.1551 387.569 -37.3849 387.569C-37.6147 387.569 -37.8351 387.661 -37.9976 387.823C-38.1601 387.986 -38.2514 388.206 -38.2514 388.436C-38.2532 388.553 -38.2292 388.669 -38.1811 388.775L-59.445 401.255V426.216C-59.653 426.242 -59.8442 426.343 -59.9824 426.501C-60.1206 426.658 -60.196 426.861 -60.1944 427.07C-60.1976 427.301 -60.1096 427.524 -59.9496 427.691C-59.7897 427.857 -59.5705 427.954 -59.3396 427.96C-59.2056 427.959 -59.0738 427.925 -58.9555 427.862C-58.8372 427.799 -58.736 427.708 -58.6605 427.597L-37.3849 440.078L-16.1679 427.621C-16.0928 427.732 -15.9916 427.823 -15.8732 427.886C-15.7548 427.949 -15.6228 427.981 -15.4887 427.981C-15.3547 427.981 -15.2227 427.949 -15.1042 427.886C-14.9858 427.823 -14.8847 427.732 -14.8096 427.621L6.36058 440.042V465.67L-14.7511 478.068C-14.8278 477.96 -14.9296 477.871 -15.0478 477.81C-15.166 477.748 -15.2971 477.716 -15.4302 477.716C-15.5633 477.716 -15.6945 477.748 -15.8126 477.81C-15.9308 477.871 -16.0326 477.96 -16.1093 478.068L-37.3849 465.588L-58.6605 478.068C-58.7366 477.959 -58.8383 477.87 -58.9566 477.809C-59.0749 477.747 -59.2064 477.716 -59.3396 477.717C-59.5694 477.703 -59.7954 477.781 -59.9678 477.934C-60.1401 478.086 -60.2448 478.301 -60.2588 478.531C-60.2728 478.76 -60.1949 478.986 -60.0423 479.159C-59.8897 479.331 -59.6748 479.436 -59.445 479.45V504.293L-80.6152 516.715C-80.69 516.603 -80.7911 516.512 -80.9095 516.448C-81.0279 516.385 -81.1601 516.352 -81.2943 516.352C-81.4262 516.356 -81.5553 516.391 -81.6713 516.454C-81.7872 516.517 -81.8867 516.606 -81.9618 516.715L-103.237 504.223L-125.239 517.101V542.061C-125.449 542.09 -125.642 542.193 -125.782 542.352C-125.922 542.511 -125.999 542.716 -126 542.928C-125.997 543.16 -125.903 543.381 -125.739 543.545C-125.575 543.709 -125.354 543.803 -125.122 543.806C-124.99 543.799 -124.862 543.763 -124.747 543.7C-124.631 543.637 -124.531 543.549 -124.454 543.443L-103.179 555.935H-103.12L-81.2241 543.057L-60.0773 555.466C-60.1146 555.58 -60.1344 555.698 -60.1359 555.818C-60.1375 556.027 -60.062 556.23 -59.9238 556.388C-59.7857 556.545 -59.5944 556.646 -59.3865 556.672V581.504L-81.3412 594.382V619.342C-81.571 619.358 -81.7852 619.464 -81.9367 619.638C-82.0882 619.811 -82.1646 620.038 -82.1491 620.267C-82.1336 620.497 -82.0274 620.711 -81.8539 620.863C-81.6805 621.014 -81.4539 621.091 -81.2241 621.075C-81.0928 621.074 -80.9637 621.042 -80.8476 620.981C-80.7314 620.92 -80.6317 620.832 -80.5567 620.724L-59.3631 633.274H-59.3045L-37.2913 620.396V595.366C-37.0833 595.34 -36.892 595.238 -36.7539 595.081C-36.6157 594.923 -36.5403 594.72 -36.5419 594.511C-36.54 594.394 -36.564 594.278 -36.6121 594.171L-15.3482 581.691V555.806L-37.2444 542.928V518.096C-37.0365 518.065 -36.8465 517.961 -36.709 517.802C-36.5715 517.643 -36.4955 517.44 -36.495 517.23C-36.4947 517.113 -36.5186 516.997 -36.5653 516.89L-15.4068 504.48L5.75171 516.89C5.7054 517.021 5.69077 517.161 5.70903 517.299C5.72729 517.436 5.77792 517.568 5.85677 517.682C5.93561 517.796 6.04044 517.89 6.16261 517.956C6.28479 518.022 6.42085 518.058 6.55965 518.061C6.67343 518.06 6.7858 518.036 6.89035 517.991C6.99489 517.946 7.08955 517.881 7.16891 517.799C7.24829 517.717 7.31084 517.621 7.35295 517.515C7.39507 517.41 7.41595 517.297 7.41441 517.183C7.41478 517.066 7.39085 516.951 7.34416 516.843L28.608 504.363V479.45C28.8171 479.424 29.0097 479.323 29.1498 479.166C29.2899 479.009 29.3678 478.806 29.3691 478.595C29.3651 478.479 29.3413 478.364 29.2989 478.256L50.4456 465.846L72.295 478.665V504.293L51.1248 516.715C51.05 516.603 50.9489 516.512 50.8305 516.448C50.7121 516.385 50.5799 516.352 50.4456 516.352C50.2279 516.36 50.021 516.449 49.8652 516.601C49.7094 516.754 49.6158 516.959 49.6026 517.176C49.5895 517.394 49.6577 517.608 49.7941 517.778C49.9304 517.948 50.1251 518.062 50.3403 518.096V542.928L28.3973 555.806V580.778C28.2543 580.793 28.1173 580.844 27.9987 580.925C27.8801 581.006 27.7836 581.116 27.7179 581.244C27.6522 581.372 27.6194 581.514 27.6224 581.658C27.6254 581.802 27.6642 581.942 27.7352 582.067C27.8062 582.192 27.9073 582.298 28.0292 582.374C28.1511 582.45 28.2901 582.495 28.4336 582.504C28.5771 582.513 28.7206 582.487 28.8513 582.426C28.9819 582.366 29.0955 582.275 29.1818 582.159L50.3403 594.581V620.338L71.5456 632.783C71.5004 632.89 71.4803 633.006 71.487 633.122C71.4855 633.236 71.5064 633.349 71.5485 633.455C71.5906 633.56 71.6532 633.657 71.7325 633.738C71.8119 633.82 71.9066 633.885 72.0111 633.93C72.1157 633.975 72.228 633.999 72.3418 634C72.5727 633.997 72.7931 633.903 72.9552 633.739C73.1174 633.575 73.2083 633.353 73.2083 633.122C73.2113 633.005 73.1873 632.889 73.138 632.783L94.4019 620.302V595.366C94.6317 595.352 94.8466 595.247 94.9992 595.075C95.1518 594.902 95.2297 594.676 95.2157 594.447C95.2017 594.217 95.097 594.002 94.9247 593.849C94.7523 593.697 94.5263 593.619 94.2965 593.633C94.1624 593.634 94.0307 593.668 93.9124 593.731C93.7942 593.794 93.6929 593.885 93.6174 593.996L72.4823 581.574V556.731C72.6914 556.705 72.884 556.604 73.0241 556.447C73.1642 556.29 73.2421 556.087 73.2434 555.876C73.2437 555.756 73.2198 555.636 73.1732 555.525L94.4371 543.057V518.096C94.6471 518.068 94.8399 517.965 94.9798 517.805C95.1196 517.646 95.1972 517.442 95.1982 517.23C95.1985 517.113 95.1746 516.997 95.1279 516.89L116.275 504.48L138.229 517.359L159.458 504.902C159.533 505.01 159.633 505.098 159.749 505.159C159.865 505.22 159.994 505.252 160.126 505.253C160.355 505.267 160.581 505.189 160.754 505.037C160.926 504.884 161.031 504.669 161.045 504.439C161.059 504.21 160.981 503.984 160.828 503.811C160.676 503.639 160.461 503.534 160.231 503.52V478.537L139.026 466.092C139.063 465.982 139.083 465.868 139.084 465.752C139.098 465.631 139.087 465.508 139.05 465.391C139.013 465.274 138.952 465.167 138.871 465.076C138.79 464.984 138.69 464.911 138.578 464.861C138.467 464.811 138.346 464.785 138.224 464.785C138.101 464.785 137.98 464.811 137.869 464.861C137.757 464.911 137.658 464.984 137.576 465.076C137.495 465.167 137.434 465.274 137.397 465.391C137.36 465.508 137.349 465.631 137.363 465.752C137.345 465.864 137.345 465.979 137.363 466.092L116.275 478.466L95.1162 466.056C95.1629 465.949 95.1868 465.834 95.1864 465.717C95.1852 465.506 95.1072 465.303 94.9671 465.146C94.827 464.989 94.6344 464.888 94.4253 464.862V440.019L115.596 427.597C115.672 427.707 115.773 427.798 115.891 427.861C116.009 427.924 116.141 427.958 116.275 427.96C116.408 427.956 116.539 427.921 116.657 427.858C116.775 427.795 116.876 427.706 116.954 427.597L138.229 440.078L160.243 427.199V402.18C160.371 402.161 160.494 402.113 160.601 402.04C160.709 401.967 160.799 401.871 160.864 401.758C160.929 401.646 160.968 401.52 160.978 401.391C160.988 401.261 160.969 401.131 160.922 401.01L182.08 388.6L204.035 401.478H204.094L225.311 389.021C225.387 389.13 225.489 389.218 225.607 389.279C225.726 389.341 225.857 389.372 225.99 389.372C226.22 389.386 226.445 389.309 226.618 389.156C226.79 389.003 226.895 388.789 226.909 388.559C226.923 388.329 226.845 388.103 226.692 387.931C226.54 387.758 226.325 387.654 226.095 387.64V362.609L204.094 349.731H204.035L182.818 362.176C182.741 362.067 182.639 361.979 182.521 361.917C182.403 361.856 182.272 361.824 182.139 361.824C182.006 361.824 181.875 361.856 181.756 361.917C181.638 361.979 181.536 362.067 181.46 362.176L160.301 349.731V324.899C160.509 324.874 160.7 324.772 160.839 324.615C160.977 324.457 161.052 324.254 161.051 324.045C161.05 323.925 161.03 323.807 160.992 323.693L182.244 311.225V285.34L161.039 272.895C161.076 272.785 161.096 272.671 161.097 272.555C161.112 272.434 161.1 272.311 161.063 272.194C161.026 272.077 160.965 271.97 160.884 271.879C160.803 271.787 160.703 271.714 160.592 271.664C160.48 271.614 160.359 271.588 160.237 271.588C160.115 271.588 159.994 271.614 159.882 271.664C159.771 271.714 159.671 271.787 159.59 271.879C159.508 271.97 159.447 272.077 159.41 272.194C159.374 272.311 159.362 272.434 159.376 272.555C159.358 272.668 159.358 272.782 159.376 272.895L138.909 284.907C138.828 284.799 138.724 284.712 138.604 284.651C138.484 284.59 138.352 284.557 138.218 284.555C138.083 284.556 137.951 284.589 137.833 284.652C137.714 284.715 137.613 284.807 137.539 284.918L116.368 272.497V246.857L138.218 233.979L159.364 246.401C159.322 246.509 159.298 246.624 159.294 246.74C159.294 246.97 159.385 247.19 159.548 247.353C159.71 247.515 159.931 247.607 160.161 247.607C160.39 247.607 160.611 247.515 160.773 247.353C160.936 247.19 161.027 246.97 161.027 246.74C161.046 246.628 161.046 246.513 161.027 246.401L182.279 233.921V208.984C182.488 208.958 182.681 208.857 182.821 208.7C182.961 208.542 183.039 208.34 183.04 208.129C183.042 208.014 183.021 207.899 182.978 207.792C182.935 207.685 182.872 207.587 182.791 207.505C182.711 207.422 182.615 207.356 182.509 207.31C182.403 207.265 182.289 207.241 182.174 207.239C182.04 207.243 181.91 207.278 181.792 207.341C181.674 207.404 181.572 207.493 181.495 207.602L160.184 195.11H160.126L138.897 207.567C138.822 207.458 138.723 207.368 138.607 207.305C138.491 207.242 138.361 207.207 138.229 207.204C138.095 207.206 137.964 207.24 137.846 207.303C137.728 207.367 137.626 207.457 137.55 207.567L116.38 195.145V169.553L137.55 157.131C137.627 157.24 137.729 157.328 137.847 157.389C137.965 157.451 138.096 157.482 138.229 157.482C138.361 157.482 138.49 157.449 138.606 157.388C138.722 157.327 138.822 157.239 138.897 157.131L160.172 169.611L181.389 157.166C181.468 157.273 181.57 157.361 181.688 157.422C181.805 157.483 181.936 157.516 182.069 157.517C182.298 157.531 182.524 157.454 182.697 157.301C182.869 157.148 182.974 156.934 182.988 156.704C183.002 156.474 182.924 156.248 182.771 156.076C182.619 155.903 182.404 155.799 182.174 155.785V130.906L203.344 118.485C203.42 118.596 203.521 118.686 203.639 118.75C203.757 118.813 203.889 118.846 204.023 118.848C204.157 118.844 204.288 118.809 204.405 118.746C204.523 118.683 204.625 118.593 204.702 118.485L225.978 130.977L247.991 118.098V93.0678C248.207 93.0327 248.402 92.9184 248.538 92.7473C248.674 92.5761 248.741 92.3604 248.727 92.1423C248.712 91.9242 248.616 91.7194 248.459 91.568C248.301 91.4165 248.093 91.3293 247.874 91.3234C247.742 91.3265 247.613 91.361 247.497 91.4242C247.38 91.4873 247.281 91.5771 247.207 91.6863L226.037 79.1476H225.978L204.082 92.0258L182.923 79.6159C182.969 79.5044 182.993 79.3852 182.994 79.2647C182.992 79.0541 182.914 78.8511 182.774 78.6938C182.634 78.5365 182.442 78.4356 182.232 78.41V53.637L204.187 40.7588V15.7867C204.301 15.779 204.412 15.749 204.514 15.6984C204.617 15.6477 204.708 15.5775 204.783 15.4916C204.858 15.4057 204.915 15.3059 204.952 15.1978C204.988 15.0898 205.003 14.9756 204.995 14.8618C204.987 14.748 204.957 14.6369 204.907 14.5347C204.856 14.4326 204.786 14.3414 204.7 14.2664C204.614 14.1913 204.514 14.134 204.406 14.0976C204.298 14.0611 204.184 14.0463 204.07 14.054C203.939 14.0558 203.81 14.0886 203.694 14.1496C203.578 14.2106 203.478 14.2982 203.403 14.4052L182.127 1.87823L160.114 14.7565V39.8339C159.904 39.8621 159.711 39.9654 159.571 40.1246C159.431 40.2839 159.354 40.4883 159.353 40.7002C159.358 40.8126 159.382 40.9233 159.423 41.028L138.112 53.5082V79.3935L160.008 92.2717V117.103C159.798 117.132 159.606 117.235 159.466 117.394C159.326 117.553 159.248 117.758 159.247 117.97C159.253 118.086 159.276 118.2 159.318 118.309L138.171 130.719L117.012 118.309C117.06 118.198 117.084 118.079 117.083 117.958C117.083 117.844 117.06 117.731 117.017 117.626C116.973 117.521 116.909 117.426 116.829 117.345C116.748 117.265 116.653 117.201 116.548 117.157C116.443 117.114 116.33 117.092 116.216 117.092C116.102 117.092 115.99 117.114 115.885 117.157C115.779 117.201 115.684 117.265 115.603 117.345C115.523 117.426 115.459 117.521 115.416 117.626C115.372 117.731 115.35 117.844 115.35 117.958C115.349 118.075 115.373 118.19 115.42 118.297L94.2146 130.778V155.75C94.0055 155.775 93.8129 155.876 93.6728 156.033C93.5327 156.191 93.4548 156.394 93.4535 156.604C93.4531 156.721 93.4771 156.837 93.5237 156.944L72.3652 169.354L50.5276 156.475V130.906L71.6978 118.485C71.77 118.596 71.8689 118.688 71.9854 118.751C72.102 118.814 72.2326 118.848 72.3652 118.848C72.5961 118.845 72.8165 118.751 72.9787 118.586C73.1408 118.422 73.2318 118.2 73.2317 117.97C73.2337 117.759 73.1586 117.554 73.0206 117.395C72.8827 117.235 72.6913 117.132 72.4823 117.103V92.2717L94.4253 79.3935V54.4214C94.5683 54.4062 94.7053 54.3557 94.8239 54.2744C94.9425 54.1931 95.039 54.0835 95.1047 53.9556C95.1704 53.8277 95.2032 53.6854 95.2002 53.5417C95.1972 53.3979 95.1584 53.2572 95.0874 53.1321C95.0164 53.0071 94.9154 52.9017 94.7934 52.8254C94.6715 52.7492 94.5325 52.7044 94.389 52.6953C94.2455 52.6861 94.102 52.7128 93.9713 52.773C93.8407 52.8332 93.7271 52.9249 93.6408 53.0399L72.4823 40.6183V14.8618L51.2185 2.39336C51.2373 2.27704 51.2373 2.15845 51.2185 2.04213C51.219 1.82215 51.1358 1.61022 50.9857 1.44933C50.8357 1.28844 50.63 1.19064 50.4105 1.17578ZM182.127 53.3911L174.821 49.1647L160.945 40.9695C160.992 40.8624 161.016 40.7468 161.015 40.63C161.017 40.4204 160.942 40.2176 160.803 40.0601C160.665 39.9025 160.474 39.8012 160.266 39.7753V14.9906L182.104 2.11237L203.262 14.534C203.214 14.6406 203.19 14.7566 203.192 14.8735C203.193 15.0841 203.271 15.2871 203.411 15.4444C203.551 15.6017 203.744 15.7026 203.953 15.7282V40.63L182.127 53.3911ZM174.739 83.4911L160.172 92.0375L138.335 79.1593V53.637L159.505 41.2154C159.582 41.324 159.684 41.4125 159.802 41.4737C159.92 41.5348 160.051 41.5667 160.184 41.5666C160.315 41.5658 160.444 41.5334 160.561 41.4723C160.677 41.4112 160.777 41.3231 160.852 41.2154L167.456 45.0905L182.022 53.637V78.4686C181.812 78.4968 181.619 78.6001 181.479 78.7593C181.339 78.9185 181.262 79.123 181.261 79.3349C181.266 79.4473 181.29 79.558 181.331 79.6627L174.739 83.4911ZM204.878 118.262C204.926 118.151 204.95 118.032 204.948 117.911C204.947 117.7 204.869 117.498 204.729 117.34C204.589 117.183 204.396 117.082 204.187 117.056V92.2717L226.037 79.3935L247.183 91.8034C247.145 91.9165 247.125 92.0351 247.125 92.1546C247.123 92.3641 247.199 92.567 247.337 92.7245C247.475 92.8821 247.666 92.9834 247.874 93.0092V117.899L226.037 130.778L204.878 118.262ZM182.127 130.672L174.821 126.446L160.945 118.251C160.992 118.143 161.016 118.028 161.015 117.911C161.017 117.7 160.942 117.496 160.804 117.336C160.666 117.177 160.475 117.073 160.266 117.045V92.2717L167.549 87.9985L181.425 79.8032C181.504 79.912 181.608 80.0006 181.728 80.0616C181.848 80.1227 181.981 80.1545 182.115 80.1544C182.246 80.1508 182.374 80.1173 182.49 80.0564C182.606 79.9955 182.706 79.9089 182.783 79.8032L203.953 92.2248V117.056C203.743 117.085 203.55 117.188 203.41 117.347C203.27 117.506 203.193 117.711 203.192 117.923C203.192 118.04 203.215 118.155 203.262 118.262L182.127 130.672ZM139.026 156.897C139.043 156.785 139.043 156.67 139.026 156.557C139.027 156.348 138.952 156.145 138.814 155.988C138.675 155.83 138.484 155.729 138.276 155.703V130.906L159.446 118.485C159.519 118.596 159.617 118.688 159.734 118.751C159.851 118.814 159.981 118.848 160.114 118.848C160.248 118.847 160.38 118.814 160.499 118.751C160.617 118.688 160.718 118.596 160.793 118.485L167.397 122.36L181.963 130.906V155.75C181.754 155.775 181.561 155.876 181.421 156.033C181.281 156.191 181.203 156.394 181.202 156.604C181.202 156.721 181.226 156.837 181.272 156.944L160.114 169.354L139.026 156.897ZM116.275 169.354L108.992 165.081L95.1162 156.885C95.1629 156.778 95.1868 156.663 95.1864 156.546C95.1852 156.335 95.1072 156.132 94.9671 155.975C94.827 155.818 94.6344 155.717 94.4253 155.691V130.906L115.596 118.485C115.671 118.596 115.772 118.686 115.891 118.75C116.009 118.813 116.141 118.846 116.275 118.848C116.408 118.844 116.539 118.809 116.657 118.746C116.775 118.683 116.876 118.593 116.954 118.485L138.112 130.906V155.75C137.904 155.775 137.713 155.877 137.575 156.034C137.437 156.192 137.361 156.395 137.363 156.604C137.363 156.721 137.386 156.837 137.433 156.944L116.275 169.354ZM116.169 195.18L108.886 199.454L94.32 208L73.1615 195.578C73.2107 195.472 73.2347 195.356 73.2317 195.239C73.2333 195.029 73.1579 194.827 73.0197 194.669C72.8815 194.511 72.6903 194.41 72.4823 194.384V169.553L93.6408 157.131C93.7176 157.24 93.8193 157.329 93.9375 157.39C94.0557 157.451 94.1869 157.483 94.32 157.483C94.453 157.483 94.5842 157.451 94.7024 157.39C94.8206 157.329 94.9223 157.24 94.9991 157.131L101.603 161.006L116.169 169.553V195.18ZM72.3652 196.117C72.4979 196.115 72.6284 196.083 72.7463 196.022C72.8642 195.961 72.9662 195.873 73.0444 195.766L94.2146 208.187V233.031C94.0055 233.056 93.8129 233.157 93.6728 233.315C93.5327 233.472 93.4548 233.675 93.4535 233.885C93.4531 234.002 93.4771 234.118 93.5237 234.225L72.2599 246.705V271.665C72.1169 271.681 71.9799 271.731 71.8613 271.812C71.7427 271.894 71.6462 272.003 71.5805 272.131C71.5148 272.259 71.482 272.401 71.485 272.545C71.488 272.689 71.5268 272.83 71.5978 272.955C71.6688 273.08 71.7698 273.185 71.8918 273.261C72.0137 273.338 72.1527 273.382 72.2962 273.392C72.4397 273.401 72.5832 273.374 72.7139 273.314C72.8445 273.254 72.9581 273.162 73.0444 273.047L94.2146 285.469V310.3C94.067 310.311 93.9248 310.36 93.8009 310.441C93.6771 310.522 93.5757 310.632 93.5061 310.763C93.4366 310.894 93.4012 311.04 93.4032 311.188C93.4053 311.336 93.4446 311.48 93.5177 311.609C93.5907 311.738 93.6951 311.846 93.8211 311.923C93.9471 312.001 94.0907 312.045 94.2385 312.053C94.3862 312.06 94.5335 312.03 94.6664 311.965C94.7994 311.9 94.9138 311.802 94.9991 311.682L116.169 324.115V348.947C115.961 348.972 115.77 349.074 115.632 349.231C115.494 349.389 115.418 349.592 115.42 349.801C115.42 350.032 115.511 350.254 115.673 350.418C115.835 350.582 116.055 350.676 116.286 350.679C116.42 350.678 116.552 350.644 116.671 350.581C116.789 350.518 116.89 350.427 116.965 350.316L138.124 362.738V388.377L116.275 401.197L95.1162 388.775C95.1642 388.669 95.1882 388.553 95.1864 388.436C95.1864 388.322 95.164 388.209 95.1205 388.104C95.0769 387.999 95.0131 387.904 94.9326 387.823C94.8522 387.743 94.7567 387.679 94.6516 387.635C94.5464 387.592 94.4337 387.569 94.32 387.569C94.2062 387.569 94.0935 387.592 93.9884 387.635C93.8832 387.679 93.7877 387.743 93.7073 387.823C93.6268 387.904 93.563 387.999 93.5194 388.104C93.4759 388.209 93.4535 388.322 93.4535 388.436C93.4517 388.553 93.4757 388.669 93.5237 388.775L72.2599 401.255V426.216C72.0509 426.244 71.8595 426.348 71.7215 426.508C71.5836 426.667 71.5085 426.871 71.5105 427.082C71.5061 427.198 71.526 427.314 71.569 427.422L51.0897 439.434C51.0142 439.325 50.9135 439.236 50.7963 439.175C50.679 439.113 50.5487 439.081 50.4164 439.081C50.2841 439.081 50.1537 439.113 50.0365 439.175C49.9192 439.236 49.8186 439.325 49.7431 439.434L28.5846 427.012V402.169C28.7937 402.143 28.9863 402.042 29.1264 401.885C29.2664 401.728 29.3444 401.525 29.3457 401.314C29.3404 401.198 29.3167 401.083 29.2755 400.975L50.5393 388.506V363.534C50.6531 363.526 50.7643 363.496 50.8665 363.446C50.9686 363.395 51.0598 363.325 51.1349 363.239C51.2099 363.153 51.2673 363.053 51.3037 362.945C51.3401 362.837 51.3549 362.723 51.3473 362.609C51.3396 362.495 51.3095 362.384 51.2589 362.282C51.2083 362.18 51.138 362.089 51.0521 362.014C50.9662 361.939 50.8663 361.881 50.7583 361.845C50.6502 361.808 50.536 361.794 50.4222 361.801C50.2912 361.803 50.1624 361.836 50.0464 361.897C49.9304 361.958 49.8305 362.046 49.7548 362.153L28.5846 349.731V324.899C28.7947 324.871 28.9874 324.768 29.1273 324.609C29.2672 324.449 29.3448 324.245 29.3457 324.033C29.3427 323.801 29.2492 323.579 29.0851 323.415C28.9211 323.251 28.6995 323.158 28.4675 323.155C28.3356 323.159 28.2065 323.194 28.0906 323.257C27.9747 323.32 27.8752 323.409 27.8001 323.518L6.61818 311.096V286.253C6.82727 286.227 7.01985 286.126 7.15994 285.969C7.30002 285.812 7.37801 285.609 7.37929 285.398C7.3793 285.167 7.28839 284.946 7.12622 284.782C6.96405 284.617 6.74367 284.523 6.5128 284.52C6.37852 284.52 6.24637 284.554 6.12794 284.617C6.00954 284.68 5.90848 284.772 5.83366 284.883L-15.3365 272.462V246.822L6.5128 233.944L27.6596 246.366C27.6408 246.478 27.6408 246.593 27.6596 246.705C27.6596 246.935 27.7509 247.155 27.9134 247.318C28.0759 247.48 28.2963 247.571 28.5261 247.571C28.7559 247.571 28.9763 247.48 29.1387 247.318C29.3013 247.155 29.3925 246.935 29.3925 246.705C29.3885 246.589 29.3647 246.474 29.3223 246.366L50.5862 233.885V208.984C50.7941 208.953 50.9841 208.848 51.1216 208.689C51.2591 208.53 51.335 208.327 51.3355 208.117C51.3533 208.005 51.3533 207.89 51.3355 207.778L71.8032 195.766C71.8688 195.859 71.9523 195.938 72.0488 195.998C72.1453 196.058 72.2529 196.099 72.3652 196.117ZM138.335 233.815V208.984C138.543 208.958 138.734 208.856 138.872 208.699C139.01 208.541 139.086 208.338 139.084 208.129C139.103 208.013 139.103 207.894 139.084 207.778L160.243 195.368L181.389 207.778C181.341 207.888 181.318 208.008 181.319 208.129C181.32 208.34 181.398 208.542 181.538 208.7C181.679 208.857 181.871 208.958 182.08 208.984V233.815L160.91 246.237C160.833 246.128 160.731 246.04 160.613 245.978C160.495 245.917 160.364 245.885 160.231 245.886C160.1 245.886 159.971 245.919 159.854 245.98C159.738 246.041 159.639 246.129 159.564 246.237L138.335 233.815ZM116.275 246.635L108.992 242.362L95.1162 234.166C95.1629 234.059 95.1868 233.944 95.1864 233.827C95.1877 233.615 95.1106 233.411 94.9701 233.253C94.8295 233.096 94.6354 232.995 94.4253 232.972V208.187L101.708 203.914L116.275 195.368L137.433 207.778C137.386 207.899 137.367 208.029 137.377 208.159C137.387 208.288 137.426 208.414 137.491 208.526C137.556 208.639 137.646 208.735 137.754 208.808C137.861 208.881 137.984 208.929 138.112 208.948V233.78L116.275 246.635ZM116.169 272.462L108.886 276.735L94.32 285.27L73.1615 272.86C73.2081 272.752 73.2321 272.637 73.2317 272.52C73.2333 272.311 73.1579 272.108 73.0197 271.95C72.8815 271.793 72.6903 271.691 72.4823 271.665V246.822L93.6408 234.4C93.7159 234.512 93.8171 234.603 93.9355 234.665C94.0539 234.728 94.1859 234.761 94.32 234.761C94.454 234.761 94.586 234.728 94.7045 234.665C94.8228 234.603 94.924 234.512 94.9991 234.4L101.603 238.276L116.169 246.822V272.462ZM137.433 285.059C137.386 285.18 137.367 285.31 137.377 285.44C137.387 285.569 137.426 285.695 137.491 285.807C137.556 285.92 137.646 286.016 137.754 286.089C137.861 286.162 137.984 286.21 138.112 286.23V311.073L116.275 323.916L95.1162 311.506C95.1629 311.399 95.1868 311.283 95.1864 311.166C95.188 310.954 95.1113 310.748 94.971 310.588C94.8306 310.429 94.6364 310.326 94.4253 310.3V285.469L101.708 281.195L116.275 272.649L137.433 285.059ZM160.196 323.167C160.063 323.167 159.932 323.198 159.813 323.26C159.695 323.321 159.594 323.409 159.517 323.518L152.913 319.643L138.346 311.096V286.253C138.552 286.224 138.741 286.122 138.877 285.965C139.012 285.807 139.086 285.606 139.084 285.398C139.103 285.29 139.103 285.179 139.084 285.07L159.575 273.047C159.651 273.156 159.751 273.244 159.869 273.306C159.986 273.367 160.116 273.399 160.249 273.399C160.381 273.399 160.511 273.367 160.628 273.306C160.746 273.244 160.846 273.156 160.922 273.047L182.092 285.469V311.096L160.922 323.518C160.841 323.403 160.731 323.31 160.604 323.248C160.477 323.187 160.337 323.159 160.196 323.167ZM160.079 349.731L152.796 354.004L138.241 362.551L117.083 350.141C117.129 350.034 117.153 349.918 117.153 349.801C117.152 349.591 117.074 349.388 116.934 349.23C116.793 349.073 116.601 348.972 116.392 348.947V324.103L138.241 311.225L145.524 315.498L159.388 323.635C159.369 323.751 159.369 323.87 159.388 323.986C159.386 324.196 159.462 324.398 159.6 324.556C159.738 324.714 159.929 324.815 160.137 324.841L160.079 349.731ZM182.244 388.366V363.534C182.453 363.508 182.646 363.408 182.786 363.25C182.926 363.093 183.004 362.89 183.005 362.679C183.006 362.563 182.982 362.447 182.935 362.34L204.094 349.93L225.943 362.738V387.581C225.734 387.607 225.541 387.708 225.401 387.865C225.261 388.022 225.183 388.225 225.182 388.436C225.18 388.553 225.204 388.669 225.252 388.775L204.094 401.197L182.244 388.366ZM160.196 400.424C160.062 400.427 159.93 400.461 159.812 400.524C159.694 400.587 159.593 400.677 159.517 400.787L152.913 396.9L138.346 388.366V362.726L145.63 358.465L160.196 349.918L181.343 362.328C181.296 362.435 181.272 362.551 181.272 362.668C181.274 362.878 181.352 363.081 181.492 363.238C181.632 363.396 181.824 363.497 182.033 363.522V388.366L160.863 400.787C160.787 400.681 160.687 400.594 160.571 400.533C160.455 400.472 160.327 400.439 160.196 400.436V400.424ZM117.083 427.41C117.129 427.303 117.153 427.187 117.153 427.07C117.152 426.859 117.074 426.654 116.934 426.495C116.795 426.336 116.602 426.232 116.392 426.204V401.384L138.241 388.565L145.524 392.838L159.388 400.975C159.369 401.091 159.369 401.209 159.388 401.326C159.386 401.535 159.462 401.738 159.6 401.896C159.738 402.053 159.929 402.155 160.137 402.18V427.012L138.3 439.832L117.083 427.41ZM94.3317 439.82L87.0017 435.558L73.1263 427.422C73.173 427.315 73.197 427.199 73.1966 427.082C73.1982 426.87 73.1215 426.664 72.9811 426.504C72.8408 426.344 72.6466 426.242 72.4355 426.216V401.384L93.6057 388.963C93.6808 389.074 93.7819 389.165 93.9003 389.228C94.0187 389.29 94.1508 389.323 94.2848 389.323C94.4189 389.323 94.5509 389.29 94.6693 389.228C94.7877 389.165 94.8889 389.074 94.964 388.963L116.122 401.384V426.216C115.913 426.244 115.722 426.348 115.584 426.508C115.446 426.667 115.371 426.871 115.373 427.082C115.373 427.199 115.397 427.315 115.443 427.422L94.3317 439.82ZM116.392 504.281V478.665L137.562 466.244C137.639 466.352 137.741 466.441 137.859 466.502C137.977 466.563 138.108 466.595 138.241 466.595C138.374 466.593 138.504 466.56 138.622 466.499C138.74 466.439 138.842 466.351 138.92 466.244L160.079 478.665V503.497C159.87 503.523 159.677 503.623 159.537 503.781C159.397 503.938 159.319 504.141 159.318 504.352C159.322 504.468 159.345 504.583 159.388 504.691L138.241 517.101L116.392 504.281ZM50.5393 594.569L57.8107 590.296L72.3769 581.75L93.5354 594.16C93.4888 594.267 93.4648 594.382 93.4652 594.499C93.4665 594.71 93.5444 594.913 93.6845 595.07C93.8246 595.227 94.0172 595.328 94.2263 595.354V620.197L73.0561 632.619C72.9798 632.509 72.8785 632.418 72.7604 632.355C72.6423 632.292 72.5108 632.258 72.3769 632.256C72.2434 632.26 72.1127 632.295 71.9948 632.358C71.877 632.421 71.7754 632.51 71.6978 632.619L50.5393 620.197V594.569ZM50.4222 543.057L57.7288 547.447L71.6042 555.583C71.5612 555.695 71.5412 555.815 71.5456 555.935C71.544 556.144 71.6194 556.347 71.7576 556.505C71.8958 556.662 72.087 556.764 72.295 556.789V581.633L65.0119 585.906L50.4456 594.441L29.2755 581.972C29.3167 581.863 29.3404 581.749 29.3457 581.633C29.3444 581.422 29.2664 581.219 29.1264 581.062C28.9863 580.904 28.7937 580.804 28.5846 580.778V555.935L50.4222 543.057ZM72.3769 504.422L79.66 508.695L93.5354 516.832C93.4888 516.939 93.4648 517.054 93.4652 517.171C93.4661 517.383 93.5437 517.588 93.6836 517.747C93.8234 517.906 94.0162 518.009 94.2263 518.038V542.869L73.0561 555.291C72.9792 555.182 72.8775 555.094 72.7593 555.033C72.6411 554.971 72.51 554.94 72.3769 554.94C72.2442 554.941 72.1138 554.974 71.9959 555.035C71.878 555.096 71.776 555.184 71.6978 555.291L65.0938 551.416L50.5393 542.869V518.096C50.7473 518.065 50.9373 517.961 51.0748 517.802C51.2123 517.643 51.2882 517.44 51.2887 517.23C51.3065 517.117 51.3065 517.003 51.2887 516.89L72.3769 504.422ZM72.4823 478.607L79.7655 474.322L93.6525 466.185C93.7293 466.294 93.8311 466.383 93.9492 466.444C94.0674 466.505 94.1986 466.537 94.3317 466.537C94.4648 466.537 94.5959 466.505 94.7141 466.444C94.8323 466.383 94.934 466.294 95.0108 466.185L116.169 478.607V504.234L95.0108 516.656C94.9357 516.545 94.8346 516.454 94.7162 516.391C94.5978 516.328 94.4657 516.295 94.3317 516.295C94.1976 516.295 94.0656 516.328 93.9472 516.391C93.8288 516.454 93.7276 516.545 93.6525 516.656L87.0017 512.84L72.4355 504.293L72.4823 478.607ZM50.5393 465.588V440.815C50.7473 440.789 50.9386 440.688 51.0767 440.53C51.2149 440.373 51.2903 440.17 51.2887 439.96C51.3084 439.848 51.3084 439.733 51.2887 439.621L71.7564 427.597C71.8339 427.706 71.9356 427.795 72.0534 427.858C72.1712 427.921 72.302 427.956 72.4355 427.96C72.5694 427.958 72.7008 427.924 72.8189 427.861C72.937 427.798 73.0384 427.707 73.1146 427.597L79.7186 431.473L94.2848 440.019V464.862C94.0757 464.888 93.8831 464.989 93.7431 465.146C93.603 465.303 93.525 465.506 93.5237 465.717C93.5234 465.834 93.5473 465.949 93.594 466.056L87.0017 469.92L72.4355 478.466L50.5393 465.588ZM-59.3631 581.761L-52.0565 586.081L-38.1811 594.218C-38.2278 594.325 -38.2518 594.441 -38.2514 594.558C-38.2477 594.768 -38.1688 594.969 -38.0292 595.126C-37.8896 595.283 -37.6984 595.384 -37.4903 595.412V620.256L-59.3631 633.017L-80.4396 620.607C-80.4165 620.495 -80.4165 620.379 -80.4396 620.267C-80.4409 620.057 -80.5188 619.854 -80.6589 619.696C-80.799 619.539 -80.9916 619.438 -81.2007 619.413V594.569L-59.3631 581.761ZM-51.9628 551.661L-37.4083 543.115L-15.559 555.993V581.621L-36.7058 593.984C-36.7826 593.875 -36.8844 593.787 -37.0026 593.726C-37.1208 593.665 -37.2519 593.633 -37.3849 593.633C-37.5162 593.634 -37.6453 593.666 -37.7614 593.727C-37.8776 593.788 -37.9773 593.876 -38.0523 593.984L-44.668 590.109L-59.2225 581.562V556.731C-59.0125 556.705 -58.8196 556.602 -58.6812 556.442C-58.5428 556.282 -58.4687 556.076 -58.4732 555.865C-58.4738 555.748 -58.4977 555.632 -58.5434 555.525L-51.9628 551.661ZM-82.0789 516.89C-82.126 517.011 -82.1452 517.142 -82.1352 517.271C-82.1251 517.401 -82.086 517.526 -82.0208 517.639C-81.9556 517.751 -81.8659 517.848 -81.7584 517.921C-81.6509 517.994 -81.5283 518.042 -81.3997 518.061V542.893L-103.237 555.771L-124.396 543.361C-124.348 543.25 -124.324 543.13 -124.326 543.01C-124.327 542.799 -124.405 542.596 -124.545 542.439C-124.685 542.282 -124.878 542.181 -125.087 542.155V517.3L-103.237 504.48L-82.0789 516.89ZM-59.3631 504.48L-52.0565 508.812L-38.1811 516.949C-38.2278 517.056 -38.2518 517.172 -38.2514 517.288C-38.2505 517.5 -38.1729 517.705 -38.033 517.864C-37.8931 518.023 -37.7004 518.126 -37.4903 518.155V542.986L-44.7734 547.26L-58.6605 555.455C-58.7373 555.346 -58.8391 555.258 -58.9573 555.196C-59.0755 555.135 -59.2066 555.103 -59.3396 555.103C-59.4709 555.104 -59.6 555.137 -59.7161 555.198C-59.8323 555.259 -59.9321 555.347 -60.0071 555.455L-81.1773 542.928V518.096C-80.9672 518.068 -80.7744 517.965 -80.6345 517.805C-80.4947 517.646 -80.4171 517.442 -80.4162 517.23C-80.4063 517.116 -80.4142 517.002 -80.4396 516.89L-59.3631 504.48ZM-16.2498 478.256C-16.2979 478.362 -16.3219 478.478 -16.3201 478.595C-16.3188 478.806 -16.2408 479.009 -16.1008 479.166C-15.9607 479.323 -15.7681 479.424 -15.559 479.45V504.293L-36.7058 516.715C-36.7806 516.603 -36.8817 516.512 -37.0001 516.448C-37.1185 516.385 -37.2506 516.352 -37.3849 516.352C-37.5176 516.352 -37.6482 516.385 -37.7647 516.448C-37.8813 516.512 -37.9801 516.603 -38.0523 516.715L-44.668 512.84L-59.2225 504.293V479.45C-59.0146 479.424 -58.8233 479.323 -58.6852 479.165C-58.547 479.007 -58.4716 478.805 -58.4732 478.595C-58.4713 478.478 -58.4953 478.362 -58.5434 478.256L-37.3849 465.846L-16.2498 478.256ZM6.5011 465.846L13.8076 470.177L27.6713 478.314C27.6525 478.427 27.6525 478.541 27.6713 478.654C27.6726 478.864 27.7505 479.067 27.8906 479.225C28.0307 479.382 28.2233 479.483 28.4324 479.508V504.352L7.20364 516.715C7.12556 516.604 7.0222 516.513 6.90207 516.45C6.78194 516.387 6.6485 516.353 6.5128 516.352C6.38091 516.356 6.2518 516.391 6.13588 516.454C6.01996 516.517 5.92047 516.606 5.84538 516.715L-15.3248 504.293V479.45C-15.1157 479.424 -14.9231 479.323 -14.7831 479.166C-14.643 479.009 -14.565 478.806 -14.5637 478.595C-14.5619 478.478 -14.5859 478.362 -14.634 478.256L6.5011 465.846ZM6.60648 440.019L13.8896 435.746L28.4558 427.199L49.6143 439.621C49.5946 439.733 49.5946 439.848 49.6143 439.96C49.6127 440.17 49.6881 440.373 49.8263 440.53C49.9645 440.688 50.1557 440.789 50.3637 440.815V465.647L29.1584 478.068C29.079 477.959 28.9751 477.871 28.855 477.81C28.735 477.749 28.6022 477.717 28.4675 477.717C28.3365 477.719 28.2077 477.752 28.0917 477.813C27.9757 477.874 27.8758 477.961 27.8001 478.068L21.1961 474.193L6.6299 465.647L6.60648 440.019ZM-15.559 401.384V426.216C-15.7681 426.241 -15.9607 426.342 -16.1008 426.5C-16.2408 426.657 -16.3188 426.86 -16.3201 427.07C-16.3218 427.191 -16.2978 427.311 -16.2498 427.422L-37.4083 439.832L-58.5434 427.422C-58.4963 427.301 -58.4771 427.17 -58.4871 427.041C-58.4971 426.911 -58.5362 426.786 -58.6015 426.673C-58.6667 426.561 -58.7564 426.464 -58.8639 426.391C-58.9714 426.318 -59.094 426.27 -59.2225 426.251V401.384L-38.0523 388.963C-37.9773 389.07 -37.8776 389.158 -37.7614 389.22C-37.6453 389.281 -37.5162 389.313 -37.3849 389.314C-37.2519 389.314 -37.1208 389.282 -37.0026 389.221C-36.8844 389.16 -36.7826 389.071 -36.7058 388.963L-15.559 401.384ZM6.5011 388.565L13.7842 392.838L27.6479 400.975C27.6301 401.087 27.6301 401.202 27.6479 401.314C27.6466 401.525 27.7237 401.73 27.8642 401.888C28.0048 402.045 28.1989 402.146 28.409 402.169V427.012L21.1259 431.285L6.55965 439.832L-14.634 427.422C-14.5868 427.3 -14.5679 427.169 -14.5786 427.038C-14.5893 426.908 -14.6294 426.782 -14.6959 426.669C-14.7624 426.556 -14.8535 426.46 -14.9624 426.388C-15.0713 426.316 -15.1952 426.269 -15.3248 426.251V401.384L6.5011 388.565ZM6.60648 362.738L13.8896 358.476L28.4558 349.93L49.6143 362.34C49.5965 362.452 49.5965 362.567 49.6143 362.679C49.6127 362.889 49.6881 363.092 49.8263 363.249C49.9645 363.407 50.1557 363.508 50.3637 363.534V388.377L29.1584 400.799C29.0796 400.689 28.9761 400.598 28.8561 400.535C28.7361 400.472 28.603 400.438 28.4675 400.436C28.3356 400.44 28.2065 400.475 28.0906 400.538C27.9747 400.601 27.8752 400.69 27.8001 400.799L21.1961 396.912L6.6299 388.377L6.60648 362.738ZM-14.634 350.141C-14.5873 350.034 -14.5634 349.918 -14.5637 349.801C-14.5621 349.589 -14.6388 349.383 -14.7792 349.223C-14.9195 349.063 -15.1137 348.961 -15.3248 348.935V324.103L6.52451 311.225L27.6713 323.635C27.6535 323.747 27.6535 323.862 27.6713 323.974C27.6697 324.187 27.7464 324.393 27.8867 324.553C28.0271 324.712 28.2213 324.815 28.4324 324.841V349.672L21.1493 353.946L6.58305 362.492L-14.634 350.141ZM-37.3966 312.033C-37.2636 312.033 -37.1325 312.001 -37.0143 311.94C-36.8961 311.879 -36.7943 311.79 -36.7175 311.682L-30.0901 315.557L-15.5239 324.103V348.947C-15.7319 348.972 -15.9231 349.074 -16.0612 349.231C-16.1994 349.389 -16.2749 349.592 -16.2733 349.801C-16.2749 349.914 -16.2509 350.026 -16.203 350.129L-36.6941 362.153C-36.7709 362.044 -36.8727 361.955 -36.9909 361.894C-37.109 361.833 -37.2402 361.801 -37.3732 361.801C-37.5044 361.802 -37.6336 361.834 -37.7497 361.896C-37.8659 361.957 -37.9656 362.045 -38.0406 362.153L-59.2342 349.731V324.103L-38.064 311.682C-37.9891 311.789 -37.8893 311.877 -37.7731 311.938C-37.657 312 -37.5279 312.032 -37.3966 312.033ZM-37.2795 285.469L-29.9964 281.195L-15.4419 272.649L5.71658 285.059C5.66989 285.166 5.64595 285.281 5.64632 285.398C5.6476 285.609 5.72559 285.812 5.86566 285.969C6.00575 286.126 6.19833 286.227 6.40742 286.253V311.096L-15.4419 323.916L-22.725 319.643L-36.6004 311.506C-36.5533 311.385 -36.534 311.255 -36.5441 311.125C-36.5541 310.995 -36.5932 310.87 -36.6584 310.757C-36.7237 310.645 -36.8134 310.549 -36.9209 310.475C-37.0284 310.402 -37.151 310.354 -37.2795 310.335V285.469ZM-59.4567 246.834V271.677C-59.6647 271.703 -59.8559 271.804 -59.9941 271.962C-60.1323 272.119 -60.2077 272.322 -60.2061 272.532C-60.2065 272.649 -60.1825 272.764 -60.1359 272.871L-81.2943 285.27L-103.144 272.462V247.618C-102.935 247.593 -102.742 247.492 -102.602 247.334C-102.462 247.177 -102.384 246.974 -102.383 246.764C-102.381 246.647 -102.405 246.531 -102.453 246.424L-81.2943 234.002L-59.4567 246.834ZM-37.3966 234.775C-37.2627 234.773 -37.1313 234.739 -37.0132 234.676C-36.8951 234.613 -36.7937 234.522 -36.7175 234.412L-30.0901 238.276L-15.5239 246.822V272.462L-22.807 276.735L-37.3732 285.27L-58.5434 272.86C-58.5022 272.751 -58.4785 272.636 -58.4732 272.52C-58.4744 272.309 -58.5524 272.107 -58.6925 271.949C-58.8326 271.792 -59.0252 271.691 -59.2342 271.665V246.822L-38.064 234.4C-37.9897 234.51 -37.8903 234.6 -37.7742 234.663C-37.6582 234.726 -37.5287 234.76 -37.3966 234.763V234.775ZM5.71658 207.789C5.66989 207.896 5.64595 208.012 5.64632 208.129C5.64725 208.341 5.72482 208.545 5.8647 208.705C6.00458 208.864 6.19736 208.967 6.40742 208.995V233.827L-15.4419 246.635L-22.725 242.362L-36.6004 234.166C-36.5533 234.045 -36.534 233.915 -36.5441 233.785C-36.5541 233.656 -36.5932 233.53 -36.6584 233.418C-36.7237 233.305 -36.8134 233.209 -36.9209 233.136C-37.0284 233.063 -37.151 233.015 -37.2795 232.996V208.187L-15.4419 195.368L5.71658 207.789ZM28.4558 195.368L35.7272 199.641L49.6026 207.836C49.5848 207.949 49.5848 208.063 49.6026 208.176C49.6031 208.386 49.679 208.589 49.8165 208.748C49.9541 208.907 50.144 209.011 50.352 209.042V233.874L29.1467 246.237C29.0716 246.126 28.9704 246.035 28.852 245.972C28.7336 245.909 28.6016 245.876 28.4675 245.876C28.3335 245.876 28.2014 245.909 28.083 245.972C27.9646 246.035 27.8634 246.126 27.7884 246.237L6.61818 233.815V208.984C6.82825 208.955 7.02101 208.852 7.1609 208.693C7.30078 208.534 7.37836 208.329 7.37929 208.117C7.37965 208 7.35573 207.885 7.30904 207.778L28.4558 195.368ZM29.252 169.143L35.8443 165.28L50.3988 156.733L72.2481 169.553V194.384C72.0402 194.41 71.8489 194.511 71.7108 194.669C71.5726 194.827 71.4972 195.029 71.4987 195.239C71.4732 195.351 71.4732 195.467 71.4987 195.578L51.0194 207.602C50.9457 207.491 50.8457 207.4 50.7282 207.337C50.6107 207.274 50.4794 207.241 50.3461 207.241C50.2128 207.241 50.0815 207.274 49.9641 207.337C49.8466 207.4 49.7465 207.491 49.6728 207.602L43.0689 203.727L28.5026 195.18V170.349C28.7117 170.318 28.9031 170.214 29.0426 170.056C29.182 169.897 29.2604 169.694 29.2637 169.483C29.2813 169.37 29.2813 169.255 29.2637 169.143H29.252ZM6.40742 130.906V156.534L-14.7628 168.967C-14.8378 168.856 -14.939 168.765 -15.0574 168.702C-15.1758 168.64 -15.3078 168.607 -15.4419 168.607C-15.576 168.607 -15.708 168.64 -15.8264 168.702C-15.9448 168.765 -16.046 168.856 -16.121 168.967L-37.2795 156.534V131.702C-37.0716 131.677 -36.8803 131.575 -36.7422 131.418C-36.604 131.26 -36.5285 131.057 -36.5301 130.848C-36.5283 130.731 -36.5523 130.615 -36.6004 130.508L-15.4419 118.098L6.40742 130.906ZM28.4558 118.848C28.5899 118.846 28.7217 118.813 28.8399 118.75C28.9582 118.686 29.0594 118.596 29.1349 118.485L35.7272 122.36L50.2934 130.906V156.534L43.0103 160.819L29.1349 169.014C29.0599 168.903 28.9587 168.812 28.8403 168.749C28.7219 168.686 28.5899 168.654 28.4558 168.654C28.3217 168.654 28.1897 168.686 28.0713 168.749C27.9529 168.812 27.8517 168.903 27.7767 169.014L6.61818 156.534V130.906L27.7884 118.485C27.8628 118.594 27.9621 118.684 28.0782 118.747C28.1943 118.81 28.3237 118.845 28.4558 118.848ZM50.3988 80.213C50.5319 80.213 50.663 80.1812 50.7812 80.12C50.8993 80.0589 51.0011 79.9704 51.0779 79.8618L57.6819 83.7369L72.2481 92.2834V117.115C72.0392 117.143 71.8478 117.247 71.7098 117.407C71.5719 117.566 71.4968 117.77 71.4987 117.981C71.4754 118.093 71.4754 118.209 71.4987 118.321L50.3403 130.731L43.0689 126.458L29.1935 118.262C29.2347 118.154 29.2584 118.039 29.2637 117.923C29.2628 117.711 29.1852 117.506 29.0454 117.347C28.9055 117.188 28.7127 117.085 28.5026 117.056V92.2717L49.6728 79.8501C49.7552 79.9671 49.8663 80.061 49.9956 80.1225C50.1248 80.1841 50.2677 80.2112 50.4105 80.2013L50.3988 80.213ZM50.5159 53.637L57.799 49.3638L72.3535 40.829L93.512 53.2389C93.4653 53.346 93.4414 53.4616 93.4418 53.5785C93.4431 53.7891 93.521 53.992 93.6611 54.1493C93.8012 54.3066 93.9938 54.4075 94.2029 54.4331V79.2647L72.3535 92.1429L65.0704 87.8697L51.2067 79.6744C51.2244 79.558 51.2244 79.4396 51.2067 79.3232C51.2083 79.1137 51.1329 78.9108 50.9947 78.7533C50.8566 78.5957 50.6653 78.4944 50.4574 78.4686L50.5159 53.637ZM50.3988 2.9319C50.5319 2.93197 50.663 2.9001 50.7812 2.83898C50.8993 2.77787 51.0011 2.68928 51.0779 2.58068L72.2599 14.9906V40.6183L64.9767 44.8915L50.4105 53.3911L29.2637 40.9812C29.305 40.8725 29.3287 40.7579 29.334 40.6417C29.3327 40.4311 29.2547 40.2281 29.1147 40.0708C28.9746 39.9135 28.782 39.8127 28.5729 39.787V14.9906L49.7431 2.56897C49.8188 2.67597 49.9187 2.76357 50.0347 2.82461C50.1507 2.88565 50.2795 2.9184 50.4105 2.92019L50.3988 2.9319Z" fill="#0C478B"/>
</svg>
