<svg width="265" height="265" viewBox="0 0 265 265" fill="none" xmlns="http://www.w3.org/2000/svg">
<rect x="132.5" width="187.383" height="187.383" rx="30.8184" transform="rotate(45 132.5 0)" fill="#D9D9D9"/>
<path d="M98.002 163.246H167.754V61.4326H98.002V163.246Z" fill="#B1BAC3"/>
<path d="M98.0312 61.4156V116.63L107.158 117.66V89.8074L98.0312 61.4156Z" fill="#8F9295"/>
<path d="M167.676 61.4156V116.63L158.548 117.66V89.8074L167.676 61.4156Z" fill="#8F9295"/>
<path d="M106.077 116.074H111.853V75.445H106.077V116.074Z" fill="#D9D9D9"/>
<path d="M103.044 52.9999V75.4453H106.077V52.9999H103.044Z" fill="#E9660B"/>
<path d="M106.077 75.4453H111.853V52.9999H106.077V75.4453Z" fill="#D15B0A"/>
<path d="M106.077 71.7539H111.853V68.9118H106.077V71.7539Z" fill="#FDCE25"/>
<path d="M103.044 68.9118V71.7539H106.077V68.9118H103.044Z" fill="#FDCE25"/>
<path d="M113.273 119.863H116.306V79.2341H113.273V119.863Z" fill="white"/>
<path d="M116.307 119.863H122.081V79.2341H116.307V119.863Z" fill="#D9D9D9"/>
<path d="M113.273 56.7873V79.2344H116.308V56.7873H113.273Z" fill="#E9660B"/>
<path d="M116.307 79.2344H122.08V56.7873H116.307V79.2344Z" fill="#D15B0A"/>
<path d="M116.307 75.5391H122.08V72.6985H116.307V75.5391Z" fill="#FDCE25"/>
<path d="M113.273 72.6985V75.5391H116.308V72.6985H113.273Z" fill="#FDCE25"/>
<path d="M123.5 123.652H126.533V83.022H123.5V123.652Z" fill="white"/>
<path d="M126.534 123.652H132.308V83.022H126.534V123.652Z" fill="#D9D9D9"/>
<path d="M123.5 60.5781V83.0234H126.533V60.5781H123.5Z" fill="#E9660B"/>
<path d="M126.534 83.0234H132.308V60.5781H126.534V83.0234Z" fill="#D15B0A"/>
<path d="M126.534 79.3281H132.308V76.486H126.534V79.3281Z" fill="#FDCE25"/>
<path d="M123.5 76.486V79.3281H126.533V76.486H123.5Z" fill="#FDCE25"/>
<path d="M133.729 127.441H136.764V86.8122H133.729V127.441Z" fill="white"/>
<path d="M136.764 127.441H142.538V86.8122H136.764V127.441Z" fill="#D9D9D9"/>
<path d="M133.729 64.3671V86.8125H136.762V64.3671H133.729Z" fill="#E9660B"/>
<path d="M136.762 86.8125H142.537V64.3671H136.762V86.8125Z" fill="#D15B0A"/>
<path d="M136.762 83.1172H142.537V80.2767H136.762V83.1172Z" fill="#FDCE25"/>
<path d="M133.729 80.2767V83.1172H136.762V80.2767H133.729Z" fill="#FDCE25"/>
<path d="M143.959 131.23H146.992V90.6012H143.959V131.23Z" fill="white"/>
<path d="M146.992 131.23H152.766V90.6012H146.992V131.23Z" fill="#D9D9D9"/>
<path d="M143.959 68.1545V90.6016H146.992V68.1545H143.959Z" fill="#E9660B"/>
<path d="M146.992 90.5977H152.766V68.1506H146.992V90.5977Z" fill="#D15B0A"/>
<path d="M146.992 86.9062H152.766V84.0657H146.992V86.9062Z" fill="#FDCE25"/>
<path d="M143.959 84.0657V86.9062H146.992V84.0657H143.959Z" fill="#FDCE25"/>
<path d="M155.023 91.082H158.056V68.6348H155.023V91.082Z" fill="#E9660B"/>
<path d="M158.057 91.082H163.832V68.6348H158.057V91.082Z" fill="#D15B0A"/>
<path d="M155.023 87.3867H158.056V84.5458H155.023V87.3867Z" fill="#FDCE25"/>
<path d="M155.624 77.4617V88.6065C155.624 90.7605 153.878 92.5065 151.724 92.5065H114.033C111.879 92.5065 110.133 90.7605 110.133 88.6065V77.4617C110.133 75.3077 108.387 73.5633 106.233 73.5633H100.169C99.9284 73.5633 99.7344 73.7556 99.7344 73.9961V153.28C99.7344 155.434 101.48 157.18 103.634 157.18H162.123C164.277 157.18 166.021 155.434 166.021 153.28V73.6711L165.913 73.5633H159.524C157.37 73.5633 155.624 75.3077 155.624 77.4617Z" fill="#CCD2D9"/>
<path d="M159.09 101.939H106.668L98.002 88.075V171.691H167.754V88.075L159.09 101.939Z" fill="#838383"/>
<path d="M98 161.946H167.757V164.98H98V161.946Z" fill="#FDCE25"/>
<path d="M98 156.419H167.757V159.453H98V156.419Z" fill="#FDCE25"/>
<path d="M159.09 101.941H132.05V92.5079H151.724C153.878 92.5079 155.624 90.7618 155.624 88.6078V77.463C155.624 75.828 156.631 74.4286 158.057 73.8498C158.304 73.7487 158.564 73.6724 158.833 73.6243C159.057 73.5845 159.287 73.5646 159.525 73.5646H165.589C165.827 73.5646 166.021 73.757 166.021 73.9974V90.8497L159.09 101.941Z" fill="#B6BCC4"/>
<path d="M106.742 147.707H132.191V109.988H106.742V147.707Z" fill="white"/>
<path d="M132.05 147.707H157.46V109.988H132.05V147.707Z" fill="#0C478B"/>
</svg>
