<svg width="130" height="127" viewBox="0 0 130 127" fill="none" xmlns="http://www.w3.org/2000/svg">
<rect x="44.2964" width="49.1385" height="49.1385" rx="8.08166" transform="rotate(45 44.2964 0)" fill="#FDCE25"/>
<rect x="15.1157" y="72.9922" width="21.3768" height="21.3768" rx="3.51578" transform="rotate(45 15.1157 72.9922)" fill="#E9660B"/>
<rect x="77.3804" y="3.51062" width="87.2793" height="87.2793" rx="14.1308" transform="rotate(45 77.3804 3.51062)" stroke="#0C478B" stroke-width="0.666889"/>
<mask id="mask0_774_27961" style="mask-type:alpha" maskUnits="userSpaceOnUse" x="21" y="9" width="113" height="113">
<rect x="77.3804" y="3.03906" width="87.9462" height="87.9462" rx="14.4643" transform="rotate(45 77.3804 3.03906)" fill="#E9660B"/>
</mask>
<g mask="url(#mask0_774_27961)">
<path d="M129.835 120.283V135.215C129.835 135.239 129.844 135.263 129.861 135.28C129.877 135.297 129.899 135.307 129.922 135.307C129.945 135.307 129.967 135.297 129.984 135.28C130 135.263 130.009 135.239 130.009 135.215V120.283C130.009 120.259 130 120.236 129.984 120.218C129.967 120.201 129.945 120.191 129.922 120.191C129.899 120.191 129.877 120.201 129.861 120.218C129.844 120.236 129.835 120.259 129.835 120.283Z" fill="#0C478B"/>
<path d="M142.941 112.77L131.479 119.275L129.875 120.183C129.854 120.195 129.839 120.215 129.833 120.239C129.827 120.263 129.83 120.288 129.842 120.31C129.853 120.331 129.872 120.347 129.895 120.354C129.917 120.36 129.942 120.357 129.962 120.345L141.427 113.836L143.028 112.929C143.126 112.873 143.028 112.712 142.941 112.77Z" fill="#0C478B"/>
<path d="M116.817 112.935L128.279 119.439L129.883 120.351C129.904 120.363 129.928 120.366 129.95 120.36C129.973 120.353 129.992 120.337 130.004 120.316C130.015 120.295 130.018 120.269 130.012 120.245C130.006 120.222 129.991 120.201 129.97 120.189L118.508 113.67L116.904 112.758C116.884 112.746 116.86 112.743 116.837 112.749C116.815 112.756 116.796 112.772 116.784 112.793C116.772 112.815 116.769 112.84 116.776 112.864C116.782 112.888 116.797 112.908 116.817 112.92V112.935Z" fill="#0C478B"/>
<path d="M116.947 127.734V112.854C116.947 112.829 116.938 112.806 116.921 112.789C116.905 112.771 116.883 112.762 116.86 112.762C116.837 112.762 116.814 112.771 116.798 112.789C116.782 112.806 116.772 112.829 116.772 112.854V127.734C116.772 127.758 116.782 127.782 116.798 127.799C116.814 127.816 116.837 127.826 116.86 127.826C116.883 127.826 116.905 127.816 116.921 127.799C116.938 127.782 116.947 127.758 116.947 127.734Z" fill="#0C478B"/>
<path d="M129.892 105.494L141.354 112.021L142.958 112.932C143.055 112.987 143.143 112.829 143.045 112.774L131.569 106.247L129.965 105.336C129.867 105.281 129.78 105.439 129.878 105.494H129.892Z" fill="#0C478B"/>
<path d="M129.888 105.329L118.426 111.855L116.821 112.767C116.724 112.822 116.821 112.98 116.909 112.925L128.374 106.402L129.975 105.49C129.995 105.478 130.01 105.458 130.016 105.434C130.022 105.41 130.019 105.385 130.008 105.363C129.996 105.342 129.977 105.326 129.955 105.32C129.932 105.313 129.908 105.316 129.888 105.329Z" fill="#0C478B"/>
<path d="M103.711 120.283V135.215C103.711 135.239 103.721 135.263 103.737 135.28C103.753 135.297 103.775 135.307 103.799 135.307C103.822 135.307 103.844 135.297 103.86 135.28C103.877 135.263 103.886 135.239 103.886 135.215V120.283C103.886 120.259 103.877 120.236 103.86 120.218C103.844 120.201 103.822 120.191 103.799 120.191C103.775 120.191 103.753 120.201 103.737 120.218C103.721 120.236 103.711 120.259 103.711 120.283Z" fill="#0C478B"/>
<path d="M116.822 112.77L105.36 119.275L103.756 120.183C103.736 120.195 103.721 120.215 103.715 120.239C103.708 120.263 103.711 120.288 103.723 120.31C103.734 120.331 103.754 120.347 103.776 120.354C103.799 120.36 103.823 120.357 103.843 120.345L115.309 113.836L116.909 112.929C117.007 112.873 116.909 112.712 116.822 112.77Z" fill="#0C478B"/>
<path d="M116.947 127.73V112.85C116.947 112.825 116.938 112.802 116.921 112.785C116.905 112.767 116.883 112.758 116.86 112.758C116.837 112.758 116.814 112.767 116.798 112.785C116.782 112.802 116.772 112.825 116.772 112.85V127.73C116.772 127.754 116.782 127.778 116.798 127.795C116.814 127.812 116.837 127.822 116.86 127.822C116.883 127.822 116.905 127.812 116.921 127.795C116.938 127.778 116.947 127.754 116.947 127.73Z" fill="#0C478B"/>
<path d="M90.6936 112.935L102.156 119.439L103.76 120.351C103.78 120.363 103.804 120.366 103.827 120.36C103.849 120.353 103.868 120.337 103.88 120.316C103.892 120.295 103.895 120.269 103.888 120.245C103.882 120.222 103.867 120.201 103.847 120.189L92.3848 113.67L90.7808 112.758C90.7604 112.746 90.7363 112.743 90.7137 112.749C90.6912 112.756 90.672 112.772 90.6604 112.793C90.6489 112.815 90.6459 112.84 90.6521 112.864C90.6583 112.888 90.6732 112.908 90.6936 112.92V112.935Z" fill="#0C478B"/>
<path d="M90.8335 127.734V112.854C90.8335 112.829 90.8243 112.806 90.808 112.789C90.7917 112.771 90.7695 112.762 90.7464 112.762C90.7232 112.762 90.7011 112.771 90.6847 112.789C90.6684 112.806 90.6592 112.829 90.6592 112.854V127.734C90.6592 127.758 90.6684 127.782 90.6847 127.799C90.7011 127.816 90.7232 127.826 90.7464 127.826C90.7695 127.826 90.7917 127.816 90.808 127.799C90.8243 127.782 90.8335 127.758 90.8335 127.734Z" fill="#0C478B"/>
<path d="M103.754 105.494L115.216 112.021L116.82 112.932C116.918 112.987 117.005 112.829 116.907 112.774L105.445 106.247L103.841 105.336C103.744 105.281 103.657 105.439 103.754 105.494Z" fill="#0C478B"/>
<path d="M103.761 105.329L92.2991 111.855L90.695 112.767C90.5974 112.822 90.695 112.98 90.7822 112.925L102.248 106.402L103.848 105.49C103.869 105.478 103.884 105.458 103.89 105.434C103.896 105.41 103.893 105.385 103.881 105.363C103.87 105.342 103.851 105.326 103.828 105.32C103.806 105.313 103.781 105.316 103.761 105.329Z" fill="#0C478B"/>
<path d="M51.4663 120.283V135.204C51.4663 135.228 51.4755 135.252 51.4918 135.269C51.5082 135.286 51.5304 135.296 51.5535 135.296C51.5766 135.296 51.5988 135.286 51.6151 135.269C51.6315 135.252 51.6407 135.228 51.6407 135.204V120.283C51.6407 120.259 51.6315 120.236 51.6151 120.218C51.5988 120.201 51.5766 120.191 51.5535 120.191C51.5304 120.191 51.5082 120.201 51.4918 120.218C51.4755 120.236 51.4663 120.259 51.4663 120.283Z" fill="#0C478B"/>
<path d="M64.5731 112.781L53.1111 119.289L51.507 120.197C51.4094 120.252 51.507 120.414 51.5942 120.355L63.0597 113.85L64.6778 112.935C64.7754 112.88 64.6778 112.722 64.5906 112.777L64.5731 112.781Z" fill="#0C478B"/>
<path d="M64.7032 127.738V112.861C64.7032 112.837 64.694 112.814 64.6776 112.796C64.6613 112.779 64.6391 112.77 64.616 112.77C64.5929 112.77 64.5707 112.779 64.5543 112.796C64.538 112.814 64.5288 112.837 64.5288 112.861V127.738C64.5288 127.762 64.538 127.786 64.5543 127.803C64.5707 127.82 64.5929 127.83 64.616 127.83C64.6391 127.83 64.6613 127.82 64.6776 127.803C64.694 127.786 64.7032 127.762 64.7032 127.738Z" fill="#0C478B"/>
<path d="M38.4501 112.932L49.9122 119.44L51.5163 120.348C51.6139 120.403 51.7011 120.245 51.6034 120.19L40.1414 113.689L38.5269 112.781C38.4292 112.726 38.3421 112.884 38.4397 112.939L38.4501 112.932Z" fill="#0C478B"/>
<path d="M38.585 127.738V112.861C38.585 112.837 38.5758 112.814 38.5595 112.796C38.5431 112.779 38.5209 112.77 38.4978 112.77C38.4747 112.77 38.4525 112.779 38.4362 112.796C38.4198 112.814 38.4106 112.837 38.4106 112.861V127.738C38.4106 127.762 38.4198 127.786 38.4362 127.803C38.4525 127.82 38.4747 127.83 38.4978 127.83C38.5209 127.83 38.5431 127.82 38.5595 127.803C38.5758 127.786 38.585 127.762 38.585 127.738Z" fill="#0C478B"/>
<path d="M51.509 105.502L62.9711 112.025L64.5751 112.936C64.5948 112.946 64.6171 112.947 64.6376 112.94C64.6582 112.933 64.6756 112.918 64.6864 112.899C64.6973 112.879 64.7008 112.856 64.6964 112.833C64.6919 112.811 64.6798 112.792 64.6623 112.778L53.2003 106.255L51.5962 105.344C51.4986 105.288 51.4114 105.446 51.509 105.502Z" fill="#0C478B"/>
<path d="M51.5158 105.339L40.0537 111.863L38.4497 112.774C38.4354 112.788 38.4258 112.806 38.4223 112.826C38.4189 112.845 38.4217 112.866 38.4305 112.884C38.4392 112.902 38.4533 112.917 38.4707 112.925C38.488 112.934 38.5076 112.936 38.5264 112.932L49.9919 106.405L51.5925 105.494C51.6901 105.439 51.5925 105.281 51.5053 105.336L51.5158 105.339Z" fill="#0C478B"/>
<path d="M77.583 120.283V135.204C77.583 135.228 77.5922 135.252 77.6085 135.269C77.6249 135.286 77.6471 135.296 77.6702 135.296C77.6933 135.296 77.7155 135.286 77.7318 135.269C77.7482 135.252 77.7574 135.228 77.7574 135.204V120.283C77.7574 120.259 77.7482 120.236 77.7318 120.218C77.7155 120.201 77.6933 120.191 77.6702 120.191C77.6471 120.191 77.6249 120.201 77.6085 120.218C77.5922 120.236 77.583 120.259 77.583 120.283Z" fill="#0C478B"/>
<path d="M90.7001 112.781L79.2345 119.29L77.634 120.197C77.5363 120.252 77.634 120.414 77.7211 120.355L89.1832 113.85L90.7873 112.939C90.8849 112.884 90.7873 112.726 90.7001 112.781Z" fill="#0C478B"/>
<path d="M90.8335 127.738V112.861C90.8335 112.837 90.8243 112.814 90.808 112.796C90.7917 112.779 90.7695 112.77 90.7464 112.77C90.7232 112.77 90.7011 112.779 90.6847 112.796C90.6684 112.814 90.6592 112.837 90.6592 112.861V127.738C90.6592 127.762 90.6684 127.786 90.6847 127.803C90.7011 127.82 90.7232 127.83 90.7464 127.83C90.7695 127.83 90.7917 127.82 90.808 127.803C90.8243 127.786 90.8335 127.762 90.8335 127.738Z" fill="#0C478B"/>
<path d="M64.5796 112.932L76.0416 119.44L77.6422 120.348C77.7433 120.403 77.8305 120.245 77.7329 120.19L66.2673 113.681L64.6842 112.781C64.5865 112.726 64.4959 112.884 64.597 112.939L64.5796 112.932Z" fill="#0C478B"/>
<path d="M64.7032 127.738V112.861C64.7032 112.837 64.694 112.814 64.6776 112.796C64.6613 112.779 64.6391 112.77 64.616 112.77C64.5929 112.77 64.5707 112.779 64.5543 112.796C64.538 112.814 64.5288 112.837 64.5288 112.861V127.738C64.5288 127.762 64.538 127.786 64.5543 127.803C64.5707 127.82 64.5929 127.83 64.616 127.83C64.6391 127.83 64.6613 127.82 64.6776 127.803C64.694 127.786 64.7032 127.762 64.7032 127.738Z" fill="#0C478B"/>
<path d="M77.6326 105.502L89.0876 112.025L90.6917 112.936C90.7114 112.946 90.7336 112.947 90.7542 112.94C90.7747 112.933 90.7921 112.918 90.803 112.899C90.8138 112.879 90.8174 112.856 90.8129 112.833C90.8085 112.811 90.7963 112.792 90.7789 112.778L79.3238 106.255L77.7197 105.344C77.6221 105.288 77.5349 105.446 77.6326 105.502Z" fill="#0C478B"/>
<path d="M77.6391 105.34L66.177 111.863L64.5764 112.774C64.4753 112.833 64.5764 112.991 64.6636 112.936L76.1257 106.409L77.7297 105.498C77.8274 105.443 77.7297 105.284 77.6391 105.34Z" fill="#0C478B"/>
<path d="M25.3467 120.283V135.204C25.3467 135.228 25.3559 135.252 25.3722 135.269C25.3886 135.286 25.4107 135.296 25.4339 135.296C25.457 135.296 25.4792 135.286 25.4955 135.269C25.5118 135.252 25.521 135.228 25.521 135.204V120.283C25.521 120.259 25.5118 120.236 25.4955 120.218C25.4792 120.201 25.457 120.191 25.4339 120.191C25.4107 120.191 25.3886 120.201 25.3722 120.218C25.3559 120.236 25.3467 120.259 25.3467 120.283Z" fill="#0C478B"/>
<path d="M38.4535 112.781L26.9915 119.289L25.3874 120.197C25.2898 120.252 25.3874 120.414 25.4746 120.355L36.9401 113.85L38.5267 112.935C38.6244 112.88 38.5267 112.722 38.4396 112.777L38.4535 112.781Z" fill="#0C478B"/>
<path d="M38.585 127.738V112.861C38.585 112.837 38.5758 112.814 38.5595 112.796C38.5431 112.779 38.5209 112.77 38.4978 112.77C38.4747 112.77 38.4525 112.779 38.4362 112.796C38.4198 112.814 38.4106 112.837 38.4106 112.861V127.738C38.4106 127.762 38.4198 127.786 38.4362 127.803C38.4525 127.82 38.4747 127.83 38.4978 127.83C38.5209 127.83 38.5431 127.82 38.5595 127.803C38.5758 127.786 38.585 127.762 38.585 127.738Z" fill="#0C478B"/>
<path d="M12.3284 112.932L23.7904 119.44L25.3945 120.348C25.4921 120.403 25.5793 120.245 25.4817 120.19L14.0196 113.689L12.4155 112.781C12.3179 112.726 12.2307 112.884 12.3284 112.939V112.932Z" fill="#0C478B"/>
<path d="M25.384 105.502L36.8461 112.025L38.4501 112.936C38.4698 112.946 38.4921 112.947 38.5126 112.94C38.5332 112.933 38.5506 112.918 38.5614 112.899C38.5723 112.879 38.5758 112.856 38.5714 112.833C38.5669 112.811 38.5548 112.792 38.5373 112.778L27.0753 106.255L25.4712 105.344C25.3736 105.288 25.2864 105.446 25.384 105.502Z" fill="#0C478B"/>
<path d="M25.393 105.34L13.9274 111.863L12.3269 112.774C12.3065 112.786 12.2916 112.807 12.2854 112.83C12.2792 112.854 12.2822 112.88 12.2937 112.901C12.3053 112.922 12.3245 112.938 12.347 112.945C12.3696 112.951 12.3937 112.948 12.414 112.936L23.8796 106.409L25.4837 105.498C25.5813 105.443 25.4837 105.284 25.3965 105.34H25.393Z" fill="#0C478B"/>
<path d="M64.5254 97.9513V112.883C64.5254 112.907 64.5346 112.931 64.5509 112.948C64.5673 112.965 64.5894 112.975 64.6126 112.975C64.6357 112.975 64.6579 112.965 64.6742 112.948C64.6906 112.931 64.6997 112.907 64.6997 112.883V97.9513C64.6997 97.9269 64.6906 97.9035 64.6742 97.8863C64.6579 97.8691 64.6357 97.8594 64.6126 97.8594C64.5894 97.8594 64.5673 97.8691 64.5509 97.8863C64.5346 97.9035 64.5254 97.9269 64.5254 97.9513Z" fill="#0C478B"/>
<path d="M77.6322 90.4575L66.1667 96.9624L64.5661 97.8664C64.4685 97.9215 64.5661 98.0796 64.6533 98.0244L76.1153 91.5159L77.7194 90.6082C77.817 90.5531 77.7194 90.3914 77.6322 90.4502V90.4575Z" fill="#0C478B"/>
<path d="M77.7642 105.414V90.5333C77.7642 90.5089 77.755 90.4855 77.7387 90.4683C77.7223 90.4511 77.7001 90.4414 77.677 90.4414C77.6539 90.4414 77.6317 90.4511 77.6154 90.4683C77.599 90.4855 77.5898 90.5089 77.5898 90.5333V105.414C77.5898 105.438 77.599 105.461 77.6154 105.478C77.6317 105.496 77.6539 105.505 77.677 105.505C77.7001 105.505 77.7223 105.496 77.7387 105.478C77.755 105.461 77.7642 105.438 77.7642 105.414Z" fill="#0C478B"/>
<path d="M64.6533 112.932L76.1153 106.409L77.7194 105.494C77.817 105.439 77.7194 105.281 77.6322 105.336L66.1667 111.863L64.5661 112.774C64.4685 112.829 64.5661 112.987 64.6533 112.932Z" fill="#0C478B"/>
<path d="M51.5076 90.6198L62.9696 97.1319L64.5702 98.0433C64.6713 98.0985 64.7585 97.9404 64.6609 97.8816L53.1953 91.3768L51.5948 90.4691C51.5751 90.4597 51.5528 90.4584 51.5323 90.4653C51.5117 90.4722 51.4943 90.487 51.4835 90.5066C51.4726 90.5263 51.4691 90.5495 51.4736 90.5718C51.478 90.594 51.4901 90.6137 51.5076 90.6271V90.6198Z" fill="#0C478B"/>
<path d="M51.6407 105.417V90.5372C51.6407 90.5128 51.6315 90.4895 51.6151 90.4722C51.5988 90.455 51.5766 90.4453 51.5535 90.4453C51.5304 90.4453 51.5082 90.455 51.4918 90.4722C51.4755 90.4895 51.4663 90.5128 51.4663 90.5372V105.417C51.4663 105.442 51.4755 105.465 51.4918 105.482C51.5082 105.5 51.5304 105.509 51.5535 105.509C51.5766 105.509 51.5988 105.5 51.6151 105.482C51.6315 105.465 51.6407 105.442 51.6407 105.417Z" fill="#0C478B"/>
<path d="M64.681 112.77L53.2154 106.247L51.6148 105.336C51.5172 105.281 51.4265 105.439 51.5277 105.494L62.9897 112.021L64.5903 112.932C64.6914 112.987 64.7786 112.829 64.681 112.77Z" fill="#0C478B"/>
<path d="M64.5686 83.166L76.0306 89.6892L77.6347 90.6006C77.7323 90.6558 77.8195 90.4977 77.7219 90.4426L66.2598 83.9157L64.6557 83.0043C64.6354 82.9921 64.6113 82.989 64.5887 82.9955C64.5662 83.0021 64.547 83.0178 64.5354 83.0392C64.5239 83.0607 64.5209 83.0861 64.5271 83.1099C64.5333 83.1336 64.5482 83.1538 64.5686 83.166Z" fill="#0C478B"/>
<path d="M64.5696 83.0165L53.1076 89.5397L51.507 90.4511C51.4094 90.5063 51.507 90.6643 51.5942 90.6092L63.0563 84.086L64.6777 83.1635C64.6976 83.1509 64.7119 83.1304 64.7175 83.1066C64.723 83.0828 64.7194 83.0577 64.7074 83.0367C64.6954 83.0158 64.6759 83.0007 64.6534 82.9949C64.6308 82.989 64.607 82.9928 64.5871 83.0055L64.5696 83.0165Z" fill="#0C478B"/>
<path d="M90.6475 97.9513V112.883C90.6475 112.907 90.6566 112.931 90.673 112.948C90.6893 112.965 90.7115 112.975 90.7346 112.975C90.7578 112.975 90.7799 112.965 90.7963 112.948C90.8126 112.931 90.8218 112.907 90.8218 112.883V97.9513C90.8218 97.9269 90.8126 97.9035 90.7963 97.8863C90.7799 97.8691 90.7578 97.8594 90.7346 97.8594C90.7115 97.8594 90.6893 97.8691 90.673 97.8863C90.6566 97.9035 90.6475 97.9269 90.6475 97.9513Z" fill="#0C478B"/>
<path d="M103.759 90.4575L92.2971 96.9624L90.6965 97.8664C90.5954 97.9215 90.6965 98.0796 90.7837 98.0244L102.246 91.5159L103.85 90.6082C103.947 90.5531 103.85 90.3914 103.759 90.4502V90.4575Z" fill="#0C478B"/>
<path d="M103.888 105.414V90.5333C103.888 90.5089 103.879 90.4855 103.862 90.4683C103.846 90.4511 103.824 90.4414 103.801 90.4414C103.777 90.4414 103.755 90.4511 103.739 90.4683C103.723 90.4855 103.713 90.5089 103.713 90.5333V105.414C103.713 105.438 103.723 105.461 103.739 105.478C103.755 105.496 103.777 105.505 103.801 105.505C103.824 105.505 103.846 105.496 103.862 105.478C103.879 105.461 103.888 105.438 103.888 105.414Z" fill="#0C478B"/>
<path d="M90.7837 112.932L102.246 106.409L103.85 105.494C103.947 105.439 103.85 105.281 103.759 105.336L92.2971 111.863L90.6965 112.774C90.5954 112.829 90.6965 112.987 90.7837 112.932Z" fill="#0C478B"/>
<path d="M77.634 90.6193L89.0891 97.1315L90.6896 98.0429C90.6997 98.0489 90.7108 98.0528 90.7223 98.0543C90.7338 98.0558 90.7455 98.0549 90.7567 98.0517C90.7678 98.0484 90.7783 98.0429 90.7874 98.0354C90.7966 98.0279 90.8042 98.0186 90.8099 98.008C90.8157 97.9974 90.8194 97.9857 90.8208 97.9735C90.8222 97.9614 90.8214 97.9491 90.8183 97.9374C90.8152 97.9256 90.81 97.9146 90.8029 97.9049C90.7957 97.8953 90.7869 97.8872 90.7768 97.8812L79.3252 91.369L77.7246 90.4613C77.705 90.4519 77.6827 90.4506 77.6622 90.4575C77.6416 90.4644 77.6242 90.4792 77.6134 90.4988C77.6025 90.5185 77.599 90.5417 77.6034 90.5639C77.6079 90.5862 77.62 90.6059 77.6375 90.6193H77.634Z" fill="#0C478B"/>
<path d="M77.7642 105.417V90.5372C77.7642 90.5128 77.755 90.4895 77.7387 90.4722C77.7223 90.455 77.7001 90.4453 77.677 90.4453C77.6539 90.4453 77.6317 90.455 77.6154 90.4722C77.599 90.4895 77.5898 90.5128 77.5898 90.5372V105.417C77.5898 105.442 77.599 105.465 77.6154 105.482C77.6317 105.5 77.6539 105.509 77.677 105.509C77.7001 105.509 77.7223 105.5 77.7387 105.482C77.755 105.465 77.7642 105.442 77.7642 105.417Z" fill="#0C478B"/>
<path d="M90.7845 112.77L79.326 106.247L77.7254 105.336C77.6243 105.281 77.5371 105.439 77.6382 105.494L89.0898 112.021L90.6904 112.932C90.788 112.987 90.8787 112.829 90.7776 112.77H90.7845Z" fill="#0C478B"/>
<path d="M90.6932 83.1654L102.155 89.6886L103.756 90.6C103.857 90.6551 103.944 90.4971 103.846 90.442L92.3809 83.9151L90.7804 83.0037C90.6827 82.9485 90.5921 83.1066 90.6932 83.1654Z" fill="#0C478B"/>
<path d="M90.6947 83.016L79.2327 89.5392L77.6321 90.4506C77.531 90.5057 77.6321 90.6637 77.7193 90.6086L89.1813 84.0854L90.7819 83.174C90.7994 83.1606 90.8115 83.1409 90.8159 83.1186C90.8204 83.0964 90.8168 83.0732 90.806 83.0535C90.7951 83.0338 90.7778 83.0191 90.7572 83.0122C90.7367 83.0053 90.7144 83.0066 90.6947 83.016Z" fill="#0C478B"/>
<path d="M38.4058 97.9513V112.883C38.4058 112.907 38.4149 112.931 38.4313 112.948C38.4476 112.965 38.4698 112.975 38.4929 112.975C38.5161 112.975 38.5382 112.965 38.5546 112.948C38.5709 112.931 38.5801 112.907 38.5801 112.883V97.9513C38.5801 97.9269 38.5709 97.9035 38.5546 97.8863C38.5382 97.8691 38.5161 97.8594 38.4929 97.8594C38.4698 97.8594 38.4476 97.8691 38.4313 97.8863C38.4149 97.9035 38.4058 97.9269 38.4058 97.9513Z" fill="#0C478B"/>
<path d="M51.5126 90.4575L40.047 96.9624L38.4465 97.8664C38.3488 97.9215 38.4465 98.0796 38.5336 98.0244L49.9957 91.5159L51.5998 90.6082C51.6974 90.5531 51.5998 90.3914 51.5126 90.4502V90.4575Z" fill="#0C478B"/>
<path d="M51.6407 105.414V90.5333C51.6407 90.5089 51.6315 90.4855 51.6151 90.4683C51.5988 90.4511 51.5766 90.4414 51.5535 90.4414C51.5304 90.4414 51.5082 90.4511 51.4918 90.4683C51.4755 90.4855 51.4663 90.5089 51.4663 90.5333V105.414C51.4663 105.438 51.4755 105.461 51.4918 105.478C51.5082 105.496 51.5304 105.505 51.5535 105.505C51.5766 105.505 51.5988 105.496 51.6151 105.478C51.6315 105.461 51.6407 105.438 51.6407 105.414Z" fill="#0C478B"/>
<path d="M38.5267 112.932L49.9887 106.409L51.5928 105.494C51.6904 105.439 51.5928 105.281 51.5056 105.336L40.047 111.859L38.4465 112.77C38.3488 112.825 38.4465 112.983 38.5336 112.928L38.5267 112.932Z" fill="#0C478B"/>
<path d="M25.3909 90.6198L36.8529 97.1319L38.4535 98.0433C38.5546 98.0985 38.6418 97.9404 38.5442 97.8816L27.0786 91.3768L25.4781 90.4691C25.4584 90.4597 25.4361 90.4584 25.4156 90.4653C25.395 90.4722 25.3776 90.487 25.3668 90.5066C25.3559 90.5263 25.3524 90.5495 25.3569 90.5718C25.3613 90.594 25.3734 90.6137 25.3909 90.6271V90.6198Z" fill="#0C478B"/>
<path d="M25.5157 105.417V90.5372C25.5157 90.5128 25.5065 90.4895 25.4901 90.4722C25.4738 90.455 25.4516 90.4453 25.4285 90.4453C25.4054 90.4453 25.3832 90.455 25.3668 90.4722C25.3505 90.4895 25.3413 90.5128 25.3413 90.5372V105.417C25.3413 105.442 25.3505 105.465 25.3668 105.482C25.3832 105.5 25.4054 105.509 25.4285 105.509C25.4516 105.509 25.4738 105.5 25.4901 105.482C25.5065 105.465 25.5157 105.442 25.5157 105.417Z" fill="#0C478B"/>
<path d="M38.5249 112.77L27.0733 106.247L25.4727 105.336C25.3751 105.281 25.2844 105.439 25.3856 105.494L36.8476 112.021L38.4482 112.932C38.5493 112.987 38.6365 112.829 38.5389 112.77H38.5249Z" fill="#0C478B"/>
<path d="M38.4471 83.167L49.9092 89.6902L51.5132 90.6016C51.6109 90.6567 51.6981 90.4987 51.6004 90.4435L40.1384 83.9314L38.5273 83.02C38.507 83.0078 38.4829 83.0046 38.4603 83.0111C38.4378 83.0177 38.4186 83.0334 38.407 83.0549C38.3955 83.0763 38.3925 83.1017 38.3987 83.1255C38.4049 83.1493 38.4198 83.1695 38.4402 83.1817L38.4471 83.167Z" fill="#0C478B"/>
<path d="M38.4462 83.0165L26.9841 89.5397L25.3836 90.4511C25.2824 90.5063 25.3836 90.6643 25.4707 90.6092L36.9328 84.086L38.5229 83.1635C38.5428 83.1509 38.5571 83.1304 38.5626 83.1066C38.5682 83.0828 38.5646 83.0577 38.5525 83.0367C38.5405 83.0158 38.5211 83.0007 38.4985 82.9949C38.476 82.989 38.4521 82.9928 38.4322 83.0055L38.4462 83.0165Z" fill="#0C478B"/>
<path d="M129.845 75.6192V90.5509C129.845 90.5753 129.854 90.5986 129.87 90.6159C129.887 90.6331 129.909 90.6428 129.932 90.6428C129.955 90.6428 129.977 90.6331 129.994 90.6159C130.01 90.5986 130.019 90.5753 130.019 90.5509V75.6192C130.019 75.5949 130.01 75.5715 129.994 75.5543C129.977 75.537 129.955 75.5273 129.932 75.5273C129.909 75.5273 129.887 75.537 129.87 75.5543C129.854 75.5715 129.845 75.5949 129.845 75.6192Z" fill="#0C478B"/>
<path d="M142.95 68.1252L131.484 74.6301L129.887 75.5415C129.79 75.5966 129.887 75.7546 129.975 75.6995L141.433 69.1984L143.037 68.2906C143.135 68.2355 143.037 68.0775 142.95 68.1326V68.1252Z" fill="#0C478B"/>
<path d="M129.971 90.6006L141.433 84.0774L143.037 83.166C143.058 83.1538 143.072 83.1336 143.079 83.1099C143.085 83.0861 143.082 83.0607 143.07 83.0392C143.059 83.0178 143.04 83.0021 143.017 82.9955C142.994 82.989 142.97 82.9921 142.95 83.0043L131.484 89.5312L129.887 90.4426C129.79 90.4977 129.887 90.6558 129.975 90.6006H129.971Z" fill="#0C478B"/>
<path d="M116.823 68.2879L128.286 74.7927L129.89 75.7041C129.987 75.7593 130.074 75.6012 129.977 75.5461L118.515 69.0376L116.911 68.1299C116.813 68.0711 116.726 68.2328 116.823 68.2879Z" fill="#0C478B"/>
<path d="M116.957 83.0893V68.2091C116.957 68.1847 116.948 68.1613 116.932 68.1441C116.915 68.1269 116.893 68.1172 116.87 68.1172C116.847 68.1172 116.825 68.1269 116.808 68.1441C116.792 68.1613 116.783 68.1847 116.783 68.2091V83.0893C116.783 83.1137 116.792 83.137 116.808 83.1543C116.825 83.1715 116.847 83.1812 116.87 83.1812C116.893 83.1812 116.915 83.1715 116.932 83.1543C116.948 83.137 116.957 83.1137 116.957 83.0893Z" fill="#0C478B"/>
<path d="M129.977 90.4459L118.515 83.919L116.911 83.0076C116.813 82.9525 116.726 83.1105 116.823 83.1656L128.286 89.6925L129.89 90.6039C129.987 90.659 130.074 90.501 129.977 90.4459Z" fill="#0C478B"/>
<path d="M129.886 60.853L141.345 67.3652L142.949 68.2766C143.046 68.3317 143.134 68.1737 143.036 68.1185L131.574 61.5953L129.97 60.6839C129.95 60.6746 129.928 60.6732 129.907 60.6802C129.887 60.6871 129.869 60.7018 129.858 60.7215C129.848 60.7411 129.844 60.7643 129.849 60.7866C129.853 60.8089 129.865 60.8286 129.883 60.842L129.886 60.853Z" fill="#0C478B"/>
<path d="M129.888 60.6885L118.422 67.2117L116.821 68.1231C116.724 68.1782 116.821 68.3362 116.909 68.2811L128.371 61.7579L129.975 60.8465C130.072 60.7914 129.975 60.6297 129.888 60.6885Z" fill="#0C478B"/>
<path d="M129.889 45.9625L141.351 52.471L142.952 53.3787C143.053 53.4339 143.14 53.2758 143.039 53.2207L131.577 46.7159L129.976 45.8045C129.879 45.7493 129.788 45.9074 129.889 45.9625Z" fill="#0C478B"/>
<path d="M130.019 60.7467V45.8848C130.019 45.8605 130.01 45.8371 129.994 45.8199C129.977 45.8026 129.955 45.793 129.932 45.793C129.909 45.793 129.887 45.8026 129.87 45.8199C129.854 45.8371 129.845 45.8605 129.845 45.8848V60.7467C129.845 60.7711 129.854 60.7944 129.87 60.8117C129.887 60.8289 129.909 60.8386 129.932 60.8386C129.955 60.8386 129.977 60.8289 129.994 60.8117C130.01 60.7944 130.019 60.7711 130.019 60.7467Z" fill="#0C478B"/>
<path d="M143.039 68.1192L131.577 61.596L129.976 60.6846C129.879 60.6258 129.788 60.7875 129.889 60.8426L141.351 67.3621L142.952 68.2735C143.053 68.3323 143.14 68.1706 143.039 68.1155V68.1192Z" fill="#0C478B"/>
<path d="M142.946 38.3631L131.484 44.8863L129.887 45.7977C129.786 45.8565 129.887 46.0145 129.974 45.9594L141.433 39.4325L143.033 38.5211C143.134 38.466 143.033 38.3079 142.946 38.3631Z" fill="#0C478B"/>
<path d="M129.892 90.6079L141.351 97.1311L142.952 98.0389C142.961 98.0451 142.972 98.0493 142.984 98.0511C142.995 98.053 143.007 98.0524 143.018 98.0495C143.029 98.0466 143.04 98.0414 143.049 98.0342C143.058 98.0271 143.066 98.018 143.072 98.0076C143.078 97.9973 143.082 97.9858 143.084 97.9738C143.085 97.9618 143.085 97.9495 143.082 97.9378C143.079 97.926 143.074 97.9149 143.068 97.9051C143.061 97.8954 143.052 97.8871 143.042 97.8808L131.577 91.376L129.976 90.4646C129.879 90.4095 129.788 90.5675 129.889 90.6263L129.892 90.6079Z" fill="#0C478B"/>
<path d="M130.019 105.405V90.5138C130.019 90.4894 130.01 90.466 129.994 90.4488C129.977 90.4316 129.955 90.4219 129.932 90.4219C129.909 90.4219 129.887 90.4316 129.87 90.4488C129.854 90.466 129.845 90.4894 129.845 90.5138V105.394C129.845 105.418 129.854 105.442 129.87 105.459C129.887 105.476 129.909 105.486 129.932 105.486C129.955 105.486 129.977 105.476 129.994 105.459C130.01 105.442 130.019 105.418 130.019 105.394V105.405Z" fill="#0C478B"/>
<path d="M143.042 112.763L131.577 106.239L129.976 105.328C129.879 105.273 129.788 105.431 129.889 105.486L141.351 112.009L142.952 112.924C143.053 112.979 143.14 112.821 143.042 112.763Z" fill="#0C478B"/>
<path d="M142.946 83.0037L131.484 89.5306L129.887 90.442C129.786 90.4971 129.887 90.6551 129.974 90.6L141.436 84.0768L143.04 83.1654C143.138 83.1066 143.04 82.9485 142.95 83.0037H142.946Z" fill="#0C478B"/>
<path d="M116.777 97.9395V112.871C116.777 112.896 116.787 112.919 116.803 112.936C116.819 112.953 116.841 112.963 116.865 112.963C116.888 112.963 116.91 112.953 116.926 112.936C116.943 112.919 116.952 112.896 116.952 112.871V97.9395C116.952 97.9152 116.943 97.8918 116.926 97.8746C116.91 97.8573 116.888 97.8477 116.865 97.8477C116.841 97.8477 116.819 97.8573 116.803 97.8746C116.787 97.8918 116.777 97.9152 116.777 97.9395Z" fill="#0C478B"/>
<path d="M129.886 90.4467L118.424 96.9516L116.82 97.8666C116.718 97.9254 116.82 98.0835 116.907 98.0283L128.369 91.5198L129.973 90.6121C130.071 90.557 129.973 90.3953 129.882 90.4541L129.886 90.4467Z" fill="#0C478B"/>
<path d="M130.019 105.401V90.5138C130.019 90.4894 130.01 90.466 129.994 90.4488C129.977 90.4316 129.955 90.4219 129.932 90.4219C129.909 90.4219 129.887 90.4316 129.87 90.4488C129.854 90.466 129.845 90.4894 129.845 90.5138V105.394C129.845 105.418 129.854 105.442 129.87 105.459C129.887 105.476 129.909 105.486 129.932 105.486C129.955 105.486 129.977 105.476 129.994 105.459C130.01 105.442 130.019 105.418 130.019 105.394V105.401Z" fill="#0C478B"/>
<path d="M116.907 112.932L128.369 106.405L129.973 105.494C130.071 105.439 129.973 105.281 129.882 105.336L118.42 111.83L116.82 112.745C116.718 112.8 116.82 112.958 116.907 112.903V112.932Z" fill="#0C478B"/>
<path d="M103.762 90.6079L115.242 97.1311L116.842 98.0389C116.852 98.0451 116.863 98.0493 116.874 98.0511C116.886 98.053 116.897 98.0524 116.909 98.0495C116.92 98.0466 116.93 98.0414 116.939 98.0342C116.949 98.0271 116.957 98.018 116.963 98.0076C116.968 97.9973 116.972 97.9858 116.974 97.9738C116.976 97.9618 116.975 97.9495 116.973 97.9378C116.97 97.926 116.965 97.9149 116.958 97.9051C116.951 97.8954 116.943 97.8871 116.933 97.8808L105.467 91.376L103.867 90.4646C103.769 90.4095 103.678 90.5675 103.78 90.6263L103.762 90.6079Z" fill="#0C478B"/>
<path d="M103.891 105.405V90.5138C103.891 90.4894 103.882 90.466 103.866 90.4488C103.849 90.4316 103.827 90.4219 103.804 90.4219C103.781 90.4219 103.759 90.4316 103.742 90.4488C103.726 90.466 103.717 90.4894 103.717 90.5138V105.394C103.717 105.418 103.726 105.442 103.742 105.459C103.759 105.476 103.781 105.486 103.804 105.486C103.827 105.486 103.849 105.476 103.866 105.459C103.882 105.442 103.891 105.418 103.891 105.394V105.405Z" fill="#0C478B"/>
<path d="M116.919 112.763L105.454 106.239L103.853 105.328C103.755 105.273 103.665 105.431 103.766 105.486L115.245 112.009L116.846 112.924C116.947 112.979 117.034 112.821 116.937 112.763H116.919Z" fill="#0C478B"/>
<path d="M116.822 83.1656L128.284 89.6925L129.884 90.6039C129.985 90.659 130.073 90.501 129.975 90.4459L118.509 83.919L116.909 83.0076C116.811 82.9525 116.72 83.1105 116.822 83.1656Z" fill="#0C478B"/>
<path d="M116.827 83.0037L105.365 89.5306L103.764 90.442C103.663 90.4971 103.764 90.6551 103.851 90.6L115.313 84.0768L116.917 83.1654C117.015 83.1066 116.917 82.9485 116.827 83.0037Z" fill="#0C478B"/>
<path d="M90.6543 53.3184V68.2465C90.6543 68.2708 90.6635 68.2942 90.6798 68.3114C90.6962 68.3287 90.7184 68.3383 90.7415 68.3383C90.7646 68.3383 90.7868 68.3287 90.8031 68.3114C90.8195 68.2942 90.8287 68.2708 90.8287 68.2465V53.3184C90.8287 53.2941 90.8195 53.2707 90.8031 53.2535C90.7868 53.2362 90.7646 53.2266 90.7415 53.2266C90.7184 53.2266 90.6962 53.2362 90.6798 53.2535C90.6635 53.2707 90.6543 53.2941 90.6543 53.3184Z" fill="#0C478B"/>
<path d="M103.761 45.8201L92.299 52.3286L90.6949 53.2363C90.5973 53.2915 90.6949 53.4495 90.7856 53.3944L102.248 46.8895L103.848 45.9781C103.949 45.923 103.848 45.765 103.761 45.8201Z" fill="#0C478B"/>
<path d="M103.896 60.777V45.9005C103.896 45.8761 103.887 45.8527 103.871 45.8355C103.854 45.8183 103.832 45.8086 103.809 45.8086C103.786 45.8086 103.764 45.8183 103.747 45.8355C103.731 45.8527 103.722 45.8761 103.722 45.9005V60.777C103.722 60.8014 103.731 60.8248 103.747 60.842C103.764 60.8592 103.786 60.8689 103.809 60.8689C103.832 60.8689 103.854 60.8592 103.871 60.842C103.887 60.8248 103.896 60.8014 103.896 60.777Z" fill="#0C478B"/>
<path d="M90.7856 68.2928L102.248 61.7696L103.848 60.8582C103.949 60.8031 103.848 60.6414 103.761 60.7002L92.299 67.2234L90.6949 68.1348C90.5973 68.1899 90.6949 68.3479 90.7856 68.2928Z" fill="#0C478B"/>
<path d="M77.6359 45.982L89.0875 52.4905L90.6881 53.3983C90.7858 53.4534 90.8764 53.2954 90.7753 53.2402L79.3237 46.7317L77.7231 45.824C77.622 45.7689 77.5348 45.9269 77.6325 45.982H77.6359Z" fill="#0C478B"/>
<path d="M77.7725 60.7809V45.9044C77.7725 45.88 77.7633 45.8566 77.747 45.8394C77.7306 45.8222 77.7084 45.8125 77.6853 45.8125C77.6622 45.8125 77.64 45.8222 77.6237 45.8394C77.6073 45.8566 77.5981 45.88 77.5981 45.9044V60.7809C77.5981 60.8053 77.6073 60.8287 77.6237 60.8459C77.64 60.8631 77.6622 60.8728 77.6853 60.8728C77.7084 60.8728 77.7306 60.8631 77.747 60.8459C77.7633 60.8287 77.7725 60.8053 77.7725 60.7809Z" fill="#0C478B"/>
<path d="M90.7889 68.1393L79.3234 61.6161L77.7228 60.7047C77.7029 60.6921 77.6791 60.6882 77.6565 60.6941C77.6339 60.6999 77.6145 60.715 77.6025 60.736C77.5905 60.7569 77.5868 60.7821 77.5924 60.8058C77.5979 60.8296 77.6122 60.8501 77.6321 60.8628L89.0872 67.386L90.6878 68.2974C90.7854 68.3525 90.8761 68.1945 90.775 68.1393H90.7889Z" fill="#0C478B"/>
<path d="M90.6969 38.5418L102.162 45.065L103.763 45.9764C103.861 46.0352 103.951 45.8735 103.85 45.8184L92.3882 39.2952L90.7876 38.3838C90.6864 38.325 90.5993 38.4867 90.6969 38.5418Z" fill="#0C478B"/>
<path d="M90.7065 38.3826L79.2445 44.9058L77.6404 45.8172C77.6205 45.8299 77.6062 45.8503 77.6007 45.8741C77.5951 45.8979 77.5988 45.923 77.6108 45.944C77.6228 45.9649 77.6422 45.98 77.6648 45.9859C77.6874 45.9917 77.7112 45.9879 77.7311 45.9752L89.1931 39.452L90.7937 38.5406C90.8948 38.4855 90.7937 38.3275 90.7065 38.3826Z" fill="#0C478B"/>
<path d="M116.777 53.3184V68.2465C116.777 68.2708 116.787 68.2942 116.803 68.3114C116.819 68.3287 116.841 68.3383 116.865 68.3383C116.888 68.3383 116.91 68.3287 116.926 68.3114C116.943 68.2942 116.952 68.2708 116.952 68.2465V53.3184C116.952 53.2941 116.943 53.2707 116.926 53.2535C116.91 53.2362 116.888 53.2266 116.865 53.2266C116.841 53.2266 116.819 53.2362 116.803 53.2535C116.787 53.2707 116.777 53.2941 116.777 53.3184Z" fill="#0C478B"/>
<path d="M129.888 45.8201L118.426 52.3286L116.821 53.2363C116.724 53.2915 116.821 53.4495 116.909 53.3944L128.374 46.8895L129.975 45.9781C130.072 45.923 129.975 45.765 129.888 45.8201Z" fill="#0C478B"/>
<path d="M130.019 60.777V45.9005C130.019 45.8761 130.01 45.8527 129.994 45.8355C129.977 45.8183 129.955 45.8086 129.932 45.8086C129.909 45.8086 129.887 45.8183 129.87 45.8355C129.854 45.8527 129.845 45.8761 129.845 45.9005V60.777C129.845 60.8014 129.854 60.8248 129.87 60.842C129.887 60.8592 129.909 60.8689 129.932 60.8689C129.955 60.8689 129.977 60.8592 129.994 60.842C130.01 60.8248 130.019 60.8014 130.019 60.777Z" fill="#0C478B"/>
<path d="M116.909 68.2928L128.374 61.7696L129.975 60.8582C130.072 60.8031 129.975 60.6414 129.888 60.7002L118.426 67.2234L116.821 68.1348C116.724 68.1899 116.821 68.3479 116.909 68.2928Z" fill="#0C478B"/>
<path d="M103.764 45.982L115.244 52.4905L116.848 53.3983C116.946 53.4534 117.033 53.2954 116.935 53.2402L105.456 46.7317L103.852 45.824C103.754 45.7689 103.667 45.9269 103.764 45.982Z" fill="#0C478B"/>
<path d="M103.896 60.7809V45.9044C103.896 45.88 103.887 45.8566 103.871 45.8394C103.854 45.8222 103.832 45.8125 103.809 45.8125C103.786 45.8125 103.764 45.8222 103.747 45.8394C103.731 45.8566 103.722 45.88 103.722 45.9044V60.7809C103.722 60.8053 103.731 60.8287 103.747 60.8459C103.764 60.8631 103.786 60.8728 103.809 60.8728C103.832 60.8728 103.854 60.8631 103.871 60.8459C103.887 60.8287 103.896 60.8053 103.896 60.7809Z" fill="#0C478B"/>
<path d="M116.921 68.1381L105.459 61.6149L103.855 60.7035C103.835 60.6941 103.813 60.6928 103.793 60.6997C103.772 60.7066 103.755 60.7213 103.744 60.741C103.733 60.7607 103.729 60.7839 103.734 60.8061C103.738 60.8284 103.75 60.8481 103.768 60.8615L115.247 67.3847L116.851 68.2961C116.949 68.3512 117.036 68.1932 116.939 68.1381H116.921Z" fill="#0C478B"/>
<path d="M116.82 38.5418L128.282 45.065L129.886 45.9764C129.984 46.0352 130.071 45.8735 129.973 45.8184L118.511 39.2952L116.907 38.3838C116.81 38.325 116.722 38.4867 116.82 38.5418Z" fill="#0C478B"/>
<path d="M116.834 38.3826L105.368 44.9058L103.768 45.8172C103.75 45.8306 103.738 45.8503 103.734 45.8726C103.729 45.8948 103.733 45.918 103.744 45.9377C103.755 45.9573 103.772 45.9721 103.793 45.979C103.813 45.9859 103.835 45.9846 103.855 45.9752L115.317 39.452L116.921 38.5406C117.019 38.4855 116.921 38.3275 116.834 38.3826Z" fill="#0C478B"/>
<path d="M64.5342 53.3184V68.2465C64.5342 68.2708 64.5434 68.2942 64.5597 68.3114C64.5761 68.3287 64.5982 68.3383 64.6214 68.3383C64.6445 68.3383 64.6667 68.3287 64.683 68.3114C64.6993 68.2942 64.7085 68.2708 64.7085 68.2465V53.3184C64.7085 53.2941 64.6993 53.2707 64.683 53.2535C64.6667 53.2362 64.6445 53.2266 64.6214 53.2266C64.5982 53.2266 64.5761 53.2362 64.5597 53.2535C64.5434 53.2707 64.5342 53.2941 64.5342 53.3184Z" fill="#0C478B"/>
<path d="M77.6409 45.8201L66.1789 52.3286L64.5748 53.2363C64.4772 53.2915 64.5748 53.4495 64.6655 53.3944L76.1275 46.8895L77.7281 45.9781C77.8292 45.923 77.7281 45.765 77.6409 45.8201Z" fill="#0C478B"/>
<path d="M77.7725 60.777V45.9005C77.7725 45.8761 77.7633 45.8527 77.747 45.8355C77.7306 45.8183 77.7084 45.8086 77.6853 45.8086C77.6622 45.8086 77.64 45.8183 77.6237 45.8355C77.6073 45.8527 77.5981 45.8761 77.5981 45.9005V60.777C77.5981 60.8014 77.6073 60.8248 77.6237 60.842C77.64 60.8592 77.6622 60.8689 77.6853 60.8689C77.7084 60.8689 77.7306 60.8592 77.747 60.842C77.7633 60.8248 77.7725 60.8014 77.7725 60.777Z" fill="#0C478B"/>
<path d="M64.6794 68.2928L76.1415 61.7696L77.742 60.8582C77.8432 60.8031 77.742 60.6414 77.6549 60.7002L66.1789 67.2234L64.5748 68.1348C64.4772 68.1899 64.5748 68.3479 64.6655 68.2928H64.6794Z" fill="#0C478B"/>
<path d="M51.5143 45.982L62.9763 52.4905L64.5804 53.3983C64.6781 53.4534 64.7652 53.2954 64.6676 53.2402L53.2055 46.7317L51.605 45.824C51.5038 45.7689 51.4167 45.9269 51.5143 45.982Z" fill="#0C478B"/>
<path d="M51.6543 60.7809V45.9044C51.6543 45.88 51.6452 45.8566 51.6288 45.8394C51.6125 45.8222 51.5903 45.8125 51.5672 45.8125C51.544 45.8125 51.5219 45.8222 51.5055 45.8394C51.4892 45.8566 51.48 45.88 51.48 45.9044V60.7809C51.48 60.8053 51.4892 60.8287 51.5055 60.8459C51.5219 60.8631 51.544 60.8728 51.5672 60.8728C51.5903 60.8728 51.6125 60.8631 51.6288 60.8459C51.6452 60.8287 51.6543 60.8053 51.6543 60.7809Z" fill="#0C478B"/>
<path d="M64.6777 68.1393L53.2052 61.6161L51.6046 60.7047C51.5847 60.6921 51.5609 60.6882 51.5383 60.6941C51.5158 60.6999 51.4963 60.715 51.4843 60.736C51.4723 60.7569 51.4687 60.7821 51.4742 60.8058C51.4798 60.8296 51.4941 60.8501 51.514 60.8628L62.976 67.386L64.5801 68.2974C64.6777 68.3525 64.7649 68.1945 64.6673 68.1393H64.6777Z" fill="#0C478B"/>
<path d="M64.5765 38.5418L76.0421 45.065L77.6426 45.9764C77.7403 46.0352 77.8309 45.8735 77.7298 45.8184L66.2678 39.2952L64.6811 38.3838C64.58 38.325 64.4928 38.4867 64.5905 38.5418H64.5765Z" fill="#0C478B"/>
<path d="M64.5801 38.3826L53.118 44.9058L51.514 45.8172C51.4941 45.8299 51.4798 45.8503 51.4742 45.8741C51.4687 45.8979 51.4723 45.923 51.4843 45.944C51.4963 45.9649 51.5158 45.98 51.5383 45.9859C51.5609 45.9917 51.5847 45.9879 51.6046 45.9752L63.0667 39.452L64.6777 38.5406C64.7754 38.4855 64.6777 38.3275 64.5905 38.3826H64.5801Z" fill="#0C478B"/>
<path d="M103.713 30.9786V45.9213C103.713 45.9457 103.723 45.969 103.739 45.9863C103.755 46.0035 103.777 46.0132 103.801 46.0132C103.824 46.0132 103.846 46.0035 103.862 45.9863C103.879 45.969 103.888 45.9457 103.888 45.9213V30.9786C103.888 30.9542 103.879 30.9309 103.862 30.9136C103.846 30.8964 103.824 30.8867 103.801 30.8867C103.777 30.8867 103.755 30.8964 103.739 30.9136C103.723 30.9309 103.713 30.9542 103.713 30.9786Z" fill="#0C478B"/>
<path d="M116.822 23.4964L105.36 30.0013L103.756 30.909C103.746 30.915 103.737 30.9231 103.73 30.9327C103.723 30.9424 103.718 30.9534 103.715 30.9652C103.712 30.9769 103.711 30.9892 103.712 31.0013C103.714 31.0135 103.717 31.0252 103.723 31.0358C103.729 31.0464 103.736 31.0557 103.745 31.0632C103.755 31.0707 103.765 31.0763 103.776 31.0795C103.787 31.0827 103.799 31.0836 103.811 31.0821C103.822 31.0806 103.833 31.0767 103.843 31.0707L115.309 24.5622L116.909 23.6545C116.927 23.6411 116.939 23.6214 116.943 23.5991C116.948 23.5768 116.944 23.5536 116.933 23.534C116.923 23.5143 116.905 23.4996 116.885 23.4927C116.864 23.4857 116.842 23.4871 116.822 23.4964Z" fill="#0C478B"/>
<path d="M116.952 38.4565V23.5763C116.952 23.5519 116.943 23.5285 116.926 23.5113C116.91 23.4941 116.888 23.4844 116.865 23.4844C116.841 23.4844 116.819 23.4941 116.803 23.5113C116.787 23.5285 116.777 23.5519 116.777 23.5763V38.4565C116.777 38.4809 116.787 38.5042 116.803 38.5215C116.819 38.5387 116.841 38.5484 116.865 38.5484C116.888 38.5484 116.91 38.5387 116.926 38.5215C116.943 38.5042 116.952 38.4809 116.952 38.4565Z" fill="#0C478B"/>
<path d="M103.843 45.9704L115.309 39.4325L116.909 38.5211C117.007 38.466 116.909 38.3079 116.822 38.3631L105.36 44.8973L103.756 45.8087C103.746 45.8147 103.737 45.8228 103.73 45.8324C103.723 45.8421 103.718 45.8531 103.715 45.8649C103.712 45.8766 103.711 45.8889 103.712 45.901C103.714 45.9132 103.717 45.9249 103.723 45.9355C103.729 45.9461 103.736 45.9554 103.745 45.9629C103.755 45.9704 103.765 45.976 103.776 45.9792C103.787 45.9824 103.799 45.9833 103.811 45.9818C103.822 45.9803 103.833 45.9764 103.843 45.9704Z" fill="#0C478B"/>
<path d="M90.6989 23.6582L102.161 30.163L103.765 31.0708C103.785 31.0801 103.807 31.0815 103.828 31.0746C103.848 31.0676 103.865 31.0529 103.876 31.0332C103.887 31.0136 103.891 30.9904 103.886 30.9681C103.882 30.9459 103.87 30.9261 103.852 30.9127L92.3902 24.4079L90.7861 23.4965C90.7658 23.4843 90.7417 23.4812 90.7191 23.4877C90.6965 23.4943 90.6774 23.51 90.6658 23.5314C90.6543 23.5529 90.6513 23.5783 90.6575 23.6021C90.6637 23.6258 90.6786 23.646 90.6989 23.6582Z" fill="#0C478B"/>
<path d="M90.8335 38.4565V23.5763C90.8335 23.5519 90.8243 23.5285 90.808 23.5113C90.7917 23.4941 90.7695 23.4844 90.7464 23.4844C90.7232 23.4844 90.7011 23.4941 90.6847 23.5113C90.6684 23.5285 90.6592 23.5519 90.6592 23.5763V38.4565C90.6592 38.4809 90.6684 38.5042 90.6847 38.5215C90.7011 38.5387 90.7232 38.5484 90.7464 38.5484C90.7695 38.5484 90.7917 38.5387 90.808 38.5215C90.8243 38.5042 90.8335 38.4809 90.8335 38.4565Z" fill="#0C478B"/>
<path d="M103.85 45.8133L92.3883 39.2901L90.7842 38.3787C90.6866 38.3236 90.5994 38.4816 90.697 38.5367L102.159 45.0599L103.763 45.975C103.783 45.9872 103.808 45.9903 103.83 45.9838C103.853 45.9773 103.872 45.9615 103.883 45.9401C103.895 45.9186 103.898 45.8932 103.892 45.8695C103.886 45.8457 103.871 45.8255 103.85 45.8133Z" fill="#0C478B"/>
<path d="M103.756 16.2164L115.218 22.7433L116.822 23.6547C116.92 23.7098 117.007 23.5518 116.909 23.4967L105.447 16.9698L103.843 16.0584C103.746 16.0032 103.658 16.1613 103.756 16.2164Z" fill="#0C478B"/>
<path d="M103.761 16.0551L92.2956 22.582L90.695 23.4934C90.5974 23.5485 90.695 23.7065 90.7822 23.6514L102.248 17.1282L103.848 16.2168C103.858 16.2108 103.867 16.2027 103.874 16.1931C103.881 16.1834 103.887 16.1724 103.89 16.1606C103.893 16.1489 103.894 16.1366 103.892 16.1245C103.891 16.1123 103.887 16.1006 103.881 16.09C103.876 16.0794 103.868 16.0701 103.859 16.0626C103.85 16.0551 103.839 16.0495 103.828 16.0463C103.817 16.0431 103.805 16.0422 103.794 16.0437C103.782 16.0452 103.771 16.0491 103.761 16.0551Z" fill="#0C478B"/>
<path d="M129.845 30.9786V45.9213C129.845 45.9457 129.854 45.969 129.87 45.9863C129.887 46.0035 129.909 46.0132 129.932 46.0132C129.955 46.0132 129.977 46.0035 129.994 45.9863C130.01 45.969 130.019 45.9457 130.019 45.9213V30.9786C130.019 30.9542 130.01 30.9309 129.994 30.9136C129.977 30.8964 129.955 30.8867 129.932 30.8867C129.909 30.8867 129.887 30.8964 129.87 30.9136C129.854 30.9309 129.845 30.9542 129.845 30.9786Z" fill="#0C478B"/>
<path d="M142.949 23.4964L131.483 30.0013L129.889 30.909C129.869 30.9212 129.854 30.9414 129.848 30.9652C129.842 30.9889 129.845 31.0143 129.856 31.0358C129.868 31.0572 129.887 31.073 129.91 31.0795C129.932 31.086 129.956 31.0829 129.977 31.0707L141.432 24.5622L143.036 23.6545C143.053 23.6411 143.065 23.6214 143.07 23.5991C143.074 23.5768 143.071 23.5536 143.06 23.534C143.049 23.5143 143.032 23.4996 143.011 23.4927C142.99 23.4857 142.968 23.4871 142.949 23.4964Z" fill="#0C478B"/>
<path d="M129.97 45.9704L141.432 39.4325L143.036 38.5211C143.133 38.466 143.036 38.3079 142.949 38.3631L131.483 44.8973L129.889 45.8087C129.869 45.8209 129.854 45.8411 129.848 45.8649C129.842 45.8886 129.845 45.914 129.856 45.9355C129.868 45.9569 129.887 45.9727 129.91 45.9792C129.932 45.9857 129.956 45.9826 129.977 45.9704H129.97Z" fill="#0C478B"/>
<path d="M116.822 23.6576L128.284 30.1624L129.888 31.0701C129.908 31.0828 129.931 31.0866 129.954 31.0808C129.976 31.0749 129.996 31.0598 130.008 31.0389C130.02 31.0179 130.024 30.9928 130.018 30.969C130.012 30.9452 129.998 30.9248 129.978 30.9121L118.513 24.4073L116.912 23.4959C116.815 23.4407 116.724 23.5988 116.825 23.6576H116.822Z" fill="#0C478B"/>
<path d="M116.952 38.4565V23.5763C116.952 23.5519 116.943 23.5285 116.926 23.5113C116.91 23.4941 116.888 23.4844 116.865 23.4844C116.841 23.4844 116.819 23.4941 116.803 23.5113C116.787 23.5285 116.777 23.5519 116.777 23.5763V38.4565C116.777 38.4809 116.787 38.5042 116.803 38.5215C116.819 38.5387 116.841 38.5484 116.865 38.5484C116.888 38.5484 116.91 38.5387 116.926 38.5215C116.943 38.5042 116.952 38.4809 116.952 38.4565Z" fill="#0C478B"/>
<path d="M129.975 45.8133L118.509 39.2901L116.909 38.3787C116.811 38.3236 116.72 38.4816 116.822 38.5367L128.284 45.0599L129.888 45.975C129.989 46.0301 130.076 45.8721 129.978 45.8133H129.975Z" fill="#0C478B"/>
<path d="M129.886 16.2164L141.348 22.7433L142.952 23.6547C143.05 23.7098 143.137 23.5518 143.039 23.4967L131.57 16.9698L129.966 16.0584C129.869 16.0032 129.782 16.1613 129.879 16.2164H129.886Z" fill="#0C478B"/>
<path d="M129.886 16.0545L118.42 22.5813L116.82 23.4927C116.718 23.5479 116.82 23.7059 116.907 23.6508L128.369 17.1276L129.973 16.2162C130.071 16.1574 129.973 15.9993 129.882 16.0545H129.886Z" fill="#0C478B"/>
<path d="M77.583 30.9786V45.9213C77.583 45.9457 77.5922 45.969 77.6085 45.9863C77.6249 46.0035 77.6471 46.0132 77.6702 46.0132C77.6933 46.0132 77.7155 46.0035 77.7318 45.9863C77.7482 45.969 77.7574 45.9457 77.7574 45.9213V30.9786C77.7574 30.9542 77.7482 30.9309 77.7318 30.9136C77.7155 30.8964 77.6933 30.8867 77.6702 30.8867C77.6471 30.8867 77.6249 30.8964 77.6085 30.9136C77.5922 30.9309 77.583 30.9542 77.583 30.9786Z" fill="#0C478B"/>
<path d="M90.7006 23.4964L79.2385 30.0013L77.6345 30.909C77.6141 30.9212 77.5992 30.9414 77.593 30.9652C77.5868 30.9889 77.5898 31.0143 77.6014 31.0358C77.6129 31.0572 77.6321 31.073 77.6547 31.0795C77.6772 31.086 77.7013 31.0829 77.7217 31.0707L89.1872 24.5622L90.7878 23.6545C90.8052 23.6411 90.8174 23.6214 90.8218 23.5991C90.8263 23.5768 90.8227 23.5536 90.8119 23.534C90.801 23.5143 90.7836 23.4996 90.7631 23.4927C90.7425 23.4857 90.7203 23.4871 90.7006 23.4964Z" fill="#0C478B"/>
<path d="M90.8335 38.4565V23.5763C90.8335 23.5519 90.8243 23.5285 90.808 23.5113C90.7917 23.4941 90.7695 23.4844 90.7464 23.4844C90.7232 23.4844 90.7011 23.4941 90.6847 23.5113C90.6684 23.5285 90.6592 23.5519 90.6592 23.5763V38.4565C90.6592 38.4809 90.6684 38.5042 90.6847 38.5215C90.7011 38.5387 90.7232 38.5484 90.7464 38.5484C90.7695 38.5484 90.7917 38.5387 90.808 38.5215C90.8243 38.5042 90.8335 38.4809 90.8335 38.4565Z" fill="#0C478B"/>
<path d="M77.7217 45.9704L89.1872 39.4325L90.7878 38.5211C90.8854 38.466 90.7878 38.3079 90.7006 38.3631L79.2386 44.8973L77.6345 45.8087C77.6141 45.8209 77.5992 45.8411 77.593 45.8649C77.5868 45.8886 77.5898 45.914 77.6014 45.9355C77.6129 45.9569 77.6321 45.9727 77.6547 45.9792C77.6772 45.9857 77.7013 45.9826 77.7217 45.9704Z" fill="#0C478B"/>
<path d="M64.5799 23.6582L76.042 30.163L77.6461 31.0708C77.6657 31.0801 77.688 31.0815 77.7085 31.0746C77.7291 31.0676 77.7465 31.0529 77.7573 31.0332C77.7682 31.0136 77.7717 30.9904 77.7673 30.9681C77.7628 30.9459 77.7507 30.9261 77.7332 30.9127L66.2712 24.4079L64.6846 23.4965C64.6642 23.4843 64.6401 23.4812 64.6175 23.4877C64.595 23.4943 64.5758 23.51 64.5643 23.5314C64.5527 23.5529 64.5497 23.5783 64.5559 23.6021C64.5621 23.6258 64.577 23.646 64.5974 23.6582H64.5799Z" fill="#0C478B"/>
<path d="M64.7085 38.4565V23.5763C64.7085 23.5519 64.6993 23.5285 64.683 23.5113C64.6667 23.4941 64.6445 23.4844 64.6214 23.4844C64.5982 23.4844 64.5761 23.4941 64.5597 23.5113C64.5434 23.5285 64.5342 23.5519 64.5342 23.5763V38.4565C64.5342 38.4809 64.5434 38.5042 64.5597 38.5215C64.5761 38.5387 64.5982 38.5484 64.6214 38.5484C64.6445 38.5484 64.6667 38.5387 64.683 38.5215C64.6993 38.5042 64.7085 38.4809 64.7085 38.4565Z" fill="#0C478B"/>
<path d="M77.7333 45.8133L66.2712 39.2901L64.6846 38.3787C64.5869 38.3236 64.4998 38.4816 64.5974 38.5367L76.0595 45.0599L77.6635 45.975C77.6736 45.981 77.6847 45.9849 77.6962 45.9864C77.7077 45.9879 77.7194 45.987 77.7305 45.9838C77.7417 45.9806 77.7522 45.975 77.7613 45.9675C77.7704 45.96 77.7781 45.9507 77.7838 45.9401C77.7896 45.9295 77.7932 45.9178 77.7947 45.9056C77.7961 45.8935 77.7953 45.8812 77.7922 45.8695C77.7891 45.8577 77.7839 45.8467 77.7767 45.837C77.7696 45.8274 77.7608 45.8193 77.7507 45.8133H77.7333Z" fill="#0C478B"/>
<path d="M77.6326 16.2164L89.0876 22.7433L90.6917 23.6547C90.7893 23.7098 90.8765 23.5518 90.7789 23.4967L79.3238 16.9698L77.7197 16.0584C77.6221 16.0032 77.5349 16.1613 77.6326 16.2164Z" fill="#0C478B"/>
<path d="M77.641 16.0551L66.1755 22.582L64.5749 23.4934C64.4773 23.5485 64.5749 23.7065 64.6621 23.6514L76.1241 17.1282L77.7282 16.2168C77.7485 16.2046 77.7635 16.1844 77.7697 16.1606C77.7759 16.1369 77.7729 16.1115 77.7613 16.09C77.7498 16.0686 77.7306 16.0529 77.708 16.0463C77.6855 16.0398 77.6614 16.0429 77.641 16.0551Z" fill="#0C478B"/>
<path d="M77.583 75.6309V90.5626C77.583 90.587 77.5922 90.6104 77.6085 90.6276C77.6249 90.6448 77.6471 90.6545 77.6702 90.6545C77.6933 90.6545 77.7155 90.6448 77.7318 90.6276C77.7482 90.6104 77.7574 90.587 77.7574 90.5626V75.6309C77.7574 75.6066 77.7482 75.5832 77.7318 75.566C77.7155 75.5487 77.6933 75.5391 77.6702 75.5391C77.6471 75.5391 77.6249 75.5487 77.6085 75.566C77.5922 75.5832 77.583 75.6066 77.583 75.6309Z" fill="#0C478B"/>
<path d="M90.7001 68.1363L79.238 74.6411L77.634 75.5525C77.5363 75.6076 77.634 75.7657 77.7211 75.7105L89.1867 69.1984L90.7873 68.2906C90.8849 68.2355 90.7873 68.0775 90.7001 68.1326V68.1363Z" fill="#0C478B"/>
<path d="M90.8335 83.0971V68.2169C90.8335 68.1925 90.8243 68.1691 90.808 68.1519C90.7917 68.1347 90.7695 68.125 90.7464 68.125C90.7232 68.125 90.7011 68.1347 90.6847 68.1519C90.6684 68.1691 90.6592 68.1925 90.6592 68.2169V83.0971C90.6592 83.1215 90.6684 83.1448 90.6847 83.1621C90.7011 83.1793 90.7232 83.189 90.7464 83.189C90.7695 83.189 90.7917 83.1793 90.808 83.1621C90.8243 83.1448 90.8335 83.1215 90.8335 83.0971Z" fill="#0C478B"/>
<path d="M77.7211 90.6124L89.1867 84.0892L90.7873 83.1777C90.8076 83.1656 90.8225 83.1454 90.8287 83.1216C90.835 83.0978 90.832 83.0724 90.8204 83.051C90.8088 83.0295 90.7897 83.0138 90.7671 83.0072C90.7445 83.0007 90.7204 83.0039 90.7001 83.016L79.238 89.5429L77.634 90.4543C77.5363 90.5095 77.634 90.6675 77.7211 90.6124Z" fill="#0C478B"/>
<path d="M64.5769 68.2996L76.039 74.8044L77.643 75.7158C77.7407 75.771 77.8278 75.6129 77.7302 75.5578L66.2681 69.0493L64.6641 68.1416C64.5664 68.0828 64.4793 68.2445 64.5769 68.2996Z" fill="#0C478B"/>
<path d="M64.7085 83.101V68.2208C64.7085 68.1964 64.6993 68.173 64.683 68.1558C64.6667 68.1386 64.6445 68.1289 64.6214 68.1289C64.5982 68.1289 64.5761 68.1386 64.5597 68.1558C64.5434 68.173 64.5342 68.1964 64.5342 68.2208V83.101C64.5342 83.1254 64.5434 83.1488 64.5597 83.166C64.5761 83.1832 64.5982 83.1929 64.6214 83.1929C64.6445 83.1929 64.6667 83.1832 64.683 83.166C64.6993 83.1488 64.7085 83.1254 64.7085 83.101Z" fill="#0C478B"/>
<path d="M77.7333 90.4576L66.2712 83.9307L64.6846 83.0193C64.5869 82.9642 64.4998 83.1222 64.5974 83.1773L76.0595 89.7042L77.6635 90.6156C77.7612 90.6707 77.8483 90.5127 77.7507 90.4576H77.7333Z" fill="#0C478B"/>
<path d="M77.634 60.8615L89.0891 67.3847L90.6932 68.2961C90.7908 68.3512 90.878 68.1932 90.7804 68.1381L79.3253 61.6149L77.7212 60.7035C77.7016 60.6941 77.6793 60.6928 77.6587 60.6997C77.6382 60.7066 77.6208 60.7213 77.61 60.741C77.5991 60.7607 77.5956 60.7839 77.6 60.8061C77.6045 60.8284 77.6166 60.8481 77.634 60.8615Z" fill="#0C478B"/>
<path d="M77.641 60.7002L66.179 67.2234L64.5749 68.1348C64.4773 68.1899 64.5749 68.3479 64.6621 68.2928L76.1276 61.7696L77.7282 60.8582C77.8258 60.8031 77.7282 60.6414 77.641 60.7002Z" fill="#0C478B"/>
<path d="M103.735 75.6309V90.5626C103.735 90.587 103.745 90.6104 103.761 90.6276C103.777 90.6448 103.799 90.6545 103.823 90.6545C103.846 90.6545 103.868 90.6448 103.884 90.6276C103.901 90.6104 103.91 90.587 103.91 90.5626V75.6309C103.91 75.6066 103.901 75.5832 103.884 75.566C103.868 75.5487 103.846 75.5391 103.823 75.5391C103.799 75.5391 103.777 75.5487 103.761 75.566C103.745 75.5832 103.735 75.6066 103.735 75.6309Z" fill="#0C478B"/>
<path d="M116.829 68.1363L105.363 74.6411L103.762 75.5525C103.665 75.6076 103.762 75.7657 103.85 75.7105L115.312 69.1984L116.916 68.2906C117.013 68.2355 116.916 68.0775 116.829 68.1326V68.1363Z" fill="#0C478B"/>
<path d="M116.952 83.0971V68.2169C116.952 68.1925 116.943 68.1691 116.926 68.1519C116.91 68.1347 116.888 68.125 116.865 68.125C116.841 68.125 116.819 68.1347 116.803 68.1519C116.787 68.1691 116.777 68.1925 116.777 68.2169V83.0971C116.777 83.1215 116.787 83.1448 116.803 83.1621C116.819 83.1793 116.841 83.189 116.865 83.189C116.888 83.189 116.91 83.1793 116.926 83.1621C116.943 83.1448 116.952 83.1215 116.952 83.0971Z" fill="#0C478B"/>
<path d="M103.85 90.6124L115.312 84.0892L116.916 83.1777C116.936 83.1656 116.951 83.1454 116.957 83.1216C116.963 83.0978 116.96 83.0724 116.949 83.051C116.937 83.0295 116.918 83.0138 116.896 83.0072C116.873 83.0007 116.849 83.0039 116.829 83.016L105.363 89.5429L103.762 90.4543C103.665 90.5095 103.762 90.6675 103.85 90.6124Z" fill="#0C478B"/>
<path d="M90.6986 68.2996L102.161 74.8044L103.761 75.7158C103.862 75.771 103.949 75.6129 103.852 75.5578L92.3898 69.0493L90.7857 68.1416C90.6881 68.0828 90.5974 68.2445 90.6986 68.2996Z" fill="#0C478B"/>
<path d="M90.8335 83.101V68.2208C90.8335 68.1964 90.8243 68.173 90.808 68.1558C90.7917 68.1386 90.7695 68.1289 90.7464 68.1289C90.7232 68.1289 90.7011 68.1386 90.6847 68.1558C90.6684 68.173 90.6592 68.1964 90.6592 68.2208V83.101C90.6592 83.1254 90.6684 83.1488 90.6847 83.166C90.7011 83.1832 90.7232 83.1929 90.7464 83.1929C90.7695 83.1929 90.7917 83.1832 90.808 83.166C90.8243 83.1488 90.8335 83.1254 90.8335 83.101Z" fill="#0C478B"/>
<path d="M103.855 90.4576L92.3931 83.9307L90.7891 83.0193C90.6914 82.9642 90.6043 83.1222 90.7019 83.1773L102.164 89.7042L103.765 90.6156C103.866 90.6707 103.953 90.5127 103.855 90.4576Z" fill="#0C478B"/>
<path d="M103.762 60.8615L115.225 67.3847L116.829 68.2961C116.926 68.3512 117.013 68.1932 116.916 68.1381L105.454 61.6149L103.85 60.7035C103.83 60.6941 103.808 60.6928 103.787 60.6997C103.767 60.7066 103.749 60.7213 103.738 60.741C103.728 60.7607 103.724 60.7839 103.728 60.8061C103.733 60.8284 103.745 60.8481 103.762 60.8615Z" fill="#0C478B"/>
<path d="M103.769 60.7002L92.3073 67.2234L90.7067 68.1348C90.6091 68.1899 90.7067 68.3479 90.7939 68.2928L102.256 61.7696L103.86 60.8582C103.958 60.8031 103.86 60.6414 103.769 60.7002Z" fill="#0C478B"/>
<path d="M51.4697 75.6309V90.5626C51.4697 90.587 51.4789 90.6104 51.4953 90.6276C51.5116 90.6448 51.5338 90.6545 51.5569 90.6545C51.58 90.6545 51.6022 90.6448 51.6185 90.6276C51.6349 90.6104 51.6441 90.587 51.6441 90.5626V75.6309C51.6441 75.6066 51.6349 75.5832 51.6185 75.566C51.6022 75.5487 51.58 75.5391 51.5569 75.5391C51.5338 75.5391 51.5116 75.5487 51.4953 75.566C51.4789 75.5832 51.4697 75.6066 51.4697 75.6309Z" fill="#0C478B"/>
<path d="M64.5785 68.1363L53.1165 74.6411L51.5124 75.5525C51.4148 75.6076 51.5124 75.7657 51.5996 75.7105L63.0651 69.1984L64.6657 68.2906C64.7633 68.2355 64.6657 68.0775 64.5785 68.1326V68.1363Z" fill="#0C478B"/>
<path d="M64.7085 83.0971V68.2169C64.7085 68.1925 64.6993 68.1691 64.683 68.1519C64.6667 68.1347 64.6445 68.125 64.6214 68.125C64.5982 68.125 64.5761 68.1347 64.5597 68.1519C64.5434 68.1691 64.5342 68.1925 64.5342 68.2169V83.0971C64.5342 83.1215 64.5434 83.1448 64.5597 83.1621C64.5761 83.1793 64.5982 83.189 64.6214 83.189C64.6445 83.189 64.6667 83.1793 64.683 83.1621C64.6993 83.1448 64.7085 83.1215 64.7085 83.0971Z" fill="#0C478B"/>
<path d="M51.5973 90.6117L63.0629 84.0885L64.6774 83.166C64.6978 83.1538 64.7127 83.1336 64.7189 83.1099C64.7251 83.0861 64.7221 83.0607 64.7105 83.0392C64.699 83.0178 64.6798 83.0021 64.6572 82.9955C64.6347 82.989 64.6106 82.9921 64.5902 83.0043L53.1282 89.5312L51.5241 90.4426C51.4265 90.4977 51.5241 90.6558 51.6113 90.6006L51.5973 90.6117Z" fill="#0C478B"/>
<path d="M38.4536 68.2996L49.9157 74.8044L51.5198 75.7158C51.6174 75.771 51.7046 75.6129 51.6069 75.5578L40.1449 69.0493L38.5269 68.1416C38.4292 68.0828 38.3421 68.2445 38.4397 68.2996H38.4536Z" fill="#0C478B"/>
<path d="M38.585 83.101V68.2208C38.585 68.1964 38.5758 68.173 38.5595 68.1558C38.5431 68.1386 38.5209 68.1289 38.4978 68.1289C38.4747 68.1289 38.4525 68.1386 38.4362 68.1558C38.4198 68.173 38.4106 68.1964 38.4106 68.2208V83.101C38.4106 83.1254 38.4198 83.1488 38.4362 83.166C38.4525 83.1832 38.4747 83.1929 38.4978 83.1929C38.5209 83.1929 38.5431 83.1832 38.5595 83.166C38.5758 83.1488 38.585 83.1254 38.585 83.101Z" fill="#0C478B"/>
<path d="M51.6069 90.4576L40.1449 83.9307L38.5269 83.0193C38.4292 82.9642 38.3421 83.1222 38.4397 83.1773L49.9017 89.7042L51.5058 90.6156C51.6034 90.6707 51.6906 90.5127 51.593 90.4576H51.6069Z" fill="#0C478B"/>
<path d="M51.5159 60.8615L62.9779 67.3847L64.582 68.2961C64.6796 68.3512 64.7668 68.1932 64.6692 68.1381L53.2071 61.6149L51.6031 60.7035C51.5834 60.6941 51.5611 60.6928 51.5406 60.6997C51.52 60.7066 51.5026 60.7213 51.4918 60.741C51.4809 60.7607 51.4774 60.7839 51.4819 60.8061C51.4863 60.8284 51.4984 60.8481 51.5159 60.8615Z" fill="#0C478B"/>
<path d="M51.5209 60.7002L40.0588 67.2234L38.4548 68.1348C38.3571 68.1899 38.4548 68.3479 38.542 68.2928L50.0075 61.7696L51.6081 60.8582C51.7057 60.8031 51.6081 60.6414 51.5209 60.7002Z" fill="#0C478B"/>
<path d="M25.3496 31.002V45.9301C25.3496 45.9544 25.3588 45.9778 25.3751 45.995C25.3915 46.0122 25.4137 46.0219 25.4368 46.0219C25.4599 46.0219 25.4821 46.0122 25.4984 45.995C25.5148 45.9778 25.524 45.9544 25.524 45.9301V31.002C25.524 30.9777 25.5148 30.9543 25.4984 30.9371C25.4821 30.9198 25.4599 30.9102 25.4368 30.9102C25.4137 30.9102 25.3915 30.9198 25.3751 30.9371C25.3588 30.9543 25.3496 30.9777 25.3496 31.002Z" fill="#0C478B"/>
<path d="M38.4564 23.5037L26.9944 30.0122L25.3903 30.9199C25.2927 30.975 25.3903 31.1331 25.4775 31.0779L36.943 24.5731L38.5436 23.6617C38.6413 23.6066 38.5436 23.4486 38.4564 23.5037Z" fill="#0C478B"/>
<path d="M38.585 38.4606V23.5841C38.585 23.5597 38.5758 23.5363 38.5595 23.5191C38.5431 23.5019 38.5209 23.4922 38.4978 23.4922C38.4747 23.4922 38.4525 23.5019 38.4362 23.5191C38.4198 23.5363 38.4106 23.5597 38.4106 23.5841V38.4606C38.4106 38.485 38.4198 38.5084 38.4362 38.5256C38.4525 38.5428 38.4747 38.5525 38.4978 38.5525C38.5209 38.5525 38.5431 38.5428 38.5595 38.5256C38.5758 38.5084 38.585 38.485 38.585 38.4606Z" fill="#0C478B"/>
<path d="M25.4775 45.9764L36.943 39.4532L38.5436 38.5418C38.6413 38.4867 38.5436 38.325 38.4564 38.3838L26.9944 44.907L25.3903 45.8184C25.2927 45.8735 25.3903 46.0352 25.4775 45.9764Z" fill="#0C478B"/>
<path d="M12.3284 23.6656L23.7904 30.1741L25.3945 31.0819C25.4921 31.137 25.5793 30.979 25.4817 30.9238L14.0196 24.4153L12.4155 23.5076C12.3179 23.4525 12.2307 23.6105 12.3284 23.6656Z" fill="#0C478B"/>
<path d="M25.49 45.8217L14.0279 39.2985L12.4239 38.3871C12.4042 38.3777 12.3819 38.3763 12.3614 38.3833C12.3408 38.3902 12.3234 38.4049 12.3126 38.4246C12.3017 38.4443 12.2982 38.4675 12.3027 38.4897C12.3071 38.512 12.3192 38.5317 12.3367 38.5451L23.7987 45.0683L25.4028 45.9797C25.5004 46.0348 25.5876 45.8768 25.49 45.8217Z" fill="#0C478B"/>
<path d="M25.3923 16.2281L36.8544 22.7513L38.4584 23.6627C38.5561 23.7215 38.6433 23.5598 38.5456 23.5047L27.0836 16.9815L25.4795 16.0701C25.3819 16.015 25.2947 16.173 25.3923 16.2281Z" fill="#0C478B"/>
<path d="M25.3964 16.0662L13.9309 22.5894L12.3303 23.5008C12.3099 23.513 12.295 23.5332 12.2888 23.557C12.2826 23.5807 12.2856 23.6061 12.2972 23.6276C12.3087 23.649 12.3279 23.6648 12.3505 23.6713C12.373 23.6778 12.3971 23.6747 12.4175 23.6625L23.8795 17.1356L25.4836 16.2242C25.5812 16.1691 25.4836 16.0111 25.3964 16.0662Z" fill="#0C478B"/>
<path d="M51.4697 31.002V45.9301C51.4697 45.9544 51.4789 45.9778 51.4953 45.995C51.5116 46.0122 51.5338 46.0219 51.5569 46.0219C51.58 46.0219 51.6022 46.0122 51.6185 45.995C51.6349 45.9778 51.6441 45.9544 51.6441 45.9301V31.002C51.6441 30.9777 51.6349 30.9543 51.6185 30.9371C51.6022 30.9198 51.58 30.9102 51.5569 30.9102C51.5338 30.9102 51.5116 30.9198 51.4953 30.9371C51.4789 30.9543 51.4697 30.9777 51.4697 31.002Z" fill="#0C478B"/>
<path d="M64.5833 23.5037L53.1213 30.0122L51.5207 30.9199C51.4231 30.975 51.5207 31.1331 51.6079 31.0779L63.0699 24.5731L64.674 23.6617C64.7716 23.6066 64.674 23.4486 64.5833 23.5037Z" fill="#0C478B"/>
<path d="M64.71 38.4606V23.5841C64.71 23.5597 64.7008 23.5363 64.6845 23.5191C64.6681 23.5019 64.6459 23.4922 64.6228 23.4922C64.5997 23.4922 64.5775 23.5019 64.5612 23.5191C64.5448 23.5363 64.5356 23.5597 64.5356 23.5841V38.4606C64.5356 38.485 64.5448 38.5084 64.5612 38.5256C64.5775 38.5428 64.5997 38.5525 64.6228 38.5525C64.6459 38.5525 64.6681 38.5428 64.6845 38.5256C64.7008 38.5084 64.71 38.485 64.71 38.4606Z" fill="#0C478B"/>
<path d="M51.6079 45.9764L63.0699 39.4532L64.674 38.5418C64.7716 38.4867 64.674 38.325 64.5833 38.3838L53.1213 44.907L51.5207 45.8184C51.4231 45.8735 51.5207 46.0352 51.6079 45.9764Z" fill="#0C478B"/>
<path d="M38.4583 23.6656L49.9204 30.1741L51.521 31.0819C51.6221 31.137 51.7093 30.979 51.6116 30.9238L40.1461 24.4153L38.5455 23.5076C38.4479 23.4525 38.3572 23.6105 38.4583 23.6656Z" fill="#0C478B"/>
<path d="M38.585 38.4645V23.588C38.585 23.5636 38.5758 23.5402 38.5595 23.523C38.5431 23.5058 38.5209 23.4961 38.4978 23.4961C38.4747 23.4961 38.4525 23.5058 38.4362 23.523C38.4198 23.5402 38.4106 23.5636 38.4106 23.588V38.4645C38.4106 38.4889 38.4198 38.5123 38.4362 38.5295C38.4525 38.5467 38.4747 38.5564 38.4978 38.5564C38.5209 38.5564 38.5431 38.5467 38.5595 38.5295C38.5758 38.5123 38.585 38.4889 38.585 38.4645Z" fill="#0C478B"/>
<path d="M51.6101 45.8217L40.1446 39.2985L38.544 38.3871C38.5243 38.3777 38.502 38.3763 38.4815 38.3833C38.4609 38.3902 38.4436 38.4049 38.4327 38.4246C38.4219 38.4443 38.4183 38.4675 38.4228 38.4897C38.4272 38.512 38.4393 38.5317 38.4568 38.5451L49.9189 45.0683L51.5194 45.9797C51.6206 46.0348 51.7077 45.8768 51.6101 45.8217Z" fill="#0C478B"/>
<path d="M51.5144 16.2281L62.9765 22.7513L64.577 23.6627C64.6782 23.7215 64.7653 23.5598 64.6677 23.5047L53.2056 16.9815L51.6016 16.0701C51.5039 16.015 51.4168 16.173 51.5144 16.2281Z" fill="#0C478B"/>
<path d="M51.5189 16.0662L40.0569 22.5894L38.4563 23.5008C38.3552 23.5596 38.4563 23.7176 38.5435 23.6625L50.0055 17.1356L51.6096 16.2242C51.7072 16.1691 51.6096 16.0111 51.5189 16.0662Z" fill="#0C478B"/>
<path d="M38.4106 8.67781V23.6095C38.4106 23.6339 38.4198 23.6572 38.4362 23.6745C38.4525 23.6917 38.4747 23.7014 38.4978 23.7014C38.5209 23.7014 38.5431 23.6917 38.5595 23.6745C38.5758 23.6572 38.585 23.6339 38.585 23.6095V8.67781C38.585 8.65345 38.5758 8.63008 38.5595 8.61285C38.5431 8.59562 38.5209 8.58594 38.4978 8.58594C38.4747 8.58594 38.4525 8.59562 38.4362 8.61285C38.4198 8.63008 38.4106 8.65345 38.4106 8.67781Z" fill="#0C478B"/>
<path d="M51.6441 16.1401V1.25984C51.6441 1.23548 51.6349 1.21211 51.6185 1.19488C51.6022 1.17765 51.58 1.16797 51.5569 1.16797C51.5338 1.16797 51.5116 1.17765 51.4953 1.19488C51.4789 1.21211 51.4697 1.23548 51.4697 1.25984V16.1401C51.4697 16.1645 51.4789 16.1878 51.4953 16.2051C51.5116 16.2223 51.5338 16.232 51.5569 16.232C51.58 16.232 51.6022 16.2223 51.6185 16.2051C51.6349 16.1878 51.6441 16.1645 51.6441 16.1401Z" fill="#0C478B"/>
<path d="M38.5281 23.6547L50.0006 17.1315L51.6047 16.2164C51.7023 16.1613 51.6047 16.0032 51.514 16.0584L40.0519 22.5816L38.4514 23.4967C38.3537 23.5518 38.4514 23.7098 38.5385 23.6547H38.5281Z" fill="#0C478B"/>
<path d="M25.521 16.144V1.26375C25.521 1.23938 25.5118 1.21601 25.4955 1.19878C25.4792 1.18155 25.457 1.17188 25.4339 1.17188C25.4107 1.17188 25.3886 1.18155 25.3722 1.19878C25.3559 1.21601 25.3467 1.23938 25.3467 1.26375V16.144C25.3467 16.1684 25.3559 16.1917 25.3722 16.209C25.3886 16.2262 25.4107 16.2359 25.4339 16.2359C25.457 16.2359 25.4792 16.2262 25.4955 16.209C25.5118 16.1917 25.521 16.1684 25.521 16.144Z" fill="#0C478B"/>
<path d="M38.5442 23.4969L27.0787 16.9737L25.4781 16.0623C25.3805 16.0072 25.2898 16.1652 25.3909 16.2203L36.853 22.7472L38.4536 23.6586C38.5547 23.7137 38.6419 23.5557 38.5442 23.4969Z" fill="#0C478B"/>
<path d="M64.5288 8.67781V23.6095C64.5288 23.6339 64.538 23.6572 64.5543 23.6745C64.5707 23.6917 64.5929 23.7014 64.616 23.7014C64.6391 23.7014 64.6613 23.6917 64.6776 23.6745C64.694 23.6572 64.7032 23.6339 64.7032 23.6095V8.67781C64.7032 8.65345 64.694 8.63008 64.6776 8.61285C64.6613 8.59562 64.6391 8.58594 64.616 8.58594C64.5929 8.58594 64.5707 8.59562 64.5543 8.61285C64.538 8.63008 64.5288 8.65345 64.5288 8.67781Z" fill="#0C478B"/>
<path d="M77.7725 16.1401V1.25984C77.7725 1.23548 77.7633 1.21211 77.747 1.19488C77.7306 1.17765 77.7084 1.16797 77.6853 1.16797C77.6622 1.16797 77.64 1.17765 77.6237 1.19488C77.6073 1.21211 77.5981 1.23548 77.5981 1.25984V16.1401C77.5981 16.1645 77.6073 16.1878 77.6237 16.2051C77.64 16.2223 77.6622 16.232 77.6853 16.232C77.7084 16.232 77.7306 16.2223 77.747 16.2051C77.7633 16.1878 77.7725 16.1645 77.7725 16.1401Z" fill="#0C478B"/>
<path d="M64.681 23.6547L76.1431 17.1315L77.7437 16.2164C77.8448 16.1613 77.7437 16.0032 77.6565 16.0584L66.177 22.5816L64.5764 23.4967C64.4753 23.5518 64.5764 23.7098 64.6636 23.6547H64.681Z" fill="#0C478B"/>
<path d="M51.6441 16.144V1.26375C51.6441 1.23938 51.6349 1.21601 51.6185 1.19878C51.6022 1.18155 51.58 1.17188 51.5569 1.17188C51.5338 1.17188 51.5116 1.18155 51.4953 1.19878C51.4789 1.21601 51.4697 1.23938 51.4697 1.26375V16.144C51.4697 16.1684 51.4789 16.1917 51.4953 16.209C51.5116 16.2262 51.5338 16.2359 51.5569 16.2359C51.58 16.2359 51.6022 16.2262 51.6185 16.209C51.6349 16.1917 51.6441 16.1684 51.6441 16.144Z" fill="#0C478B"/>
<path d="M64.6784 23.4969L53.2024 16.9737L51.6019 16.0623C51.5007 16.0072 51.4136 16.1652 51.5147 16.2203L62.9767 22.7472L64.5773 23.6586C64.675 23.7137 64.7656 23.5557 64.6645 23.4969H64.6784Z" fill="#0C478B"/>
<path d="M25.524 16.1401V1.25984C25.524 1.23548 25.5148 1.21211 25.4984 1.19488C25.4821 1.17765 25.4599 1.16797 25.4368 1.16797C25.4137 1.16797 25.3915 1.17765 25.3751 1.19488C25.3588 1.21211 25.3496 1.23548 25.3496 1.25984V16.1401C25.3496 16.1645 25.3588 16.1878 25.3751 16.2051C25.3915 16.2223 25.4137 16.232 25.4368 16.232C25.4599 16.232 25.4821 16.2223 25.4984 16.2051C25.5148 16.1878 25.524 16.1645 25.524 16.1401Z" fill="#0C478B"/>
<path d="M12.4135 23.6547L23.8791 17.1315L25.4831 16.2164C25.5808 16.1613 25.4831 16.0032 25.3925 16.0584L13.9269 22.5816L12.3264 23.4967C12.2287 23.5518 12.3264 23.7098 12.4135 23.6547Z" fill="#0C478B"/>
<path d="M25.3925 45.824L13.9269 52.3288L12.3264 53.2402C12.2287 53.2954 12.3264 53.4534 12.4135 53.3983L23.8791 46.8934L25.4831 45.982C25.5808 45.9269 25.4831 45.7689 25.396 45.824H25.3925Z" fill="#0C478B"/>
<path d="M25.524 60.7809V45.9044C25.524 45.88 25.5148 45.8566 25.4984 45.8394C25.4821 45.8222 25.4599 45.8125 25.4368 45.8125C25.4137 45.8125 25.3915 45.8222 25.3751 45.8394C25.3588 45.8566 25.3496 45.88 25.3496 45.9044V60.7809C25.3496 60.8053 25.3588 60.8287 25.3751 60.8459C25.3915 60.8631 25.4137 60.8728 25.4368 60.8728C25.4599 60.8728 25.4821 60.8631 25.4984 60.8459C25.5148 60.8287 25.524 60.8053 25.524 60.7809Z" fill="#0C478B"/>
<path d="M12.4135 68.2961L23.8791 61.7729L25.4831 60.8615C25.5006 60.8481 25.5127 60.8284 25.5172 60.8061C25.5216 60.7839 25.5181 60.7607 25.5072 60.741C25.4964 60.7213 25.479 60.7066 25.4584 60.6997C25.4379 60.6928 25.4156 60.6941 25.396 60.7035L13.9269 67.2267L12.3264 68.1381C12.2287 68.1932 12.3264 68.3512 12.4135 68.2961Z" fill="#0C478B"/>
<path d="M12.3284 38.5451L23.7904 45.0683L25.3945 45.9797C25.4921 46.0348 25.5793 45.8768 25.4817 45.8217L14.0196 39.2985L12.4156 38.3871C12.3959 38.3777 12.3736 38.3763 12.3531 38.3833C12.3325 38.3902 12.3151 38.4049 12.3043 38.4246C12.2934 38.4443 12.2899 38.4675 12.2944 38.4897C12.2988 38.512 12.3109 38.5317 12.3284 38.5451Z" fill="#0C478B"/>
<path d="M38.4106 53.3184V68.2501C38.4106 68.2745 38.4198 68.2979 38.4362 68.3151C38.4525 68.3323 38.4747 68.342 38.4978 68.342C38.5209 68.342 38.5431 68.3323 38.5595 68.3151C38.5758 68.2979 38.585 68.2745 38.585 68.2501V53.3184C38.585 53.2941 38.5758 53.2707 38.5595 53.2535C38.5431 53.2362 38.5209 53.2266 38.4978 53.2266C38.4747 53.2266 38.4525 53.2362 38.4362 53.2535C38.4198 53.2707 38.4106 53.2941 38.4106 53.3184Z" fill="#0C478B"/>
<path d="M51.5155 45.824L40.0535 52.3288L38.4529 53.2402C38.3518 53.2954 38.4529 53.4534 38.5401 53.3983L50.0021 46.8934L51.6062 45.982C51.7038 45.9269 51.6062 45.7689 51.5155 45.824Z" fill="#0C478B"/>
<path d="M51.6543 60.7809V45.9044C51.6543 45.88 51.6452 45.8566 51.6288 45.8394C51.6125 45.8222 51.5903 45.8125 51.5672 45.8125C51.544 45.8125 51.5219 45.8222 51.5055 45.8394C51.4892 45.8566 51.48 45.88 51.48 45.9044V60.7809C51.48 60.8053 51.4892 60.8287 51.5055 60.8459C51.5219 60.8631 51.544 60.8728 51.5672 60.8728C51.5903 60.8728 51.6125 60.8631 51.6288 60.8459C51.6452 60.8287 51.6543 60.8053 51.6543 60.7809Z" fill="#0C478B"/>
<path d="M38.5261 68.2974L49.9882 61.7742L51.5922 60.8628C51.6021 60.8565 51.6107 60.8482 51.6175 60.8385C51.6243 60.8287 51.6292 60.8176 51.632 60.8058C51.6347 60.7941 51.6353 60.7818 51.6335 60.7698C51.6318 60.7579 51.6278 60.7463 51.6219 60.736C51.6159 60.7256 51.6081 60.7166 51.5988 60.7094C51.5896 60.7022 51.579 60.697 51.5679 60.6941C51.5567 60.6912 51.5451 60.6906 51.5337 60.6925C51.5223 60.6943 51.5114 60.6985 51.5016 60.7047L40.0535 67.2279L38.4529 68.1393C38.3518 68.1945 38.4529 68.3525 38.5401 68.2974H38.5261Z" fill="#0C478B"/>
<path d="M25.3946 45.9859L36.8566 52.4908L38.4572 53.3985C38.5583 53.4536 38.6455 53.2956 38.5444 53.2405L27.0823 46.7356L25.4817 45.8279C25.3806 45.7728 25.2934 45.9308 25.3946 45.9859Z" fill="#0C478B"/>
<path d="M25.524 60.7846V45.9044C25.524 45.88 25.5148 45.8566 25.4984 45.8394C25.4821 45.8222 25.4599 45.8125 25.4368 45.8125C25.4137 45.8125 25.3915 45.8222 25.3751 45.8394C25.3588 45.8566 25.3496 45.88 25.3496 45.9044V60.7846C25.3496 60.809 25.3588 60.8324 25.3751 60.8496C25.3915 60.8668 25.4137 60.8765 25.4368 60.8765C25.4599 60.8765 25.4821 60.8668 25.4984 60.8496C25.5148 60.8324 25.524 60.809 25.524 60.7846Z" fill="#0C478B"/>
<path d="M38.5441 68.1418L27.082 61.615L25.4814 60.7035C25.4611 60.6914 25.437 60.6882 25.4144 60.6947C25.3919 60.7013 25.3727 60.717 25.3611 60.7385C25.3496 60.7599 25.3466 60.7853 25.3528 60.8091C25.359 60.8329 25.3739 60.8531 25.3943 60.8652L36.8563 67.3884L38.4569 68.2999C38.5545 68.355 38.6452 68.197 38.5441 68.1418Z" fill="#0C478B"/>
<path d="M38.4522 38.5451L49.9143 45.0683L51.5148 45.9797C51.616 46.0348 51.7031 45.8768 51.6055 45.8217L40.1399 39.2985L38.5254 38.3871C38.5058 38.3777 38.4835 38.3763 38.4629 38.3833C38.4424 38.3902 38.425 38.4049 38.4142 38.4246C38.4033 38.4443 38.3998 38.4675 38.4042 38.4897C38.4087 38.512 38.4208 38.5317 38.4382 38.5451H38.4522Z" fill="#0C478B"/>
<path d="M38.4599 38.3838L26.9978 44.907L25.3972 45.8184C25.2961 45.8735 25.3972 46.0352 25.4844 45.9764L36.9465 39.4532L38.547 38.5418C38.6482 38.4867 38.547 38.325 38.4599 38.3838Z" fill="#0C478B"/>
<path d="M25.3954 90.4607L13.9333 96.9692L12.3328 97.8659C12.2316 97.9211 12.3328 98.0791 12.42 98.0239L23.882 91.5302L25.4826 90.6187C25.5837 90.5636 25.4826 90.4056 25.3954 90.4607Z" fill="#0C478B"/>
<path d="M25.5293 105.418V90.5411C25.5293 90.5167 25.5202 90.4934 25.5038 90.4761C25.4875 90.4589 25.4653 90.4492 25.4422 90.4492C25.419 90.4492 25.3969 90.4589 25.3805 90.4761C25.3642 90.4934 25.355 90.5167 25.355 90.5411V105.418C25.355 105.442 25.3642 105.465 25.3805 105.483C25.3969 105.5 25.419 105.51 25.4422 105.51C25.4653 105.51 25.4875 105.5 25.5038 105.483C25.5202 105.465 25.5293 105.442 25.5293 105.418Z" fill="#0C478B"/>
<path d="M12.42 112.933L23.882 106.41L25.4826 105.499C25.5837 105.444 25.4826 105.282 25.3954 105.341L13.9333 111.864L12.3328 112.775C12.2316 112.831 12.3328 112.989 12.42 112.933Z" fill="#0C478B"/>
<path d="M12.3299 83.1824L23.792 89.7056L25.3925 90.617C25.4937 90.6758 25.5808 90.5141 25.4797 90.459L14.0177 83.9358L12.4171 83.0244C12.3194 82.9656 12.2288 83.1273 12.3299 83.1824Z" fill="#0C478B"/>
<path d="M25.3467 75.6309V90.5626C25.3467 90.587 25.3559 90.6104 25.3722 90.6276C25.3886 90.6448 25.4107 90.6545 25.4339 90.6545C25.457 90.6545 25.4792 90.6448 25.4955 90.6276C25.5118 90.6104 25.521 90.587 25.521 90.5626V75.6309C25.521 75.6066 25.5118 75.5832 25.4955 75.566C25.4792 75.5487 25.457 75.5391 25.4339 75.5391C25.4107 75.5391 25.3886 75.5487 25.3722 75.566C25.3559 75.5832 25.3467 75.6066 25.3467 75.6309Z" fill="#0C478B"/>
<path d="M38.4534 68.1371L26.9914 74.6419L25.3873 75.5496C25.2897 75.6084 25.3873 75.7664 25.478 75.7113L36.94 69.1991L38.5266 68.2951C38.5441 68.2817 38.5562 68.262 38.5607 68.2397C38.5651 68.2175 38.5616 68.1943 38.5507 68.1746C38.5399 68.1549 38.5225 68.1402 38.502 68.1333C38.4814 68.1263 38.4591 68.1277 38.4395 68.1371H38.4534Z" fill="#0C478B"/>
<path d="M38.585 83.0971V68.2169C38.585 68.1925 38.5758 68.1691 38.5595 68.1519C38.5431 68.1347 38.5209 68.125 38.4978 68.125C38.4747 68.125 38.4525 68.1347 38.4362 68.1519C38.4198 68.1691 38.4106 68.1925 38.4106 68.2169V83.0971C38.4106 83.1215 38.4198 83.1448 38.4362 83.1621C38.4525 83.1793 38.4747 83.189 38.4978 83.189C38.5209 83.189 38.5431 83.1793 38.5595 83.1621C38.5758 83.1448 38.585 83.1215 38.585 83.0971Z" fill="#0C478B"/>
<path d="M25.478 90.6112L36.94 84.0844L38.5266 83.1656C38.6278 83.1105 38.5266 82.9525 38.4395 83.0076L26.9914 89.5381L25.3873 90.4496C25.2897 90.5084 25.3873 90.6664 25.478 90.6112Z" fill="#0C478B"/>
<path d="M12.3283 68.3021L23.7903 74.8069L25.3944 75.7147C25.414 75.724 25.4363 75.7254 25.4569 75.7184C25.4774 75.7115 25.4948 75.6968 25.5056 75.6771C25.5165 75.6574 25.52 75.6342 25.5156 75.612C25.5111 75.5897 25.499 75.57 25.4816 75.5566L14.0195 69.0518L12.4189 68.1404C12.3178 68.0853 12.2306 68.2433 12.3283 68.3021Z" fill="#0C478B"/>
<path d="M25.4816 90.4539L14.0195 83.9307L12.4189 83.0193C12.3178 82.9642 12.2306 83.1222 12.3283 83.1773L23.7903 89.7005L25.3944 90.6119C25.414 90.6213 25.4363 90.6227 25.4569 90.6157C25.4774 90.6088 25.4948 90.5941 25.5056 90.5744C25.5165 90.5547 25.52 90.5315 25.5156 90.5093C25.5111 90.487 25.499 90.4673 25.4816 90.4539Z" fill="#0C478B"/>
<path d="M25.3839 60.857L36.8495 67.3839L38.45 68.2953C38.5477 68.3504 38.6383 68.1924 38.5372 68.1373L27.0752 61.6104L25.4746 60.699C25.3735 60.6439 25.2863 60.8019 25.3839 60.857Z" fill="#0C478B"/>
<path d="M25.3924 60.6957L13.9303 67.2226L12.3263 68.134C12.2286 68.1891 12.3263 68.3472 12.4169 68.292L23.879 61.7688L25.4796 60.8574C25.4896 60.8514 25.4985 60.8433 25.5056 60.8337C25.5127 60.8241 25.518 60.813 25.521 60.8013C25.5241 60.7895 25.525 60.7772 25.5235 60.7651C25.5221 60.753 25.5184 60.7413 25.5127 60.7306C25.507 60.72 25.4993 60.7107 25.4902 60.7032C25.481 60.6957 25.4706 60.6902 25.4594 60.6869C25.4482 60.6837 25.4366 60.6828 25.4251 60.6843C25.4136 60.6858 25.4025 60.6897 25.3924 60.6957Z" fill="#0C478B"/>
<path d="M116.777 8.67781V23.6095C116.777 23.6339 116.787 23.6572 116.803 23.6745C116.819 23.6917 116.841 23.7014 116.865 23.7014C116.888 23.7014 116.91 23.6917 116.926 23.6745C116.943 23.6572 116.952 23.6339 116.952 23.6095V8.67781C116.952 8.65345 116.943 8.63008 116.926 8.61285C116.91 8.59562 116.888 8.58594 116.865 8.58594C116.841 8.58594 116.819 8.59562 116.803 8.61285C116.787 8.63008 116.777 8.65345 116.777 8.67781Z" fill="#0C478B"/>
<path d="M130.019 16.1401V1.25984C130.019 1.23548 130.01 1.21211 129.994 1.19488C129.977 1.17765 129.955 1.16797 129.932 1.16797C129.909 1.16797 129.887 1.17765 129.87 1.19488C129.854 1.21211 129.845 1.23548 129.845 1.25984V16.1401C129.845 16.1645 129.854 16.1878 129.87 16.2051C129.887 16.2223 129.909 16.232 129.932 16.232C129.955 16.232 129.977 16.2223 129.994 16.2051C130.01 16.1878 130.019 16.1645 130.019 16.1401Z" fill="#0C478B"/>
<path d="M116.911 23.651L128.376 17.1278L129.977 16.2164C130.074 16.1613 129.977 16.0032 129.89 16.0584L118.424 22.5816L116.824 23.493C116.806 23.5064 116.794 23.5261 116.789 23.5483C116.785 23.5706 116.789 23.5938 116.799 23.6135C116.81 23.6331 116.828 23.6479 116.848 23.6548C116.869 23.6617 116.891 23.6604 116.911 23.651Z" fill="#0C478B"/>
<path d="M103.896 16.1403V1.26375C103.896 1.23938 103.887 1.21601 103.871 1.19878C103.854 1.18155 103.832 1.17188 103.809 1.17188C103.786 1.17188 103.764 1.18155 103.747 1.19878C103.731 1.21601 103.722 1.23938 103.722 1.26375V16.1403C103.722 16.1647 103.731 16.1881 103.747 16.2053C103.764 16.2225 103.786 16.2322 103.809 16.2322C103.832 16.2322 103.854 16.2225 103.871 16.2053C103.887 16.1881 103.896 16.1647 103.896 16.1403Z" fill="#0C478B"/>
<path d="M116.918 23.4969L105.456 16.9737L103.852 16.0623C103.754 16.0072 103.667 16.1652 103.764 16.2203L115.244 22.7435L116.848 23.6549C116.946 23.7137 117.033 23.552 116.935 23.4969H116.918Z" fill="#0C478B"/>
<path d="M130.019 16.1403V1.26375C130.019 1.23938 130.01 1.21601 129.994 1.19878C129.977 1.18155 129.955 1.17188 129.932 1.17188C129.909 1.17188 129.887 1.18155 129.87 1.19878C129.854 1.21601 129.845 1.23938 129.845 1.26375V16.1403C129.845 16.1647 129.854 16.1881 129.87 16.2053C129.887 16.2225 129.909 16.2322 129.932 16.2322C129.955 16.2322 129.977 16.2225 129.994 16.2053C130.01 16.1881 130.019 16.1647 130.019 16.1403Z" fill="#0C478B"/>
<path d="M143.042 23.4969L131.577 16.9737L129.976 16.0623C129.879 16.0072 129.788 16.1652 129.889 16.2203L141.351 22.7435L142.952 23.6549C143.053 23.7137 143.14 23.552 143.042 23.4969Z" fill="#0C478B"/>
<path d="M90.6592 8.67781V23.6095C90.6592 23.6339 90.6684 23.6572 90.6847 23.6745C90.7011 23.6917 90.7232 23.7014 90.7464 23.7014C90.7695 23.7014 90.7917 23.6917 90.808 23.6745C90.8243 23.6572 90.8335 23.6339 90.8335 23.6095V8.67781C90.8335 8.65345 90.8243 8.63008 90.808 8.61285C90.7917 8.59562 90.7695 8.58594 90.7464 8.58594C90.7232 8.58594 90.7011 8.59562 90.6847 8.61285C90.6684 8.63008 90.6592 8.65345 90.6592 8.67781Z" fill="#0C478B"/>
<path d="M103.896 16.1401V1.25984C103.896 1.23548 103.887 1.21211 103.871 1.19488C103.854 1.17765 103.832 1.16797 103.809 1.16797C103.786 1.16797 103.764 1.17765 103.747 1.19488C103.731 1.21211 103.722 1.23548 103.722 1.25984V16.1401C103.722 16.1645 103.731 16.1878 103.747 16.2051C103.764 16.2223 103.786 16.232 103.809 16.232C103.832 16.232 103.854 16.2223 103.871 16.2051C103.887 16.1878 103.896 16.1645 103.896 16.1401Z" fill="#0C478B"/>
<path d="M90.7891 23.651L102.251 17.1278L103.855 16.2164C103.953 16.1613 103.855 16.0032 103.768 16.0584L92.3025 22.5816L90.7019 23.493C90.6845 23.5064 90.6723 23.5261 90.6679 23.5483C90.6634 23.5706 90.667 23.5938 90.6778 23.6135C90.6887 23.6331 90.7061 23.6479 90.7266 23.6548C90.7472 23.6617 90.7694 23.6604 90.7891 23.651Z" fill="#0C478B"/>
<path d="M77.7725 16.1403V1.26375C77.7725 1.23938 77.7633 1.21601 77.747 1.19878C77.7306 1.18155 77.7084 1.17188 77.6853 1.17188C77.6622 1.17188 77.64 1.18155 77.6237 1.19878C77.6073 1.21601 77.5981 1.23938 77.5981 1.26375V16.1403C77.5981 16.1647 77.6073 16.1881 77.6237 16.2053C77.64 16.2225 77.6622 16.2322 77.6853 16.2322C77.7084 16.2322 77.7306 16.2225 77.747 16.2053C77.7633 16.1881 77.7725 16.1647 77.7725 16.1403Z" fill="#0C478B"/>
<path d="M90.7928 23.4969L79.3238 16.9737L77.7197 16.0623C77.6221 16.0072 77.5349 16.1652 77.6326 16.2203L89.0876 22.7435L90.6917 23.6549C90.7893 23.7137 90.8765 23.552 90.7789 23.4969H90.7928Z" fill="#0C478B"/>
</g>
</svg>
