<svg width="266" height="265" viewBox="0 0 266 265" fill="none" xmlns="http://www.w3.org/2000/svg">
<rect x="133.379" width="187.383" height="187.383" rx="30.8184" transform="rotate(45 133.379 0)" fill="#D9D9D9"/>
<path d="M116.048 85.3162L109.166 56.3688L112.41 54.7369C112.41 54.7369 132.463 59.0968 148.701 53.0001L155.63 55.5244L149.185 86.7029L116.048 85.3162Z" fill="#FDCE25"/>
<path d="M152.564 54.821L155.592 55.7123L155.63 55.5244L148.701 53.0001C132.463 59.0967 112.41 54.7369 112.41 54.7369L109.166 56.3687L109.27 56.8046C115.055 57.6353 135.509 59.9974 152.564 54.821Z" fill="#0C478B"/>
<path d="M93.0507 93.1447L81.229 93.6477C81.229 93.6477 79.9682 95.8295 83.3633 99.243C86.7591 102.656 102.268 110.257 102.598 108.761C102.928 107.266 101.426 101.928 100.113 100.608C98.8002 99.2888 93.0507 93.1447 93.0507 93.1447Z" fill="#0C478B"/>
<path d="M81.2305 93.6479C81.2305 93.6479 100.21 101.638 102.6 108.761L105.214 96.9243L106.761 73.1095L94.7009 63.647L81.2305 93.6479Z" fill="white"/>
<path d="M183.743 91.2812C184.405 93.2354 165.922 109.352 162.715 108.03C162.715 108.03 162.857 104.676 164.035 101.049C165.212 97.4227 177.758 90.9809 183.743 91.2812Z" fill="#0C478B"/>
<path d="M169.998 60.7569L183.743 91.2811C183.743 91.2811 164.453 97.5421 162.714 108.03L160.602 97.3701V78.0955L169.998 60.7569Z" fill="white"/>
<path d="M94.7012 63.6469C94.7012 63.6469 105.348 88.5943 105.348 94.8553C105.348 101.116 101.329 152.689 98.0692 167.378C98.0692 167.378 141.748 176.586 165.869 168.64C165.869 168.64 157.995 120.998 160.603 97.3703C160.746 96.0743 169.998 60.7572 169.998 60.7572L148.849 53.0538C148.849 53.0538 144.035 71.2077 129.585 71.2077C118.039 71.2077 111.956 54.9664 111.956 54.9664L94.7012 63.6469Z" fill="#E9660B"/>
<path d="M130.798 171.584C114.12 170.64 99.449 167.663 98.161 167.397C98.1605 167.397 98.1605 167.397 98.1599 167.397C98.1577 167.396 98.1561 167.396 98.1545 167.395C98.1534 167.395 98.1523 167.395 98.1518 167.394C98.1376 167.392 98.1257 167.39 98.1154 167.387C98.1121 167.386 98.1088 167.386 98.1061 167.385C98.1007 167.384 98.0958 167.383 98.0915 167.382C98.0909 167.382 98.0904 167.382 98.0898 167.382C98.0877 167.381 98.0855 167.381 98.0833 167.38H98.0828C98.0822 167.38 98.0817 167.38 98.0817 167.38C98.0806 167.38 98.0795 167.38 98.079 167.38C98.0779 167.379 98.0773 167.379 98.0763 167.379C98.0763 167.379 98.0757 167.379 98.0752 167.379C98.0741 167.379 98.0735 167.379 98.0724 167.378C98.0719 167.378 98.0719 167.378 98.0714 167.378H98.0708C98.0703 167.377 98.0703 167.378 98.0703 167.378C98.0697 167.378 98.0697 167.378 98.0697 167.378C98.0692 167.378 98.0692 167.378 98.0692 167.378C101.329 152.688 105.348 101.116 105.348 94.8552C105.348 88.5941 94.7012 63.6467 94.7012 63.6467L103.713 59.1131C103.638 69.8493 104.473 101.805 116.593 113.989C131.26 128.735 111.249 125.39 109.167 134.026C107.086 142.662 121.246 149.215 128.018 158.5C131.038 162.639 131.362 167.483 130.798 171.584Z" fill="#C0560D"/>
<path d="M129.812 73.6655C140.432 73.6655 147.766 60.6841 150.906 53.8038L148.702 53.0004C148.702 53.0004 143.796 70.4788 129.345 70.4788C117.8 70.4788 112.411 54.7372 112.411 54.7372L109.971 55.9649C113.676 62.3002 121.483 73.6655 129.812 73.6655Z" fill="#0C478B"/>
</svg>
