<svg width="266" height="265" viewBox="0 0 266 265" fill="none" xmlns="http://www.w3.org/2000/svg">
<rect x="133.379" width="187.383" height="187.383" rx="30.8184" transform="rotate(45 133.379 0)" fill="#D9D9D9"/>
<path d="M116.049 85.3164L109.167 56.369L112.411 54.7371C112.411 54.7371 132.464 59.097 148.702 53.0004L155.631 55.5247L149.186 86.7031L116.049 85.3164Z" fill="#FDCE25"/>
<path d="M152.565 54.8217L155.593 55.713L155.631 55.5251L148.702 53.0008C132.464 59.0975 112.411 54.7376 112.411 54.7376L109.167 56.3695L109.271 56.8053C115.056 57.636 135.51 59.9981 152.565 54.8217Z" fill="#0C478B"/>
<path d="M93.0507 93.144L81.229 93.647C81.229 93.647 79.9682 95.8288 83.3633 99.2422C86.7591 102.656 102.268 110.256 102.598 108.76C102.928 107.265 101.426 101.928 100.113 100.608C98.8002 99.2881 93.0507 93.144 93.0507 93.144Z" fill="#0C478B"/>
<path d="M81.2295 93.6482C81.2295 93.6482 100.209 101.638 102.599 108.762L105.213 96.9245L106.76 73.1098L94.6999 63.6472L81.2295 93.6482Z" fill="white"/>
<path d="M183.743 91.2817C184.405 93.2358 165.922 109.353 162.715 108.03C162.715 108.03 162.857 104.676 164.035 101.05C165.212 97.4232 177.758 90.9813 183.743 91.2817Z" fill="#0C478B"/>
<path d="M169.998 60.7564L183.743 91.2806C183.743 91.2806 164.453 97.5416 162.714 108.029L160.602 97.3696V78.095L169.998 60.7564Z" fill="white"/>
<path d="M94.7002 63.6461C94.7002 63.6461 105.347 88.5936 105.347 94.8546C105.347 101.116 101.328 152.688 98.0682 167.377C98.0682 167.377 141.747 176.586 165.868 168.64C165.868 168.64 157.994 120.997 160.602 97.3696C160.745 96.0736 169.997 60.7565 169.997 60.7565L148.848 53.053C148.848 53.053 144.034 71.207 129.584 71.207C118.038 71.207 111.955 54.9657 111.955 54.9657L94.7002 63.6461Z" fill="#E9660B"/>
<path d="M130.797 171.584C114.119 170.639 99.448 167.663 98.16 167.396C98.1595 167.396 98.1595 167.396 98.1589 167.396C98.1568 167.396 98.1551 167.395 98.1535 167.394C98.1524 167.394 98.1513 167.394 98.1508 167.394C98.1367 167.391 98.1247 167.389 98.1144 167.387C98.1111 167.386 98.1079 167.385 98.1052 167.385C98.0997 167.384 98.0948 167.382 98.0905 167.382C98.0899 167.381 98.0894 167.381 98.0889 167.381C98.0867 167.381 98.0845 167.38 98.0823 167.38H98.0818C98.0812 167.38 98.0807 167.38 98.0807 167.38C98.0796 167.379 98.0785 167.379 98.078 167.379C98.0769 167.379 98.0764 167.379 98.0753 167.379C98.0753 167.379 98.0747 167.378 98.0742 167.378C98.0731 167.378 98.0726 167.378 98.0715 167.378C98.0709 167.378 98.0709 167.378 98.0704 167.378H98.0698C98.0693 167.377 98.0693 167.377 98.0693 167.377C98.0687 167.377 98.0688 167.377 98.0688 167.377C98.0682 167.377 98.0682 167.377 98.0682 167.377C101.328 152.688 105.347 101.116 105.347 94.8547C105.347 88.5936 94.7002 63.6462 94.7002 63.6462L103.712 59.1126C103.637 69.8488 104.472 101.804 116.592 113.988C131.259 128.734 111.248 125.389 109.166 134.025C107.085 142.661 121.245 149.215 128.017 158.499C131.037 162.638 131.361 167.483 130.797 171.584Z" fill="#C0560D"/>
<path d="M129.811 73.666C140.431 73.666 147.765 60.6846 150.905 53.8043L148.701 53.0009C148.701 53.0009 143.795 70.4792 129.344 70.4792C117.799 70.4792 112.41 54.7376 112.41 54.7376L109.97 55.9654C113.675 62.3007 121.482 73.666 129.811 73.666Z" fill="#0C478B"/>
</svg>
