<svg width="266" height="265" viewBox="0 0 266 265" fill="none" xmlns="http://www.w3.org/2000/svg">
<rect x="133" width="187.383" height="187.383" rx="30.8184" transform="rotate(45 133 0)" fill="#D9D9D9"/>
<path d="M169.388 154.169L168.484 154.701C168.144 154.392 167.748 154.1 167.287 153.833L126.726 130.416C122.774 128.134 115.806 128.423 111.242 131.058L99.0391 138.103C98.0576 138.67 97.2757 139.303 96.6738 139.967L95.8264 139.435C95.8264 139.435 94.0731 142.019 95.6742 144.832L95.701 144.869C96.1264 145.679 96.8583 146.426 97.9277 147.043L138.488 170.46C142.44 172.743 149.408 172.454 153.972 169.819L166.175 162.774C167.651 161.921 168.695 160.923 169.308 159.886L169.338 159.846C171.173 156.721 169.388 154.169 169.388 154.169Z" fill="#838383"/>
<path d="M138.488 168.772L97.928 145.355C93.9755 143.072 94.476 139.049 99.0398 136.414L111.242 129.369C115.806 126.734 122.775 126.445 126.727 128.728L167.287 152.145C171.24 154.427 170.74 158.45 166.176 161.085L153.973 168.13C149.409 170.765 142.441 171.054 138.488 168.772Z" fill="#D9D9D9"/>
<path d="M107.667 141.277C105.249 141.277 103.289 140.234 103.289 138.948V142.021C103.289 143.307 105.249 144.35 107.667 144.35C110.084 144.35 112.044 143.307 112.044 142.021V138.948C112.044 140.234 110.084 141.277 107.667 141.277Z" fill="#399EE2"/>
<path d="M107.667 136.62C105.249 136.62 103.289 137.662 103.289 138.948C103.289 140.234 105.249 141.277 107.667 141.277C110.084 141.277 112.044 140.234 112.044 138.948C112.044 137.662 110.084 136.62 107.667 136.62Z" fill="#65B6F8"/>
<path d="M107.667 146.036C104.318 146.036 101.604 144.592 101.604 142.811V138.554C101.604 139.42 102.245 140.206 103.289 140.786V142.021C103.289 143.307 105.249 144.35 107.667 144.35C110.085 144.35 112.045 143.307 112.045 142.021V140.786C113.089 140.206 113.731 139.42 113.731 138.554V142.811C113.731 144.592 111.016 146.036 107.667 146.036Z" fill="#E2DEE2"/>
<path d="M107.667 144.35C105.249 144.35 103.289 143.307 103.289 142.021V140.786C104.393 141.398 105.946 141.779 107.667 141.779C109.387 141.779 110.941 141.398 112.044 140.786V142.021C112.044 143.307 110.084 144.35 107.667 144.35Z" fill="#838383"/>
<path d="M112.045 140.786V138.948C112.045 137.662 110.085 136.619 107.667 136.619C105.249 136.619 103.289 137.662 103.289 138.948V140.786C102.245 140.206 101.604 139.42 101.604 138.554C101.604 136.772 104.318 135.328 107.667 135.328C111.016 135.328 113.731 136.772 113.731 138.554C113.731 139.42 113.089 140.206 112.045 140.786Z" fill="#EFE4E2"/>
<path d="M107.667 141.779C105.946 141.779 104.393 141.398 103.289 140.786V138.948C103.289 140.234 105.249 141.277 107.667 141.277C110.084 141.277 112.044 140.234 112.044 138.948V140.786C110.941 141.398 109.387 141.779 107.667 141.779Z" fill="white"/>
<path d="M107.667 141.277C105.249 141.277 103.289 140.234 103.289 138.948C103.289 137.662 105.249 136.62 107.667 136.62C110.084 136.62 112.044 137.662 112.044 138.948C112.044 140.234 110.084 141.277 107.667 141.277Z" fill="#F5F5F5"/>
<path d="M119.794 134.198C117.376 134.198 115.416 133.155 115.416 131.869V134.942C115.416 136.228 117.376 137.271 119.794 137.271C122.212 137.271 124.172 136.228 124.172 134.942V131.869C124.172 133.155 122.212 134.198 119.794 134.198Z" fill="#399EE2"/>
<path d="M119.794 129.54C117.376 129.54 115.416 130.583 115.416 131.869C115.416 133.155 117.376 134.198 119.794 134.198C122.212 134.198 124.172 133.155 124.172 131.869C124.172 130.583 122.212 129.54 119.794 129.54Z" fill="#65B6F8"/>
<path d="M119.794 138.957C116.445 138.957 113.73 137.512 113.73 135.731V131.474C113.73 132.34 114.372 133.127 115.416 133.706V134.942C115.416 136.228 117.377 137.27 119.794 137.27C122.212 137.27 124.172 136.228 124.172 134.942V133.706C125.216 133.127 125.858 132.34 125.858 131.474V135.731C125.858 137.512 123.143 138.957 119.794 138.957Z" fill="#E2DEE2"/>
<path d="M119.794 137.271C117.376 137.271 115.416 136.228 115.416 134.942V133.707C116.52 134.319 118.073 134.7 119.794 134.7C121.515 134.7 123.068 134.319 124.172 133.707V134.942C124.172 136.228 122.212 137.271 119.794 137.271Z" fill="#838383"/>
<path d="M115.416 133.707C114.372 133.127 113.73 132.341 113.73 131.475C113.73 129.693 116.445 128.249 119.794 128.249C123.143 128.249 125.858 129.693 125.858 131.475C125.858 132.341 125.216 133.127 124.172 133.707V131.869C124.172 130.583 122.212 129.54 119.794 129.54C117.377 129.54 115.416 130.583 115.416 131.869V133.707Z" fill="#EFE4E2"/>
<path d="M119.794 134.7C118.073 134.7 116.52 134.319 115.416 133.707V131.869C115.416 133.155 117.376 134.198 119.794 134.198C122.212 134.198 124.172 133.155 124.172 131.869V133.707C123.068 134.319 121.515 134.7 119.794 134.7Z" fill="white"/>
<path d="M119.794 134.198C117.376 134.198 115.416 133.155 115.416 131.869C115.416 130.583 117.376 129.54 119.794 129.54C122.212 129.54 124.172 130.583 124.172 131.869C124.172 133.155 122.212 134.198 119.794 134.198Z" fill="#F5F5F5"/>
<path d="M120.479 148.484C118.062 148.484 116.102 147.441 116.102 146.155V149.228C116.102 150.514 118.062 151.557 120.479 151.557C122.897 151.557 124.857 150.514 124.857 149.228V146.155C124.857 147.441 122.897 148.484 120.479 148.484Z" fill="#399EE2"/>
<path d="M120.479 143.827C118.062 143.827 116.102 144.869 116.102 146.155C116.102 147.441 118.062 148.484 120.479 148.484C122.897 148.484 124.857 147.441 124.857 146.155C124.857 144.869 122.897 143.827 120.479 143.827Z" fill="#65B6F8"/>
<path d="M120.478 153.243C117.129 153.243 114.414 151.799 114.414 150.018V145.761C114.414 146.627 115.056 147.413 116.1 147.993V149.228C116.1 150.514 118.06 151.557 120.478 151.557C122.896 151.557 124.856 150.514 124.856 149.228V147.993C125.9 147.413 126.542 146.627 126.542 145.761V150.018C126.542 151.799 123.827 153.243 120.478 153.243Z" fill="#E2DEE2"/>
<path d="M120.479 151.557C118.062 151.557 116.102 150.514 116.102 149.228V147.993C117.205 148.605 118.759 148.986 120.479 148.986C122.2 148.986 123.753 148.605 124.857 147.993V149.228C124.857 150.514 122.897 151.557 120.479 151.557Z" fill="#838383"/>
<path d="M124.856 147.993V146.155C124.856 144.869 122.896 143.827 120.478 143.827C118.06 143.827 116.1 144.869 116.1 146.155V147.993C115.056 147.413 114.414 146.627 114.414 145.761C114.414 143.98 117.129 142.536 120.478 142.536C123.827 142.536 126.542 143.98 126.542 145.761C126.542 146.627 125.9 147.413 124.856 147.993Z" fill="#EFE4E2"/>
<path d="M120.479 148.987C118.759 148.987 117.205 148.605 116.102 147.993V146.155C116.102 147.442 118.062 148.484 120.479 148.484C122.897 148.484 124.857 147.442 124.857 146.155V147.993C123.753 148.605 122.2 148.987 120.479 148.987Z" fill="white"/>
<path d="M120.479 148.484C118.062 148.484 116.102 147.441 116.102 146.155C116.102 144.869 118.062 143.827 120.479 143.827C122.897 143.827 124.857 144.869 124.857 146.155C124.857 147.441 122.897 148.484 120.479 148.484Z" fill="#F5F5F5"/>
<path d="M132.606 141.404C130.188 141.404 128.229 140.362 128.229 139.076V142.149C128.229 143.435 130.188 144.478 132.606 144.478C135.024 144.478 136.984 143.435 136.984 142.149V139.076C136.984 140.362 135.024 141.404 132.606 141.404Z" fill="#399EE2"/>
<path d="M132.606 136.748C130.188 136.748 128.229 137.79 128.229 139.076C128.229 140.362 130.188 141.405 132.606 141.405C135.024 141.405 136.984 140.362 136.984 139.076C136.984 137.79 135.024 136.748 132.606 136.748Z" fill="#65B6F8"/>
<path d="M132.607 146.164C129.258 146.164 126.543 144.72 126.543 142.938V138.682C126.543 139.548 127.185 140.334 128.229 140.914V142.149C128.229 143.435 130.189 144.478 132.607 144.478C135.025 144.478 136.985 143.435 136.985 142.149V140.914C138.029 140.334 138.671 139.548 138.671 138.682V142.938C138.671 144.72 135.956 146.164 132.607 146.164Z" fill="#E2DEE2"/>
<path d="M132.606 144.478C130.188 144.478 128.229 143.435 128.229 142.149V140.913C129.332 141.526 130.886 141.907 132.607 141.907C134.327 141.907 135.88 141.526 136.984 140.914V142.149C136.984 143.435 135.024 144.478 132.606 144.478Z" fill="#838383"/>
<path d="M136.985 140.914V139.076C136.985 137.79 135.025 136.748 132.607 136.748C130.189 136.748 128.229 137.79 128.229 139.076V140.913C127.185 140.334 126.543 139.548 126.543 138.682C126.543 136.9 129.258 135.456 132.607 135.456C135.956 135.456 138.671 136.9 138.671 138.682C138.671 139.548 138.029 140.334 136.985 140.914Z" fill="#EFE4E2"/>
<path d="M132.607 141.907C130.886 141.907 129.332 141.526 128.229 140.914V139.076C128.229 140.362 130.188 141.405 132.606 141.405C135.024 141.405 136.984 140.362 136.984 139.076V140.914C135.88 141.526 134.327 141.907 132.607 141.907Z" fill="white"/>
<path d="M132.606 141.405C130.188 141.405 128.229 140.362 128.229 139.076C128.229 137.79 130.188 136.748 132.606 136.748C135.024 136.748 136.984 137.79 136.984 139.076C136.984 140.362 135.024 141.405 132.606 141.405Z" fill="#F5F5F5"/>
<path d="M133.292 155.691C130.874 155.691 128.914 154.648 128.914 153.363V156.436C128.914 157.721 130.874 158.764 133.292 158.764C135.709 158.764 137.669 157.721 137.669 156.436V153.363C137.669 154.648 135.709 155.691 133.292 155.691Z" fill="#399EE2"/>
<path d="M133.292 151.034C130.874 151.034 128.914 152.076 128.914 153.362C128.914 154.648 130.874 155.691 133.292 155.691C135.709 155.691 137.669 154.648 137.669 153.362C137.669 152.076 135.709 151.034 133.292 151.034Z" fill="#65B6F8"/>
<path d="M133.291 160.45C129.941 160.45 127.227 159.006 127.227 157.225V152.968C127.227 153.834 127.868 154.621 128.912 155.2V156.436C128.912 157.721 130.872 158.764 133.29 158.764C135.708 158.764 137.668 157.721 137.668 156.436V155.2C138.712 154.621 139.354 153.834 139.354 152.968V157.225C139.354 159.006 136.639 160.45 133.291 160.45Z" fill="#E2DEE2"/>
<path d="M133.292 158.764C130.874 158.764 128.914 157.721 128.914 156.436V155.2C130.018 155.812 131.571 156.194 133.292 156.194C135.012 156.194 136.566 155.812 137.669 155.2V156.436C137.669 157.721 135.709 158.764 133.292 158.764Z" fill="#838383"/>
<path d="M137.668 155.2V153.363C137.668 152.076 135.708 151.034 133.29 151.034C130.872 151.034 128.912 152.076 128.912 153.363V155.2C127.868 154.621 127.227 153.834 127.227 152.968C127.227 151.187 129.941 149.743 133.291 149.743C136.639 149.743 139.354 151.187 139.354 152.968C139.354 153.834 138.712 154.621 137.668 155.2Z" fill="#EFE4E2"/>
<path d="M133.292 156.194C131.571 156.194 130.018 155.812 128.914 155.2V153.363C128.914 154.648 130.874 155.691 133.292 155.691C135.709 155.691 137.669 154.648 137.669 153.363V155.2C136.566 155.812 135.012 156.194 133.292 156.194Z" fill="white"/>
<path d="M133.292 155.691C130.874 155.691 128.914 154.648 128.914 153.362C128.914 152.076 130.874 151.034 133.292 151.034C135.709 151.034 137.669 152.076 137.669 153.362C137.669 154.648 135.709 155.691 133.292 155.691Z" fill="#F5F5F5"/>
<path d="M145.421 148.612C143.003 148.612 141.043 147.569 141.043 146.283V149.357C141.043 150.642 143.003 151.685 145.421 151.685C147.839 151.685 149.798 150.642 149.798 149.357V146.283C149.798 147.569 147.839 148.612 145.421 148.612Z" fill="#399EE2"/>
<path d="M145.421 143.955C143.003 143.955 141.043 144.997 141.043 146.283C141.043 147.569 143.003 148.612 145.421 148.612C147.839 148.612 149.798 147.569 149.798 146.283C149.798 144.997 147.839 143.955 145.421 143.955Z" fill="#65B6F8"/>
<path d="M145.419 153.371C142.07 153.371 139.355 151.927 139.355 150.146V145.889C139.355 146.755 139.997 147.541 141.041 148.121V149.357C141.041 150.642 143.002 151.685 145.419 151.685C147.837 151.685 149.797 150.642 149.797 149.357V148.121C150.841 147.541 151.483 146.755 151.483 145.889V150.146C151.483 151.927 148.768 153.371 145.419 153.371Z" fill="#E2DEE2"/>
<path d="M145.421 151.685C143.003 151.685 141.043 150.642 141.043 149.357V148.121C142.147 148.733 143.7 149.115 145.421 149.115C147.142 149.115 148.695 148.733 149.798 148.121V149.357C149.798 150.642 147.839 151.685 145.421 151.685Z" fill="#838383"/>
<path d="M149.797 148.121V146.284C149.797 144.997 147.837 143.955 145.419 143.955C143.002 143.955 141.041 144.997 141.041 146.284V148.121C139.997 147.542 139.355 146.755 139.355 145.889C139.355 144.108 142.07 142.664 145.419 142.664C148.768 142.664 151.483 144.108 151.483 145.889C151.483 146.755 150.841 147.542 149.797 148.121Z" fill="#EFE4E2"/>
<path d="M145.421 149.115C143.7 149.115 142.147 148.733 141.043 148.121V146.283C141.043 147.569 143.003 148.612 145.421 148.612C147.839 148.612 149.798 147.569 149.798 146.283V148.121C148.695 148.733 147.142 149.115 145.421 149.115Z" fill="white"/>
<path d="M145.421 148.612C143.003 148.612 141.043 147.569 141.043 146.283C141.043 144.997 143.003 143.955 145.421 143.955C147.839 143.955 149.798 144.997 149.798 146.283C149.798 147.569 147.839 148.612 145.421 148.612Z" fill="#F5F5F5"/>
<path d="M146.104 162.899C143.687 162.899 141.727 161.856 141.727 160.57V163.643C141.727 164.929 143.687 165.972 146.104 165.972C148.522 165.972 150.482 164.929 150.482 163.643V160.57C150.482 161.856 148.522 162.899 146.104 162.899Z" fill="#399EE2"/>
<path d="M146.104 158.241C143.687 158.241 141.727 159.284 141.727 160.57C141.727 161.856 143.687 162.898 146.104 162.898C148.522 162.898 150.482 161.856 150.482 160.57C150.482 159.284 148.522 158.241 146.104 158.241Z" fill="#65B6F8"/>
<path d="M146.103 167.658C142.754 167.658 140.039 166.213 140.039 164.432V160.175C140.039 161.042 140.681 161.828 141.725 162.407V163.643C141.725 164.929 143.685 165.972 146.103 165.972C148.521 165.972 150.481 164.929 150.481 163.643V162.407C151.525 161.828 152.167 161.042 152.167 160.175V164.432C152.167 166.213 149.452 167.658 146.103 167.658Z" fill="#E2DEE2"/>
<path d="M146.104 165.972C143.687 165.972 141.727 164.929 141.727 163.643V162.407C142.83 163.02 144.384 163.401 146.104 163.401C147.825 163.401 149.378 163.02 150.482 162.407V163.643C150.482 164.929 148.522 165.972 146.104 165.972Z" fill="#838383"/>
<path d="M141.725 162.407C140.681 161.828 140.039 161.042 140.039 160.175C140.039 158.394 142.754 156.95 146.103 156.95C149.452 156.95 152.167 158.394 152.167 160.175C152.167 161.042 151.525 161.828 150.481 162.407V160.57C150.481 159.284 148.521 158.241 146.103 158.241C143.685 158.241 141.725 159.284 141.725 160.57V162.407Z" fill="#EFE4E2"/>
<path d="M146.104 163.401C144.384 163.401 142.83 163.02 141.727 162.407V160.57C141.727 161.856 143.687 162.898 146.104 162.898C148.522 162.898 150.482 161.856 150.482 160.57V162.407C149.378 163.02 147.825 163.401 146.104 163.401Z" fill="white"/>
<path d="M146.104 162.898C143.687 162.898 141.727 161.856 141.727 160.57C141.727 159.284 143.687 158.241 146.104 158.241C148.522 158.241 150.482 159.284 150.482 160.57C150.482 161.856 148.522 162.898 146.104 162.898Z" fill="#F5F5F5"/>
<path d="M158.233 155.819C155.815 155.819 153.855 154.777 153.855 153.491V156.564C153.855 157.849 155.815 158.893 158.233 158.893C160.651 158.893 162.611 157.849 162.611 156.564V153.491C162.611 154.777 160.651 155.819 158.233 155.819Z" fill="#399EE2"/>
<path d="M158.233 151.162C155.815 151.162 153.855 152.204 153.855 153.49C153.855 154.776 155.815 155.819 158.233 155.819C160.651 155.819 162.611 154.776 162.611 153.49C162.611 152.204 160.651 151.162 158.233 151.162Z" fill="#65B6F8"/>
<path d="M158.232 160.579C154.883 160.579 152.168 159.134 152.168 157.353V153.096C152.168 153.962 152.81 154.749 153.854 155.328V156.564C153.854 157.849 155.814 158.892 158.232 158.892C160.65 158.892 162.61 157.849 162.61 156.564V155.328C163.654 154.749 164.296 153.962 164.296 153.096V157.353C164.296 159.134 161.581 160.579 158.232 160.579Z" fill="#E2DEE2"/>
<path d="M158.233 158.893C155.815 158.893 153.855 157.849 153.855 156.564V155.328C154.959 155.941 156.512 156.322 158.233 156.322C159.954 156.322 161.507 155.941 162.611 155.328V156.564C162.611 157.849 160.651 158.893 158.233 158.893Z" fill="#838383"/>
<path d="M153.854 155.328C152.81 154.749 152.168 153.962 152.168 153.096C152.168 151.315 154.883 149.871 158.232 149.871C161.581 149.871 164.296 151.315 164.296 153.096C164.296 153.962 163.654 154.749 162.61 155.328V153.49C162.61 152.204 160.65 151.162 158.232 151.162C155.814 151.162 153.854 152.204 153.854 153.49V155.328Z" fill="#EFE4E2"/>
<path d="M158.233 156.322C156.512 156.322 154.959 155.94 153.855 155.328V153.49C153.855 154.777 155.815 155.819 158.233 155.819C160.651 155.819 162.611 154.777 162.611 153.49V155.328C161.507 155.94 159.954 156.322 158.233 156.322Z" fill="white"/>
<path d="M158.233 155.819C155.815 155.819 153.855 154.776 153.855 153.49C153.855 152.204 155.815 151.162 158.233 151.162C160.651 151.162 162.611 152.204 162.611 153.49C162.611 154.776 160.651 155.819 158.233 155.819Z" fill="#F5F5F5"/>
<path d="M153.09 123.848C147.301 123.848 142.609 126.343 142.609 129.422C142.609 132.501 147.301 134.997 153.09 134.997C158.878 134.997 163.57 132.501 163.57 129.422C163.57 126.343 158.878 123.848 153.09 123.848Z" fill="#838383"/>
<path d="M140.152 97.8604V125.96C140.152 129.76 145.945 132.842 153.089 132.842C160.235 132.842 166.027 129.76 166.027 125.96V97.8604H140.152Z" fill="#E9660B"/>
<path d="M153.089 110.003C145.944 110.003 140.152 106.922 140.152 103.122V119.588C140.152 123.388 145.944 126.469 153.089 126.469C160.234 126.469 166.027 123.388 166.027 119.588V103.122C166.027 106.922 160.234 110.003 153.089 110.003Z" fill="white"/>
<path d="M166.027 97.5747C166.027 93.8038 161.309 90.2235 161.309 90.2235L159.605 91.9466C157.685 91.3468 155.477 90.9786 153.089 90.9786C150.702 90.9786 148.494 91.3468 146.574 91.9466L144.87 90.2235C144.87 90.2235 140.152 93.8038 140.152 97.5747C140.152 97.6101 140.152 97.79 140.152 97.8602C140.152 101.661 145.944 104.742 153.089 104.742C160.234 104.742 166.027 101.661 166.027 97.8602C166.027 97.79 166.027 97.6101 166.027 97.5747Z" fill="#CB5C0E"/>
<path d="M153.088 87.7157C147.822 87.7157 143.553 89.9869 143.553 92.788C143.553 95.5895 147.822 97.8604 153.088 97.8604C158.355 97.8604 162.624 95.5895 162.624 92.788C162.624 89.9869 158.355 87.7157 153.088 87.7157Z" fill="#CB5C0E"/>
<path d="M153.09 87.7158C149.459 87.7158 146.516 89.2819 146.516 91.2134C146.516 93.1449 149.459 94.7109 153.09 94.7109C156.722 94.7109 159.666 93.1449 159.666 91.2134C159.666 89.2819 156.722 87.7158 153.09 87.7158Z" fill="#FDCE25"/>
<path d="M145.033 80.2812V86.9283C145.033 87.7125 145.537 88.4072 146.229 89.0396V83.9371C146.229 83.6207 146.423 83.4741 146.66 83.6113C146.897 83.7482 147.091 84.1191 147.091 84.4348V89.7204C147.764 90.1292 148.564 90.4585 149.483 90.7082V85.5039C149.483 85.2302 149.707 85.0062 149.981 85.0062C150.255 85.0062 150.479 85.2302 150.479 85.5039V90.9329C151.224 91.0704 152.001 91.1698 152.827 91.1851V85.8119C152.827 85.5383 153.051 85.3142 153.325 85.3142C153.599 85.3142 153.823 85.5383 153.823 85.8119V91.134C154.662 91.0916 155.498 91.0381 156.242 90.8697V85.2906C156.242 85.0162 156.466 84.7922 156.74 84.7922C157.014 84.7922 157.238 85.0162 157.238 85.2906V90.5126C157.999 90.2626 158.668 89.9715 159.232 89.6047V84.4348C159.232 84.1191 159.426 83.7482 159.664 83.6113C159.901 83.4741 160.095 83.6207 160.095 83.9371V88.9243C160.707 88.32 161.144 87.6622 161.144 86.9283V80.2812H145.033Z" fill="#37474F"/>
<path d="M153.326 85.3143C153.052 85.3143 152.828 85.5383 152.828 85.812V91.1851C152.92 91.1865 152.997 91.2129 153.089 91.2129C153.35 91.2129 153.57 91.1469 153.824 91.134V85.812C153.824 85.5383 153.6 85.3143 153.326 85.3143Z" fill="#2F3D44"/>
<path d="M149.98 85.0064C149.706 85.0064 149.482 85.2304 149.482 85.5041V90.7084C149.808 90.7966 150.129 90.8685 150.478 90.9331V85.5041C150.478 85.2304 150.254 85.0064 149.98 85.0064Z" fill="#2F3D44"/>
<path d="M156.741 84.7921C156.467 84.7921 156.242 85.0162 156.242 85.2905V90.8696C156.617 90.7849 156.896 90.6258 157.238 90.5126V85.2905C157.238 85.0162 157.015 84.7921 156.741 84.7921Z" fill="#2F3D44"/>
<path d="M159.662 83.6113C159.425 83.7482 159.23 84.1191 159.23 84.4348V89.6047C159.558 89.3925 159.847 89.1671 160.093 88.9243V83.9371C160.093 83.6207 159.899 83.4741 159.662 83.6113Z" fill="#2F3D44"/>
<path d="M146.66 83.6114C146.423 83.4742 146.229 83.6207 146.229 83.9372V89.0397C146.489 89.278 146.752 89.5141 147.091 89.7205V84.4349C147.091 84.1192 146.897 83.7482 146.66 83.6114Z" fill="#2F3D44"/>
<path d="M153.088 75.9963C148.64 75.9963 145.033 77.9149 145.033 80.2812C145.033 82.6475 148.64 84.5662 153.088 84.5662C157.538 84.5662 161.144 82.6475 161.144 80.2812C161.144 77.9149 157.538 75.9963 153.088 75.9963Z" fill="#2F3D44"/>
<path d="M153.164 75.9964C149.812 75.9964 147.094 77.4423 147.094 79.2255C147.094 81.009 149.812 82.4546 153.164 82.4546C156.517 82.4546 159.234 81.009 159.234 79.2255C159.234 77.4423 156.517 75.9964 153.164 75.9964Z" fill="#2F3D44"/>
<path d="M147.667 100.659C146.711 101.683 145.853 103.23 145.518 104.026C145.192 104.801 144.564 106.383 145.186 107.167C145.697 107.809 146.415 107.341 146.68 106.75C147 106.037 147.114 105.178 147.314 104.42C147.572 103.443 148.063 101.976 148.279 100.988C148.386 100.499 148.208 100.079 147.667 100.659Z" fill="white"/>
<path d="M159.99 117.717C160.092 121.758 156.934 124.473 153.164 124.473C149.394 124.473 146.338 121.758 146.338 117.717C146.338 114.293 149.394 112.073 153.164 112.073C156.934 112.073 159.904 114.294 159.99 117.717Z" fill="#E9660B"/>
<path d="M157.434 116.383C156.53 116.636 155.564 116.797 154.58 116.881V113.716H151.751V116.89C150.769 116.814 149.803 116.661 148.893 116.418L148.406 116.288V118.988L148.693 119.065C149.671 119.326 150.696 119.491 151.751 119.57V122.83H154.58V119.559C155.641 119.473 156.668 119.3 157.642 119.027L157.925 118.949V116.246L157.434 116.383Z" fill="#EFE2E1"/>
<path d="M135.412 74.6821V113.611C135.412 118.514 127.939 122.489 118.722 122.489C109.504 122.489 102.031 118.514 102.031 113.611L102.032 74.5157L135.412 74.6821Z" fill="#0C478B"/>
<path d="M108.68 88.1535C111.481 89.2847 114.934 89.9818 118.722 89.9818C127.94 89.9818 135.413 86.007 135.413 81.1042V107.19C135.413 112.093 127.94 116.068 118.722 116.068C114.934 116.068 111.481 115.371 108.68 114.239V88.1535Z" fill="white"/>
<path d="M112.311 94.4397C114.286 94.8915 116.431 95.1708 118.722 95.1708C127.94 95.1708 135.412 91.196 135.412 86.2932V89.2742C135.412 94.1771 127.94 98.1519 118.722 98.1519C116.431 98.1519 114.286 97.8723 112.311 97.4207V94.4397Z" fill="#E9660B"/>
<path d="M102.763 72.0541L102.744 72.0468C102.744 72.0468 102.897 71.7471 103.21 71.2883C103.298 71.1681 103.378 71.0476 103.476 70.9298C104.678 69.3023 107.538 66.2882 113.176 64.7325C115.128 64.1942 116.244 64.6975 116.835 65.7398C117.462 65.7019 118.076 65.6387 118.721 65.6387C119.382 65.6387 120.008 65.7023 120.648 65.7422C121.239 64.6975 122.355 64.1938 124.31 64.7325C130.202 66.358 133.098 69.6065 134.196 71.1685C134.576 71.7082 135.411 73.6612 135.411 74.516C135.411 79.4195 127.939 83.3943 118.721 83.3943C109.504 83.3943 102.031 79.4195 102.031 74.516C102.031 73.656 102.333 72.8408 102.763 72.0541Z" fill="#0964CD"/>
<path d="M118.358 64.0251C123.319 64.0251 127.341 66.1647 127.341 68.8036C127.341 71.4426 123.319 73.5818 118.358 73.5818C113.397 73.5818 109.375 71.4426 109.375 68.8036C109.375 66.1647 113.397 64.0251 118.358 64.0251Z" fill="#399EE2"/>
<path d="M127.744 58.0118V65.5946C127.744 66.4896 127.169 67.2822 126.38 68.0036C126.083 68.2752 125.784 68.5447 125.396 68.7802C124.629 69.2467 123.716 69.6225 122.667 69.9069C122.296 70.0077 121.93 70.0896 121.531 70.1633C120.681 70.3203 119.795 70.4338 118.853 70.4508C118.748 70.4526 118.661 70.4832 118.555 70.4832C118.257 70.4832 118.007 70.4074 117.717 70.3928C116.76 70.3446 115.806 70.2834 114.957 70.0914C114.53 69.9945 114.211 69.8132 113.821 69.6843C112.953 69.3988 112.19 69.0664 111.546 68.6482C111.173 68.4062 110.843 68.1488 110.562 67.872C109.864 67.1825 109.365 66.4323 109.365 65.5946V58.0118H127.744Z" fill="#37474F"/>
<path d="M118.285 63.7535C118.598 63.7535 118.853 64.0091 118.853 64.3217V70.451C118.748 70.4527 118.661 70.4829 118.555 70.4829C118.258 70.4829 118.007 70.4075 117.717 70.393V64.3217C117.717 64.0091 117.972 63.7535 118.285 63.7535Z" fill="#2F3D44"/>
<path d="M122.099 63.402C122.412 63.402 122.667 63.6576 122.667 63.9702V69.907C122.296 70.0077 121.93 70.0897 121.531 70.1633V63.9702C121.531 63.6576 121.787 63.402 122.099 63.402Z" fill="#2F3D44"/>
<path d="M114.389 63.1584C114.701 63.1584 114.957 63.4136 114.957 63.7266V70.0913C114.53 69.9944 114.211 69.8131 113.82 69.6842V63.7266C113.82 63.4136 114.076 63.1584 114.389 63.1584Z" fill="#2F3D44"/>
<path d="M111.052 61.8108C111.323 61.9667 111.545 62.3901 111.545 62.7506V68.6482C111.171 68.4061 110.842 68.1487 110.561 67.8719V62.1824C110.561 61.8219 110.782 61.6545 111.052 61.8108Z" fill="#2F3D44"/>
<path d="M125.888 61.8109C126.159 61.6546 126.38 61.822 126.38 62.1825V68.0037C126.083 68.2753 125.784 68.5448 125.396 68.7803V62.7507C125.396 62.3902 125.618 61.9668 125.888 61.8109Z" fill="#2F3D44"/>
<path d="M118.555 53.1234C123.63 53.1234 127.745 55.3119 127.745 58.0117C127.745 60.7114 123.63 62.8999 118.555 62.8999C113.48 62.8999 109.365 60.7114 109.365 58.0117C109.365 55.3119 113.48 53.1234 118.555 53.1234Z" fill="#2F3D44"/>
<path d="M127.087 101.565C129.299 100.522 132.815 100.495 132.815 100.495L133.768 102.353C134.608 104.132 132.978 106.665 130.128 108.01C127.336 109.328 124.421 109.007 123.514 107.32L122.494 105.364C122.494 105.364 124.875 102.609 127.087 101.565Z" fill="#838383"/>
<path d="M129.177 106.152C132.027 104.807 133.657 102.274 132.817 100.494C131.977 98.7148 128.986 98.3623 126.136 99.7071C123.286 101.052 121.657 103.585 122.496 105.364C123.336 107.144 126.327 107.497 129.177 106.152Z" fill="#FDCE25"/>
<path d="M113.503 103.952C115.095 103.748 117.241 104.128 119.412 105.138C121.749 106.225 123.535 107.763 124.332 109.205L125.471 109.757L124.618 111.546C123.776 113.356 120.08 113.422 116.363 111.693C112.646 109.963 110.314 107.094 111.156 105.284L112.094 103.269L113.503 103.952Z" fill="#838383"/>
<path d="M117.3 109.678C121.017 111.407 124.713 111.341 125.555 109.531C126.397 107.721 124.066 104.852 120.349 103.123C116.632 101.394 112.936 101.459 112.094 103.269C111.252 105.08 113.583 107.949 117.3 109.678Z" fill="#FDCE25"/>
</svg>
