<svg width="410" height="660" viewBox="0 0 410 660" fill="none" xmlns="http://www.w3.org/2000/svg">
<g opacity="0.3">
<g opacity="0.1">
<path opacity="0.3" d="M122.318 202.814L95.133 218.761L67.9326 202.814V170.889L95.133 154.941L122.318 170.889V202.814Z" fill="white"/>
<path opacity="0.6" d="M93.7474 152.503L66.547 168.466L39.3467 152.503V120.593L66.547 104.631L93.7474 120.593V152.503Z" fill="white"/>
<path opacity="0.3" d="M122.318 102.191L95.133 118.153L67.9326 102.191V70.2808L95.133 54.3184L122.318 70.2808V102.191Z" fill="white"/>
<path opacity="0.1" d="M150.905 253.111L123.704 269.073L96.519 253.111V221.201L123.704 205.238L150.905 221.201V253.111Z" fill="white"/>
<path opacity="0.3" d="M179.49 404.032L152.29 419.995L125.089 404.032V372.123L152.29 356.16L179.49 372.123V404.032Z" fill="white"/>
<path opacity="0.6" d="M236.647 404.032L209.447 419.995L182.262 404.032V372.123L209.447 356.16L236.647 372.123V404.032Z" fill="white"/>
<path opacity="0.3" d="M208.061 253.111L180.876 269.073L153.676 253.111V221.201L180.876 205.238L208.061 221.201V253.111Z" fill="white"/>
<path opacity="0.6" d="M179.49 202.814L152.29 218.761L125.089 202.814V170.889L152.29 154.941L179.49 170.889V202.814Z" fill="white"/>
<path opacity="0.6" d="M179.49 303.423L152.29 319.37L125.089 303.423V271.498L152.29 255.551L179.49 271.498V303.423Z" fill="white"/>
<path opacity="0.3" d="M122.318 303.423L95.133 319.37L67.9326 303.423V271.498L95.133 255.551L122.318 271.498V303.423Z" fill="white"/>
<path opacity="0.6" d="M65.1615 303.423L37.9611 319.37L10.7607 303.423V271.498L37.9611 255.551L65.1615 271.498V303.423Z" fill="white"/>
<path opacity="0.1" d="M208.061 152.503L180.876 168.451L153.676 152.503V120.578L180.876 104.631L208.061 120.578V152.503Z" fill="white"/>
<path opacity="0.1" d="M93.7474 353.721L66.547 369.683L39.3467 353.721V321.811L66.547 305.863L93.7474 321.811V353.721Z" fill="white"/>
<path opacity="0.6" d="M65.1615 404.032L37.9611 419.995L10.7607 404.032V372.123L37.9611 356.16L65.1615 372.123V404.032Z" fill="white"/>
<path opacity="0.1" d="M150.905 51.8938L123.704 67.8412L96.519 51.8938V19.9689L123.704 4.02148L150.905 19.9689V51.8938Z" fill="white"/>
<path opacity="0.6" d="M179.49 102.191L152.29 118.153L125.089 102.191V70.2808L152.29 54.3184L179.49 70.2808V102.191Z" fill="white"/>
<path opacity="0.1" d="M208.061 353.721L180.876 369.683L153.676 353.721V321.811L180.876 305.863L208.061 321.811V353.721Z" fill="white"/>
</g>
<path d="M126.671 0H126.596L98.2964 16.5648V49.9956L126.476 66.5604V99.5395L98.2361 116.104V149.234L70.1321 165.799L41.8925 149.234L13.5776 165.799V199.094L41.8775 215.659H41.9528L70.117 199.094L98.2211 215.568V248.547L70.2074 265.112L41.9678 248.547L13.653 265.112V298.242L-14.4963 314.822L-42.7358 298.257L-71.0356 314.822V348.117L-42.7208 364.682L-14.5414 348.117L13.5475 364.682V397.646L-14.6921 414.211V447.506L13.6078 464.071L41.9226 447.506V414.376L70.1472 397.811V364.607L41.9829 348.042V315.063L70.0719 298.498L98.3114 315.063L126.611 298.498V265.368L154.7 248.879L182.804 265.368V298.332L154.565 314.897V348.192L182.729 364.757V397.887H182.804L211.104 414.452H211.179L239.479 397.887V364.607H239.404L211.24 348.042V315.063L239.344 298.498L267.583 315.063L295.898 298.498V265.203H295.823L267.523 248.638H267.448L239.283 265.203L211.179 248.728V215.749L239.63 199.184L267.869 215.749L296.184 199.184V166.055L324.273 149.49L352.513 166.055L380.813 149.49V116.104H380.737L352.588 99.3889H352.513L324.348 115.954L296.244 99.5395V66.5604L324.469 49.9956V16.7003L296.154 0.135531L267.839 16.7003V49.83L239.615 66.3948V99.69L267.779 116.255V149.234L239.69 165.799L211.45 149.234H211.375L183.075 165.799V198.928L154.971 215.403L126.822 198.943V165.964L155.062 149.4V116.27L183.301 99.7051V66.3948L155.137 49.83V16.7003L126.671 0ZM296.079 66.2592L286.711 60.7627L267.99 49.7697V16.866L296.079 0.30118L324.183 16.866V49.83L296.079 66.2592ZM295.943 99.4792L286.575 104.961L267.869 115.954L239.765 99.5395V66.5604L267.869 50.086L277.283 55.5825L296.003 66.5604L295.943 99.4792ZM324.454 149.174V116.27L352.558 99.7051L380.647 116.27V149.234L352.558 165.799L324.454 149.174ZM296.079 165.738L286.711 160.242L267.99 149.249V116.27L277.358 110.773L296.079 99.7804L324.183 116.345V149.234L296.079 165.738ZM239.75 198.958V165.979L267.854 149.415L277.222 154.911L295.943 165.904V198.883L267.854 215.358L239.75 198.958ZM211.375 215.433L201.977 209.921L183.256 198.943V165.964L211.345 149.4L239.449 165.964V198.943L211.375 215.433ZM239.75 298.347V265.368L267.854 248.879L295.943 265.368V298.332L267.854 314.822L239.75 298.347ZM183.301 364.772L192.654 359.276L211.39 348.283L239.494 364.848V397.811L211.39 414.301L183.301 397.736V364.772ZM183.151 298.513L192.519 304.009L211.255 315.002V347.981L201.887 353.463L183.151 364.456L155.062 347.981V315.002L183.151 298.513ZM183.301 265.308L192.654 259.812L211.39 248.819L239.494 265.308V298.272L211.39 314.762L201.977 309.325L183.256 298.332L183.301 265.308ZM155.062 248.578V215.599L183.151 199.124L192.519 204.621L211.255 215.599V248.578L201.887 254.074L183.151 265.052L155.062 248.578ZM13.7132 397.977L23.0812 403.474L41.8172 414.467V447.431L13.7132 463.92L-14.3607 447.431V414.467L13.7132 397.977ZM13.8638 364.848L23.2318 359.351L41.9528 348.358L70.0568 364.923V397.887L41.9678 414.211L32.5998 408.729L13.8789 397.736L13.8638 364.848ZM-14.6619 315.153V348.132L-42.7509 364.607L-70.8549 348.132V315.153L-42.7509 298.588L-14.6619 315.153ZM13.7132 298.588L23.0812 304.085L41.8172 315.078V348.057L32.4492 353.538L13.7132 364.516L-14.3607 348.042V315.063L13.7132 298.588ZM70.0568 265.383V298.347L41.9678 314.822L32.5998 309.325L13.8789 298.332V265.368L41.9678 248.879L70.0568 265.383ZM98.4319 248.894L107.8 254.39L126.536 265.383V298.347L98.447 314.822L70.3429 298.332V265.368L98.4319 248.894ZM98.5675 215.674L107.935 210.192L126.671 199.184L154.76 215.659V248.638L126.671 265.112L117.303 259.631L98.5675 248.638V215.674ZM70.0568 165.979V198.958L41.9678 215.418L13.8789 198.943V165.964L41.9678 149.4L70.0568 165.979ZM98.4319 149.415L107.8 154.911L126.536 165.904V198.883L117.168 204.365L98.4319 215.358L70.3429 198.943V165.964L98.4319 149.415ZM126.671 99.7202L136.024 105.217L154.76 116.21V149.234L126.671 165.723L117.303 160.227L98.5675 149.234V116.27L126.671 99.7202ZM126.807 66.5002L136.175 61.0187L154.896 50.0257L183 66.5002V99.4792L154.911 115.954L145.558 110.472L126.822 99.5395L126.807 66.5002ZM126.671 0.376473L154.76 16.9413V49.83L145.392 55.3265L126.671 66.2592L98.5675 49.6944V16.866L126.671 0.376473Z" fill="white"/>
<path d="M154.911 15.6621C154.618 15.6661 154.338 15.7852 154.132 15.9938C153.926 16.2023 153.811 16.4835 153.811 16.7765C153.787 16.9261 153.787 17.0786 153.811 17.2282L126.551 33.266V65.3867C126.282 65.4196 126.034 65.5494 125.854 65.7517C125.674 65.954 125.573 66.2151 125.572 66.486C125.572 66.7829 125.688 67.0679 125.897 67.2793C126.106 67.4907 126.389 67.6114 126.686 67.6154C126.859 67.6138 127.028 67.5705 127.18 67.4892C127.332 67.4079 127.462 67.291 127.56 67.1485L154.775 83.1261V115.081C154.508 115.114 154.262 115.245 154.084 115.447C153.906 115.65 153.809 115.911 153.811 116.18C153.788 116.33 153.788 116.482 153.811 116.632L126.551 132.67V164.776C126.279 164.809 126.029 164.941 125.849 165.146C125.668 165.352 125.57 165.616 125.572 165.89C125.571 166.04 125.602 166.189 125.662 166.327L98.4465 182.289L70.207 165.724L42.8409 181.777C42.7421 181.637 42.6112 181.523 42.4592 181.445C42.3072 181.366 42.1385 181.325 41.9674 181.325C41.6718 181.307 41.3812 181.407 41.1594 181.604C40.9377 181.8 40.8031 182.076 40.7851 182.372C40.7671 182.667 40.8673 182.958 41.0636 183.18C41.2599 183.401 41.5362 183.536 41.8318 183.554V215.66L69.1075 231.667C69.0474 231.805 69.0167 231.954 69.0171 232.104C69.0171 232.4 69.1346 232.683 69.3436 232.892C69.5526 233.101 69.8361 233.218 70.1316 233.218C70.4272 233.218 70.7107 233.101 70.9197 232.892C71.1288 232.683 71.2462 232.4 71.2462 232.104C71.2466 231.954 71.2159 231.805 71.1558 231.667L98.3712 215.705L125.572 231.667C125.549 231.812 125.549 231.959 125.572 232.104C125.573 232.377 125.673 232.639 125.852 232.844C126.032 233.049 126.28 233.182 126.551 233.218V265.158L99.3201 281.181C99.2203 281.041 99.0895 280.926 98.938 280.845C98.7865 280.764 98.6183 280.719 98.4465 280.714C98.2743 280.717 98.1053 280.761 97.9534 280.842C97.8014 280.923 97.671 281.039 97.573 281.181L70.207 265.113L41.8921 281.678V313.784C41.6231 313.816 41.3754 313.946 41.1952 314.149C41.015 314.351 40.9148 314.612 40.9131 314.883C40.9184 315.037 40.9489 315.19 41.0035 315.335L13.7128 331.387L-14.5118 314.823L-41.8627 330.875C-41.9633 330.737 -42.0945 330.625 -42.2462 330.546C-42.3978 330.468 -42.5656 330.426 -42.7363 330.424C-42.8839 330.424 -43.0301 330.453 -43.1663 330.51C-43.3025 330.567 -43.426 330.65 -43.5297 330.755C-43.6334 330.86 -43.7152 330.985 -43.7703 331.122C-43.8254 331.259 -43.8528 331.405 -43.8508 331.553C-43.8491 331.824 -43.7488 332.085 -43.5687 332.287C-43.3885 332.49 -43.1408 332.619 -42.8718 332.652V364.773L-14.5569 381.338L12.7488 365.315C12.8459 365.455 12.9754 365.569 13.1262 365.648C13.277 365.727 13.4447 365.768 13.6149 365.768C13.785 365.768 13.9527 365.727 14.1035 365.648C14.2543 365.569 14.3838 365.455 14.4809 365.315L41.7113 381.293V413.233C41.4424 413.266 41.1947 413.395 41.0145 413.598C40.8343 413.8 40.734 414.061 40.7324 414.332C40.7376 414.486 40.7682 414.639 40.8227 414.784L13.5923 430.867V464.162L40.8679 480.169C40.8149 480.309 40.7844 480.457 40.7776 480.606C40.7776 480.902 40.895 481.185 41.104 481.394C41.313 481.603 41.5965 481.721 41.8921 481.721C42.1877 481.721 42.4711 481.603 42.6802 481.394C42.8892 481.185 43.0066 480.902 43.0066 480.606C43.0071 480.456 42.9763 480.307 42.9162 480.169L69.2581 464.719C69.3618 464.857 69.4958 464.97 69.6499 465.048C69.8039 465.127 69.9739 465.168 70.1467 465.171C70.3192 465.169 70.4887 465.126 70.6408 465.045C70.7929 464.963 70.9231 464.846 71.0203 464.704L98.2507 480.682V513.661L70.222 530.195L43.0066 514.218C43.0684 514.081 43.0993 513.931 43.097 513.781C43.097 513.485 42.9796 513.202 42.7705 512.993C42.5615 512.784 42.278 512.667 41.9824 512.667C41.6869 512.667 41.4034 512.784 41.1944 512.993C40.9853 513.202 40.8679 513.485 40.8679 513.781C40.8656 513.931 40.8964 514.081 40.9583 514.218L13.6073 530.271V562.376C13.3398 562.409 13.0938 562.54 12.9161 562.742C12.7384 562.945 12.6414 563.206 12.6434 563.475C12.6394 563.772 12.7524 564.059 12.9582 564.273C13.164 564.487 13.4459 564.612 13.7429 564.62C13.9153 564.618 14.0849 564.575 14.237 564.494C14.3891 564.412 14.5193 564.296 14.6164 564.153L41.9824 580.206L69.2732 564.183C69.3697 564.326 69.4998 564.443 69.6521 564.524C69.8044 564.605 69.9743 564.647 70.1467 564.647C70.3192 564.647 70.489 564.605 70.6413 564.524C70.7936 564.443 70.9237 564.326 71.0203 564.183L98.2507 580.161V613.125L71.0956 629.072C70.9968 628.932 70.8659 628.818 70.7139 628.739C70.5619 628.661 70.3932 628.62 70.222 628.62C70.0508 628.62 69.8821 628.661 69.7301 628.739C69.5781 628.818 69.4472 628.932 69.3485 629.072L41.9824 613.019L14.6164 629.072C14.5185 628.931 14.3878 628.817 14.2356 628.738C14.0834 628.659 13.9142 628.619 13.7429 628.62C13.4473 628.602 13.1567 628.703 12.9349 628.899C12.7132 629.095 12.5786 629.371 12.5606 629.667C12.5426 629.962 12.6428 630.253 12.8391 630.475C13.0354 630.696 13.3117 630.831 13.6073 630.849V662.804L-13.6232 678.782C-13.7194 678.638 -13.8494 678.521 -14.0017 678.439C-14.154 678.358 -14.324 678.315 -14.4967 678.315C-14.6664 678.32 -14.8324 678.365 -14.9815 678.446C-15.1306 678.527 -15.2586 678.642 -15.3552 678.782L-42.7212 662.714L-71.021 679.279V711.384C-71.2912 711.421 -71.5392 711.553 -71.7191 711.758C-71.899 711.963 -71.9988 712.226 -72 712.499C-71.9961 712.797 -71.8758 713.082 -71.6648 713.293C-71.4538 713.504 -71.1688 713.624 -70.8704 713.628C-70.7015 713.619 -70.5367 713.573 -70.3881 713.492C-70.2395 713.411 -70.1109 713.298 -70.0119 713.161L-42.6459 729.229H-42.5706L-14.4063 712.664L12.794 728.627C12.746 728.772 12.7206 728.925 12.7187 729.078C12.7167 729.348 12.8137 729.609 12.9914 729.811C13.1691 730.014 13.4151 730.144 13.6826 730.178V762.118L-14.5569 778.682V810.788C-14.8525 810.808 -15.1281 810.945 -15.323 811.168C-15.5179 811.391 -15.6161 811.682 -15.5962 811.978C-15.5762 812.273 -15.4396 812.549 -15.2165 812.744C-14.9933 812.938 -14.7019 813.037 -14.4063 813.017C-14.2375 813.016 -14.0714 812.974 -13.922 812.895C-13.7726 812.817 -13.6443 812.703 -13.5478 812.565L13.7128 828.708H13.7881L42.1029 812.143V779.947C42.3704 779.914 42.6164 779.784 42.7941 779.581C42.9718 779.379 43.0689 779.118 43.0668 778.848C43.0692 778.698 43.0383 778.549 42.9765 778.411L70.3275 762.359V729.063L42.1632 712.499V680.559C42.4306 680.519 42.675 680.385 42.8519 680.18C43.0288 679.976 43.1264 679.715 43.1271 679.444C43.1276 679.294 43.0968 679.145 43.0367 679.007L70.2521 663.045L97.4676 679.007C97.408 679.176 97.3892 679.356 97.4127 679.533C97.4362 679.71 97.5013 679.879 97.6027 680.026C97.7041 680.173 97.8389 680.293 97.9961 680.378C98.1532 680.463 98.3283 680.509 98.5068 680.513C98.6532 680.511 98.7977 680.481 98.9321 680.423C99.0666 680.365 99.1884 680.281 99.2905 680.176C99.3926 680.071 99.473 679.948 99.5272 679.812C99.5814 679.676 99.6082 679.53 99.6062 679.384C99.6067 679.234 99.5759 679.085 99.5159 678.947L126.867 662.894V630.849C127.136 630.816 127.384 630.686 127.564 630.484C127.744 630.282 127.844 630.021 127.846 629.75C127.841 629.6 127.81 629.452 127.755 629.313L154.956 613.351L183.06 629.84V662.804L155.829 678.782C155.733 678.638 155.603 678.521 155.451 678.439C155.299 678.358 155.129 678.315 154.956 678.315C154.676 678.326 154.41 678.44 154.209 678.636C154.009 678.832 153.888 679.095 153.871 679.375C153.855 679.655 153.942 679.931 154.118 680.15C154.293 680.368 154.543 680.514 154.82 680.559V712.499L126.596 729.063V761.184C126.412 761.203 126.236 761.268 126.083 761.373C125.93 761.478 125.806 761.619 125.722 761.783C125.637 761.948 125.595 762.131 125.599 762.316C125.603 762.5 125.653 762.681 125.744 762.842C125.836 763.003 125.965 763.139 126.122 763.237C126.279 763.335 126.458 763.393 126.642 763.404C126.827 763.416 127.012 763.382 127.18 763.304C127.348 763.227 127.494 763.109 127.605 762.961L154.82 778.938V812.068L182.096 828.076C182.038 828.214 182.012 828.363 182.021 828.512C182.019 828.659 182.045 828.804 182.1 828.94C182.154 829.076 182.234 829.2 182.336 829.305C182.438 829.41 182.56 829.493 182.695 829.551C182.829 829.609 182.974 829.64 183.12 829.642C183.417 829.638 183.701 829.517 183.909 829.306C184.118 829.094 184.235 828.809 184.235 828.512C184.238 828.362 184.208 828.212 184.144 828.076L211.495 812.023V779.947C211.791 779.929 212.067 779.795 212.263 779.573C212.46 779.351 212.56 779.061 212.542 778.765C212.524 778.47 212.389 778.193 212.168 777.997C211.946 777.801 211.655 777.701 211.36 777.719C211.187 777.72 211.018 777.764 210.866 777.845C210.713 777.926 210.583 778.043 210.486 778.185L183.301 762.208V730.253C183.57 730.22 183.817 730.09 183.998 729.888C184.178 729.686 184.278 729.425 184.28 729.154C184.28 728.999 184.249 728.845 184.189 728.702L211.54 712.664V680.559C211.811 680.522 212.059 680.389 212.238 680.185C212.418 679.98 212.518 679.717 212.519 679.444C212.52 679.294 212.489 679.145 212.429 679.007L239.629 663.045L267.869 679.61L295.175 663.587C295.271 663.726 295.4 663.839 295.549 663.918C295.698 663.996 295.864 664.038 296.033 664.039C296.329 664.057 296.619 663.957 296.841 663.76C297.063 663.564 297.198 663.288 297.215 662.992C297.233 662.697 297.133 662.406 296.937 662.184C296.741 661.963 296.464 661.828 296.169 661.81V629.674L268.893 613.667C268.941 613.526 268.967 613.379 268.968 613.23C268.987 613.074 268.972 612.916 268.924 612.766C268.877 612.616 268.798 612.477 268.694 612.36C268.589 612.242 268.461 612.148 268.318 612.084C268.174 612.02 268.019 611.986 267.861 611.986C267.704 611.986 267.549 612.02 267.405 612.084C267.262 612.148 267.133 612.242 267.029 612.36C266.924 612.477 266.846 612.616 266.798 612.766C266.751 612.916 266.736 613.074 266.754 613.23C266.732 613.375 266.732 613.522 266.754 613.667L239.629 629.584L212.414 613.622C212.474 613.484 212.505 613.335 212.504 613.185C212.503 612.914 212.402 612.653 212.222 612.451C212.042 612.248 211.794 612.119 211.525 612.086V580.131L238.756 564.153C238.854 564.295 238.984 564.411 239.136 564.492C239.288 564.573 239.457 564.617 239.629 564.62C239.801 564.615 239.969 564.57 240.121 564.489C240.272 564.408 240.403 564.293 240.503 564.153L267.869 580.206L296.184 563.641V531.46C296.349 531.435 296.507 531.374 296.645 531.28C296.783 531.186 296.899 531.062 296.983 530.917C297.067 530.773 297.117 530.611 297.13 530.444C297.143 530.278 297.118 530.11 297.057 529.954L324.273 513.992L352.512 530.557H352.588L379.878 514.534C379.977 514.674 380.108 514.788 380.26 514.866C380.412 514.945 380.581 514.986 380.752 514.986C381.048 515.004 381.338 514.904 381.56 514.707C381.782 514.511 381.916 514.235 381.934 513.939C381.952 513.644 381.852 513.353 381.656 513.131C381.459 512.91 381.183 512.775 380.887 512.757V480.561L352.588 463.996H352.512L325.222 480.004C325.123 479.864 324.992 479.75 324.84 479.671C324.688 479.592 324.519 479.551 324.348 479.551C324.177 479.551 324.008 479.592 323.856 479.671C323.704 479.75 323.573 479.864 323.474 480.004L296.259 463.996V432.056C296.527 432.023 296.773 431.893 296.95 431.69C297.128 431.487 297.225 431.226 297.223 430.957C297.223 430.803 297.197 430.651 297.148 430.505L324.484 414.467V381.172L297.208 365.165C297.256 365.024 297.281 364.876 297.283 364.728C297.302 364.572 297.286 364.413 297.239 364.263C297.192 364.113 297.113 363.975 297.009 363.858C296.904 363.74 296.776 363.646 296.633 363.582C296.489 363.517 296.334 363.484 296.176 363.484C296.019 363.484 295.863 363.517 295.72 363.582C295.576 363.646 295.448 363.74 295.344 363.858C295.239 363.975 295.161 364.113 295.113 364.263C295.066 364.413 295.051 364.572 295.069 364.728C295.046 364.873 295.046 365.02 295.069 365.165L268.742 380.615C268.639 380.477 268.505 380.364 268.351 380.286C268.197 380.207 268.027 380.166 267.854 380.163C267.681 380.164 267.511 380.206 267.359 380.288C267.207 380.369 267.077 380.487 266.98 380.63L239.75 364.653V331.674L267.854 315.109L295.054 331.086C295 331.226 294.969 331.373 294.964 331.523C294.964 331.818 295.081 332.102 295.29 332.311C295.499 332.52 295.783 332.637 296.078 332.637C296.374 332.637 296.657 332.52 296.866 332.311C297.075 332.102 297.193 331.818 297.193 331.523C297.217 331.378 297.217 331.231 297.193 331.086L324.529 315.033V282.958C324.798 282.925 325.045 282.795 325.226 282.593C325.406 282.391 325.506 282.129 325.508 281.859C325.51 281.71 325.482 281.563 325.428 281.425C325.373 281.287 325.291 281.162 325.188 281.056C325.084 280.949 324.961 280.864 324.824 280.806C324.688 280.747 324.542 280.716 324.393 280.714C324.221 280.719 324.053 280.764 323.902 280.845C323.75 280.926 323.619 281.041 323.52 281.181L296.108 265.113H296.033L268.727 281.136C268.632 280.995 268.504 280.88 268.355 280.799C268.205 280.717 268.039 280.673 267.869 280.669C267.697 280.672 267.528 280.716 267.376 280.797C267.224 280.878 267.093 280.994 266.995 281.136L239.765 265.158V232.239L266.995 216.262C267.094 216.402 267.225 216.516 267.377 216.594C267.529 216.673 267.698 216.714 267.869 216.714C268.038 216.713 268.204 216.671 268.353 216.592C268.503 216.514 268.631 216.4 268.727 216.262L296.093 232.315L323.384 216.307C323.485 216.445 323.616 216.558 323.768 216.636C323.919 216.715 324.087 216.757 324.258 216.759C324.553 216.777 324.844 216.677 325.066 216.48C325.287 216.284 325.422 216.008 325.44 215.712C325.458 215.417 325.358 215.126 325.161 214.904C324.965 214.683 324.689 214.548 324.393 214.53V182.53L351.624 166.552C351.721 166.695 351.851 166.812 352.003 166.893C352.155 166.974 352.325 167.018 352.497 167.019C352.669 167.014 352.837 166.969 352.989 166.888C353.14 166.807 353.271 166.692 353.371 166.552L380.737 182.62L409.052 166.056V133.86C409.329 133.814 409.58 133.667 409.755 133.447C409.93 133.227 410.016 132.95 409.997 132.669C409.979 132.389 409.856 132.125 409.653 131.93C409.45 131.736 409.182 131.623 408.901 131.616C408.731 131.62 408.565 131.664 408.415 131.745C408.266 131.827 408.138 131.942 408.043 132.083L380.812 115.954H380.737L352.573 132.519L325.357 116.557C325.416 116.413 325.447 116.26 325.447 116.105C325.446 115.834 325.346 115.573 325.165 115.371C324.985 115.169 324.737 115.039 324.469 115.006V83.1411L352.708 66.5763V34.4556C352.854 34.4457 352.997 34.4071 353.129 34.342C353.26 34.2769 353.378 34.1865 353.474 34.076C353.571 33.9655 353.644 33.8371 353.691 33.6982C353.738 33.5592 353.757 33.4123 353.747 33.266C353.737 33.1196 353.699 32.9767 353.634 32.8453C353.569 32.7139 353.478 32.5965 353.368 32.5001C353.257 32.4036 353.129 32.3298 352.99 32.2829C352.851 32.2361 352.704 32.217 352.557 32.2269C352.389 32.2292 352.223 32.2714 352.074 32.3499C351.925 32.4284 351.796 32.541 351.699 32.6787L324.333 16.5656L296.018 33.1305V65.3867C295.748 65.423 295.5 65.5558 295.32 65.7606C295.14 65.9655 295.04 66.2284 295.039 66.501C295.046 66.6456 295.077 66.788 295.13 66.9227L267.718 82.9755V116.271L295.883 132.836V164.776C295.612 164.812 295.364 164.945 295.184 165.15C295.005 165.354 294.905 165.617 294.904 165.89C294.91 166.039 294.941 166.187 294.994 166.327L267.794 182.289L240.578 166.327C240.64 166.184 240.671 166.03 240.669 165.875C240.669 165.728 240.64 165.584 240.584 165.448C240.528 165.313 240.446 165.19 240.342 165.087C240.239 164.983 240.116 164.901 239.981 164.845C239.845 164.789 239.7 164.76 239.554 164.76C239.408 164.76 239.263 164.789 239.128 164.845C238.992 164.901 238.869 164.983 238.766 165.087C238.662 165.19 238.58 165.313 238.524 165.448C238.468 165.584 238.44 165.728 238.44 165.875C238.439 166.025 238.47 166.174 238.53 166.312L211.254 182.364V214.485C210.985 214.518 210.738 214.648 210.557 214.85C210.377 215.052 210.277 215.313 210.275 215.584C210.275 215.735 210.306 215.883 210.366 216.021L183.15 231.983L155.061 215.419V182.53L182.292 166.552C182.385 166.696 182.512 166.813 182.662 166.895C182.812 166.976 182.98 167.019 183.15 167.019C183.447 167.015 183.731 166.895 183.939 166.683C184.148 166.472 184.265 166.187 184.265 165.89C184.267 165.619 184.171 165.356 183.993 165.151C183.816 164.946 183.57 164.812 183.301 164.776V132.836L211.525 116.271V84.1501C211.709 84.1305 211.885 84.0656 212.038 83.961C212.191 83.8564 212.315 83.7154 212.399 83.5509C212.484 83.3864 212.526 83.2034 212.522 83.0185C212.518 82.8336 212.468 82.6525 212.377 82.4917C212.286 82.3309 212.156 82.1953 211.999 82.0972C211.842 81.9991 211.663 81.9416 211.479 81.9298C211.294 81.9181 211.109 81.9524 210.941 82.0298C210.773 82.1072 210.627 82.2252 210.516 82.3731L183.301 66.3956V33.266L155.95 17.2282C155.974 17.0786 155.974 16.9261 155.95 16.7765C155.95 16.4935 155.843 16.2209 155.65 16.014C155.457 15.807 155.193 15.6812 154.911 15.6621ZM324.333 82.8249L314.935 77.3886L297.087 66.8474C297.148 66.7096 297.178 66.5609 297.178 66.4107C297.18 66.1411 297.083 65.8802 296.905 65.6776C296.727 65.4749 296.481 65.3446 296.214 65.3114V33.4316L324.303 16.8668L351.518 32.8443C351.456 32.9815 351.426 33.1306 351.428 33.281C351.43 33.5519 351.53 33.813 351.71 34.0153C351.89 34.2176 352.138 34.3474 352.407 34.3803V66.4107L324.333 82.8249ZM314.829 121.541L296.093 132.534L268.004 115.97V83.1411L295.235 67.1636C295.334 67.3033 295.465 67.4172 295.617 67.4959C295.769 67.5745 295.937 67.6155 296.108 67.6154C296.277 67.6143 296.443 67.5727 296.593 67.4941C296.742 67.4155 296.871 67.3021 296.967 67.1636L305.461 72.1481L324.197 83.1411V115.081C323.927 115.117 323.679 115.25 323.499 115.455C323.319 115.66 323.22 115.923 323.218 116.195C323.225 116.34 323.256 116.482 323.309 116.617L314.829 121.541ZM353.597 166.266C353.658 166.124 353.689 165.97 353.687 165.815C353.685 165.544 353.585 165.283 353.405 165.08C353.225 164.878 352.977 164.748 352.708 164.715V132.836L380.812 116.271L408.012 132.233C407.963 132.379 407.938 132.531 407.937 132.685C407.935 132.954 408.032 133.215 408.21 133.418C408.388 133.621 408.634 133.751 408.901 133.784V165.8L380.812 182.364L353.597 166.266ZM324.333 182.229L314.935 176.793L297.087 166.251C297.148 166.114 297.178 165.965 297.178 165.815C297.18 165.543 297.084 165.281 296.906 165.075C296.729 164.87 296.483 164.737 296.214 164.7V132.836L305.582 127.339L323.429 116.798C323.531 116.938 323.665 117.052 323.819 117.13C323.974 117.209 324.145 117.25 324.318 117.25C324.486 117.245 324.651 117.202 324.8 117.123C324.949 117.045 325.077 116.934 325.176 116.798L352.407 132.775V164.715C352.137 164.752 351.889 164.884 351.709 165.089C351.529 165.294 351.429 165.557 351.428 165.83C351.427 165.98 351.458 166.129 351.518 166.266L324.333 182.229ZM268.893 215.961C268.916 215.816 268.916 215.669 268.893 215.524C268.895 215.255 268.798 214.994 268.62 214.791C268.443 214.588 268.197 214.458 267.929 214.425V182.53L295.16 166.552C295.253 166.696 295.38 166.813 295.53 166.895C295.68 166.976 295.847 167.019 296.018 167.019C296.191 167.019 296.361 166.976 296.513 166.895C296.665 166.813 296.795 166.696 296.892 166.552L305.386 171.537L324.122 182.53V214.485C323.853 214.518 323.605 214.648 323.425 214.85C323.245 215.052 323.145 215.313 323.143 215.584C323.143 215.735 323.173 215.883 323.233 216.021L296.018 231.983L268.893 215.961ZM239.629 231.983L230.261 226.487L212.414 215.946C212.474 215.808 212.505 215.659 212.504 215.509C212.503 215.238 212.402 214.977 212.222 214.775C212.042 214.572 211.794 214.443 211.525 214.41V182.53L238.756 166.552C238.853 166.695 238.983 166.812 239.135 166.893C239.287 166.974 239.457 167.018 239.629 167.019C239.801 167.014 239.969 166.969 240.121 166.888C240.272 166.807 240.403 166.692 240.503 166.552L267.718 182.53V214.485C267.451 214.518 267.205 214.649 267.027 214.851C266.849 215.054 266.752 215.315 266.754 215.584C266.754 215.735 266.785 215.883 266.845 216.021L239.629 231.983ZM239.494 265.203L230.126 270.7L211.39 281.693L184.174 265.715C184.238 265.579 184.269 265.429 184.265 265.279C184.267 265.009 184.17 264.748 183.992 264.546C183.814 264.343 183.568 264.213 183.301 264.179V232.239L210.516 216.262C210.615 216.402 210.746 216.516 210.898 216.595C211.05 216.673 211.219 216.714 211.39 216.714C211.561 216.714 211.73 216.673 211.882 216.595C212.034 216.516 212.165 216.402 212.263 216.262L220.758 221.246L239.494 232.239V265.203ZM183.15 266.408C183.321 266.406 183.489 266.364 183.64 266.285C183.792 266.207 183.923 266.094 184.024 265.956L211.254 281.934V313.889C210.985 313.922 210.738 314.052 210.557 314.254C210.377 314.456 210.277 314.717 210.275 314.988C210.275 315.139 210.306 315.287 210.366 315.425L183.015 331.478V363.583C182.831 363.603 182.655 363.668 182.502 363.772C182.349 363.877 182.225 364.018 182.141 364.183C182.056 364.347 182.014 364.53 182.018 364.715C182.022 364.9 182.072 365.081 182.163 365.242C182.254 365.403 182.384 365.538 182.541 365.636C182.698 365.734 182.877 365.792 183.061 365.804C183.246 365.815 183.431 365.781 183.599 365.704C183.767 365.626 183.913 365.508 184.024 365.36L211.254 381.338V413.278C211.064 413.292 210.881 413.354 210.722 413.459C210.563 413.563 210.432 413.705 210.343 413.873C210.254 414.041 210.208 414.229 210.211 414.419C210.213 414.61 210.264 414.796 210.358 414.962C210.452 415.127 210.586 415.266 210.748 415.366C210.91 415.466 211.095 415.523 211.285 415.532C211.475 415.541 211.664 415.502 211.835 415.419C212.006 415.336 212.154 415.21 212.263 415.055L239.494 431.047V462.987C239.226 463.021 238.98 463.151 238.803 463.354C238.625 463.556 238.528 463.817 238.53 464.087C238.53 464.384 238.647 464.669 238.855 464.88C239.064 465.091 239.347 465.212 239.644 465.216C239.817 465.214 239.986 465.171 240.138 465.09C240.291 465.009 240.421 464.892 240.518 464.749L267.733 480.727V513.706L239.629 530.195L212.414 514.218C212.476 514.081 212.507 513.931 212.504 513.781C212.504 513.635 212.475 513.49 212.419 513.355C212.363 513.219 212.281 513.096 212.178 512.993C212.074 512.89 211.952 512.807 211.816 512.751C211.681 512.695 211.536 512.667 211.39 512.667C211.243 512.667 211.098 512.695 210.963 512.751C210.828 512.807 210.705 512.89 210.602 512.993C210.498 513.096 210.416 513.219 210.36 513.355C210.304 513.49 210.275 513.635 210.275 513.781C210.273 513.931 210.304 514.081 210.366 514.218L183.015 530.271V562.376C182.746 562.413 182.5 562.546 182.322 562.751C182.145 562.956 182.048 563.219 182.051 563.49C182.045 563.64 182.071 563.789 182.126 563.927L155.784 579.378C155.687 579.238 155.558 579.124 155.407 579.045C155.256 578.966 155.088 578.925 154.918 578.925C154.748 578.925 154.58 578.966 154.429 579.045C154.279 579.124 154.149 579.238 154.052 579.378L126.837 563.4V531.445C127.106 531.412 127.353 531.282 127.534 531.08C127.714 530.878 127.814 530.617 127.816 530.346C127.809 530.196 127.778 530.049 127.725 529.909L155.076 513.871V481.751C155.223 481.741 155.366 481.702 155.497 481.637C155.628 481.572 155.746 481.482 155.842 481.371C155.939 481.261 156.013 481.132 156.059 480.993C156.106 480.854 156.125 480.707 156.116 480.561C156.106 480.415 156.067 480.272 156.002 480.14C155.937 480.009 155.846 479.892 155.736 479.795C155.625 479.699 155.497 479.625 155.358 479.578C155.219 479.531 155.072 479.512 154.926 479.522C154.757 479.524 154.591 479.566 154.442 479.645C154.293 479.723 154.165 479.836 154.067 479.974L126.837 463.996V432.056C127.107 432.02 127.355 431.887 127.535 431.682C127.715 431.477 127.814 431.215 127.816 430.942C127.812 430.644 127.692 430.359 127.481 430.148C127.27 429.937 126.984 429.816 126.686 429.812C126.516 429.818 126.35 429.863 126.201 429.944C126.052 430.025 125.924 430.14 125.828 430.279L98.5821 414.302V382.347C98.851 382.314 99.0987 382.184 99.2789 381.982C99.4591 381.779 99.5594 381.518 99.5611 381.247C99.5611 380.951 99.4441 380.666 99.2355 380.454C99.027 380.243 98.7435 380.122 98.4465 380.118C98.2738 380.118 98.1038 380.161 97.9515 380.243C97.7992 380.324 97.6692 380.441 97.573 380.585L70.3425 364.607V331.628L98.4465 315.064L125.647 331.041C125.623 331.186 125.623 331.333 125.647 331.478C125.647 331.773 125.764 332.057 125.973 332.266C126.182 332.475 126.466 332.592 126.761 332.592C127.057 332.592 127.34 332.475 127.549 332.266C127.758 332.057 127.876 331.773 127.876 331.478C127.871 331.328 127.84 331.18 127.786 331.041L155.137 314.988V282.958C155.404 282.918 155.648 282.784 155.825 282.579C156.002 282.375 156.1 282.114 156.1 281.844C156.123 281.699 156.123 281.552 156.1 281.407L182.427 265.956C182.512 266.076 182.619 266.178 182.743 266.255C182.867 266.333 183.006 266.385 183.15 266.408ZM268.004 314.898V282.958C268.272 282.925 268.518 282.794 268.696 282.592C268.873 282.389 268.97 282.128 268.968 281.859C268.993 281.709 268.993 281.556 268.968 281.407L296.184 265.444L323.384 281.407C323.322 281.549 323.292 281.703 323.294 281.859C323.295 282.129 323.396 282.391 323.576 282.593C323.756 282.795 324.004 282.925 324.273 282.958V314.898L297.042 330.875C296.943 330.736 296.813 330.622 296.661 330.543C296.509 330.465 296.34 330.424 296.169 330.424C296 330.425 295.834 330.466 295.684 330.545C295.535 330.624 295.407 330.737 295.31 330.875L268.004 314.898ZM239.629 331.387L230.261 325.891L212.414 315.35C212.474 315.212 212.505 315.063 212.504 314.913C212.506 314.641 212.407 314.378 212.226 314.175C212.045 313.972 211.796 313.843 211.525 313.814V281.934L220.893 276.437L239.629 265.444L266.845 281.407C266.784 281.563 266.759 281.73 266.772 281.897C266.785 282.064 266.836 282.225 266.919 282.37C267.003 282.514 267.119 282.638 267.257 282.732C267.395 282.826 267.553 282.888 267.718 282.913V314.853L239.629 331.387ZM239.494 364.607L230.126 370.104L211.39 381.082L184.174 365.119C184.234 364.982 184.265 364.833 184.265 364.683C184.267 364.413 184.17 364.152 183.992 363.95C183.814 363.747 183.568 363.617 183.301 363.583V331.628L210.516 315.651C210.613 315.794 210.743 315.911 210.895 315.992C211.048 316.072 211.217 316.115 211.39 316.115C211.562 316.115 211.732 316.072 211.884 315.992C212.037 315.911 212.167 315.794 212.263 315.651L220.758 320.635L239.494 331.628V364.607ZM266.845 380.811C266.784 380.967 266.759 381.134 266.772 381.301C266.785 381.467 266.836 381.629 266.919 381.774C267.003 381.918 267.119 382.042 267.257 382.136C267.395 382.23 267.553 382.292 267.718 382.317V414.272L239.629 430.791L212.414 414.829C212.474 414.691 212.505 414.542 212.504 414.392C212.506 414.119 212.408 413.854 212.227 413.648C212.047 413.443 211.797 413.311 211.525 413.278V381.338L220.893 375.841L239.629 364.848L266.845 380.811ZM296.124 429.828C295.952 429.827 295.784 429.868 295.632 429.947C295.48 430.026 295.349 430.14 295.25 430.279L286.756 425.295L268.02 414.302V382.347C268.284 382.31 268.527 382.178 268.701 381.976C268.876 381.774 268.971 381.515 268.968 381.247C268.993 381.108 268.993 380.965 268.968 380.826L295.325 365.36C295.422 365.5 295.552 365.614 295.703 365.693C295.853 365.772 296.021 365.813 296.191 365.813C296.362 365.813 296.529 365.772 296.68 365.693C296.831 365.614 296.96 365.5 297.057 365.36L324.288 381.338V414.302L297.057 430.279C296.953 430.131 296.812 430.012 296.649 429.933C296.486 429.854 296.305 429.817 296.124 429.828ZM295.973 463.996L286.605 469.493L267.884 480.486L240.669 464.523C240.729 464.386 240.759 464.237 240.759 464.087C240.757 463.816 240.657 463.555 240.477 463.352C240.297 463.15 240.049 463.02 239.78 462.987V431.032L267.884 414.467L277.252 419.964L295.084 430.43C295.06 430.579 295.06 430.732 295.084 430.882C295.082 431.151 295.179 431.412 295.357 431.615C295.535 431.817 295.781 431.948 296.048 431.981L295.973 463.996ZM324.484 513.691V481.751C324.753 481.718 325 481.588 325.18 481.386C325.361 481.183 325.461 480.922 325.463 480.651C325.463 480.501 325.432 480.352 325.372 480.215L352.588 464.252L380.692 480.727V512.682C380.423 512.715 380.175 512.844 379.995 513.047C379.815 513.249 379.714 513.51 379.713 513.781C379.71 513.931 379.741 514.081 379.803 514.218L352.588 530.195L324.484 513.691ZM296.124 529.201C295.951 529.204 295.782 529.248 295.63 529.329C295.478 529.41 295.348 529.527 295.25 529.668L286.756 524.669L268.02 513.691V480.712L277.388 475.23L296.124 464.237L323.324 480.2C323.264 480.337 323.233 480.486 323.233 480.636C323.235 480.907 323.335 481.168 323.516 481.371C323.696 481.573 323.944 481.703 324.213 481.736V513.691L296.982 529.668C296.884 529.531 296.755 529.419 296.606 529.341C296.457 529.263 296.292 529.22 296.124 529.216V529.201ZM240.669 563.912C240.729 563.774 240.759 563.626 240.759 563.475C240.758 563.203 240.658 562.94 240.478 562.735C240.298 562.53 240.05 562.397 239.78 562.361V530.436L267.884 513.947L277.252 519.443L295.084 529.909C295.06 530.059 295.06 530.211 295.084 530.361C295.082 530.63 295.179 530.891 295.357 531.094C295.535 531.297 295.781 531.427 296.048 531.46V563.4L267.959 579.89L240.669 563.912ZM211.405 579.875L201.977 574.393L184.129 563.927C184.189 563.789 184.22 563.641 184.22 563.49C184.222 563.217 184.123 562.952 183.942 562.747C183.762 562.541 183.512 562.409 183.241 562.376V530.436L210.471 514.459C210.568 514.602 210.698 514.719 210.85 514.799C211.002 514.88 211.172 514.923 211.345 514.923C211.517 514.923 211.687 514.88 211.839 514.799C211.991 514.719 212.122 514.602 212.218 514.459L239.434 530.436V562.376C239.165 562.413 238.919 562.546 238.741 562.751C238.564 562.956 238.467 563.219 238.47 563.49C238.469 563.641 238.5 563.789 238.56 563.927L211.405 579.875ZM239.78 662.789V629.84L267.01 613.863C267.109 614.002 267.24 614.116 267.392 614.195C267.544 614.273 267.713 614.314 267.884 614.314C268.055 614.312 268.222 614.27 268.374 614.192C268.526 614.113 268.657 614.001 268.758 613.863L295.973 629.84V661.78C295.704 661.813 295.456 661.943 295.276 662.145C295.096 662.347 294.996 662.608 294.994 662.879C294.999 663.029 295.03 663.177 295.084 663.316L267.884 679.279L239.78 662.789ZM155.076 778.923L164.429 773.427L183.165 762.434L210.381 778.396C210.321 778.534 210.29 778.683 210.29 778.833C210.292 779.104 210.392 779.365 210.572 779.567C210.753 779.77 211 779.899 211.269 779.932V811.887L184.039 827.865C183.941 827.723 183.81 827.607 183.658 827.526C183.507 827.445 183.337 827.401 183.165 827.398C182.993 827.403 182.825 827.448 182.674 827.529C182.522 827.61 182.391 827.725 182.292 827.865L155.076 811.887V778.923ZM154.926 712.664L164.324 718.311L182.171 728.777C182.116 728.921 182.09 729.075 182.096 729.229C182.094 729.498 182.191 729.759 182.369 729.962C182.546 730.165 182.792 730.295 183.06 730.328V762.283L173.692 767.78L154.956 778.758L127.725 762.72C127.778 762.58 127.809 762.433 127.816 762.283C127.814 762.012 127.714 761.751 127.534 761.549C127.353 761.347 127.106 761.217 126.837 761.184V729.229L154.926 712.664ZM183.165 662.97L192.533 668.466L210.381 678.932C210.321 679.07 210.29 679.219 210.29 679.369C210.292 679.641 210.391 679.904 210.571 680.109C210.751 680.314 210.999 680.447 211.269 680.483V712.423L184.039 728.401C183.94 728.261 183.809 728.147 183.657 728.068C183.505 727.99 183.336 727.949 183.165 727.949C182.995 727.951 182.827 727.993 182.675 728.072C182.524 728.15 182.392 728.263 182.292 728.401L173.797 723.416L155.076 712.423V680.559C155.344 680.519 155.588 680.385 155.765 680.18C155.942 679.976 156.04 679.715 156.04 679.444C156.063 679.299 156.063 679.152 156.04 679.007L183.165 662.97ZM183.301 629.765L192.669 624.253L210.531 613.787C210.63 613.927 210.761 614.041 210.913 614.12C211.065 614.199 211.234 614.24 211.405 614.24C211.576 614.24 211.745 614.199 211.897 614.12C212.049 614.041 212.18 613.927 212.278 613.787L239.494 629.765V662.729L212.278 678.706C212.182 678.563 212.052 678.446 211.899 678.366C211.747 678.285 211.577 678.242 211.405 678.242C211.232 678.242 211.063 678.285 210.91 678.366C210.758 678.446 210.628 678.563 210.531 678.706L201.977 673.797L183.241 662.804L183.301 629.765ZM155.076 613.019V581.155C155.344 581.121 155.59 580.991 155.768 580.788C155.945 580.586 156.042 580.325 156.04 580.055C156.066 579.911 156.066 579.763 156.04 579.619L182.367 564.153C182.467 564.293 182.598 564.408 182.749 564.489C182.901 564.57 183.069 564.615 183.241 564.62C183.413 564.617 183.582 564.573 183.734 564.492C183.886 564.411 184.016 564.295 184.114 564.153L192.609 569.138L211.345 580.131V612.086C211.076 612.119 210.828 612.248 210.648 612.451C210.468 612.653 210.367 612.914 210.366 613.185C210.365 613.335 210.396 613.484 210.456 613.622L201.977 618.591L183.241 629.584L155.076 613.019ZM13.7128 762.449L23.1109 768.006L40.9583 778.472C40.8982 778.609 40.8675 778.758 40.8679 778.908C40.8727 779.178 40.9741 779.438 41.1537 779.639C41.3333 779.841 41.5792 779.972 41.8469 780.008V811.963L13.7128 828.377L-13.3972 812.414C-13.3676 812.27 -13.3676 812.122 -13.3972 811.978C-13.3989 811.707 -13.4992 811.446 -13.6794 811.243C-13.8595 811.041 -14.1073 810.911 -14.3762 810.878V778.923L13.7128 762.449ZM23.2314 723.732L41.9523 712.739L70.0564 729.304V762.268L42.856 778.17C42.7572 778.031 42.6262 777.917 42.4742 777.838C42.3222 777.76 42.1536 777.719 41.9824 777.719C41.8136 777.72 41.6475 777.761 41.4981 777.84C41.3488 777.919 41.2204 778.032 41.124 778.17L32.6144 773.186L13.8935 762.193V730.253C14.1636 730.219 14.4117 730.087 14.5898 729.881C14.7678 729.675 14.8632 729.411 14.8574 729.139C14.8566 728.988 14.8259 728.84 14.767 728.702L23.2314 723.732ZM-15.5058 679.007C-15.5664 679.163 -15.5911 679.331 -15.5782 679.497C-15.5653 679.664 -15.515 679.826 -15.4311 679.97C-15.3472 680.115 -15.2319 680.239 -15.0936 680.333C-14.9553 680.427 -14.7976 680.489 -14.6322 680.513V712.453L-42.7212 729.018L-69.9366 713.056C-69.8749 712.913 -69.8441 712.759 -69.8463 712.604C-69.8479 712.333 -69.9482 712.072 -70.1284 711.87C-70.3086 711.667 -70.5563 711.538 -70.8252 711.505V679.535L-42.7212 663.045L-15.5058 679.007ZM13.7128 663.045L23.1109 668.617L40.9583 679.083C40.8982 679.221 40.8675 679.369 40.8679 679.519C40.8691 679.792 40.9689 680.055 41.1488 680.26C41.3287 680.465 41.5767 680.597 41.8469 680.634V712.574L32.4789 718.07L14.6164 728.612C14.5176 728.472 14.3867 728.358 14.2347 728.279C14.0827 728.201 13.914 728.16 13.7429 728.16C13.5741 728.161 13.408 728.202 13.2586 728.281C13.1092 728.36 12.9809 728.473 12.8844 728.612L-14.3461 712.499V680.559C-14.0759 680.522 -13.8279 680.389 -13.648 680.185C-13.4681 679.98 -13.3683 679.717 -13.3671 679.444C-13.3544 679.298 -13.3646 679.151 -13.3972 679.007L13.7128 663.045ZM69.1677 629.313C69.1059 629.45 69.075 629.599 69.0774 629.75C69.079 630.021 69.1793 630.282 69.3595 630.484C69.5397 630.686 69.7874 630.816 70.0564 630.849V662.804L42.856 678.782C42.7598 678.638 42.6298 678.521 42.4775 678.439C42.3251 678.358 42.1552 678.315 41.9824 678.315C41.8118 678.315 41.6438 678.358 41.4939 678.439C41.344 678.521 41.2168 678.638 41.124 678.782L32.6144 673.797L13.8935 662.804V630.849C14.161 630.816 14.407 630.685 14.5847 630.483C14.7624 630.28 14.8595 630.019 14.8574 629.75C14.8597 629.599 14.8289 629.45 14.767 629.313L41.9824 613.351L69.1677 629.313ZM98.4315 613.351L107.83 618.922L125.662 629.388C125.638 629.533 125.638 629.68 125.662 629.825C125.664 630.096 125.764 630.357 125.944 630.559C126.124 630.762 126.372 630.891 126.641 630.924V662.879L99.3351 678.782C99.2347 678.639 99.1017 678.522 98.9472 678.441C98.7927 678.36 98.6211 678.316 98.4465 678.315C98.2769 678.32 98.1108 678.365 97.9617 678.446C97.8126 678.527 97.6846 678.642 97.5881 678.782L70.3576 662.804V630.849C70.6265 630.816 70.8742 630.686 71.0544 630.484C71.2346 630.282 71.3349 630.021 71.3365 629.75C71.3389 629.599 71.308 629.45 71.2462 629.313L98.4315 613.351ZM98.567 580.131L107.935 574.634L126.671 563.641L153.886 579.619C153.861 579.763 153.861 579.911 153.886 580.055C153.884 580.325 153.981 580.586 154.159 580.788C154.337 580.991 154.583 581.121 154.85 581.155V613.095L127.575 629.072C127.473 628.932 127.339 628.818 127.185 628.74C127.03 628.661 126.859 628.62 126.686 628.62C126.518 628.623 126.352 628.665 126.203 628.743C126.053 628.822 125.925 628.934 125.828 629.072L117.333 624.088L98.5972 613.095L98.567 580.131ZM70.0564 530.436V562.376C69.7874 562.409 69.5397 562.539 69.3595 562.741C69.1793 562.944 69.079 563.205 69.0774 563.475C69.0752 563.631 69.106 563.785 69.1677 563.927L41.9523 579.89L14.767 563.927C14.8276 563.771 14.8524 563.604 14.8395 563.437C14.8265 563.271 14.7763 563.109 14.6924 562.964C14.6085 562.82 14.4931 562.696 14.3548 562.602C14.2165 562.508 14.0589 562.446 13.8935 562.421V530.436L41.124 514.459C41.2204 514.597 41.3488 514.711 41.4981 514.789C41.6475 514.868 41.8136 514.909 41.9824 514.91C42.1536 514.91 42.3222 514.87 42.4742 514.791C42.6262 514.712 42.7572 514.598 42.856 514.459L70.0564 530.436ZM98.4315 513.947L107.799 519.443L125.632 529.909C125.609 530.054 125.609 530.201 125.632 530.346C125.63 530.618 125.729 530.88 125.91 531.083C126.091 531.286 126.341 531.415 126.611 531.445V563.4L117.243 568.897L98.5068 579.89L71.2462 563.927C71.3068 563.77 71.3312 563.602 71.3174 563.434C71.3036 563.266 71.252 563.104 71.1665 562.959C71.081 562.814 70.9638 562.691 70.8237 562.597C70.6836 562.504 70.5243 562.444 70.3576 562.421V530.436L98.4315 513.947ZM98.567 480.727L107.935 475.245L126.671 464.252L153.886 480.215C153.864 480.359 153.864 480.507 153.886 480.651C153.884 480.921 153.981 481.182 154.159 481.384C154.337 481.587 154.583 481.717 154.85 481.751V513.706L127.575 529.683C127.473 529.541 127.34 529.425 127.186 529.344C127.032 529.263 126.86 529.219 126.686 529.216C126.516 529.222 126.35 529.267 126.201 529.348C126.052 529.429 125.924 529.544 125.828 529.683L117.333 524.684L98.5972 513.706L98.567 480.727ZM71.2462 464.523C71.3062 464.386 71.337 464.237 71.3365 464.087C71.3386 463.813 71.2399 463.548 71.0594 463.343C70.8789 463.137 70.6291 463.005 70.3576 462.972V431.032L98.4616 414.467L125.662 430.43C125.639 430.575 125.639 430.722 125.662 430.867C125.66 431.14 125.759 431.405 125.939 431.61C126.12 431.816 126.369 431.948 126.641 431.981V463.921L117.273 469.417L98.5369 480.41L71.2462 464.523ZM41.9674 415.507C42.1385 415.507 42.3072 415.466 42.4592 415.387C42.6112 415.308 42.7421 415.194 42.8409 415.055L51.3655 420.039L70.1015 431.032V462.987C69.834 463.021 69.588 463.151 69.4103 463.354C69.2326 463.556 69.1356 463.817 69.1376 464.087C69.1355 464.232 69.1664 464.376 69.228 464.508L42.8711 479.974C42.7722 479.834 42.6413 479.72 42.4893 479.641C42.3373 479.563 42.1686 479.522 41.9975 479.522C41.8287 479.523 41.6626 479.565 41.5132 479.643C41.3638 479.722 41.2355 479.835 41.139 479.974L13.8784 463.996V431.032L41.1089 415.055C41.2054 415.193 41.3337 415.307 41.4831 415.385C41.6325 415.464 41.7986 415.505 41.9674 415.507ZM42.118 381.338L51.486 375.841L70.207 364.848L97.4224 380.811C97.3623 380.949 97.3315 381.097 97.332 381.247C97.3336 381.518 97.434 381.779 97.6141 381.982C97.7943 382.184 98.042 382.314 98.311 382.347V414.302L70.207 430.791L60.8389 425.295L42.9915 414.829C43.0521 414.673 43.0769 414.506 43.064 414.339C43.051 414.172 43.0008 414.011 42.9169 413.866C42.833 413.721 42.7176 413.597 42.5793 413.503C42.441 413.409 42.2834 413.348 42.118 413.323V381.338ZM13.5923 331.643V363.598C13.3248 363.632 13.0788 363.762 12.9011 363.965C12.7233 364.167 12.6263 364.428 12.6284 364.698C12.6279 364.848 12.6587 364.997 12.7187 365.134L-14.4967 381.082L-42.6007 364.607V332.652C-42.3318 332.619 -42.0841 332.49 -41.9039 332.287C-41.7237 332.085 -41.6234 331.824 -41.6217 331.553C-41.6194 331.403 -41.6503 331.254 -41.7121 331.116L-14.4967 315.139L13.5923 331.643ZM41.9674 316.133C42.1396 316.13 42.3087 316.086 42.4606 316.005C42.6125 315.924 42.7429 315.807 42.8409 315.666L51.3655 320.635L70.1015 331.628V364.607L60.7335 370.104L41.9975 381.082L14.767 365.119C14.82 364.979 14.8505 364.832 14.8574 364.683C14.8557 364.412 14.7555 364.151 14.5753 363.948C14.3951 363.746 14.1474 363.616 13.8784 363.583V331.628L41.1089 315.651C41.2046 315.791 41.3324 315.907 41.4817 315.988C41.631 316.069 41.7975 316.114 41.9674 316.118V316.133ZM97.4224 281.422C97.3623 281.56 97.3315 281.708 97.332 281.859C97.3332 282.131 97.433 282.394 97.6129 282.599C97.7928 282.804 98.0408 282.937 98.311 282.973V314.913L70.207 331.387L60.8389 325.891L42.9915 315.35C43.0521 315.194 43.0769 315.026 43.064 314.86C43.051 314.693 43.0008 314.531 42.9169 314.387C42.833 314.242 42.7176 314.118 42.5793 314.024C42.441 313.93 42.2834 313.869 42.118 313.844V281.934L70.207 265.444L97.4224 281.422ZM126.671 265.444L136.024 270.941L153.871 281.482C153.849 281.627 153.849 281.774 153.871 281.919C153.872 282.189 153.97 282.45 154.147 282.655C154.323 282.859 154.568 282.994 154.835 283.033V314.973L127.56 330.875C127.463 330.733 127.333 330.616 127.181 330.535C127.028 330.454 126.859 330.411 126.686 330.411C126.514 330.411 126.344 330.454 126.192 330.535C126.039 330.616 125.909 330.733 125.813 330.875L98.5821 314.898V282.958C98.8523 282.922 99.1002 282.789 99.2802 282.584C99.4601 282.379 99.5599 282.116 99.5611 281.844C99.5615 281.693 99.5308 281.545 99.4707 281.407L126.671 265.444ZM127.695 231.712L136.175 226.743L154.896 215.75L183 232.239V264.179C182.732 264.213 182.486 264.343 182.308 264.546C182.131 264.748 182.034 265.009 182.036 265.279C182.003 265.422 182.003 265.572 182.036 265.715L155.694 281.181C155.599 281.038 155.47 280.921 155.319 280.84C155.168 280.759 154.999 280.716 154.828 280.716C154.656 280.716 154.487 280.759 154.336 280.84C154.185 280.921 154.057 281.038 153.962 281.181L145.467 276.196L126.731 265.203V233.263C127 233.224 127.246 233.09 127.426 232.886C127.605 232.682 127.706 232.421 127.71 232.149C127.733 232.004 127.733 231.857 127.71 231.712H127.695ZM98.311 182.53V215.494L71.0805 231.487C70.9839 231.344 70.8538 231.227 70.7015 231.146C70.5492 231.065 70.3794 231.023 70.207 231.023C70.0345 231.023 69.8647 231.065 69.7124 231.146C69.5601 231.227 69.43 231.344 69.3334 231.487L42.118 215.494V183.554C42.3855 183.521 42.6315 183.39 42.8092 183.188C42.9869 182.985 43.084 182.724 43.0819 182.455C43.0842 182.304 43.0534 182.155 42.9915 182.018L70.207 166.056L98.311 182.53ZM126.671 167.019C126.844 167.018 127.013 166.974 127.165 166.893C127.317 166.812 127.447 166.695 127.545 166.552L136.024 171.537L154.76 182.53V215.494L145.392 221.005L127.545 231.547C127.448 231.404 127.318 231.287 127.166 231.206C127.013 231.125 126.843 231.083 126.671 231.083C126.499 231.083 126.329 231.125 126.176 231.206C126.024 231.287 125.894 231.404 125.798 231.547L98.5821 215.494V182.53L125.813 166.552C125.908 166.693 126.036 166.808 126.185 166.89C126.335 166.971 126.501 167.015 126.671 167.019ZM154.896 117.325C155.067 117.325 155.235 117.284 155.387 117.205C155.539 117.127 155.67 117.013 155.769 116.873L164.264 121.858L183 132.851V164.791C182.731 164.827 182.485 164.961 182.307 165.166C182.13 165.371 182.033 165.634 182.036 165.905C182.006 166.049 182.006 166.198 182.036 166.342L154.82 182.304L145.467 176.808L127.62 166.266C127.673 166.126 127.703 165.979 127.71 165.83C127.709 165.557 127.609 165.294 127.429 165.089C127.249 164.884 127.001 164.752 126.731 164.715V132.836L153.962 116.858C154.068 117.009 154.211 117.129 154.377 117.209C154.543 117.288 154.727 117.323 154.911 117.31L154.896 117.325ZM155.046 83.1411L164.414 77.6446L183.135 66.6667L210.351 82.6291C210.29 82.7669 210.26 82.9156 210.26 83.0658C210.262 83.3367 210.362 83.5978 210.542 83.8001C210.722 84.0024 210.97 84.1322 211.239 84.1651V116.105L183.135 132.67L173.767 127.173L155.935 116.632C155.957 116.482 155.957 116.33 155.935 116.18C155.937 115.911 155.84 115.65 155.662 115.447C155.484 115.245 155.238 115.114 154.971 115.081L155.046 83.1411ZM154.896 17.9209C155.067 17.921 155.235 17.88 155.387 17.8014C155.539 17.7228 155.67 17.6089 155.769 17.4692L183.015 33.4316V66.3956L173.647 71.8921L154.911 82.8249L127.71 66.8624C127.763 66.7225 127.794 66.5751 127.801 66.4257C127.799 66.1548 127.699 65.8938 127.518 65.6915C127.338 65.4891 127.091 65.3594 126.822 65.3264V33.4316L154.052 17.4541C154.149 17.5918 154.278 17.7044 154.427 17.7829C154.576 17.8615 154.742 17.9036 154.911 17.9059L154.896 17.9209Z" fill="white"/>
</g>
</svg>
