<svg width="410" height="631" viewBox="0 0 410 631" fill="none" xmlns="http://www.w3.org/2000/svg">
<g opacity="0.3">
<g opacity="0.1">
<path opacity="0.3" d="M122.318 173.814L95.133 189.761L67.9326 173.814V141.889L95.133 125.941L122.318 141.889V173.814Z" fill="white"/>
<path opacity="0.6" d="M93.7474 123.503L66.547 139.466L39.3467 123.503V91.5933L66.547 75.6309L93.7474 91.5933V123.503Z" fill="white"/>
<path opacity="0.3" d="M122.318 73.1907L95.133 89.1531L67.9326 73.1907V41.2808L95.133 25.3184L122.318 41.2808V73.1907Z" fill="white"/>
<path opacity="0.1" d="M150.905 224.111L123.704 240.073L96.519 224.111V192.201L123.704 176.238L150.905 192.201V224.111Z" fill="white"/>
<path opacity="0.3" d="M179.49 375.032L152.29 390.995L125.089 375.032V343.123L152.29 327.16L179.49 343.123V375.032Z" fill="white"/>
<path opacity="0.6" d="M236.647 375.032L209.447 390.995L182.262 375.032V343.123L209.447 327.16L236.647 343.123V375.032Z" fill="white"/>
<path opacity="0.3" d="M208.061 224.111L180.876 240.073L153.676 224.111V192.201L180.876 176.238L208.061 192.201V224.111Z" fill="white"/>
<path opacity="0.6" d="M179.49 173.814L152.29 189.761L125.089 173.814V141.889L152.29 125.941L179.49 141.889V173.814Z" fill="white"/>
<path opacity="0.6" d="M179.49 274.423L152.29 290.37L125.089 274.423V242.498L152.29 226.551L179.49 242.498V274.423Z" fill="white"/>
<path opacity="0.3" d="M122.318 274.423L95.133 290.37L67.9326 274.423V242.498L95.133 226.551L122.318 242.498V274.423Z" fill="white"/>
<path opacity="0.6" d="M65.1615 274.423L37.9611 290.37L10.7607 274.423V242.498L37.9611 226.551L65.1615 242.498V274.423Z" fill="white"/>
<path opacity="0.1" d="M208.061 123.503L180.876 139.451L153.676 123.503V91.5783L180.876 75.6309L208.061 91.5783V123.503Z" fill="white"/>
<path opacity="0.1" d="M93.7474 324.721L66.547 340.683L39.3467 324.721V292.811L66.547 276.863L93.7474 292.811V324.721Z" fill="white"/>
<path opacity="0.6" d="M65.1615 375.032L37.9611 390.995L10.7607 375.032V343.123L37.9611 327.16L65.1615 343.123V375.032Z" fill="white"/>
<path opacity="0.1" d="M150.905 22.8938L123.704 38.8412L96.519 22.8938V-9.03111L123.704 -24.9785L150.905 -9.03111V22.8938Z" fill="white"/>
<path opacity="0.6" d="M179.49 73.1907L152.29 89.1531L125.089 73.1907V41.2808L152.29 25.3184L179.49 41.2808V73.1907Z" fill="white"/>
<path opacity="0.1" d="M208.061 324.721L180.876 340.683L153.676 324.721V292.811L180.876 276.863L208.061 292.811V324.721Z" fill="white"/>
</g>
<path d="M126.671 -29H126.596L98.2964 -12.4352V20.9956L126.476 37.5604V70.5395L98.2361 87.1043V120.234L70.1321 136.799L41.8925 120.234L13.5776 136.799V170.094L41.8775 186.659H41.9528L70.117 170.094L98.2211 186.568V219.547L70.2074 236.112L41.9678 219.547L13.653 236.112V269.242L-14.4963 285.822L-42.7358 269.257L-71.0356 285.822V319.117L-42.7208 335.682L-14.5414 319.117L13.5475 335.682V368.646L-14.6921 385.211V418.506L13.6078 435.071L41.9226 418.506V385.376L70.1472 368.811V335.607L41.9829 319.042V286.063L70.0719 269.498L98.3114 286.063L126.611 269.498V236.368L154.7 219.879L182.804 236.368V269.332L154.565 285.897V319.192L182.729 335.757V368.887H182.804L211.104 385.452H211.179L239.479 368.887V335.607H239.404L211.24 319.042V286.063L239.344 269.498L267.583 286.063L295.898 269.498V236.203H295.823L267.523 219.638H267.448L239.283 236.203L211.179 219.728V186.749L239.63 170.184L267.869 186.749L296.184 170.184V137.055L324.273 120.49L352.513 137.055L380.813 120.49V87.1043H380.737L352.588 70.3889H352.513L324.348 86.9537L296.244 70.5395V37.5604L324.469 20.9956V-12.2997L296.154 -28.8645L267.839 -12.2997V20.83L239.615 37.3948V70.69L267.779 87.2549V120.234L239.69 136.799L211.45 120.234H211.375L183.075 136.799V169.928L154.971 186.403L126.822 169.943V136.964L155.062 120.4V87.2699L183.301 70.7051V37.3948L155.137 20.83V-12.2997L126.671 -29ZM296.079 37.2592L286.711 31.7627L267.99 20.7697V-12.134L296.079 -28.6988L324.183 -12.134V20.83L296.079 37.2592ZM295.943 70.4792L286.575 75.9607L267.869 86.9537L239.765 70.5395V37.5604L267.869 21.086L277.283 26.5825L296.003 37.5604L295.943 70.4792ZM324.454 120.174V87.2699L352.558 70.7051L380.647 87.2699V120.234L352.558 136.799L324.454 120.174ZM296.079 136.738L286.711 131.242L267.99 120.249V87.2699L277.358 81.7734L296.079 70.7804L324.183 87.3452V120.234L296.079 136.738ZM239.75 169.958V136.979L267.854 120.415L277.222 125.911L295.943 136.904V169.883L267.854 186.358L239.75 169.958ZM211.375 186.433L201.977 180.921L183.256 169.943V136.964L211.345 120.4L239.449 136.964V169.943L211.375 186.433ZM239.75 269.347V236.368L267.854 219.879L295.943 236.368V269.332L267.854 285.822L239.75 269.347ZM183.301 335.772L192.654 330.276L211.39 319.283L239.494 335.848V368.811L211.39 385.301L183.301 368.736V335.772ZM183.151 269.513L192.519 275.009L211.255 286.002V318.981L201.887 324.463L183.151 335.456L155.062 318.981V286.002L183.151 269.513ZM183.301 236.308L192.654 230.812L211.39 219.819L239.494 236.308V269.272L211.39 285.762L201.977 280.325L183.256 269.332L183.301 236.308ZM155.062 219.578V186.599L183.151 170.124L192.519 175.621L211.255 186.599V219.578L201.887 225.074L183.151 236.052L155.062 219.578ZM13.7132 368.977L23.0812 374.474L41.8172 385.467V418.431L13.7132 434.92L-14.3607 418.431V385.467L13.7132 368.977ZM13.8638 335.848L23.2318 330.351L41.9528 319.358L70.0568 335.923V368.887L41.9678 385.211L32.5998 379.729L13.8789 368.736L13.8638 335.848ZM-14.6619 286.153V319.132L-42.7509 335.607L-70.8549 319.132V286.153L-42.7509 269.588L-14.6619 286.153ZM13.7132 269.588L23.0812 275.085L41.8172 286.078V319.057L32.4492 324.538L13.7132 335.516L-14.3607 319.042V286.063L13.7132 269.588ZM70.0568 236.383V269.347L41.9678 285.822L32.5998 280.325L13.8789 269.332V236.368L41.9678 219.879L70.0568 236.383ZM98.4319 219.894L107.8 225.39L126.536 236.383V269.347L98.447 285.822L70.3429 269.332V236.368L98.4319 219.894ZM98.5675 186.674L107.935 181.192L126.671 170.184L154.76 186.659V219.638L126.671 236.112L117.303 230.631L98.5675 219.638V186.674ZM70.0568 136.979V169.958L41.9678 186.418L13.8789 169.943V136.964L41.9678 120.4L70.0568 136.979ZM98.4319 120.415L107.8 125.911L126.536 136.904V169.883L117.168 175.365L98.4319 186.358L70.3429 169.943V136.964L98.4319 120.415ZM126.671 70.7202L136.024 76.2167L154.76 87.2097V120.234L126.671 136.723L117.303 131.227L98.5675 120.234V87.2699L126.671 70.7202ZM126.807 37.5002L136.175 32.0187L154.896 21.0257L183 37.5002V70.4792L154.911 86.9537L145.558 81.4722L126.822 70.5395L126.807 37.5002ZM126.671 -28.6235L154.76 -12.0587V20.83L145.392 26.3265L126.671 37.2592L98.5675 20.6944V-12.134L126.671 -28.6235Z" fill="white"/>
<path d="M154.911 -13.3379C154.618 -13.3339 154.338 -13.2148 154.132 -13.0062C153.926 -12.7977 153.811 -12.5165 153.811 -12.2235C153.787 -12.0739 153.787 -11.9214 153.811 -11.7718L126.551 4.26598V36.3867C126.282 36.4196 126.034 36.5494 125.854 36.7517C125.674 36.954 125.573 37.2151 125.572 37.486C125.572 37.7829 125.688 38.0679 125.897 38.2793C126.106 38.4907 126.389 38.6114 126.686 38.6154C126.859 38.6138 127.028 38.5705 127.18 38.4892C127.332 38.4079 127.462 38.291 127.56 38.1485L154.775 54.1261V86.0811C154.508 86.1143 154.262 86.2446 154.084 86.4473C153.906 86.65 153.809 86.9109 153.811 87.1804C153.788 87.3301 153.788 87.4824 153.811 87.6321L126.551 103.67V135.776C126.279 135.809 126.029 135.941 125.849 136.146C125.668 136.352 125.57 136.616 125.572 136.89C125.571 137.04 125.602 137.189 125.662 137.327L98.4465 153.289L70.207 136.724L42.8409 152.777C42.7421 152.637 42.6112 152.523 42.4592 152.445C42.3072 152.366 42.1385 152.325 41.9674 152.325C41.6718 152.307 41.3812 152.407 41.1594 152.604C40.9377 152.8 40.8031 153.076 40.7851 153.372C40.7671 153.667 40.8673 153.958 41.0636 154.18C41.2599 154.401 41.5362 154.536 41.8318 154.554V186.66L69.1075 202.667C69.0474 202.805 69.0167 202.954 69.0171 203.104C69.0171 203.4 69.1346 203.683 69.3436 203.892C69.5526 204.101 69.8361 204.218 70.1316 204.218C70.4272 204.218 70.7107 204.101 70.9197 203.892C71.1288 203.683 71.2462 203.4 71.2462 203.104C71.2466 202.954 71.2159 202.805 71.1558 202.667L98.3712 186.705L125.572 202.667C125.549 202.812 125.549 202.959 125.572 203.104C125.573 203.377 125.673 203.639 125.852 203.844C126.032 204.049 126.28 204.182 126.551 204.218V236.158L99.3201 252.181C99.2203 252.041 99.0895 251.926 98.938 251.845C98.7865 251.764 98.6183 251.719 98.4465 251.714C98.2743 251.717 98.1053 251.761 97.9534 251.842C97.8014 251.923 97.671 252.039 97.573 252.181L70.207 236.113L41.8921 252.678V284.784C41.6231 284.816 41.3754 284.946 41.1952 285.149C41.015 285.351 40.9148 285.612 40.9131 285.883C40.9184 286.037 40.9489 286.19 41.0035 286.335L13.7128 302.387L-14.5118 285.823L-41.8627 301.875C-41.9633 301.737 -42.0945 301.625 -42.2462 301.546C-42.3978 301.468 -42.5656 301.426 -42.7363 301.424C-42.8839 301.424 -43.0301 301.453 -43.1663 301.51C-43.3025 301.567 -43.426 301.65 -43.5297 301.755C-43.6334 301.86 -43.7152 301.985 -43.7703 302.122C-43.8254 302.259 -43.8528 302.405 -43.8508 302.553C-43.8491 302.824 -43.7488 303.085 -43.5687 303.287C-43.3885 303.49 -43.1408 303.619 -42.8718 303.652V335.773L-14.5569 352.338L12.7488 336.315C12.8459 336.455 12.9754 336.569 13.1262 336.648C13.277 336.727 13.4447 336.768 13.6149 336.768C13.785 336.768 13.9527 336.727 14.1035 336.648C14.2543 336.569 14.3838 336.455 14.4809 336.315L41.7113 352.293V384.233C41.4424 384.266 41.1947 384.395 41.0145 384.598C40.8343 384.8 40.734 385.061 40.7324 385.332C40.7376 385.486 40.7682 385.639 40.8227 385.784L13.5923 401.867V435.162L40.8679 451.169C40.8149 451.309 40.7844 451.457 40.7776 451.606C40.7776 451.902 40.895 452.185 41.104 452.394C41.313 452.603 41.5965 452.721 41.8921 452.721C42.1877 452.721 42.4711 452.603 42.6802 452.394C42.8892 452.185 43.0066 451.902 43.0066 451.606C43.0071 451.456 42.9763 451.307 42.9162 451.169L69.2581 435.719C69.3618 435.857 69.4958 435.97 69.6499 436.048C69.8039 436.127 69.9739 436.168 70.1467 436.171C70.3192 436.169 70.4887 436.126 70.6408 436.045C70.7929 435.963 70.9231 435.846 71.0203 435.704L98.2507 451.682V484.661L70.222 501.195L43.0066 485.218C43.0684 485.081 43.0993 484.931 43.097 484.781C43.097 484.485 42.9796 484.202 42.7705 483.993C42.5615 483.784 42.278 483.667 41.9824 483.667C41.6869 483.667 41.4034 483.784 41.1944 483.993C40.9853 484.202 40.8679 484.485 40.8679 484.781C40.8656 484.931 40.8964 485.081 40.9583 485.218L13.6073 501.271V533.376C13.3398 533.409 13.0938 533.54 12.9161 533.742C12.7384 533.945 12.6414 534.206 12.6434 534.475C12.6394 534.772 12.7524 535.059 12.9582 535.273C13.164 535.487 13.4459 535.612 13.7429 535.62C13.9153 535.618 14.0849 535.575 14.237 535.494C14.3891 535.412 14.5193 535.296 14.6164 535.153L41.9824 551.206L69.2732 535.183C69.3697 535.326 69.4998 535.443 69.6521 535.524C69.8044 535.605 69.9743 535.647 70.1467 535.647C70.3192 535.647 70.489 535.605 70.6413 535.524C70.7936 535.443 70.9237 535.326 71.0203 535.183L98.2507 551.161V584.125L71.0956 600.072C70.9968 599.932 70.8659 599.818 70.7139 599.739C70.5619 599.661 70.3932 599.62 70.222 599.62C70.0508 599.62 69.8821 599.661 69.7301 599.739C69.5781 599.818 69.4472 599.932 69.3485 600.072L41.9824 584.019L14.6164 600.072C14.5185 599.931 14.3878 599.817 14.2356 599.738C14.0834 599.659 13.9142 599.619 13.7429 599.62C13.4473 599.602 13.1567 599.703 12.9349 599.899C12.7132 600.095 12.5786 600.371 12.5606 600.667C12.5426 600.962 12.6428 601.253 12.8391 601.475C13.0354 601.696 13.3117 601.831 13.6073 601.849V633.804L-13.6232 649.782C-13.7194 649.638 -13.8494 649.521 -14.0017 649.439C-14.154 649.358 -14.324 649.315 -14.4967 649.315C-14.6664 649.32 -14.8324 649.365 -14.9815 649.446C-15.1306 649.527 -15.2586 649.642 -15.3552 649.782L-42.7212 633.714L-71.021 650.279V682.384C-71.2912 682.421 -71.5392 682.553 -71.7191 682.758C-71.899 682.963 -71.9988 683.226 -72 683.499C-71.9961 683.797 -71.8758 684.082 -71.6648 684.293C-71.4538 684.504 -71.1688 684.624 -70.8704 684.628C-70.7015 684.619 -70.5367 684.573 -70.3881 684.492C-70.2395 684.411 -70.1109 684.298 -70.0119 684.161L-42.6459 700.229H-42.5706L-14.4063 683.664L12.794 699.627C12.746 699.772 12.7206 699.925 12.7187 700.078C12.7167 700.348 12.8137 700.609 12.9914 700.811C13.1691 701.014 13.4151 701.144 13.6826 701.178V733.118L-14.5569 749.682V781.788C-14.8525 781.808 -15.1281 781.945 -15.323 782.168C-15.5179 782.391 -15.6161 782.682 -15.5962 782.978C-15.5762 783.273 -15.4396 783.549 -15.2165 783.744C-14.9933 783.938 -14.7019 784.037 -14.4063 784.017C-14.2375 784.016 -14.0714 783.974 -13.922 783.895C-13.7726 783.817 -13.6443 783.703 -13.5478 783.565L13.7128 799.708H13.7881L42.1029 783.143V750.947C42.3704 750.914 42.6164 750.784 42.7941 750.581C42.9718 750.379 43.0689 750.118 43.0668 749.848C43.0692 749.698 43.0383 749.549 42.9765 749.411L70.3275 733.359V700.063L42.1632 683.499V651.559C42.4306 651.519 42.675 651.385 42.8519 651.18C43.0288 650.976 43.1264 650.715 43.1271 650.444C43.1276 650.294 43.0968 650.145 43.0367 650.007L70.2521 634.045L97.4676 650.007C97.408 650.176 97.3892 650.356 97.4127 650.533C97.4362 650.71 97.5013 650.879 97.6027 651.026C97.7041 651.173 97.8389 651.293 97.9961 651.378C98.1532 651.463 98.3283 651.509 98.5068 651.513C98.6532 651.511 98.7977 651.481 98.9321 651.423C99.0666 651.365 99.1884 651.281 99.2905 651.176C99.3926 651.071 99.473 650.948 99.5272 650.812C99.5814 650.676 99.6082 650.53 99.6062 650.384C99.6067 650.234 99.5759 650.085 99.5159 649.947L126.867 633.894V601.849C127.136 601.816 127.384 601.686 127.564 601.484C127.744 601.282 127.844 601.021 127.846 600.75C127.841 600.6 127.81 600.452 127.755 600.313L154.956 584.351L183.06 600.84V633.804L155.829 649.782C155.733 649.638 155.603 649.521 155.451 649.439C155.299 649.358 155.129 649.315 154.956 649.315C154.676 649.326 154.41 649.44 154.209 649.636C154.009 649.832 153.888 650.095 153.871 650.375C153.855 650.655 153.942 650.931 154.118 651.15C154.293 651.368 154.543 651.514 154.82 651.559V683.499L126.596 700.063V732.184C126.412 732.203 126.236 732.268 126.083 732.373C125.93 732.478 125.806 732.619 125.722 732.783C125.637 732.948 125.595 733.131 125.599 733.316C125.603 733.5 125.653 733.681 125.744 733.842C125.836 734.003 125.965 734.139 126.122 734.237C126.279 734.335 126.458 734.393 126.642 734.404C126.827 734.416 127.012 734.382 127.18 734.304C127.348 734.227 127.494 734.109 127.605 733.961L154.82 749.938V783.068L182.096 799.076C182.038 799.214 182.012 799.363 182.021 799.512C182.019 799.659 182.045 799.804 182.1 799.94C182.154 800.076 182.234 800.2 182.336 800.305C182.438 800.41 182.56 800.493 182.695 800.551C182.829 800.609 182.974 800.64 183.12 800.642C183.417 800.638 183.701 800.517 183.909 800.306C184.118 800.094 184.235 799.809 184.235 799.512C184.238 799.362 184.208 799.212 184.144 799.076L211.495 783.023V750.947C211.791 750.929 212.067 750.795 212.263 750.573C212.46 750.351 212.56 750.061 212.542 749.765C212.524 749.47 212.389 749.193 212.168 748.997C211.946 748.801 211.655 748.701 211.36 748.719C211.187 748.72 211.018 748.764 210.866 748.845C210.713 748.926 210.583 749.043 210.486 749.185L183.301 733.208V701.253C183.57 701.22 183.817 701.09 183.998 700.888C184.178 700.686 184.278 700.425 184.28 700.154C184.28 699.999 184.249 699.845 184.189 699.702L211.54 683.664V651.559C211.811 651.522 212.059 651.389 212.238 651.185C212.418 650.98 212.518 650.717 212.519 650.444C212.52 650.294 212.489 650.145 212.429 650.007L239.629 634.045L267.869 650.61L295.175 634.587C295.271 634.726 295.4 634.839 295.549 634.918C295.698 634.996 295.864 635.038 296.033 635.039C296.329 635.057 296.619 634.957 296.841 634.76C297.063 634.564 297.198 634.288 297.215 633.992C297.233 633.697 297.133 633.406 296.937 633.184C296.741 632.963 296.464 632.828 296.169 632.81V600.674L268.893 584.667C268.941 584.526 268.967 584.379 268.968 584.23C268.987 584.074 268.972 583.916 268.924 583.766C268.877 583.616 268.798 583.477 268.694 583.36C268.589 583.242 268.461 583.148 268.318 583.084C268.174 583.02 268.019 582.986 267.861 582.986C267.704 582.986 267.549 583.02 267.405 583.084C267.262 583.148 267.133 583.242 267.029 583.36C266.924 583.477 266.846 583.616 266.798 583.766C266.751 583.916 266.736 584.074 266.754 584.23C266.732 584.375 266.732 584.522 266.754 584.667L239.629 600.584L212.414 584.622C212.474 584.484 212.505 584.335 212.504 584.185C212.503 583.914 212.402 583.653 212.222 583.451C212.042 583.248 211.794 583.119 211.525 583.086V551.131L238.756 535.153C238.854 535.295 238.984 535.411 239.136 535.492C239.288 535.573 239.457 535.617 239.629 535.62C239.801 535.615 239.969 535.57 240.121 535.489C240.272 535.408 240.403 535.293 240.503 535.153L267.869 551.206L296.184 534.641V502.46C296.349 502.435 296.507 502.374 296.645 502.28C296.783 502.186 296.899 502.062 296.983 501.917C297.067 501.773 297.117 501.611 297.13 501.444C297.143 501.278 297.118 501.11 297.057 500.954L324.273 484.992L352.512 501.557H352.588L379.878 485.534C379.977 485.674 380.108 485.788 380.26 485.866C380.412 485.945 380.581 485.986 380.752 485.986C381.048 486.004 381.338 485.904 381.56 485.707C381.782 485.511 381.916 485.235 381.934 484.939C381.952 484.644 381.852 484.353 381.656 484.131C381.459 483.91 381.183 483.775 380.887 483.757V451.561L352.588 434.996H352.512L325.222 451.004C325.123 450.864 324.992 450.75 324.84 450.671C324.688 450.592 324.519 450.551 324.348 450.551C324.177 450.551 324.008 450.592 323.856 450.671C323.704 450.75 323.573 450.864 323.474 451.004L296.259 434.996V403.056C296.527 403.023 296.773 402.893 296.95 402.69C297.128 402.487 297.225 402.226 297.223 401.957C297.223 401.803 297.197 401.651 297.148 401.505L324.484 385.467V352.172L297.208 336.165C297.256 336.024 297.281 335.876 297.283 335.728C297.302 335.572 297.286 335.413 297.239 335.263C297.192 335.113 297.113 334.975 297.009 334.858C296.904 334.74 296.776 334.646 296.633 334.582C296.489 334.517 296.334 334.484 296.176 334.484C296.019 334.484 295.863 334.517 295.72 334.582C295.576 334.646 295.448 334.74 295.344 334.858C295.239 334.975 295.161 335.113 295.113 335.263C295.066 335.413 295.051 335.572 295.069 335.728C295.046 335.873 295.046 336.02 295.069 336.165L268.742 351.615C268.639 351.477 268.505 351.364 268.351 351.286C268.197 351.207 268.027 351.166 267.854 351.163C267.681 351.164 267.511 351.206 267.359 351.288C267.207 351.369 267.077 351.487 266.98 351.63L239.75 335.653V302.674L267.854 286.109L295.054 302.086C295 302.226 294.969 302.373 294.964 302.523C294.964 302.818 295.081 303.102 295.29 303.311C295.499 303.52 295.783 303.637 296.078 303.637C296.374 303.637 296.657 303.52 296.866 303.311C297.075 303.102 297.193 302.818 297.193 302.523C297.217 302.378 297.217 302.231 297.193 302.086L324.529 286.033V253.958C324.798 253.925 325.045 253.795 325.226 253.593C325.406 253.391 325.506 253.129 325.508 252.859C325.51 252.71 325.482 252.563 325.428 252.425C325.373 252.287 325.291 252.162 325.188 252.056C325.084 251.949 324.961 251.864 324.824 251.806C324.688 251.747 324.542 251.716 324.393 251.714C324.221 251.719 324.053 251.764 323.902 251.845C323.75 251.926 323.619 252.041 323.52 252.181L296.108 236.113H296.033L268.727 252.136C268.632 251.995 268.504 251.88 268.355 251.799C268.205 251.717 268.039 251.673 267.869 251.669C267.697 251.672 267.528 251.716 267.376 251.797C267.224 251.878 267.093 251.994 266.995 252.136L239.765 236.158V203.239L266.995 187.262C267.094 187.402 267.225 187.516 267.377 187.594C267.529 187.673 267.698 187.714 267.869 187.714C268.038 187.713 268.204 187.671 268.353 187.592C268.503 187.514 268.631 187.4 268.727 187.262L296.093 203.315L323.384 187.307C323.485 187.445 323.616 187.558 323.768 187.636C323.919 187.715 324.087 187.757 324.258 187.759C324.553 187.777 324.844 187.677 325.066 187.48C325.287 187.284 325.422 187.008 325.44 186.712C325.458 186.417 325.358 186.126 325.161 185.904C324.965 185.683 324.689 185.548 324.393 185.53V153.53L351.624 137.552C351.721 137.695 351.851 137.812 352.003 137.893C352.155 137.974 352.325 138.018 352.497 138.019C352.669 138.014 352.837 137.969 352.989 137.888C353.14 137.807 353.271 137.692 353.371 137.552L380.737 153.62L409.052 137.056V104.86C409.329 104.814 409.58 104.667 409.755 104.447C409.93 104.227 410.016 103.95 409.997 103.669C409.979 103.389 409.856 103.125 409.653 102.93C409.45 102.736 409.182 102.623 408.901 102.616C408.731 102.62 408.565 102.664 408.415 102.745C408.266 102.827 408.138 102.942 408.043 103.083L380.812 86.9545H380.737L352.573 103.519L325.357 87.5568C325.416 87.4135 325.447 87.2601 325.447 87.1051C325.446 86.8342 325.346 86.5732 325.165 86.3708C324.985 86.1685 324.737 86.0387 324.469 86.0058V54.1411L352.708 37.5763V5.45563C352.854 5.44575 352.997 5.40713 353.129 5.342C353.26 5.27686 353.378 5.18648 353.474 5.07601C353.571 4.96554 353.644 4.83714 353.691 4.69816C353.738 4.55918 353.757 4.41232 353.747 4.26598C353.737 4.11964 353.699 3.97669 353.634 3.84527C353.569 3.71385 353.478 3.59655 353.368 3.50006C353.257 3.40357 353.129 3.3298 352.99 3.28293C352.851 3.23606 352.704 3.21703 352.557 3.22692C352.389 3.22922 352.223 3.27135 352.074 3.34986C351.925 3.42838 351.796 3.54104 351.699 3.67868L324.333 -12.4344L296.018 4.13045V36.3867C295.748 36.423 295.5 36.5558 295.32 36.7606C295.14 36.9655 295.04 37.2284 295.039 37.501C295.046 37.6456 295.077 37.788 295.13 37.9227L267.718 53.9755V87.2708L295.883 103.836V135.776C295.612 135.812 295.364 135.945 295.184 136.15C295.005 136.354 294.905 136.617 294.904 136.89C294.91 137.039 294.941 137.187 294.994 137.327L267.794 153.289L240.578 137.327C240.64 137.184 240.671 137.03 240.669 136.875C240.669 136.728 240.64 136.584 240.584 136.448C240.528 136.313 240.446 136.19 240.342 136.087C240.239 135.983 240.116 135.901 239.981 135.845C239.845 135.789 239.7 135.76 239.554 135.76C239.408 135.76 239.263 135.789 239.128 135.845C238.992 135.901 238.869 135.983 238.766 136.087C238.662 136.19 238.58 136.313 238.524 136.448C238.468 136.584 238.44 136.728 238.44 136.875C238.439 137.025 238.47 137.174 238.53 137.312L211.254 153.364V185.485C210.985 185.518 210.738 185.648 210.557 185.85C210.377 186.052 210.277 186.313 210.275 186.584C210.275 186.735 210.306 186.883 210.366 187.021L183.15 202.983L155.061 186.419V153.53L182.292 137.552C182.385 137.696 182.512 137.813 182.662 137.895C182.812 137.976 182.98 138.019 183.15 138.019C183.447 138.015 183.731 137.895 183.939 137.683C184.148 137.472 184.265 137.187 184.265 136.89C184.267 136.619 184.171 136.356 183.993 136.151C183.816 135.946 183.57 135.812 183.301 135.776V103.836L211.525 87.2708V55.1501C211.709 55.1305 211.885 55.0656 212.038 54.961C212.191 54.8564 212.315 54.7154 212.399 54.5509C212.484 54.3864 212.526 54.2034 212.522 54.0185C212.518 53.8336 212.468 53.6525 212.377 53.4917C212.286 53.3309 212.156 53.1953 211.999 53.0972C211.842 52.9991 211.663 52.9416 211.479 52.9298C211.294 52.9181 211.109 52.9524 210.941 53.0298C210.773 53.1072 210.627 53.2252 210.516 53.3731L183.301 37.3956V4.26598L155.95 -11.7718C155.974 -11.9214 155.974 -12.0739 155.95 -12.2235C155.95 -12.5065 155.843 -12.7791 155.65 -12.986C155.457 -13.193 155.193 -13.3188 154.911 -13.3379ZM324.333 53.8249L314.935 48.3886L297.087 37.8474C297.148 37.7096 297.178 37.5609 297.178 37.4107C297.18 37.1411 297.083 36.8802 296.905 36.6776C296.727 36.4749 296.481 36.3446 296.214 36.3114V4.43163L324.303 -12.1332L351.518 3.84433C351.456 3.98149 351.426 4.1306 351.428 4.28104C351.43 4.55194 351.53 4.81298 351.71 5.0153C351.89 5.21763 352.138 5.3474 352.407 5.38034V37.4107L324.333 53.8249ZM314.829 92.5414L296.093 103.534L268.004 86.9696V54.1411L295.235 38.1636C295.334 38.3033 295.465 38.4172 295.617 38.4959C295.769 38.5745 295.937 38.6155 296.108 38.6154C296.277 38.6143 296.443 38.5727 296.593 38.4941C296.742 38.4155 296.871 38.3021 296.967 38.1636L305.461 43.1481L324.197 54.1411V86.0811C323.927 86.1174 323.679 86.2503 323.499 86.4551C323.319 86.6599 323.22 86.9229 323.218 87.1954C323.225 87.34 323.256 87.4824 323.309 87.6171L314.829 92.5414ZM353.597 137.266C353.658 137.124 353.689 136.97 353.687 136.815C353.685 136.544 353.585 136.283 353.405 136.08C353.225 135.878 352.977 135.748 352.708 135.715V103.836L380.812 87.2708L408.012 103.233C407.963 103.379 407.938 103.531 407.937 103.685C407.935 103.954 408.032 104.215 408.21 104.418C408.388 104.621 408.634 104.751 408.901 104.784V136.8L380.812 153.364L353.597 137.266ZM324.333 153.229L314.935 147.793L297.087 137.251C297.148 137.114 297.178 136.965 297.178 136.815C297.18 136.543 297.084 136.281 296.906 136.075C296.729 135.87 296.483 135.737 296.214 135.7V103.836L305.582 98.339L323.429 87.7978C323.531 87.9378 323.665 88.0517 323.819 88.1302C323.974 88.2087 324.145 88.2496 324.318 88.2496C324.486 88.2449 324.651 88.2018 324.8 88.1235C324.949 88.0451 325.077 87.9337 325.176 87.7978L352.407 103.775V135.715C352.137 135.752 351.889 135.884 351.709 136.089C351.529 136.294 351.429 136.557 351.428 136.83C351.427 136.98 351.458 137.129 351.518 137.266L324.333 153.229ZM268.893 186.961C268.916 186.816 268.916 186.669 268.893 186.524C268.895 186.255 268.798 185.994 268.62 185.791C268.443 185.588 268.197 185.458 267.929 185.425V153.53L295.16 137.552C295.253 137.696 295.38 137.813 295.53 137.895C295.68 137.976 295.847 138.019 296.018 138.019C296.191 138.019 296.361 137.976 296.513 137.895C296.665 137.813 296.795 137.696 296.892 137.552L305.386 142.537L324.122 153.53V185.485C323.853 185.518 323.605 185.648 323.425 185.85C323.245 186.052 323.145 186.313 323.143 186.584C323.143 186.735 323.173 186.883 323.233 187.021L296.018 202.983L268.893 186.961ZM239.629 202.983L230.261 197.487L212.414 186.946C212.474 186.808 212.505 186.659 212.504 186.509C212.503 186.238 212.402 185.977 212.222 185.775C212.042 185.572 211.794 185.443 211.525 185.41V153.53L238.756 137.552C238.853 137.695 238.983 137.812 239.135 137.893C239.287 137.974 239.457 138.018 239.629 138.019C239.801 138.014 239.969 137.969 240.121 137.888C240.272 137.807 240.403 137.692 240.503 137.552L267.718 153.53V185.485C267.451 185.518 267.205 185.649 267.027 185.851C266.849 186.054 266.752 186.315 266.754 186.584C266.754 186.735 266.785 186.883 266.845 187.021L239.629 202.983ZM239.494 236.203L230.126 241.7L211.39 252.693L184.174 236.715C184.238 236.579 184.269 236.429 184.265 236.279C184.267 236.009 184.17 235.748 183.992 235.546C183.814 235.343 183.568 235.213 183.301 235.179V203.239L210.516 187.262C210.615 187.402 210.746 187.516 210.898 187.595C211.05 187.673 211.219 187.714 211.39 187.714C211.561 187.714 211.73 187.673 211.882 187.595C212.034 187.516 212.165 187.402 212.263 187.262L220.758 192.246L239.494 203.239V236.203ZM183.15 237.408C183.321 237.406 183.489 237.364 183.64 237.285C183.792 237.207 183.923 237.094 184.024 236.956L211.254 252.934V284.889C210.985 284.922 210.738 285.052 210.557 285.254C210.377 285.456 210.277 285.717 210.275 285.988C210.275 286.139 210.306 286.287 210.366 286.425L183.015 302.478V334.583C182.831 334.603 182.655 334.668 182.502 334.772C182.349 334.877 182.225 335.018 182.141 335.183C182.056 335.347 182.014 335.53 182.018 335.715C182.022 335.9 182.072 336.081 182.163 336.242C182.254 336.403 182.384 336.538 182.541 336.636C182.698 336.734 182.877 336.792 183.061 336.804C183.246 336.815 183.431 336.781 183.599 336.704C183.767 336.626 183.913 336.508 184.024 336.36L211.254 352.338V384.278C211.064 384.292 210.881 384.354 210.722 384.459C210.563 384.563 210.432 384.705 210.343 384.873C210.254 385.041 210.208 385.229 210.211 385.419C210.213 385.61 210.264 385.796 210.358 385.962C210.452 386.127 210.586 386.266 210.748 386.366C210.91 386.466 211.095 386.523 211.285 386.532C211.475 386.541 211.664 386.502 211.835 386.419C212.006 386.336 212.154 386.21 212.263 386.055L239.494 402.047V433.987C239.226 434.021 238.98 434.151 238.803 434.354C238.625 434.556 238.528 434.817 238.53 435.087C238.53 435.384 238.647 435.669 238.855 435.88C239.064 436.091 239.347 436.212 239.644 436.216C239.817 436.214 239.986 436.171 240.138 436.09C240.291 436.009 240.421 435.892 240.518 435.749L267.733 451.727V484.706L239.629 501.195L212.414 485.218C212.476 485.081 212.507 484.931 212.504 484.781C212.504 484.635 212.475 484.49 212.419 484.355C212.363 484.219 212.281 484.096 212.178 483.993C212.074 483.89 211.952 483.807 211.816 483.751C211.681 483.695 211.536 483.667 211.39 483.667C211.243 483.667 211.098 483.695 210.963 483.751C210.828 483.807 210.705 483.89 210.602 483.993C210.498 484.096 210.416 484.219 210.36 484.355C210.304 484.49 210.275 484.635 210.275 484.781C210.273 484.931 210.304 485.081 210.366 485.218L183.015 501.271V533.376C182.746 533.413 182.5 533.546 182.322 533.751C182.145 533.956 182.048 534.219 182.051 534.49C182.045 534.64 182.071 534.789 182.126 534.927L155.784 550.378C155.687 550.238 155.558 550.124 155.407 550.045C155.256 549.966 155.088 549.925 154.918 549.925C154.748 549.925 154.58 549.966 154.429 550.045C154.279 550.124 154.149 550.238 154.052 550.378L126.837 534.4V502.445C127.106 502.412 127.353 502.282 127.534 502.08C127.714 501.878 127.814 501.617 127.816 501.346C127.809 501.196 127.778 501.049 127.725 500.909L155.076 484.871V452.751C155.223 452.741 155.366 452.702 155.497 452.637C155.628 452.572 155.746 452.482 155.842 452.371C155.939 452.261 156.013 452.132 156.059 451.993C156.106 451.854 156.125 451.707 156.116 451.561C156.106 451.415 156.067 451.272 156.002 451.14C155.937 451.009 155.846 450.892 155.736 450.795C155.625 450.699 155.497 450.625 155.358 450.578C155.219 450.531 155.072 450.512 154.926 450.522C154.757 450.524 154.591 450.566 154.442 450.645C154.293 450.723 154.165 450.836 154.067 450.974L126.837 434.996V403.056C127.107 403.02 127.355 402.887 127.535 402.682C127.715 402.477 127.814 402.215 127.816 401.942C127.812 401.644 127.692 401.359 127.481 401.148C127.27 400.937 126.984 400.816 126.686 400.812C126.516 400.818 126.35 400.863 126.201 400.944C126.052 401.025 125.924 401.14 125.828 401.279L98.5821 385.302V353.347C98.851 353.314 99.0987 353.184 99.2789 352.982C99.4591 352.779 99.5594 352.518 99.5611 352.247C99.5611 351.951 99.4441 351.666 99.2355 351.454C99.027 351.243 98.7435 351.122 98.4465 351.118C98.2738 351.118 98.1038 351.161 97.9515 351.243C97.7992 351.324 97.6692 351.441 97.573 351.585L70.3425 335.607V302.628L98.4465 286.064L125.647 302.041C125.623 302.186 125.623 302.333 125.647 302.478C125.647 302.773 125.764 303.057 125.973 303.266C126.182 303.475 126.466 303.592 126.761 303.592C127.057 303.592 127.34 303.475 127.549 303.266C127.758 303.057 127.876 302.773 127.876 302.478C127.871 302.328 127.84 302.18 127.786 302.041L155.137 285.988V253.958C155.404 253.918 155.648 253.784 155.825 253.579C156.002 253.375 156.1 253.114 156.1 252.844C156.123 252.699 156.123 252.552 156.1 252.407L182.427 236.956C182.512 237.076 182.619 237.178 182.743 237.255C182.867 237.333 183.006 237.385 183.15 237.408ZM268.004 285.898V253.958C268.272 253.925 268.518 253.794 268.696 253.592C268.873 253.389 268.97 253.128 268.968 252.859C268.993 252.709 268.993 252.556 268.968 252.407L296.184 236.444L323.384 252.407C323.322 252.549 323.292 252.703 323.294 252.859C323.295 253.129 323.396 253.391 323.576 253.593C323.756 253.795 324.004 253.925 324.273 253.958V285.898L297.042 301.875C296.943 301.736 296.813 301.622 296.661 301.543C296.509 301.465 296.34 301.424 296.169 301.424C296 301.425 295.834 301.466 295.684 301.545C295.535 301.624 295.407 301.737 295.31 301.875L268.004 285.898ZM239.629 302.387L230.261 296.891L212.414 286.35C212.474 286.212 212.505 286.063 212.504 285.913C212.506 285.641 212.407 285.378 212.226 285.175C212.045 284.972 211.796 284.843 211.525 284.814V252.934L220.893 247.437L239.629 236.444L266.845 252.407C266.784 252.563 266.759 252.73 266.772 252.897C266.785 253.064 266.836 253.225 266.919 253.37C267.003 253.514 267.119 253.638 267.257 253.732C267.395 253.826 267.553 253.888 267.718 253.913V285.853L239.629 302.387ZM239.494 335.607L230.126 341.104L211.39 352.082L184.174 336.119C184.234 335.982 184.265 335.833 184.265 335.683C184.267 335.413 184.17 335.152 183.992 334.95C183.814 334.747 183.568 334.617 183.301 334.583V302.628L210.516 286.651C210.613 286.794 210.743 286.911 210.895 286.992C211.048 287.072 211.217 287.115 211.39 287.115C211.562 287.115 211.732 287.072 211.884 286.992C212.037 286.911 212.167 286.794 212.263 286.651L220.758 291.635L239.494 302.628V335.607ZM266.845 351.811C266.784 351.967 266.759 352.134 266.772 352.301C266.785 352.467 266.836 352.629 266.919 352.774C267.003 352.918 267.119 353.042 267.257 353.136C267.395 353.23 267.553 353.292 267.718 353.317V385.272L239.629 401.791L212.414 385.829C212.474 385.691 212.505 385.542 212.504 385.392C212.506 385.119 212.408 384.854 212.227 384.648C212.047 384.443 211.797 384.311 211.525 384.278V352.338L220.893 346.841L239.629 335.848L266.845 351.811ZM296.124 400.828C295.952 400.827 295.784 400.868 295.632 400.947C295.48 401.026 295.349 401.14 295.25 401.279L286.756 396.295L268.02 385.302V353.347C268.284 353.31 268.527 353.178 268.701 352.976C268.876 352.774 268.971 352.515 268.968 352.247C268.993 352.108 268.993 351.965 268.968 351.826L295.325 336.36C295.422 336.5 295.552 336.614 295.703 336.693C295.853 336.772 296.021 336.813 296.191 336.813C296.362 336.813 296.529 336.772 296.68 336.693C296.831 336.614 296.96 336.5 297.057 336.36L324.288 352.338V385.302L297.057 401.279C296.953 401.131 296.812 401.012 296.649 400.933C296.486 400.854 296.305 400.817 296.124 400.828ZM295.973 434.996L286.605 440.493L267.884 451.486L240.669 435.523C240.729 435.386 240.759 435.237 240.759 435.087C240.757 434.816 240.657 434.555 240.477 434.352C240.297 434.15 240.049 434.02 239.78 433.987V402.032L267.884 385.467L277.252 390.964L295.084 401.43C295.06 401.579 295.06 401.732 295.084 401.882C295.082 402.151 295.179 402.412 295.357 402.615C295.535 402.817 295.781 402.948 296.048 402.981L295.973 434.996ZM324.484 484.691V452.751C324.753 452.718 325 452.588 325.18 452.386C325.361 452.183 325.461 451.922 325.463 451.651C325.463 451.501 325.432 451.352 325.372 451.215L352.588 435.252L380.692 451.727V483.682C380.423 483.715 380.175 483.844 379.995 484.047C379.815 484.249 379.714 484.51 379.713 484.781C379.71 484.931 379.741 485.081 379.803 485.218L352.588 501.195L324.484 484.691ZM296.124 500.201C295.951 500.204 295.782 500.248 295.63 500.329C295.478 500.41 295.348 500.527 295.25 500.668L286.756 495.669L268.02 484.691V451.712L277.388 446.23L296.124 435.237L323.324 451.2C323.264 451.337 323.233 451.486 323.233 451.636C323.235 451.907 323.335 452.168 323.516 452.371C323.696 452.573 323.944 452.703 324.213 452.736V484.691L296.982 500.668C296.884 500.531 296.755 500.419 296.606 500.341C296.457 500.263 296.292 500.22 296.124 500.216V500.201ZM240.669 534.912C240.729 534.774 240.759 534.626 240.759 534.475C240.758 534.203 240.658 533.94 240.478 533.735C240.298 533.53 240.05 533.397 239.78 533.361V501.436L267.884 484.947L277.252 490.443L295.084 500.909C295.06 501.059 295.06 501.211 295.084 501.361C295.082 501.63 295.179 501.891 295.357 502.094C295.535 502.297 295.781 502.427 296.048 502.46V534.4L267.959 550.89L240.669 534.912ZM211.405 550.875L201.977 545.393L184.129 534.927C184.189 534.789 184.22 534.641 184.22 534.49C184.222 534.217 184.123 533.952 183.942 533.747C183.762 533.541 183.512 533.409 183.241 533.376V501.436L210.471 485.459C210.568 485.602 210.698 485.719 210.85 485.799C211.002 485.88 211.172 485.923 211.345 485.923C211.517 485.923 211.687 485.88 211.839 485.799C211.991 485.719 212.122 485.602 212.218 485.459L239.434 501.436V533.376C239.165 533.413 238.919 533.546 238.741 533.751C238.564 533.956 238.467 534.219 238.47 534.49C238.469 534.641 238.5 534.789 238.56 534.927L211.405 550.875ZM239.78 633.789V600.84L267.01 584.863C267.109 585.002 267.24 585.116 267.392 585.195C267.544 585.273 267.713 585.314 267.884 585.314C268.055 585.312 268.222 585.27 268.374 585.192C268.526 585.113 268.657 585.001 268.758 584.863L295.973 600.84V632.78C295.704 632.813 295.456 632.943 295.276 633.145C295.096 633.347 294.996 633.608 294.994 633.879C294.999 634.029 295.03 634.177 295.084 634.316L267.884 650.279L239.78 633.789ZM155.076 749.923L164.429 744.427L183.165 733.434L210.381 749.396C210.321 749.534 210.29 749.683 210.29 749.833C210.292 750.104 210.392 750.365 210.572 750.567C210.753 750.77 211 750.899 211.269 750.932V782.887L184.039 798.865C183.941 798.723 183.81 798.607 183.658 798.526C183.507 798.445 183.337 798.401 183.165 798.398C182.993 798.403 182.825 798.448 182.674 798.529C182.522 798.61 182.391 798.725 182.292 798.865L155.076 782.887V749.923ZM154.926 683.664L164.324 689.311L182.171 699.777C182.116 699.921 182.09 700.075 182.096 700.229C182.094 700.498 182.191 700.759 182.369 700.962C182.546 701.165 182.792 701.295 183.06 701.328V733.283L173.692 738.78L154.956 749.758L127.725 733.72C127.778 733.58 127.809 733.433 127.816 733.283C127.814 733.012 127.714 732.751 127.534 732.549C127.353 732.347 127.106 732.217 126.837 732.184V700.229L154.926 683.664ZM183.165 633.97L192.533 639.466L210.381 649.932C210.321 650.07 210.29 650.219 210.29 650.369C210.292 650.641 210.391 650.904 210.571 651.109C210.751 651.314 210.999 651.447 211.269 651.483V683.423L184.039 699.401C183.94 699.261 183.809 699.147 183.657 699.068C183.505 698.99 183.336 698.949 183.165 698.949C182.995 698.951 182.827 698.993 182.675 699.072C182.524 699.15 182.392 699.263 182.292 699.401L173.797 694.416L155.076 683.423V651.559C155.344 651.519 155.588 651.385 155.765 651.18C155.942 650.976 156.04 650.715 156.04 650.444C156.063 650.299 156.063 650.152 156.04 650.007L183.165 633.97ZM183.301 600.765L192.669 595.253L210.531 584.787C210.63 584.927 210.761 585.041 210.913 585.12C211.065 585.199 211.234 585.24 211.405 585.24C211.576 585.24 211.745 585.199 211.897 585.12C212.049 585.041 212.18 584.927 212.278 584.787L239.494 600.765V633.729L212.278 649.706C212.182 649.563 212.052 649.446 211.899 649.366C211.747 649.285 211.577 649.242 211.405 649.242C211.232 649.242 211.063 649.285 210.91 649.366C210.758 649.446 210.628 649.563 210.531 649.706L201.977 644.797L183.241 633.804L183.301 600.765ZM155.076 584.019V552.155C155.344 552.121 155.59 551.991 155.768 551.788C155.945 551.586 156.042 551.325 156.04 551.055C156.066 550.911 156.066 550.763 156.04 550.619L182.367 535.153C182.467 535.293 182.598 535.408 182.749 535.489C182.901 535.57 183.069 535.615 183.241 535.62C183.413 535.617 183.582 535.573 183.734 535.492C183.886 535.411 184.016 535.295 184.114 535.153L192.609 540.138L211.345 551.131V583.086C211.076 583.119 210.828 583.248 210.648 583.451C210.468 583.653 210.367 583.914 210.366 584.185C210.365 584.335 210.396 584.484 210.456 584.622L201.977 589.591L183.241 600.584L155.076 584.019ZM13.7128 733.449L23.1109 739.006L40.9583 749.472C40.8982 749.609 40.8675 749.758 40.8679 749.908C40.8727 750.178 40.9741 750.438 41.1537 750.639C41.3333 750.841 41.5792 750.972 41.8469 751.008V782.963L13.7128 799.377L-13.3972 783.414C-13.3676 783.27 -13.3676 783.122 -13.3972 782.978C-13.3989 782.707 -13.4992 782.446 -13.6794 782.243C-13.8595 782.041 -14.1073 781.911 -14.3762 781.878V749.923L13.7128 733.449ZM23.2314 694.732L41.9523 683.739L70.0564 700.304V733.268L42.856 749.17C42.7572 749.031 42.6262 748.917 42.4742 748.838C42.3222 748.76 42.1536 748.719 41.9824 748.719C41.8136 748.72 41.6475 748.761 41.4981 748.84C41.3488 748.919 41.2204 749.032 41.124 749.17L32.6144 744.186L13.8935 733.193V701.253C14.1636 701.219 14.4117 701.087 14.5898 700.881C14.7678 700.675 14.8632 700.411 14.8574 700.139C14.8566 699.988 14.8259 699.84 14.767 699.702L23.2314 694.732ZM-15.5058 650.007C-15.5664 650.163 -15.5911 650.331 -15.5782 650.497C-15.5653 650.664 -15.515 650.826 -15.4311 650.97C-15.3472 651.115 -15.2319 651.239 -15.0936 651.333C-14.9553 651.427 -14.7976 651.489 -14.6322 651.513V683.453L-42.7212 700.018L-69.9366 684.056C-69.8749 683.913 -69.8441 683.759 -69.8463 683.604C-69.8479 683.333 -69.9482 683.072 -70.1284 682.87C-70.3086 682.667 -70.5563 682.538 -70.8252 682.505V650.535L-42.7212 634.045L-15.5058 650.007ZM13.7128 634.045L23.1109 639.617L40.9583 650.083C40.8982 650.221 40.8675 650.369 40.8679 650.519C40.8691 650.792 40.9689 651.055 41.1488 651.26C41.3287 651.465 41.5767 651.597 41.8469 651.634V683.574L32.4789 689.07L14.6164 699.612C14.5176 699.472 14.3867 699.358 14.2347 699.279C14.0827 699.201 13.914 699.16 13.7429 699.16C13.5741 699.161 13.408 699.202 13.2586 699.281C13.1092 699.36 12.9809 699.473 12.8844 699.612L-14.3461 683.499V651.559C-14.0759 651.522 -13.8279 651.389 -13.648 651.185C-13.4681 650.98 -13.3683 650.717 -13.3671 650.444C-13.3544 650.298 -13.3646 650.151 -13.3972 650.007L13.7128 634.045ZM69.1677 600.313C69.1059 600.45 69.075 600.599 69.0774 600.75C69.079 601.021 69.1793 601.282 69.3595 601.484C69.5397 601.686 69.7874 601.816 70.0564 601.849V633.804L42.856 649.782C42.7598 649.638 42.6298 649.521 42.4775 649.439C42.3251 649.358 42.1552 649.315 41.9824 649.315C41.8118 649.315 41.6438 649.358 41.4939 649.439C41.344 649.521 41.2168 649.638 41.124 649.782L32.6144 644.797L13.8935 633.804V601.849C14.161 601.816 14.407 601.685 14.5847 601.483C14.7624 601.28 14.8595 601.019 14.8574 600.75C14.8597 600.599 14.8289 600.45 14.767 600.313L41.9824 584.351L69.1677 600.313ZM98.4315 584.351L107.83 589.922L125.662 600.388C125.638 600.533 125.638 600.68 125.662 600.825C125.664 601.096 125.764 601.357 125.944 601.559C126.124 601.762 126.372 601.891 126.641 601.924V633.879L99.3351 649.782C99.2347 649.639 99.1017 649.522 98.9472 649.441C98.7927 649.36 98.6211 649.316 98.4465 649.315C98.2769 649.32 98.1108 649.365 97.9617 649.446C97.8126 649.527 97.6846 649.642 97.5881 649.782L70.3576 633.804V601.849C70.6265 601.816 70.8742 601.686 71.0544 601.484C71.2346 601.282 71.3349 601.021 71.3365 600.75C71.3389 600.599 71.308 600.45 71.2462 600.313L98.4315 584.351ZM98.567 551.131L107.935 545.634L126.671 534.641L153.886 550.619C153.861 550.763 153.861 550.911 153.886 551.055C153.884 551.325 153.981 551.586 154.159 551.788C154.337 551.991 154.583 552.121 154.85 552.155V584.095L127.575 600.072C127.473 599.932 127.339 599.818 127.185 599.74C127.03 599.661 126.859 599.62 126.686 599.62C126.518 599.623 126.352 599.665 126.203 599.743C126.053 599.822 125.925 599.934 125.828 600.072L117.333 595.088L98.5972 584.095L98.567 551.131ZM70.0564 501.436V533.376C69.7874 533.409 69.5397 533.539 69.3595 533.741C69.1793 533.944 69.079 534.205 69.0774 534.475C69.0752 534.631 69.106 534.785 69.1677 534.927L41.9523 550.89L14.767 534.927C14.8276 534.771 14.8524 534.604 14.8395 534.437C14.8265 534.271 14.7763 534.109 14.6924 533.964C14.6085 533.82 14.4931 533.696 14.3548 533.602C14.2165 533.508 14.0589 533.446 13.8935 533.421V501.436L41.124 485.459C41.2204 485.597 41.3488 485.711 41.4981 485.789C41.6475 485.868 41.8136 485.909 41.9824 485.91C42.1536 485.91 42.3222 485.87 42.4742 485.791C42.6262 485.712 42.7572 485.598 42.856 485.459L70.0564 501.436ZM98.4315 484.947L107.799 490.443L125.632 500.909C125.609 501.054 125.609 501.201 125.632 501.346C125.63 501.618 125.729 501.88 125.91 502.083C126.091 502.286 126.341 502.415 126.611 502.445V534.4L117.243 539.897L98.5068 550.89L71.2462 534.927C71.3068 534.77 71.3312 534.602 71.3174 534.434C71.3036 534.266 71.252 534.104 71.1665 533.959C71.081 533.814 70.9638 533.691 70.8237 533.597C70.6836 533.504 70.5243 533.444 70.3576 533.421V501.436L98.4315 484.947ZM98.567 451.727L107.935 446.245L126.671 435.252L153.886 451.215C153.864 451.359 153.864 451.507 153.886 451.651C153.884 451.921 153.981 452.182 154.159 452.384C154.337 452.587 154.583 452.717 154.85 452.751V484.706L127.575 500.683C127.473 500.541 127.34 500.425 127.186 500.344C127.032 500.263 126.86 500.219 126.686 500.216C126.516 500.222 126.35 500.267 126.201 500.348C126.052 500.429 125.924 500.544 125.828 500.683L117.333 495.684L98.5972 484.706L98.567 451.727ZM71.2462 435.523C71.3062 435.386 71.337 435.237 71.3365 435.087C71.3386 434.813 71.2399 434.548 71.0594 434.343C70.8789 434.137 70.6291 434.005 70.3576 433.972V402.032L98.4616 385.467L125.662 401.43C125.639 401.575 125.639 401.722 125.662 401.867C125.66 402.14 125.759 402.405 125.939 402.61C126.12 402.816 126.369 402.948 126.641 402.981V434.921L117.273 440.417L98.5369 451.41L71.2462 435.523ZM41.9674 386.507C42.1385 386.507 42.3072 386.466 42.4592 386.387C42.6112 386.308 42.7421 386.194 42.8409 386.055L51.3655 391.039L70.1015 402.032V433.987C69.834 434.021 69.588 434.151 69.4103 434.354C69.2326 434.556 69.1356 434.817 69.1376 435.087C69.1355 435.232 69.1664 435.376 69.228 435.508L42.8711 450.974C42.7722 450.834 42.6413 450.72 42.4893 450.641C42.3373 450.563 42.1686 450.522 41.9975 450.522C41.8287 450.523 41.6626 450.565 41.5132 450.643C41.3638 450.722 41.2355 450.835 41.139 450.974L13.8784 434.996V402.032L41.1089 386.055C41.2054 386.193 41.3337 386.307 41.4831 386.385C41.6325 386.464 41.7986 386.505 41.9674 386.507ZM42.118 352.338L51.486 346.841L70.207 335.848L97.4224 351.811C97.3623 351.949 97.3315 352.097 97.332 352.247C97.3336 352.518 97.434 352.779 97.6141 352.982C97.7943 353.184 98.042 353.314 98.311 353.347V385.302L70.207 401.791L60.8389 396.295L42.9915 385.829C43.0521 385.673 43.0769 385.506 43.064 385.339C43.051 385.172 43.0008 385.011 42.9169 384.866C42.833 384.721 42.7176 384.597 42.5793 384.503C42.441 384.409 42.2834 384.348 42.118 384.323V352.338ZM13.5923 302.643V334.598C13.3248 334.632 13.0788 334.762 12.9011 334.965C12.7233 335.167 12.6263 335.428 12.6284 335.698C12.6279 335.848 12.6587 335.997 12.7187 336.134L-14.4967 352.082L-42.6007 335.607V303.652C-42.3318 303.619 -42.0841 303.49 -41.9039 303.287C-41.7237 303.085 -41.6234 302.824 -41.6217 302.553C-41.6194 302.403 -41.6503 302.254 -41.7121 302.116L-14.4967 286.139L13.5923 302.643ZM41.9674 287.133C42.1396 287.13 42.3087 287.086 42.4606 287.005C42.6125 286.924 42.7429 286.807 42.8409 286.666L51.3655 291.635L70.1015 302.628V335.607L60.7335 341.104L41.9975 352.082L14.767 336.119C14.82 335.979 14.8505 335.832 14.8574 335.683C14.8557 335.412 14.7555 335.151 14.5753 334.948C14.3951 334.746 14.1474 334.616 13.8784 334.583V302.628L41.1089 286.651C41.2046 286.791 41.3324 286.907 41.4817 286.988C41.631 287.069 41.7975 287.114 41.9674 287.118V287.133ZM97.4224 252.422C97.3623 252.56 97.3315 252.708 97.332 252.859C97.3332 253.131 97.433 253.394 97.6129 253.599C97.7928 253.804 98.0408 253.937 98.311 253.973V285.913L70.207 302.387L60.8389 296.891L42.9915 286.35C43.0521 286.194 43.0769 286.026 43.064 285.86C43.051 285.693 43.0008 285.531 42.9169 285.387C42.833 285.242 42.7176 285.118 42.5793 285.024C42.441 284.93 42.2834 284.869 42.118 284.844V252.934L70.207 236.444L97.4224 252.422ZM126.671 236.444L136.024 241.941L153.871 252.482C153.849 252.627 153.849 252.774 153.871 252.919C153.872 253.189 153.97 253.45 154.147 253.655C154.323 253.859 154.568 253.994 154.835 254.033V285.973L127.56 301.875C127.463 301.733 127.333 301.616 127.181 301.535C127.028 301.454 126.859 301.411 126.686 301.411C126.514 301.411 126.344 301.454 126.192 301.535C126.039 301.616 125.909 301.733 125.813 301.875L98.5821 285.898V253.958C98.8523 253.922 99.1002 253.789 99.2802 253.584C99.4601 253.379 99.5599 253.116 99.5611 252.844C99.5615 252.693 99.5308 252.545 99.4707 252.407L126.671 236.444ZM127.695 202.712L136.175 197.743L154.896 186.75L183 203.239V235.179C182.732 235.213 182.486 235.343 182.308 235.546C182.131 235.748 182.034 236.009 182.036 236.279C182.003 236.422 182.003 236.572 182.036 236.715L155.694 252.181C155.599 252.038 155.47 251.921 155.319 251.84C155.168 251.759 154.999 251.716 154.828 251.716C154.656 251.716 154.487 251.759 154.336 251.84C154.185 251.921 154.057 252.038 153.962 252.181L145.467 247.196L126.731 236.203V204.263C127 204.224 127.246 204.09 127.426 203.886C127.605 203.682 127.706 203.421 127.71 203.149C127.733 203.004 127.733 202.857 127.71 202.712H127.695ZM98.311 153.53V186.494L71.0805 202.487C70.9839 202.344 70.8538 202.227 70.7015 202.146C70.5492 202.065 70.3794 202.023 70.207 202.023C70.0345 202.023 69.8647 202.065 69.7124 202.146C69.5601 202.227 69.43 202.344 69.3334 202.487L42.118 186.494V154.554C42.3855 154.521 42.6315 154.39 42.8092 154.188C42.9869 153.985 43.084 153.724 43.0819 153.455C43.0842 153.304 43.0534 153.155 42.9915 153.018L70.207 137.056L98.311 153.53ZM126.671 138.019C126.844 138.018 127.013 137.974 127.165 137.893C127.317 137.812 127.447 137.695 127.545 137.552L136.024 142.537L154.76 153.53V186.494L145.392 192.005L127.545 202.547C127.448 202.404 127.318 202.287 127.166 202.206C127.013 202.125 126.843 202.083 126.671 202.083C126.499 202.083 126.329 202.125 126.176 202.206C126.024 202.287 125.894 202.404 125.798 202.547L98.5821 186.494V153.53L125.813 137.552C125.908 137.693 126.036 137.808 126.185 137.89C126.335 137.971 126.501 138.015 126.671 138.019ZM154.896 88.3249C155.067 88.325 155.235 88.284 155.387 88.2053C155.539 88.1267 155.67 88.0128 155.769 87.8731L164.264 92.8576L183 103.851V135.791C182.731 135.827 182.485 135.961 182.307 136.166C182.13 136.371 182.033 136.634 182.036 136.905C182.006 137.049 182.006 137.198 182.036 137.342L154.82 153.304L145.467 147.808L127.62 137.266C127.673 137.126 127.703 136.979 127.71 136.83C127.709 136.557 127.609 136.294 127.429 136.089C127.249 135.884 127.001 135.752 126.731 135.715V103.836L153.962 87.858C154.068 88.0087 154.211 88.1294 154.377 88.2085C154.543 88.2877 154.727 88.3225 154.911 88.3098L154.896 88.3249ZM155.046 54.1411L164.414 48.6446L183.135 37.6667L210.351 53.6291C210.29 53.7669 210.26 53.9156 210.26 54.0658C210.262 54.3367 210.362 54.5978 210.542 54.8001C210.722 55.0024 210.97 55.1322 211.239 55.1651V87.1051L183.135 103.67L173.767 98.1734L155.935 87.6321C155.957 87.4824 155.957 87.3301 155.935 87.1804C155.937 86.9109 155.84 86.65 155.662 86.4473C155.484 86.2446 155.238 86.1143 154.971 86.0811L155.046 54.1411ZM154.896 -11.0791C155.067 -11.079 155.235 -11.12 155.387 -11.1986C155.539 -11.2772 155.67 -11.3911 155.769 -11.5308L183.015 4.43163V37.3956L173.647 42.8921L154.911 53.8249L127.71 37.8624C127.763 37.7225 127.794 37.5751 127.801 37.4257C127.799 37.1548 127.699 36.8938 127.518 36.6915C127.338 36.4891 127.091 36.3594 126.822 36.3264V4.43163L154.052 -11.5459C154.149 -11.4082 154.278 -11.2956 154.427 -11.2171C154.576 -11.1385 154.742 -11.0964 154.911 -11.0941L154.896 -11.0791Z" fill="white"/>
</g>
</svg>
