<svg width="488" height="342" viewBox="0 0 488 342" fill="none" xmlns="http://www.w3.org/2000/svg">
<g opacity="0.2">
<g opacity="0.1">
<path opacity="0.3" d="M221.733 86.4249L190.712 104.622L159.674 86.4249V49.9961L190.712 31.7988L221.733 49.9961V86.4249Z" fill="white"/>
<path opacity="0.6" d="M189.131 29.0147L158.093 47.2291L127.056 29.0147V-7.39691L158.093 -25.6113L189.131 -7.39691V29.0147Z" fill="white"/>
<path opacity="0.1" d="M254.351 143.817L223.314 162.032L192.293 143.817V107.406L223.314 89.1914L254.351 107.406V143.817Z" fill="white"/>
<path opacity="0.3" d="M286.97 316.032L255.932 334.247L224.895 316.032V279.621L255.932 261.406L286.97 279.621V316.032Z" fill="white"/>
<path opacity="0.6" d="M352.191 316.032L321.153 334.247L290.132 316.032V279.621L321.153 261.406L352.191 279.621V316.032Z" fill="white"/>
<path opacity="0.3" d="M319.572 143.817L288.551 162.032L257.514 143.817V107.406L288.551 89.1914L319.572 107.406V143.817Z" fill="white"/>
<path opacity="0.6" d="M286.97 86.4249L255.932 104.622L224.895 86.4249V49.9961L255.932 31.7988L286.97 49.9961V86.4249Z" fill="white"/>
<path opacity="0.6" d="M286.97 201.228L255.932 219.425L224.895 201.228V164.799L255.932 146.602L286.97 164.799V201.228Z" fill="white"/>
<path opacity="0.3" d="M221.733 201.228L190.712 219.425L159.674 201.228V164.799L190.712 146.602L221.733 164.799V201.228Z" fill="white"/>
<path opacity="0.6" d="M156.512 201.228L125.474 219.425L94.4365 201.228V164.799L125.474 146.602L156.512 164.799V201.228Z" fill="white"/>
<path opacity="0.1" d="M319.572 29.0147L288.551 47.212L257.514 29.0147V-7.41409L288.551 -25.6113L319.572 -7.41409V29.0147Z" fill="white"/>
<path opacity="0.1" d="M189.131 258.621L158.093 276.835L127.056 258.621V222.209L158.093 204.012L189.131 222.209V258.621Z" fill="white"/>
<path opacity="0.6" d="M156.512 316.032L125.474 334.247L94.4365 316.032V279.621L125.474 261.406L156.512 279.621V316.032Z" fill="white"/>
<path opacity="0.1" d="M319.572 258.621L288.551 276.835L257.514 258.621V222.209L288.551 204.012L319.572 222.209V258.621Z" fill="white"/>
</g>
<path d="M226.699 -145H226.613L194.321 -126.098V-87.9511L226.476 -69.0493V-31.4176L194.252 -12.5159V25.2876L162.183 44.1894L129.96 25.2876L97.65 44.1894V82.1819L129.942 101.084H130.028L162.166 82.1819L194.235 100.981V138.612L162.269 157.514L130.045 138.612L97.736 157.514V195.318L65.6155 214.236L33.3919 195.335L1.09961 214.236V252.229L33.4091 271.131L65.5639 252.229L97.6157 271.131V308.745L65.3921 327.647V365.64L97.6844 384.541L129.994 365.64V327.836L162.2 308.934V271.045L130.063 252.143V214.511L162.114 195.61L194.338 214.511L226.63 195.61V157.806L258.682 138.99L290.751 157.806V195.421L258.527 214.322V252.315L290.665 271.217V309.02H290.751L323.043 327.922H323.129L355.421 309.02V271.045H355.336L323.198 252.143V214.511L355.267 195.61L387.49 214.511L419.8 195.61V157.617H419.714L387.422 138.715H387.336L355.198 157.617L323.129 138.818V101.187L355.593 82.285L387.817 101.187L420.126 82.285V44.4815L452.178 25.5798L484.402 44.4815L516.694 25.5798V-12.5159H516.608L484.488 -31.5895H484.402L452.264 -12.6877L420.195 -31.4176V-69.0493L452.402 -87.9511V-125.944L420.092 -144.845L387.783 -125.944V-88.1401L355.576 -69.2383V-31.2458L387.714 -12.3441V25.2876L355.662 44.1894L323.438 25.2876H323.353L291.06 44.1894V81.9929L258.991 100.792L226.871 82.0101V44.3784L259.094 25.4767V-12.3269L291.318 -31.2286V-69.2383L259.18 -88.1401V-125.944L226.699 -145ZM420.006 -69.393L409.316 -75.6649L387.954 -88.2088V-125.755L420.006 -144.656L452.075 -125.755V-88.1401L420.006 -69.393ZM419.851 -31.4864L409.162 -25.2316L387.817 -12.6877L355.748 -31.4176V-69.0493L387.817 -87.848L398.558 -81.576L419.92 -69.0493L419.851 -31.4864ZM452.384 25.2189V-12.3269L484.453 -31.2286L516.505 -12.3269V25.2876L484.453 44.1894L452.384 25.2189ZM420.006 44.1207L409.316 37.8487L387.954 25.3048V-12.3269L398.644 -18.5988L420.006 -31.1427L452.075 -12.241V25.2876L420.006 44.1207ZM355.731 82.0273V44.3956L387.8 25.4938L398.489 31.7658L419.851 44.3097V81.9414L387.8 100.74L355.731 82.0273ZM323.353 100.826L312.629 94.5368L291.266 82.0101V44.3784L323.318 25.4767L355.387 44.3784V82.0101L323.353 100.826ZM355.731 195.438V157.806L387.8 138.99L419.851 157.806V195.421L387.8 214.236L355.731 195.438ZM291.318 271.234L301.99 264.962L323.37 252.418L355.439 271.32V308.934L323.37 327.75L291.318 308.848V271.234ZM291.146 195.627L301.836 201.899L323.215 214.443V252.074L312.525 258.329L291.146 270.873L259.094 252.074V214.443L291.146 195.627ZM291.318 157.737L301.99 151.465L323.37 138.922L355.439 157.737V195.352L323.37 214.168L312.629 207.965L291.266 195.421L291.318 157.737ZM259.094 138.647V101.015L291.146 82.2163L301.836 88.4882L323.215 101.015V138.647L312.525 144.919L291.146 157.445L259.094 138.647ZM97.8047 309.123L108.494 315.395L129.874 327.939V365.554L97.8047 384.369L65.7702 365.554V327.939L97.8047 309.123ZM97.9766 271.32L108.666 265.048L130.028 252.504L162.097 271.406V309.02L130.045 327.647L119.356 321.392L97.9938 308.848L97.9766 271.32ZM65.4265 214.614V252.246L33.3747 271.045L1.30584 252.246V214.614L33.3747 195.713L65.4265 214.614ZM97.8047 195.713L108.494 201.985L129.874 214.529V252.16L119.184 258.415L97.8047 270.942L65.7702 252.143V214.511L97.8047 195.713ZM162.097 157.823V195.438L130.045 214.236L119.356 207.965L97.9938 195.421V157.806L130.045 138.99L162.097 157.823ZM194.475 139.007L205.165 145.279L226.544 157.823V195.438L194.493 214.236L162.424 195.421V157.806L194.475 139.007ZM194.63 101.101L205.32 94.8461L226.699 82.285L258.751 101.084V138.715L226.699 157.514L216.009 151.259L194.63 138.715V101.101ZM162.097 44.3956V82.0273L130.045 100.809L97.9938 82.0101V44.3784L130.045 25.4767L162.097 44.3956ZM194.475 25.4938L205.165 31.7658L226.544 44.3097V81.9414L215.855 88.1961L194.475 100.74L162.424 82.0101V44.3784L194.475 25.4938ZM226.699 -31.2114L237.371 -24.9395L258.751 -12.3956V25.2876L226.699 44.1035L216.009 37.8315L194.63 25.2876V-12.3269L226.699 -31.2114ZM226.854 -69.118L237.543 -75.3728L258.905 -87.9167L290.974 -69.118V-31.4864L258.923 -12.6877L248.25 -18.9425L226.871 -31.4176L226.854 -69.118ZM226.699 -144.57L258.751 -125.669V-88.1401L248.061 -81.8681L226.699 -69.393L194.63 -88.2947V-125.755L226.699 -144.57Z" fill="white"/>
<path d="M258.923 -127.129C258.589 -127.124 258.27 -126.988 258.035 -126.75C257.8 -126.512 257.668 -126.192 257.668 -125.857C257.641 -125.687 257.641 -125.513 257.668 -125.342L226.562 -107.042V-70.3893C226.255 -70.3517 225.972 -70.2036 225.767 -69.9727C225.561 -69.7419 225.447 -69.444 225.445 -69.1349C225.445 -68.796 225.578 -68.4708 225.816 -68.2296C226.054 -67.9884 226.378 -67.8507 226.717 -67.8461C226.913 -67.848 227.107 -67.8974 227.28 -67.9901C227.454 -68.0829 227.602 -68.2162 227.713 -68.3788L258.768 -50.1472V-13.684C258.463 -13.6461 258.182 -13.4974 257.98 -13.2661C257.777 -13.0349 257.666 -12.7372 257.668 -12.4296C257.642 -12.2588 257.642 -12.085 257.668 -11.9141L226.562 6.38622V43.0212C226.252 43.0592 225.967 43.2097 225.761 43.4442C225.555 43.6787 225.442 43.9807 225.445 44.2928C225.444 44.4643 225.479 44.634 225.548 44.7911L194.493 63.0056L162.269 44.1038L131.043 62.4213C130.93 62.2619 130.78 62.1319 130.607 62.0422C130.434 61.9525 130.241 61.9057 130.046 61.9058C129.708 61.8853 129.377 61.9996 129.124 62.2236C128.871 62.4475 128.717 62.7628 128.697 63.1001C128.676 63.4373 128.79 63.7689 129.014 64.0218C129.238 64.2748 129.554 64.4285 129.891 64.449V101.084L161.015 119.35C160.946 119.507 160.911 119.677 160.912 119.848C160.912 120.186 161.046 120.509 161.284 120.747C161.523 120.986 161.846 121.12 162.183 121.12C162.521 121.12 162.844 120.986 163.083 120.747C163.321 120.509 163.455 120.186 163.455 119.848C163.456 119.677 163.421 119.507 163.352 119.35L194.407 101.136L225.445 119.35C225.419 119.515 225.419 119.683 225.445 119.848C225.446 120.159 225.56 120.459 225.765 120.693C225.971 120.927 226.254 121.078 226.562 121.12V157.566L195.49 175.849C195.376 175.689 195.227 175.558 195.054 175.466C194.881 175.373 194.689 175.322 194.493 175.316C194.296 175.32 194.104 175.37 193.93 175.462C193.757 175.555 193.608 175.687 193.496 175.849L162.269 157.514L129.96 176.416V213.051C129.653 213.089 129.37 213.237 129.165 213.468C128.959 213.699 128.845 213.996 128.843 214.306C128.849 214.482 128.884 214.656 128.946 214.821L97.805 233.139L65.5986 214.237L34.389 232.554C34.2743 232.397 34.1245 232.268 33.9515 232.179C33.7785 232.089 33.587 232.041 33.3922 232.039C33.2238 232.039 33.057 232.072 32.9015 232.137C32.7461 232.202 32.6051 232.297 32.4868 232.417C32.3685 232.537 32.2752 232.679 32.2123 232.836C32.1494 232.992 32.1182 233.159 32.1205 233.328C32.1223 233.637 32.2368 233.935 32.4424 234.165C32.648 234.396 32.9307 234.544 33.2375 234.582V271.234L65.5471 290.136L96.7051 271.853C96.8159 272.012 96.9636 272.143 97.1357 272.233C97.3078 272.323 97.4991 272.37 97.6933 272.37C97.8875 272.37 98.0788 272.323 98.2509 272.233C98.423 272.143 98.5707 272.012 98.6815 271.853L129.754 290.084V326.53C129.447 326.568 129.164 326.716 128.958 326.947C128.753 327.178 128.638 327.476 128.637 327.785C128.643 327.961 128.677 328.135 128.74 328.3L97.6675 346.652V384.645L128.791 402.911C128.731 403.07 128.696 403.238 128.688 403.409C128.688 403.746 128.822 404.07 129.061 404.308C129.299 404.547 129.623 404.681 129.96 404.681C130.297 404.681 130.621 404.547 130.859 404.308C131.098 404.07 131.232 403.746 131.232 403.409C131.232 403.237 131.197 403.068 131.128 402.911L161.187 385.28C161.305 385.438 161.458 385.567 161.634 385.656C161.809 385.745 162.003 385.793 162.201 385.796C162.397 385.794 162.591 385.745 162.764 385.652C162.938 385.559 163.087 385.426 163.197 385.263L194.27 403.495V441.127L162.287 459.994L131.232 441.762C131.302 441.606 131.337 441.436 131.335 441.264C131.335 440.927 131.201 440.603 130.962 440.365C130.724 440.126 130.4 439.992 130.063 439.992C129.726 439.992 129.402 440.126 129.164 440.365C128.925 440.603 128.791 440.927 128.791 441.264C128.789 441.436 128.824 441.606 128.894 441.762L97.6847 460.08V496.715C97.3794 496.753 97.0988 496.902 96.896 497.133C96.6932 497.364 96.5825 497.662 96.5848 497.969C96.5802 498.308 96.7092 498.635 96.944 498.88C97.1789 499.124 97.5005 499.266 97.8394 499.275C98.0362 499.273 98.2296 499.224 98.4032 499.131C98.5767 499.038 98.7253 498.905 98.8362 498.743L130.063 517.06L161.204 498.777C161.314 498.94 161.462 499.073 161.636 499.166C161.81 499.258 162.004 499.306 162.201 499.306C162.397 499.306 162.591 499.258 162.765 499.166C162.939 499.073 163.087 498.94 163.197 498.777L194.27 517.009V554.623L163.283 572.82C163.171 572.661 163.021 572.531 162.848 572.441C162.674 572.351 162.482 572.304 162.287 572.304C162.091 572.304 161.899 572.351 161.725 572.441C161.552 572.531 161.402 572.661 161.29 572.82L130.063 554.503L98.8362 572.82C98.7244 572.66 98.5753 572.529 98.4016 572.439C98.2279 572.349 98.0349 572.303 97.8394 572.305C97.5021 572.284 97.1705 572.398 96.9175 572.622C96.6645 572.846 96.5108 573.162 96.4903 573.499C96.4698 573.836 96.5841 574.168 96.8081 574.421C97.0321 574.674 97.3474 574.827 97.6847 574.848V611.311L66.6126 629.543C66.5028 629.379 66.3545 629.245 66.1806 629.152C66.0068 629.059 65.8129 629.01 65.6158 629.01C65.4222 629.016 65.2327 629.067 65.0626 629.16C64.8924 629.252 64.7464 629.383 64.6362 629.543L33.4094 611.208L1.11709 630.11V666.745C0.80876 666.786 0.525835 666.938 0.320525 667.172C0.115214 667.405 0.00137069 667.705 0 668.016C0.00445109 668.357 0.14168 668.682 0.382445 668.923C0.623211 669.163 0.948478 669.301 1.28894 669.305C1.4817 669.295 1.66979 669.242 1.83934 669.15C2.00889 669.058 2.15556 668.929 2.26854 668.772L33.4953 687.107H33.5813L65.7189 668.205L96.7567 686.42C96.7019 686.586 96.6729 686.76 96.6707 686.935C96.6684 687.243 96.7791 687.54 96.9819 687.772C97.1847 688.003 97.4654 688.152 97.7706 688.19V724.636L65.5471 743.537V780.172C65.2098 780.195 64.8953 780.351 64.673 780.606C64.4506 780.86 64.3384 781.193 64.3612 781.53C64.384 781.867 64.5399 782.182 64.7945 782.404C65.0491 782.626 65.3816 782.738 65.7189 782.716C65.9115 782.714 66.1011 782.667 66.2715 782.577C66.442 782.487 66.5884 782.358 66.6985 782.2L97.805 800.621H97.8909L130.2 781.719V744.981C130.506 744.943 130.786 744.794 130.989 744.563C131.192 744.332 131.303 744.034 131.3 743.726C131.303 743.555 131.268 743.385 131.197 743.228L162.407 724.911V686.918L130.269 668.016V631.57C130.574 631.525 130.853 631.372 131.055 631.138C131.257 630.905 131.368 630.607 131.369 630.299C131.37 630.127 131.335 629.958 131.266 629.8L162.321 611.586L193.376 629.8C193.308 629.992 193.286 630.198 193.313 630.4C193.34 630.602 193.414 630.795 193.53 630.962C193.646 631.13 193.8 631.268 193.979 631.365C194.158 631.461 194.358 631.514 194.562 631.519C194.729 631.516 194.894 631.481 195.047 631.415C195.201 631.349 195.339 631.254 195.456 631.134C195.572 631.015 195.664 630.873 195.726 630.718C195.788 630.563 195.819 630.397 195.816 630.23C195.817 630.059 195.782 629.889 195.713 629.732L226.923 611.414V574.848C227.23 574.81 227.512 574.662 227.718 574.431C227.924 574.2 228.038 573.903 228.04 573.594C228.034 573.423 227.999 573.254 227.937 573.095L258.974 554.881L291.043 573.697V611.311L259.971 629.543C259.861 629.379 259.713 629.245 259.539 629.152C259.366 629.059 259.172 629.01 258.974 629.01C258.655 629.022 258.351 629.153 258.122 629.376C257.894 629.6 257.756 629.901 257.737 630.22C257.718 630.539 257.818 630.854 258.018 631.104C258.218 631.353 258.504 631.52 258.82 631.57V668.016L226.613 686.918V723.57C226.403 723.593 226.202 723.667 226.028 723.786C225.854 723.905 225.713 724.066 225.616 724.254C225.52 724.442 225.472 724.651 225.476 724.862C225.481 725.073 225.537 725.279 225.642 725.463C225.746 725.646 225.894 725.801 226.073 725.913C226.252 726.025 226.456 726.09 226.667 726.104C226.877 726.117 227.088 726.078 227.28 725.99C227.471 725.901 227.638 725.767 227.765 725.598L258.82 743.83V781.633L289.943 799.899C289.877 800.056 289.848 800.227 289.858 800.397C289.855 800.564 289.886 800.73 289.948 800.885C290.01 801.04 290.101 801.182 290.218 801.302C290.334 801.421 290.473 801.517 290.627 801.583C290.78 801.649 290.945 801.684 291.112 801.686C291.451 801.682 291.774 801.544 292.012 801.303C292.25 801.061 292.384 800.736 292.384 800.397C292.388 800.225 292.353 800.055 292.281 799.899L323.49 781.581V744.981C323.828 744.96 324.143 744.807 324.367 744.554C324.591 744.301 324.705 743.969 324.685 743.632C324.664 743.295 324.511 742.979 324.258 742.755C324.005 742.531 323.673 742.417 323.336 742.438C323.139 742.44 322.945 742.489 322.772 742.582C322.598 742.674 322.45 742.808 322.339 742.97L291.318 724.739V688.276C291.625 688.238 291.908 688.09 292.113 687.859C292.319 687.628 292.434 687.33 292.435 687.021C292.436 686.844 292.401 686.669 292.332 686.506L323.542 668.205V631.57C323.85 631.529 324.133 631.377 324.338 631.144C324.544 630.91 324.658 630.61 324.659 630.299C324.66 630.127 324.624 629.958 324.556 629.8L355.594 611.586L387.817 630.488L418.975 612.205C419.085 612.363 419.232 612.492 419.402 612.582C419.573 612.671 419.762 612.719 419.955 612.72C420.292 612.741 420.624 612.626 420.877 612.402C421.13 612.178 421.283 611.863 421.304 611.526C421.324 611.189 421.21 610.857 420.986 610.604C420.762 610.351 420.447 610.198 420.11 610.177V573.508L388.986 555.242C389.041 555.081 389.07 554.913 389.072 554.743C389.093 554.565 389.075 554.384 389.022 554.213C388.968 554.042 388.878 553.884 388.759 553.75C388.639 553.616 388.493 553.509 388.329 553.436C388.166 553.362 387.988 553.324 387.809 553.324C387.629 553.324 387.452 553.362 387.288 553.436C387.124 553.509 386.978 553.616 386.859 553.75C386.739 553.884 386.65 554.042 386.596 554.213C386.542 554.384 386.525 554.565 386.545 554.743C386.519 554.908 386.519 555.077 386.545 555.242L355.594 573.404L324.539 555.19C324.607 555.033 324.642 554.863 324.642 554.692C324.64 554.383 324.525 554.085 324.32 553.854C324.114 553.623 323.832 553.475 323.525 553.437V516.974L354.597 498.743C354.709 498.904 354.858 499.037 355.031 499.129C355.204 499.222 355.397 499.272 355.594 499.275C355.79 499.269 355.982 499.218 356.154 499.126C356.327 499.033 356.477 498.902 356.59 498.743L387.817 517.06L420.127 498.158V461.437C420.315 461.409 420.495 461.339 420.653 461.231C420.811 461.124 420.943 460.983 421.038 460.818C421.134 460.653 421.191 460.468 421.206 460.278C421.221 460.088 421.193 459.897 421.124 459.719L452.178 441.505L484.402 460.406H484.488L515.629 442.123C515.742 442.283 515.891 442.413 516.064 442.502C516.238 442.592 516.43 442.639 516.626 442.639C516.963 442.659 517.295 442.545 517.548 442.321C517.801 442.097 517.954 441.782 517.975 441.444C517.995 441.107 517.881 440.776 517.657 440.523C517.433 440.27 517.118 440.116 516.78 440.096V403.357L484.488 384.456H484.402L453.261 402.722C453.148 402.562 452.999 402.432 452.826 402.342C452.652 402.252 452.46 402.205 452.264 402.205C452.069 402.205 451.876 402.252 451.703 402.342C451.53 402.432 451.38 402.562 451.268 402.722L420.213 384.456V348.01C420.518 347.972 420.799 347.823 421.001 347.592C421.204 347.361 421.315 347.063 421.313 346.755C421.312 346.58 421.283 346.406 421.227 346.24L452.419 327.939V289.947L421.295 271.681C421.35 271.52 421.379 271.352 421.381 271.183C421.402 271.004 421.385 270.824 421.331 270.653C421.277 270.481 421.187 270.324 421.068 270.19C420.949 270.056 420.803 269.948 420.639 269.875C420.475 269.801 420.298 269.763 420.118 269.763C419.939 269.763 419.761 269.801 419.597 269.875C419.434 269.948 419.287 270.056 419.168 270.19C419.049 270.324 418.959 270.481 418.905 270.653C418.851 270.824 418.834 271.004 418.855 271.183C418.829 271.348 418.829 271.516 418.855 271.681L388.814 289.311C388.696 289.153 388.543 289.025 388.367 288.935C388.191 288.846 387.997 288.798 387.8 288.796C387.603 288.796 387.409 288.845 387.235 288.938C387.061 289.031 386.913 289.165 386.803 289.328L355.731 271.097V233.465L387.8 214.563L418.838 232.795C418.776 232.954 418.741 233.122 418.735 233.293C418.735 233.63 418.869 233.954 419.107 234.192C419.346 234.431 419.669 234.565 420.006 234.565C420.344 234.565 420.667 234.431 420.906 234.192C421.144 233.954 421.278 233.63 421.278 233.293C421.306 233.128 421.306 232.96 421.278 232.795L452.471 214.477V177.877C452.777 177.839 453.06 177.691 453.266 177.46C453.471 177.229 453.586 176.931 453.588 176.622C453.59 176.453 453.559 176.285 453.496 176.128C453.433 175.971 453.34 175.827 453.222 175.706C453.104 175.585 452.963 175.488 452.808 175.421C452.652 175.354 452.485 175.319 452.316 175.316C452.12 175.322 451.928 175.373 451.755 175.466C451.582 175.558 451.433 175.689 451.319 175.849L420.041 157.514H419.955L388.797 175.797C388.688 175.637 388.542 175.505 388.371 175.413C388.201 175.32 388.011 175.269 387.817 175.265C387.621 175.268 387.428 175.318 387.254 175.411C387.081 175.503 386.932 175.636 386.82 175.797L355.748 157.566V120.003L386.82 101.771C386.933 101.931 387.083 102.061 387.256 102.15C387.429 102.24 387.622 102.287 387.817 102.287C388.01 102.286 388.199 102.238 388.37 102.148C388.54 102.059 388.687 101.929 388.797 101.771L420.024 120.089L451.164 101.823C451.279 101.98 451.429 102.109 451.602 102.198C451.775 102.288 451.966 102.336 452.161 102.338C452.499 102.359 452.83 102.245 453.083 102.021C453.336 101.797 453.49 101.481 453.51 101.144C453.531 100.807 453.417 100.475 453.193 100.222C452.969 99.9694 452.653 99.8157 452.316 99.7952V63.2805L483.388 45.0489C483.499 45.2115 483.647 45.3448 483.821 45.4376C483.995 45.5303 484.188 45.5797 484.385 45.5816C484.581 45.5756 484.773 45.5244 484.946 45.432C485.119 45.3396 485.268 45.2085 485.382 45.0489L516.608 63.3836L548.918 44.4818V7.7437C549.235 7.6922 549.521 7.52446 549.72 7.27325C549.92 7.02205 550.019 6.70544 549.997 6.38535C549.976 6.06525 549.836 5.76466 549.604 5.54239C549.373 5.3201 549.067 5.19208 548.746 5.18335C548.552 5.18793 548.362 5.23865 548.192 5.33128C548.021 5.42392 547.876 5.55583 547.766 5.71606L516.694 -12.6874H516.608L484.471 6.21437L453.416 -12.0001C453.483 -12.1637 453.518 -12.3387 453.519 -12.5155C453.517 -12.8247 453.403 -13.1225 453.197 -13.3534C452.991 -13.5843 452.709 -13.7324 452.402 -13.7699V-50.13L484.625 -69.0318V-105.684C484.792 -105.695 484.956 -105.739 485.106 -105.814C485.256 -105.888 485.389 -105.991 485.5 -106.117C485.61 -106.243 485.694 -106.39 485.747 -106.548C485.801 -106.707 485.823 -106.875 485.811 -107.042C485.8 -107.208 485.756 -107.372 485.682 -107.522C485.607 -107.672 485.504 -107.805 485.378 -107.915C485.252 -108.026 485.105 -108.11 484.947 -108.163C484.788 -108.217 484.621 -108.238 484.454 -108.227C484.261 -108.225 484.072 -108.176 483.902 -108.087C483.732 -107.997 483.585 -107.869 483.474 -107.712L452.247 -126.098L419.938 -107.196V-70.3893C419.629 -70.3478 419.346 -70.1962 419.141 -69.9625C418.936 -69.7288 418.822 -69.4288 418.821 -69.1177C418.828 -68.9528 418.863 -68.7902 418.924 -68.6366L387.645 -50.3191V-12.3265L419.783 6.57524V43.0212C419.475 43.0627 419.192 43.2143 418.986 43.448C418.781 43.6817 418.667 43.9818 418.666 44.2928C418.674 44.4633 418.709 44.6315 418.769 44.7911L387.731 63.0056L356.676 44.7911C356.747 44.6285 356.782 44.4528 356.779 44.2756C356.779 44.1086 356.747 43.9433 356.683 43.789C356.619 43.6348 356.525 43.4946 356.407 43.3765C356.289 43.2584 356.149 43.1647 355.994 43.1008C355.84 43.0369 355.675 43.0041 355.508 43.0041C355.341 43.0041 355.175 43.0369 355.021 43.1008C354.867 43.1647 354.727 43.2584 354.608 43.3765C354.49 43.4946 354.397 43.6348 354.333 43.789C354.269 43.9433 354.236 44.1086 354.236 44.2756C354.235 44.4471 354.271 44.6168 354.339 44.774L323.215 63.0915V99.7437C322.909 99.7813 322.626 99.9293 322.42 100.16C322.215 100.391 322.1 100.689 322.098 100.998C322.098 101.17 322.133 101.339 322.201 101.496L291.146 119.711L259.095 100.809V63.2805L290.167 45.0489C290.273 45.2123 290.418 45.3465 290.589 45.4396C290.76 45.5326 290.952 45.5814 291.146 45.5816C291.485 45.5771 291.809 45.4393 292.047 45.1981C292.285 44.9569 292.418 44.6317 292.418 44.2928C292.421 43.9833 292.311 43.6834 292.108 43.4494C291.906 43.2153 291.625 43.063 291.318 43.0212V6.57524L323.525 -12.3265V-48.9788C323.735 -49.001 323.936 -49.0752 324.11 -49.1945C324.284 -49.3139 324.425 -49.4747 324.522 -49.6624C324.618 -49.8502 324.666 -50.059 324.662 -50.27C324.658 -50.481 324.601 -50.6875 324.496 -50.8711C324.392 -51.0546 324.244 -51.2093 324.065 -51.3212C323.886 -51.4332 323.682 -51.4988 323.471 -51.5122C323.261 -51.5256 323.05 -51.4864 322.858 -51.3981C322.667 -51.3098 322.5 -51.1752 322.373 -51.0064L291.318 -69.238V-107.042L260.109 -125.342C260.136 -125.513 260.136 -125.687 260.109 -125.857C260.109 -126.18 259.987 -126.491 259.767 -126.727C259.547 -126.964 259.245 -127.107 258.923 -127.129ZM452.247 -50.4909L441.523 -56.6941L421.158 -68.7225C421.226 -68.8797 421.262 -69.0494 421.261 -69.2208C421.263 -69.5284 421.153 -69.8261 420.95 -70.0573C420.747 -70.2886 420.466 -70.4373 420.161 -70.4752V-106.852L452.213 -125.754L483.268 -107.523C483.197 -107.366 483.162 -107.196 483.165 -107.024C483.167 -106.715 483.281 -106.417 483.487 -106.186C483.692 -105.956 483.975 -105.808 484.282 -105.77V-69.2208L452.247 -50.4909ZM441.403 -6.31232L420.024 6.23155L387.972 -12.6702V-50.13L419.044 -68.3616C419.157 -68.2022 419.306 -68.0722 419.48 -67.9825C419.653 -67.8928 419.846 -67.846 420.041 -67.8461C420.233 -67.8474 420.423 -67.8948 420.593 -67.9845C420.764 -68.0742 420.91 -68.2036 421.02 -68.3616L430.713 -62.6739L452.092 -50.13V-13.684C451.784 -13.6426 451.501 -13.491 451.296 -13.2573C451.091 -13.0236 450.977 -12.7235 450.975 -12.4124C450.983 -12.2475 451.018 -12.085 451.079 -11.9313L441.403 -6.31232ZM485.639 44.7224C485.71 44.5598 485.745 44.3841 485.742 44.2069C485.741 43.8978 485.626 43.5999 485.421 43.369C485.215 43.1382 484.932 42.9901 484.625 42.9525V6.57524L516.694 -12.3265L547.732 5.88788C547.676 6.05391 547.647 6.22803 547.646 6.4034C547.644 6.71094 547.755 7.00862 547.957 7.23988C548.16 7.47115 548.441 7.61986 548.746 7.65778V44.1897L516.694 63.0915L485.639 44.7224ZM452.247 62.9368L441.523 56.7336L421.158 44.7052C421.226 44.548 421.262 44.3784 421.261 44.2069C421.264 43.8974 421.154 43.5975 420.951 43.3634C420.749 43.1293 420.468 42.9771 420.161 42.9353V6.57524L430.851 0.303276L451.216 -11.7251C451.332 -11.5654 451.485 -11.4354 451.661 -11.3458C451.837 -11.2563 452.032 -11.2096 452.23 -11.2096C452.422 -11.2149 452.61 -11.2641 452.78 -11.3535C452.95 -11.4429 453.097 -11.57 453.21 -11.7251L484.282 6.50648V42.9525C483.973 42.994 483.69 43.1455 483.485 43.3792C483.28 43.6129 483.166 43.913 483.165 44.2241C483.164 44.3955 483.199 44.5652 483.268 44.7224L452.247 62.9368ZM388.986 101.428C389.012 101.263 389.012 101.094 388.986 100.929C388.988 100.622 388.877 100.324 388.675 100.093C388.472 99.8616 388.191 99.7128 387.886 99.6749V63.2805L418.958 45.0489C419.064 45.2123 419.209 45.3465 419.38 45.4396C419.551 45.5326 419.743 45.5814 419.938 45.5816C420.135 45.5812 420.329 45.5324 420.503 45.4395C420.676 45.3467 420.825 45.2125 420.934 45.0489L430.627 50.7366L452.007 63.2805V99.7437C451.7 99.7813 451.417 99.9293 451.211 100.16C451.006 100.391 450.891 100.689 450.889 100.998C450.889 101.17 450.924 101.339 450.993 101.496L419.938 119.711L388.986 101.428ZM355.594 119.711L344.904 113.439L324.539 101.41C324.607 101.253 324.642 101.084 324.642 100.912C324.64 100.603 324.525 100.305 324.32 100.074C324.114 99.8434 323.832 99.6954 323.525 99.6578V63.2805L354.597 45.0489C354.708 45.2115 354.856 45.3448 355.03 45.4376C355.203 45.5303 355.397 45.5797 355.594 45.5816C355.79 45.5756 355.982 45.5244 356.154 45.432C356.327 45.3396 356.477 45.2085 356.59 45.0489L387.645 63.2805V99.7437C387.34 99.7816 387.059 99.9303 386.857 100.162C386.654 100.393 386.543 100.691 386.545 100.998C386.545 101.17 386.58 101.339 386.649 101.496L355.594 119.711ZM355.439 157.617L344.749 163.889L323.37 176.433L292.315 158.202C292.387 158.046 292.423 157.875 292.418 157.703C292.421 157.396 292.31 157.098 292.107 156.867C291.904 156.636 291.624 156.487 291.318 156.449V120.003L322.373 101.771C322.486 101.931 322.635 102.061 322.809 102.151C322.982 102.241 323.175 102.288 323.37 102.288C323.565 102.288 323.758 102.241 323.931 102.151C324.105 102.061 324.254 101.931 324.367 101.771L334.06 107.459L355.439 120.003V157.617ZM291.146 158.992C291.341 158.989 291.533 158.941 291.706 158.852C291.879 158.763 292.029 158.634 292.143 158.477L323.215 176.708V213.171C322.909 213.209 322.626 213.357 322.42 213.588C322.215 213.819 322.1 214.117 322.098 214.426C322.098 214.597 322.133 214.767 322.201 214.924L290.992 233.242V269.877C290.782 269.899 290.581 269.973 290.407 270.092C290.233 270.212 290.091 270.373 289.995 270.56C289.898 270.748 289.85 270.957 289.855 271.168C289.859 271.379 289.916 271.585 290.02 271.769C290.124 271.953 290.273 272.107 290.452 272.219C290.63 272.331 290.834 272.397 291.045 272.41C291.256 272.424 291.466 272.384 291.658 272.296C291.85 272.208 292.017 272.073 292.143 271.904L323.215 290.136V326.582C322.999 326.598 322.79 326.669 322.608 326.788C322.426 326.907 322.278 327.07 322.176 327.261C322.074 327.453 322.022 327.667 322.025 327.885C322.028 328.102 322.085 328.314 322.193 328.503C322.3 328.692 322.453 328.851 322.638 328.965C322.823 329.078 323.034 329.144 323.25 329.154C323.467 329.165 323.683 329.12 323.879 329.025C324.074 328.93 324.242 328.787 324.367 328.61L355.439 346.858V383.304C355.134 383.342 354.853 383.491 354.65 383.722C354.447 383.954 354.337 384.251 354.339 384.559C354.339 384.898 354.472 385.223 354.711 385.464C354.949 385.705 355.272 385.843 355.611 385.847C355.808 385.846 356.001 385.796 356.175 385.703C356.348 385.611 356.497 385.477 356.608 385.315L387.663 403.546V441.178L355.594 459.994L324.539 441.762C324.609 441.606 324.645 441.436 324.642 441.264C324.642 441.097 324.609 440.932 324.545 440.777C324.481 440.623 324.387 440.483 324.269 440.365C324.151 440.247 324.011 440.153 323.857 440.089C323.702 440.025 323.537 439.992 323.37 439.992C323.203 439.992 323.038 440.025 322.883 440.089C322.729 440.153 322.589 440.247 322.471 440.365C322.353 440.483 322.259 440.623 322.195 440.777C322.131 440.932 322.098 441.097 322.098 441.264C322.096 441.436 322.131 441.606 322.201 441.762L290.992 460.08V496.715C290.685 496.757 290.404 496.909 290.202 497.143C289.999 497.377 289.889 497.677 289.892 497.986C289.885 498.157 289.915 498.327 289.978 498.485L259.92 516.115C259.809 515.955 259.661 515.825 259.489 515.735C259.317 515.645 259.126 515.598 258.931 515.598C258.737 515.598 258.546 515.645 258.374 515.735C258.202 515.825 258.054 515.955 257.943 516.115L226.888 497.883V461.42C227.195 461.383 227.478 461.234 227.684 461.004C227.889 460.773 228.004 460.475 228.005 460.166C227.998 459.995 227.963 459.827 227.902 459.667L259.112 441.367V404.715C259.279 404.704 259.442 404.66 259.592 404.585C259.742 404.511 259.876 404.408 259.986 404.282C260.096 404.156 260.18 404.009 260.234 403.851C260.287 403.692 260.309 403.524 260.298 403.357C260.286 403.19 260.242 403.027 260.168 402.877C260.094 402.727 259.991 402.594 259.865 402.483C259.738 402.373 259.592 402.289 259.433 402.236C259.275 402.182 259.107 402.16 258.94 402.172C258.748 402.174 258.559 402.222 258.388 402.312C258.218 402.402 258.072 402.53 257.961 402.687L226.888 384.456V348.01C227.197 347.968 227.48 347.817 227.685 347.583C227.89 347.349 228.004 347.049 228.005 346.738C228.001 346.398 227.864 346.072 227.623 345.832C227.382 345.591 227.057 345.454 226.717 345.449C226.523 345.455 226.333 345.507 226.163 345.599C225.993 345.692 225.847 345.823 225.737 345.982L194.648 327.75V291.287C194.954 291.25 195.237 291.102 195.443 290.871C195.648 290.64 195.763 290.342 195.765 290.033C195.765 289.694 195.631 289.369 195.393 289.128C195.155 288.886 194.832 288.749 194.493 288.744C194.296 288.744 194.102 288.793 193.928 288.886C193.754 288.979 193.606 289.113 193.496 289.277L162.424 271.045V233.413L194.493 214.512L225.531 232.743C225.503 232.908 225.503 233.077 225.531 233.242C225.531 233.579 225.665 233.902 225.903 234.141C226.142 234.379 226.465 234.513 226.802 234.513C227.14 234.513 227.463 234.379 227.702 234.141C227.94 233.902 228.074 233.579 228.074 233.242C228.068 233.071 228.033 232.902 227.971 232.743L259.181 214.426V177.877C259.486 177.831 259.765 177.678 259.967 177.445C260.168 177.212 260.28 176.914 260.281 176.605C260.307 176.44 260.307 176.272 260.281 176.107L290.322 158.477C290.418 158.613 290.54 158.729 290.682 158.818C290.824 158.906 290.982 158.965 291.146 158.992ZM387.972 214.323V177.877C388.277 177.839 388.558 177.69 388.761 177.459C388.963 177.228 389.074 176.93 389.072 176.622C389.099 176.452 389.099 176.277 389.072 176.107L420.127 157.892L451.164 176.107C451.094 176.269 451.059 176.445 451.061 176.622C451.063 176.931 451.178 177.229 451.383 177.46C451.589 177.691 451.872 177.839 452.178 177.877V214.323L421.106 232.554C420.994 232.395 420.844 232.265 420.671 232.175C420.497 232.085 420.305 232.039 420.11 232.039C419.917 232.04 419.727 232.087 419.557 232.177C419.386 232.267 419.24 232.396 419.13 232.554L387.972 214.323ZM355.594 233.139L344.904 226.867L324.539 214.838C324.607 214.681 324.642 214.511 324.642 214.34C324.644 214.03 324.531 213.73 324.324 213.498C324.118 213.266 323.833 213.12 323.525 213.086V176.708L334.214 170.436L355.594 157.892L386.649 176.107C386.579 176.285 386.551 176.476 386.566 176.666C386.581 176.856 386.638 177.04 386.734 177.206C386.829 177.371 386.961 177.512 387.119 177.619C387.277 177.726 387.457 177.797 387.645 177.825V214.271L355.594 233.139ZM355.439 271.045L344.749 277.317L323.37 289.844L292.315 271.629C292.384 271.472 292.419 271.303 292.418 271.131C292.421 270.824 292.31 270.526 292.107 270.295C291.904 270.063 291.624 269.915 291.318 269.877V233.413L322.373 215.182C322.483 215.345 322.632 215.478 322.806 215.571C322.98 215.663 323.173 215.711 323.37 215.711C323.567 215.711 323.761 215.663 323.934 215.571C324.108 215.478 324.257 215.345 324.367 215.182L334.06 220.87L355.439 233.413V271.045ZM386.649 289.534C386.579 289.712 386.551 289.903 386.566 290.094C386.581 290.284 386.638 290.468 386.734 290.633C386.829 290.798 386.961 290.94 387.119 291.047C387.277 291.154 387.457 291.225 387.645 291.253V327.716L355.594 346.566L324.539 328.352C324.607 328.195 324.642 328.025 324.642 327.853C324.644 327.541 324.532 327.239 324.326 327.005C324.12 326.77 323.835 326.62 323.525 326.582V290.136L334.214 283.864L355.594 271.32L386.649 289.534ZM420.058 345.466C419.863 345.466 419.67 345.513 419.497 345.603C419.323 345.693 419.174 345.823 419.061 345.982L409.368 340.294L387.989 327.75V291.287C388.291 291.245 388.568 291.095 388.767 290.864C388.966 290.633 389.075 290.338 389.072 290.033C389.099 289.874 389.099 289.711 389.072 289.552L419.147 271.904C419.258 272.064 419.406 272.194 419.578 272.284C419.75 272.374 419.941 272.421 420.135 272.421C420.33 272.421 420.521 272.374 420.693 272.284C420.865 272.194 421.013 272.064 421.124 271.904L452.196 290.136V327.75L421.124 345.982C421.004 345.813 420.844 345.677 420.657 345.586C420.471 345.496 420.265 345.455 420.058 345.466ZM419.886 384.456L409.197 390.728L387.834 403.271L356.779 385.057C356.848 384.9 356.883 384.73 356.883 384.559C356.881 384.25 356.766 383.952 356.561 383.721C356.355 383.49 356.072 383.342 355.766 383.304V346.841L387.834 327.939L398.524 334.211L418.872 346.154C418.845 346.325 418.845 346.499 418.872 346.669C418.87 346.977 418.981 347.275 419.183 347.506C419.386 347.737 419.667 347.886 419.972 347.924L419.886 384.456ZM452.419 441.161V404.715C452.726 404.677 453.009 404.529 453.214 404.298C453.42 404.068 453.534 403.77 453.536 403.461C453.537 403.289 453.502 403.119 453.433 402.962L484.488 384.748L516.557 403.546V440.01C516.25 440.047 515.967 440.195 515.762 440.426C515.556 440.657 515.442 440.955 515.44 441.264C515.437 441.436 515.472 441.606 515.543 441.762L484.488 459.994L452.419 441.161ZM420.058 458.86C419.861 458.863 419.669 458.913 419.495 459.006C419.322 459.098 419.173 459.231 419.061 459.393L409.368 453.688L387.989 441.161V403.529L398.679 397.274L420.058 384.731L451.096 402.945C451.027 403.102 450.992 403.272 450.993 403.443C450.994 403.753 451.109 404.05 451.315 404.281C451.52 404.512 451.803 404.66 452.11 404.698V441.161L421.038 459.393C420.926 459.236 420.779 459.109 420.609 459.019C420.439 458.93 420.25 458.881 420.058 458.877V458.86ZM356.779 498.468C356.848 498.31 356.883 498.141 356.883 497.969C356.881 497.658 356.767 497.358 356.562 497.124C356.357 496.891 356.074 496.739 355.766 496.698V460.269L387.834 441.453L398.524 447.725L418.872 459.667C418.845 459.838 418.845 460.012 418.872 460.183C418.87 460.49 418.981 460.788 419.183 461.019C419.386 461.251 419.667 461.399 419.972 461.437V497.883L387.92 516.699L356.779 498.468ZM323.387 516.682L312.629 510.427L292.264 498.485C292.332 498.328 292.367 498.158 292.367 497.986C292.369 497.674 292.256 497.372 292.05 497.138C291.844 496.903 291.559 496.753 291.25 496.715V460.269L322.322 442.037C322.432 442.2 322.58 442.334 322.754 442.426C322.928 442.518 323.122 442.567 323.319 442.567C323.515 442.567 323.709 442.518 323.883 442.426C324.057 442.334 324.205 442.2 324.315 442.037L355.37 460.269V496.715C355.064 496.757 354.783 496.909 354.58 497.143C354.378 497.377 354.267 497.677 354.27 497.986C354.27 498.158 354.305 498.328 354.373 498.485L323.387 516.682ZM355.766 611.294V573.697L386.838 555.465C386.95 555.624 387.1 555.754 387.273 555.844C387.447 555.934 387.639 555.981 387.834 555.98C388.029 555.978 388.221 555.93 388.394 555.84C388.567 555.751 388.716 555.622 388.831 555.465L419.886 573.697V610.143C419.579 610.18 419.297 610.328 419.091 610.559C418.885 610.79 418.771 611.088 418.769 611.397C418.775 611.568 418.81 611.736 418.872 611.895L387.834 630.11L355.766 611.294ZM259.112 743.812L269.784 737.54L291.164 724.997L322.219 743.211C322.15 743.368 322.115 743.538 322.116 743.709C322.117 744.018 322.232 744.316 322.437 744.547C322.643 744.778 322.926 744.926 323.233 744.964V781.427L292.16 799.658C292.049 799.497 291.9 799.364 291.726 799.272C291.553 799.179 291.36 799.129 291.164 799.126C290.968 799.132 290.776 799.183 290.603 799.275C290.43 799.368 290.281 799.499 290.167 799.658L259.112 781.427V743.812ZM258.94 668.205L269.664 674.649L290.029 686.592C289.966 686.756 289.937 686.931 289.943 687.107C289.941 687.415 290.052 687.712 290.255 687.944C290.457 688.175 290.738 688.324 291.043 688.361V724.825L280.354 731.097L258.974 743.623L227.902 725.323C227.963 725.163 227.998 724.995 228.005 724.825C228.004 724.516 227.889 724.218 227.684 723.987C227.478 723.756 227.195 723.608 226.888 723.57V687.107L258.94 668.205ZM291.164 611.5L301.853 617.772L322.219 629.715C322.15 629.872 322.115 630.041 322.116 630.213C322.117 630.524 322.231 630.824 322.436 631.058C322.641 631.291 322.924 631.443 323.233 631.484V667.93L292.16 686.162C292.048 686.003 291.898 685.873 291.725 685.783C291.551 685.693 291.359 685.646 291.164 685.647C290.969 685.649 290.777 685.697 290.604 685.787C290.431 685.876 290.282 686.005 290.167 686.162L280.474 680.474L259.112 667.93V631.57C259.417 631.525 259.696 631.372 259.898 631.138C260.1 630.905 260.211 630.607 260.212 630.299C260.238 630.134 260.238 629.966 260.212 629.8L291.164 611.5ZM291.318 573.611L302.008 567.322L322.39 555.379C322.503 555.539 322.652 555.669 322.826 555.759C322.999 555.849 323.192 555.895 323.387 555.895C323.583 555.895 323.775 555.849 323.949 555.759C324.122 555.669 324.271 555.539 324.384 555.379L355.439 573.611V611.225L324.384 629.457C324.274 629.294 324.125 629.16 323.952 629.068C323.778 628.976 323.584 628.927 323.387 628.927C323.19 628.927 322.997 628.976 322.823 629.068C322.649 629.16 322.501 629.294 322.39 629.457L312.629 623.855L291.25 611.311L291.318 573.611ZM259.112 554.503V518.143C259.417 518.105 259.698 517.956 259.901 517.725C260.103 517.493 260.214 517.196 260.212 516.888C260.241 516.723 260.241 516.555 260.212 516.39L290.253 498.743C290.367 498.902 290.516 499.033 290.689 499.126C290.862 499.218 291.054 499.269 291.25 499.275C291.446 499.272 291.639 499.222 291.812 499.129C291.986 499.037 292.134 498.904 292.246 498.743L301.939 504.43L323.319 516.974V553.437C323.012 553.475 322.729 553.623 322.523 553.854C322.318 554.085 322.203 554.383 322.201 554.692C322.201 554.863 322.236 555.033 322.305 555.19L312.629 560.861L291.25 573.404L259.112 554.503ZM97.805 725.014L108.529 731.354L128.894 743.297C128.826 743.454 128.791 743.624 128.791 743.795C128.797 744.103 128.912 744.399 129.117 744.629C129.322 744.859 129.603 745.008 129.908 745.049V781.513L97.805 800.243L66.8704 782.028C66.9042 781.864 66.9042 781.694 66.8704 781.53C66.8685 781.221 66.754 780.923 66.5484 780.692C66.3428 780.461 66.0602 780.313 65.7533 780.275V743.812L97.805 725.014ZM108.666 680.835L130.029 668.291L162.097 687.193V724.807L131.06 742.953C130.947 742.794 130.798 742.664 130.624 742.574C130.451 742.484 130.258 742.438 130.063 742.438C129.87 742.439 129.681 742.486 129.51 742.576C129.34 742.666 129.193 742.795 129.083 742.953L119.373 737.266L98.0112 724.722V688.276C98.3195 688.237 98.6026 688.086 98.8058 687.851C99.0089 687.616 99.1177 687.315 99.1111 687.004C99.1102 686.833 99.0752 686.663 99.008 686.506L108.666 680.835ZM64.4643 629.8C64.3952 629.978 64.367 630.169 64.3817 630.359C64.3964 630.55 64.4538 630.734 64.5495 630.899C64.6453 631.064 64.7769 631.206 64.9347 631.313C65.0925 631.42 65.2724 631.49 65.4611 631.519V667.965L33.4094 686.867L2.35447 668.652C2.42487 668.49 2.46002 668.314 2.45759 668.137C2.4557 667.828 2.34126 667.53 2.13565 667.299C1.93005 667.068 1.64738 666.92 1.3405 666.882V630.402L33.4094 611.586L64.4643 629.8ZM97.805 611.586L108.529 617.944L128.894 629.886C128.826 630.044 128.791 630.213 128.791 630.385C128.793 630.696 128.906 630.996 129.112 631.229C129.317 631.463 129.6 631.615 129.908 631.656V668.102L119.219 674.374L98.8362 686.403C98.7234 686.243 98.574 686.113 98.4006 686.023C98.2271 685.934 98.0347 685.887 97.8394 685.887C97.6467 685.888 97.4572 685.936 97.2868 686.025C97.1163 686.115 96.9699 686.245 96.8598 686.403L65.7877 668.016V631.57C66.096 631.529 66.3789 631.377 66.5842 631.144C66.7895 630.91 66.9034 630.61 66.9047 630.299C66.9192 630.132 66.9076 629.964 66.8704 629.8L97.805 611.586ZM161.084 573.095C161.013 573.252 160.978 573.422 160.98 573.594C160.982 573.903 161.097 574.2 161.302 574.431C161.508 574.662 161.791 574.81 162.097 574.848V611.311L131.06 629.543C130.95 629.379 130.802 629.245 130.628 629.152C130.454 629.059 130.26 629.01 130.063 629.01C129.868 629.01 129.677 629.059 129.506 629.152C129.334 629.245 129.189 629.379 129.083 629.543L119.373 623.855L98.0112 611.311V574.848C98.3165 574.81 98.5972 574.661 98.8 574.43C99.0027 574.199 99.1135 573.901 99.1111 573.594C99.1138 573.422 99.0786 573.252 99.008 573.095L130.063 554.881L161.084 573.095ZM194.476 554.881L205.2 561.239L225.548 573.181C225.52 573.346 225.52 573.514 225.548 573.679C225.55 573.989 225.664 574.286 225.87 574.517C226.075 574.748 226.358 574.896 226.665 574.934V611.397L195.507 629.543C195.392 629.38 195.241 629.247 195.064 629.154C194.888 629.061 194.692 629.012 194.493 629.01C194.299 629.016 194.11 629.067 193.94 629.16C193.77 629.252 193.624 629.383 193.513 629.543L162.441 611.311V574.848C162.748 574.81 163.031 574.662 163.236 574.431C163.442 574.2 163.556 573.903 163.558 573.594C163.561 573.422 163.526 573.252 163.455 573.095L194.476 554.881ZM194.63 516.974L205.32 510.702L226.699 498.158L257.754 516.39C257.725 516.555 257.725 516.723 257.754 516.888C257.752 517.196 257.863 517.493 258.065 517.725C258.268 517.956 258.549 518.105 258.854 518.143V554.589L227.73 572.82C227.614 572.66 227.462 572.531 227.285 572.441C227.109 572.351 226.914 572.305 226.717 572.305C226.524 572.307 226.335 572.355 226.165 572.445C225.995 572.535 225.848 572.663 225.737 572.82L216.044 567.133L194.665 554.589L194.63 516.974ZM162.097 460.269V496.715C161.791 496.753 161.508 496.901 161.302 497.131C161.097 497.362 160.982 497.66 160.98 497.969C160.978 498.146 161.013 498.322 161.084 498.485L130.029 516.699L99.008 498.485C99.0772 498.307 99.1054 498.116 99.0907 497.926C99.0759 497.735 99.0185 497.551 98.9228 497.386C98.8271 497.221 98.6954 497.08 98.5377 496.972C98.3798 496.865 98.1999 496.795 98.0112 496.766V460.269L129.083 442.037C129.193 442.195 129.34 442.325 129.51 442.414C129.681 442.504 129.87 442.552 130.063 442.553C130.258 442.553 130.451 442.506 130.624 442.416C130.798 442.327 130.947 442.197 131.06 442.037L162.097 460.269ZM194.476 441.453L205.165 447.725L225.513 459.667C225.487 459.833 225.487 460.001 225.513 460.166C225.512 460.476 225.625 460.776 225.831 461.007C226.037 461.239 226.322 461.386 226.631 461.42V497.883L215.941 504.155L194.562 516.699L163.455 498.485C163.524 498.306 163.552 498.113 163.536 497.922C163.521 497.731 163.462 497.545 163.364 497.38C163.267 497.215 163.133 497.074 162.973 496.967C162.813 496.861 162.631 496.792 162.441 496.766V460.269L194.476 441.453ZM194.63 403.546L205.32 397.292L226.699 384.748L257.754 402.962C257.728 403.127 257.728 403.295 257.754 403.461C257.752 403.768 257.863 404.066 258.065 404.297C258.268 404.528 258.549 404.677 258.854 404.715V441.178L227.73 459.41C227.615 459.248 227.463 459.115 227.287 459.023C227.111 458.93 226.915 458.88 226.717 458.877C226.523 458.883 226.333 458.934 226.163 459.027C225.993 459.119 225.847 459.25 225.737 459.41L216.044 453.705L194.665 441.178L194.63 403.546ZM163.455 385.057C163.524 384.9 163.559 384.73 163.558 384.559C163.561 384.247 163.448 383.945 163.242 383.71C163.036 383.476 162.751 383.325 162.441 383.287V346.841L194.51 327.939L225.548 346.154C225.522 346.319 225.522 346.487 225.548 346.652C225.546 346.964 225.658 347.266 225.864 347.501C226.07 347.735 226.355 347.886 226.665 347.924V384.37L215.975 390.642L194.596 403.186L163.455 385.057ZM130.046 329.125C130.241 329.125 130.434 329.078 130.607 328.989C130.78 328.899 130.93 328.769 131.043 328.61L140.77 334.297L162.149 346.841V383.304C161.844 383.342 161.563 383.491 161.36 383.722C161.158 383.954 161.047 384.251 161.049 384.559C161.047 384.725 161.082 384.889 161.152 385.04L131.077 402.687C130.964 402.528 130.815 402.398 130.641 402.308C130.468 402.218 130.275 402.172 130.08 402.172C129.888 402.173 129.698 402.22 129.528 402.31C129.357 402.4 129.211 402.529 129.101 402.687L97.994 384.456V346.841L129.066 328.61C129.176 328.768 129.323 328.897 129.493 328.987C129.664 329.076 129.853 329.124 130.046 329.125ZM130.218 290.136L140.907 283.864L162.269 271.32L193.324 289.534C193.256 289.692 193.221 289.861 193.221 290.033C193.223 290.342 193.338 290.64 193.543 290.871C193.749 291.102 194.031 291.25 194.338 291.287V327.75L162.269 346.566L151.58 340.294L131.214 328.352C131.284 328.174 131.312 327.983 131.297 327.793C131.282 327.603 131.225 327.418 131.129 327.253C131.033 327.088 130.902 326.947 130.744 326.839C130.586 326.732 130.406 326.662 130.218 326.633V290.136ZM97.6675 233.431V269.894C97.3623 269.932 97.0816 270.081 96.8788 270.312C96.676 270.543 96.5653 270.841 96.5676 271.148C96.5671 271.32 96.6022 271.489 96.6707 271.647L65.6158 289.844L33.5469 271.045V234.582C33.8538 234.544 34.1364 234.396 34.342 234.165C34.5476 233.935 34.6621 233.637 34.664 233.328C34.6666 233.156 34.6314 232.986 34.5609 232.829L65.6158 214.598L97.6675 233.431ZM130.046 215.732C130.242 215.728 130.435 215.678 130.609 215.586C130.782 215.493 130.931 215.361 131.043 215.199L140.77 220.87L162.149 233.413V271.045L151.459 277.317L130.08 289.844L99.008 271.629C99.0685 271.47 99.1033 271.302 99.1111 271.131C99.1092 270.822 98.9948 270.524 98.7892 270.293C98.5836 270.062 98.3009 269.914 97.994 269.877V233.413L129.066 215.182C129.175 215.342 129.321 215.474 129.492 215.567C129.662 215.659 129.852 215.71 130.046 215.715V215.732ZM193.324 176.124C193.256 176.281 193.221 176.451 193.221 176.622C193.223 176.933 193.336 177.233 193.542 177.467C193.747 177.701 194.03 177.852 194.338 177.894V214.34L162.269 233.139L151.58 226.867L131.214 214.838C131.284 214.66 131.312 214.469 131.297 214.279C131.282 214.089 131.225 213.904 131.129 213.739C131.033 213.574 130.902 213.433 130.744 213.326C130.586 213.218 130.406 213.148 130.218 213.12V176.708L162.269 157.892L193.324 176.124ZM226.699 157.892L237.372 164.164L257.737 176.193C257.711 176.358 257.711 176.526 257.737 176.691C257.738 176.999 257.849 177.297 258.051 177.531C258.253 177.764 258.532 177.917 258.837 177.963V214.409L227.713 232.554C227.603 232.391 227.455 232.258 227.281 232.165C227.107 232.073 226.913 232.025 226.717 232.025C226.52 232.025 226.326 232.073 226.152 232.165C225.978 232.258 225.83 232.391 225.72 232.554L194.648 214.323V177.877C194.956 177.835 195.239 177.684 195.444 177.45C195.649 177.216 195.763 176.916 195.765 176.605C195.765 176.434 195.73 176.264 195.662 176.107L226.699 157.892ZM227.868 119.402L237.544 113.731L258.906 101.187L290.975 120.003V156.449C290.669 156.487 290.389 156.636 290.186 156.867C289.983 157.098 289.872 157.396 289.875 157.703C289.837 157.867 289.837 158.038 289.875 158.202L259.817 175.849C259.708 175.686 259.562 175.552 259.389 175.46C259.217 175.367 259.024 175.319 258.828 175.319C258.633 175.319 258.44 175.367 258.268 175.46C258.095 175.552 257.948 175.686 257.84 175.849L248.147 170.161L226.768 157.617V121.171C227.075 121.127 227.356 120.974 227.561 120.741C227.765 120.508 227.88 120.21 227.885 119.9C227.911 119.735 227.911 119.567 227.885 119.402H227.868ZM194.338 63.2805V100.895L163.266 119.144C163.156 118.981 163.007 118.847 162.834 118.755C162.66 118.663 162.466 118.614 162.269 118.614C162.073 118.614 161.879 118.663 161.705 118.755C161.531 118.847 161.383 118.981 161.273 119.144L130.218 100.895V64.449C130.523 64.411 130.804 64.2623 131.006 64.0311C131.209 63.7998 131.32 63.5021 131.318 63.1946C131.32 63.0229 131.285 62.8528 131.214 62.6962L162.269 44.4818L194.338 63.2805ZM226.699 45.5816C226.896 45.5797 227.09 45.5303 227.263 45.4376C227.437 45.3448 227.585 45.2115 227.696 45.0489L237.372 50.7366L258.751 63.2805V100.895L248.061 107.184L227.696 119.212C227.586 119.049 227.437 118.916 227.264 118.824C227.09 118.731 226.896 118.683 226.699 118.683C226.503 118.683 226.309 118.731 226.135 118.824C225.961 118.916 225.813 119.049 225.703 119.212L194.648 100.895V63.2805L225.72 45.0489C225.829 45.2091 225.975 45.341 226.145 45.4336C226.315 45.5263 226.505 45.577 226.699 45.5816ZM258.906 -11.1237C259.101 -11.1236 259.293 -11.1704 259.467 -11.2601C259.64 -11.3498 259.79 -11.4798 259.902 -11.6392L269.595 -5.95148L290.975 6.59241V43.0384C290.668 43.0802 290.387 43.2324 290.185 43.4665C289.982 43.7006 289.872 44.0005 289.875 44.31C289.84 44.4743 289.84 44.644 289.875 44.8083L258.82 63.0227L248.147 56.7508L227.782 44.7224C227.843 44.5628 227.877 44.3946 227.885 44.2241C227.884 43.913 227.77 43.6129 227.565 43.3792C227.359 43.1455 227.076 42.994 226.768 42.9525V6.57524L257.84 -11.6564C257.961 -11.4845 258.124 -11.3468 258.314 -11.2565C258.504 -11.1662 258.713 -11.1263 258.923 -11.1409L258.906 -11.1237ZM259.078 -50.13L269.767 -56.402L291.129 -68.9287L322.184 -50.7143C322.116 -50.5571 322.081 -50.3874 322.081 -50.216C322.083 -49.9068 322.197 -49.609 322.403 -49.3781C322.609 -49.1472 322.891 -48.9992 323.198 -48.9616V-12.5155L291.129 6.38622L280.44 0.114258L260.092 -11.9141C260.117 -12.085 260.117 -12.2588 260.092 -12.4296C260.094 -12.7372 259.983 -13.0349 259.78 -13.2661C259.578 -13.4974 259.297 -13.6461 258.992 -13.684L259.078 -50.13ZM258.906 -124.551C259.101 -124.551 259.293 -124.598 259.467 -124.688C259.64 -124.777 259.79 -124.907 259.902 -125.067L290.992 -106.852V-69.238L280.302 -62.966L258.923 -50.4909L227.885 -68.7053C227.946 -68.8649 227.98 -69.0331 227.988 -69.2036C227.986 -69.5127 227.872 -69.8106 227.666 -70.0415C227.461 -70.2724 227.178 -70.4204 226.871 -70.458V-106.852L257.943 -125.084C258.054 -124.927 258.201 -124.798 258.371 -124.709C258.542 -124.619 258.731 -124.571 258.923 -124.569L258.906 -124.551Z" fill="white"/>
</g>
</svg>
