<svg width="188" height="597" viewBox="0 0 188 597" fill="none" xmlns="http://www.w3.org/2000/svg">
<g opacity="0.5">
<g opacity="0.1">
<path opacity="0.3" d="M8.52013 266.111L-12.6267 278.521L-33.7734 266.111V241.303L-12.6267 228.893L8.52013 241.303V266.111Z" fill="#0C478B"/>
<path opacity="0.6" d="M52.9557 266.111L31.8089 278.521L10.6738 266.111V241.303L31.8089 228.893L52.9557 241.303V266.111Z" fill="#0C478B"/>
<path opacity="0.3" d="M30.732 148.779L9.59698 161.189L-11.5498 148.779V123.971L9.59698 111.561L30.732 123.971V148.779Z" fill="#0C478B"/>
<path opacity="0.6" d="M8.52013 109.676L-12.6267 122.074L-33.7734 109.676V84.8561L-12.6267 72.4579L8.52013 84.8561V109.676Z" fill="#0C478B"/>
<path opacity="0.6" d="M8.52013 187.894L-12.6267 200.292L-33.7734 187.894V163.074L-12.6267 150.676L8.52013 163.074V187.894Z" fill="#0C478B"/>
<path opacity="0.1" d="M30.732 70.5613L9.59698 82.9596L-11.5498 70.5613V45.7415L9.59698 33.3433L30.732 45.7415V70.5613Z" fill="#0C478B"/>
<path opacity="0.6" d="M8.52013 31.4467L-12.6267 43.8566L-33.7734 31.4467V6.6385L-12.6267 -5.77142L8.52013 6.6385V31.4467Z" fill="#0C478B"/>
<path opacity="0.1" d="M30.732 226.997L9.59698 239.407L-11.5498 226.997V202.189L9.59698 189.791L30.732 202.189V226.997Z" fill="#0C478B"/>
</g>
<path d="M-32.5446 -48H-32.6031L-54.6046 -35.1218V-9.13116L-32.6968 3.74706V29.3865L-54.6515 42.2647V68.0211L-76.5008 80.8994L-98.4555 68.0211L-120.469 80.8994V106.785L-98.4672 119.663H-98.4087L-76.5125 106.785L-54.6632 119.593V145.232L-76.4423 158.11L-98.397 145.232L-120.41 158.11V183.867L-142.295 196.757L-164.249 183.878L-186.251 196.757V222.642L-164.238 235.52L-142.33 222.642L-120.492 235.52V261.148L-142.447 274.026V299.911L-120.445 312.789L-98.4321 299.911V274.155L-76.4891 261.277V235.462L-98.3853 222.583V196.944L-76.5477 184.066L-54.5929 196.944L-32.5914 184.066V158.309L-10.7538 145.49L11.0956 158.309V183.937L-10.8592 196.815V222.7L11.037 235.579V261.335H11.0956L33.0971 274.213H33.1557L55.1572 261.335V235.462H55.0987L33.2025 222.583V196.944L55.0518 184.066L77.0065 196.944L99.0198 184.066V158.18H98.9613L76.9597 145.302H76.9012L55.005 158.18L33.1557 145.372V119.733L55.2743 106.855L77.229 119.733L99.2423 106.855V81.0984L121.08 68.2202L143.035 81.0984L165.036 68.2202V42.2647H164.978L143.093 29.2694H143.035L121.138 42.1476L99.2891 29.3865V3.74706L121.232 -9.13116V-35.0164L99.2189 -47.8946L77.2056 -35.0164V-9.25995L55.2626 3.61828V29.5035L77.1588 42.3818V68.0211L55.3211 80.8994L33.3664 68.0211H33.3079L11.3063 80.8994V106.656L-10.543 119.464L-32.4275 106.668V81.0282L-10.4728 68.1499V42.3935L11.482 29.5152V3.61828L-10.4142 -9.25995V-35.0164L-32.5446 -48ZM99.1603 3.51292L91.8772 -0.760315L77.3227 -9.30677V-34.8876L99.1603 -47.7658L121.01 -34.8876V-9.25995L99.1603 3.51292ZM99.0549 29.3396L91.7718 33.6011L77.229 42.1476L55.3797 29.3865V3.74706L77.229 -9.06092L84.5473 -4.78768L99.1018 3.74706L99.0549 29.3396ZM121.22 67.9743V42.3935L143.07 29.5152L164.907 42.3935V68.0211L143.07 80.8994L121.22 67.9743ZM99.1603 80.8525L91.8772 76.5793L77.3227 68.0328V42.3935L84.6058 38.1202L99.1603 29.5738L121.01 42.452V68.0211L99.1603 80.8525ZM55.368 106.679V81.0399L77.2173 68.1616L84.5004 72.4349L99.0549 80.9813V106.621L77.2173 119.429L55.368 106.679ZM33.3079 119.487L26.0014 115.202L11.4469 106.668V81.0282L33.2845 68.1499L55.1338 81.0282V106.668L33.3079 119.487ZM55.368 183.949V158.309L77.2173 145.49L99.0549 158.309V183.937L77.2173 196.757L55.368 183.949ZM11.482 235.59L18.7534 231.317L33.3196 222.771L55.1689 235.649V261.277L33.3196 274.096L11.482 261.218V235.59ZM11.3649 184.077L18.648 188.351L33.2142 196.897V222.536L25.9311 226.798L11.3649 235.344L-10.4728 222.536V196.897L11.3649 184.077ZM11.482 158.262L18.7534 153.989L33.3196 145.443L55.1689 158.262V183.89L33.3196 196.71L26.0014 192.483L11.4469 183.937L11.482 158.262ZM-10.4728 145.255V119.616L11.3649 106.808L18.648 111.081L33.2142 119.616V145.255L25.9311 149.529L11.3649 158.063L-10.4728 145.255ZM-120.363 261.405L-113.08 265.679L-98.5141 274.225V299.853L-120.363 312.672L-142.189 299.853V274.225L-120.363 261.405ZM-120.246 235.649L-112.963 231.376L-98.4087 222.829L-76.5594 235.707V261.335L-98.397 274.026L-105.68 269.764L-120.235 261.218L-120.246 235.649ZM-142.424 197.014V222.654L-164.261 235.462L-186.11 222.654V197.014L-164.261 184.136L-142.424 197.014ZM-120.363 184.136L-113.08 188.409L-98.5141 196.956V222.595L-105.797 226.857L-120.363 235.391L-142.189 222.583V196.944L-120.363 184.136ZM-76.5594 158.321V183.949L-98.397 196.757L-105.68 192.483L-120.235 183.937V158.309L-98.397 145.49L-76.5594 158.321ZM-54.4993 145.501L-47.2162 149.774L-32.6499 158.321V183.949L-54.4876 196.757L-76.3369 183.937V158.309L-54.4993 145.501ZM-54.3939 119.675L-47.1108 115.413L-32.5446 106.855L-10.7069 119.663V145.302L-32.5446 158.11L-39.8277 153.849L-54.3939 145.302V119.675ZM-76.5594 81.0399V106.679L-98.397 119.476L-120.235 106.668V81.0282L-98.397 68.1499L-76.5594 81.0399ZM-54.4993 68.1616L-47.2162 72.4349L-32.6499 80.9813V106.621L-39.933 110.882L-54.4993 119.429L-76.3369 106.668V81.0282L-54.4993 68.1616ZM-32.5446 29.5269L-25.2732 33.8002L-10.7069 42.3466V68.0211L-32.5446 80.8408L-39.8277 76.5676L-54.3939 68.0211V42.3935L-32.5446 29.5269ZM-32.4392 3.70024L-25.1561 -0.561291L-10.6016 -9.10775L11.2478 3.70024V29.3396L-10.5898 42.1476L-17.8613 37.8861L-32.4275 29.3865L-32.4392 3.70024ZM-32.5446 -47.7073L-10.7069 -34.8291V-9.25995L-17.9901 -4.98672L-32.5446 3.51292L-54.3939 -9.36531V-34.8876L-32.5446 -47.7073Z" fill="#0C478B"/>
<path d="M-10.5895 -35.8247C-10.8172 -35.8216 -11.0347 -35.729 -11.1946 -35.5669C-11.3546 -35.4047 -11.4443 -35.1861 -11.4443 -34.9584C-11.4631 -34.842 -11.4631 -34.7234 -11.4443 -34.6071L-32.6379 -22.1387V2.83339C-32.847 2.859 -33.0395 2.95989 -33.1796 3.11719C-33.3197 3.27449 -33.3977 3.47742 -33.399 3.68804C-33.399 3.9189 -33.3081 4.14048 -33.1459 4.30482C-32.9837 4.46915 -32.7634 4.56302 -32.5325 4.5661C-32.3984 4.56485 -32.2666 4.53119 -32.1483 4.46799C-32.0301 4.40479 -31.9289 4.31393 -31.8533 4.20316L-10.6949 16.6248V41.4681C-10.9028 41.4939 -11.0941 41.5952 -11.2322 41.7528C-11.3704 41.9104 -11.4459 42.1132 -11.4443 42.3227C-11.4619 42.4391 -11.4619 42.5575 -11.4443 42.6739L-32.6379 55.1424V80.1028C-32.849 80.1286 -33.0432 80.2312 -33.1835 80.3909C-33.3239 80.5507 -33.4005 80.7565 -33.399 80.9691C-33.3993 81.0859 -33.3754 81.2015 -33.3287 81.3086L-54.4872 93.7186L-76.4419 80.8403L-97.7175 93.3205C-97.7943 93.2119 -97.8961 93.1233 -98.0143 93.0622C-98.1325 93.0011 -98.2636 92.9692 -98.3966 92.9693C-98.6264 92.9553 -98.8524 93.0332 -99.0248 93.1858C-99.1971 93.3384 -99.3018 93.5532 -99.3158 93.7829C-99.3298 94.0127 -99.2519 94.2386 -99.0993 94.411C-98.9467 94.5833 -98.7318 94.688 -98.502 94.702V119.662L-77.2967 132.107C-77.3434 132.214 -77.3673 132.33 -77.3669 132.447C-77.3669 132.677 -77.2757 132.897 -77.1132 133.06C-76.9507 133.222 -76.7303 133.313 -76.5005 133.313C-76.2707 133.313 -76.0503 133.222 -75.8878 133.06C-75.7253 132.897 -75.634 132.677 -75.634 132.447C-75.6336 132.33 -75.6575 132.214 -75.7042 132.107L-54.5457 119.697L-33.399 132.107C-33.4167 132.22 -33.4167 132.334 -33.399 132.447C-33.398 132.659 -33.3205 132.863 -33.1806 133.023C-33.0407 133.182 -32.8479 133.285 -32.6379 133.313V158.145L-53.8081 170.602C-53.8856 170.493 -53.9873 170.403 -54.1051 170.341C-54.2229 170.278 -54.3537 170.243 -54.4872 170.239C-54.6211 170.241 -54.7525 170.275 -54.8706 170.338C-54.9887 170.401 -55.0901 170.492 -55.1663 170.602L-76.4419 158.11L-98.4552 170.988V195.948C-98.6643 195.974 -98.8569 196.075 -98.9969 196.232C-99.137 196.389 -99.215 196.592 -99.2163 196.803C-99.2122 196.923 -99.1885 197.042 -99.146 197.154L-120.363 209.634L-142.306 196.756L-163.57 209.236C-163.648 209.129 -163.75 209.041 -163.868 208.98C-163.986 208.92 -164.116 208.887 -164.249 208.885C-164.364 208.885 -164.477 208.908 -164.583 208.952C-164.689 208.996 -164.785 209.061 -164.866 209.143C-164.947 209.225 -165.01 209.321 -165.053 209.428C-165.096 209.534 -165.117 209.648 -165.116 209.763C-165.114 209.974 -165.036 210.177 -164.896 210.334C-164.756 210.491 -164.564 210.592 -164.354 210.618V235.59L-142.341 248.468L-121.112 236.011C-121.037 236.12 -120.936 236.209 -120.819 236.27C-120.702 236.331 -120.571 236.363 -120.439 236.363C-120.307 236.363 -120.176 236.331 -120.059 236.27C-119.942 236.209 -119.841 236.12 -119.766 236.011L-98.5957 248.433V273.264C-98.8048 273.29 -98.9974 273.391 -99.1374 273.548C-99.2775 273.706 -99.3555 273.909 -99.3568 274.119C-99.3527 274.239 -99.329 274.358 -99.2865 274.47L-120.457 286.974V312.859L-99.2514 325.304C-99.2926 325.413 -99.3163 325.528 -99.3216 325.644C-99.3216 325.874 -99.2304 326.094 -99.0679 326.256C-98.9054 326.419 -98.685 326.51 -98.4552 326.51C-98.2254 326.51 -98.005 326.419 -97.8425 326.256C-97.68 326.094 -97.5887 325.874 -97.5887 325.644C-97.5883 325.527 -97.6123 325.411 -97.6589 325.304L-77.1796 313.292C-77.099 313.4 -76.9948 313.487 -76.875 313.548C-76.7553 313.609 -76.6231 313.642 -76.4887 313.644C-76.3547 313.642 -76.2229 313.609 -76.1046 313.545C-75.9864 313.482 -75.8852 313.391 -75.8096 313.281L-54.6394 325.702V351.342L-76.4302 364.196L-97.5887 351.775C-97.5406 351.668 -97.5166 351.552 -97.5184 351.435C-97.5184 351.206 -97.6097 350.985 -97.7722 350.823C-97.9347 350.66 -98.1551 350.569 -98.3849 350.569C-98.6147 350.569 -98.8351 350.66 -98.9976 350.823C-99.1601 350.985 -99.2514 351.206 -99.2514 351.435C-99.2532 351.552 -99.2292 351.668 -99.1811 351.775L-120.445 364.255V389.215C-120.653 389.241 -120.844 389.343 -120.982 389.5C-121.121 389.658 -121.196 389.86 -121.194 390.07C-121.198 390.301 -121.11 390.524 -120.95 390.69C-120.79 390.857 -120.571 390.954 -120.34 390.96C-120.206 390.959 -120.074 390.925 -119.956 390.862C-119.837 390.798 -119.736 390.708 -119.66 390.597L-98.3849 403.077L-77.1679 390.62C-77.0928 390.731 -76.9916 390.822 -76.8732 390.885C-76.7548 390.948 -76.6228 390.981 -76.4887 390.981C-76.3547 390.981 -76.2227 390.948 -76.1042 390.885C-75.9858 390.822 -75.8847 390.731 -75.8096 390.62L-54.6394 403.042V428.67L-75.7511 441.068C-75.8278 440.959 -75.9296 440.87 -76.0478 440.809C-76.166 440.748 -76.2971 440.716 -76.4302 440.716C-76.5633 440.716 -76.6945 440.748 -76.8126 440.809C-76.9308 440.87 -77.0326 440.959 -77.1093 441.068L-98.3849 428.588L-119.66 441.068C-119.737 440.958 -119.838 440.869 -119.957 440.808C-120.075 440.747 -120.206 440.716 -120.34 440.717C-120.569 440.703 -120.795 440.78 -120.968 440.933C-121.14 441.086 -121.245 441.3 -121.259 441.53C-121.273 441.76 -121.195 441.986 -121.042 442.158C-120.89 442.331 -120.675 442.435 -120.445 442.449V467.293L-141.615 479.714C-141.69 479.603 -141.791 479.511 -141.91 479.448C-142.028 479.385 -142.16 479.352 -142.294 479.351C-142.426 479.355 -142.555 479.39 -142.671 479.453C-142.787 479.516 -142.887 479.606 -142.962 479.714L-164.237 467.222L-186.239 480.101V505.061C-186.449 505.089 -186.642 505.192 -186.782 505.352C-186.922 505.511 -186.999 505.715 -187 505.927C-186.997 506.159 -186.903 506.381 -186.739 506.545C-186.575 506.709 -186.354 506.802 -186.122 506.805C-185.99 506.799 -185.862 506.763 -185.747 506.7C-185.631 506.637 -185.531 506.549 -185.454 506.442L-164.179 518.934H-164.12L-142.224 506.056L-121.077 518.466C-121.115 518.579 -121.134 518.698 -121.136 518.817C-121.137 519.027 -121.062 519.229 -120.924 519.387C-120.786 519.545 -120.594 519.646 -120.386 519.672V544.503L-142.341 557.382V582.342C-142.571 582.357 -142.785 582.464 -142.937 582.637C-143.088 582.811 -143.165 583.037 -143.149 583.267C-143.134 583.497 -143.027 583.711 -142.854 583.862C-142.68 584.014 -142.454 584.09 -142.224 584.075C-142.093 584.074 -141.964 584.041 -141.848 583.98C-141.731 583.919 -141.632 583.831 -141.557 583.723L-120.363 596.274H-120.305L-98.2913 583.396V558.365C-98.0833 558.339 -97.892 558.238 -97.7539 558.08C-97.6157 557.923 -97.5403 557.72 -97.5419 557.51C-97.54 557.393 -97.564 557.277 -97.6121 557.171L-76.3482 544.691V518.805L-98.2444 505.927V481.096C-98.0365 481.065 -97.8465 480.96 -97.709 480.801C-97.5715 480.643 -97.4955 480.44 -97.495 480.229C-97.4947 480.112 -97.5186 479.997 -97.5653 479.89L-76.4068 467.48L-55.2483 479.89C-55.2946 480.021 -55.3092 480.161 -55.291 480.298C-55.2727 480.436 -55.2221 480.567 -55.1432 480.681C-55.0644 480.796 -54.9596 480.89 -54.8374 480.955C-54.7152 481.021 -54.5791 481.057 -54.4404 481.061C-54.3266 481.059 -54.2142 481.035 -54.1096 480.99C-54.0051 480.945 -53.9104 480.88 -53.8311 480.799C-53.7517 480.717 -53.6892 480.621 -53.647 480.515C-53.6049 480.409 -53.584 480.296 -53.5856 480.182C-53.5852 480.066 -53.6091 479.95 -53.6558 479.843L-32.392 467.363V442.449C-32.1829 442.424 -31.9903 442.323 -31.8502 442.165C-31.7101 442.008 -31.6322 441.805 -31.6309 441.595C-31.6349 441.478 -31.6587 441.363 -31.7011 441.255L-10.5544 428.845L11.295 441.665V467.293L-9.87521 479.714C-9.95003 479.603 -10.0511 479.511 -10.1695 479.448C-10.2879 479.385 -10.4201 479.352 -10.5544 479.351C-10.7721 479.36 -10.979 479.449 -11.1348 479.601C-11.2906 479.753 -11.3842 479.958 -11.3974 480.176C-11.4105 480.393 -11.3423 480.608 -11.2059 480.778C-11.0696 480.948 -10.8749 481.061 -10.6597 481.096V505.927L-32.6027 518.805V543.777C-32.7457 543.793 -32.8827 543.843 -33.0013 543.925C-33.1199 544.006 -33.2164 544.115 -33.2821 544.243C-33.3478 544.371 -33.3806 544.513 -33.3776 544.657C-33.3746 544.801 -33.3358 544.942 -33.2648 545.067C-33.1938 545.192 -33.0927 545.297 -32.9708 545.373C-32.8489 545.45 -32.7099 545.495 -32.5664 545.504C-32.4229 545.513 -32.2794 545.486 -32.1487 545.426C-32.0181 545.366 -31.9045 545.274 -31.8182 545.159L-10.6597 557.581V583.337L10.5456 595.782C10.5004 595.889 10.4803 596.005 10.487 596.122C10.4855 596.235 10.5064 596.348 10.5485 596.454C10.5906 596.56 10.6532 596.656 10.7325 596.738C10.8119 596.819 10.9066 596.884 11.0111 596.929C11.1157 596.974 11.228 596.998 11.3418 597C11.5727 596.997 11.7931 596.903 11.9552 596.738C12.1174 596.574 12.2083 596.352 12.2083 596.122C12.2113 596.005 12.1873 595.888 12.138 595.782L33.4019 583.302V558.365C33.6317 558.351 33.8466 558.246 33.9992 558.074C34.1518 557.902 34.2297 557.676 34.2157 557.446C34.2017 557.216 34.097 557.001 33.9247 556.849C33.7523 556.696 33.5263 556.618 33.2965 556.632C33.1624 556.634 33.0307 556.667 32.9124 556.73C32.7942 556.794 32.6929 556.885 32.6174 556.995L11.4823 544.574V519.73C11.6914 519.705 11.884 519.604 12.0241 519.447C12.1642 519.289 12.2421 519.086 12.2434 518.876C12.2437 518.755 12.2198 518.636 12.1732 518.524L33.4371 506.056V481.096C33.6471 481.067 33.8399 480.964 33.9798 480.805C34.1196 480.646 34.1972 480.441 34.1982 480.229C34.1985 480.112 34.1746 479.997 34.1279 479.89L55.2747 467.48L77.2294 480.358L98.4581 467.901C98.5331 468.009 98.6329 468.097 98.7491 468.158C98.8652 468.219 98.9943 468.252 99.1255 468.253C99.3553 468.267 99.5813 468.189 99.7537 468.036C99.9261 467.883 100.031 467.669 100.045 467.439C100.059 467.209 99.9808 466.983 99.8282 466.811C99.6756 466.638 99.4607 466.534 99.2309 466.52V441.536L78.0256 429.091C78.063 428.982 78.0828 428.867 78.0841 428.752C78.0983 428.63 78.0867 428.507 78.0499 428.39C78.0131 428.274 77.9521 428.166 77.8708 428.075C77.7895 427.984 77.6898 427.911 77.5782 427.861C77.4667 427.811 77.3458 427.785 77.2235 427.785C77.1013 427.785 76.9804 427.811 76.8688 427.861C76.7573 427.911 76.6576 427.984 76.5763 428.075C76.495 428.166 76.4339 428.274 76.3972 428.39C76.3604 428.507 76.3487 428.63 76.3629 428.752C76.3452 428.864 76.3452 428.979 76.3629 429.091L55.2747 441.466L34.1162 429.056C34.1629 428.949 34.1868 428.833 34.1864 428.716C34.1852 428.506 34.1072 428.303 33.9671 428.146C33.827 427.988 33.6344 427.887 33.4253 427.862V403.018L54.5955 390.597C54.6718 390.707 54.7731 390.797 54.8912 390.86C55.0093 390.923 55.1408 390.958 55.2747 390.96C55.4082 390.956 55.539 390.921 55.6568 390.858C55.7746 390.795 55.8763 390.706 55.9538 390.597L77.2294 403.077L99.2426 390.199V365.18C99.3712 365.161 99.4938 365.113 99.6013 365.04C99.7088 364.967 99.7985 364.87 99.8637 364.758C99.929 364.645 99.968 364.52 99.9781 364.39C99.9881 364.26 99.9689 364.13 99.9218 364.009L121.08 351.599L143.035 364.477H143.094L164.311 352.021C164.387 352.129 164.489 352.218 164.607 352.279C164.726 352.34 164.857 352.372 164.99 352.372C165.22 352.386 165.445 352.308 165.618 352.155C165.79 352.003 165.895 351.788 165.909 351.558C165.923 351.328 165.845 351.103 165.692 350.93C165.54 350.758 165.325 350.653 165.095 350.639V325.609L143.094 312.73H143.035L121.818 325.175C121.741 325.067 121.639 324.978 121.521 324.917C121.403 324.856 121.272 324.824 121.139 324.824C121.006 324.824 120.875 324.856 120.756 324.917C120.638 324.978 120.536 325.067 120.46 325.175L99.3012 312.73V287.899C99.5092 287.873 99.7004 287.772 99.8386 287.614C99.9767 287.457 100.052 287.254 100.051 287.044C100.05 286.925 100.03 286.806 99.992 286.693L121.244 274.225V248.339L100.039 235.894C100.076 235.785 100.096 235.67 100.097 235.555C100.112 235.433 100.1 235.31 100.063 235.194C100.026 235.077 99.9654 234.97 99.8841 234.878C99.8028 234.787 99.7031 234.714 99.5915 234.664C99.4799 234.614 99.3591 234.588 99.2368 234.588C99.1145 234.588 98.9936 234.614 98.882 234.664C98.7705 234.714 98.6708 234.787 98.5895 234.878C98.5082 234.97 98.4472 235.077 98.4104 235.194C98.3737 235.31 98.362 235.433 98.3762 235.555C98.3584 235.667 98.3584 235.782 98.3762 235.894L77.9085 247.906C77.8279 247.799 77.7237 247.711 77.6039 247.65C77.4842 247.589 77.352 247.557 77.2177 247.555C77.0834 247.555 76.9513 247.588 76.8328 247.652C76.7144 247.715 76.6133 247.806 76.5385 247.918L55.3683 235.496V209.857L77.2177 196.979L98.3645 209.4C98.322 209.509 98.2983 209.623 98.2942 209.74C98.2942 209.969 98.3855 210.19 98.548 210.352C98.7105 210.515 98.9309 210.606 99.1607 210.606C99.3905 210.606 99.6109 210.515 99.7734 210.352C99.9359 210.19 100.027 209.969 100.027 209.74C100.046 209.627 100.046 209.513 100.027 209.4L121.279 196.92V171.983C121.488 171.957 121.681 171.857 121.821 171.699C121.961 171.542 122.039 171.339 122.04 171.128C122.042 171.013 122.021 170.899 121.978 170.791C121.935 170.684 121.872 170.587 121.791 170.504C121.711 170.421 121.615 170.355 121.509 170.31C121.403 170.264 121.289 170.24 121.174 170.239C121.04 170.243 120.91 170.278 120.792 170.341C120.674 170.403 120.572 170.493 120.495 170.602L99.1841 158.11H99.1255L77.8968 170.566C77.8224 170.457 77.7231 170.367 77.607 170.304C77.4909 170.241 77.3615 170.207 77.2294 170.204C77.0955 170.206 76.9641 170.24 76.8459 170.303C76.7278 170.366 76.6265 170.456 76.5503 170.566L55.3801 158.145V132.552L76.5503 120.131C76.6271 120.239 76.7289 120.328 76.847 120.389C76.9652 120.45 77.0963 120.482 77.2294 120.482C77.3606 120.481 77.4898 120.449 77.6059 120.388C77.722 120.326 77.8218 120.238 77.8968 120.131L99.1724 132.611L120.389 120.166C120.468 120.273 120.57 120.361 120.688 120.422C120.805 120.482 120.936 120.515 121.069 120.517C121.298 120.531 121.524 120.453 121.697 120.3C121.869 120.148 121.974 119.933 121.988 119.703C122.002 119.474 121.924 119.248 121.771 119.075C121.619 118.903 121.404 118.798 121.174 118.784V93.9059L142.344 81.4842C142.42 81.595 142.521 81.6859 142.639 81.7491C142.757 81.8123 142.889 81.8459 143.023 81.8472C143.157 81.8431 143.288 81.8082 143.405 81.7453C143.523 81.6823 143.625 81.593 143.702 81.4842L164.978 93.9761L186.991 81.0979V56.0673C187.207 56.0322 187.402 55.9179 187.538 55.7468C187.674 55.5756 187.741 55.3599 187.727 55.1418C187.712 54.9237 187.616 54.7189 187.459 54.5675C187.301 54.416 187.093 54.3288 186.874 54.3229C186.742 54.326 186.613 54.3605 186.497 54.4237C186.38 54.4868 186.281 54.5767 186.207 54.6858L165.037 42.1471H164.978L143.082 55.0253L121.923 42.6154C121.969 42.5039 121.993 42.3847 121.994 42.2642C121.992 42.0536 121.914 41.8506 121.774 41.6933C121.634 41.536 121.442 41.4351 121.232 41.4095V16.6365L143.187 3.75828V-21.2138C143.301 -21.2215 143.412 -21.2515 143.514 -21.3021C143.617 -21.3528 143.708 -21.423 143.783 -21.5089C143.858 -21.5948 143.915 -21.6946 143.952 -21.8027C143.988 -21.9107 144.003 -22.0249 143.995 -22.1387C143.987 -22.2524 143.957 -22.3636 143.907 -22.4657C143.856 -22.5679 143.786 -22.6591 143.7 -22.7341C143.614 -22.8091 143.514 -22.8665 143.406 -22.9029C143.298 -22.9394 143.184 -22.9542 143.07 -22.9465C142.939 -22.9447 142.81 -22.9119 142.694 -22.8509C142.578 -22.7899 142.478 -22.7023 142.403 -22.5953L121.127 -35.1223L99.1139 -22.244V2.83339C98.9038 2.86164 98.711 2.96492 98.5711 3.12415C98.4312 3.28337 98.3537 3.48782 98.3528 3.69975C98.3581 3.81212 98.3818 3.92286 98.423 4.02756L77.1123 16.5077V42.393L99.0085 55.2712V80.1028C98.7984 80.131 98.6056 80.2343 98.4658 80.3935C98.3259 80.5527 98.2483 80.7572 98.2474 80.9691C98.2527 81.0853 98.2764 81.1999 98.3176 81.3086L77.1708 93.7186L56.0124 81.3086C56.0603 81.1978 56.0843 81.0781 56.0826 80.9574C56.0826 80.8436 56.0602 80.731 56.0166 80.6259C55.9731 80.5208 55.9093 80.4252 55.8288 80.3448C55.7484 80.2644 55.6528 80.2005 55.5477 80.157C55.4426 80.1134 55.3299 80.0911 55.2161 80.0911C55.1023 80.0911 54.9897 80.1134 54.8845 80.157C54.7794 80.2005 54.6839 80.2644 54.6034 80.3448C54.523 80.4252 54.4591 80.5208 54.4156 80.6259C54.3721 80.731 54.3497 80.8436 54.3497 80.9574C54.3493 81.0742 54.3732 81.1898 54.4199 81.2969L33.2146 93.7771V118.749C33.0055 118.775 32.8129 118.876 32.6728 119.033C32.5327 119.19 32.4548 119.393 32.4535 119.604C32.4531 119.721 32.4771 119.836 32.5237 119.943L11.3652 132.353L-10.4724 119.475V93.9059L10.6978 81.4842C10.77 81.5956 10.8689 81.687 10.9854 81.7504C11.102 81.8138 11.2326 81.8471 11.3652 81.8472C11.5961 81.8441 11.8165 81.7502 11.9787 81.5859C12.1408 81.4216 12.2318 81.2 12.2317 80.9691C12.2337 80.7583 12.1586 80.5539 12.0206 80.3944C11.8827 80.235 11.6913 80.1312 11.4823 80.1028V55.2712L33.4253 42.393V17.4209C33.5683 17.4057 33.7053 17.3552 33.8239 17.2739C33.9425 17.1926 34.039 17.083 34.1047 16.9551C34.1704 16.8272 34.2032 16.6849 34.2002 16.5412C34.1972 16.3974 34.1584 16.2567 34.0874 16.1316C34.0164 16.0066 33.9154 15.9012 33.7934 15.8249C33.6715 15.7487 33.5325 15.7039 33.389 15.6948C33.2455 15.6856 33.102 15.7124 32.9713 15.7725C32.8407 15.8327 32.7271 15.9244 32.6408 16.0394L11.4823 3.61779V-22.1387L-9.78154 -34.6071C-9.76273 -34.7234 -9.76273 -34.842 -9.78154 -34.9584C-9.78104 -35.1783 -9.86424 -35.3903 -10.0143 -35.5512C-10.1643 -35.7121 -10.37 -35.8098 -10.5895 -35.8247ZM121.127 16.3907L113.821 12.1642L99.9452 3.96901C99.9919 3.86193 100.016 3.74632 100.015 3.6295C100.017 3.41996 99.9416 3.21713 99.8034 3.05957C99.6653 2.902 99.4741 2.80069 99.2661 2.77486V-22.0099L121.104 -34.8881L142.262 -22.4665C142.214 -22.3598 142.19 -22.2439 142.192 -22.127C142.193 -21.9163 142.271 -21.7134 142.411 -21.5561C142.551 -21.3988 142.744 -21.2979 142.953 -21.2723V3.6295L121.127 16.3907ZM113.739 46.4906L99.1724 55.037L77.3348 42.1588V16.6365L98.505 4.21487C98.5818 4.32348 98.6836 4.41206 98.8018 4.47318C98.9199 4.53429 99.0511 4.56616 99.1841 4.5661C99.3153 4.56526 99.4445 4.53292 99.5606 4.4718C99.6768 4.41068 99.7765 4.32257 99.8515 4.21487L106.456 8.09005L121.022 16.6365V41.4681C120.812 41.4963 120.619 41.5996 120.479 41.7588C120.339 41.9181 120.262 42.1225 120.261 42.3344C120.266 42.4468 120.29 42.5575 120.331 42.6622L113.739 46.4906ZM143.878 81.2618C143.926 81.151 143.95 81.0313 143.948 80.9106C143.947 80.7 143.869 80.497 143.729 80.3397C143.589 80.1824 143.396 80.0815 143.187 80.0559V55.2712L165.037 42.393L186.183 54.8029C186.145 54.916 186.125 55.0346 186.125 55.1541C186.123 55.3637 186.199 55.5665 186.337 55.724C186.475 55.8816 186.666 55.9829 186.874 56.0088V80.8989L165.037 93.7771L143.878 81.2618ZM121.127 93.6717L113.821 89.4453L99.9452 81.2501C99.9919 81.143 100.016 81.0274 100.015 80.9106C100.017 80.6997 99.9424 80.4954 99.8044 80.3359C99.6664 80.1764 99.475 80.0727 99.2661 80.0442V55.2712L106.549 50.998L120.425 42.8027C120.504 42.9115 120.608 43.0001 120.728 43.0611C120.848 43.1222 120.981 43.154 121.115 43.154C121.246 43.1504 121.374 43.1168 121.49 43.0559C121.606 42.995 121.706 42.9084 121.783 42.8027L142.953 55.2244V80.0559C142.743 80.0842 142.55 80.1874 142.41 80.3467C142.27 80.5059 142.193 80.7103 142.192 80.9223C142.192 81.0391 142.215 81.1547 142.262 81.2618L121.127 93.6717ZM78.0256 119.896C78.0434 119.784 78.0434 119.669 78.0256 119.557C78.0272 119.347 77.9518 119.145 77.8136 118.987C77.6754 118.829 77.4842 118.728 77.2762 118.702V93.9059L98.4464 81.4842C98.5186 81.5956 98.6175 81.687 98.734 81.7504C98.8506 81.8138 98.9812 81.8471 99.1139 81.8472C99.2481 81.8469 99.3803 81.8137 99.4987 81.7504C99.6171 81.6871 99.7182 81.5957 99.793 81.4842L106.397 85.3594L120.963 93.9059V118.749C120.754 118.775 120.561 118.876 120.421 119.033C120.281 119.19 120.203 119.393 120.202 119.604C120.202 119.721 120.226 119.836 120.272 119.943L99.1139 132.353L78.0256 119.896ZM55.2747 132.353L47.9916 128.08L34.1162 119.885C34.1629 119.778 34.1868 119.662 34.1864 119.545C34.1852 119.335 34.1072 119.132 33.9671 118.974C33.827 118.817 33.6344 118.716 33.4253 118.691V93.9059L54.5955 81.4842C54.6711 81.595 54.7723 81.6859 54.8905 81.7491C55.0088 81.8123 55.1406 81.8459 55.2747 81.8472C55.4082 81.8431 55.539 81.8082 55.6568 81.7453C55.7746 81.6823 55.8763 81.593 55.9538 81.4842L77.1123 93.9059V118.749C76.9043 118.775 76.7131 118.876 76.5749 119.034C76.4368 119.191 76.3613 119.394 76.3629 119.604C76.3625 119.721 76.3865 119.836 76.4332 119.943L55.2747 132.353ZM55.1693 158.18L47.8862 162.453L33.32 171L12.1615 158.578C12.2107 158.472 12.2347 158.356 12.2317 158.238C12.2333 158.029 12.1579 157.826 12.0197 157.669C11.8815 157.511 11.6903 157.41 11.4823 157.384V132.552L32.6408 120.131C32.7176 120.239 32.8193 120.328 32.9375 120.389C33.0557 120.45 33.1869 120.482 33.32 120.482C33.453 120.482 33.5842 120.45 33.7024 120.389C33.8206 120.328 33.9223 120.239 33.9991 120.131L40.6031 124.006L55.1693 132.552V158.18ZM11.3652 159.117C11.4979 159.115 11.6284 159.082 11.7463 159.021C11.8642 158.96 11.9662 158.873 12.0444 158.765L33.2146 171.187V196.03C33.0055 196.056 32.8129 196.157 32.6728 196.314C32.5327 196.471 32.4548 196.674 32.4535 196.885C32.4531 197.002 32.4771 197.117 32.5237 197.224L11.2599 209.705V234.665C11.1169 234.68 10.9799 234.731 10.8613 234.812C10.7427 234.893 10.6462 235.003 10.5805 235.131C10.5148 235.259 10.482 235.401 10.485 235.545C10.488 235.688 10.5268 235.829 10.5978 235.954C10.6688 236.079 10.7698 236.185 10.8918 236.261C11.0137 236.337 11.1527 236.382 11.2962 236.391C11.4397 236.4 11.5832 236.373 11.7139 236.313C11.8445 236.253 11.9581 236.161 12.0444 236.046L33.2146 248.468V273.3C33.067 273.311 32.9248 273.359 32.8009 273.44C32.6771 273.521 32.5757 273.632 32.5061 273.763C32.4366 273.893 32.4012 274.039 32.4032 274.187C32.4053 274.335 32.4446 274.48 32.5177 274.609C32.5907 274.737 32.6951 274.845 32.8211 274.923C32.9471 275 33.0907 275.045 33.2385 275.052C33.3862 275.059 33.5335 275.029 33.6664 274.964C33.7994 274.899 33.9138 274.802 33.9991 274.681L55.1693 287.114V311.946C54.9613 311.972 54.7701 312.073 54.6319 312.231C54.4938 312.388 54.4183 312.591 54.4199 312.801C54.4199 313.031 54.5108 313.253 54.673 313.417C54.8351 313.582 55.0555 313.676 55.2864 313.679C55.4205 313.677 55.5522 313.644 55.6705 313.581C55.7888 313.517 55.89 313.427 55.9655 313.316L77.124 325.737V351.377L55.2747 364.196L34.1162 351.775C34.1642 351.668 34.1882 351.552 34.1864 351.435C34.1864 351.322 34.164 351.209 34.1205 351.104C34.0769 350.999 34.0131 350.903 33.9326 350.823C33.8522 350.742 33.7567 350.678 33.6516 350.635C33.5464 350.591 33.4337 350.569 33.32 350.569C33.2062 350.569 33.0935 350.591 32.9884 350.635C32.8832 350.678 32.7877 350.742 32.7073 350.823C32.6268 350.903 32.563 350.999 32.5194 351.104C32.4759 351.209 32.4535 351.322 32.4535 351.435C32.4517 351.552 32.4757 351.668 32.5237 351.775L11.2599 364.255V389.215C11.0509 389.244 10.8595 389.348 10.7215 389.507C10.5836 389.667 10.5085 389.871 10.5105 390.082C10.5061 390.198 10.526 390.313 10.569 390.421L-9.91034 402.433C-9.98579 402.324 -10.0865 402.236 -10.2037 402.174C-10.321 402.113 -10.4513 402.081 -10.5836 402.081C-10.7159 402.081 -10.8463 402.113 -10.9635 402.174C-11.0808 402.236 -11.1814 402.324 -11.2569 402.433L-32.4154 390.011V365.168C-32.2063 365.143 -32.0137 365.042 -31.8736 364.884C-31.7336 364.727 -31.6556 364.524 -31.6543 364.314C-31.6596 364.197 -31.6833 364.083 -31.7245 363.974L-10.4607 351.506V326.534C-10.3469 326.526 -10.2357 326.496 -10.1335 326.445C-10.0314 326.395 -9.94016 326.324 -9.86514 326.238C-9.79012 326.152 -9.73274 326.053 -9.69629 325.945C-9.65985 325.837 -9.64505 325.722 -9.65274 325.609C-9.66043 325.495 -9.69046 325.384 -9.7411 325.282C-9.79175 325.179 -9.86203 325.088 -9.94794 325.013C-10.0338 324.938 -10.1337 324.881 -10.2417 324.844C-10.3498 324.808 -10.464 324.793 -10.5778 324.801C-10.7088 324.803 -10.8376 324.835 -10.9536 324.896C-11.0696 324.957 -11.1695 325.045 -11.2452 325.152L-32.4154 312.73V287.899C-32.2053 287.871 -32.0126 287.767 -31.8727 287.608C-31.7328 287.449 -31.6552 287.244 -31.6543 287.033C-31.6573 286.801 -31.7508 286.579 -31.9149 286.415C-32.0789 286.251 -32.3005 286.157 -32.5325 286.154C-32.6644 286.158 -32.7935 286.193 -32.9094 286.256C-33.0253 286.319 -33.1248 286.409 -33.1999 286.517L-54.3818 274.096V249.252C-54.1727 249.227 -53.9801 249.126 -53.8401 248.969C-53.7 248.811 -53.622 248.608 -53.6207 248.398C-53.6207 248.167 -53.7116 247.945 -53.8738 247.781C-54.0359 247.617 -54.2563 247.523 -54.4872 247.52C-54.6215 247.52 -54.7536 247.553 -54.8721 247.616C-54.9905 247.68 -55.0915 247.771 -55.1663 247.883L-76.3365 235.461V209.822L-54.4872 196.943L-33.3404 209.365C-33.3592 209.477 -33.3592 209.592 -33.3404 209.705C-33.3404 209.934 -33.2491 210.155 -33.0866 210.317C-32.9241 210.48 -32.7037 210.571 -32.4739 210.571C-32.2441 210.571 -32.0237 210.48 -31.8613 210.317C-31.6987 210.155 -31.6075 209.934 -31.6075 209.705C-31.6115 209.588 -31.6353 209.473 -31.6777 209.365L-10.4138 196.885V171.983C-10.2059 171.952 -10.0159 171.848 -9.87842 171.689C-9.74091 171.53 -9.66499 171.327 -9.66446 171.117C-9.6467 171.004 -9.6467 170.89 -9.66446 170.777L10.8032 158.765C10.8688 158.858 10.9523 158.937 11.0488 158.998C11.1453 159.058 11.2529 159.098 11.3652 159.117ZM77.3348 196.815V171.983C77.5428 171.957 77.734 171.856 77.8721 171.698C78.0103 171.541 78.0858 171.338 78.0841 171.128C78.103 171.012 78.103 170.894 78.0841 170.777L99.2426 158.367L120.389 170.777C120.341 170.888 120.318 171.008 120.319 171.128C120.32 171.339 120.398 171.542 120.538 171.699C120.679 171.857 120.871 171.957 121.08 171.983V196.815L99.9101 209.236C99.8332 209.128 99.7314 209.039 99.6133 208.978C99.4951 208.917 99.364 208.885 99.2309 208.885C99.0997 208.886 98.9706 208.918 98.8544 208.979C98.7383 209.04 98.6385 209.129 98.5635 209.236L77.3348 196.815ZM55.2747 209.634L47.9916 205.361L34.1162 197.166C34.1629 197.059 34.1868 196.943 34.1864 196.826C34.1877 196.615 34.1106 196.411 33.9701 196.253C33.8295 196.095 33.6354 195.995 33.4253 195.972V171.187L40.7085 166.914L55.2747 158.367L76.4332 170.777C76.386 170.898 76.3668 171.029 76.3769 171.158C76.3869 171.288 76.426 171.413 76.4912 171.526C76.5564 171.638 76.6461 171.735 76.7536 171.808C76.8611 171.881 76.9837 171.929 77.1123 171.948V196.779L55.2747 209.634ZM55.1693 235.461L47.8862 239.734L33.32 248.269L12.1615 235.859C12.2081 235.752 12.2321 235.636 12.2317 235.52C12.2333 235.31 12.1579 235.107 12.0197 234.95C11.8815 234.792 11.6903 234.691 11.4823 234.665V209.822L32.6408 197.4C32.7159 197.511 32.8171 197.602 32.9355 197.665C33.0539 197.728 33.1859 197.761 33.32 197.761C33.454 197.761 33.586 197.728 33.7045 197.665C33.8228 197.602 33.924 197.511 33.9991 197.4L40.6031 201.275L55.1693 209.822V235.461ZM76.4332 248.058C76.386 248.179 76.3668 248.31 76.3769 248.439C76.3869 248.569 76.426 248.694 76.4912 248.807C76.5564 248.919 76.6461 249.016 76.7536 249.089C76.8611 249.162 76.9837 249.21 77.1123 249.229V274.072L55.2747 286.915L34.1162 274.505C34.1629 274.398 34.1868 274.283 34.1864 274.166C34.188 273.953 34.1113 273.748 33.971 273.588C33.8306 273.428 33.6364 273.325 33.4253 273.3V248.468L40.7085 244.195L55.2747 235.648L76.4332 248.058ZM99.1958 286.166C99.0627 286.166 98.9316 286.198 98.8135 286.259C98.6953 286.32 98.5935 286.409 98.5167 286.517L91.9127 282.642L77.3465 274.096V249.252C77.5523 249.224 77.7408 249.122 77.8765 248.964C78.0123 248.807 78.0861 248.606 78.0841 248.398C78.1029 248.289 78.1029 248.178 78.0841 248.07L98.5752 236.046C98.6507 236.155 98.7513 236.244 98.8686 236.305C98.9858 236.366 99.1162 236.399 99.2485 236.399C99.3808 236.399 99.5112 236.366 99.6284 236.305C99.7457 236.244 99.8463 236.155 99.9218 236.046L121.092 248.468V274.096L99.9218 286.517C99.8405 286.402 99.7312 286.309 99.6042 286.248C99.4772 286.186 99.3367 286.158 99.1958 286.166ZM99.0787 312.73L91.7956 317.004L77.2411 325.55L56.0826 313.14C56.1293 313.033 56.1532 312.917 56.1529 312.801C56.1516 312.59 56.0736 312.387 55.9335 312.23C55.7934 312.073 55.6009 311.972 55.3918 311.946V287.103L77.2411 274.225L84.5242 278.498L98.3879 286.634C98.3691 286.751 98.3691 286.869 98.3879 286.986C98.3863 287.195 98.4617 287.398 98.5999 287.556C98.738 287.713 98.9293 287.814 99.1373 287.84L99.0787 312.73ZM121.244 351.365V326.534C121.453 326.508 121.646 326.407 121.786 326.25C121.926 326.092 122.004 325.889 122.005 325.679C122.006 325.562 121.982 325.446 121.935 325.339L143.094 312.929L164.943 325.737V350.581C164.734 350.606 164.541 350.707 164.401 350.864C164.261 351.022 164.183 351.225 164.182 351.435C164.18 351.552 164.204 351.668 164.252 351.775L143.094 364.196L121.244 351.365ZM99.1958 363.424C99.0619 363.426 98.9305 363.46 98.8124 363.523C98.6943 363.586 98.5929 363.677 98.5167 363.787L91.9127 359.9L77.3465 351.365V325.726L84.6296 321.464L99.1958 312.918L120.343 325.328C120.296 325.435 120.272 325.55 120.272 325.667C120.274 325.878 120.352 326.081 120.492 326.238C120.632 326.395 120.824 326.496 121.033 326.522V351.365L99.8632 363.787C99.7869 363.68 99.6868 363.593 99.571 363.532C99.4551 363.471 99.3267 363.438 99.1958 363.435V363.424ZM56.0826 390.41C56.1293 390.302 56.1532 390.187 56.1529 390.07C56.1519 389.858 56.0744 389.654 55.9345 389.494C55.7946 389.335 55.6018 389.232 55.3918 389.204V364.384L77.2411 351.564L84.5242 355.837L98.3879 363.974C98.3691 364.09 98.3691 364.209 98.3879 364.325C98.3863 364.535 98.4617 364.738 98.5999 364.895C98.738 365.053 98.9293 365.154 99.1373 365.18V390.011L77.2996 402.831L56.0826 390.41ZM33.3317 402.819L26.0017 398.558L12.1263 390.421C12.173 390.314 12.197 390.199 12.1966 390.082C12.1982 389.869 12.1215 389.663 11.9811 389.504C11.8408 389.344 11.6466 389.241 11.4355 389.215V364.384L32.6057 351.962C32.6808 352.073 32.7819 352.164 32.9003 352.227C33.0187 352.29 33.1508 352.323 33.2848 352.323C33.4189 352.323 33.5509 352.29 33.6693 352.227C33.7877 352.164 33.8889 352.073 33.964 351.962L55.1225 364.384V389.215C54.9135 389.244 54.7221 389.348 54.5841 389.507C54.4462 389.667 54.3711 389.871 54.3731 390.082C54.3727 390.199 54.3966 390.314 54.4433 390.421L33.3317 402.819ZM55.3918 467.281V441.665L76.562 429.243C76.6388 429.352 76.7406 429.44 76.8588 429.502C76.9769 429.563 77.108 429.595 77.2411 429.594C77.3738 429.593 77.5042 429.56 77.6221 429.499C77.74 429.438 77.8421 429.35 77.9202 429.243L99.0787 441.665V466.496C98.8696 466.522 98.677 466.623 98.537 466.78C98.3969 466.938 98.3189 467.14 98.3176 467.351C98.3217 467.467 98.3455 467.582 98.3879 467.691L77.2411 480.101L55.3918 467.281ZM-10.4607 557.569L-3.18929 553.296L11.3769 544.749L32.5354 557.159C32.4888 557.266 32.4648 557.382 32.4652 557.499C32.4665 557.709 32.5444 557.912 32.6845 558.07C32.8246 558.227 33.0172 558.328 33.2263 558.353V583.197L12.0561 595.618C11.9798 595.508 11.8785 595.418 11.7604 595.355C11.6423 595.292 11.5108 595.258 11.3769 595.255C11.2434 595.259 11.1127 595.294 10.9948 595.357C10.877 595.42 10.7754 595.509 10.6978 595.618L-10.4607 583.197V557.569ZM-10.5778 506.056L-3.27124 510.446L10.6042 518.583C10.5612 518.695 10.5412 518.814 10.5456 518.934C10.544 519.144 10.6194 519.347 10.7576 519.504C10.8958 519.662 11.087 519.763 11.295 519.789V544.632L4.01187 548.905L-10.5544 557.44L-31.7245 544.972C-31.6833 544.863 -31.6596 544.748 -31.6543 544.632C-31.6556 544.422 -31.7336 544.219 -31.8736 544.061C-32.0137 543.904 -32.2063 543.803 -32.4154 543.777V518.934L-10.5778 506.056ZM11.3769 467.421L18.66 471.695L32.5354 479.831C32.4888 479.938 32.4648 480.054 32.4652 480.171C32.4661 480.383 32.5437 480.587 32.6836 480.746C32.8234 480.906 33.0162 481.009 33.2263 481.037V505.869L12.0561 518.29C11.9792 518.182 11.8775 518.093 11.7593 518.032C11.6411 517.971 11.51 517.939 11.3769 517.939C11.2442 517.941 11.1138 517.974 10.9959 518.035C10.878 518.095 10.776 518.183 10.6978 518.29L4.09383 514.415L-10.4607 505.869V481.096C-10.2527 481.065 -10.0627 480.96 -9.92525 480.801C-9.78773 480.643 -9.71181 480.44 -9.71129 480.229C-9.69353 480.117 -9.69353 480.002 -9.71129 479.89L11.3769 467.421ZM11.4823 441.606L18.7655 437.321L32.6525 429.185C32.7293 429.293 32.8311 429.382 32.9492 429.443C33.0674 429.505 33.1986 429.536 33.3317 429.536C33.4648 429.536 33.5959 429.505 33.7141 429.443C33.8323 429.382 33.934 429.293 34.0108 429.185L55.1693 441.606V467.234L34.0108 479.656C33.9357 479.545 33.8346 479.454 33.7162 479.391C33.5978 479.328 33.4657 479.295 33.3317 479.295C33.1976 479.295 33.0656 479.328 32.9472 479.391C32.8288 479.454 32.7276 479.545 32.6525 479.656L26.0017 475.839L11.4355 467.293L11.4823 441.606ZM-10.4607 428.588V403.815C-10.2527 403.789 -10.0614 403.687 -9.92329 403.53C-9.78513 403.372 -9.70969 403.169 -9.71129 402.96C-9.6916 402.848 -9.6916 402.733 -9.71129 402.62L10.7564 390.597C10.8339 390.706 10.9356 390.795 11.0534 390.858C11.1712 390.921 11.302 390.956 11.4355 390.96C11.5694 390.958 11.7008 390.923 11.8189 390.86C11.937 390.797 12.0384 390.707 12.1146 390.597L18.7186 394.472L33.2848 403.018V427.862C33.0757 427.887 32.8831 427.988 32.7431 428.146C32.603 428.303 32.525 428.506 32.5237 428.716C32.5234 428.833 32.5473 428.949 32.594 429.056L26.0017 432.919L11.4355 441.466L-10.4607 428.588ZM-120.363 544.761L-113.057 549.081L-99.1811 557.218C-99.2278 557.325 -99.2518 557.44 -99.2514 557.557C-99.2477 557.767 -99.1688 557.969 -99.0292 558.125C-98.8896 558.282 -98.6984 558.384 -98.4903 558.412V583.255L-120.363 596.016L-141.44 583.606C-141.417 583.494 -141.417 583.379 -141.44 583.267C-141.441 583.056 -141.519 582.853 -141.659 582.696C-141.799 582.539 -141.992 582.438 -142.201 582.412V557.569L-120.363 544.761ZM-112.963 514.661L-98.4083 506.115L-76.559 518.993V544.62L-97.7058 556.984C-97.7826 556.875 -97.8844 556.786 -98.0026 556.725C-98.1208 556.664 -98.2519 556.632 -98.3849 556.632C-98.5162 556.633 -98.6453 556.665 -98.7614 556.727C-98.8776 556.788 -98.9773 556.876 -99.0523 556.984L-105.668 553.108L-120.223 544.562V519.73C-120.013 519.704 -119.82 519.601 -119.681 519.441C-119.543 519.281 -119.469 519.076 -119.473 518.864C-119.474 518.747 -119.498 518.632 -119.543 518.524L-112.963 514.661ZM-143.079 479.89C-143.126 480.011 -143.145 480.141 -143.135 480.271C-143.125 480.4 -143.086 480.526 -143.021 480.638C-142.956 480.751 -142.866 480.847 -142.758 480.92C-142.651 480.993 -142.528 481.041 -142.4 481.061V505.892L-164.237 518.77L-185.396 506.36C-185.348 506.25 -185.324 506.13 -185.326 506.009C-185.327 505.799 -185.405 505.596 -185.545 505.438C-185.685 505.281 -185.878 505.18 -186.087 505.155V480.3L-164.237 467.48L-143.079 479.89ZM-120.363 467.48L-113.057 471.812L-99.1811 479.948C-99.2278 480.055 -99.2518 480.171 -99.2514 480.288C-99.2505 480.5 -99.1729 480.704 -99.033 480.863C-98.8931 481.023 -98.7004 481.126 -98.4903 481.154V505.986L-105.773 510.259L-119.66 518.454C-119.737 518.346 -119.839 518.257 -119.957 518.196C-120.075 518.135 -120.207 518.103 -120.34 518.103C-120.471 518.104 -120.6 518.136 -120.716 518.197C-120.832 518.258 -120.932 518.347 -121.007 518.454L-142.177 505.927V481.096C-141.967 481.067 -141.774 480.964 -141.635 480.805C-141.495 480.646 -141.417 480.441 -141.416 480.229C-141.406 480.116 -141.414 480.001 -141.44 479.89L-120.363 467.48ZM-77.2498 441.255C-77.2979 441.362 -77.3219 441.478 -77.3201 441.595C-77.3188 441.805 -77.2408 442.008 -77.1008 442.165C-76.9607 442.323 -76.7681 442.424 -76.559 442.449V467.293L-97.7058 479.714C-97.7806 479.603 -97.8817 479.511 -98.0001 479.448C-98.1185 479.385 -98.2506 479.352 -98.3849 479.351C-98.5176 479.351 -98.6482 479.385 -98.7647 479.448C-98.8813 479.511 -98.9801 479.603 -99.0523 479.714L-105.668 475.839L-120.223 467.293V442.449C-120.015 442.423 -119.823 442.322 -119.685 442.165C-119.547 442.007 -119.472 441.804 -119.473 441.595C-119.471 441.478 -119.495 441.362 -119.543 441.255L-98.3849 428.845L-77.2498 441.255ZM-54.4989 428.845L-47.1924 433.177L-33.3287 441.314C-33.3475 441.426 -33.3475 441.541 -33.3287 441.653C-33.3274 441.864 -33.2495 442.067 -33.1094 442.224C-32.9693 442.381 -32.7767 442.482 -32.5676 442.508V467.351L-53.7964 479.714C-53.8744 479.603 -53.9778 479.512 -54.0979 479.449C-54.2181 479.386 -54.3515 479.353 -54.4872 479.351C-54.6191 479.355 -54.7482 479.39 -54.8641 479.453C-54.98 479.516 -55.0795 479.606 -55.1546 479.714L-76.3248 467.293V442.449C-76.1157 442.424 -75.9231 442.323 -75.7831 442.165C-75.643 442.008 -75.565 441.805 -75.5637 441.595C-75.5619 441.478 -75.5859 441.362 -75.634 441.255L-54.4989 428.845ZM-54.3935 403.018L-47.1104 398.745L-32.5442 390.199L-11.3857 402.62C-11.4054 402.733 -11.4054 402.848 -11.3857 402.96C-11.3873 403.169 -11.3119 403.372 -11.1737 403.53C-11.0355 403.687 -10.8443 403.789 -10.6363 403.815V428.646L-31.8416 441.068C-31.921 440.959 -32.0249 440.87 -32.145 440.809C-32.265 440.748 -32.3978 440.717 -32.5325 440.717C-32.6635 440.718 -32.7923 440.751 -32.9083 440.812C-33.0243 440.873 -33.1242 440.961 -33.1999 441.068L-39.8039 437.193L-54.3701 428.646L-54.3935 403.018ZM-76.559 364.384V389.215C-76.7681 389.241 -76.9607 389.342 -77.1008 389.499C-77.2408 389.656 -77.3188 389.859 -77.3201 390.07C-77.3218 390.191 -77.2978 390.31 -77.2498 390.421L-98.4083 402.831L-119.543 390.421C-119.496 390.3 -119.477 390.17 -119.487 390.04C-119.497 389.911 -119.536 389.785 -119.601 389.673C-119.667 389.56 -119.756 389.464 -119.864 389.391C-119.971 389.318 -120.094 389.27 -120.223 389.25V364.384L-99.0523 351.962C-98.9773 352.07 -98.8776 352.158 -98.7614 352.219C-98.6453 352.28 -98.5162 352.313 -98.3849 352.313C-98.2519 352.313 -98.1208 352.282 -98.0026 352.22C-97.8844 352.159 -97.7826 352.071 -97.7058 351.962L-76.559 364.384ZM-54.4989 351.564L-47.2158 355.837L-33.3521 363.974C-33.3699 364.087 -33.3699 364.201 -33.3521 364.314C-33.3534 364.525 -33.2763 364.729 -33.1358 364.887C-32.9952 365.045 -32.8011 365.145 -32.591 365.168V390.011L-39.8741 394.285L-54.4404 402.831L-75.634 390.421C-75.5868 390.299 -75.5679 390.168 -75.5786 390.038C-75.5893 389.907 -75.6294 389.781 -75.6959 389.669C-75.7624 389.556 -75.8535 389.46 -75.9624 389.387C-76.0713 389.315 -76.1952 389.268 -76.3248 389.25V364.384L-54.4989 351.564ZM-54.3935 325.737L-47.1104 321.476L-32.5442 312.929L-11.3857 325.339C-11.4035 325.452 -11.4035 325.566 -11.3857 325.679C-11.3873 325.888 -11.3119 326.091 -11.1737 326.249C-11.0355 326.406 -10.8443 326.508 -10.6363 326.534V351.377L-31.8416 363.798C-31.9204 363.688 -32.0239 363.598 -32.1439 363.535C-32.2639 363.472 -32.397 363.438 -32.5325 363.435C-32.6644 363.44 -32.7935 363.474 -32.9094 363.538C-33.0253 363.601 -33.1248 363.69 -33.1999 363.798L-39.8039 359.912L-54.3701 351.377L-54.3935 325.737ZM-75.634 313.14C-75.5873 313.033 -75.5634 312.917 -75.5637 312.801C-75.5621 312.588 -75.6388 312.382 -75.7792 312.222C-75.9195 312.063 -76.1137 311.96 -76.3248 311.934V287.103L-54.4755 274.225L-33.3287 286.634C-33.3465 286.747 -33.3465 286.861 -33.3287 286.974C-33.3303 287.187 -33.2536 287.392 -33.1133 287.552C-32.9729 287.712 -32.7787 287.814 -32.5676 287.84V312.672L-39.8507 316.945L-54.4169 325.492L-75.634 313.14ZM-98.3966 275.032C-98.2636 275.032 -98.1325 275.001 -98.0143 274.939C-97.8961 274.878 -97.7943 274.79 -97.7175 274.681L-91.0901 278.556L-76.5239 287.103V311.946C-76.7319 311.972 -76.9231 312.073 -77.0612 312.231C-77.1994 312.388 -77.2749 312.591 -77.2733 312.801C-77.2749 312.914 -77.2509 313.026 -77.203 313.128L-97.6941 325.152C-97.7709 325.043 -97.8727 324.955 -97.9909 324.894C-98.109 324.833 -98.2402 324.801 -98.3732 324.801C-98.5044 324.802 -98.6336 324.834 -98.7497 324.895C-98.8659 324.956 -98.9656 325.044 -99.0406 325.152L-120.234 312.73V287.103L-99.064 274.681C-98.9891 274.789 -98.8893 274.877 -98.7731 274.938C-98.657 274.999 -98.5279 275.031 -98.3966 275.032ZM-98.2795 248.468L-90.9964 244.195L-76.4419 235.648L-55.2834 248.058C-55.3301 248.165 -55.354 248.281 -55.3537 248.398C-55.3524 248.608 -55.2744 248.811 -55.1343 248.969C-54.9942 249.126 -54.8017 249.227 -54.5926 249.252V274.096L-76.4419 286.915L-83.725 282.642L-97.6004 274.505C-97.5533 274.384 -97.534 274.254 -97.5441 274.125C-97.5541 273.995 -97.5932 273.869 -97.6584 273.757C-97.7237 273.644 -97.8134 273.548 -97.9209 273.475C-98.0284 273.402 -98.151 273.354 -98.2795 273.335V248.468ZM-120.457 209.833V234.677C-120.665 234.702 -120.856 234.804 -120.994 234.961C-121.132 235.119 -121.208 235.322 -121.206 235.531C-121.206 235.648 -121.183 235.764 -121.136 235.871L-142.294 248.269L-164.144 235.461V210.618C-163.935 210.592 -163.742 210.491 -163.602 210.334C-163.462 210.177 -163.384 209.974 -163.383 209.763C-163.381 209.646 -163.405 209.53 -163.453 209.424L-142.294 197.002L-120.457 209.833ZM-98.3966 197.775C-98.2627 197.772 -98.1313 197.738 -98.0132 197.675C-97.8951 197.612 -97.7937 197.522 -97.7175 197.412L-91.0901 201.275L-76.5239 209.822V235.461L-83.807 239.734L-98.3732 248.269L-119.543 235.859C-119.502 235.75 -119.478 235.636 -119.473 235.52C-119.474 235.309 -119.552 235.106 -119.692 234.949C-119.833 234.791 -120.025 234.691 -120.234 234.665V209.822L-99.064 197.4C-98.9897 197.509 -98.8903 197.599 -98.7742 197.662C-98.6582 197.725 -98.5287 197.76 -98.3966 197.763V197.775ZM-55.2834 170.789C-55.3301 170.896 -55.354 171.012 -55.3537 171.128C-55.3528 171.34 -55.2752 171.545 -55.1353 171.704C-54.9954 171.863 -54.8026 171.967 -54.5926 171.995V196.826L-76.4419 209.634L-83.725 205.361L-97.6004 197.166C-97.5533 197.045 -97.534 196.915 -97.5441 196.785C-97.5541 196.655 -97.5932 196.53 -97.6584 196.417C-97.7237 196.305 -97.8134 196.208 -97.9209 196.135C-98.0284 196.062 -98.151 196.014 -98.2795 195.995V171.187L-76.4419 158.367L-55.2834 170.789ZM-32.5442 158.367L-25.2728 162.64L-11.3974 170.836C-11.4152 170.948 -11.4152 171.063 -11.3974 171.175C-11.3969 171.385 -11.321 171.588 -11.1835 171.747C-11.0459 171.906 -10.856 172.011 -10.648 172.042V196.873L-31.8533 209.236C-31.9284 209.125 -32.0296 209.034 -32.148 208.971C-32.2664 208.908 -32.3984 208.876 -32.5325 208.876C-32.6665 208.876 -32.7986 208.908 -32.917 208.971C-33.0354 209.034 -33.1366 209.125 -33.2116 209.236L-54.3818 196.815V171.983C-54.1718 171.955 -53.979 171.852 -53.8391 171.692C-53.6992 171.533 -53.6216 171.329 -53.6207 171.117C-53.6203 171 -53.6443 170.884 -53.691 170.777L-32.5442 158.367ZM-31.748 132.143L-25.1557 128.279L-10.6012 119.733L11.2481 132.552V157.384C11.0402 157.41 10.8489 157.511 10.7108 157.669C10.5726 157.826 10.4972 158.029 10.4987 158.238C10.4732 158.35 10.4732 158.466 10.4987 158.578L-9.98061 170.602C-10.0543 170.49 -10.1543 170.399 -10.2718 170.336C-10.3893 170.273 -10.5206 170.24 -10.6539 170.24C-10.7872 170.24 -10.9185 170.273 -11.0359 170.336C-11.1534 170.399 -11.2535 170.49 -11.3272 170.602L-17.9311 166.726L-32.4974 158.18V133.348C-32.2883 133.318 -32.0969 133.214 -31.9574 133.055C-31.818 132.896 -31.7396 132.693 -31.7363 132.482C-31.7187 132.37 -31.7187 132.255 -31.7363 132.143H-31.748ZM-54.5926 93.9059V119.534L-75.7628 131.967C-75.8378 131.856 -75.939 131.765 -76.0574 131.702C-76.1758 131.639 -76.3078 131.606 -76.4419 131.606C-76.576 131.606 -76.708 131.639 -76.8264 131.702C-76.9448 131.765 -77.046 131.856 -77.121 131.967L-98.2795 119.534V94.702C-98.0716 94.6762 -97.8803 94.5748 -97.7422 94.4173C-97.604 94.2597 -97.5285 94.0569 -97.5301 93.8473C-97.5283 93.7304 -97.5523 93.6145 -97.6004 93.5078L-76.4419 81.0979L-54.5926 93.9059ZM-32.5442 81.8472C-32.4101 81.8459 -32.2783 81.8123 -32.1601 81.7491C-32.0418 81.6859 -31.9406 81.595 -31.8651 81.4842L-25.2728 85.3594L-10.7066 93.9059V119.534L-17.9897 123.818L-31.8651 132.014C-31.9401 131.903 -32.0413 131.812 -32.1597 131.749C-32.2781 131.686 -32.4101 131.653 -32.5442 131.653C-32.6783 131.653 -32.8103 131.686 -32.9287 131.749C-33.0471 131.812 -33.1483 131.903 -33.2233 132.014L-54.3818 119.534V93.9059L-33.2116 81.4842C-33.1372 81.5934 -33.0379 81.6833 -32.9218 81.7464C-32.8057 81.8095 -32.6763 81.8441 -32.5442 81.8472ZM-10.6012 43.2125C-10.4681 43.2126 -10.337 43.1807 -10.2188 43.1196C-10.1007 43.0584 -9.99889 42.9699 -9.92206 42.8613L-3.31808 46.7364L11.2481 55.2829V80.1145C11.0392 80.1429 10.8478 80.2467 10.7098 80.4061C10.5719 80.5656 10.4968 80.77 10.4987 80.9808C10.4754 81.0928 10.4754 81.2084 10.4987 81.3203L-10.6597 93.7303L-17.9311 89.457L-31.8065 81.2618C-31.7653 81.1531 -31.7416 81.0385 -31.7363 80.9223C-31.7372 80.7103 -31.8148 80.5059 -31.9546 80.3467C-32.0945 80.1874 -32.2873 80.0842 -32.4974 80.0559V55.2712L-11.3272 42.8496C-11.2448 42.9667 -11.1337 43.0605 -11.0044 43.122C-10.8752 43.1836 -10.7323 43.2107 -10.5895 43.2008L-10.6012 43.2125ZM-10.4841 16.6365L-3.20099 12.3633L11.3535 3.82852L32.512 16.2385C32.4653 16.3455 32.4414 16.4612 32.4418 16.578C32.4431 16.7886 32.521 16.9915 32.6611 17.1488C32.8012 17.3061 32.9938 17.407 33.2029 17.4326V42.2642L11.3535 55.1424L4.07042 50.8692L-9.79326 42.6739C-9.77559 42.5575 -9.77559 42.4391 -9.79326 42.3227C-9.79166 42.1132 -9.86711 41.9104 -10.0053 41.7528C-10.1434 41.5952 -10.3347 41.4939 -10.5426 41.4681L-10.4841 16.6365ZM-10.6012 -34.0686C-10.4681 -34.0685 -10.337 -34.1004 -10.2188 -34.1615C-10.1007 -34.2226 -9.99889 -34.3112 -9.92206 -34.4198L11.2599 -22.0099V3.61779L3.97675 7.89102L-10.5895 16.3907L-31.7363 3.98072C-31.695 3.87197 -31.6713 3.75738 -31.666 3.64121C-31.6673 3.43059 -31.7453 3.22765 -31.8853 3.07036C-32.0254 2.91306 -32.218 2.81217 -32.4271 2.78656V-22.0099L-11.2569 -34.4315C-11.1812 -34.3245 -11.0813 -34.2369 -10.9653 -34.1759C-10.8493 -34.1148 -10.7205 -34.0821 -10.5895 -34.0803L-10.6012 -34.0686Z" fill="#0C478B"/>
</g>
</svg>
