<svg width="354" height="771" viewBox="0 0 354 771" fill="none" xmlns="http://www.w3.org/2000/svg">
<g opacity="0.3">
<g opacity="0.1">
<path opacity="0.3" d="M66.3173 202.814L39.132 218.761L11.9316 202.814V170.889L39.132 154.941L66.3173 170.889V202.814Z" fill="white"/>
<path opacity="0.6" d="M37.7464 152.503L10.5461 168.466L-16.6543 152.503V120.593L10.5461 104.631L37.7464 120.593V152.503Z" fill="white"/>
<path opacity="0.3" d="M66.3173 102.191L39.132 118.153L11.9316 102.191V70.2808L39.132 54.3184L66.3173 70.2808V102.191Z" fill="white"/>
<path opacity="0.1" d="M94.9032 253.111L67.7029 269.073L40.5176 253.111V221.201L67.7029 205.238L94.9032 221.201V253.111Z" fill="white"/>
<path opacity="0.3" d="M123.489 404.032L96.2883 419.995L69.0879 404.032V372.123L96.2883 356.16L123.489 372.123V404.032Z" fill="white"/>
<path opacity="0.6" d="M180.645 404.032L153.445 419.995L126.26 404.032V372.123L153.445 356.16L180.645 372.123V404.032Z" fill="white"/>
<path opacity="0.3" d="M152.061 253.111L124.876 269.073L97.6758 253.111V221.201L124.876 205.238L152.061 221.201V253.111Z" fill="white"/>
<path opacity="0.6" d="M123.489 202.814L96.2883 218.761L69.0879 202.814V170.889L96.2883 154.941L123.489 170.889V202.814Z" fill="white"/>
<path opacity="0.6" d="M123.489 303.423L96.2883 319.37L69.0879 303.423V271.498L96.2883 255.551L123.489 271.498V303.423Z" fill="white"/>
<path opacity="0.3" d="M66.3173 303.423L39.132 319.37L11.9316 303.423V271.498L39.132 255.551L66.3173 271.498V303.423Z" fill="white"/>
<path opacity="0.6" d="M9.16048 303.423L-18.0399 319.37L-45.2402 303.423V271.498L-18.0399 255.551L9.16048 271.498V303.423Z" fill="white"/>
<path opacity="0.1" d="M152.061 152.503L124.876 168.451L97.6758 152.503V120.578L124.876 104.631L152.061 120.578V152.503Z" fill="white"/>
<path opacity="0.1" d="M37.7464 353.721L10.5461 369.683L-16.6543 353.721V321.811L10.5461 305.863L37.7464 321.811V353.721Z" fill="white"/>
<path opacity="0.6" d="M9.16048 404.032L-18.0399 419.995L-45.2402 404.032V372.123L-18.0399 356.16L9.16048 372.123V404.032Z" fill="white"/>
<path opacity="0.1" d="M94.9032 51.8938L67.7029 67.8412L40.5176 51.8938V19.9689L67.7029 4.02148L94.9032 19.9689V51.8938Z" fill="white"/>
<path opacity="0.6" d="M123.489 102.191L96.2883 118.153L69.0879 102.191V70.2808L96.2883 54.3184L123.489 70.2808V102.191Z" fill="white"/>
<path opacity="0.1" d="M152.061 353.721L124.876 369.683L97.6758 353.721V321.811L124.876 305.863L152.061 321.811V353.721Z" fill="white"/>
</g>
<path d="M70.672 0H70.5967L42.2969 16.5648V49.9956L70.4762 66.5604V99.5395L42.2366 116.104V149.234L14.1326 165.799L-14.107 149.234L-42.4219 165.799V199.094L-14.122 215.659H-14.0467L14.1175 199.094L42.2216 215.568V248.547L14.2079 265.112L-14.0317 248.547L-42.3466 265.112V298.242L-70.4958 314.822L-98.7353 298.257L-127.035 314.822V348.117L-98.7203 364.682L-70.5409 348.117L-42.452 364.682V397.646L-70.6916 414.211V447.506L-42.3917 464.071L-14.0769 447.506V414.376L14.1477 397.811V364.607L-14.0166 348.042V315.063L14.0723 298.498L42.3119 315.063L70.6117 298.498V265.368L98.7007 248.879L126.805 265.368V298.332L98.5651 314.897V348.192L126.729 364.757V397.887H126.805L155.105 414.452H155.18L183.48 397.887V364.607H183.404L155.24 348.042V315.063L183.344 298.498L211.584 315.063L239.899 298.498V265.203H239.823L211.523 248.638H211.448L183.284 265.203L155.18 248.728V215.749L183.63 199.184L211.87 215.749L240.185 199.184V166.055L268.274 149.49L296.513 166.055L324.813 149.49V116.104H324.738L296.589 99.3889H296.513L268.349 115.954L240.245 99.5395V66.5604L268.469 49.9956V16.7003L240.155 0.135531L211.84 16.7003V49.83L183.615 66.3948V99.69L211.779 116.255V149.234L183.691 165.799L155.451 149.234H155.376L127.076 165.799V198.928L98.9718 215.403L70.8226 198.943V165.964L99.0621 149.4V116.27L127.302 99.7051V66.3948L99.1375 49.83V16.7003L70.672 0ZM240.079 66.2592L230.711 60.7627L211.99 49.7697V16.866L240.079 0.30118L268.183 16.866V49.83L240.079 66.2592ZM239.944 99.4792L230.576 104.961L211.87 115.954L183.766 99.5395V66.5604L211.87 50.086L221.283 55.5825L240.004 66.5604L239.944 99.4792ZM268.454 149.174V116.27L296.558 99.7051L324.647 116.27V149.234L296.558 165.799L268.454 149.174ZM240.079 165.738L230.711 160.242L211.99 149.249V116.27L221.358 110.773L240.079 99.7804L268.183 116.345V149.234L240.079 165.738ZM183.751 198.958V165.979L211.855 149.415L221.223 154.911L239.944 165.904V198.883L211.855 215.358L183.751 198.958ZM155.376 215.433L145.978 209.921L127.257 198.943V165.964L155.346 149.4L183.45 165.964V198.943L155.376 215.433ZM183.751 298.347V265.368L211.855 248.879L239.944 265.368V298.332L211.855 314.822L183.751 298.347ZM127.302 364.772L136.655 359.276L155.391 348.283L183.495 364.848V397.811L155.391 414.301L127.302 397.736V364.772ZM127.151 298.513L136.519 304.009L155.255 315.002V347.981L145.887 353.463L127.151 364.456L99.0621 347.981V315.002L127.151 298.513ZM127.302 265.308L136.655 259.812L155.391 248.819L183.495 265.308V298.272L155.391 314.762L145.978 309.325L127.257 298.332L127.302 265.308ZM99.0621 248.578V215.599L127.151 199.124L136.519 204.621L155.255 215.599V248.578L145.887 254.074L127.151 265.052L99.0621 248.578ZM-42.2863 397.977L-32.9183 403.474L-14.1823 414.467V447.431L-42.2863 463.92L-70.3602 447.431V414.467L-42.2863 397.977ZM-42.1357 364.848L-32.7677 359.351L-14.0467 348.358L14.0573 364.923V397.887L-14.0317 414.211L-23.3997 408.729L-42.1206 397.736L-42.1357 364.848ZM-70.6614 315.153V348.132L-98.7504 364.607L-126.854 348.132V315.153L-98.7504 298.588L-70.6614 315.153ZM-42.2863 298.588L-32.9183 304.085L-14.1823 315.078V348.057L-23.5503 353.538L-42.2863 364.516L-70.3602 348.042V315.063L-42.2863 298.588ZM14.0573 265.383V298.347L-14.0317 314.822L-23.3997 309.325L-42.1206 298.332V265.368L-14.0317 248.879L14.0573 265.383ZM42.4324 248.894L51.8004 254.39L70.5364 265.383V298.347L42.4475 314.822L14.3434 298.332V265.368L42.4324 248.894ZM42.5679 215.674L51.936 210.192L70.672 199.184L98.7609 215.659V248.638L70.672 265.112L61.304 259.631L42.5679 248.638V215.674ZM14.0573 165.979V198.958L-14.0317 215.418L-42.1206 198.943V165.964L-14.0317 149.4L14.0573 165.979ZM42.4324 149.415L51.8004 154.911L70.5364 165.904V198.883L61.1684 204.365L42.4324 215.358L14.3434 198.943V165.964L42.4324 149.415ZM70.672 99.7202L80.0249 105.217L98.7609 116.21V149.234L70.672 165.723L61.304 160.227L42.5679 149.234V116.27L70.672 99.7202ZM70.8075 66.5002L80.1755 61.0187L98.8965 50.0257L127.001 66.5002V99.4792L98.9116 115.954L89.5586 110.472L70.8226 99.5395L70.8075 66.5002ZM70.672 0.376473L98.7609 16.9413V49.83L89.3929 55.3265L70.672 66.2592L42.5679 49.6944V16.866L70.672 0.376473Z" fill="white"/>
<path d="M98.9106 15.6621C98.6176 15.6661 98.338 15.7852 98.1322 15.9938C97.9265 16.2023 97.8111 16.4835 97.8111 16.7765C97.787 16.9261 97.787 17.0786 97.8111 17.2282L70.5506 33.266V65.3867C70.2816 65.4196 70.0339 65.5494 69.8537 65.7517C69.6735 65.954 69.5732 66.2151 69.5716 66.486C69.5715 66.7829 69.6885 67.0679 69.8971 67.2793C70.1057 67.4907 70.3891 67.6114 70.6861 67.6154C70.8586 67.6138 71.0281 67.5705 71.1802 67.4892C71.3323 67.4079 71.4625 67.291 71.5596 67.1485L98.7751 83.1261V115.081C98.5076 115.114 98.2616 115.245 98.0839 115.447C97.9062 115.65 97.8091 115.911 97.8111 116.18C97.7884 116.33 97.7884 116.482 97.8111 116.632L70.5506 132.67V164.776C70.279 164.809 70.0292 164.941 69.8487 165.146C69.6682 165.352 69.5695 165.616 69.5716 165.89C69.5711 166.04 69.6019 166.189 69.662 166.327L42.4465 182.289L14.207 165.724L-13.1591 181.777C-13.2579 181.637 -13.3888 181.523 -13.5408 181.445C-13.6928 181.366 -13.8615 181.325 -14.0326 181.325C-14.3282 181.307 -14.6188 181.407 -14.8406 181.604C-15.0623 181.8 -15.1969 182.076 -15.2149 182.372C-15.2329 182.667 -15.1327 182.958 -14.9364 183.18C-14.7401 183.401 -14.4638 183.536 -14.1682 183.554V215.66L13.1075 231.667C13.0474 231.805 13.0167 231.954 13.0171 232.104C13.0171 232.4 13.1346 232.683 13.3436 232.892C13.5526 233.101 13.8361 233.218 14.1316 233.218C14.4272 233.218 14.7107 233.101 14.9197 232.892C15.1288 232.683 15.2462 232.4 15.2462 232.104C15.2466 231.954 15.2159 231.805 15.1558 231.667L42.3712 215.705L69.5716 231.667C69.5487 231.812 69.5487 231.959 69.5716 232.104C69.5728 232.377 69.6725 232.639 69.8525 232.844C70.0324 233.049 70.2803 233.182 70.5506 233.218V265.158L43.3201 281.181C43.2203 281.041 43.0895 280.926 42.938 280.845C42.7865 280.764 42.6183 280.719 42.4465 280.714C42.2743 280.717 42.1053 280.761 41.9534 280.842C41.8014 280.923 41.671 281.039 41.573 281.181L14.207 265.113L-14.1079 281.678V313.784C-14.3769 313.816 -14.6246 313.946 -14.8048 314.149C-14.985 314.351 -15.0852 314.612 -15.0869 314.883C-15.0816 315.037 -15.0511 315.19 -14.9965 315.335L-42.2872 331.387L-70.5118 314.823L-97.8627 330.875C-97.9633 330.737 -98.0945 330.625 -98.2462 330.546C-98.3978 330.468 -98.5656 330.426 -98.7363 330.424C-98.8839 330.424 -99.0301 330.453 -99.1663 330.51C-99.3025 330.567 -99.426 330.65 -99.5297 330.755C-99.6334 330.86 -99.7152 330.985 -99.7703 331.122C-99.8254 331.259 -99.8528 331.405 -99.8508 331.553C-99.8491 331.824 -99.7488 332.085 -99.5687 332.287C-99.3885 332.49 -99.1408 332.619 -98.8718 332.652V364.773L-70.5569 381.338L-43.2512 365.315C-43.1541 365.455 -43.0246 365.569 -42.8738 365.648C-42.723 365.727 -42.5553 365.768 -42.3851 365.768C-42.215 365.768 -42.0473 365.727 -41.8965 365.648C-41.7457 365.569 -41.6162 365.455 -41.5191 365.315L-14.2887 381.293V413.233C-14.5576 413.266 -14.8053 413.395 -14.9855 413.598C-15.1657 413.8 -15.266 414.061 -15.2676 414.332C-15.2624 414.486 -15.2318 414.639 -15.1773 414.784L-42.4077 430.867V464.162L-15.1321 480.169C-15.1851 480.309 -15.2156 480.457 -15.2224 480.606C-15.2224 480.902 -15.105 481.185 -14.896 481.394C-14.687 481.603 -14.4035 481.721 -14.1079 481.721C-13.8123 481.721 -13.5289 481.603 -13.3198 481.394C-13.1108 481.185 -12.9934 480.902 -12.9934 480.606C-12.9929 480.456 -13.0237 480.307 -13.0838 480.169L13.2581 464.719C13.3618 464.857 13.4958 464.97 13.6499 465.048C13.8039 465.127 13.9739 465.168 14.1467 465.171C14.3192 465.169 14.4887 465.126 14.6408 465.045C14.7929 464.963 14.9231 464.846 15.0203 464.704L42.2507 480.682V513.661L14.222 530.195L-12.9934 514.218C-12.9316 514.081 -12.9007 513.931 -12.903 513.781C-12.903 513.485 -13.0204 513.202 -13.2295 512.993C-13.4385 512.784 -13.722 512.667 -14.0176 512.667C-14.3131 512.667 -14.5966 512.784 -14.8056 512.993C-15.0147 513.202 -15.1321 513.485 -15.1321 513.781C-15.1344 513.931 -15.1036 514.081 -15.0417 514.218L-42.3927 530.271V562.376C-42.6602 562.409 -42.9062 562.54 -43.0839 562.742C-43.2616 562.945 -43.3586 563.206 -43.3566 563.475C-43.3606 563.772 -43.2476 564.059 -43.0418 564.273C-42.836 564.487 -42.5541 564.612 -42.2571 564.62C-42.0847 564.618 -41.9151 564.575 -41.763 564.494C-41.6109 564.412 -41.4807 564.296 -41.3836 564.153L-14.0176 580.206L13.2732 564.183C13.3697 564.326 13.4998 564.443 13.6521 564.524C13.8044 564.605 13.9743 564.647 14.1467 564.647C14.3192 564.647 14.489 564.605 14.6413 564.524C14.7936 564.443 14.9237 564.326 15.0203 564.183L42.2507 580.161V613.125L15.0956 629.072C14.9968 628.932 14.8659 628.818 14.7139 628.739C14.5619 628.661 14.3932 628.62 14.222 628.62C14.0508 628.62 13.8821 628.661 13.7301 628.739C13.5781 628.818 13.4472 628.932 13.3485 629.072L-14.0176 613.019L-41.3836 629.072C-41.4815 628.931 -41.6122 628.817 -41.7644 628.738C-41.9166 628.659 -42.0858 628.619 -42.2571 628.62C-42.5527 628.602 -42.8433 628.703 -43.0651 628.899C-43.2868 629.095 -43.4214 629.371 -43.4394 629.667C-43.4574 629.962 -43.3572 630.253 -43.1609 630.475C-42.9646 630.696 -42.6883 630.831 -42.3927 630.849V662.804L-69.6232 678.782C-69.7194 678.638 -69.8494 678.521 -70.0017 678.439C-70.154 678.358 -70.324 678.315 -70.4967 678.315C-70.6664 678.32 -70.8324 678.365 -70.9815 678.446C-71.1306 678.527 -71.2586 678.642 -71.3552 678.782L-98.7212 662.714L-127.021 679.279V711.384C-127.291 711.421 -127.539 711.553 -127.719 711.758C-127.899 711.963 -127.999 712.226 -128 712.499C-127.996 712.797 -127.876 713.082 -127.665 713.293C-127.454 713.504 -127.169 713.624 -126.87 713.628C-126.701 713.619 -126.537 713.573 -126.388 713.492C-126.239 713.411 -126.111 713.298 -126.012 713.161L-98.6459 729.229H-98.5706L-70.4063 712.664L-43.206 728.627C-43.254 728.772 -43.2794 728.925 -43.2813 729.078C-43.2833 729.348 -43.1863 729.609 -43.0086 729.811C-42.8309 730.014 -42.5849 730.144 -42.3174 730.178V762.118L-70.5569 778.682V810.788C-70.8525 810.808 -71.1281 810.945 -71.323 811.168C-71.5179 811.391 -71.6161 811.682 -71.5962 811.978C-71.5762 812.273 -71.4396 812.549 -71.2165 812.744C-70.9933 812.938 -70.7019 813.037 -70.4063 813.017C-70.2375 813.016 -70.0714 812.974 -69.922 812.895C-69.7726 812.817 -69.6443 812.703 -69.5478 812.565L-42.2872 828.708H-42.2119L-13.8971 812.143V779.947C-13.6296 779.914 -13.3836 779.784 -13.2059 779.581C-13.0282 779.379 -12.9311 779.118 -12.9332 778.848C-12.9308 778.698 -12.9617 778.549 -13.0235 778.411L14.3275 762.359V729.063L-13.8368 712.499V680.559C-13.5694 680.519 -13.325 680.385 -13.1481 680.18C-12.9712 679.976 -12.8736 679.715 -12.8729 679.444C-12.8724 679.294 -12.9032 679.145 -12.9633 679.007L14.2521 663.045L41.4676 679.007C41.408 679.176 41.3892 679.356 41.4127 679.533C41.4362 679.71 41.5013 679.879 41.6027 680.026C41.7041 680.173 41.8389 680.293 41.9961 680.378C42.1532 680.463 42.3283 680.509 42.5068 680.513C42.6532 680.511 42.7977 680.481 42.9321 680.423C43.0666 680.365 43.1884 680.281 43.2905 680.176C43.3926 680.071 43.473 679.948 43.5272 679.812C43.5814 679.676 43.6082 679.53 43.6062 679.384C43.6067 679.234 43.5759 679.085 43.5159 678.947L70.8668 662.894V630.849C71.1358 630.816 71.3835 630.686 71.5637 630.484C71.7439 630.282 71.8442 630.021 71.8458 629.75C71.8406 629.6 71.81 629.452 71.7554 629.313L98.9558 613.351L127.06 629.84V662.804L99.8293 678.782C99.7331 678.638 99.6031 678.521 99.4508 678.439C99.2985 678.358 99.1285 678.315 98.9558 678.315C98.6757 678.326 98.4095 678.44 98.2091 678.636C98.0087 678.832 97.8884 679.095 97.8715 679.375C97.8546 679.655 97.9423 679.931 98.1177 680.15C98.293 680.368 98.5435 680.514 98.8203 680.559V712.499L70.5957 729.063V761.184C70.4118 761.203 70.2356 761.268 70.083 761.373C69.9305 761.478 69.8064 761.619 69.7219 761.783C69.6374 761.948 69.5952 762.131 69.5991 762.316C69.603 762.5 69.6528 762.681 69.7442 762.842C69.8355 763.003 69.9655 763.139 70.1223 763.237C70.2791 763.335 70.4579 763.393 70.6425 763.404C70.8271 763.416 71.0117 763.382 71.1797 763.304C71.3477 763.227 71.4938 763.109 71.6048 762.961L98.8203 778.938V812.068L126.096 828.076C126.038 828.214 126.012 828.363 126.021 828.512C126.019 828.659 126.045 828.804 126.1 828.94C126.154 829.076 126.234 829.2 126.336 829.305C126.438 829.41 126.56 829.493 126.695 829.551C126.829 829.609 126.974 829.64 127.12 829.642C127.417 829.638 127.701 829.517 127.909 829.306C128.118 829.094 128.235 828.809 128.235 828.512C128.238 828.362 128.208 828.212 128.144 828.076L155.495 812.023V779.947C155.791 779.929 156.067 779.795 156.263 779.573C156.46 779.351 156.56 779.061 156.542 778.765C156.524 778.47 156.389 778.193 156.168 777.997C155.946 777.801 155.655 777.701 155.36 777.719C155.187 777.72 155.018 777.764 154.866 777.845C154.713 777.926 154.583 778.043 154.486 778.185L127.301 762.208V730.253C127.57 730.22 127.817 730.09 127.998 729.888C128.178 729.686 128.278 729.425 128.28 729.154C128.28 728.999 128.249 728.845 128.189 728.702L155.54 712.664V680.559C155.811 680.522 156.059 680.389 156.238 680.185C156.418 679.98 156.518 679.717 156.519 679.444C156.52 679.294 156.489 679.145 156.429 679.007L183.629 663.045L211.869 679.61L239.175 663.587C239.271 663.726 239.4 663.839 239.549 663.918C239.698 663.996 239.864 664.038 240.033 664.039C240.329 664.057 240.619 663.957 240.841 663.76C241.063 663.564 241.198 663.288 241.215 662.992C241.233 662.697 241.133 662.406 240.937 662.184C240.741 661.963 240.464 661.828 240.169 661.81V629.674L212.893 613.667C212.941 613.526 212.967 613.379 212.968 613.23C212.987 613.074 212.972 612.916 212.924 612.766C212.877 612.616 212.798 612.477 212.694 612.36C212.589 612.242 212.461 612.148 212.318 612.084C212.174 612.02 212.019 611.986 211.861 611.986C211.704 611.986 211.549 612.02 211.405 612.084C211.262 612.148 211.133 612.242 211.029 612.36C210.924 612.477 210.846 612.616 210.798 612.766C210.751 612.916 210.736 613.074 210.754 613.23C210.732 613.375 210.732 613.522 210.754 613.667L183.629 629.584L156.414 613.622C156.474 613.484 156.505 613.335 156.504 613.185C156.503 612.914 156.402 612.653 156.222 612.451C156.042 612.248 155.794 612.119 155.525 612.086V580.131L182.756 564.153C182.854 564.295 182.984 564.411 183.136 564.492C183.288 564.573 183.457 564.617 183.629 564.62C183.801 564.615 183.969 564.57 184.121 564.489C184.272 564.408 184.403 564.293 184.503 564.153L211.869 580.206L240.184 563.641V531.46C240.349 531.435 240.507 531.374 240.645 531.28C240.783 531.186 240.899 531.062 240.983 530.917C241.067 530.773 241.117 530.611 241.13 530.444C241.143 530.278 241.118 530.11 241.057 529.954L268.273 513.992L296.512 530.557H296.588L323.878 514.534C323.977 514.674 324.108 514.788 324.26 514.866C324.412 514.945 324.581 514.986 324.752 514.986C325.048 515.004 325.338 514.904 325.56 514.707C325.782 514.511 325.916 514.235 325.934 513.939C325.952 513.644 325.852 513.353 325.656 513.131C325.459 512.91 325.183 512.775 324.887 512.757V480.561L296.588 463.996H296.512L269.222 480.004C269.123 479.864 268.992 479.75 268.84 479.671C268.688 479.592 268.519 479.551 268.348 479.551C268.177 479.551 268.008 479.592 267.856 479.671C267.704 479.75 267.573 479.864 267.474 480.004L240.259 463.996V432.056C240.527 432.023 240.773 431.893 240.95 431.69C241.128 431.487 241.225 431.226 241.223 430.957C241.223 430.803 241.197 430.651 241.148 430.505L268.484 414.467V381.172L241.208 365.165C241.256 365.024 241.281 364.876 241.283 364.728C241.302 364.572 241.286 364.413 241.239 364.263C241.192 364.113 241.113 363.975 241.009 363.858C240.904 363.74 240.776 363.646 240.633 363.582C240.489 363.517 240.334 363.484 240.176 363.484C240.019 363.484 239.863 363.517 239.72 363.582C239.576 363.646 239.448 363.74 239.344 363.858C239.239 363.975 239.161 364.113 239.113 364.263C239.066 364.413 239.051 364.572 239.069 364.728C239.046 364.873 239.046 365.02 239.069 365.165L212.742 380.615C212.639 380.477 212.505 380.364 212.351 380.286C212.197 380.207 212.027 380.166 211.854 380.163C211.681 380.164 211.511 380.206 211.359 380.288C211.207 380.369 211.077 380.487 210.98 380.63L183.75 364.653V331.674L211.854 315.109L239.054 331.086C239 331.226 238.969 331.373 238.964 331.523C238.964 331.818 239.081 332.102 239.29 332.311C239.499 332.52 239.783 332.637 240.078 332.637C240.374 332.637 240.657 332.52 240.866 332.311C241.075 332.102 241.193 331.818 241.193 331.523C241.217 331.378 241.217 331.231 241.193 331.086L268.529 315.033V282.958C268.798 282.925 269.045 282.795 269.226 282.593C269.406 282.391 269.506 282.129 269.508 281.859C269.51 281.71 269.482 281.563 269.428 281.425C269.373 281.287 269.291 281.162 269.188 281.056C269.084 280.949 268.961 280.864 268.824 280.806C268.688 280.747 268.542 280.716 268.393 280.714C268.221 280.719 268.053 280.764 267.902 280.845C267.75 280.926 267.619 281.041 267.52 281.181L240.108 265.113H240.033L212.727 281.136C212.632 280.995 212.504 280.88 212.355 280.799C212.205 280.717 212.039 280.673 211.869 280.669C211.697 280.672 211.528 280.716 211.376 280.797C211.224 280.878 211.093 280.994 210.995 281.136L183.765 265.158V232.239L210.995 216.262C211.094 216.402 211.225 216.516 211.377 216.594C211.529 216.673 211.698 216.714 211.869 216.714C212.038 216.713 212.204 216.671 212.353 216.592C212.503 216.514 212.631 216.4 212.727 216.262L240.093 232.315L267.384 216.307C267.485 216.445 267.616 216.558 267.768 216.636C267.919 216.715 268.087 216.757 268.258 216.759C268.553 216.777 268.844 216.677 269.066 216.48C269.287 216.284 269.422 216.008 269.44 215.712C269.458 215.417 269.358 215.126 269.161 214.904C268.965 214.683 268.689 214.548 268.393 214.53V182.53L295.624 166.552C295.721 166.695 295.851 166.812 296.003 166.893C296.155 166.974 296.325 167.018 296.497 167.019C296.669 167.014 296.837 166.969 296.989 166.888C297.14 166.807 297.271 166.692 297.371 166.552L324.737 182.62L353.052 166.056V133.86C353.329 133.814 353.58 133.667 353.755 133.447C353.93 133.227 354.016 132.95 353.997 132.669C353.979 132.389 353.856 132.125 353.653 131.93C353.45 131.736 353.182 131.623 352.901 131.616C352.731 131.62 352.565 131.664 352.415 131.745C352.266 131.827 352.138 131.942 352.043 132.083L324.812 115.954H324.737L296.573 132.519L269.357 116.557C269.416 116.413 269.447 116.26 269.447 116.105C269.446 115.834 269.346 115.573 269.165 115.371C268.985 115.169 268.737 115.039 268.469 115.006V83.1411L296.708 66.5763V34.4556C296.854 34.4457 296.997 34.4071 297.129 34.342C297.26 34.2769 297.378 34.1865 297.474 34.076C297.571 33.9655 297.644 33.8371 297.691 33.6982C297.738 33.5592 297.757 33.4123 297.747 33.266C297.737 33.1196 297.699 32.9767 297.634 32.8453C297.569 32.7139 297.478 32.5965 297.368 32.5001C297.257 32.4036 297.129 32.3298 296.99 32.2829C296.851 32.2361 296.704 32.217 296.557 32.2269C296.389 32.2292 296.223 32.2714 296.074 32.3499C295.925 32.4284 295.796 32.541 295.699 32.6787L268.333 16.5656L240.018 33.1305V65.3867C239.748 65.423 239.5 65.5558 239.32 65.7606C239.14 65.9655 239.04 66.2284 239.039 66.501C239.046 66.6456 239.077 66.788 239.13 66.9227L211.718 82.9755V116.271L239.883 132.836V164.776C239.612 164.812 239.364 164.945 239.184 165.15C239.005 165.354 238.905 165.617 238.904 165.89C238.91 166.039 238.941 166.187 238.994 166.327L211.794 182.289L184.578 166.327C184.64 166.184 184.671 166.03 184.669 165.875C184.669 165.728 184.64 165.584 184.584 165.448C184.528 165.313 184.446 165.19 184.342 165.087C184.239 164.983 184.116 164.901 183.981 164.845C183.845 164.789 183.7 164.76 183.554 164.76C183.408 164.76 183.263 164.789 183.128 164.845C182.992 164.901 182.869 164.983 182.766 165.087C182.662 165.19 182.58 165.313 182.524 165.448C182.468 165.584 182.44 165.728 182.44 165.875C182.439 166.025 182.47 166.174 182.53 166.312L155.254 182.364V214.485C154.985 214.518 154.738 214.648 154.557 214.85C154.377 215.052 154.277 215.313 154.275 215.584C154.275 215.735 154.306 215.883 154.366 216.021L127.15 231.983L99.0612 215.419V182.53L126.292 166.552C126.385 166.696 126.512 166.813 126.662 166.895C126.812 166.976 126.98 167.019 127.15 167.019C127.447 167.015 127.731 166.895 127.939 166.683C128.148 166.472 128.265 166.187 128.265 165.89C128.267 165.619 128.171 165.356 127.993 165.151C127.816 164.946 127.57 164.812 127.301 164.776V132.836L155.525 116.271V84.1501C155.709 84.1305 155.885 84.0656 156.038 83.961C156.191 83.8564 156.315 83.7154 156.399 83.5509C156.484 83.3864 156.526 83.2034 156.522 83.0185C156.518 82.8336 156.468 82.6525 156.377 82.4917C156.286 82.3309 156.156 82.1953 155.999 82.0972C155.842 81.9991 155.663 81.9416 155.479 81.9298C155.294 81.9181 155.109 81.9524 154.941 82.0298C154.773 82.1072 154.627 82.2252 154.516 82.3731L127.301 66.3956V33.266L99.9498 17.2282C99.974 17.0786 99.974 16.9261 99.9498 16.7765C99.9505 16.4935 99.8435 16.2209 99.6505 16.014C99.4575 15.807 99.193 15.6812 98.9106 15.6621ZM268.333 82.8249L258.935 77.3886L241.087 66.8474C241.148 66.7096 241.178 66.5609 241.178 66.4107C241.18 66.1411 241.083 65.8802 240.905 65.6776C240.727 65.4749 240.481 65.3446 240.214 65.3114V33.4316L268.303 16.8668L295.518 32.8443C295.456 32.9815 295.426 33.1306 295.428 33.281C295.43 33.5519 295.53 33.813 295.71 34.0153C295.89 34.2176 296.138 34.3474 296.407 34.3803V66.4107L268.333 82.8249ZM258.829 121.541L240.093 132.534L212.004 115.97V83.1411L239.235 67.1636C239.334 67.3033 239.465 67.4172 239.617 67.4959C239.769 67.5745 239.937 67.6155 240.108 67.6154C240.277 67.6143 240.443 67.5727 240.593 67.4941C240.742 67.4155 240.871 67.3021 240.967 67.1636L249.461 72.1481L268.197 83.1411V115.081C267.927 115.117 267.679 115.25 267.499 115.455C267.319 115.66 267.22 115.923 267.218 116.195C267.225 116.34 267.256 116.482 267.309 116.617L258.829 121.541ZM297.597 166.266C297.658 166.124 297.689 165.97 297.687 165.815C297.685 165.544 297.585 165.283 297.405 165.08C297.225 164.878 296.977 164.748 296.708 164.715V132.836L324.812 116.271L352.012 132.233C351.963 132.379 351.938 132.531 351.937 132.685C351.935 132.954 352.032 133.215 352.21 133.418C352.388 133.621 352.634 133.751 352.901 133.784V165.8L324.812 182.364L297.597 166.266ZM268.333 182.229L258.935 176.793L241.087 166.251C241.148 166.114 241.178 165.965 241.178 165.815C241.18 165.543 241.084 165.281 240.906 165.075C240.729 164.87 240.483 164.737 240.214 164.7V132.836L249.582 127.339L267.429 116.798C267.531 116.938 267.665 117.052 267.819 117.13C267.974 117.209 268.145 117.25 268.318 117.25C268.486 117.245 268.651 117.202 268.8 117.123C268.949 117.045 269.077 116.934 269.176 116.798L296.407 132.775V164.715C296.137 164.752 295.889 164.884 295.709 165.089C295.529 165.294 295.429 165.557 295.428 165.83C295.427 165.98 295.458 166.129 295.518 166.266L268.333 182.229ZM212.893 215.961C212.916 215.816 212.916 215.669 212.893 215.524C212.895 215.255 212.798 214.994 212.62 214.791C212.443 214.588 212.197 214.458 211.929 214.425V182.53L239.16 166.552C239.253 166.696 239.38 166.813 239.53 166.895C239.68 166.976 239.847 167.019 240.018 167.019C240.191 167.019 240.361 166.976 240.513 166.895C240.665 166.813 240.795 166.696 240.892 166.552L249.386 171.537L268.122 182.53V214.485C267.853 214.518 267.605 214.648 267.425 214.85C267.245 215.052 267.145 215.313 267.143 215.584C267.143 215.735 267.173 215.883 267.233 216.021L240.018 231.983L212.893 215.961ZM183.629 231.983L174.261 226.487L156.414 215.946C156.474 215.808 156.505 215.659 156.504 215.509C156.503 215.238 156.402 214.977 156.222 214.775C156.042 214.572 155.794 214.443 155.525 214.41V182.53L182.756 166.552C182.853 166.695 182.983 166.812 183.135 166.893C183.287 166.974 183.457 167.018 183.629 167.019C183.801 167.014 183.969 166.969 184.121 166.888C184.272 166.807 184.403 166.692 184.503 166.552L211.718 182.53V214.485C211.451 214.518 211.205 214.649 211.027 214.851C210.849 215.054 210.752 215.315 210.754 215.584C210.754 215.735 210.785 215.883 210.845 216.021L183.629 231.983ZM183.494 265.203L174.126 270.7L155.39 281.693L128.174 265.715C128.238 265.579 128.269 265.429 128.265 265.279C128.267 265.009 128.17 264.748 127.992 264.546C127.814 264.343 127.568 264.213 127.301 264.179V232.239L154.516 216.262C154.615 216.402 154.746 216.516 154.898 216.595C155.05 216.673 155.219 216.714 155.39 216.714C155.561 216.714 155.73 216.673 155.882 216.595C156.034 216.516 156.165 216.402 156.263 216.262L164.758 221.246L183.494 232.239V265.203ZM127.15 266.408C127.321 266.406 127.489 266.364 127.64 266.285C127.792 266.207 127.923 266.094 128.024 265.956L155.254 281.934V313.889C154.985 313.922 154.738 314.052 154.557 314.254C154.377 314.456 154.277 314.717 154.275 314.988C154.275 315.139 154.306 315.287 154.366 315.425L127.015 331.478V363.583C126.831 363.603 126.655 363.668 126.502 363.772C126.349 363.877 126.225 364.018 126.141 364.183C126.056 364.347 126.014 364.53 126.018 364.715C126.022 364.9 126.072 365.081 126.163 365.242C126.254 365.403 126.384 365.538 126.541 365.636C126.698 365.734 126.877 365.792 127.061 365.804C127.246 365.815 127.431 365.781 127.599 365.704C127.767 365.626 127.913 365.508 128.024 365.36L155.254 381.338V413.278C155.064 413.292 154.881 413.354 154.722 413.459C154.563 413.563 154.432 413.705 154.343 413.873C154.254 414.041 154.208 414.229 154.211 414.419C154.213 414.61 154.264 414.796 154.358 414.962C154.452 415.127 154.586 415.266 154.748 415.366C154.91 415.466 155.095 415.523 155.285 415.532C155.475 415.541 155.664 415.502 155.835 415.419C156.006 415.336 156.154 415.21 156.263 415.055L183.494 431.047V462.987C183.226 463.021 182.98 463.151 182.803 463.354C182.625 463.556 182.528 463.817 182.53 464.087C182.53 464.384 182.647 464.669 182.855 464.88C183.064 465.091 183.347 465.212 183.644 465.216C183.817 465.214 183.986 465.171 184.138 465.09C184.291 465.009 184.421 464.892 184.518 464.749L211.733 480.727V513.706L183.629 530.195L156.414 514.218C156.476 514.081 156.507 513.931 156.504 513.781C156.504 513.635 156.475 513.49 156.419 513.355C156.363 513.219 156.281 513.096 156.178 512.993C156.074 512.89 155.952 512.807 155.816 512.751C155.681 512.695 155.536 512.667 155.39 512.667C155.243 512.667 155.098 512.695 154.963 512.751C154.828 512.807 154.705 512.89 154.602 512.993C154.498 513.096 154.416 513.219 154.36 513.355C154.304 513.49 154.275 513.635 154.275 513.781C154.273 513.931 154.304 514.081 154.366 514.218L127.015 530.271V562.376C126.746 562.413 126.5 562.546 126.322 562.751C126.145 562.956 126.048 563.219 126.051 563.49C126.045 563.64 126.071 563.789 126.126 563.927L99.7842 579.378C99.6871 579.238 99.5576 579.124 99.4068 579.045C99.256 578.966 99.0883 578.925 98.9181 578.925C98.7479 578.925 98.5803 578.966 98.4295 579.045C98.2787 579.124 98.1492 579.238 98.0521 579.378L70.8367 563.4V531.445C71.1057 531.412 71.3534 531.282 71.5336 531.08C71.7137 530.878 71.814 530.617 71.8157 530.346C71.8088 530.196 71.7783 530.049 71.7253 529.909L99.0763 513.871V481.751C99.2227 481.741 99.3656 481.702 99.4971 481.637C99.6285 481.572 99.7458 481.482 99.8423 481.371C99.9388 481.261 100.013 481.132 100.059 480.993C100.106 480.854 100.125 480.707 100.116 480.561C100.106 480.415 100.067 480.272 100.002 480.14C99.9367 480.009 99.8463 479.892 99.7358 479.795C99.6253 479.699 99.4969 479.625 99.3579 479.578C99.2189 479.531 99.072 479.512 98.9257 479.522C98.7571 479.524 98.5914 479.566 98.4422 479.645C98.293 479.723 98.1646 479.836 98.0672 479.974L70.8367 463.996V432.056C71.1069 432.02 71.3549 431.887 71.5348 431.682C71.7147 431.477 71.8145 431.215 71.8157 430.942C71.8118 430.644 71.6915 430.359 71.4805 430.148C71.2695 429.937 70.9845 429.816 70.6861 429.812C70.5164 429.818 70.3504 429.863 70.2013 429.944C70.0522 430.025 69.9242 430.14 69.8276 430.279L42.5821 414.302V382.347C42.851 382.314 43.0987 382.184 43.2789 381.982C43.4591 381.779 43.5594 381.518 43.5611 381.247C43.5611 380.951 43.4441 380.666 43.2355 380.454C43.027 380.243 42.7435 380.122 42.4465 380.118C42.2738 380.118 42.1038 380.161 41.9515 380.243C41.7992 380.324 41.6692 380.441 41.573 380.585L14.3425 364.607V331.628L42.4465 315.064L69.6469 331.041C69.6227 331.186 69.6227 331.333 69.6469 331.478C69.6469 331.773 69.7643 332.057 69.9733 332.266C70.1823 332.475 70.4658 332.592 70.7614 332.592C71.057 332.592 71.3405 332.475 71.5495 332.266C71.7585 332.057 71.8759 331.773 71.8759 331.478C71.8707 331.328 71.8401 331.18 71.7856 331.041L99.1365 314.988V282.958C99.404 282.918 99.6484 282.784 99.8252 282.579C100.002 282.375 100.1 282.114 100.1 281.844C100.123 281.699 100.123 281.552 100.1 281.407L126.427 265.956C126.512 266.076 126.619 266.178 126.743 266.255C126.867 266.333 127.006 266.385 127.15 266.408ZM212.004 314.898V282.958C212.272 282.925 212.518 282.794 212.696 282.592C212.873 282.389 212.97 282.128 212.968 281.859C212.993 281.709 212.993 281.556 212.968 281.407L240.184 265.444L267.384 281.407C267.322 281.549 267.292 281.703 267.294 281.859C267.295 282.129 267.396 282.391 267.576 282.593C267.756 282.795 268.004 282.925 268.273 282.958V314.898L241.042 330.875C240.943 330.736 240.813 330.622 240.661 330.543C240.509 330.465 240.34 330.424 240.169 330.424C240 330.425 239.834 330.466 239.684 330.545C239.535 330.624 239.407 330.737 239.31 330.875L212.004 314.898ZM183.629 331.387L174.261 325.891L156.414 315.35C156.474 315.212 156.505 315.063 156.504 314.913C156.506 314.641 156.407 314.378 156.226 314.175C156.045 313.972 155.796 313.843 155.525 313.814V281.934L164.893 276.437L183.629 265.444L210.845 281.407C210.784 281.563 210.759 281.73 210.772 281.897C210.785 282.064 210.836 282.225 210.919 282.37C211.003 282.514 211.119 282.638 211.257 282.732C211.395 282.826 211.553 282.888 211.718 282.913V314.853L183.629 331.387ZM183.494 364.607L174.126 370.104L155.39 381.082L128.174 365.119C128.234 364.982 128.265 364.833 128.265 364.683C128.267 364.413 128.17 364.152 127.992 363.95C127.814 363.747 127.568 363.617 127.301 363.583V331.628L154.516 315.651C154.613 315.794 154.743 315.911 154.895 315.992C155.048 316.072 155.217 316.115 155.39 316.115C155.562 316.115 155.732 316.072 155.884 315.992C156.037 315.911 156.167 315.794 156.263 315.651L164.758 320.635L183.494 331.628V364.607ZM210.845 380.811C210.784 380.967 210.759 381.134 210.772 381.301C210.785 381.467 210.836 381.629 210.919 381.774C211.003 381.918 211.119 382.042 211.257 382.136C211.395 382.23 211.553 382.292 211.718 382.317V414.272L183.629 430.791L156.414 414.829C156.474 414.691 156.505 414.542 156.504 414.392C156.506 414.119 156.408 413.854 156.227 413.648C156.047 413.443 155.797 413.311 155.525 413.278V381.338L164.893 375.841L183.629 364.848L210.845 380.811ZM240.124 429.828C239.952 429.827 239.784 429.868 239.632 429.947C239.48 430.026 239.349 430.14 239.25 430.279L230.756 425.295L212.02 414.302V382.347C212.284 382.31 212.527 382.178 212.701 381.976C212.876 381.774 212.971 381.515 212.968 381.247C212.993 381.108 212.993 380.965 212.968 380.826L239.325 365.36C239.422 365.5 239.552 365.614 239.703 365.693C239.853 365.772 240.021 365.813 240.191 365.813C240.362 365.813 240.529 365.772 240.68 365.693C240.831 365.614 240.96 365.5 241.057 365.36L268.288 381.338V414.302L241.057 430.279C240.953 430.131 240.812 430.012 240.649 429.933C240.486 429.854 240.305 429.817 240.124 429.828ZM239.973 463.996L230.605 469.493L211.884 480.486L184.669 464.523C184.729 464.386 184.759 464.237 184.759 464.087C184.757 463.816 184.657 463.555 184.477 463.352C184.297 463.15 184.049 463.02 183.78 462.987V431.032L211.884 414.467L221.252 419.964L239.084 430.43C239.06 430.579 239.06 430.732 239.084 430.882C239.082 431.151 239.179 431.412 239.357 431.615C239.535 431.817 239.781 431.948 240.048 431.981L239.973 463.996ZM268.484 513.691V481.751C268.753 481.718 269 481.588 269.18 481.386C269.361 481.183 269.461 480.922 269.463 480.651C269.463 480.501 269.432 480.352 269.372 480.215L296.588 464.252L324.692 480.727V512.682C324.423 512.715 324.175 512.844 323.995 513.047C323.815 513.249 323.714 513.51 323.713 513.781C323.71 513.931 323.741 514.081 323.803 514.218L296.588 530.195L268.484 513.691ZM240.124 529.201C239.951 529.204 239.782 529.248 239.63 529.329C239.478 529.41 239.348 529.527 239.25 529.668L230.756 524.669L212.02 513.691V480.712L221.388 475.23L240.124 464.237L267.324 480.2C267.264 480.337 267.233 480.486 267.233 480.636C267.235 480.907 267.335 481.168 267.516 481.371C267.696 481.573 267.944 481.703 268.213 481.736V513.691L240.982 529.668C240.884 529.531 240.755 529.419 240.606 529.341C240.457 529.263 240.292 529.22 240.124 529.216V529.201ZM184.669 563.912C184.729 563.774 184.759 563.626 184.759 563.475C184.758 563.203 184.658 562.94 184.478 562.735C184.298 562.53 184.05 562.397 183.78 562.361V530.436L211.884 513.947L221.252 519.443L239.084 529.909C239.06 530.059 239.06 530.211 239.084 530.361C239.082 530.63 239.179 530.891 239.357 531.094C239.535 531.297 239.781 531.427 240.048 531.46V563.4L211.959 579.89L184.669 563.912ZM155.405 579.875L145.977 574.393L128.129 563.927C128.189 563.789 128.22 563.641 128.22 563.49C128.222 563.217 128.123 562.952 127.942 562.747C127.762 562.541 127.512 562.409 127.241 562.376V530.436L154.471 514.459C154.568 514.602 154.698 514.719 154.85 514.799C155.002 514.88 155.172 514.923 155.345 514.923C155.517 514.923 155.687 514.88 155.839 514.799C155.991 514.719 156.122 514.602 156.218 514.459L183.434 530.436V562.376C183.165 562.413 182.919 562.546 182.741 562.751C182.564 562.956 182.467 563.219 182.47 563.49C182.469 563.641 182.5 563.789 182.56 563.927L155.405 579.875ZM183.78 662.789V629.84L211.01 613.863C211.109 614.002 211.24 614.116 211.392 614.195C211.544 614.273 211.713 614.314 211.884 614.314C212.055 614.312 212.222 614.27 212.374 614.192C212.526 614.113 212.657 614.001 212.758 613.863L239.973 629.84V661.78C239.704 661.813 239.456 661.943 239.276 662.145C239.096 662.347 238.996 662.608 238.994 662.879C238.999 663.029 239.03 663.177 239.084 663.316L211.884 679.279L183.78 662.789ZM99.0763 778.923L108.429 773.427L127.165 762.434L154.381 778.396C154.321 778.534 154.29 778.683 154.29 778.833C154.292 779.104 154.392 779.365 154.572 779.567C154.753 779.77 155 779.899 155.269 779.932V811.887L128.039 827.865C127.941 827.723 127.81 827.607 127.658 827.526C127.507 827.445 127.337 827.401 127.165 827.398C126.993 827.403 126.825 827.448 126.674 827.529C126.522 827.61 126.391 827.725 126.292 827.865L99.0763 811.887V778.923ZM98.9257 712.664L108.324 718.311L126.171 728.777C126.116 728.921 126.09 729.075 126.096 729.229C126.094 729.498 126.191 729.759 126.369 729.962C126.546 730.165 126.792 730.295 127.06 730.328V762.283L117.692 767.78L98.9558 778.758L71.7253 762.72C71.7783 762.58 71.8088 762.433 71.8157 762.283C71.814 762.012 71.7137 761.751 71.5336 761.549C71.3534 761.347 71.1057 761.217 70.8367 761.184V729.229L98.9257 712.664ZM127.165 662.97L136.533 668.466L154.381 678.932C154.321 679.07 154.29 679.219 154.29 679.369C154.292 679.641 154.391 679.904 154.571 680.109C154.751 680.314 154.999 680.447 155.269 680.483V712.423L128.039 728.401C127.94 728.261 127.809 728.147 127.657 728.068C127.505 727.99 127.336 727.949 127.165 727.949C126.995 727.951 126.827 727.993 126.675 728.072C126.524 728.15 126.392 728.263 126.292 728.401L117.797 723.416L99.0763 712.423V680.559C99.3438 680.519 99.5881 680.385 99.765 680.18C99.9419 679.976 100.04 679.715 100.04 679.444C100.063 679.299 100.063 679.152 100.04 679.007L127.165 662.97ZM127.301 629.765L136.669 624.253L154.531 613.787C154.63 613.927 154.761 614.041 154.913 614.12C155.065 614.199 155.234 614.24 155.405 614.24C155.576 614.24 155.745 614.199 155.897 614.12C156.049 614.041 156.18 613.927 156.278 613.787L183.494 629.765V662.729L156.278 678.706C156.182 678.563 156.052 678.446 155.899 678.366C155.747 678.285 155.577 678.242 155.405 678.242C155.232 678.242 155.063 678.285 154.91 678.366C154.758 678.446 154.628 678.563 154.531 678.706L145.977 673.797L127.241 662.804L127.301 629.765ZM99.0763 613.019V581.155C99.3438 581.121 99.5898 580.991 99.7675 580.788C99.9452 580.586 100.042 580.325 100.04 580.055C100.066 579.911 100.066 579.763 100.04 579.619L126.367 564.153C126.467 564.293 126.598 564.408 126.749 564.489C126.901 564.57 127.069 564.615 127.241 564.62C127.413 564.617 127.582 564.573 127.734 564.492C127.886 564.411 128.016 564.295 128.114 564.153L136.609 569.138L155.345 580.131V612.086C155.076 612.119 154.828 612.248 154.648 612.451C154.468 612.653 154.367 612.914 154.366 613.185C154.365 613.335 154.396 613.484 154.456 613.622L145.977 618.591L127.241 629.584L99.0763 613.019ZM-42.2872 762.449L-32.8891 768.006L-15.0417 778.472C-15.1018 778.609 -15.1325 778.758 -15.1321 778.908C-15.1273 779.178 -15.0259 779.438 -14.8463 779.639C-14.6667 779.841 -14.4208 779.972 -14.1531 780.008V811.963L-42.2872 828.377L-69.3972 812.414C-69.3676 812.27 -69.3676 812.122 -69.3972 811.978C-69.3989 811.707 -69.4992 811.446 -69.6794 811.243C-69.8595 811.041 -70.1073 810.911 -70.3762 810.878V778.923L-42.2872 762.449ZM-32.7686 723.732L-14.0477 712.739L14.0564 729.304V762.268L-13.144 778.17C-13.2428 778.031 -13.3738 777.917 -13.5258 777.838C-13.6778 777.76 -13.8464 777.719 -14.0176 777.719C-14.1864 777.72 -14.3525 777.761 -14.5019 777.84C-14.6512 777.919 -14.7796 778.032 -14.876 778.17L-23.3856 773.186L-42.1065 762.193V730.253C-41.8364 730.219 -41.5883 730.087 -41.4102 729.881C-41.2322 729.675 -41.1368 729.411 -41.1426 729.139C-41.1434 728.988 -41.1741 728.84 -41.233 728.702L-32.7686 723.732ZM-71.5058 679.007C-71.5664 679.163 -71.5911 679.331 -71.5782 679.497C-71.5653 679.664 -71.515 679.826 -71.4311 679.97C-71.3472 680.115 -71.2319 680.239 -71.0936 680.333C-70.9553 680.427 -70.7976 680.489 -70.6322 680.513V712.453L-98.7212 729.018L-125.937 713.056C-125.875 712.913 -125.844 712.759 -125.846 712.604C-125.848 712.333 -125.948 712.072 -126.128 711.87C-126.309 711.667 -126.556 711.538 -126.825 711.505V679.535L-98.7212 663.045L-71.5058 679.007ZM-42.2872 663.045L-32.8891 668.617L-15.0417 679.083C-15.1018 679.221 -15.1325 679.369 -15.1321 679.519C-15.1309 679.792 -15.0311 680.055 -14.8512 680.26C-14.6713 680.465 -14.4233 680.597 -14.1531 680.634V712.574L-23.5211 718.07L-41.3836 728.612C-41.4824 728.472 -41.6133 728.358 -41.7653 728.279C-41.9173 728.201 -42.086 728.16 -42.2571 728.16C-42.4259 728.161 -42.592 728.202 -42.7414 728.281C-42.8908 728.36 -43.0191 728.473 -43.1156 728.612L-70.3461 712.499V680.559C-70.0759 680.522 -69.8279 680.389 -69.648 680.185C-69.4681 679.98 -69.3683 679.717 -69.3671 679.444C-69.3544 679.298 -69.3646 679.151 -69.3972 679.007L-42.2872 663.045ZM13.1677 629.313C13.1059 629.45 13.075 629.599 13.0774 629.75C13.079 630.021 13.1793 630.282 13.3595 630.484C13.5397 630.686 13.7874 630.816 14.0564 630.849V662.804L-13.144 678.782C-13.2402 678.638 -13.3702 678.521 -13.5225 678.439C-13.6749 678.358 -13.8448 678.315 -14.0176 678.315C-14.1882 678.315 -14.3562 678.358 -14.5061 678.439C-14.656 678.521 -14.7832 678.638 -14.876 678.782L-23.3856 673.797L-42.1065 662.804V630.849C-41.839 630.816 -41.593 630.685 -41.4153 630.483C-41.2376 630.28 -41.1405 630.019 -41.1426 629.75C-41.1403 629.599 -41.1711 629.45 -41.233 629.313L-14.0176 613.351L13.1677 629.313ZM42.4315 613.351L51.8296 618.922L69.662 629.388C69.6378 629.533 69.6378 629.68 69.662 629.825C69.6636 630.096 69.7639 630.357 69.9441 630.559C70.1243 630.762 70.372 630.891 70.6409 630.924V662.879L43.3351 678.782C43.2347 678.639 43.1017 678.522 42.9472 678.441C42.7927 678.36 42.6211 678.316 42.4465 678.315C42.2769 678.32 42.1108 678.365 41.9617 678.446C41.8126 678.527 41.6846 678.642 41.5881 678.782L14.3576 662.804V630.849C14.6265 630.816 14.8742 630.686 15.0544 630.484C15.2346 630.282 15.3349 630.021 15.3365 629.75C15.3389 629.599 15.308 629.45 15.2462 629.313L42.4315 613.351ZM42.567 580.131L51.935 574.634L70.6711 563.641L97.8865 579.619C97.8611 579.763 97.8611 579.911 97.8865 580.055C97.8844 580.325 97.9814 580.586 98.1591 580.788C98.3369 580.991 98.5829 581.121 98.8504 581.155V613.095L71.5747 629.072C71.4727 628.932 71.339 628.818 71.1846 628.74C71.0302 628.661 70.8593 628.62 70.6861 628.62C70.5175 628.623 70.3519 628.665 70.2027 628.743C70.0535 628.822 69.925 628.934 69.8276 629.072L61.3332 624.088L42.5972 613.095L42.567 580.131ZM14.0564 530.436V562.376C13.7874 562.409 13.5397 562.539 13.3595 562.741C13.1793 562.944 13.079 563.205 13.0774 563.475C13.0752 563.631 13.106 563.785 13.1677 563.927L-14.0477 579.89L-41.233 563.927C-41.1724 563.771 -41.1476 563.604 -41.1605 563.437C-41.1735 563.271 -41.2237 563.109 -41.3076 562.964C-41.3915 562.82 -41.5069 562.696 -41.6452 562.602C-41.7835 562.508 -41.9411 562.446 -42.1065 562.421V530.436L-14.876 514.459C-14.7796 514.597 -14.6512 514.711 -14.5019 514.789C-14.3525 514.868 -14.1864 514.909 -14.0176 514.91C-13.8464 514.91 -13.6778 514.87 -13.5258 514.791C-13.3738 514.712 -13.2428 514.598 -13.144 514.459L14.0564 530.436ZM42.4315 513.947L51.7995 519.443L69.6318 529.909C69.609 530.054 69.609 530.201 69.6318 530.346C69.6302 530.618 69.7293 530.88 69.9101 531.083C70.0909 531.286 70.3405 531.415 70.6108 531.445V563.4L61.2428 568.897L42.5068 579.89L15.2462 563.927C15.3068 563.77 15.3312 563.602 15.3174 563.434C15.3036 563.266 15.252 563.104 15.1665 562.959C15.081 562.814 14.9638 562.691 14.8237 562.597C14.6836 562.504 14.5243 562.444 14.3576 562.421V530.436L42.4315 513.947ZM42.567 480.727L51.935 475.245L70.6711 464.252L97.8865 480.215C97.8636 480.359 97.8636 480.507 97.8865 480.651C97.8844 480.921 97.9814 481.182 98.1591 481.384C98.3369 481.587 98.5829 481.717 98.8504 481.751V513.706L71.5747 529.683C71.4734 529.541 71.3403 529.425 71.1859 529.344C71.0316 529.263 70.8604 529.219 70.6861 529.216C70.5164 529.222 70.3504 529.267 70.2013 529.348C70.0522 529.429 69.9242 529.544 69.8276 529.683L61.3332 524.684L42.5972 513.706L42.567 480.727ZM15.2462 464.523C15.3062 464.386 15.337 464.237 15.3365 464.087C15.3386 463.813 15.2399 463.548 15.0594 463.343C14.8789 463.137 14.6291 463.005 14.3576 462.972V431.032L42.4616 414.467L69.662 430.43C69.6391 430.575 69.6391 430.722 69.662 430.867C69.6599 431.14 69.7586 431.405 69.9391 431.61C70.1196 431.816 70.3694 431.948 70.6409 431.981V463.921L61.2729 469.417L42.5369 480.41L15.2462 464.523ZM-14.0326 415.507C-13.8615 415.507 -13.6928 415.466 -13.5408 415.387C-13.3888 415.308 -13.2579 415.194 -13.1591 415.055L-4.63448 420.039L14.1015 431.032V462.987C13.834 463.021 13.588 463.151 13.4103 463.354C13.2326 463.556 13.1356 463.817 13.1376 464.087C13.1355 464.232 13.1664 464.376 13.228 464.508L-13.1289 479.974C-13.2278 479.834 -13.3587 479.72 -13.5107 479.641C-13.6627 479.563 -13.8314 479.522 -14.0025 479.522C-14.1713 479.523 -14.3374 479.565 -14.4868 479.643C-14.6362 479.722 -14.7645 479.835 -14.861 479.974L-42.1216 463.996V431.032L-14.8911 415.055C-14.7946 415.193 -14.6663 415.307 -14.5169 415.385C-14.3675 415.464 -14.2014 415.505 -14.0326 415.507ZM-13.882 381.338L-4.51398 375.841L14.207 364.848L41.4224 380.811C41.3623 380.949 41.3315 381.097 41.332 381.247C41.3336 381.518 41.434 381.779 41.6141 381.982C41.7943 382.184 42.042 382.314 42.311 382.347V414.302L14.207 430.791L4.83894 425.295L-13.0085 414.829C-12.9479 414.673 -12.9231 414.506 -12.936 414.339C-12.949 414.172 -12.9992 414.011 -13.0831 413.866C-13.167 413.721 -13.2824 413.597 -13.4207 413.503C-13.559 413.409 -13.7166 413.348 -13.882 413.323V381.338ZM-42.4077 331.643V363.598C-42.6752 363.632 -42.9212 363.762 -43.0989 363.965C-43.2767 364.167 -43.3737 364.428 -43.3716 364.698C-43.3721 364.848 -43.3413 364.997 -43.2813 365.134L-70.4967 381.082L-98.6007 364.607V332.652C-98.3318 332.619 -98.0841 332.49 -97.9039 332.287C-97.7237 332.085 -97.6234 331.824 -97.6217 331.553C-97.6194 331.403 -97.6503 331.254 -97.7121 331.116L-70.4967 315.139L-42.4077 331.643ZM-14.0326 316.133C-13.8604 316.13 -13.6913 316.086 -13.5394 316.005C-13.3875 315.924 -13.2571 315.807 -13.1591 315.666L-4.63448 320.635L14.1015 331.628V364.607L4.73354 370.104L-14.0025 381.082L-41.233 365.119C-41.18 364.979 -41.1495 364.832 -41.1426 364.683C-41.1443 364.412 -41.2445 364.151 -41.4247 363.948C-41.6049 363.746 -41.8526 363.616 -42.1216 363.583V331.628L-14.8911 315.651C-14.7954 315.791 -14.6676 315.907 -14.5183 315.988C-14.369 316.069 -14.2025 316.114 -14.0326 316.118V316.133ZM41.4224 281.422C41.3623 281.56 41.3315 281.708 41.332 281.859C41.3332 282.131 41.433 282.394 41.6129 282.599C41.7928 282.804 42.0408 282.937 42.311 282.973V314.913L14.207 331.387L4.83894 325.891L-13.0085 315.35C-12.9479 315.194 -12.9231 315.026 -12.936 314.86C-12.949 314.693 -12.9992 314.531 -13.0831 314.387C-13.167 314.242 -13.2824 314.118 -13.4207 314.024C-13.559 313.93 -13.7166 313.869 -13.882 313.844V281.934L14.207 265.444L41.4224 281.422ZM70.6711 265.444L80.024 270.941L97.8714 281.482C97.8486 281.627 97.8486 281.774 97.8714 281.919C97.8721 282.189 97.9697 282.45 98.1466 282.655C98.3235 282.859 98.5678 282.994 98.8353 283.033V314.973L71.5596 330.875C71.4631 330.733 71.333 330.616 71.1807 330.535C71.0284 330.454 70.8586 330.411 70.6861 330.411C70.5137 330.411 70.3438 330.454 70.1915 330.535C70.0392 330.616 69.9091 330.733 69.8126 330.875L42.5821 314.898V282.958C42.8523 282.922 43.1002 282.789 43.2802 282.584C43.4601 282.379 43.5599 282.116 43.5611 281.844C43.5615 281.693 43.5308 281.545 43.4707 281.407L70.6711 265.444ZM71.6952 231.712L80.1746 226.743L98.8955 215.75L127 232.239V264.179C126.732 264.213 126.486 264.343 126.308 264.546C126.131 264.748 126.034 265.009 126.036 265.279C126.003 265.422 126.003 265.572 126.036 265.715L99.6938 281.181C99.599 281.038 99.4703 280.921 99.3192 280.84C99.1681 280.759 98.9993 280.716 98.8278 280.716C98.6563 280.716 98.4875 280.759 98.3364 280.84C98.1853 280.921 98.0566 281.038 97.9618 281.181L89.4673 276.196L70.7313 265.203V233.263C71.0002 233.224 71.2464 233.09 71.4258 232.886C71.6051 232.682 71.706 232.421 71.7103 232.149C71.7329 232.004 71.7329 231.857 71.7103 231.712H71.6952ZM42.311 182.53V215.494L15.0805 231.487C14.9839 231.344 14.8538 231.227 14.7015 231.146C14.5492 231.065 14.3794 231.023 14.207 231.023C14.0345 231.023 13.8647 231.065 13.7124 231.146C13.5601 231.227 13.43 231.344 13.3334 231.487L-13.882 215.494V183.554C-13.6145 183.521 -13.3685 183.39 -13.1908 183.188C-13.0131 182.985 -12.916 182.724 -12.9181 182.455C-12.9158 182.304 -12.9466 182.155 -13.0085 182.018L14.207 166.056L42.311 182.53ZM70.6711 167.019C70.8435 167.018 71.013 166.974 71.1651 166.893C71.3172 166.812 71.4474 166.695 71.5446 166.552L80.024 171.537L98.76 182.53V215.494L89.392 221.005L71.5446 231.547C71.448 231.404 71.3179 231.287 71.1656 231.206C71.0133 231.125 70.8435 231.083 70.6711 231.083C70.4986 231.083 70.3288 231.125 70.1765 231.206C70.0242 231.287 69.8941 231.404 69.7975 231.547L42.5821 215.494V182.53L69.8126 166.552C69.9082 166.693 70.036 166.808 70.1853 166.89C70.3346 166.971 70.5011 167.015 70.6711 167.019ZM98.8955 117.325C99.0667 117.325 99.2353 117.284 99.3873 117.205C99.5394 117.127 99.6703 117.013 99.7691 116.873L108.264 121.858L127 132.851V164.791C126.731 164.827 126.485 164.961 126.307 165.166C126.13 165.371 126.033 165.634 126.036 165.905C126.006 166.049 126.006 166.198 126.036 166.342L98.8203 182.304L89.4673 176.808L71.6199 166.266C71.6729 166.126 71.7034 165.979 71.7103 165.83C71.7091 165.557 71.6093 165.294 71.4294 165.089C71.2494 164.884 71.0015 164.752 70.7313 164.715V132.836L97.9618 116.858C98.0676 117.009 98.2106 117.129 98.3769 117.209C98.5431 117.288 98.7269 117.323 98.9106 117.31L98.8955 117.325ZM99.0462 83.1411L108.414 77.6446L127.135 66.6667L154.351 82.6291C154.29 82.7669 154.26 82.9156 154.26 83.0658C154.262 83.3367 154.362 83.5978 154.542 83.8001C154.722 84.0024 154.97 84.1322 155.239 84.1651V116.105L127.135 132.67L117.767 127.173L99.9348 116.632C99.9575 116.482 99.9575 116.33 99.9348 116.18C99.9368 115.911 99.8398 115.65 99.6621 115.447C99.4844 115.245 99.2384 115.114 98.9709 115.081L99.0462 83.1411ZM98.8955 17.9209C99.0667 17.921 99.2353 17.88 99.3873 17.8014C99.5394 17.7228 99.6703 17.6089 99.7691 17.4692L127.015 33.4316V66.3956L117.647 71.8921L98.9106 82.8249L71.7103 66.8624C71.7633 66.7225 71.7938 66.5751 71.8006 66.4257C71.799 66.1548 71.6987 65.8938 71.5185 65.6915C71.3383 65.4891 71.0906 65.3594 70.8216 65.3264V33.4316L98.0521 17.4541C98.1495 17.5918 98.278 17.7044 98.4272 17.7829C98.5764 17.8615 98.742 17.9036 98.9106 17.9059L98.8955 17.9209Z" fill="white"/>
</g>
</svg>
