<svg width="310" height="311" viewBox="0 0 310 311" fill="none" xmlns="http://www.w3.org/2000/svg">
<g opacity="0.3">
<g opacity="0.1">
<path opacity="0.3" d="M194.317 202.814L167.132 218.761L139.932 202.814V170.889L167.132 154.941L194.317 170.889V202.814Z" fill="white"/>
<path opacity="0.6" d="M165.746 152.503L138.546 168.466L111.346 152.503V120.593L138.546 104.631L165.746 120.593V152.503Z" fill="white"/>
<path opacity="0.3" d="M194.317 102.191L167.132 118.153L139.932 102.191V70.2808L167.132 54.3184L194.317 70.2808V102.191Z" fill="white"/>
<path opacity="0.1" d="M222.903 253.111L195.703 269.073L168.518 253.111V221.201L195.703 205.238L222.903 221.201V253.111Z" fill="white"/>
<path opacity="0.3" d="M280.061 253.111L252.876 269.073L225.676 253.111V221.201L252.876 205.238L280.061 221.201V253.111Z" fill="white"/>
<path opacity="0.6" d="M251.489 202.814L224.288 218.761L197.088 202.814V170.889L224.288 154.941L251.489 170.889V202.814Z" fill="white"/>
<path opacity="0.6" d="M251.489 303.423L224.288 319.37L197.088 303.423V271.498L224.288 255.551L251.489 271.498V303.423Z" fill="white"/>
<path opacity="0.3" d="M194.317 303.423L167.132 319.37L139.932 303.423V271.498L167.132 255.551L194.317 271.498V303.423Z" fill="white"/>
<path opacity="0.6" d="M137.16 303.423L109.96 319.37L82.7598 303.423V271.498L109.96 255.551L137.16 271.498V303.423Z" fill="white"/>
<path opacity="0.1" d="M280.061 152.503L252.876 168.451L225.676 152.503V120.578L252.876 104.631L280.061 120.578V152.503Z" fill="white"/>
<path opacity="0.1" d="M165.746 353.721L138.546 369.683L111.346 353.721V321.811L138.546 305.863L165.746 321.811V353.721Z" fill="white"/>
<path opacity="0.1" d="M222.903 51.8938L195.703 67.8412L168.518 51.8938V19.9689L195.703 4.02148L222.903 19.9689V51.8938Z" fill="white"/>
<path opacity="0.6" d="M251.489 102.191L224.288 118.153L197.088 102.191V70.2808L224.288 54.3184L251.489 70.2808V102.191Z" fill="white"/>
<path opacity="0.1" d="M280.061 353.721L252.876 369.683L225.676 353.721V321.811L252.876 305.863L280.061 321.811V353.721Z" fill="white"/>
</g>
<path d="M198.672 0H198.597L170.297 16.5648V49.9956L198.476 66.5604V99.5395L170.237 116.104V149.234L142.133 165.799L113.893 149.234L85.5781 165.799V199.094L113.878 215.659H113.953L142.118 199.094L170.222 215.568V248.547L142.208 265.112L113.968 248.547L85.6534 265.112V298.242L57.5042 314.822L29.2647 298.257L0.964844 314.822V348.117L29.2797 364.682L57.4591 348.117L85.548 364.682V397.646L57.3084 414.211V447.506L85.6083 464.071L113.923 447.506V414.376L142.148 397.811V364.607L113.983 348.042V315.063L142.072 298.498L170.312 315.063L198.612 298.498V265.368L226.701 248.879L254.805 265.368V298.332L226.565 314.897V348.192L254.729 364.757V397.887H254.805L283.105 414.452H283.18L311.48 397.887V364.607H311.404L283.24 348.042V315.063L311.344 298.498L339.584 315.063L367.899 298.498V265.203H367.823L339.523 248.638H339.448L311.284 265.203L283.18 248.728V215.749L311.63 199.184L339.87 215.749L368.185 199.184V166.055L396.274 149.49L424.513 166.055L452.813 149.49V116.104H452.738L424.589 99.3889H424.513L396.349 115.954L368.245 99.5395V66.5604L396.469 49.9956V16.7003L368.155 0.135531L339.84 16.7003V49.83L311.615 66.3948V99.69L339.779 116.255V149.234L311.691 165.799L283.451 149.234H283.376L255.076 165.799V198.928L226.972 215.403L198.823 198.943V165.964L227.062 149.4V116.27L255.302 99.7051V66.3948L227.137 49.83V16.7003L198.672 0ZM368.079 66.2592L358.711 60.7627L339.99 49.7697V16.866L368.079 0.30118L396.183 16.866V49.83L368.079 66.2592ZM367.944 99.4792L358.576 104.961L339.87 115.954L311.766 99.5395V66.5604L339.87 50.086L349.283 55.5825L368.004 66.5604L367.944 99.4792ZM396.454 149.174V116.27L424.558 99.7051L452.647 116.27V149.234L424.558 165.799L396.454 149.174ZM368.079 165.738L358.711 160.242L339.99 149.249V116.27L349.358 110.773L368.079 99.7804L396.183 116.345V149.234L368.079 165.738ZM311.751 198.958V165.979L339.855 149.415L349.223 154.911L367.944 165.904V198.883L339.855 215.358L311.751 198.958ZM283.376 215.433L273.978 209.921L255.257 198.943V165.964L283.346 149.4L311.45 165.964V198.943L283.376 215.433ZM311.751 298.347V265.368L339.855 248.879L367.944 265.368V298.332L339.855 314.822L311.751 298.347ZM255.302 364.772L264.655 359.276L283.391 348.283L311.495 364.848V397.811L283.391 414.301L255.302 397.736V364.772ZM255.151 298.513L264.519 304.009L283.255 315.002V347.981L273.887 353.463L255.151 364.456L227.062 347.981V315.002L255.151 298.513ZM255.302 265.308L264.655 259.812L283.391 248.819L311.495 265.308V298.272L283.391 314.762L273.978 309.325L255.257 298.332L255.302 265.308ZM227.062 248.578V215.599L255.151 199.124L264.519 204.621L283.255 215.599V248.578L273.887 254.074L255.151 265.052L227.062 248.578ZM85.7137 397.977L95.0817 403.474L113.818 414.467V447.431L85.7137 463.92L57.6398 447.431V414.467L85.7137 397.977ZM85.8643 364.848L95.2323 359.351L113.953 348.358L142.057 364.923V397.887L113.968 414.211L104.6 408.729L85.8794 397.736L85.8643 364.848ZM57.3386 315.153V348.132L29.2496 364.607L1.14558 348.132V315.153L29.2496 298.588L57.3386 315.153ZM85.7137 298.588L95.0817 304.085L113.818 315.078V348.057L104.45 353.538L85.7137 364.516L57.6398 348.042V315.063L85.7137 298.588ZM142.057 265.383V298.347L113.968 314.822L104.6 309.325L85.8794 298.332V265.368L113.968 248.879L142.057 265.383ZM170.432 248.894L179.8 254.39L198.536 265.383V298.347L170.447 314.822L142.343 298.332V265.368L170.432 248.894ZM170.568 215.674L179.936 210.192L198.672 199.184L226.761 215.659V248.638L198.672 265.112L189.304 259.631L170.568 248.638V215.674ZM142.057 165.979V198.958L113.968 215.418L85.8794 198.943V165.964L113.968 149.4L142.057 165.979ZM170.432 149.415L179.8 154.911L198.536 165.904V198.883L189.168 204.365L170.432 215.358L142.343 198.943V165.964L170.432 149.415ZM198.672 99.7202L208.025 105.217L226.761 116.21V149.234L198.672 165.723L189.304 160.227L170.568 149.234V116.27L198.672 99.7202ZM198.808 66.5002L208.176 61.0187L226.896 50.0257L255.001 66.5002V99.4792L226.912 115.954L217.559 110.472L198.823 99.5395L198.808 66.5002ZM198.672 0.376473L226.761 16.9413V49.83L217.393 55.3265L198.672 66.2592L170.568 49.6944V16.866L198.672 0.376473Z" fill="white"/>
<path d="M226.911 15.6621C226.618 15.6661 226.338 15.7852 226.132 15.9938C225.926 16.2023 225.811 16.4835 225.811 16.7765C225.787 16.9261 225.787 17.0786 225.811 17.2282L198.551 33.266V65.3867C198.282 65.4196 198.034 65.5494 197.854 65.7517C197.674 65.954 197.573 66.2151 197.572 66.486C197.572 66.7829 197.688 67.0679 197.897 67.2793C198.106 67.4907 198.389 67.6114 198.686 67.6154C198.859 67.6138 199.028 67.5705 199.18 67.4892C199.332 67.4079 199.462 67.291 199.56 67.1485L226.775 83.1261V115.081C226.508 115.114 226.262 115.245 226.084 115.447C225.906 115.65 225.809 115.911 225.811 116.18C225.788 116.33 225.788 116.482 225.811 116.632L198.551 132.67V164.776C198.279 164.809 198.029 164.941 197.849 165.146C197.668 165.352 197.57 165.616 197.572 165.89C197.571 166.04 197.602 166.189 197.662 166.327L170.447 182.289L142.207 165.724L114.841 181.777C114.742 181.637 114.611 181.523 114.459 181.445C114.307 181.366 114.139 181.325 113.967 181.325C113.672 181.307 113.381 181.407 113.159 181.604C112.938 181.8 112.803 182.076 112.785 182.372C112.767 182.667 112.867 182.958 113.064 183.18C113.26 183.401 113.536 183.536 113.832 183.554V215.66L141.107 231.667C141.047 231.805 141.017 231.954 141.017 232.104C141.017 232.4 141.135 232.683 141.344 232.892C141.553 233.101 141.836 233.218 142.132 233.218C142.427 233.218 142.711 233.101 142.92 232.892C143.129 232.683 143.246 232.4 143.246 232.104C143.247 231.954 143.216 231.805 143.156 231.667L170.371 215.705L197.572 231.667C197.549 231.812 197.549 231.959 197.572 232.104C197.573 232.377 197.673 232.639 197.852 232.844C198.032 233.049 198.28 233.182 198.551 233.218V265.158L171.32 281.181C171.22 281.041 171.09 280.926 170.938 280.845C170.786 280.764 170.618 280.719 170.447 280.714C170.274 280.717 170.105 280.761 169.953 280.842C169.801 280.923 169.671 281.039 169.573 281.181L142.207 265.113L113.892 281.678V313.784C113.623 313.816 113.375 313.946 113.195 314.149C113.015 314.351 112.915 314.612 112.913 314.883C112.918 315.037 112.949 315.19 113.003 315.335L85.7128 331.387L57.4882 314.823L30.1373 330.875C30.0367 330.737 29.9055 330.625 29.7538 330.546C29.6022 330.468 29.4344 330.426 29.2637 330.424C29.1161 330.424 28.9699 330.453 28.8337 330.51C28.6975 330.567 28.574 330.65 28.4703 330.755C28.3666 330.86 28.2848 330.985 28.2297 331.122C28.1746 331.259 28.1472 331.405 28.1492 331.553C28.1509 331.824 28.2512 332.085 28.4313 332.287C28.6115 332.49 28.8592 332.619 29.1282 332.652V364.773L57.4431 381.338L84.7488 365.315C84.8459 365.455 84.9754 365.569 85.1262 365.648C85.277 365.727 85.4447 365.768 85.6149 365.768C85.785 365.768 85.9527 365.727 86.1035 365.648C86.2543 365.569 86.3838 365.455 86.4809 365.315L113.711 381.293V413.233C113.442 413.266 113.195 413.395 113.015 413.598C112.834 413.8 112.734 414.061 112.732 414.332C112.738 414.486 112.768 414.639 112.823 414.784L85.5923 430.867V464.162L112.868 480.169C112.815 480.309 112.784 480.457 112.778 480.606C112.778 480.902 112.895 481.185 113.104 481.394C113.313 481.603 113.596 481.721 113.892 481.721C114.188 481.721 114.471 481.603 114.68 481.394C114.889 481.185 115.007 480.902 115.007 480.606C115.007 480.456 114.976 480.307 114.916 480.169L141.258 464.719C141.362 464.857 141.496 464.97 141.65 465.048C141.804 465.127 141.974 465.168 142.147 465.171C142.319 465.169 142.489 465.126 142.641 465.045C142.793 464.963 142.923 464.846 143.02 464.704L170.251 480.682V513.661L142.222 530.195L115.007 514.218C115.068 514.081 115.099 513.931 115.097 513.781C115.097 513.485 114.98 513.202 114.771 512.993C114.562 512.784 114.278 512.667 113.982 512.667C113.687 512.667 113.403 512.784 113.194 512.993C112.985 513.202 112.868 513.485 112.868 513.781C112.866 513.931 112.896 514.081 112.958 514.218L85.6073 530.271V562.376C85.3398 562.409 85.0938 562.54 84.9161 562.742C84.7384 562.945 84.6414 563.206 84.6434 563.475C84.6394 563.772 84.7524 564.059 84.9582 564.273C85.164 564.487 85.4459 564.612 85.7429 564.62C85.9153 564.618 86.0849 564.575 86.237 564.494C86.3891 564.412 86.5193 564.296 86.6164 564.153L113.982 580.206L141.273 564.183C141.37 564.326 141.5 564.443 141.652 564.524C141.804 564.605 141.974 564.647 142.147 564.647C142.319 564.647 142.489 564.605 142.641 564.524C142.794 564.443 142.924 564.326 143.02 564.183L170.251 580.161V613.125L143.096 629.072C142.997 628.932 142.866 628.818 142.714 628.739C142.562 628.661 142.393 628.62 142.222 628.62C142.051 628.62 141.882 628.661 141.73 628.739C141.578 628.818 141.447 628.932 141.348 629.072L113.982 613.019L86.6164 629.072C86.5185 628.931 86.3878 628.817 86.2356 628.738C86.0834 628.659 85.9142 628.619 85.7429 628.62C85.4473 628.602 85.1567 628.703 84.9349 628.899C84.7132 629.095 84.5786 629.371 84.5606 629.667C84.5426 629.962 84.6428 630.253 84.8391 630.475C85.0354 630.696 85.3117 630.831 85.6073 630.849V662.804L58.3768 678.782C58.2806 678.638 58.1506 678.521 57.9983 678.439C57.846 678.358 57.676 678.315 57.5033 678.315C57.3336 678.32 57.1676 678.365 57.0185 678.446C56.8694 678.527 56.7414 678.642 56.6448 678.782L29.2788 662.714L0.978974 679.279V711.384C0.708768 711.421 0.460823 711.553 0.280896 711.758C0.10097 711.963 0.00120122 712.226 0 712.499C0.00390077 712.797 0.124163 713.082 0.335161 713.293C0.546159 713.504 0.831212 713.624 1.12958 713.628C1.2985 713.619 1.46334 713.573 1.61193 713.492C1.76051 713.411 1.88906 713.298 1.98807 713.161L29.3541 729.229H29.4294L57.5937 712.664L84.794 728.627C84.746 728.772 84.7206 728.925 84.7187 729.078C84.7167 729.348 84.8137 729.609 84.9914 729.811C85.1691 730.014 85.4151 730.144 85.6826 730.178V762.118L57.4431 778.682V810.788C57.1475 810.808 56.8719 810.945 56.677 811.168C56.4821 811.391 56.3839 811.682 56.4038 811.978C56.4238 812.273 56.5604 812.549 56.7835 812.744C57.0067 812.938 57.2981 813.037 57.5937 813.017C57.7625 813.016 57.9286 812.974 58.078 812.895C58.2274 812.817 58.3557 812.703 58.4522 812.565L85.7128 828.708H85.7881L114.103 812.143V779.947C114.37 779.914 114.616 779.784 114.794 779.581C114.972 779.379 115.069 779.118 115.067 778.848C115.069 778.698 115.038 778.549 114.976 778.411L142.327 762.359V729.063L114.163 712.499V680.559C114.431 680.519 114.675 680.385 114.852 680.18C115.029 679.976 115.126 679.715 115.127 679.444C115.128 679.294 115.097 679.145 115.037 679.007L142.252 663.045L169.468 679.007C169.408 679.176 169.389 679.356 169.413 679.533C169.436 679.71 169.501 679.879 169.603 680.026C169.704 680.173 169.839 680.293 169.996 680.378C170.153 680.463 170.328 680.509 170.507 680.513C170.653 680.511 170.798 680.481 170.932 680.423C171.067 680.365 171.188 680.281 171.29 680.176C171.393 680.071 171.473 679.948 171.527 679.812C171.581 679.676 171.608 679.53 171.606 679.384C171.607 679.234 171.576 679.085 171.516 678.947L198.867 662.894V630.849C199.136 630.816 199.384 630.686 199.564 630.484C199.744 630.282 199.844 630.021 199.846 629.75C199.841 629.6 199.81 629.452 199.755 629.313L226.956 613.351L255.06 629.84V662.804L227.829 678.782C227.733 678.638 227.603 678.521 227.451 678.439C227.299 678.358 227.129 678.315 226.956 678.315C226.676 678.326 226.41 678.44 226.209 678.636C226.009 678.832 225.888 679.095 225.871 679.375C225.855 679.655 225.942 679.931 226.118 680.15C226.293 680.368 226.543 680.514 226.82 680.559V712.499L198.596 729.063V761.184C198.412 761.203 198.236 761.268 198.083 761.373C197.93 761.478 197.806 761.619 197.722 761.783C197.637 761.948 197.595 762.131 197.599 762.316C197.603 762.5 197.653 762.681 197.744 762.842C197.836 763.003 197.965 763.139 198.122 763.237C198.279 763.335 198.458 763.393 198.642 763.404C198.827 763.416 199.012 763.382 199.18 763.304C199.348 763.227 199.494 763.109 199.605 762.961L226.82 778.938V812.068L254.096 828.076C254.038 828.214 254.012 828.363 254.021 828.512C254.019 828.659 254.045 828.804 254.1 828.94C254.154 829.076 254.234 829.2 254.336 829.305C254.438 829.41 254.56 829.493 254.695 829.551C254.829 829.609 254.974 829.64 255.12 829.642C255.417 829.638 255.701 829.517 255.909 829.306C256.118 829.094 256.235 828.809 256.235 828.512C256.238 828.362 256.208 828.212 256.144 828.076L283.495 812.023V779.947C283.791 779.929 284.067 779.795 284.263 779.573C284.46 779.351 284.56 779.061 284.542 778.765C284.524 778.47 284.389 778.193 284.168 777.997C283.946 777.801 283.655 777.701 283.36 777.719C283.187 777.72 283.018 777.764 282.866 777.845C282.713 777.926 282.583 778.043 282.486 778.185L255.301 762.208V730.253C255.57 730.22 255.817 730.09 255.998 729.888C256.178 729.686 256.278 729.425 256.28 729.154C256.28 728.999 256.249 728.845 256.189 728.702L283.54 712.664V680.559C283.811 680.522 284.059 680.389 284.238 680.185C284.418 679.98 284.518 679.717 284.519 679.444C284.52 679.294 284.489 679.145 284.429 679.007L311.629 663.045L339.869 679.61L367.175 663.587C367.271 663.726 367.4 663.839 367.549 663.918C367.698 663.996 367.864 664.038 368.033 664.039C368.329 664.057 368.619 663.957 368.841 663.76C369.063 663.564 369.198 663.288 369.215 662.992C369.233 662.697 369.133 662.406 368.937 662.184C368.741 661.963 368.464 661.828 368.169 661.81V629.674L340.893 613.667C340.941 613.526 340.967 613.379 340.968 613.23C340.987 613.074 340.972 612.916 340.924 612.766C340.877 612.616 340.798 612.477 340.694 612.36C340.589 612.242 340.461 612.148 340.318 612.084C340.174 612.02 340.019 611.986 339.861 611.986C339.704 611.986 339.549 612.02 339.405 612.084C339.262 612.148 339.133 612.242 339.029 612.36C338.924 612.477 338.846 612.616 338.798 612.766C338.751 612.916 338.736 613.074 338.754 613.23C338.732 613.375 338.732 613.522 338.754 613.667L311.629 629.584L284.414 613.622C284.474 613.484 284.505 613.335 284.504 613.185C284.503 612.914 284.402 612.653 284.222 612.451C284.042 612.248 283.794 612.119 283.525 612.086V580.131L310.756 564.153C310.854 564.295 310.984 564.411 311.136 564.492C311.288 564.573 311.457 564.617 311.629 564.62C311.801 564.615 311.969 564.57 312.121 564.489C312.272 564.408 312.403 564.293 312.503 564.153L339.869 580.206L368.184 563.641V531.46C368.349 531.435 368.507 531.374 368.645 531.28C368.783 531.186 368.899 531.062 368.983 530.917C369.067 530.773 369.117 530.611 369.13 530.444C369.143 530.278 369.118 530.11 369.057 529.954L396.273 513.992L424.512 530.557H424.588L451.878 514.534C451.977 514.674 452.108 514.788 452.26 514.866C452.412 514.945 452.581 514.986 452.752 514.986C453.048 515.004 453.338 514.904 453.56 514.707C453.782 514.511 453.916 514.235 453.934 513.939C453.952 513.644 453.852 513.353 453.656 513.131C453.459 512.91 453.183 512.775 452.887 512.757V480.561L424.588 463.996H424.512L397.222 480.004C397.123 479.864 396.992 479.75 396.84 479.671C396.688 479.592 396.519 479.551 396.348 479.551C396.177 479.551 396.008 479.592 395.856 479.671C395.704 479.75 395.573 479.864 395.474 480.004L368.259 463.996V432.056C368.527 432.023 368.773 431.893 368.95 431.69C369.128 431.487 369.225 431.226 369.223 430.957C369.223 430.803 369.197 430.651 369.148 430.505L396.484 414.467V381.172L369.208 365.165C369.256 365.024 369.281 364.876 369.283 364.728C369.302 364.572 369.286 364.413 369.239 364.263C369.192 364.113 369.113 363.975 369.009 363.858C368.904 363.74 368.776 363.646 368.633 363.582C368.489 363.517 368.334 363.484 368.176 363.484C368.019 363.484 367.863 363.517 367.72 363.582C367.576 363.646 367.448 363.74 367.344 363.858C367.239 363.975 367.161 364.113 367.113 364.263C367.066 364.413 367.051 364.572 367.069 364.728C367.046 364.873 367.046 365.02 367.069 365.165L340.742 380.615C340.639 380.477 340.505 380.364 340.351 380.286C340.197 380.207 340.027 380.166 339.854 380.163C339.681 380.164 339.511 380.206 339.359 380.288C339.207 380.369 339.077 380.487 338.98 380.63L311.75 364.653V331.674L339.854 315.109L367.054 331.086C367 331.226 366.969 331.373 366.964 331.523C366.964 331.818 367.081 332.102 367.29 332.311C367.499 332.52 367.783 332.637 368.078 332.637C368.374 332.637 368.657 332.52 368.866 332.311C369.075 332.102 369.193 331.818 369.193 331.523C369.217 331.378 369.217 331.231 369.193 331.086L396.529 315.033V282.958C396.798 282.925 397.045 282.795 397.226 282.593C397.406 282.391 397.506 282.129 397.508 281.859C397.51 281.71 397.482 281.563 397.428 281.425C397.373 281.287 397.291 281.162 397.188 281.056C397.084 280.949 396.961 280.864 396.824 280.806C396.688 280.747 396.542 280.716 396.393 280.714C396.221 280.719 396.053 280.764 395.902 280.845C395.75 280.926 395.619 281.041 395.52 281.181L368.108 265.113H368.033L340.727 281.136C340.632 280.995 340.504 280.88 340.355 280.799C340.205 280.717 340.039 280.673 339.869 280.669C339.697 280.672 339.528 280.716 339.376 280.797C339.224 280.878 339.093 280.994 338.995 281.136L311.765 265.158V232.239L338.995 216.262C339.094 216.402 339.225 216.516 339.377 216.594C339.529 216.673 339.698 216.714 339.869 216.714C340.038 216.713 340.204 216.671 340.353 216.592C340.503 216.514 340.631 216.4 340.727 216.262L368.093 232.315L395.384 216.307C395.485 216.445 395.616 216.558 395.768 216.636C395.919 216.715 396.087 216.757 396.258 216.759C396.553 216.777 396.844 216.677 397.066 216.48C397.287 216.284 397.422 216.008 397.44 215.712C397.458 215.417 397.358 215.126 397.161 214.904C396.965 214.683 396.689 214.548 396.393 214.53V182.53L423.624 166.552C423.721 166.695 423.851 166.812 424.003 166.893C424.155 166.974 424.325 167.018 424.497 167.019C424.669 167.014 424.837 166.969 424.989 166.888C425.14 166.807 425.271 166.692 425.371 166.552L452.737 182.62L481.052 166.056V133.86C481.329 133.814 481.58 133.667 481.755 133.447C481.93 133.227 482.016 132.95 481.997 132.669C481.979 132.389 481.856 132.125 481.653 131.93C481.45 131.736 481.182 131.623 480.901 131.616C480.731 131.62 480.565 131.664 480.415 131.745C480.266 131.827 480.138 131.942 480.043 132.083L452.812 115.954H452.737L424.573 132.519L397.357 116.557C397.416 116.413 397.447 116.26 397.447 116.105C397.446 115.834 397.346 115.573 397.165 115.371C396.985 115.169 396.737 115.039 396.469 115.006V83.1411L424.708 66.5763V34.4556C424.854 34.4457 424.997 34.4071 425.129 34.342C425.26 34.2769 425.378 34.1865 425.474 34.076C425.571 33.9655 425.644 33.8371 425.691 33.6982C425.738 33.5592 425.757 33.4123 425.747 33.266C425.737 33.1196 425.699 32.9767 425.634 32.8453C425.569 32.7139 425.478 32.5965 425.368 32.5001C425.257 32.4036 425.129 32.3298 424.99 32.2829C424.851 32.2361 424.704 32.217 424.557 32.2269C424.389 32.2292 424.223 32.2714 424.074 32.3499C423.925 32.4284 423.796 32.541 423.699 32.6787L396.333 16.5656L368.018 33.1305V65.3867C367.748 65.423 367.5 65.5558 367.32 65.7606C367.14 65.9655 367.04 66.2284 367.039 66.501C367.046 66.6456 367.077 66.788 367.13 66.9227L339.718 82.9755V116.271L367.883 132.836V164.776C367.612 164.812 367.364 164.945 367.184 165.15C367.005 165.354 366.905 165.617 366.904 165.89C366.91 166.039 366.941 166.187 366.994 166.327L339.794 182.289L312.578 166.327C312.64 166.184 312.671 166.03 312.669 165.875C312.669 165.728 312.64 165.584 312.584 165.448C312.528 165.313 312.446 165.19 312.342 165.087C312.239 164.983 312.116 164.901 311.981 164.845C311.845 164.789 311.7 164.76 311.554 164.76C311.408 164.76 311.263 164.789 311.128 164.845C310.992 164.901 310.869 164.983 310.766 165.087C310.662 165.19 310.58 165.313 310.524 165.448C310.468 165.584 310.44 165.728 310.44 165.875C310.439 166.025 310.47 166.174 310.53 166.312L283.254 182.364V214.485C282.985 214.518 282.738 214.648 282.557 214.85C282.377 215.052 282.277 215.313 282.275 215.584C282.275 215.735 282.306 215.883 282.366 216.021L255.15 231.983L227.061 215.419V182.53L254.292 166.552C254.385 166.696 254.512 166.813 254.662 166.895C254.812 166.976 254.98 167.019 255.15 167.019C255.447 167.015 255.731 166.895 255.939 166.683C256.148 166.472 256.265 166.187 256.265 165.89C256.267 165.619 256.171 165.356 255.993 165.151C255.816 164.946 255.57 164.812 255.301 164.776V132.836L283.525 116.271V84.1501C283.709 84.1305 283.885 84.0656 284.038 83.961C284.191 83.8564 284.315 83.7154 284.399 83.5509C284.484 83.3864 284.526 83.2034 284.522 83.0185C284.518 82.8336 284.468 82.6525 284.377 82.4917C284.286 82.3309 284.156 82.1953 283.999 82.0972C283.842 81.9991 283.663 81.9416 283.479 81.9298C283.294 81.9181 283.109 81.9524 282.941 82.0298C282.773 82.1072 282.627 82.2252 282.516 82.3731L255.301 66.3956V33.266L227.95 17.2282C227.974 17.0786 227.974 16.9261 227.95 16.7765C227.95 16.4935 227.843 16.2209 227.65 16.014C227.457 15.807 227.193 15.6812 226.911 15.6621ZM396.333 82.8249L386.935 77.3886L369.087 66.8474C369.148 66.7096 369.178 66.5609 369.178 66.4107C369.18 66.1411 369.083 65.8802 368.905 65.6776C368.727 65.4749 368.481 65.3446 368.214 65.3114V33.4316L396.303 16.8668L423.518 32.8443C423.456 32.9815 423.426 33.1306 423.428 33.281C423.43 33.5519 423.53 33.813 423.71 34.0153C423.89 34.2176 424.138 34.3474 424.407 34.3803V66.4107L396.333 82.8249ZM386.829 121.541L368.093 132.534L340.004 115.97V83.1411L367.235 67.1636C367.334 67.3033 367.465 67.4172 367.617 67.4959C367.769 67.5745 367.937 67.6155 368.108 67.6154C368.277 67.6143 368.443 67.5727 368.593 67.4941C368.742 67.4155 368.871 67.3021 368.967 67.1636L377.461 72.1481L396.197 83.1411V115.081C395.927 115.117 395.679 115.25 395.499 115.455C395.319 115.66 395.22 115.923 395.218 116.195C395.225 116.34 395.256 116.482 395.309 116.617L386.829 121.541ZM425.597 166.266C425.658 166.124 425.689 165.97 425.687 165.815C425.685 165.544 425.585 165.283 425.405 165.08C425.225 164.878 424.977 164.748 424.708 164.715V132.836L452.812 116.271L480.012 132.233C479.963 132.379 479.938 132.531 479.937 132.685C479.935 132.954 480.032 133.215 480.21 133.418C480.388 133.621 480.634 133.751 480.901 133.784V165.8L452.812 182.364L425.597 166.266ZM396.333 182.229L386.935 176.793L369.087 166.251C369.148 166.114 369.178 165.965 369.178 165.815C369.18 165.543 369.084 165.281 368.906 165.075C368.729 164.87 368.483 164.737 368.214 164.7V132.836L377.582 127.339L395.429 116.798C395.531 116.938 395.665 117.052 395.819 117.13C395.974 117.209 396.145 117.25 396.318 117.25C396.486 117.245 396.651 117.202 396.8 117.123C396.949 117.045 397.077 116.934 397.176 116.798L424.407 132.775V164.715C424.137 164.752 423.889 164.884 423.709 165.089C423.529 165.294 423.429 165.557 423.428 165.83C423.427 165.98 423.458 166.129 423.518 166.266L396.333 182.229ZM340.893 215.961C340.916 215.816 340.916 215.669 340.893 215.524C340.895 215.255 340.798 214.994 340.62 214.791C340.443 214.588 340.197 214.458 339.929 214.425V182.53L367.16 166.552C367.253 166.696 367.38 166.813 367.53 166.895C367.68 166.976 367.847 167.019 368.018 167.019C368.191 167.019 368.361 166.976 368.513 166.895C368.665 166.813 368.795 166.696 368.892 166.552L377.386 171.537L396.122 182.53V214.485C395.853 214.518 395.605 214.648 395.425 214.85C395.245 215.052 395.145 215.313 395.143 215.584C395.143 215.735 395.173 215.883 395.233 216.021L368.018 231.983L340.893 215.961ZM311.629 231.983L302.261 226.487L284.414 215.946C284.474 215.808 284.505 215.659 284.504 215.509C284.503 215.238 284.402 214.977 284.222 214.775C284.042 214.572 283.794 214.443 283.525 214.41V182.53L310.756 166.552C310.853 166.695 310.983 166.812 311.135 166.893C311.287 166.974 311.457 167.018 311.629 167.019C311.801 167.014 311.969 166.969 312.121 166.888C312.272 166.807 312.403 166.692 312.503 166.552L339.718 182.53V214.485C339.451 214.518 339.205 214.649 339.027 214.851C338.849 215.054 338.752 215.315 338.754 215.584C338.754 215.735 338.785 215.883 338.845 216.021L311.629 231.983ZM311.494 265.203L302.126 270.7L283.39 281.693L256.174 265.715C256.238 265.579 256.269 265.429 256.265 265.279C256.267 265.009 256.17 264.748 255.992 264.546C255.814 264.343 255.568 264.213 255.301 264.179V232.239L282.516 216.262C282.615 216.402 282.746 216.516 282.898 216.595C283.05 216.673 283.219 216.714 283.39 216.714C283.561 216.714 283.73 216.673 283.882 216.595C284.034 216.516 284.165 216.402 284.263 216.262L292.758 221.246L311.494 232.239V265.203ZM255.15 266.408C255.321 266.406 255.489 266.364 255.64 266.285C255.792 266.207 255.923 266.094 256.024 265.956L283.254 281.934V313.889C282.985 313.922 282.738 314.052 282.557 314.254C282.377 314.456 282.277 314.717 282.275 314.988C282.275 315.139 282.306 315.287 282.366 315.425L255.015 331.478V363.583C254.831 363.603 254.655 363.668 254.502 363.772C254.349 363.877 254.225 364.018 254.141 364.183C254.056 364.347 254.014 364.53 254.018 364.715C254.022 364.9 254.072 365.081 254.163 365.242C254.254 365.403 254.384 365.538 254.541 365.636C254.698 365.734 254.877 365.792 255.061 365.804C255.246 365.815 255.431 365.781 255.599 365.704C255.767 365.626 255.913 365.508 256.024 365.36L283.254 381.338V413.278C283.064 413.292 282.881 413.354 282.722 413.459C282.563 413.563 282.432 413.705 282.343 413.873C282.254 414.041 282.208 414.229 282.211 414.419C282.213 414.61 282.264 414.796 282.358 414.962C282.452 415.127 282.586 415.266 282.748 415.366C282.91 415.466 283.095 415.523 283.285 415.532C283.475 415.541 283.664 415.502 283.835 415.419C284.006 415.336 284.154 415.21 284.263 415.055L311.494 431.047V462.987C311.226 463.021 310.98 463.151 310.803 463.354C310.625 463.556 310.528 463.817 310.53 464.087C310.53 464.384 310.647 464.669 310.855 464.88C311.064 465.091 311.347 465.212 311.644 465.216C311.817 465.214 311.986 465.171 312.138 465.09C312.291 465.009 312.421 464.892 312.518 464.749L339.733 480.727V513.706L311.629 530.195L284.414 514.218C284.476 514.081 284.507 513.931 284.504 513.781C284.504 513.635 284.475 513.49 284.419 513.355C284.363 513.219 284.281 513.096 284.178 512.993C284.074 512.89 283.952 512.807 283.816 512.751C283.681 512.695 283.536 512.667 283.39 512.667C283.243 512.667 283.098 512.695 282.963 512.751C282.828 512.807 282.705 512.89 282.602 512.993C282.498 513.096 282.416 513.219 282.36 513.355C282.304 513.49 282.275 513.635 282.275 513.781C282.273 513.931 282.304 514.081 282.366 514.218L255.015 530.271V562.376C254.746 562.413 254.5 562.546 254.322 562.751C254.145 562.956 254.048 563.219 254.051 563.49C254.045 563.64 254.071 563.789 254.126 563.927L227.784 579.378C227.687 579.238 227.558 579.124 227.407 579.045C227.256 578.966 227.088 578.925 226.918 578.925C226.748 578.925 226.58 578.966 226.429 579.045C226.279 579.124 226.149 579.238 226.052 579.378L198.837 563.4V531.445C199.106 531.412 199.353 531.282 199.534 531.08C199.714 530.878 199.814 530.617 199.816 530.346C199.809 530.196 199.778 530.049 199.725 529.909L227.076 513.871V481.751C227.223 481.741 227.366 481.702 227.497 481.637C227.628 481.572 227.746 481.482 227.842 481.371C227.939 481.261 228.013 481.132 228.059 480.993C228.106 480.854 228.125 480.707 228.116 480.561C228.106 480.415 228.067 480.272 228.002 480.14C227.937 480.009 227.846 479.892 227.736 479.795C227.625 479.699 227.497 479.625 227.358 479.578C227.219 479.531 227.072 479.512 226.926 479.522C226.757 479.524 226.591 479.566 226.442 479.645C226.293 479.723 226.165 479.836 226.067 479.974L198.837 463.996V432.056C199.107 432.02 199.355 431.887 199.535 431.682C199.715 431.477 199.814 431.215 199.816 430.942C199.812 430.644 199.692 430.359 199.481 430.148C199.27 429.937 198.984 429.816 198.686 429.812C198.516 429.818 198.35 429.863 198.201 429.944C198.052 430.025 197.924 430.14 197.828 430.279L170.582 414.302V382.347C170.851 382.314 171.099 382.184 171.279 381.982C171.459 381.779 171.559 381.518 171.561 381.247C171.561 380.951 171.444 380.666 171.236 380.454C171.027 380.243 170.743 380.122 170.447 380.118C170.274 380.118 170.104 380.161 169.952 380.243C169.799 380.324 169.669 380.441 169.573 380.585L142.342 364.607V331.628L170.447 315.064L197.647 331.041C197.623 331.186 197.623 331.333 197.647 331.478C197.647 331.773 197.764 332.057 197.973 332.266C198.182 332.475 198.466 332.592 198.761 332.592C199.057 332.592 199.34 332.475 199.549 332.266C199.758 332.057 199.876 331.773 199.876 331.478C199.871 331.328 199.84 331.18 199.786 331.041L227.137 314.988V282.958C227.404 282.918 227.648 282.784 227.825 282.579C228.002 282.375 228.1 282.114 228.1 281.844C228.123 281.699 228.123 281.552 228.1 281.407L254.427 265.956C254.512 266.076 254.619 266.178 254.743 266.255C254.867 266.333 255.006 266.385 255.15 266.408ZM340.004 314.898V282.958C340.272 282.925 340.518 282.794 340.696 282.592C340.873 282.389 340.97 282.128 340.968 281.859C340.993 281.709 340.993 281.556 340.968 281.407L368.184 265.444L395.384 281.407C395.322 281.549 395.292 281.703 395.294 281.859C395.295 282.129 395.396 282.391 395.576 282.593C395.756 282.795 396.004 282.925 396.273 282.958V314.898L369.042 330.875C368.943 330.736 368.813 330.622 368.661 330.543C368.509 330.465 368.34 330.424 368.169 330.424C368 330.425 367.834 330.466 367.684 330.545C367.535 330.624 367.407 330.737 367.31 330.875L340.004 314.898ZM311.629 331.387L302.261 325.891L284.414 315.35C284.474 315.212 284.505 315.063 284.504 314.913C284.506 314.641 284.407 314.378 284.226 314.175C284.045 313.972 283.796 313.843 283.525 313.814V281.934L292.893 276.437L311.629 265.444L338.845 281.407C338.784 281.563 338.759 281.73 338.772 281.897C338.785 282.064 338.836 282.225 338.919 282.37C339.003 282.514 339.119 282.638 339.257 282.732C339.395 282.826 339.553 282.888 339.718 282.913V314.853L311.629 331.387ZM311.494 364.607L302.126 370.104L283.39 381.082L256.174 365.119C256.234 364.982 256.265 364.833 256.265 364.683C256.267 364.413 256.17 364.152 255.992 363.95C255.814 363.747 255.568 363.617 255.301 363.583V331.628L282.516 315.651C282.613 315.794 282.743 315.911 282.895 315.992C283.048 316.072 283.217 316.115 283.39 316.115C283.562 316.115 283.732 316.072 283.884 315.992C284.037 315.911 284.167 315.794 284.263 315.651L292.758 320.635L311.494 331.628V364.607ZM338.845 380.811C338.784 380.967 338.759 381.134 338.772 381.301C338.785 381.467 338.836 381.629 338.919 381.774C339.003 381.918 339.119 382.042 339.257 382.136C339.395 382.23 339.553 382.292 339.718 382.317V414.272L311.629 430.791L284.414 414.829C284.474 414.691 284.505 414.542 284.504 414.392C284.506 414.119 284.408 413.854 284.227 413.648C284.047 413.443 283.797 413.311 283.525 413.278V381.338L292.893 375.841L311.629 364.848L338.845 380.811ZM368.124 429.828C367.952 429.827 367.784 429.868 367.632 429.947C367.48 430.026 367.349 430.14 367.25 430.279L358.756 425.295L340.02 414.302V382.347C340.284 382.31 340.527 382.178 340.701 381.976C340.876 381.774 340.971 381.515 340.968 381.247C340.993 381.108 340.993 380.965 340.968 380.826L367.325 365.36C367.422 365.5 367.552 365.614 367.703 365.693C367.853 365.772 368.021 365.813 368.191 365.813C368.362 365.813 368.529 365.772 368.68 365.693C368.831 365.614 368.96 365.5 369.057 365.36L396.288 381.338V414.302L369.057 430.279C368.953 430.131 368.812 430.012 368.649 429.933C368.486 429.854 368.305 429.817 368.124 429.828ZM367.973 463.996L358.605 469.493L339.884 480.486L312.669 464.523C312.729 464.386 312.759 464.237 312.759 464.087C312.757 463.816 312.657 463.555 312.477 463.352C312.297 463.15 312.049 463.02 311.78 462.987V431.032L339.884 414.467L349.252 419.964L367.084 430.43C367.06 430.579 367.06 430.732 367.084 430.882C367.082 431.151 367.179 431.412 367.357 431.615C367.535 431.817 367.781 431.948 368.048 431.981L367.973 463.996ZM396.484 513.691V481.751C396.753 481.718 397 481.588 397.18 481.386C397.361 481.183 397.461 480.922 397.463 480.651C397.463 480.501 397.432 480.352 397.372 480.215L424.588 464.252L452.692 480.727V512.682C452.423 512.715 452.175 512.844 451.995 513.047C451.815 513.249 451.714 513.51 451.713 513.781C451.71 513.931 451.741 514.081 451.803 514.218L424.588 530.195L396.484 513.691ZM368.124 529.201C367.951 529.204 367.782 529.248 367.63 529.329C367.478 529.41 367.348 529.527 367.25 529.668L358.756 524.669L340.02 513.691V480.712L349.388 475.23L368.124 464.237L395.324 480.2C395.264 480.337 395.233 480.486 395.233 480.636C395.235 480.907 395.335 481.168 395.516 481.371C395.696 481.573 395.944 481.703 396.213 481.736V513.691L368.982 529.668C368.884 529.531 368.755 529.419 368.606 529.341C368.457 529.263 368.292 529.22 368.124 529.216V529.201ZM312.669 563.912C312.729 563.774 312.759 563.626 312.759 563.475C312.758 563.203 312.658 562.94 312.478 562.735C312.298 562.53 312.05 562.397 311.78 562.361V530.436L339.884 513.947L349.252 519.443L367.084 529.909C367.06 530.059 367.06 530.211 367.084 530.361C367.082 530.63 367.179 530.891 367.357 531.094C367.535 531.297 367.781 531.427 368.048 531.46V563.4L339.959 579.89L312.669 563.912ZM283.405 579.875L273.977 574.393L256.129 563.927C256.189 563.789 256.22 563.641 256.22 563.49C256.222 563.217 256.123 562.952 255.942 562.747C255.762 562.541 255.512 562.409 255.241 562.376V530.436L282.471 514.459C282.568 514.602 282.698 514.719 282.85 514.799C283.002 514.88 283.172 514.923 283.345 514.923C283.517 514.923 283.687 514.88 283.839 514.799C283.991 514.719 284.122 514.602 284.218 514.459L311.434 530.436V562.376C311.165 562.413 310.919 562.546 310.741 562.751C310.564 562.956 310.467 563.219 310.47 563.49C310.469 563.641 310.5 563.789 310.56 563.927L283.405 579.875ZM311.78 662.789V629.84L339.01 613.863C339.109 614.002 339.24 614.116 339.392 614.195C339.544 614.273 339.713 614.314 339.884 614.314C340.055 614.312 340.222 614.27 340.374 614.192C340.526 614.113 340.657 614.001 340.758 613.863L367.973 629.84V661.78C367.704 661.813 367.456 661.943 367.276 662.145C367.096 662.347 366.996 662.608 366.994 662.879C366.999 663.029 367.03 663.177 367.084 663.316L339.884 679.279L311.78 662.789ZM227.076 778.923L236.429 773.427L255.165 762.434L282.381 778.396C282.321 778.534 282.29 778.683 282.29 778.833C282.292 779.104 282.392 779.365 282.572 779.567C282.753 779.77 283 779.899 283.269 779.932V811.887L256.039 827.865C255.941 827.723 255.81 827.607 255.658 827.526C255.507 827.445 255.337 827.401 255.165 827.398C254.993 827.403 254.825 827.448 254.674 827.529C254.522 827.61 254.391 827.725 254.292 827.865L227.076 811.887V778.923ZM226.926 712.664L236.324 718.311L254.171 728.777C254.116 728.921 254.09 729.075 254.096 729.229C254.094 729.498 254.191 729.759 254.369 729.962C254.546 730.165 254.792 730.295 255.06 730.328V762.283L245.692 767.78L226.956 778.758L199.725 762.72C199.778 762.58 199.809 762.433 199.816 762.283C199.814 762.012 199.714 761.751 199.534 761.549C199.353 761.347 199.106 761.217 198.837 761.184V729.229L226.926 712.664ZM255.165 662.97L264.533 668.466L282.381 678.932C282.321 679.07 282.29 679.219 282.29 679.369C282.292 679.641 282.391 679.904 282.571 680.109C282.751 680.314 282.999 680.447 283.269 680.483V712.423L256.039 728.401C255.94 728.261 255.809 728.147 255.657 728.068C255.505 727.99 255.336 727.949 255.165 727.949C254.995 727.951 254.827 727.993 254.675 728.072C254.524 728.15 254.392 728.263 254.292 728.401L245.797 723.416L227.076 712.423V680.559C227.344 680.519 227.588 680.385 227.765 680.18C227.942 679.976 228.04 679.715 228.04 679.444C228.063 679.299 228.063 679.152 228.04 679.007L255.165 662.97ZM255.301 629.765L264.669 624.253L282.531 613.787C282.63 613.927 282.761 614.041 282.913 614.12C283.065 614.199 283.234 614.24 283.405 614.24C283.576 614.24 283.745 614.199 283.897 614.12C284.049 614.041 284.18 613.927 284.278 613.787L311.494 629.765V662.729L284.278 678.706C284.182 678.563 284.052 678.446 283.899 678.366C283.747 678.285 283.577 678.242 283.405 678.242C283.232 678.242 283.063 678.285 282.91 678.366C282.758 678.446 282.628 678.563 282.531 678.706L273.977 673.797L255.241 662.804L255.301 629.765ZM227.076 613.019V581.155C227.344 581.121 227.59 580.991 227.768 580.788C227.945 580.586 228.042 580.325 228.04 580.055C228.066 579.911 228.066 579.763 228.04 579.619L254.367 564.153C254.467 564.293 254.598 564.408 254.749 564.489C254.901 564.57 255.069 564.615 255.241 564.62C255.413 564.617 255.582 564.573 255.734 564.492C255.886 564.411 256.016 564.295 256.114 564.153L264.609 569.138L283.345 580.131V612.086C283.076 612.119 282.828 612.248 282.648 612.451C282.468 612.653 282.367 612.914 282.366 613.185C282.365 613.335 282.396 613.484 282.456 613.622L273.977 618.591L255.241 629.584L227.076 613.019ZM85.7128 762.449L95.1109 768.006L112.958 778.472C112.898 778.609 112.867 778.758 112.868 778.908C112.873 779.178 112.974 779.438 113.154 779.639C113.333 779.841 113.579 779.972 113.847 780.008V811.963L85.7128 828.377L58.6028 812.414C58.6324 812.27 58.6324 812.122 58.6028 811.978C58.6011 811.707 58.5008 811.446 58.3206 811.243C58.1405 811.041 57.8927 810.911 57.6238 810.878V778.923L85.7128 762.449ZM95.2314 723.732L113.952 712.739L142.056 729.304V762.268L114.856 778.17C114.757 778.031 114.626 777.917 114.474 777.838C114.322 777.76 114.154 777.719 113.982 777.719C113.814 777.72 113.648 777.761 113.498 777.84C113.349 777.919 113.22 778.032 113.124 778.17L104.614 773.186L85.8935 762.193V730.253C86.1636 730.219 86.4117 730.087 86.5898 729.881C86.7678 729.675 86.8632 729.411 86.8574 729.139C86.8566 728.988 86.8259 728.84 86.767 728.702L95.2314 723.732ZM56.4942 679.007C56.4336 679.163 56.4089 679.331 56.4218 679.497C56.4347 679.664 56.485 679.826 56.5689 679.97C56.6528 680.115 56.7681 680.239 56.9064 680.333C57.0447 680.427 57.2024 680.489 57.3678 680.513V712.453L29.2788 729.018L2.06337 713.056C2.12507 712.913 2.15587 712.759 2.15374 712.604C2.15209 712.333 2.05179 712.072 1.87161 711.87C1.69143 711.667 1.4437 711.538 1.17476 711.505V679.535L29.2788 663.045L56.4942 679.007ZM85.7128 663.045L95.1109 668.617L112.958 679.083C112.898 679.221 112.867 679.369 112.868 679.519C112.869 679.792 112.969 680.055 113.149 680.26C113.329 680.465 113.577 680.597 113.847 680.634V712.574L104.479 718.07L86.6164 728.612C86.5176 728.472 86.3867 728.358 86.2347 728.279C86.0827 728.201 85.914 728.16 85.7429 728.16C85.5741 728.161 85.408 728.202 85.2586 728.281C85.1092 728.36 84.9809 728.473 84.8844 728.612L57.6539 712.499V680.559C57.9241 680.522 58.1721 680.389 58.352 680.185C58.5319 679.98 58.6317 679.717 58.6329 679.444C58.6456 679.298 58.6354 679.151 58.6028 679.007L85.7128 663.045ZM141.168 629.313C141.106 629.45 141.075 629.599 141.077 629.75C141.079 630.021 141.179 630.282 141.359 630.484C141.54 630.686 141.787 630.816 142.056 630.849V662.804L114.856 678.782C114.76 678.638 114.63 678.521 114.477 678.439C114.325 678.358 114.155 678.315 113.982 678.315C113.812 678.315 113.644 678.358 113.494 678.439C113.344 678.521 113.217 678.638 113.124 678.782L104.614 673.797L85.8935 662.804V630.849C86.161 630.816 86.407 630.685 86.5847 630.483C86.7624 630.28 86.8595 630.019 86.8574 629.75C86.8597 629.599 86.8289 629.45 86.767 629.313L113.982 613.351L141.168 629.313ZM170.431 613.351L179.83 618.922L197.662 629.388C197.638 629.533 197.638 629.68 197.662 629.825C197.664 630.096 197.764 630.357 197.944 630.559C198.124 630.762 198.372 630.891 198.641 630.924V662.879L171.335 678.782C171.235 678.639 171.102 678.522 170.947 678.441C170.793 678.36 170.621 678.316 170.447 678.315C170.277 678.32 170.111 678.365 169.962 678.446C169.813 678.527 169.685 678.642 169.588 678.782L142.358 662.804V630.849C142.627 630.816 142.874 630.686 143.054 630.484C143.235 630.282 143.335 630.021 143.337 629.75C143.339 629.599 143.308 629.45 143.246 629.313L170.431 613.351ZM170.567 580.131L179.935 574.634L198.671 563.641L225.886 579.619C225.861 579.763 225.861 579.911 225.886 580.055C225.884 580.325 225.981 580.586 226.159 580.788C226.337 580.991 226.583 581.121 226.85 581.155V613.095L199.575 629.072C199.473 628.932 199.339 628.818 199.185 628.74C199.03 628.661 198.859 628.62 198.686 628.62C198.518 628.623 198.352 628.665 198.203 628.743C198.053 628.822 197.925 628.934 197.828 629.072L189.333 624.088L170.597 613.095L170.567 580.131ZM142.056 530.436V562.376C141.787 562.409 141.54 562.539 141.359 562.741C141.179 562.944 141.079 563.205 141.077 563.475C141.075 563.631 141.106 563.785 141.168 563.927L113.952 579.89L86.767 563.927C86.8276 563.771 86.8524 563.604 86.8395 563.437C86.8265 563.271 86.7763 563.109 86.6924 562.964C86.6085 562.82 86.4931 562.696 86.3548 562.602C86.2165 562.508 86.0589 562.446 85.8935 562.421V530.436L113.124 514.459C113.22 514.597 113.349 514.711 113.498 514.789C113.648 514.868 113.814 514.909 113.982 514.91C114.154 514.91 114.322 514.87 114.474 514.791C114.626 514.712 114.757 514.598 114.856 514.459L142.056 530.436ZM170.431 513.947L179.799 519.443L197.632 529.909C197.609 530.054 197.609 530.201 197.632 530.346C197.63 530.618 197.729 530.88 197.91 531.083C198.091 531.286 198.341 531.415 198.611 531.445V563.4L189.243 568.897L170.507 579.89L143.246 563.927C143.307 563.77 143.331 563.602 143.317 563.434C143.304 563.266 143.252 563.104 143.167 562.959C143.081 562.814 142.964 562.691 142.824 562.597C142.684 562.504 142.524 562.444 142.358 562.421V530.436L170.431 513.947ZM170.567 480.727L179.935 475.245L198.671 464.252L225.886 480.215C225.864 480.359 225.864 480.507 225.886 480.651C225.884 480.921 225.981 481.182 226.159 481.384C226.337 481.587 226.583 481.717 226.85 481.751V513.706L199.575 529.683C199.473 529.541 199.34 529.425 199.186 529.344C199.032 529.263 198.86 529.219 198.686 529.216C198.516 529.222 198.35 529.267 198.201 529.348C198.052 529.429 197.924 529.544 197.828 529.683L189.333 524.684L170.597 513.706L170.567 480.727ZM143.246 464.523C143.306 464.386 143.337 464.237 143.337 464.087C143.339 463.813 143.24 463.548 143.059 463.343C142.879 463.137 142.629 463.005 142.358 462.972V431.032L170.462 414.467L197.662 430.43C197.639 430.575 197.639 430.722 197.662 430.867C197.66 431.14 197.759 431.405 197.939 431.61C198.12 431.816 198.369 431.948 198.641 431.981V463.921L189.273 469.417L170.537 480.41L143.246 464.523ZM113.967 415.507C114.139 415.507 114.307 415.466 114.459 415.387C114.611 415.308 114.742 415.194 114.841 415.055L123.366 420.039L142.102 431.032V462.987C141.834 463.021 141.588 463.151 141.41 463.354C141.233 463.556 141.136 463.817 141.138 464.087C141.135 464.232 141.166 464.376 141.228 464.508L114.871 479.974C114.772 479.834 114.641 479.72 114.489 479.641C114.337 479.563 114.169 479.522 113.998 479.522C113.829 479.523 113.663 479.565 113.513 479.643C113.364 479.722 113.235 479.835 113.139 479.974L85.8784 463.996V431.032L113.109 415.055C113.205 415.193 113.334 415.307 113.483 415.385C113.632 415.464 113.799 415.505 113.967 415.507ZM114.118 381.338L123.486 375.841L142.207 364.848L169.422 380.811C169.362 380.949 169.332 381.097 169.332 381.247C169.334 381.518 169.434 381.779 169.614 381.982C169.794 382.184 170.042 382.314 170.311 382.347V414.302L142.207 430.791L132.839 425.295L114.992 414.829C115.052 414.673 115.077 414.506 115.064 414.339C115.051 414.172 115.001 414.011 114.917 413.866C114.833 413.721 114.718 413.597 114.579 413.503C114.441 413.409 114.283 413.348 114.118 413.323V381.338ZM85.5923 331.643V363.598C85.3248 363.632 85.0788 363.762 84.9011 363.965C84.7233 364.167 84.6263 364.428 84.6284 364.698C84.6279 364.848 84.6587 364.997 84.7187 365.134L57.5033 381.082L29.3993 364.607V332.652C29.6682 332.619 29.9159 332.49 30.0961 332.287C30.2763 332.085 30.3766 331.824 30.3783 331.553C30.3806 331.403 30.3497 331.254 30.2879 331.116L57.5033 315.139L85.5923 331.643ZM113.967 316.133C114.14 316.13 114.309 316.086 114.461 316.005C114.612 315.924 114.743 315.807 114.841 315.666L123.366 320.635L142.102 331.628V364.607L132.734 370.104L113.998 381.082L86.767 365.119C86.82 364.979 86.8505 364.832 86.8574 364.683C86.8557 364.412 86.7555 364.151 86.5753 363.948C86.3951 363.746 86.1474 363.616 85.8784 363.583V331.628L113.109 315.651C113.205 315.791 113.332 315.907 113.482 315.988C113.631 316.069 113.797 316.114 113.967 316.118V316.133ZM169.422 281.422C169.362 281.56 169.332 281.708 169.332 281.859C169.333 282.131 169.433 282.394 169.613 282.599C169.793 282.804 170.041 282.937 170.311 282.973V314.913L142.207 331.387L132.839 325.891L114.992 315.35C115.052 315.194 115.077 315.026 115.064 314.86C115.051 314.693 115.001 314.531 114.917 314.387C114.833 314.242 114.718 314.118 114.579 314.024C114.441 313.93 114.283 313.869 114.118 313.844V281.934L142.207 265.444L169.422 281.422ZM198.671 265.444L208.024 270.941L225.871 281.482C225.849 281.627 225.849 281.774 225.871 281.919C225.872 282.189 225.97 282.45 226.147 282.655C226.323 282.859 226.568 282.994 226.835 283.033V314.973L199.56 330.875C199.463 330.733 199.333 330.616 199.181 330.535C199.028 330.454 198.859 330.411 198.686 330.411C198.514 330.411 198.344 330.454 198.192 330.535C198.039 330.616 197.909 330.733 197.813 330.875L170.582 314.898V282.958C170.852 282.922 171.1 282.789 171.28 282.584C171.46 282.379 171.56 282.116 171.561 281.844C171.562 281.693 171.531 281.545 171.471 281.407L198.671 265.444ZM199.695 231.712L208.175 226.743L226.896 215.75L255 232.239V264.179C254.732 264.213 254.486 264.343 254.308 264.546C254.131 264.748 254.034 265.009 254.036 265.279C254.003 265.422 254.003 265.572 254.036 265.715L227.694 281.181C227.599 281.038 227.47 280.921 227.319 280.84C227.168 280.759 226.999 280.716 226.828 280.716C226.656 280.716 226.487 280.759 226.336 280.84C226.185 280.921 226.057 281.038 225.962 281.181L217.467 276.196L198.731 265.203V233.263C199 233.224 199.246 233.09 199.426 232.886C199.605 232.682 199.706 232.421 199.71 232.149C199.733 232.004 199.733 231.857 199.71 231.712H199.695ZM170.311 182.53V215.494L143.081 231.487C142.984 231.344 142.854 231.227 142.702 231.146C142.549 231.065 142.379 231.023 142.207 231.023C142.035 231.023 141.865 231.065 141.712 231.146C141.56 231.227 141.43 231.344 141.333 231.487L114.118 215.494V183.554C114.386 183.521 114.631 183.39 114.809 183.188C114.987 182.985 115.084 182.724 115.082 182.455C115.084 182.304 115.053 182.155 114.992 182.018L142.207 166.056L170.311 182.53ZM198.671 167.019C198.844 167.018 199.013 166.974 199.165 166.893C199.317 166.812 199.447 166.695 199.545 166.552L208.024 171.537L226.76 182.53V215.494L217.392 221.005L199.545 231.547C199.448 231.404 199.318 231.287 199.166 231.206C199.013 231.125 198.843 231.083 198.671 231.083C198.499 231.083 198.329 231.125 198.176 231.206C198.024 231.287 197.894 231.404 197.798 231.547L170.582 215.494V182.53L197.813 166.552C197.908 166.693 198.036 166.808 198.185 166.89C198.335 166.971 198.501 167.015 198.671 167.019ZM226.896 117.325C227.067 117.325 227.235 117.284 227.387 117.205C227.539 117.127 227.67 117.013 227.769 116.873L236.264 121.858L255 132.851V164.791C254.731 164.827 254.485 164.961 254.307 165.166C254.13 165.371 254.033 165.634 254.036 165.905C254.006 166.049 254.006 166.198 254.036 166.342L226.82 182.304L217.467 176.808L199.62 166.266C199.673 166.126 199.703 165.979 199.71 165.83C199.709 165.557 199.609 165.294 199.429 165.089C199.249 164.884 199.001 164.752 198.731 164.715V132.836L225.962 116.858C226.068 117.009 226.211 117.129 226.377 117.209C226.543 117.288 226.727 117.323 226.911 117.31L226.896 117.325ZM227.046 83.1411L236.414 77.6446L255.135 66.6667L282.351 82.6291C282.29 82.7669 282.26 82.9156 282.26 83.0658C282.262 83.3367 282.362 83.5978 282.542 83.8001C282.722 84.0024 282.97 84.1322 283.239 84.1651V116.105L255.135 132.67L245.767 127.173L227.935 116.632C227.957 116.482 227.957 116.33 227.935 116.18C227.937 115.911 227.84 115.65 227.662 115.447C227.484 115.245 227.238 115.114 226.971 115.081L227.046 83.1411ZM226.896 17.9209C227.067 17.921 227.235 17.88 227.387 17.8014C227.539 17.7228 227.67 17.6089 227.769 17.4692L255.015 33.4316V66.3956L245.647 71.8921L226.911 82.8249L199.71 66.8624C199.763 66.7225 199.794 66.5751 199.801 66.4257C199.799 66.1548 199.699 65.8938 199.518 65.6915C199.338 65.4891 199.091 65.3594 198.822 65.3264V33.4316L226.052 17.4541C226.149 17.5918 226.278 17.7044 226.427 17.7829C226.576 17.8615 226.742 17.9036 226.911 17.9059L226.896 17.9209Z" fill="white"/>
</g>
</svg>
