<svg width="50" height="50" viewBox="0 0 50 50" fill="none" xmlns="http://www.w3.org/2000/svg">
<g clip-path="url(#clip0_773_26738)">
<path d="M20 0.5H36C36.5523 0.5 37 0.947715 37 1.5V29.5C37 30.0523 36.5523 30.5 36 30.5H14C13.4477 30.5 13 30.0523 13 29.5V1.5C13 0.947716 13.4477 0.5 14 0.5H18M32.5 6V20C32.5 20.5523 32.0523 21 31.5 21H18.5C17.9477 21 17.5 20.5523 17.5 20V6C17.5 5.44772 17.9477 5 18.5 5H31.5C32.0523 5 32.5 5.44772 32.5 6Z" stroke="white" stroke-width="1.5"/>
<path d="M15.5 31V44.5" stroke="white" stroke-width="1.5"/>
<path d="M34 31V44.5" stroke="white" stroke-width="1.5"/>
<rect x="12.75" y="44.75" width="24.5" height="4.5" rx="2.25" stroke="white" stroke-width="1.5"/>
<rect x="19.5" y="26.5" width="12" height="2" rx="1" stroke="white"/>
<rect x="14.5" y="22.5" width="6" height="2" rx="1" stroke="white"/>
<rect x="29.5" y="22.5" width="6" height="2" rx="1" stroke="white"/>
</g>
<defs>
<clipPath id="clip0_773_26738">
<rect width="50" height="50" fill="white"/>
</clipPath>
</defs>
</svg>
