<svg width="410" height="631" viewBox="0 0 410 631" fill="none" xmlns="http://www.w3.org/2000/svg">
<g opacity="0.3">
<g opacity="0.1">
<path opacity="0.3" d="M122.318 173.814L95.1327 189.761L67.9323 173.814V141.889L95.1327 125.941L122.318 141.889V173.814Z" fill="white"/>
<path opacity="0.6" d="M93.7472 123.502L66.5469 139.464L39.3465 123.502V91.5918L66.5469 75.6293L93.7472 91.5918V123.502Z" fill="white"/>
<path opacity="0.3" d="M122.318 73.1899L95.1327 89.1523L67.9323 73.1899V41.28L95.1327 25.3176L122.318 41.28V73.1899Z" fill="white"/>
<path opacity="0.1" d="M150.905 224.11L123.704 240.073L96.5189 224.11V192.2L123.704 176.238L150.905 192.2V224.11Z" fill="white"/>
<path opacity="0.3" d="M179.49 375.031L152.29 390.993L125.089 375.031V343.121L152.29 327.159L179.49 343.121V375.031Z" fill="white"/>
<path opacity="0.6" d="M236.647 375.031L209.447 390.993L182.262 375.031V343.121L209.447 327.159L236.647 343.121V375.031Z" fill="white"/>
<path opacity="0.3" d="M208.061 224.11L180.876 240.073L153.676 224.11V192.2L180.876 176.238L208.061 192.2V224.11Z" fill="white"/>
<path opacity="0.6" d="M179.49 173.814L152.29 189.761L125.089 173.814V141.889L152.29 125.941L179.49 141.889V173.814Z" fill="white"/>
<path opacity="0.6" d="M179.49 274.422L152.29 290.37L125.089 274.422V242.497L152.29 226.55L179.49 242.497V274.422Z" fill="white"/>
<path opacity="0.3" d="M122.318 274.422L95.1327 290.37L67.9323 274.422V242.497L95.1327 226.55L122.318 242.497V274.422Z" fill="white"/>
<path opacity="0.6" d="M65.1614 274.422L37.961 290.37L10.7607 274.422V242.497L37.961 226.55L65.1614 242.497V274.422Z" fill="white"/>
<path opacity="0.1" d="M208.061 123.502L180.876 139.449L153.676 123.502V91.5767L180.876 75.6293L208.061 91.5767V123.502Z" fill="white"/>
<path opacity="0.1" d="M93.7472 324.719L66.5469 340.681L39.3465 324.719V292.809L66.5469 276.862L93.7472 292.809V324.719Z" fill="white"/>
<path opacity="0.6" d="M65.1614 375.031L37.961 390.993L10.7607 375.031V343.121L37.961 327.159L65.1614 343.121V375.031Z" fill="white"/>
<path opacity="0.1" d="M150.905 22.8931L123.704 38.8405L96.5189 22.8931V-9.03185L123.704 -24.9792L150.905 -9.03185V22.8931Z" fill="white"/>
<path opacity="0.6" d="M179.49 73.1899L152.29 89.1523L125.089 73.1899V41.28L152.29 25.3176L179.49 41.28V73.1899Z" fill="white"/>
<path opacity="0.1" d="M208.061 324.719L180.876 340.681L153.676 324.719V292.809L180.876 276.862L208.061 292.809V324.719Z" fill="white"/>
</g>
<path d="M126.671 -29H126.596L98.2962 -12.4352V20.9956L126.476 37.5604V70.5395L98.236 87.1043V120.234L70.132 136.799L41.8924 120.234L13.5775 136.799V170.094L41.8773 186.659H41.9527L70.1169 170.094L98.2209 186.568V219.547L70.2073 236.112L41.9677 219.547L13.6528 236.112V269.242L-14.4964 285.822L-42.7359 269.257L-71.0358 285.822V319.117L-42.7209 335.682L-14.5416 319.117L13.5474 335.682V368.646L-14.6922 385.211V418.506L13.6077 435.071L41.9225 418.506V385.376L70.147 368.811V335.607L41.9828 319.042V286.063L70.0717 269.498L98.3113 286.063L126.611 269.498V236.368L154.7 219.879L182.804 236.368V269.332L154.565 285.897V319.192L182.729 335.757V368.887H182.804L211.104 385.452H211.179L239.479 368.887V335.607H239.404L211.239 319.042V286.063L239.344 269.498L267.583 286.063L295.898 269.498V236.203H295.823L267.523 219.638H267.448L239.283 236.203L211.179 219.728V186.749L239.63 170.184L267.869 186.749L296.184 170.184V137.055L324.273 120.49L352.513 137.055L380.812 120.49V87.1043H380.737L352.588 70.3889H352.513L324.348 86.9537L296.244 70.5395V37.5604L324.469 20.9956V-12.2997L296.154 -28.8645L267.839 -12.2997V20.83L239.615 37.3948V70.69L267.779 87.2549V120.234L239.69 136.799L211.45 120.234H211.375L183.075 136.799V169.928L154.971 186.403L126.822 169.943V136.964L155.062 120.4V87.2699L183.301 70.7051V37.3948L155.137 20.83V-12.2997L126.671 -29ZM296.079 37.2592L286.711 31.7627L267.99 20.7697V-12.134L296.079 -28.6988L324.183 -12.134V20.83L296.079 37.2592ZM295.943 70.4792L286.575 75.9607L267.869 86.9537L239.765 70.5395V37.5604L267.869 21.086L277.282 26.5825L296.003 37.5604L295.943 70.4792ZM324.454 120.174V87.2699L352.558 70.7051L380.647 87.2699V120.234L352.558 136.799L324.454 120.174ZM296.079 136.738L286.711 131.242L267.99 120.249V87.2699L277.358 81.7734L296.079 70.7804L324.183 87.3452V120.234L296.079 136.738ZM239.75 169.958V136.979L267.854 120.415L277.222 125.911L295.943 136.904V169.883L267.854 186.358L239.75 169.958ZM211.375 186.433L201.977 180.921L183.256 169.943V136.964L211.345 120.4L239.449 136.964V169.943L211.375 186.433ZM239.75 269.347V236.368L267.854 219.879L295.943 236.368V269.332L267.854 285.822L239.75 269.347ZM183.301 335.772L192.654 330.276L211.39 319.283L239.494 335.848V368.811L211.39 385.301L183.301 368.736V335.772ZM183.151 269.513L192.519 275.009L211.255 286.002V318.981L201.887 324.463L183.151 335.456L155.062 318.981V286.002L183.151 269.513ZM183.301 236.308L192.654 230.812L211.39 219.819L239.494 236.308V269.272L211.39 285.762L201.977 280.325L183.256 269.332L183.301 236.308ZM155.062 219.578V186.599L183.151 170.124L192.519 175.621L211.255 186.599V219.578L201.887 225.074L183.151 236.052L155.062 219.578ZM13.7131 368.977L23.0811 374.474L41.8171 385.467V418.431L13.7131 434.92L-14.3608 418.431V385.467L13.7131 368.977ZM13.8637 335.848L23.2317 330.351L41.9527 319.358L70.0567 335.923V368.887L41.9677 385.211L32.5997 379.729L13.8787 368.736L13.8637 335.848ZM-14.662 286.153V319.132L-42.751 335.607L-70.855 319.132V286.153L-42.751 269.588L-14.662 286.153ZM13.7131 269.588L23.0811 275.085L41.8171 286.078V319.057L32.4491 324.538L13.7131 335.516L-14.3608 319.042V286.063L13.7131 269.588ZM70.0567 236.383V269.347L41.9677 285.822L32.5997 280.325L13.8787 269.332V236.368L41.9677 219.879L70.0567 236.383ZM98.4318 219.894L107.8 225.39L126.536 236.383V269.347L98.4469 285.822L70.3428 269.332V236.368L98.4318 219.894ZM98.5673 186.674L107.935 181.192L126.671 170.184L154.76 186.659V219.638L126.671 236.112L117.303 230.631L98.5673 219.638V186.674ZM70.0567 136.979V169.958L41.9677 186.418L13.8787 169.943V136.964L41.9677 120.4L70.0567 136.979ZM98.4318 120.415L107.8 125.911L126.536 136.904V169.883L117.168 175.365L98.4318 186.358L70.3428 169.943V136.964L98.4318 120.415ZM126.671 70.7202L136.024 76.2167L154.76 87.2097V120.234L126.671 136.723L117.303 131.227L98.5673 120.234V87.2699L126.671 70.7202ZM126.807 37.5002L136.175 32.0187L154.896 21.0257L183 37.5002V70.4792L154.911 86.9537L145.558 81.4722L126.822 70.5395L126.807 37.5002ZM126.671 -28.6235L154.76 -12.0587V20.83L145.392 26.3265L126.671 37.2592L98.5673 20.6944V-12.134L126.671 -28.6235Z" fill="white"/>
<path d="M154.911 -13.3387C154.618 -13.3347 154.338 -13.2156 154.132 -13.007C153.926 -12.7985 153.811 -12.5173 153.811 -12.2243C153.787 -12.0747 153.787 -11.9222 153.811 -11.7726L126.551 4.26518V36.3859C126.282 36.4188 126.034 36.5486 125.854 36.7509C125.674 36.9532 125.573 37.2143 125.572 37.4852C125.572 37.7821 125.688 38.0671 125.897 38.2785C126.106 38.4899 126.389 38.6106 126.686 38.6146C126.859 38.613 127.028 38.5697 127.18 38.4884C127.332 38.4071 127.462 38.2902 127.56 38.1477L154.775 54.1253V86.0803C154.508 86.1135 154.262 86.2438 154.084 86.4465C153.906 86.6492 153.809 86.9101 153.811 87.1796C153.788 87.3293 153.788 87.4816 153.811 87.6314L126.551 103.669V135.775C126.279 135.808 126.029 135.94 125.849 136.145C125.668 136.351 125.57 136.616 125.572 136.889C125.571 137.039 125.602 137.188 125.662 137.326L98.4465 153.288L70.207 136.723L42.8409 152.776C42.7421 152.637 42.6112 152.523 42.4592 152.444C42.3072 152.365 42.1385 152.324 41.9674 152.324C41.6718 152.307 41.3812 152.407 41.1594 152.603C40.9377 152.799 40.8031 153.076 40.7851 153.371C40.7671 153.667 40.8673 153.957 41.0636 154.179C41.2599 154.401 41.5362 154.535 41.8318 154.553V186.659L69.1075 202.666C69.0474 202.804 69.0167 202.953 69.0171 203.103C69.0171 203.399 69.1346 203.682 69.3436 203.891C69.5526 204.1 69.8361 204.217 70.1316 204.217C70.4272 204.217 70.7107 204.1 70.9197 203.891C71.1288 203.682 71.2462 203.399 71.2462 203.103C71.2466 202.953 71.2159 202.804 71.1558 202.666L98.3712 186.704L125.572 202.666C125.549 202.811 125.549 202.958 125.572 203.103C125.573 203.376 125.673 203.639 125.852 203.844C126.032 204.048 126.28 204.181 126.551 204.217V236.157L99.3201 252.18C99.2203 252.04 99.0895 251.925 98.938 251.844C98.7865 251.763 98.6183 251.719 98.4465 251.713C98.2743 251.716 98.1053 251.76 97.9534 251.841C97.8014 251.922 97.671 252.039 97.573 252.18L70.207 236.112L41.8921 252.677V284.783C41.6231 284.816 41.3754 284.945 41.1952 285.148C41.015 285.35 40.9148 285.611 40.9131 285.882C40.9184 286.037 40.9489 286.189 41.0035 286.334L13.7128 302.387L-14.5118 285.822L-41.8627 301.875C-41.9633 301.737 -42.0945 301.624 -42.2462 301.546C-42.3978 301.467 -42.5656 301.425 -42.7363 301.423C-42.8839 301.423 -43.0301 301.452 -43.1663 301.509C-43.3025 301.566 -43.426 301.649 -43.5297 301.755C-43.6334 301.86 -43.7152 301.984 -43.7703 302.121C-43.8254 302.258 -43.8528 302.405 -43.8508 302.552C-43.8491 302.823 -43.7488 303.084 -43.5687 303.286C-43.3885 303.489 -43.1408 303.619 -42.8718 303.652V335.772L-14.5569 352.337L12.7488 336.314C12.8459 336.454 12.9754 336.568 13.1262 336.647C13.277 336.726 13.4447 336.767 13.6149 336.767C13.785 336.767 13.9527 336.726 14.1035 336.647C14.2543 336.568 14.3838 336.454 14.4809 336.314L41.7113 352.292V384.232C41.4424 384.265 41.1947 384.395 41.0145 384.597C40.8343 384.799 40.734 385.06 40.7324 385.331C40.7376 385.486 40.7682 385.638 40.8227 385.783L13.5923 401.866V435.161L40.8679 451.169C40.8149 451.309 40.7844 451.456 40.7776 451.605C40.7776 451.901 40.895 452.184 41.104 452.393C41.313 452.602 41.5965 452.72 41.8921 452.72C42.1877 452.72 42.4711 452.602 42.6802 452.393C42.8892 452.184 43.0066 451.901 43.0066 451.605C43.0071 451.455 42.9763 451.306 42.9162 451.169L69.2581 435.718C69.3618 435.857 69.4958 435.969 69.6499 436.047C69.8039 436.126 69.9739 436.168 70.1467 436.17C70.3192 436.168 70.4887 436.125 70.6408 436.044C70.7929 435.963 70.9231 435.846 71.0203 435.703L98.2507 451.681V484.66L70.222 501.194L43.0066 485.217C43.0684 485.08 43.0993 484.931 43.097 484.78C43.097 484.485 42.9796 484.201 42.7705 483.992C42.5615 483.783 42.278 483.666 41.9824 483.666C41.6869 483.666 41.4034 483.783 41.1944 483.992C40.9853 484.201 40.8679 484.485 40.8679 484.78C40.8656 484.931 40.8964 485.08 40.9583 485.217L13.6073 501.27V533.375C13.3398 533.409 13.0938 533.539 12.9161 533.742C12.7384 533.944 12.6414 534.205 12.6434 534.475C12.6394 534.772 12.7524 535.058 12.9582 535.272C13.164 535.487 13.4459 535.611 13.7429 535.619C13.9153 535.617 14.0849 535.574 14.237 535.493C14.3891 535.412 14.5193 535.295 14.6164 535.152L41.9824 551.205L69.2732 535.182C69.3697 535.325 69.4998 535.442 69.6521 535.523C69.8044 535.604 69.9743 535.646 70.1467 535.646C70.3192 535.646 70.489 535.604 70.6413 535.523C70.7936 535.442 70.9237 535.325 71.0203 535.182L98.2507 551.16V584.124L71.0956 600.071C70.9968 599.931 70.8659 599.817 70.7139 599.739C70.5619 599.66 70.3932 599.619 70.222 599.619C70.0508 599.619 69.8821 599.66 69.7301 599.739C69.5781 599.817 69.4472 599.931 69.3485 600.071L41.9824 584.018L14.6164 600.071C14.5185 599.931 14.3878 599.816 14.2356 599.737C14.0834 599.659 13.9142 599.618 13.7429 599.62C13.4473 599.602 13.1567 599.702 12.9349 599.898C12.7132 600.094 12.5786 600.371 12.5606 600.666C12.5426 600.962 12.6428 601.252 12.8391 601.474C13.0354 601.696 13.3117 601.83 13.6073 601.848V633.803L-13.6232 649.781C-13.7194 649.637 -13.8494 649.52 -14.0017 649.438C-14.154 649.357 -14.324 649.314 -14.4967 649.314C-14.6664 649.319 -14.8324 649.364 -14.9815 649.445C-15.1306 649.526 -15.2586 649.641 -15.3552 649.781L-42.7212 633.713L-71.021 650.278V682.383C-71.2912 682.42 -71.5392 682.553 -71.7191 682.757C-71.899 682.962 -71.9988 683.225 -72 683.498C-71.9961 683.796 -71.8758 684.081 -71.6648 684.292C-71.4538 684.503 -71.1688 684.623 -70.8704 684.627C-70.7015 684.619 -70.5367 684.572 -70.3881 684.491C-70.2395 684.411 -70.1109 684.297 -70.0119 684.16L-42.6459 700.228H-42.5706L-14.4063 683.663L12.794 699.626C12.746 699.772 12.7206 699.924 12.7187 700.078C12.7167 700.347 12.8137 700.608 12.9914 700.811C13.1691 701.013 13.4151 701.144 13.6826 701.177V733.117L-14.5569 749.682V781.787C-14.8525 781.807 -15.1281 781.944 -15.323 782.167C-15.5179 782.39 -15.6161 782.681 -15.5962 782.977C-15.5762 783.272 -15.4396 783.548 -15.2165 783.743C-14.9933 783.938 -14.7019 784.036 -14.4063 784.016C-14.2375 784.015 -14.0714 783.973 -13.922 783.895C-13.7726 783.816 -13.6443 783.703 -13.5478 783.564L13.7128 799.707H13.7881L42.1029 783.143V750.947C42.3704 750.913 42.6164 750.783 42.7941 750.58C42.9718 750.378 43.0689 750.117 43.0668 749.847C43.0692 749.697 43.0383 749.548 42.9765 749.411L70.3275 733.358V700.062L42.1632 683.498V651.558C42.4306 651.518 42.675 651.384 42.8519 651.179C43.0288 650.975 43.1264 650.714 43.1271 650.443C43.1276 650.293 43.0968 650.144 43.0367 650.007L70.2521 634.044L97.4676 650.007C97.408 650.175 97.3892 650.355 97.4127 650.532C97.4362 650.709 97.5013 650.878 97.6027 651.025C97.7041 651.172 97.8389 651.293 97.9961 651.377C98.1532 651.462 98.3283 651.508 98.5068 651.513C98.6532 651.511 98.7977 651.48 98.9321 651.422C99.0666 651.364 99.1884 651.28 99.2905 651.176C99.3926 651.071 99.473 650.947 99.5272 650.811C99.5814 650.675 99.6082 650.529 99.6062 650.383C99.6067 650.233 99.5759 650.084 99.5159 649.946L126.867 633.894V601.848C127.136 601.815 127.384 601.685 127.564 601.483C127.744 601.281 127.844 601.02 127.846 600.749C127.841 600.599 127.81 600.452 127.755 600.312L154.956 584.35L183.06 600.839V633.803L155.829 649.781C155.733 649.637 155.603 649.52 155.451 649.438C155.299 649.357 155.129 649.314 154.956 649.314C154.676 649.325 154.41 649.439 154.209 649.635C154.009 649.831 153.888 650.095 153.871 650.374C153.855 650.654 153.942 650.93 154.118 651.149C154.293 651.368 154.543 651.513 154.82 651.558V683.498L126.596 700.062V732.183C126.412 732.203 126.236 732.268 126.083 732.372C125.93 732.477 125.806 732.618 125.722 732.782C125.637 732.947 125.595 733.13 125.599 733.315C125.603 733.5 125.653 733.681 125.744 733.841C125.836 734.002 125.965 734.138 126.122 734.236C126.279 734.334 126.458 734.392 126.642 734.403C126.827 734.415 127.012 734.381 127.18 734.303C127.348 734.226 127.494 734.108 127.605 733.96L154.82 749.938V783.067L182.096 799.075C182.038 799.213 182.012 799.362 182.021 799.512C182.019 799.658 182.045 799.803 182.1 799.939C182.154 800.075 182.234 800.199 182.336 800.304C182.438 800.409 182.56 800.493 182.695 800.55C182.829 800.608 182.974 800.639 183.12 800.641C183.417 800.637 183.701 800.516 183.909 800.305C184.118 800.094 184.235 799.808 184.235 799.512C184.238 799.361 184.208 799.212 184.144 799.075L211.495 783.022V750.947C211.791 750.929 212.067 750.794 212.263 750.572C212.46 750.351 212.56 750.06 212.542 749.764C212.524 749.469 212.389 749.193 212.168 748.996C211.946 748.8 211.655 748.7 211.36 748.718C211.187 748.719 211.018 748.763 210.866 748.844C210.713 748.925 210.583 749.042 210.486 749.185L183.301 733.207V701.252C183.57 701.219 183.817 701.089 183.998 700.887C184.178 700.685 184.278 700.424 184.28 700.153C184.28 699.998 184.249 699.844 184.189 699.701L211.54 683.663V651.558C211.811 651.521 212.059 651.389 212.238 651.184C212.418 650.979 212.518 650.716 212.519 650.443C212.52 650.293 212.489 650.144 212.429 650.007L239.629 634.044L267.869 650.609L295.175 634.586C295.271 634.725 295.4 634.838 295.549 634.917C295.698 634.995 295.864 635.037 296.033 635.038C296.329 635.056 296.619 634.956 296.841 634.76C297.063 634.563 297.198 634.287 297.215 633.992C297.233 633.696 297.133 633.405 296.937 633.184C296.741 632.962 296.464 632.827 296.169 632.809V600.674L268.893 584.666C268.941 584.525 268.967 584.378 268.968 584.229C268.987 584.073 268.972 583.915 268.924 583.765C268.877 583.615 268.798 583.477 268.694 583.359C268.589 583.242 268.461 583.148 268.318 583.083C268.174 583.019 268.019 582.986 267.861 582.986C267.704 582.986 267.549 583.019 267.405 583.083C267.262 583.148 267.133 583.242 267.029 583.359C266.924 583.477 266.846 583.615 266.798 583.765C266.751 583.915 266.736 584.073 266.754 584.229C266.732 584.374 266.732 584.521 266.754 584.666L239.629 600.583L212.414 584.621C212.474 584.483 212.505 584.334 212.504 584.184C212.503 583.913 212.402 583.652 212.222 583.45C212.042 583.248 211.794 583.118 211.525 583.085V551.13L238.756 535.152C238.854 535.294 238.984 535.41 239.136 535.491C239.288 535.572 239.457 535.616 239.629 535.619C239.801 535.614 239.969 535.569 240.121 535.488C240.272 535.407 240.403 535.292 240.503 535.152L267.869 551.205L296.184 534.64V502.459C296.349 502.435 296.507 502.373 296.645 502.279C296.783 502.185 296.899 502.061 296.983 501.916C297.067 501.772 297.117 501.61 297.13 501.443C297.143 501.277 297.118 501.109 297.057 500.953L324.273 484.991L352.512 501.556H352.588L379.878 485.533C379.977 485.673 380.108 485.787 380.26 485.865C380.412 485.944 380.581 485.985 380.752 485.985C381.048 486.003 381.338 485.903 381.56 485.706C381.782 485.51 381.916 485.234 381.934 484.938C381.952 484.643 381.852 484.352 381.656 484.131C381.459 483.909 381.183 483.774 380.887 483.756V451.56L352.588 434.995H352.512L325.222 451.003C325.123 450.863 324.992 450.749 324.84 450.67C324.688 450.592 324.519 450.551 324.348 450.551C324.177 450.551 324.008 450.592 323.856 450.67C323.704 450.749 323.573 450.863 323.474 451.003L296.259 434.995V403.055C296.527 403.022 296.773 402.892 296.95 402.689C297.128 402.487 297.225 402.226 297.223 401.956C297.223 401.802 297.197 401.65 297.148 401.504L324.484 385.467V352.171L297.208 336.164C297.256 336.023 297.281 335.876 297.283 335.727C297.302 335.571 297.286 335.413 297.239 335.263C297.192 335.113 297.113 334.974 297.009 334.857C296.904 334.739 296.776 334.645 296.633 334.581C296.489 334.517 296.334 334.483 296.176 334.483C296.019 334.483 295.863 334.517 295.72 334.581C295.576 334.645 295.448 334.739 295.344 334.857C295.239 334.974 295.161 335.113 295.113 335.263C295.066 335.413 295.051 335.571 295.069 335.727C295.046 335.872 295.046 336.019 295.069 336.164L268.742 351.614C268.639 351.476 268.505 351.363 268.351 351.285C268.197 351.207 268.027 351.165 267.854 351.162C267.681 351.163 267.511 351.206 267.359 351.287C267.207 351.368 267.077 351.486 266.98 351.629L239.75 335.652V302.673L267.854 286.108L295.054 302.085C295 302.225 294.969 302.372 294.964 302.522C294.964 302.818 295.081 303.101 295.29 303.31C295.499 303.519 295.783 303.637 296.078 303.637C296.374 303.637 296.657 303.519 296.866 303.31C297.075 303.101 297.193 302.818 297.193 302.522C297.217 302.378 297.217 302.23 297.193 302.085L324.529 286.033V253.957C324.798 253.924 325.045 253.794 325.226 253.592C325.406 253.39 325.506 253.129 325.508 252.858C325.51 252.709 325.482 252.562 325.428 252.424C325.373 252.287 325.291 252.161 325.188 252.055C325.084 251.948 324.961 251.864 324.824 251.805C324.688 251.746 324.542 251.715 324.393 251.713C324.221 251.719 324.053 251.763 323.902 251.844C323.75 251.925 323.619 252.04 323.52 252.18L296.108 236.112H296.033L268.727 252.135C268.632 251.995 268.504 251.879 268.355 251.798C268.205 251.717 268.039 251.672 267.869 251.668C267.697 251.671 267.528 251.715 267.376 251.796C267.224 251.877 267.093 251.993 266.995 252.135L239.765 236.157V203.239L266.995 187.261C267.094 187.401 267.225 187.515 267.377 187.593C267.529 187.672 267.698 187.713 267.869 187.713C268.038 187.712 268.204 187.67 268.353 187.592C268.503 187.513 268.631 187.4 268.727 187.261L296.093 203.314L323.384 187.306C323.485 187.444 323.616 187.557 323.768 187.635C323.919 187.714 324.087 187.756 324.258 187.758C324.553 187.776 324.844 187.676 325.066 187.48C325.287 187.283 325.422 187.007 325.44 186.712C325.458 186.416 325.358 186.125 325.161 185.904C324.965 185.682 324.689 185.547 324.393 185.529V153.529L351.624 137.552C351.721 137.694 351.851 137.811 352.003 137.892C352.155 137.974 352.325 138.017 352.497 138.019C352.669 138.013 352.837 137.968 352.989 137.887C353.14 137.806 353.271 137.692 353.371 137.552L380.737 153.62L409.052 137.055V104.859C409.329 104.814 409.58 104.667 409.755 104.446C409.93 104.226 410.016 103.949 409.997 103.668C409.979 103.388 409.856 103.124 409.653 102.93C409.45 102.735 409.182 102.623 408.901 102.615C408.731 102.619 408.565 102.663 408.415 102.745C408.266 102.826 408.138 102.941 408.043 103.082L380.812 86.9537H380.737L352.573 103.519L325.357 87.5561C325.416 87.4127 325.447 87.2593 325.447 87.1043C325.446 86.8334 325.346 86.5724 325.165 86.37C324.985 86.1677 324.737 86.0379 324.469 86.005V54.1403L352.708 37.5755V5.45484C352.854 5.44495 352.997 5.40634 353.129 5.3412C353.26 5.27606 353.378 5.18569 353.474 5.07522C353.571 4.96475 353.644 4.83635 353.691 4.69737C353.738 4.55838 353.757 4.41152 353.747 4.26518C353.737 4.11884 353.699 3.97589 353.634 3.84448C353.569 3.71306 353.478 3.59575 353.368 3.49927C353.257 3.40278 353.129 3.329 352.99 3.28214C352.851 3.23527 352.704 3.21624 352.557 3.22613C352.389 3.22843 352.223 3.27056 352.074 3.34907C351.925 3.42758 351.796 3.54025 351.699 3.67789L324.333 -12.4352L296.018 4.12966V36.3859C295.748 36.4222 295.5 36.555 295.32 36.7598C295.14 36.9647 295.04 37.2276 295.039 37.5002C295.046 37.6448 295.077 37.7872 295.13 37.9219L267.718 53.9747V87.27L295.883 103.835V135.775C295.612 135.811 295.364 135.944 295.184 136.149C295.005 136.354 294.905 136.616 294.904 136.889C294.91 137.039 294.941 137.186 294.994 137.326L267.794 153.288L240.578 137.326C240.64 137.183 240.671 137.029 240.669 136.874C240.669 136.728 240.64 136.583 240.584 136.448C240.528 136.312 240.446 136.19 240.342 136.086C240.239 135.983 240.116 135.9 239.981 135.844C239.845 135.788 239.7 135.76 239.554 135.76C239.408 135.76 239.263 135.788 239.128 135.844C238.992 135.9 238.869 135.983 238.766 136.086C238.662 136.19 238.58 136.312 238.524 136.448C238.468 136.583 238.44 136.728 238.44 136.874C238.439 137.024 238.47 137.173 238.53 137.311L211.254 153.364V185.484C210.985 185.517 210.738 185.647 210.557 185.849C210.377 186.052 210.277 186.313 210.275 186.584C210.275 186.734 210.306 186.882 210.366 187.02L183.15 202.983L155.061 186.418V153.529L182.292 137.552C182.385 137.695 182.512 137.813 182.662 137.894C182.812 137.976 182.98 138.018 183.15 138.019C183.447 138.015 183.731 137.894 183.939 137.682C184.148 137.471 184.265 137.186 184.265 136.889C184.267 136.618 184.171 136.355 183.993 136.15C183.816 135.945 183.57 135.811 183.301 135.775V103.835L211.525 87.27V55.1493C211.709 55.1297 211.885 55.0648 212.038 54.9602C212.191 54.8556 212.315 54.7146 212.399 54.5501C212.484 54.3856 212.526 54.2026 212.522 54.0177C212.518 53.8328 212.468 53.6517 212.377 53.4909C212.286 53.3301 212.156 53.1945 211.999 53.0964C211.842 52.9983 211.663 52.9408 211.479 52.929C211.294 52.9173 211.109 52.9516 210.941 53.029C210.773 53.1064 210.627 53.2244 210.516 53.3723L183.301 37.3948V4.26518L155.95 -11.7726C155.974 -11.9222 155.974 -12.0747 155.95 -12.2243C155.95 -12.5073 155.843 -12.7799 155.65 -12.9868C155.457 -13.1938 155.193 -13.3196 154.911 -13.3387ZM324.333 53.8241L314.935 48.3878L297.087 37.8466C297.148 37.7088 297.178 37.5601 297.178 37.4099C297.18 37.1403 297.083 36.8795 296.905 36.6768C296.727 36.4741 296.481 36.3438 296.214 36.3106V4.43083L324.303 -12.134L351.518 3.84353C351.456 3.9807 351.426 4.12981 351.428 4.28024C351.43 4.55115 351.53 4.81218 351.71 5.01451C351.89 5.21684 352.138 5.34661 352.407 5.37955V37.4099L324.333 53.8241ZM314.829 92.5406L296.093 103.534L268.004 86.9688V54.1403L295.235 38.1628C295.334 38.3025 295.465 38.4165 295.617 38.4951C295.769 38.5737 295.937 38.6147 296.108 38.6146C296.277 38.6135 296.443 38.5719 296.593 38.4933C296.742 38.4147 296.871 38.3013 296.967 38.1628L305.461 43.1473L324.197 54.1403V86.0803C323.927 86.1166 323.679 86.2495 323.499 86.4543C323.319 86.6591 323.22 86.9221 323.218 87.1947C323.225 87.3392 323.256 87.4816 323.309 87.6163L314.829 92.5406ZM353.597 137.266C353.658 137.123 353.689 136.969 353.687 136.814C353.685 136.543 353.585 136.282 353.405 136.08C353.225 135.877 352.977 135.747 352.708 135.714V103.835L380.812 87.27L408.012 103.232C407.963 103.378 407.938 103.53 407.937 103.684C407.935 103.954 408.032 104.215 408.21 104.417C408.388 104.62 408.634 104.75 408.901 104.783V136.799L380.812 153.364L353.597 137.266ZM324.333 153.228L314.935 147.792L297.087 137.25C297.148 137.113 297.178 136.964 297.178 136.814C297.18 136.543 297.084 136.28 296.906 136.075C296.729 135.869 296.483 135.736 296.214 135.699V103.835L305.582 98.3382L323.429 87.797C323.531 87.937 323.665 88.0509 323.819 88.1294C323.974 88.2079 324.145 88.2488 324.318 88.2488C324.486 88.2441 324.651 88.201 324.8 88.1227C324.949 88.0443 325.077 87.9329 325.176 87.797L352.407 103.775V135.714C352.137 135.751 351.889 135.884 351.709 136.088C351.529 136.293 351.429 136.556 351.428 136.829C351.427 136.979 351.458 137.128 351.518 137.266L324.333 153.228ZM268.893 186.96C268.916 186.815 268.916 186.668 268.893 186.523C268.895 186.254 268.798 185.993 268.62 185.79C268.443 185.588 268.197 185.457 267.929 185.424V153.529L295.16 137.552C295.253 137.695 295.38 137.813 295.53 137.894C295.68 137.976 295.847 138.018 296.018 138.019C296.191 138.018 296.361 137.975 296.513 137.894C296.665 137.813 296.795 137.695 296.892 137.552L305.386 142.536L324.122 153.529V185.484C323.853 185.517 323.605 185.647 323.425 185.849C323.245 186.052 323.145 186.313 323.143 186.584C323.143 186.734 323.173 186.882 323.233 187.02L296.018 202.983L268.893 186.96ZM239.629 202.983L230.261 197.486L212.414 186.945C212.474 186.807 212.505 186.658 212.504 186.508C212.503 186.237 212.402 185.976 212.222 185.774C212.042 185.572 211.794 185.442 211.525 185.409V153.529L238.756 137.552C238.853 137.694 238.983 137.811 239.135 137.892C239.287 137.974 239.457 138.017 239.629 138.019C239.801 138.013 239.969 137.968 240.121 137.887C240.272 137.806 240.403 137.692 240.503 137.552L267.718 153.529V185.484C267.451 185.517 267.205 185.648 267.027 185.85C266.849 186.053 266.752 186.314 266.754 186.584C266.754 186.734 266.785 186.882 266.845 187.02L239.629 202.983ZM239.494 236.203L230.126 241.699L211.39 252.692L184.174 236.715C184.238 236.578 184.269 236.429 184.265 236.278C184.267 236.008 184.17 235.748 183.992 235.545C183.814 235.342 183.568 235.212 183.301 235.179V203.239L210.516 187.261C210.615 187.401 210.746 187.515 210.898 187.594C211.05 187.673 211.219 187.714 211.39 187.714C211.561 187.714 211.73 187.673 211.882 187.594C212.034 187.515 212.165 187.401 212.263 187.261L220.758 192.246L239.494 203.239V236.203ZM183.15 237.407C183.321 237.405 183.489 237.363 183.64 237.285C183.792 237.206 183.923 237.094 184.024 236.956L211.254 252.933V284.888C210.985 284.921 210.738 285.051 210.557 285.253C210.377 285.456 210.277 285.717 210.275 285.987C210.275 286.138 210.306 286.286 210.366 286.424L183.015 302.477V334.583C182.831 334.602 182.655 334.667 182.502 334.772C182.349 334.876 182.225 335.017 182.141 335.182C182.056 335.346 182.014 335.529 182.018 335.714C182.022 335.899 182.072 336.08 182.163 336.241C182.254 336.402 182.384 336.537 182.541 336.635C182.698 336.734 182.877 336.791 183.061 336.803C183.246 336.815 183.431 336.78 183.599 336.703C183.767 336.625 183.913 336.507 184.024 336.359L211.254 352.337V384.277C211.064 384.291 210.881 384.354 210.722 384.458C210.563 384.562 210.432 384.704 210.343 384.872C210.254 385.04 210.208 385.228 210.211 385.419C210.213 385.609 210.264 385.795 210.358 385.961C210.452 386.126 210.586 386.265 210.748 386.365C210.91 386.465 211.095 386.522 211.285 386.531C211.475 386.54 211.664 386.502 211.835 386.418C212.006 386.335 212.154 386.209 212.263 386.054L239.494 402.047V433.987C239.226 434.02 238.98 434.15 238.803 434.353C238.625 434.555 238.528 434.816 238.53 435.086C238.53 435.383 238.647 435.668 238.855 435.879C239.064 436.09 239.347 436.211 239.644 436.215C239.817 436.214 239.986 436.17 240.138 436.089C240.291 436.008 240.421 435.891 240.518 435.748L267.733 451.726V484.705L239.629 501.194L212.414 485.217C212.476 485.08 212.507 484.931 212.504 484.78C212.504 484.634 212.475 484.489 212.419 484.354C212.363 484.219 212.281 484.096 212.178 483.992C212.074 483.889 211.952 483.807 211.816 483.751C211.681 483.695 211.536 483.666 211.39 483.666C211.243 483.666 211.098 483.695 210.963 483.751C210.828 483.807 210.705 483.889 210.602 483.992C210.498 484.096 210.416 484.219 210.36 484.354C210.304 484.489 210.275 484.634 210.275 484.78C210.273 484.931 210.304 485.08 210.366 485.217L183.015 501.27V533.375C182.746 533.412 182.5 533.545 182.322 533.751C182.145 533.956 182.048 534.219 182.051 534.49C182.045 534.639 182.071 534.788 182.126 534.926L155.784 550.377C155.687 550.237 155.558 550.123 155.407 550.044C155.256 549.965 155.088 549.924 154.918 549.924C154.748 549.924 154.58 549.965 154.429 550.044C154.279 550.123 154.149 550.237 154.052 550.377L126.837 534.399V502.444C127.106 502.411 127.353 502.282 127.534 502.079C127.714 501.877 127.814 501.616 127.816 501.345C127.809 501.196 127.778 501.048 127.725 500.908L155.076 484.871V452.75C155.223 452.74 155.366 452.701 155.497 452.636C155.628 452.571 155.746 452.481 155.842 452.37C155.939 452.26 156.013 452.131 156.059 451.992C156.106 451.853 156.125 451.707 156.116 451.56C156.106 451.414 156.067 451.271 156.002 451.139C155.937 451.008 155.846 450.891 155.736 450.794C155.625 450.698 155.497 450.624 155.358 450.577C155.219 450.53 155.072 450.511 154.926 450.521C154.757 450.523 154.591 450.566 154.442 450.644C154.293 450.723 154.165 450.835 154.067 450.973L126.837 434.995V403.055C127.107 403.019 127.355 402.886 127.535 402.681C127.715 402.477 127.814 402.214 127.816 401.941C127.812 401.643 127.692 401.358 127.481 401.147C127.27 400.936 126.984 400.816 126.686 400.812C126.516 400.817 126.35 400.862 126.201 400.943C126.052 401.024 125.924 401.139 125.828 401.279L98.5821 385.301V353.346C98.851 353.313 99.0987 353.183 99.2789 352.981C99.4591 352.779 99.5594 352.518 99.5611 352.247C99.5611 351.95 99.4441 351.665 99.2355 351.453C99.027 351.242 98.7435 351.121 98.4465 351.117C98.2738 351.118 98.1038 351.16 97.9515 351.242C97.7992 351.323 97.6692 351.441 97.573 351.584L70.3425 335.607V302.628L98.4465 286.063L125.647 302.04C125.623 302.185 125.623 302.332 125.647 302.477C125.647 302.772 125.764 303.056 125.973 303.265C126.182 303.474 126.466 303.591 126.761 303.591C127.057 303.591 127.34 303.474 127.549 303.265C127.758 303.056 127.876 302.772 127.876 302.477C127.871 302.327 127.84 302.18 127.786 302.04L155.137 285.987V253.957C155.404 253.917 155.648 253.783 155.825 253.579C156.002 253.374 156.1 253.113 156.1 252.843C156.123 252.698 156.123 252.551 156.1 252.406L182.427 236.956C182.512 237.075 182.619 237.177 182.743 237.254C182.867 237.332 183.006 237.384 183.15 237.407ZM268.004 285.897V253.957C268.272 253.924 268.518 253.794 268.696 253.591C268.873 253.388 268.97 253.127 268.968 252.858C268.993 252.708 268.993 252.556 268.968 252.406L296.184 236.444L323.384 252.406C323.322 252.549 323.292 252.703 323.294 252.858C323.295 253.129 323.396 253.39 323.576 253.592C323.756 253.794 324.004 253.924 324.273 253.957V285.897L297.042 301.875C296.943 301.735 296.813 301.621 296.661 301.542C296.509 301.464 296.34 301.423 296.169 301.423C296 301.424 295.834 301.466 295.684 301.544C295.535 301.623 295.407 301.736 295.31 301.875L268.004 285.897ZM239.629 302.387L230.261 296.89L212.414 286.349C212.474 286.211 212.505 286.062 212.504 285.912C212.506 285.64 212.407 285.378 212.226 285.174C212.045 284.971 211.796 284.843 211.525 284.813V252.933L220.893 247.437L239.629 236.444L266.845 252.406C266.784 252.562 266.759 252.729 266.772 252.896C266.785 253.063 266.836 253.224 266.919 253.369C267.003 253.514 267.119 253.637 267.257 253.731C267.395 253.825 267.553 253.887 267.718 253.912V285.852L239.629 302.387ZM239.494 335.607L230.126 341.103L211.39 352.081L184.174 336.119C184.234 335.981 184.265 335.832 184.265 335.682C184.267 335.412 184.17 335.151 183.992 334.949C183.814 334.746 183.568 334.616 183.301 334.583V302.628L210.516 286.65C210.613 286.793 210.743 286.91 210.895 286.991C211.048 287.072 211.217 287.114 211.39 287.114C211.562 287.114 211.732 287.072 211.884 286.991C212.037 286.91 212.167 286.793 212.263 286.65L220.758 291.635L239.494 302.628V335.607ZM266.845 351.81C266.784 351.966 266.759 352.133 266.772 352.3C266.785 352.467 266.836 352.628 266.919 352.773C267.003 352.918 267.119 353.041 267.257 353.135C267.395 353.229 267.553 353.291 267.718 353.316V385.271L239.629 401.791L212.414 385.828C212.474 385.69 212.505 385.542 212.504 385.391C212.506 385.118 212.408 384.853 212.227 384.648C212.047 384.442 211.797 384.31 211.525 384.277V352.337L220.893 346.841L239.629 335.848L266.845 351.81ZM296.124 400.827C295.952 400.827 295.784 400.868 295.632 400.946C295.48 401.025 295.349 401.139 295.25 401.279L286.756 396.294L268.02 385.301V353.346C268.284 353.309 268.527 353.178 268.701 352.975C268.876 352.773 268.971 352.514 268.968 352.247C268.993 352.107 268.993 351.965 268.968 351.825L295.325 336.359C295.422 336.499 295.552 336.613 295.703 336.692C295.853 336.771 296.021 336.812 296.191 336.812C296.362 336.812 296.529 336.771 296.68 336.692C296.831 336.613 296.96 336.499 297.057 336.359L324.288 352.337V385.301L297.057 401.279C296.953 401.13 296.812 401.011 296.649 400.932C296.486 400.853 296.305 400.817 296.124 400.827ZM295.973 434.995L286.605 440.492L267.884 451.485L240.669 435.522C240.729 435.385 240.759 435.236 240.759 435.086C240.757 434.815 240.657 434.554 240.477 434.352C240.297 434.149 240.049 434.019 239.78 433.987V402.031L267.884 385.467L277.252 390.963L295.084 401.429C295.06 401.579 295.06 401.731 295.084 401.881C295.082 402.15 295.179 402.411 295.357 402.614C295.535 402.817 295.781 402.947 296.048 402.98L295.973 434.995ZM324.484 484.69V452.75C324.753 452.717 325 452.587 325.18 452.385C325.361 452.183 325.461 451.921 325.463 451.651C325.463 451.5 325.432 451.352 325.372 451.214L352.588 435.251L380.692 451.726V483.681C380.423 483.714 380.175 483.844 379.995 484.046C379.815 484.248 379.714 484.509 379.713 484.78C379.71 484.931 379.741 485.08 379.803 485.217L352.588 501.194L324.484 484.69ZM296.124 500.201C295.951 500.203 295.782 500.247 295.63 500.328C295.478 500.41 295.348 500.526 295.25 500.667L286.756 495.668L268.02 484.69V451.711L277.388 446.229L296.124 435.236L323.324 451.199C323.264 451.337 323.233 451.485 323.233 451.636C323.235 451.906 323.335 452.167 323.516 452.37C323.696 452.572 323.944 452.702 324.213 452.735V484.69L296.982 500.667C296.884 500.531 296.755 500.419 296.606 500.34C296.457 500.262 296.292 500.219 296.124 500.216V500.201ZM240.669 534.911C240.729 534.774 240.759 534.625 240.759 534.475C240.758 534.202 240.658 533.939 240.478 533.734C240.298 533.529 240.05 533.397 239.78 533.36V501.435L267.884 484.946L277.252 490.442L295.084 500.908C295.06 501.058 295.06 501.21 295.084 501.36C295.082 501.63 295.179 501.891 295.357 502.093C295.535 502.296 295.781 502.426 296.048 502.459V534.399L267.959 550.889L240.669 534.911ZM211.405 550.874L201.977 545.392L184.129 534.926C184.189 534.789 184.22 534.64 184.22 534.49C184.222 534.216 184.123 533.952 183.942 533.746C183.762 533.541 183.512 533.409 183.241 533.375V501.435L210.471 485.458C210.568 485.601 210.698 485.718 210.85 485.799C211.002 485.88 211.172 485.922 211.345 485.922C211.517 485.922 211.687 485.88 211.839 485.799C211.991 485.718 212.122 485.601 212.218 485.458L239.434 501.435V533.375C239.165 533.412 238.919 533.545 238.741 533.751C238.564 533.956 238.467 534.219 238.47 534.49C238.469 534.64 238.5 534.789 238.56 534.926L211.405 550.874ZM239.78 633.788V600.839L267.01 584.862C267.109 585.002 267.24 585.115 267.392 585.194C267.544 585.273 267.713 585.314 267.884 585.314C268.055 585.311 268.222 585.269 268.374 585.191C268.526 585.112 268.657 585 268.758 584.862L295.973 600.839V632.779C295.704 632.812 295.456 632.942 295.276 633.144C295.096 633.347 294.996 633.608 294.994 633.879C294.999 634.028 295.03 634.176 295.084 634.315L267.884 650.278L239.78 633.788ZM155.076 749.923L164.429 744.426L183.165 733.433L210.381 749.396C210.321 749.533 210.29 749.682 210.29 749.832C210.292 750.103 210.392 750.364 210.572 750.567C210.753 750.769 211 750.899 211.269 750.932V782.887L184.039 798.864C183.941 798.722 183.81 798.606 183.658 798.525C183.507 798.444 183.337 798.4 183.165 798.397C182.993 798.402 182.825 798.447 182.674 798.528C182.522 798.609 182.391 798.724 182.292 798.864L155.076 782.887V749.923ZM154.926 683.663L164.324 689.31L182.171 699.776C182.116 699.92 182.09 700.074 182.096 700.228C182.094 700.498 182.191 700.759 182.369 700.961C182.546 701.164 182.792 701.294 183.06 701.327V733.282L173.692 738.779L154.956 749.757L127.725 733.719C127.778 733.579 127.809 733.432 127.816 733.282C127.814 733.012 127.714 732.751 127.534 732.548C127.353 732.346 127.106 732.216 126.837 732.183V700.228L154.926 683.663ZM183.165 633.969L192.533 639.465L210.381 649.931C210.321 650.069 210.29 650.218 210.29 650.368C210.292 650.641 210.391 650.904 210.571 651.108C210.751 651.313 210.999 651.446 211.269 651.482V683.422L184.039 699.4C183.94 699.26 183.809 699.146 183.657 699.068C183.505 698.989 183.336 698.948 183.165 698.948C182.995 698.951 182.827 698.992 182.675 699.071C182.524 699.149 182.392 699.262 182.292 699.4L173.797 694.415L155.076 683.422V651.558C155.344 651.518 155.588 651.384 155.765 651.179C155.942 650.975 156.04 650.714 156.04 650.443C156.063 650.299 156.063 650.151 156.04 650.007L183.165 633.969ZM183.301 600.764L192.669 595.252L210.531 584.786C210.63 584.926 210.761 585.04 210.913 585.119C211.065 585.198 211.234 585.239 211.405 585.239C211.576 585.239 211.745 585.198 211.897 585.119C212.049 585.04 212.18 584.926 212.278 584.786L239.494 600.764V633.728L212.278 649.706C212.182 649.563 212.052 649.446 211.899 649.365C211.747 649.284 211.577 649.242 211.405 649.242C211.232 649.242 211.063 649.284 210.91 649.365C210.758 649.446 210.628 649.563 210.531 649.706L201.977 644.796L183.241 633.803L183.301 600.764ZM155.076 584.018V552.154C155.344 552.121 155.59 551.99 155.768 551.788C155.945 551.585 156.042 551.324 156.04 551.055C156.066 550.91 156.066 550.762 156.04 550.618L182.367 535.152C182.467 535.292 182.598 535.407 182.749 535.488C182.901 535.569 183.069 535.614 183.241 535.619C183.413 535.616 183.582 535.572 183.734 535.491C183.886 535.41 184.016 535.294 184.114 535.152L192.609 540.137L211.345 551.13V583.085C211.076 583.118 210.828 583.248 210.648 583.45C210.468 583.652 210.367 583.913 210.366 584.184C210.365 584.334 210.396 584.483 210.456 584.621L201.977 589.59L183.241 600.583L155.076 584.018ZM13.7128 733.448L23.1109 739.005L40.9583 749.471C40.8982 749.609 40.8675 749.757 40.8679 749.908C40.8727 750.177 40.9741 750.437 41.1537 750.638C41.3333 750.84 41.5792 750.971 41.8469 751.007V782.962L13.7128 799.376L-13.3972 783.414C-13.3676 783.269 -13.3676 783.121 -13.3972 782.977C-13.3989 782.706 -13.4992 782.445 -13.6794 782.243C-13.8595 782.04 -14.1073 781.91 -14.3762 781.878V749.923L13.7128 733.448ZM23.2314 694.732L41.9523 683.739L70.0564 700.303V733.267L42.856 749.17C42.7572 749.03 42.6262 748.916 42.4742 748.837C42.3222 748.759 42.1536 748.718 41.9824 748.718C41.8136 748.719 41.6475 748.76 41.4981 748.839C41.3488 748.918 41.2204 749.031 41.124 749.17L32.6144 744.185L13.8935 733.192V701.252C14.1636 701.219 14.4117 701.086 14.5898 700.88C14.7678 700.674 14.8632 700.41 14.8574 700.138C14.8566 699.988 14.8259 699.839 14.767 699.701L23.2314 694.732ZM-15.5058 650.007C-15.5664 650.162 -15.5911 650.33 -15.5782 650.497C-15.5653 650.663 -15.515 650.825 -15.4311 650.97C-15.3472 651.114 -15.2319 651.238 -15.0936 651.332C-14.9553 651.426 -14.7976 651.488 -14.6322 651.513V683.453L-42.7212 700.017L-69.9366 684.055C-69.8749 683.912 -69.8441 683.758 -69.8463 683.603C-69.8479 683.332 -69.9482 683.071 -70.1284 682.869C-70.3086 682.667 -70.5563 682.537 -70.8252 682.504V650.534L-42.7212 634.044L-15.5058 650.007ZM13.7128 634.044L23.1109 639.616L40.9583 650.082C40.8982 650.22 40.8675 650.368 40.8679 650.519C40.8691 650.791 40.9689 651.054 41.1488 651.259C41.3287 651.464 41.5767 651.597 41.8469 651.633V683.573L32.4789 689.07L14.6164 699.611C14.5176 699.471 14.3867 699.357 14.2347 699.279C14.0827 699.2 13.914 699.159 13.7429 699.159C13.5741 699.16 13.408 699.202 13.2586 699.28C13.1092 699.359 12.9809 699.472 12.8844 699.611L-14.3461 683.498V651.558C-14.0759 651.521 -13.8279 651.389 -13.648 651.184C-13.4681 650.979 -13.3683 650.716 -13.3671 650.443C-13.3544 650.297 -13.3646 650.15 -13.3972 650.007L13.7128 634.044ZM69.1677 600.312C69.1059 600.449 69.075 600.599 69.0774 600.749C69.079 601.02 69.1793 601.281 69.3595 601.483C69.5397 601.685 69.7874 601.815 70.0564 601.848V633.803L42.856 649.781C42.7598 649.637 42.6298 649.52 42.4775 649.438C42.3251 649.357 42.1552 649.314 41.9824 649.314C41.8118 649.314 41.6438 649.357 41.4939 649.438C41.344 649.52 41.2168 649.638 41.124 649.781L32.6144 644.796L13.8935 633.803V601.848C14.161 601.815 14.407 601.685 14.5847 601.482C14.7624 601.279 14.8595 601.018 14.8574 600.749C14.8597 600.599 14.8289 600.449 14.767 600.312L41.9824 584.35L69.1677 600.312ZM98.4315 584.35L107.83 589.922L125.662 600.388C125.638 600.532 125.638 600.68 125.662 600.824C125.664 601.095 125.764 601.356 125.944 601.559C126.124 601.761 126.372 601.891 126.641 601.924V633.879L99.3351 649.781C99.2347 649.638 99.1017 649.521 98.9472 649.44C98.7927 649.359 98.6211 649.316 98.4465 649.314C98.2769 649.319 98.1108 649.364 97.9617 649.445C97.8126 649.526 97.6846 649.641 97.5881 649.781L70.3576 633.803V601.848C70.6265 601.815 70.8742 601.685 71.0544 601.483C71.2346 601.281 71.3349 601.02 71.3365 600.749C71.3389 600.599 71.308 600.449 71.2462 600.312L98.4315 584.35ZM98.567 551.13L107.935 545.633L126.671 534.64L153.886 550.618C153.861 550.762 153.861 550.91 153.886 551.055C153.884 551.324 153.981 551.585 154.159 551.788C154.337 551.99 154.583 552.121 154.85 552.154V584.094L127.575 600.071C127.473 599.931 127.339 599.817 127.185 599.739C127.03 599.66 126.859 599.62 126.686 599.62C126.518 599.622 126.352 599.664 126.203 599.742C126.053 599.821 125.925 599.934 125.828 600.071L117.333 595.087L98.5972 584.094L98.567 551.13ZM70.0564 501.435V533.375C69.7874 533.408 69.5397 533.538 69.3595 533.74C69.1793 533.943 69.079 534.204 69.0774 534.475C69.0752 534.63 69.106 534.784 69.1677 534.926L41.9523 550.889L14.767 534.926C14.8276 534.771 14.8524 534.603 14.8395 534.436C14.8265 534.27 14.7763 534.108 14.6924 533.963C14.6085 533.819 14.4931 533.695 14.3548 533.601C14.2165 533.507 14.0589 533.445 13.8935 533.421V501.435L41.124 485.458C41.2204 485.596 41.3488 485.71 41.4981 485.788C41.6475 485.867 41.8136 485.909 41.9824 485.91C42.1536 485.91 42.3222 485.869 42.4742 485.79C42.6262 485.712 42.7572 485.598 42.856 485.458L70.0564 501.435ZM98.4315 484.946L107.799 490.442L125.632 500.908C125.609 501.053 125.609 501.2 125.632 501.345C125.63 501.617 125.729 501.88 125.91 502.083C126.091 502.286 126.341 502.415 126.611 502.444V534.399L117.243 539.896L98.5068 550.889L71.2462 534.926C71.3068 534.77 71.3312 534.601 71.3174 534.433C71.3036 534.266 71.252 534.103 71.1665 533.958C71.081 533.813 70.9638 533.69 70.8237 533.597C70.6836 533.504 70.5243 533.443 70.3576 533.421V501.435L98.4315 484.946ZM98.567 451.726L107.935 446.244L126.671 435.251L153.886 451.214C153.864 451.359 153.864 451.506 153.886 451.651C153.884 451.92 153.981 452.181 154.159 452.384C154.337 452.586 154.583 452.717 154.85 452.75V484.705L127.575 500.682C127.473 500.541 127.34 500.424 127.186 500.343C127.032 500.262 126.86 500.219 126.686 500.216C126.516 500.221 126.35 500.266 126.201 500.347C126.052 500.428 125.924 500.543 125.828 500.682L117.333 495.683L98.5972 484.705L98.567 451.726ZM71.2462 435.522C71.3062 435.385 71.337 435.236 71.3365 435.086C71.3386 434.812 71.2399 434.548 71.0594 434.342C70.8789 434.137 70.6291 434.005 70.3576 433.971V402.031L98.4616 385.467L125.662 401.429C125.639 401.574 125.639 401.721 125.662 401.866C125.66 402.139 125.759 402.404 125.939 402.61C126.12 402.815 126.369 402.947 126.641 402.98V434.92L117.273 440.417L98.5369 451.41L71.2462 435.522ZM41.9674 386.506C42.1385 386.506 42.3072 386.465 42.4592 386.386C42.6112 386.308 42.7421 386.194 42.8409 386.054L51.3655 391.038L70.1015 402.031V433.987C69.834 434.02 69.588 434.15 69.4103 434.353C69.2326 434.555 69.1356 434.816 69.1376 435.086C69.1355 435.231 69.1664 435.375 69.228 435.507L42.8711 450.973C42.7722 450.833 42.6413 450.719 42.4893 450.641C42.3373 450.562 42.1686 450.521 41.9975 450.521C41.8287 450.522 41.6626 450.564 41.5132 450.642C41.3638 450.721 41.2355 450.834 41.139 450.973L13.8784 434.995V402.031L41.1089 386.054C41.2054 386.192 41.3337 386.306 41.4831 386.384C41.6325 386.463 41.7986 386.505 41.9674 386.506ZM42.118 352.337L51.486 346.841L70.207 335.848L97.4224 351.81C97.3623 351.948 97.3315 352.096 97.332 352.247C97.3336 352.518 97.434 352.779 97.6141 352.981C97.7943 353.183 98.042 353.313 98.311 353.346V385.301L70.207 401.791L60.8389 396.294L42.9915 385.828C43.0521 385.672 43.0769 385.505 43.064 385.338C43.051 385.171 43.0008 385.01 42.9169 384.865C42.833 384.721 42.7176 384.597 42.5793 384.503C42.441 384.409 42.2834 384.347 42.118 384.322V352.337ZM13.5923 302.643V334.598C13.3248 334.631 13.0788 334.761 12.9011 334.964C12.7233 335.167 12.6263 335.427 12.6284 335.697C12.6279 335.847 12.6587 335.996 12.7187 336.134L-14.4967 352.081L-42.6007 335.607V303.652C-42.3318 303.619 -42.0841 303.489 -41.9039 303.286C-41.7237 303.084 -41.6234 302.823 -41.6217 302.552C-41.6194 302.402 -41.6503 302.253 -41.7121 302.116L-14.4967 286.138L13.5923 302.643ZM41.9674 287.132C42.1396 287.129 42.3087 287.085 42.4606 287.004C42.6125 286.923 42.7429 286.807 42.8409 286.665L51.3655 291.635L70.1015 302.628V335.607L60.7335 341.103L41.9975 352.081L14.767 336.119C14.82 335.979 14.8505 335.831 14.8574 335.682C14.8557 335.411 14.7555 335.15 14.5753 334.948C14.3951 334.745 14.1474 334.616 13.8784 334.583V302.628L41.1089 286.65C41.2046 286.79 41.3324 286.906 41.4817 286.987C41.631 287.068 41.7975 287.113 41.9674 287.117V287.132ZM97.4224 252.421C97.3623 252.559 97.3315 252.708 97.332 252.858C97.3332 253.13 97.433 253.393 97.6129 253.598C97.7928 253.803 98.0408 253.936 98.311 253.972V285.912L70.207 302.387L60.8389 296.89L42.9915 286.349C43.0521 286.193 43.0769 286.026 43.064 285.859C43.051 285.692 43.0008 285.531 42.9169 285.386C42.833 285.241 42.7176 285.117 42.5793 285.023C42.441 284.929 42.2834 284.868 42.118 284.843V252.933L70.207 236.444L97.4224 252.421ZM126.671 236.444L136.024 241.94L153.871 252.481C153.849 252.626 153.849 252.773 153.871 252.918C153.872 253.188 153.97 253.45 154.147 253.654C154.323 253.859 154.568 253.993 154.835 254.032V285.972L127.56 301.875C127.463 301.732 127.333 301.615 127.181 301.534C127.028 301.453 126.859 301.411 126.686 301.411C126.514 301.411 126.344 301.453 126.192 301.534C126.039 301.615 125.909 301.732 125.813 301.875L98.5821 285.897V253.957C98.8523 253.921 99.1002 253.788 99.2802 253.583C99.4601 253.378 99.5599 253.115 99.5611 252.843C99.5615 252.693 99.5308 252.544 99.4707 252.406L126.671 236.444ZM127.695 202.712L136.175 197.742L154.896 186.749L183 203.239V235.179C182.732 235.212 182.486 235.342 182.308 235.545C182.131 235.748 182.034 236.008 182.036 236.278C182.003 236.422 182.003 236.571 182.036 236.715L155.694 252.18C155.599 252.037 155.47 251.92 155.319 251.839C155.168 251.758 154.999 251.715 154.828 251.715C154.656 251.715 154.487 251.758 154.336 251.839C154.185 251.92 154.057 252.037 153.962 252.18L145.467 247.196L126.731 236.203V204.263C127 204.223 127.246 204.09 127.426 203.886C127.605 203.681 127.706 203.42 127.71 203.148C127.733 203.004 127.733 202.856 127.71 202.712H127.695ZM98.311 153.529V186.493L71.0805 202.486C70.9839 202.343 70.8538 202.226 70.7015 202.145C70.5492 202.064 70.3794 202.022 70.207 202.022C70.0345 202.022 69.8647 202.064 69.7124 202.145C69.5601 202.226 69.43 202.343 69.3334 202.486L42.118 186.493V154.553C42.3855 154.52 42.6315 154.39 42.8092 154.187C42.9869 153.984 43.084 153.723 43.0819 153.454C43.0842 153.303 43.0534 153.154 42.9915 153.017L70.207 137.055L98.311 153.529ZM126.671 138.019C126.844 138.017 127.013 137.974 127.165 137.892C127.317 137.811 127.447 137.694 127.545 137.552L136.024 142.536L154.76 153.529V186.493L145.392 192.005L127.545 202.546C127.448 202.403 127.318 202.286 127.166 202.205C127.013 202.124 126.843 202.082 126.671 202.082C126.499 202.082 126.329 202.124 126.176 202.205C126.024 202.286 125.894 202.403 125.798 202.546L98.5821 186.493V153.529L125.813 137.552C125.908 137.692 126.036 137.808 126.185 137.889C126.335 137.97 126.501 138.014 126.671 138.019ZM154.896 88.3241C155.067 88.3242 155.235 88.2832 155.387 88.2045C155.539 88.1259 155.67 88.012 155.769 87.8723L164.264 92.8568L183 103.85V135.79C182.731 135.826 182.485 135.96 182.307 136.165C182.13 136.37 182.033 136.633 182.036 136.904C182.006 137.048 182.006 137.197 182.036 137.341L154.82 153.303L145.467 147.807L127.62 137.266C127.673 137.126 127.703 136.978 127.71 136.829C127.709 136.556 127.609 136.293 127.429 136.088C127.249 135.884 127.001 135.751 126.731 135.714V103.835L153.962 87.8573C154.068 88.0079 154.211 88.1286 154.377 88.2077C154.543 88.2869 154.727 88.3217 154.911 88.309L154.896 88.3241ZM155.046 54.1403L164.414 48.6438L183.135 37.6659L210.351 53.6283C210.29 53.7661 210.26 53.9148 210.26 54.065C210.262 54.3359 210.362 54.597 210.542 54.7993C210.722 55.0016 210.97 55.1314 211.239 55.1643V87.1043L183.135 103.669L173.767 98.1726L155.935 87.6314C155.957 87.4816 155.957 87.3293 155.935 87.1796C155.937 86.9101 155.84 86.6492 155.662 86.4465C155.484 86.2438 155.238 86.1135 154.971 86.0803L155.046 54.1403ZM154.896 -11.0798C155.067 -11.0798 155.235 -11.1208 155.387 -11.1994C155.539 -11.278 155.67 -11.3919 155.769 -11.5316L183.015 4.43083V37.3948L173.647 42.8913L154.911 53.8241L127.71 37.8616C127.763 37.7218 127.794 37.5744 127.801 37.4249C127.799 37.154 127.699 36.893 127.518 36.6907C127.338 36.4883 127.091 36.3586 126.822 36.3256V4.43083L154.052 -11.5467C154.149 -11.409 154.278 -11.2964 154.427 -11.2179C154.576 -11.1393 154.742 -11.0972 154.911 -11.0949L154.896 -11.0798Z" fill="white"/>
</g>
</svg>
