<svg width="279" height="544" viewBox="0 0 279 544" fill="none" xmlns="http://www.w3.org/2000/svg">
<g opacity="0.7">
<g opacity="0.1">
<path opacity="0.3" d="M183.84 398.261L158.121 413.348L132.388 398.261V368.058L158.121 352.971L183.84 368.058V398.261Z" fill="#0C478B"/>
<path opacity="0.6" d="M156.81 350.664L131.077 365.765L105.344 350.664V320.475L131.077 305.374L156.81 320.475V350.664Z" fill="#0C478B"/>
<path opacity="0.3" d="M183.84 303.065L158.121 318.166L132.388 303.065V272.876L158.121 257.775L183.84 272.876V303.065Z" fill="#0C478B"/>
<path opacity="0.1" d="M210.884 445.845L185.151 460.947L159.432 445.845V415.657L185.151 400.555L210.884 415.657V445.845Z" fill="#0C478B"/>
<path opacity="0.3" d="M237.925 588.624L212.192 603.726L186.458 588.624V558.436L212.192 543.335L237.925 558.436V588.624Z" fill="#0C478B"/>
<path opacity="0.6" d="M291.999 588.624L266.266 603.726L240.547 588.624V558.436L266.266 543.335L291.999 558.436V588.624Z" fill="#0C478B"/>
<path opacity="0.3" d="M264.955 445.845L239.236 460.947L213.503 445.845V415.657L239.236 400.555L264.955 415.657V445.845Z" fill="#0C478B"/>
<path opacity="0.6" d="M237.925 398.261L212.192 413.348L186.458 398.261V368.058L212.192 352.971L237.925 368.058V398.261Z" fill="#0C478B"/>
<path opacity="0.6" d="M237.925 493.443L212.192 508.53L186.458 493.443V463.24L212.192 448.153L237.925 463.24V493.443Z" fill="#0C478B"/>
<path opacity="0.3" d="M183.84 493.443L158.121 508.53L132.388 493.443V463.24L158.121 448.153L183.84 463.24V493.443Z" fill="#0C478B"/>
<path opacity="0.6" d="M129.766 493.443L104.033 508.53L78.2994 493.443V463.24L104.033 448.153L129.766 463.24V493.443Z" fill="#0C478B"/>
<path opacity="0.1" d="M264.955 350.664L239.236 365.751L213.503 350.664V320.461L239.236 305.374L264.955 320.461V350.664Z" fill="#0C478B"/>
<path opacity="0.1" d="M156.81 541.027L131.077 556.129L105.344 541.027V510.839L131.077 495.752L156.81 510.839V541.027Z" fill="#0C478B"/>
<path opacity="0.6" d="M129.766 588.624L104.033 603.726L78.2994 588.624V558.436L104.033 543.335L129.766 558.436V588.624Z" fill="#0C478B"/>
<path opacity="0.1" d="M210.884 255.482L185.151 270.569L159.432 255.482V225.279L185.151 210.192L210.884 225.279V255.482Z" fill="#0C478B"/>
<path opacity="0.6" d="M237.925 303.065L212.192 318.166L186.458 303.065V272.876L212.192 257.775L237.925 272.876V303.065Z" fill="#0C478B"/>
<path opacity="0.1" d="M264.955 541.027L239.236 556.129L213.503 541.027V510.839L239.236 495.752L264.955 510.839V541.027Z" fill="#0C478B"/>
</g>
<path d="M187.955 206.387H187.884L161.111 222.059V253.686L187.77 269.357V300.557L161.054 316.229V347.571L134.466 363.242L107.75 347.571L80.9622 363.242V394.742L107.735 410.413H107.807L134.452 394.742L161.04 410.327V441.527L134.537 457.199L107.821 441.527L81.0334 457.199V488.541L54.4027 504.227L27.6864 488.555L0.913208 504.227V535.726L27.7007 551.397L54.3599 535.726L80.9337 551.397V582.583L54.2175 598.254V629.753L80.9907 645.425L107.778 629.753V598.411L134.48 582.74V551.326L107.835 535.655V504.455L134.409 488.783L161.125 504.455L187.898 488.783V457.441L214.472 441.841L241.06 457.441V488.627L214.344 504.298V535.797L240.989 551.468V582.811H241.06L267.833 598.482H267.905L294.678 582.811V551.326H294.607L267.962 535.655V504.455L294.55 488.783L321.266 504.455L348.053 488.783V457.284H347.982L321.209 441.613H321.138L294.493 457.284L267.905 441.698V410.498L294.82 394.827L321.537 410.498L348.324 394.827V363.485L374.898 347.813L401.614 363.485L428.387 347.813V316.229H428.316L401.685 300.415H401.614L374.969 316.086L348.381 300.557V269.357L375.083 253.686V222.187L348.296 206.516L321.508 222.187V253.529L294.806 269.201V300.7L321.451 316.371V347.571L294.877 363.242L268.161 347.571H268.09L241.317 363.242V394.585L214.729 410.171L188.098 394.599V363.399L214.814 347.728V316.385L241.53 300.714V269.201L214.885 253.529V222.187L187.955 206.387ZM348.224 269.072L339.362 263.872L321.651 253.472V222.344L348.224 206.672L374.812 222.344V253.529L348.224 269.072ZM348.096 300.5L339.233 305.686L321.537 316.086L294.949 300.557V269.357L321.537 253.772L330.442 258.972L348.153 269.357L348.096 300.5ZM375.069 347.514V316.385L401.657 300.714L428.231 316.385V347.571L401.657 363.242L375.069 347.514ZM348.224 363.185L339.362 357.985L321.651 347.585V316.385L330.513 311.185L348.224 300.785L374.812 316.457V347.571L348.224 363.185ZM294.934 394.613V363.413L321.522 347.742L330.385 352.942L348.096 363.342V394.542L321.522 410.128L294.934 394.613ZM268.09 410.199L259.199 404.985L241.488 394.599V363.399L268.061 347.728L294.649 363.399V394.599L268.09 410.199ZM294.934 488.641V457.441L321.522 441.841L348.096 457.441V488.627L321.522 504.227L294.934 488.641ZM241.53 551.483L250.379 546.283L268.104 535.883L294.692 551.554V582.74L268.104 598.34L241.53 582.668V551.483ZM241.388 488.798L250.251 493.998L267.976 504.398V535.598L259.113 540.783L241.388 551.183L214.814 535.598V504.398L241.388 488.798ZM241.53 457.384L250.379 452.184L268.104 441.784L294.692 457.384V488.57L268.104 504.17L259.199 499.027L241.488 488.627L241.53 457.384ZM214.814 441.556V410.356L241.388 394.77L250.251 399.97L267.976 410.356V441.556L259.113 446.756L241.388 457.142L214.814 441.556ZM81.0904 582.896L89.9531 588.096L107.678 598.496V629.682L81.0904 645.282L54.5309 629.682V598.496L81.0904 582.896ZM81.2329 551.554L90.0956 546.354L107.807 535.954L134.395 551.625V582.811L107.821 598.254L98.9583 593.068L81.2472 582.668L81.2329 551.554ZM54.246 504.54V535.74L27.6722 551.326L1.08419 535.74V504.54L27.6722 488.869L54.246 504.54ZM81.0904 488.869L89.9531 494.069L107.678 504.469V535.669L98.8158 540.855L81.0904 551.24L54.5309 535.655V504.455L81.0904 488.869ZM134.395 457.455V488.641L107.821 504.227L98.9583 499.027L81.2472 488.627V457.441L107.821 441.841L134.395 457.455ZM161.239 441.855L170.102 447.055L187.827 457.455V488.641L161.253 504.227L134.665 488.627V457.441L161.239 441.855ZM161.367 410.427L170.23 405.241L187.955 394.827L214.529 410.413V441.613L187.955 457.199L179.093 452.013L161.367 441.613V410.427ZM134.395 363.413V394.613L107.821 410.185L81.2472 394.599V363.399L107.821 347.728L134.395 363.413ZM161.239 347.742L170.102 352.942L187.827 363.342V394.542L178.965 399.728L161.239 410.128L134.665 394.599V363.399L161.239 347.742ZM187.955 300.728L196.804 305.928L214.529 316.328V347.571L187.955 363.171L179.093 357.971L161.367 347.571V316.385L187.955 300.728ZM188.084 269.3L196.946 264.115L214.657 253.715L241.245 269.3V300.5L214.672 316.086L205.823 310.9L188.098 300.557L188.084 269.3ZM187.955 206.743L214.529 222.415V253.529L205.666 258.729L187.955 269.072L161.367 253.401V222.344L187.955 206.743Z" fill="#0C478B"/>
<path d="M214.67 221.204C214.393 221.207 214.129 221.32 213.934 221.517C213.739 221.715 213.63 221.981 213.63 222.258C213.607 222.399 213.607 222.544 213.63 222.685L187.84 237.858V268.246C187.586 268.277 187.351 268.4 187.181 268.591C187.01 268.783 186.916 269.03 186.914 269.286C186.914 269.567 187.025 269.836 187.222 270.036C187.419 270.236 187.687 270.351 187.968 270.354C188.132 270.353 188.292 270.312 188.436 270.235C188.58 270.158 188.703 270.047 188.795 269.913L214.542 285.028V315.26C214.289 315.291 214.056 315.414 213.888 315.606C213.72 315.798 213.628 316.045 213.63 316.3C213.609 316.441 213.609 316.585 213.63 316.727L187.84 331.9V362.273C187.583 362.305 187.347 362.43 187.176 362.624C187.005 362.818 186.912 363.069 186.914 363.328C186.914 363.47 186.943 363.61 186.999 363.741L161.252 378.842L134.536 363.171L108.646 378.358C108.553 378.226 108.429 378.118 108.285 378.043C108.141 377.969 107.982 377.93 107.82 377.93C107.54 377.913 107.265 378.008 107.055 378.194C106.846 378.38 106.718 378.641 106.701 378.92C106.684 379.2 106.779 379.475 106.965 379.685C107.15 379.894 107.412 380.022 107.691 380.039V410.413L133.496 425.557C133.439 425.687 133.41 425.828 133.41 425.97C133.41 426.249 133.521 426.518 133.719 426.715C133.917 426.913 134.185 427.024 134.465 427.024C134.744 427.024 135.012 426.913 135.21 426.715C135.408 426.518 135.519 426.249 135.519 425.97C135.519 425.828 135.49 425.687 135.434 425.557L161.181 410.455L186.914 425.557C186.892 425.694 186.892 425.833 186.914 425.97C186.915 426.228 187.009 426.477 187.18 426.67C187.35 426.864 187.585 426.99 187.84 427.024V457.241L162.079 472.4C161.984 472.267 161.86 472.158 161.717 472.082C161.574 472.005 161.415 471.963 161.252 471.958C161.089 471.961 160.929 472.002 160.786 472.079C160.642 472.156 160.518 472.266 160.426 472.4L134.536 457.198L107.748 472.87V503.243C107.494 503.275 107.26 503.397 107.089 503.589C106.919 503.78 106.824 504.027 106.822 504.283C106.827 504.43 106.856 504.574 106.908 504.711L81.0891 519.898L54.3871 504.226L28.5116 519.413C28.4165 519.283 28.2923 519.176 28.1488 519.102C28.0054 519.028 27.8466 518.988 27.6852 518.986C27.5455 518.986 27.4072 519.014 27.2783 519.067C27.1495 519.121 27.0326 519.2 26.9345 519.3C26.8364 519.399 26.759 519.517 26.7069 519.647C26.6547 519.776 26.6289 519.915 26.6307 520.054C26.6323 520.311 26.7272 520.558 26.8977 520.749C27.0681 520.94 27.3025 521.063 27.5569 521.094V551.482L54.3444 567.154L80.1772 551.995C80.2691 552.128 80.3915 552.236 80.5342 552.31C80.6769 552.385 80.8355 552.424 80.9965 552.424C81.1575 552.424 81.3162 552.385 81.4588 552.31C81.6015 552.236 81.724 552.128 81.8158 551.995L107.577 567.111V597.328C107.323 597.359 107.089 597.482 106.918 597.673C106.748 597.865 106.653 598.112 106.651 598.368C106.656 598.514 106.685 598.658 106.737 598.795L80.9752 614.011V645.51L106.779 660.654C106.729 660.786 106.7 660.926 106.694 661.067C106.694 661.347 106.805 661.615 107.003 661.813C107.201 662.01 107.469 662.121 107.748 662.121C108.028 662.121 108.296 662.01 108.494 661.813C108.692 661.615 108.803 661.347 108.803 661.067C108.803 660.925 108.774 660.784 108.717 660.654L133.638 646.037C133.736 646.168 133.863 646.274 134.009 646.348C134.155 646.423 134.315 646.462 134.479 646.464C134.642 646.463 134.802 646.422 134.946 646.345C135.09 646.268 135.213 646.158 135.305 646.023L161.067 661.138V692.338L134.55 707.981L108.803 692.866C108.861 692.736 108.89 692.595 108.888 692.452C108.888 692.173 108.777 691.905 108.579 691.707C108.382 691.509 108.114 691.398 107.834 691.398C107.554 691.398 107.286 691.509 107.088 691.707C106.891 691.905 106.779 692.173 106.779 692.452C106.777 692.595 106.806 692.736 106.865 692.866L80.9894 708.052V738.426C80.7363 738.458 80.5036 738.581 80.3355 738.773C80.1674 738.964 80.0755 739.211 80.0775 739.466C80.0736 739.747 80.1806 740.018 80.3753 740.221C80.57 740.424 80.8367 740.541 81.1176 740.549C81.2808 740.547 81.4412 740.506 81.5851 740.43C81.729 740.353 81.8521 740.242 81.9441 740.107L107.834 755.294L133.652 740.136C133.744 740.271 133.867 740.382 134.011 740.458C134.155 740.535 134.316 740.575 134.479 740.575C134.642 740.575 134.803 740.535 134.947 740.458C135.091 740.382 135.214 740.271 135.305 740.136L161.067 755.251V786.437L135.377 801.524C135.283 801.392 135.159 801.284 135.016 801.21C134.872 801.135 134.712 801.096 134.55 801.096C134.388 801.096 134.229 801.135 134.085 801.21C133.941 801.284 133.817 801.392 133.724 801.524L107.834 786.337L81.9441 801.524C81.8514 801.391 81.7278 801.283 81.5837 801.208C81.4398 801.134 81.2798 801.096 81.1176 801.097C80.838 801.08 80.563 801.175 80.3533 801.36C80.1435 801.546 80.0161 801.807 79.9991 802.087C79.9821 802.367 80.0769 802.642 80.2626 802.851C80.4483 803.061 80.7098 803.188 80.9894 803.205V833.437L55.2278 848.552C55.1368 848.417 55.0138 848.305 54.8697 848.228C54.7256 848.151 54.5648 848.111 54.4014 848.111C54.2409 848.116 54.0838 848.158 53.9427 848.235C53.8017 848.312 53.6806 848.42 53.5892 848.552L27.6994 833.351L0.926165 849.022V879.396C0.670534 879.431 0.435965 879.556 0.265744 879.75C0.0955229 879.944 0.00113643 880.193 0 880.45C0.00369035 880.733 0.117465 881.002 0.317081 881.202C0.516698 881.402 0.786374 881.515 1.06865 881.519C1.22846 881.511 1.38441 881.467 1.52498 881.39C1.66555 881.314 1.78715 881.207 1.88082 881.077L27.7706 896.278H27.8419L54.4869 880.607L80.22 895.709C80.1746 895.847 80.1505 895.991 80.1487 896.136C80.1468 896.391 80.2386 896.638 80.4067 896.829C80.5748 897.021 80.8076 897.145 81.0606 897.176V927.393L54.3444 943.064V973.438C54.0648 973.457 53.8041 973.586 53.6197 973.797C53.4353 974.008 53.3424 974.284 53.3612 974.563C53.3801 974.843 53.5093 975.104 53.7204 975.288C53.9315 975.472 54.2072 975.565 54.4869 975.546C54.6466 975.545 54.8037 975.506 54.9451 975.432C55.0864 975.357 55.2078 975.25 55.2991 975.119L81.0891 990.391H81.1604L107.948 974.72V944.261C108.201 944.23 108.434 944.106 108.602 943.915C108.77 943.723 108.862 943.476 108.86 943.221C108.862 943.079 108.833 942.938 108.774 942.808L134.65 927.621V896.122L108.005 880.45V850.233C108.258 850.196 108.489 850.069 108.656 849.875C108.824 849.682 108.916 849.435 108.917 849.179C108.917 849.037 108.888 848.896 108.831 848.766L134.579 833.665L160.326 848.766C160.27 848.925 160.252 849.096 160.274 849.263C160.296 849.431 160.358 849.59 160.454 849.729C160.55 849.868 160.677 849.983 160.826 850.063C160.975 850.143 161.14 850.187 161.309 850.191C161.448 850.189 161.584 850.16 161.712 850.105C161.839 850.05 161.954 849.971 162.051 849.872C162.147 849.773 162.223 849.655 162.274 849.527C162.326 849.398 162.351 849.261 162.349 849.122C162.35 848.98 162.321 848.839 162.264 848.709L188.139 833.522V803.205C188.394 803.174 188.628 803.051 188.799 802.86C188.969 802.669 189.064 802.422 189.066 802.165C189.061 802.024 189.032 801.884 188.98 801.752L214.713 786.651L241.301 802.251V833.437L215.54 848.552C215.449 848.417 215.326 848.305 215.181 848.228C215.037 848.151 214.876 848.111 214.713 848.111C214.448 848.121 214.196 848.229 214.007 848.415C213.817 848.6 213.703 848.849 213.687 849.114C213.671 849.379 213.754 849.64 213.92 849.847C214.086 850.054 214.323 850.191 214.585 850.233V880.45L187.883 896.122V926.51C187.709 926.528 187.542 926.59 187.398 926.689C187.254 926.788 187.136 926.921 187.056 927.077C186.976 927.232 186.936 927.405 186.94 927.58C186.944 927.755 186.991 927.926 187.077 928.079C187.164 928.231 187.287 928.359 187.435 928.452C187.583 928.545 187.752 928.599 187.927 928.61C188.102 928.621 188.276 928.589 188.435 928.516C188.594 928.442 188.732 928.331 188.838 928.191L214.585 943.306V974.649L240.389 989.793C240.334 989.923 240.31 990.065 240.318 990.206C240.316 990.345 240.341 990.482 240.393 990.611C240.444 990.739 240.52 990.857 240.617 990.956C240.713 991.055 240.828 991.134 240.956 991.189C241.083 991.244 241.22 991.273 241.358 991.275C241.639 991.271 241.907 991.157 242.105 990.957C242.302 990.757 242.413 990.487 242.413 990.206C242.416 990.064 242.387 989.922 242.327 989.793L268.203 974.606V944.261C268.482 944.244 268.744 944.117 268.929 943.907C269.115 943.697 269.21 943.422 269.193 943.143C269.176 942.863 269.048 942.602 268.839 942.416C268.629 942.23 268.354 942.135 268.074 942.152C267.911 942.154 267.751 942.195 267.607 942.272C267.463 942.349 267.34 942.459 267.248 942.594L241.529 927.478V897.247C241.784 897.216 242.018 897.093 242.188 896.902C242.359 896.71 242.454 896.464 242.455 896.207C242.456 896.06 242.427 895.915 242.37 895.78L268.245 880.607V850.233C268.501 850.199 268.736 850.073 268.906 849.88C269.076 849.686 269.17 849.437 269.172 849.179C269.172 849.037 269.143 848.896 269.086 848.766L294.819 833.665L321.535 849.336L347.368 834.178C347.459 834.309 347.581 834.416 347.722 834.49C347.863 834.565 348.021 834.604 348.18 834.605C348.46 834.622 348.735 834.527 348.945 834.341C349.154 834.156 349.282 833.894 349.299 833.615C349.316 833.335 349.221 833.06 349.035 832.851C348.85 832.641 348.588 832.513 348.309 832.496V802.094L322.504 786.95C322.55 786.817 322.574 786.678 322.575 786.537C322.593 786.389 322.579 786.239 322.534 786.098C322.489 785.956 322.415 785.825 322.316 785.714C322.217 785.603 322.096 785.514 321.96 785.453C321.824 785.392 321.677 785.36 321.528 785.36C321.379 785.36 321.232 785.392 321.097 785.453C320.961 785.514 320.839 785.603 320.741 785.714C320.642 785.825 320.567 785.956 320.523 786.098C320.478 786.239 320.464 786.389 320.481 786.537C320.459 786.674 320.459 786.813 320.481 786.95L294.819 802.009L269.072 786.907C269.129 786.777 269.158 786.636 269.157 786.494C269.156 786.238 269.061 785.991 268.89 785.8C268.72 785.608 268.486 785.485 268.231 785.454V755.223L293.993 740.107C294.085 740.241 294.209 740.351 294.353 740.428C294.496 740.505 294.656 740.546 294.819 740.549C294.982 740.544 295.141 740.502 295.284 740.425C295.427 740.348 295.551 740.24 295.646 740.107L321.535 755.294L348.323 739.623V709.178C348.479 709.154 348.628 709.096 348.759 709.007C348.89 708.918 348.999 708.801 349.079 708.664C349.158 708.527 349.206 708.374 349.218 708.217C349.23 708.059 349.207 707.901 349.149 707.753L374.897 692.652L401.613 708.323H401.684L427.503 693.165C427.596 693.297 427.72 693.405 427.864 693.479C428.008 693.553 428.167 693.592 428.329 693.592C428.609 693.609 428.884 693.514 429.093 693.329C429.303 693.143 429.431 692.882 429.448 692.602C429.465 692.322 429.37 692.048 429.184 691.838C428.998 691.628 428.737 691.501 428.457 691.484V661.024L401.684 645.353H401.613L375.794 660.497C375.701 660.365 375.577 660.257 375.433 660.183C375.289 660.108 375.13 660.069 374.968 660.069C374.806 660.069 374.646 660.108 374.502 660.183C374.359 660.257 374.235 660.365 374.141 660.497L348.394 645.353V615.136C348.647 615.105 348.88 614.981 349.048 614.79C349.216 614.598 349.308 614.351 349.306 614.096C349.306 613.951 349.282 613.806 349.235 613.669L375.096 598.496V566.997L349.292 551.853C349.337 551.72 349.361 551.58 349.363 551.44C349.38 551.292 349.366 551.142 349.321 551C349.277 550.858 349.202 550.728 349.103 550.616C349.004 550.505 348.883 550.416 348.747 550.355C348.612 550.295 348.464 550.263 348.316 550.263C348.167 550.263 348.02 550.295 347.884 550.355C347.748 550.416 347.627 550.505 347.528 550.616C347.429 550.728 347.355 550.858 347.31 551C347.265 551.142 347.251 551.292 347.268 551.44C347.247 551.577 347.247 551.716 347.268 551.853L322.362 566.47C322.264 566.339 322.137 566.232 321.991 566.158C321.845 566.084 321.685 566.045 321.521 566.042C321.358 566.043 321.197 566.083 321.053 566.16C320.909 566.237 320.786 566.348 320.695 566.484L294.933 551.368V520.168L321.521 504.497L347.254 519.613C347.203 519.745 347.174 519.884 347.169 520.026C347.169 520.305 347.28 520.574 347.478 520.771C347.675 520.969 347.943 521.08 348.223 521.08C348.503 521.08 348.771 520.969 348.969 520.771C349.166 520.574 349.277 520.305 349.277 520.026C349.3 519.889 349.3 519.749 349.277 519.613L375.139 504.426V474.081C375.393 474.049 375.628 473.927 375.798 473.735C375.969 473.544 376.063 473.297 376.065 473.041C376.067 472.9 376.041 472.761 375.989 472.631C375.937 472.5 375.86 472.381 375.762 472.281C375.664 472.18 375.547 472.1 375.418 472.045C375.289 471.989 375.151 471.96 375.011 471.958C374.848 471.963 374.689 472.005 374.546 472.082C374.402 472.158 374.279 472.267 374.184 472.4L348.252 457.198H348.18L322.348 472.357C322.257 472.224 322.136 472.115 321.995 472.038C321.854 471.961 321.696 471.919 321.535 471.915C321.372 471.918 321.212 471.959 321.069 472.036C320.925 472.113 320.802 472.223 320.709 472.357L294.947 457.241V426.098L320.709 410.982C320.802 411.115 320.926 411.222 321.07 411.297C321.214 411.371 321.373 411.41 321.535 411.41C321.695 411.409 321.852 411.369 321.994 411.295C322.135 411.221 322.256 411.113 322.348 410.982L348.237 426.169L374.056 411.025C374.151 411.156 374.275 411.262 374.419 411.336C374.562 411.411 374.721 411.45 374.882 411.453C375.162 411.47 375.437 411.375 375.647 411.189C375.856 411.003 375.984 410.742 376.001 410.462C376.018 410.183 375.923 409.908 375.737 409.698C375.552 409.488 375.29 409.361 375.011 409.344V379.07L400.772 363.954C400.864 364.089 400.987 364.2 401.131 364.277C401.275 364.354 401.435 364.395 401.599 364.396C401.761 364.391 401.92 364.349 402.064 364.272C402.207 364.195 402.331 364.087 402.425 363.954L428.315 379.156L455.102 363.484V333.025C455.365 332.982 455.602 332.843 455.768 332.635C455.933 332.427 456.015 332.164 455.997 331.899C455.979 331.634 455.863 331.384 455.671 331.2C455.479 331.016 455.226 330.91 454.96 330.902C454.799 330.906 454.642 330.948 454.5 331.025C454.359 331.102 454.238 331.211 454.148 331.344L428.386 316.086H428.315L401.67 331.757L375.922 316.656C375.978 316.52 376.007 316.375 376.008 316.228C376.006 315.972 375.911 315.725 375.741 315.534C375.571 315.342 375.336 315.22 375.082 315.188V285.043L401.798 269.371V238.983C401.936 238.974 402.072 238.937 402.196 238.876C402.32 238.814 402.431 238.729 402.523 238.624C402.614 238.52 402.684 238.398 402.728 238.267C402.773 238.135 402.791 237.996 402.781 237.858C402.772 237.719 402.735 237.584 402.674 237.46C402.612 237.336 402.527 237.225 402.422 237.133C402.317 237.042 402.196 236.972 402.065 236.928C401.933 236.883 401.794 236.865 401.656 236.875C401.496 236.877 401.339 236.917 401.198 236.991C401.057 237.065 400.935 237.172 400.843 237.302L374.954 222.058L348.166 237.73V268.246C347.91 268.28 347.676 268.406 347.506 268.6C347.335 268.793 347.241 269.042 347.24 269.3C347.246 269.437 347.275 269.572 347.325 269.699L321.393 284.886V316.385L348.038 332.056V362.273C347.782 362.308 347.548 362.433 347.377 362.627C347.207 362.821 347.113 363.07 347.112 363.328C347.118 363.469 347.147 363.608 347.197 363.741L321.464 378.842L295.717 363.741C295.775 363.606 295.804 363.46 295.802 363.313C295.802 363.175 295.775 363.038 295.722 362.91C295.669 362.782 295.591 362.666 295.493 362.568C295.396 362.47 295.279 362.392 295.151 362.339C295.023 362.286 294.886 362.259 294.748 362.259C294.609 362.259 294.472 362.286 294.344 362.339C294.216 362.392 294.1 362.47 294.002 362.568C293.904 362.666 293.827 362.782 293.774 362.91C293.721 363.038 293.693 363.175 293.693 363.313C293.693 363.455 293.722 363.596 293.779 363.727L267.975 378.913V409.301C267.72 409.333 267.486 409.455 267.315 409.647C267.145 409.838 267.05 410.085 267.048 410.341C267.048 410.484 267.077 410.624 267.134 410.755L241.387 425.856L214.813 410.185V379.07L240.574 363.954C240.662 364.09 240.783 364.201 240.924 364.278C241.066 364.355 241.225 364.396 241.387 364.396C241.668 364.392 241.936 364.278 242.133 364.078C242.33 363.878 242.441 363.609 242.441 363.328C242.443 363.071 242.352 362.822 242.184 362.628C242.016 362.434 241.783 362.308 241.529 362.273V332.056L268.231 316.385V285.997C268.405 285.979 268.572 285.917 268.716 285.818C268.86 285.719 268.978 285.586 269.058 285.43C269.138 285.275 269.178 285.101 269.174 284.927C269.17 284.752 269.123 284.58 269.037 284.428C268.95 284.276 268.827 284.148 268.679 284.055C268.531 283.962 268.362 283.908 268.187 283.897C268.012 283.885 267.838 283.918 267.679 283.991C267.52 284.064 267.381 284.176 267.276 284.316L241.529 269.2V237.858L215.654 222.685C215.676 222.544 215.676 222.399 215.654 222.258C215.654 221.99 215.553 221.732 215.37 221.536C215.188 221.341 214.937 221.222 214.67 221.204ZM374.954 284.743L366.062 279.6L349.178 269.628C349.235 269.497 349.264 269.357 349.263 269.215C349.265 268.96 349.173 268.713 349.005 268.521C348.837 268.329 348.604 268.206 348.351 268.175V238.015L374.925 222.343L400.672 237.459C400.614 237.589 400.585 237.73 400.587 237.872C400.588 238.128 400.683 238.375 400.854 238.567C401.024 238.758 401.259 238.881 401.513 238.912V269.215L374.954 284.743ZM365.963 321.371L348.237 331.771L321.664 316.1V285.043L347.425 269.927C347.519 270.059 347.643 270.167 347.786 270.241C347.93 270.316 348.09 270.354 348.252 270.354C348.411 270.353 348.568 270.314 348.71 270.24C348.851 270.165 348.973 270.058 349.064 269.927L357.1 274.643L374.825 285.043V315.26C374.57 315.294 374.335 315.42 374.165 315.613C373.995 315.807 373.9 316.056 373.899 316.314C373.906 316.451 373.935 316.585 373.985 316.713L365.963 321.371ZM402.639 363.684C402.697 363.549 402.726 363.403 402.724 363.256C402.723 363 402.628 362.753 402.457 362.562C402.287 362.37 402.052 362.248 401.798 362.216V332.056L428.386 316.385L454.119 331.486C454.072 331.624 454.048 331.768 454.048 331.914C454.046 332.169 454.138 332.416 454.306 332.607C454.474 332.799 454.707 332.922 454.96 332.954V363.242L428.386 378.913L402.639 363.684ZM374.954 378.785L366.062 373.642L349.178 363.67C349.235 363.539 349.264 363.399 349.263 363.256C349.266 363 349.174 362.751 349.006 362.557C348.839 362.363 348.606 362.237 348.351 362.202V332.056L357.214 326.856L374.099 316.884C374.195 317.016 374.322 317.124 374.468 317.198C374.614 317.272 374.775 317.311 374.939 317.311C375.098 317.307 375.254 317.266 375.395 317.192C375.536 317.118 375.658 317.012 375.751 316.884L401.513 331.999V362.216C401.257 362.251 401.023 362.376 400.853 362.57C400.682 362.764 400.588 363.013 400.587 363.271C400.586 363.413 400.616 363.553 400.672 363.684L374.954 378.785ZM322.504 410.698C322.526 410.561 322.526 410.421 322.504 410.284C322.506 410.029 322.414 409.783 322.246 409.591C322.078 409.399 321.845 409.276 321.592 409.244V379.07L347.354 363.954C347.442 364.09 347.562 364.201 347.704 364.278C347.846 364.355 348.005 364.396 348.166 364.396C348.329 364.396 348.49 364.355 348.634 364.278C348.779 364.201 348.901 364.09 348.993 363.954L357.029 368.67L374.754 379.07V409.301C374.5 409.333 374.265 409.455 374.095 409.647C373.924 409.838 373.829 410.085 373.828 410.341C373.827 410.484 373.857 410.624 373.913 410.755L348.166 425.856L322.504 410.698ZM294.819 425.856L285.956 420.656L269.072 410.683C269.129 410.553 269.158 410.412 269.157 410.27C269.156 410.014 269.061 409.767 268.89 409.575C268.72 409.384 268.486 409.261 268.231 409.23V379.07L293.993 363.954C294.085 364.089 294.208 364.2 294.352 364.277C294.496 364.354 294.656 364.395 294.819 364.396C294.982 364.391 295.141 364.349 295.284 364.272C295.427 364.195 295.551 364.087 295.646 363.954L321.393 379.07V409.301C321.14 409.333 320.907 409.456 320.739 409.648C320.571 409.84 320.479 410.086 320.481 410.341C320.48 410.484 320.51 410.624 320.566 410.755L294.819 425.856ZM294.691 457.284L285.828 462.484L268.103 472.884L242.356 457.768C242.415 457.639 242.445 457.498 242.441 457.355C242.443 457.1 242.351 456.853 242.183 456.662C242.015 456.47 241.782 456.347 241.529 456.315V426.098L267.276 410.982C267.37 411.115 267.494 411.223 267.637 411.297C267.781 411.372 267.941 411.411 268.103 411.411C268.265 411.411 268.424 411.372 268.568 411.297C268.712 411.223 268.836 411.115 268.929 410.982L276.966 415.698L294.691 426.098V457.284ZM241.387 458.424C241.548 458.421 241.707 458.382 241.85 458.307C241.994 458.233 242.118 458.127 242.213 457.996L267.975 473.112V503.343C267.72 503.374 267.486 503.497 267.315 503.688C267.145 503.88 267.05 504.127 267.048 504.383C267.048 504.525 267.077 504.666 267.134 504.796L241.258 519.983V550.357C241.084 550.375 240.918 550.437 240.773 550.536C240.629 550.635 240.512 550.768 240.432 550.924C240.352 551.079 240.312 551.253 240.315 551.427C240.319 551.602 240.366 551.774 240.453 551.926C240.539 552.078 240.662 552.206 240.81 552.299C240.959 552.392 241.128 552.446 241.303 552.457C241.477 552.469 241.652 552.436 241.811 552.363C241.97 552.29 242.108 552.178 242.213 552.038L267.975 567.154V597.371C267.795 597.384 267.622 597.443 267.471 597.542C267.321 597.64 267.197 597.775 267.113 597.934C267.028 598.093 266.985 598.271 266.987 598.451C266.99 598.631 267.038 598.807 267.127 598.964C267.215 599.12 267.342 599.252 267.496 599.346C267.649 599.44 267.824 599.494 268.004 599.503C268.184 599.512 268.363 599.475 268.524 599.396C268.686 599.317 268.826 599.199 268.929 599.052L294.691 614.182V644.399C294.438 644.43 294.205 644.553 294.037 644.745C293.869 644.937 293.777 645.184 293.779 645.439C293.779 645.72 293.89 645.989 294.087 646.189C294.284 646.389 294.552 646.503 294.833 646.507C294.996 646.506 295.157 646.465 295.301 646.388C295.445 646.311 295.568 646.2 295.66 646.065L321.407 661.181V692.381L294.819 707.981L269.072 692.866C269.13 692.736 269.159 692.595 269.157 692.452C269.157 692.314 269.13 692.177 269.077 692.049C269.024 691.921 268.946 691.805 268.848 691.707C268.751 691.609 268.634 691.531 268.506 691.478C268.378 691.425 268.241 691.398 268.103 691.398C267.964 691.398 267.827 691.425 267.699 691.478C267.571 691.531 267.455 691.609 267.357 691.707C267.259 691.805 267.182 691.921 267.129 692.049C267.076 692.177 267.048 692.314 267.048 692.452C267.046 692.595 267.075 692.736 267.134 692.866L241.258 708.052V738.426C241.004 738.461 240.771 738.587 240.603 738.781C240.435 738.975 240.344 739.224 240.346 739.48C240.341 739.622 240.365 739.762 240.418 739.894L215.497 754.511C215.405 754.378 215.282 754.27 215.14 754.196C214.997 754.121 214.838 754.082 214.677 754.082C214.516 754.082 214.358 754.121 214.215 754.196C214.073 754.27 213.95 754.378 213.858 754.511L188.111 739.395V709.164C188.365 709.133 188.6 709.01 188.77 708.818C188.941 708.627 189.035 708.38 189.037 708.124C189.031 707.982 189.002 707.843 188.952 707.711L214.827 692.538V662.15C214.966 662.141 215.101 662.104 215.225 662.042C215.35 661.981 215.46 661.895 215.552 661.791C215.643 661.686 215.713 661.565 215.757 661.433C215.802 661.302 215.82 661.163 215.81 661.024C215.801 660.886 215.764 660.751 215.703 660.626C215.641 660.502 215.556 660.391 215.451 660.3C215.347 660.209 215.225 660.139 215.094 660.094C214.962 660.05 214.823 660.032 214.685 660.041C214.525 660.044 214.368 660.083 214.227 660.158C214.086 660.232 213.965 660.339 213.872 660.469L188.111 645.353V615.136C188.366 615.102 188.601 614.976 188.771 614.782C188.941 614.589 189.036 614.34 189.037 614.082C189.033 613.8 188.92 613.53 188.72 613.33C188.52 613.131 188.251 613.017 187.968 613.013C187.808 613.018 187.651 613.061 187.51 613.138C187.369 613.214 187.248 613.323 187.156 613.455L161.38 598.339V568.108C161.635 568.077 161.869 567.954 162.04 567.763C162.21 567.571 162.305 567.324 162.307 567.068C162.307 566.787 162.196 566.518 161.999 566.318C161.801 566.118 161.533 566.003 161.252 566C161.089 566 160.928 566.04 160.784 566.117C160.64 566.194 160.517 566.306 160.426 566.441L134.664 551.326V520.126L161.252 504.454L186.985 519.57C186.962 519.707 186.962 519.846 186.985 519.983C186.985 520.263 187.096 520.531 187.294 520.729C187.492 520.926 187.76 521.037 188.04 521.037C188.319 521.037 188.587 520.926 188.785 520.729C188.983 520.531 189.094 520.263 189.094 519.983C189.089 519.842 189.06 519.702 189.009 519.57L214.884 504.383V474.081C215.137 474.043 215.368 473.916 215.536 473.723C215.703 473.529 215.795 473.282 215.796 473.026C215.818 472.89 215.818 472.75 215.796 472.613L240.703 457.996C240.782 458.109 240.884 458.206 241.002 458.279C241.119 458.352 241.25 458.402 241.387 458.424ZM321.664 504.298V474.081C321.917 474.049 322.149 473.926 322.318 473.734C322.486 473.542 322.577 473.296 322.575 473.041C322.598 472.899 322.598 472.755 322.575 472.613L348.323 457.512L374.056 472.613C373.998 472.748 373.968 472.894 373.97 473.041C373.972 473.297 374.067 473.544 374.237 473.735C374.408 473.927 374.642 474.049 374.897 474.081V504.298L349.135 519.413C349.042 519.281 348.918 519.173 348.774 519.099C348.63 519.025 348.47 518.986 348.309 518.986C348.149 518.987 347.992 519.026 347.85 519.101C347.709 519.175 347.588 519.282 347.496 519.413L321.664 504.298ZM294.819 519.898L285.956 514.698L269.072 504.725C269.129 504.595 269.158 504.454 269.157 504.312C269.159 504.055 269.065 503.806 268.894 503.614C268.723 503.422 268.487 503.3 268.231 503.272V473.112L277.094 467.912L294.819 457.512L320.566 472.613C320.509 472.761 320.486 472.919 320.498 473.077C320.51 473.234 320.558 473.387 320.637 473.524C320.716 473.661 320.826 473.778 320.956 473.867C321.087 473.956 321.236 474.014 321.393 474.038V504.255L294.819 519.898ZM294.691 551.326L285.828 556.526L268.103 566.911L242.356 551.81C242.412 551.68 242.441 551.539 242.441 551.397C242.443 551.142 242.351 550.895 242.183 550.703C242.015 550.512 241.782 550.388 241.529 550.357V520.126L267.276 505.01C267.368 505.145 267.491 505.256 267.635 505.332C267.779 505.409 267.94 505.449 268.103 505.449C268.266 505.449 268.427 505.409 268.571 505.332C268.715 505.256 268.838 505.145 268.929 505.01L276.966 509.726L294.691 520.126V551.326ZM320.566 566.655C320.509 566.802 320.486 566.961 320.498 567.119C320.51 567.276 320.558 567.429 320.637 567.566C320.716 567.703 320.826 567.82 320.956 567.909C321.087 567.998 321.236 568.056 321.393 568.08V598.311L294.819 613.939L269.072 598.838C269.129 598.708 269.158 598.567 269.157 598.425C269.159 598.166 269.066 597.916 268.895 597.721C268.724 597.527 268.488 597.402 268.231 597.371V567.154L277.094 561.954L294.819 551.554L320.566 566.655ZM348.266 613.028C348.104 613.028 347.944 613.066 347.801 613.141C347.657 613.215 347.533 613.323 347.439 613.455L339.403 608.739L321.678 598.339V568.108C321.928 568.074 322.158 567.949 322.323 567.757C322.488 567.566 322.578 567.321 322.575 567.068C322.598 566.936 322.598 566.801 322.575 566.669L347.511 552.038C347.602 552.17 347.725 552.278 347.868 552.353C348.01 552.428 348.169 552.466 348.33 552.466C348.491 552.466 348.65 552.428 348.792 552.353C348.935 552.278 349.057 552.17 349.149 552.038L374.911 567.154V598.339L349.149 613.455C349.05 613.315 348.917 613.202 348.763 613.127C348.608 613.052 348.437 613.018 348.266 613.028ZM348.123 645.353L339.261 650.553L321.55 660.953L295.802 645.852C295.859 645.721 295.888 645.581 295.888 645.439C295.886 645.182 295.791 644.935 295.621 644.744C295.45 644.553 295.216 644.43 294.962 644.399V614.167L321.55 598.496L330.412 603.696L347.283 613.598C347.26 613.739 347.26 613.883 347.283 614.025C347.281 614.28 347.373 614.527 347.541 614.718C347.709 614.91 347.942 615.033 348.195 615.065L348.123 645.353ZM375.096 692.367V662.15C375.35 662.119 375.585 661.996 375.755 661.805C375.926 661.613 376.021 661.366 376.022 661.11C376.023 660.968 375.994 660.827 375.937 660.697L401.684 645.595L428.272 661.181V691.412C428.018 691.444 427.783 691.566 427.613 691.758C427.442 691.949 427.347 692.196 427.346 692.452C427.344 692.595 427.373 692.736 427.431 692.866L401.684 707.981L375.096 692.367ZM348.266 707.041C348.103 707.044 347.943 707.085 347.799 707.162C347.656 707.239 347.532 707.349 347.439 707.483L339.403 702.753L321.678 692.367V661.167L330.54 655.981L348.266 645.581L373.999 660.683C373.942 660.813 373.913 660.954 373.913 661.096C373.915 661.352 374.01 661.599 374.18 661.79C374.351 661.982 374.585 662.104 374.84 662.136V692.367L349.078 707.483C348.985 707.353 348.863 707.247 348.722 707.173C348.581 707.099 348.425 707.058 348.266 707.055V707.041ZM295.802 739.879C295.859 739.749 295.888 739.608 295.888 739.466C295.887 739.208 295.792 738.96 295.622 738.766C295.452 738.572 295.217 738.446 294.962 738.412V708.209L321.55 692.609L330.412 697.809L347.283 707.711C347.26 707.852 347.26 707.996 347.283 708.138C347.281 708.393 347.373 708.64 347.541 708.831C347.709 709.023 347.942 709.147 348.195 709.178V739.395L321.621 754.995L295.802 739.879ZM268.117 754.981L259.197 749.795L242.313 739.894C242.37 739.763 242.399 739.623 242.398 739.48C242.4 739.222 242.307 738.971 242.136 738.777C241.965 738.582 241.729 738.458 241.472 738.426V708.209L267.234 693.094C267.325 693.229 267.448 693.339 267.592 693.416C267.736 693.492 267.897 693.532 268.06 693.532C268.223 693.532 268.384 693.492 268.528 693.416C268.672 693.339 268.795 693.229 268.887 693.094L294.634 708.209V738.426C294.38 738.461 294.147 738.587 293.979 738.781C293.811 738.975 293.72 739.224 293.722 739.48C293.721 739.623 293.751 739.763 293.807 739.894L268.117 754.981ZM294.962 833.422V802.251L320.723 787.135C320.817 787.267 320.941 787.375 321.084 787.45C321.228 787.524 321.388 787.563 321.55 787.563C321.711 787.56 321.87 787.521 322.013 787.447C322.157 787.372 322.281 787.266 322.376 787.135L348.123 802.251V832.468C347.869 832.499 347.635 832.622 347.464 832.813C347.294 833.005 347.199 833.252 347.197 833.508C347.202 833.65 347.231 833.789 347.283 833.921L321.55 849.022L294.962 833.422ZM214.827 943.292L223.676 938.092L241.401 927.692L267.148 942.794C267.091 942.924 267.062 943.065 267.063 943.207C267.064 943.463 267.159 943.71 267.33 943.901C267.5 944.093 267.734 944.216 267.989 944.247V974.478L242.227 989.594C242.135 989.46 242.011 989.35 241.867 989.273C241.724 989.196 241.564 989.155 241.401 989.152C241.238 989.157 241.079 989.199 240.936 989.276C240.793 989.353 240.669 989.461 240.574 989.594L214.827 974.478V943.292ZM214.685 880.607L223.576 885.95L240.46 895.851C240.408 895.987 240.384 896.133 240.389 896.278C240.387 896.533 240.479 896.78 240.647 896.972C240.815 897.164 241.048 897.287 241.301 897.318V927.55L232.438 932.75L214.713 943.136L188.952 927.963C189.002 927.831 189.031 927.691 189.037 927.55C189.035 927.293 188.941 927.046 188.77 926.855C188.6 926.664 188.365 926.541 188.111 926.51V896.278L214.685 880.607ZM241.401 833.593L250.264 838.793L267.148 848.695C267.091 848.825 267.062 848.966 267.063 849.108C267.064 849.366 267.158 849.615 267.328 849.808C267.499 850.002 267.733 850.128 267.989 850.162V880.379L242.227 895.495C242.134 895.363 242.01 895.255 241.866 895.181C241.722 895.106 241.563 895.067 241.401 895.068C241.239 895.07 241.081 895.109 240.937 895.184C240.794 895.258 240.67 895.364 240.574 895.495L232.538 890.779L214.827 880.379V850.233C215.08 850.196 215.311 850.069 215.479 849.875C215.646 849.682 215.738 849.435 215.739 849.179C215.761 849.042 215.761 848.903 215.739 848.766L241.401 833.593ZM241.529 802.18L250.392 796.965L267.291 787.064C267.384 787.196 267.508 787.304 267.652 787.379C267.796 787.453 267.955 787.492 268.117 787.492C268.279 787.492 268.439 787.453 268.582 787.379C268.726 787.304 268.85 787.196 268.944 787.064L294.691 802.18V833.365L268.944 848.481C268.852 848.346 268.729 848.235 268.585 848.159C268.441 848.082 268.28 848.042 268.117 848.042C267.954 848.042 267.793 848.082 267.649 848.159C267.505 848.235 267.382 848.346 267.291 848.481L259.197 843.837L241.472 833.437L241.529 802.18ZM214.827 786.337V756.192C215.08 756.16 215.313 756.037 215.481 755.845C215.649 755.653 215.741 755.407 215.739 755.152C215.763 755.015 215.763 754.875 215.739 754.738L240.646 740.107C240.74 740.24 240.864 740.348 241.007 740.425C241.15 740.502 241.31 740.544 241.472 740.549C241.635 740.546 241.795 740.505 241.939 740.428C242.082 740.351 242.206 740.241 242.299 740.107L250.335 744.823L268.06 755.223V785.454C267.806 785.485 267.571 785.608 267.401 785.8C267.23 785.991 267.136 786.238 267.134 786.494C267.134 786.636 267.163 786.777 267.219 786.907L259.197 791.609L241.472 802.009L214.827 786.337ZM81.0891 927.706L89.9803 932.963L106.865 942.865C106.808 942.995 106.779 943.136 106.779 943.278C106.784 943.533 106.88 943.779 107.05 943.969C107.22 944.16 107.452 944.284 107.706 944.318V974.549L81.0891 990.078L55.4415 974.977C55.4696 974.84 55.4696 974.7 55.4415 974.563C55.44 974.307 55.3451 974.06 55.1746 973.869C55.0042 973.677 54.7698 973.555 54.5154 973.523V943.292L81.0891 927.706ZM90.0943 891.078L107.805 880.678L134.393 896.35V927.535L108.66 942.58C108.567 942.448 108.443 942.34 108.299 942.266C108.155 942.191 107.996 942.152 107.834 942.152C107.674 942.153 107.517 942.193 107.376 942.267C107.234 942.342 107.113 942.449 107.022 942.58L98.9712 937.864L81.2601 927.464V897.247C81.5157 897.215 81.7504 897.09 81.9189 896.895C82.0873 896.701 82.1775 896.45 82.172 896.193C82.1713 896.051 82.1422 895.91 82.0865 895.78L90.0943 891.078ZM53.4467 848.766C53.3894 848.913 53.366 849.072 53.3782 849.23C53.3904 849.387 53.438 849.54 53.5174 849.677C53.5967 849.814 53.7059 849.931 53.8367 850.02C53.9675 850.109 54.1167 850.167 54.2732 850.191V880.408L27.6994 896.079L1.95207 880.978C2.01044 880.843 2.03957 880.697 2.03756 880.55C2.036 880.294 1.94111 880.047 1.77065 879.856C1.60019 879.664 1.36583 879.541 1.11139 879.51V849.265L27.6994 833.665L53.4467 848.766ZM81.0891 833.665L89.9803 838.936L106.865 848.837C106.808 848.968 106.779 849.108 106.779 849.25C106.781 849.508 106.875 849.757 107.045 849.951C107.215 850.145 107.45 850.27 107.706 850.305V880.522L98.843 885.722L81.9441 895.694C81.8506 895.562 81.7267 895.454 81.5829 895.38C81.4391 895.306 81.2795 895.267 81.1176 895.267C80.9579 895.268 80.8008 895.307 80.6595 895.382C80.5181 895.456 80.3967 895.563 80.3055 895.694L54.5439 880.45V850.233C54.7995 850.199 55.0341 850.073 55.2043 849.88C55.3745 849.686 55.4689 849.437 55.47 849.179C55.482 849.041 55.4724 848.901 55.4415 848.766L81.0891 833.665ZM133.553 801.752C133.494 801.882 133.465 802.023 133.467 802.165C133.469 802.422 133.564 802.669 133.734 802.86C133.905 803.051 134.139 803.174 134.393 803.205V833.437L108.66 848.552C108.569 848.417 108.446 848.305 108.302 848.228C108.158 848.151 107.997 848.111 107.834 848.111C107.672 848.111 107.514 848.151 107.372 848.228C107.23 848.306 107.11 848.417 107.022 848.552L98.9712 843.837L81.2601 833.437V803.205C81.5132 803.174 81.7459 803.051 81.914 802.859C82.0822 802.667 82.174 802.42 82.172 802.165C82.1742 802.023 82.1451 801.882 82.0865 801.752L107.834 786.651L133.553 801.752ZM161.238 786.651L170.129 791.922L186.999 801.824C186.977 801.96 186.977 802.1 186.999 802.237C187.001 802.493 187.096 802.74 187.266 802.931C187.437 803.123 187.671 803.246 187.926 803.277V833.508L162.093 848.552C161.998 848.417 161.872 848.307 161.726 848.23C161.58 848.153 161.417 848.112 161.252 848.111C161.092 848.116 160.935 848.158 160.793 848.235C160.652 848.312 160.531 848.42 160.44 848.552L134.678 833.437V803.205C134.933 803.174 135.167 803.051 135.338 802.86C135.508 802.669 135.603 802.422 135.605 802.165C135.607 802.023 135.578 801.882 135.519 801.752L161.238 786.651ZM161.366 755.223L170.229 750.023L187.954 739.623L213.701 754.738C213.677 754.875 213.677 755.015 213.701 755.152C213.699 755.407 213.791 755.653 213.959 755.845C214.128 756.037 214.36 756.16 214.613 756.192V786.409L188.809 801.524C188.712 801.392 188.586 801.284 188.44 801.21C188.294 801.136 188.132 801.097 187.968 801.097C187.809 801.099 187.652 801.139 187.511 801.213C187.37 801.288 187.248 801.394 187.156 801.524L179.12 796.809L161.395 786.409L161.366 755.223ZM134.393 708.209V738.426C134.139 738.457 133.905 738.58 133.734 738.772C133.564 738.963 133.469 739.21 133.467 739.466C133.465 739.613 133.494 739.759 133.553 739.894L107.805 754.995L82.0865 739.894C82.1439 739.746 82.1673 739.588 82.1551 739.43C82.1428 739.272 82.0953 739.119 82.0159 738.983C81.9365 738.846 81.8274 738.729 81.6966 738.64C81.5657 738.551 81.4166 738.492 81.2601 738.469V708.209L107.022 693.094C107.113 693.225 107.234 693.332 107.376 693.406C107.517 693.481 107.674 693.52 107.834 693.521C107.996 693.521 108.155 693.482 108.299 693.408C108.443 693.333 108.567 693.226 108.66 693.094L134.393 708.209ZM161.238 692.609L170.101 697.809L186.971 707.711C186.949 707.847 186.949 707.987 186.971 708.124C186.969 708.381 187.063 708.629 187.234 708.822C187.405 709.014 187.641 709.135 187.897 709.164V739.395L179.034 744.595L161.309 754.995L135.519 739.894C135.576 739.745 135.599 739.586 135.586 739.427C135.573 739.268 135.525 739.115 135.444 738.978C135.363 738.841 135.252 738.724 135.119 738.636C134.987 738.547 134.836 738.491 134.678 738.469V708.209L161.238 692.609ZM161.366 661.181L170.229 655.995L187.954 645.595L213.701 660.697C213.68 660.834 213.68 660.973 213.701 661.11C213.699 661.365 213.791 661.612 213.959 661.803C214.128 661.995 214.36 662.118 214.613 662.15V692.381L188.809 707.497C188.713 707.363 188.587 707.253 188.441 707.176C188.295 707.099 188.133 707.058 187.968 707.055C187.808 707.06 187.651 707.103 187.51 707.179C187.369 707.256 187.248 707.365 187.156 707.497L179.12 702.767L161.395 692.381L161.366 661.181ZM135.519 645.852C135.576 645.721 135.605 645.581 135.605 645.439C135.606 645.18 135.513 644.93 135.342 644.735C135.172 644.541 134.935 644.416 134.678 644.384V614.167L161.266 598.496L186.999 613.598C186.978 613.734 186.978 613.874 186.999 614.011C186.998 614.269 187.091 614.52 187.262 614.714C187.432 614.909 187.669 615.033 187.926 615.065V645.282L179.063 650.482L161.338 660.882L135.519 645.852ZM107.82 599.479C107.982 599.479 108.141 599.44 108.285 599.366C108.429 599.292 108.553 599.184 108.646 599.052L116.711 603.767L134.436 614.167V644.399C134.183 644.43 133.95 644.553 133.782 644.745C133.614 644.937 133.522 645.184 133.524 645.439C133.522 645.576 133.551 645.713 133.61 645.838L108.675 660.469C108.581 660.337 108.457 660.229 108.313 660.154C108.17 660.08 108.01 660.041 107.848 660.041C107.688 660.042 107.531 660.082 107.39 660.156C107.249 660.231 107.127 660.338 107.036 660.469L81.2459 645.353V614.167L107.007 599.052C107.099 599.183 107.22 599.29 107.361 599.364C107.503 599.439 107.66 599.478 107.82 599.479ZM107.962 567.154L116.825 561.954L134.536 551.554L160.283 566.655C160.226 566.785 160.197 566.926 160.198 567.068C160.199 567.324 160.294 567.571 160.465 567.763C160.635 567.954 160.869 568.077 161.124 568.108V598.339L134.536 613.939L125.673 608.739L108.789 598.838C108.846 598.691 108.869 598.532 108.857 598.375C108.845 598.217 108.797 598.064 108.718 597.927C108.639 597.79 108.529 597.673 108.399 597.584C108.268 597.495 108.119 597.437 107.962 597.413V567.154ZM80.9752 520.14V550.371C80.7221 550.403 80.4893 550.526 80.3212 550.718C80.1531 550.909 80.0613 551.156 80.0632 551.411C80.0628 551.553 80.0919 551.694 80.1487 551.824L54.4014 566.911L27.8134 551.326V521.094C28.0678 521.063 28.3022 520.94 28.4726 520.749C28.6431 520.558 28.738 520.311 28.7396 520.054C28.7418 519.912 28.7126 519.771 28.6541 519.641L54.4014 504.526L80.9752 520.14ZM107.82 505.466C107.983 505.463 108.143 505.422 108.286 505.345C108.43 505.268 108.553 505.158 108.646 505.024L116.711 509.726L134.436 520.126V551.326L125.573 556.526L107.848 566.911L82.0865 551.81C82.1367 551.678 82.1656 551.538 82.172 551.397C82.1705 551.141 82.0756 550.894 81.9051 550.702C81.7347 550.511 81.5003 550.388 81.2459 550.357V520.126L107.007 505.01C107.098 505.143 107.219 505.252 107.36 505.329C107.501 505.406 107.659 505.448 107.82 505.452V505.466ZM160.283 472.627C160.226 472.758 160.197 472.898 160.198 473.041C160.199 473.298 160.293 473.547 160.463 473.741C160.634 473.935 160.868 474.061 161.124 474.095V504.312L134.536 519.898L125.673 514.698L108.789 504.725C108.846 504.578 108.869 504.419 108.857 504.262C108.845 504.104 108.797 503.951 108.718 503.814C108.639 503.677 108.529 503.56 108.399 503.471C108.268 503.382 108.119 503.324 107.962 503.3V473.112L134.536 457.512L160.283 472.627ZM187.954 457.512L196.803 462.712L213.687 472.684C213.666 472.821 213.666 472.961 213.687 473.098C213.688 473.353 213.78 473.6 213.948 473.794C214.115 473.987 214.346 474.114 214.599 474.152V504.369L188.795 519.413C188.703 519.278 188.58 519.167 188.436 519.091C188.292 519.014 188.132 518.974 187.968 518.974C187.805 518.974 187.645 519.014 187.5 519.091C187.356 519.167 187.233 519.278 187.142 519.413L161.38 504.298V474.081C161.636 474.046 161.871 473.921 162.041 473.727C162.211 473.533 162.305 473.284 162.307 473.026C162.307 472.884 162.278 472.744 162.221 472.613L187.954 457.512ZM188.923 425.599L196.945 420.898L214.656 410.498L241.244 426.098V456.315C240.991 456.347 240.758 456.47 240.59 456.662C240.422 456.853 240.33 457.1 240.332 457.355C240.301 457.491 240.301 457.632 240.332 457.768L215.411 472.4C215.322 472.264 215.2 472.153 215.057 472.077C214.914 472 214.754 471.96 214.592 471.96C214.43 471.96 214.27 472 214.127 472.077C213.984 472.153 213.862 472.264 213.773 472.4L205.736 467.684L188.011 457.284V427.067C188.266 427.03 188.498 426.903 188.668 426.71C188.838 426.517 188.933 426.27 188.937 426.013C188.959 425.876 188.959 425.736 188.937 425.599H188.923ZM161.124 379.07V410.256L135.362 425.386C135.271 425.251 135.148 425.14 135.004 425.063C134.86 424.987 134.699 424.947 134.536 424.947C134.373 424.947 134.212 424.987 134.068 425.063C133.924 425.14 133.801 425.251 133.709 425.386L107.962 410.256V380.039C108.215 380.007 108.448 379.884 108.616 379.692C108.784 379.501 108.876 379.254 108.874 378.999C108.876 378.857 108.847 378.715 108.789 378.586L134.536 363.484L161.124 379.07ZM187.954 364.396C188.117 364.395 188.278 364.354 188.422 364.277C188.565 364.2 188.689 364.089 188.781 363.954L196.803 368.67L214.528 379.07V410.256L205.665 415.47L188.781 425.443C188.689 425.308 188.566 425.197 188.422 425.12C188.278 425.044 188.117 425.004 187.954 425.004C187.791 425.004 187.63 425.044 187.486 425.12C187.342 425.197 187.219 425.308 187.128 425.443L161.38 410.256V379.07L187.142 363.954C187.232 364.087 187.353 364.197 187.495 364.273C187.636 364.35 187.793 364.392 187.954 364.396ZM214.656 317.382C214.818 317.382 214.978 317.344 215.121 317.269C215.265 317.195 215.389 317.087 215.483 316.955L223.519 321.671L241.244 332.071V362.288C240.99 362.322 240.757 362.448 240.589 362.643C240.421 362.837 240.33 363.085 240.332 363.342C240.304 363.478 240.304 363.619 240.332 363.755L214.585 378.856L205.736 373.656L188.852 363.684C188.902 363.551 188.931 363.412 188.937 363.271C188.936 363.013 188.842 362.764 188.672 362.57C188.501 362.376 188.267 362.251 188.011 362.216V332.056L213.773 316.941C213.873 317.083 214.008 317.197 214.165 317.272C214.323 317.347 214.497 317.38 214.67 317.368L214.656 317.382ZM214.799 285.043L223.661 279.843L241.372 269.457L267.12 284.558C267.063 284.688 267.034 284.829 267.034 284.971C267.036 285.228 267.131 285.475 267.301 285.666C267.472 285.857 267.706 285.98 267.96 286.011V316.228L241.372 331.9L232.51 326.7L215.639 316.727C215.661 316.585 215.661 316.441 215.639 316.3C215.641 316.045 215.549 315.798 215.381 315.606C215.213 315.414 214.98 315.291 214.727 315.26L214.799 285.043ZM214.656 223.341C214.818 223.341 214.978 223.302 215.121 223.227C215.265 223.153 215.389 223.045 215.483 222.913L241.258 238.015V269.2L232.396 274.4L214.67 284.743L188.937 269.642C188.987 269.51 189.016 269.37 189.023 269.229C189.021 268.973 188.926 268.726 188.756 268.534C188.585 268.343 188.351 268.22 188.097 268.189V238.015L213.858 222.899C213.95 223.029 214.072 223.136 214.213 223.21C214.354 223.284 214.511 223.324 214.67 223.326L214.656 223.341Z" fill="#0C478B"/>
</g>
</svg>
