<svg width="262" height="462" viewBox="0 0 262 462" fill="none" xmlns="http://www.w3.org/2000/svg">
<g opacity="0.3">
<g opacity="0.1">
<path opacity="0.3" d="M244.047 254.715L209.905 274.744L175.744 254.715V214.62L209.905 194.592L244.047 214.62V254.715Z" fill="white"/>
<path opacity="0.6" d="M208.164 191.528L174.003 211.575L139.842 191.528V151.452L174.003 131.404L208.164 151.452V191.528Z" fill="white"/>
<path opacity="0.3" d="M244.047 128.34L209.905 148.388L175.744 128.34V88.2643L209.905 68.2168L244.047 88.2643V128.34Z" fill="white"/>
<path opacity="0.1" d="M279.949 317.883L245.787 337.931L211.645 317.883V277.807L245.787 257.76L279.949 277.807V317.883Z" fill="white"/>
<path opacity="0.3" d="M315.851 507.428L281.689 527.476L247.528 507.428V467.352L281.689 447.305L315.851 467.352V507.428Z" fill="white"/>
<path opacity="0.6" d="M315.851 254.715L281.689 274.744L247.528 254.715V214.62L281.689 194.592L315.851 214.62V254.715Z" fill="white"/>
<path opacity="0.6" d="M315.851 381.071L281.689 401.099L247.528 381.071V340.976L281.689 320.947L315.851 340.976V381.071Z" fill="white"/>
<path opacity="0.3" d="M244.047 381.071L209.905 401.099L175.744 381.071V340.976L209.905 320.947L244.047 340.976V381.071Z" fill="white"/>
<path opacity="0.6" d="M172.263 381.071L138.102 401.099L103.94 381.071V340.976L138.102 320.947L172.263 340.976V381.071Z" fill="white"/>
<path opacity="0.1" d="M208.164 444.239L174.003 464.287L139.842 444.239V404.163L174.003 384.135L208.164 404.163V444.239Z" fill="white"/>
<path opacity="0.6" d="M172.263 507.428L138.102 527.476L103.94 507.428V467.352L138.102 447.305L172.263 467.352V507.428Z" fill="white"/>
<path opacity="0.1" d="M279.949 65.1724L245.787 85.201L211.645 65.1724V25.0774L245.787 5.04883L279.949 25.0774V65.1724Z" fill="white"/>
<path opacity="0.6" d="M315.851 128.34L281.689 148.388L247.528 128.34V88.2643L281.689 68.2168L315.851 88.2643V128.34Z" fill="white"/>
</g>
<path d="M249.514 0H249.419L213.877 20.804V62.7902L249.268 83.5942V125.013L213.801 145.817V187.425L178.505 208.229L143.039 187.425L107.478 208.229V250.045L143.02 270.849H143.114L178.486 250.045L213.782 270.736V312.154L178.6 332.958L143.133 312.154L107.572 332.958V374.566L72.2191 395.389L36.7526 374.585L1.21045 395.389V437.205L36.7715 458.009L72.1624 437.205L107.44 458.009V499.409L71.9732 520.213V562.029L107.515 582.833L143.076 562.029V520.421L178.524 499.617V457.915L143.152 437.111V395.692L178.429 374.888L213.896 395.692L249.438 374.888V333.28L284.715 312.571L320.012 333.28V374.68L284.545 395.484V437.3L319.917 458.104V499.712H320.012L355.554 520.516H355.648L391.191 499.712V457.915H391.096L355.724 437.111V395.692L391.02 374.888L426.487 395.692L462.048 374.888V333.072H461.953L426.411 312.268H426.317L390.945 333.072L355.648 312.381V270.963L391.38 250.159L426.846 270.963L462.407 250.159V208.551L497.685 187.747L533.151 208.551L568.693 187.747V145.817H568.599L533.246 124.824H533.151L497.779 145.628L462.483 125.013V83.5942L497.931 62.7902V20.9742L462.37 0.170215L426.808 20.9742V62.5822L391.361 83.3862V125.202L426.733 146.006V187.425L391.455 208.229L355.989 187.425H355.894L320.352 208.229V249.837L285.056 270.528L249.703 249.856V208.437L285.169 187.633V146.025L320.636 125.221V83.3862L285.264 62.5822V20.9742L249.514 0ZM462.275 83.216L450.51 76.3128L426.998 62.5066V21.1822L462.275 0.378256L497.571 21.1822V62.5822L462.275 83.216ZM462.105 124.937L450.339 131.822L426.846 145.628L391.55 125.013V83.5942L426.846 62.9037L438.668 69.8069L462.18 83.5942L462.105 124.937ZM497.912 187.349V146.025L533.208 125.221L568.485 146.025V187.425L533.208 208.229L497.912 187.349ZM462.275 208.153L450.51 201.25L426.998 187.444V146.025L438.763 139.122L462.275 125.316L497.571 146.12V187.425L462.275 208.153ZM391.531 249.875V208.456L426.827 187.652L438.593 194.555L462.105 208.361V249.78L426.827 270.471L391.531 249.875ZM355.894 270.565L344.091 263.643L320.579 249.856V208.437L355.857 187.633L391.153 208.437V249.856L355.894 270.565ZM391.531 374.699V333.28L426.827 312.571L462.105 333.28V374.68L426.827 395.389L391.531 374.699ZM320.636 458.123L332.382 451.22L355.913 437.413L391.21 458.217V499.617L355.913 520.327L320.636 499.523V458.123ZM320.447 374.907L332.212 381.81L355.743 395.616V437.035L343.978 443.919L320.447 457.726L285.169 437.035V395.616L320.447 374.907ZM320.636 333.204L332.382 326.301L355.913 312.495L391.21 333.204V374.604L355.913 395.314L344.091 388.486L320.579 374.68L320.636 333.204ZM285.169 312.192V270.773L320.447 250.083L332.212 256.986L355.743 270.773V312.192L343.978 319.095L320.447 332.883L285.169 312.192ZM107.648 499.825L119.413 506.729L142.944 520.535V561.935L107.648 582.644L72.3894 561.935V520.535L107.648 499.825ZM107.837 458.217L119.602 451.314L143.114 437.508L178.411 458.312V499.712L143.133 520.213L131.368 513.329L107.856 499.523L107.837 458.217ZM72.011 395.805V437.224L36.7337 457.915L1.43743 437.224V395.805L36.7337 375.001L72.011 395.805ZM107.648 375.001L119.413 381.905L142.944 395.711V437.13L131.179 444.014L107.648 457.801L72.3894 437.111V395.692L107.648 375.001ZM178.411 333.299V374.699L143.133 395.389L131.368 388.486L107.856 374.68V333.28L143.133 312.571L178.411 333.299ZM214.047 312.589L225.813 319.493L249.344 333.299V374.699L214.066 395.389L178.77 374.68V333.28L214.047 312.589ZM214.218 270.868L225.983 263.984L249.514 250.159L284.791 270.849V312.268L249.514 332.958L237.748 326.074L214.218 312.268V270.868ZM178.411 208.456V249.875L143.133 270.546L107.856 249.856V208.437L143.133 187.633L178.411 208.456ZM214.047 187.652L225.813 194.555L249.344 208.361V249.78L237.578 256.665L214.047 270.471L178.77 249.856V208.437L214.047 187.652ZM249.514 125.24L261.26 132.143L284.791 145.949V187.425L249.514 208.135L237.748 201.231L214.218 187.425V146.025L249.514 125.24ZM249.684 83.5186L261.449 76.6343L284.961 62.8281L320.258 83.5186V124.937L284.98 145.628L273.234 138.744L249.703 125.013L249.684 83.5186ZM249.514 0.472818L284.791 21.2768V62.5822L273.026 69.4853L249.514 83.216L214.218 62.412V21.1822L249.514 0.472818Z" fill="white"/>
<path d="M284.98 19.6699C284.612 19.6749 284.261 19.8245 284.003 20.0865C283.744 20.3484 283.6 20.7015 283.6 21.0695C283.569 21.2574 283.569 21.4489 283.6 21.6368L249.363 41.7789V82.1197C249.025 82.1611 248.714 82.3241 248.487 82.5782C248.261 82.8323 248.135 83.1601 248.133 83.5004C248.133 83.8733 248.28 84.2312 248.542 84.4967C248.804 84.7622 249.16 84.9138 249.533 84.9188C249.749 84.9168 249.962 84.8624 250.153 84.7603C250.344 84.6582 250.508 84.5114 250.63 84.3325L284.81 104.399V144.532C284.474 144.573 284.165 144.737 283.942 144.992C283.719 145.246 283.597 145.574 283.6 145.912C283.571 146.1 283.571 146.292 283.6 146.48L249.363 166.622V206.944C249.022 206.985 248.708 207.151 248.481 207.409C248.254 207.667 248.131 208 248.133 208.343C248.132 208.532 248.171 208.719 248.247 208.892L214.066 228.939L178.6 208.135L144.23 228.296C144.106 228.121 143.942 227.978 143.751 227.879C143.56 227.78 143.348 227.729 143.133 227.729C142.762 227.706 142.397 227.832 142.119 228.079C141.84 228.325 141.671 228.672 141.648 229.043C141.626 229.414 141.752 229.779 141.998 230.058C142.245 230.336 142.592 230.505 142.963 230.528V270.85L177.219 290.954C177.144 291.127 177.105 291.314 177.106 291.502C177.106 291.874 177.253 292.23 177.515 292.492C177.778 292.755 178.134 292.902 178.505 292.902C178.876 292.902 179.233 292.755 179.495 292.492C179.758 292.23 179.905 291.874 179.905 291.502C179.906 291.314 179.867 291.127 179.792 290.954L213.972 270.906L248.133 290.954C248.104 291.136 248.104 291.321 248.133 291.502C248.135 291.845 248.26 292.175 248.486 292.432C248.712 292.69 249.023 292.856 249.363 292.902V333.016L215.163 353.139C215.038 352.963 214.874 352.819 214.684 352.717C214.493 352.616 214.282 352.559 214.066 352.553C213.85 352.556 213.638 352.611 213.447 352.713C213.256 352.815 213.092 352.961 212.969 353.139L178.6 332.959L143.039 353.763V394.085C142.701 394.126 142.39 394.289 142.164 394.544C141.937 394.798 141.811 395.125 141.809 395.466C141.816 395.66 141.854 395.851 141.923 396.033L107.648 416.194L72.2003 395.39L37.8499 415.551C37.7236 415.378 37.5587 415.236 37.3683 415.138C37.1779 415.039 36.9671 414.987 36.7528 414.984C36.5673 414.984 36.3838 415.02 36.2127 415.092C36.0416 415.163 35.8865 415.268 35.7562 415.4C35.626 415.532 35.5233 415.689 35.4541 415.861C35.3849 416.033 35.3505 416.217 35.353 416.402C35.3551 416.742 35.481 417.07 35.7073 417.324C35.9336 417.578 36.2448 417.741 36.5825 417.783V458.124L72.1436 478.928L106.437 458.804C106.559 458.98 106.722 459.123 106.911 459.222C107.101 459.321 107.311 459.373 107.525 459.373C107.739 459.373 107.949 459.321 108.139 459.222C108.328 459.123 108.491 458.98 108.613 458.804L142.812 478.871V518.985C142.474 519.026 142.163 519.189 141.937 519.443C141.71 519.697 141.584 520.025 141.582 520.365C141.589 520.559 141.627 520.751 141.696 520.933L107.497 541.131V582.948L141.753 603.052C141.686 603.227 141.648 603.413 141.639 603.6C141.639 603.971 141.786 604.327 142.049 604.59C142.311 604.852 142.668 605 143.039 605C143.41 605 143.766 604.852 144.029 604.59C144.291 604.327 144.439 603.971 144.439 603.6C144.439 603.411 144.4 603.225 144.325 603.052L177.408 583.647C177.538 583.821 177.707 583.962 177.9 584.061C178.094 584.159 178.307 584.212 178.524 584.215C178.741 584.213 178.954 584.158 179.145 584.056C179.336 583.954 179.499 583.807 179.621 583.628L213.82 603.695V645.114L178.619 665.88L144.439 645.813C144.516 645.641 144.555 645.454 144.552 645.265C144.552 644.894 144.405 644.538 144.142 644.275C143.88 644.013 143.523 643.865 143.152 643.865C142.781 643.865 142.425 644.013 142.162 644.275C141.9 644.538 141.753 644.894 141.753 645.265C141.75 645.454 141.788 645.641 141.866 645.813L107.516 665.974V706.296C107.18 706.338 106.871 706.502 106.647 706.756C106.424 707.011 106.302 707.338 106.305 707.677C106.3 708.05 106.442 708.41 106.7 708.679C106.959 708.948 107.313 709.104 107.686 709.114C107.902 709.112 108.115 709.058 108.306 708.956C108.497 708.854 108.661 708.707 108.783 708.528L143.152 728.689L177.427 708.566C177.548 708.745 177.712 708.892 177.903 708.994C178.094 709.095 178.308 709.148 178.524 709.148C178.741 709.148 178.954 709.095 179.145 708.994C179.337 708.892 179.5 708.745 179.621 708.566L213.82 728.632V770.032L179.716 790.061C179.592 789.885 179.427 789.742 179.237 789.643C179.046 789.544 178.834 789.492 178.619 789.492C178.404 789.492 178.192 789.544 178.001 789.643C177.81 789.742 177.646 789.885 177.522 790.061L143.152 769.9L108.783 790.061C108.66 789.884 108.496 789.74 108.305 789.641C108.113 789.542 107.901 789.492 107.686 789.493C107.315 789.471 106.95 789.597 106.671 789.843C106.393 790.09 106.223 790.437 106.201 790.808C106.178 791.179 106.304 791.544 106.551 791.822C106.797 792.101 107.144 792.27 107.516 792.292V832.425L73.3163 852.492C73.1955 852.311 73.0322 852.164 72.841 852.062C72.6497 851.959 72.4362 851.906 72.2193 851.905C72.0062 851.912 71.7976 851.968 71.6104 852.07C71.4231 852.172 71.2624 852.316 71.1411 852.492L36.7717 832.312L1.22951 853.116V893.438C0.890152 893.483 0.578754 893.65 0.352782 893.907C0.126809 894.165 0.00150864 894.495 0 894.837C0.00489904 895.212 0.155938 895.57 0.420934 895.835C0.68593 896.1 1.04393 896.251 1.41866 896.256C1.63081 896.245 1.83783 896.187 2.02445 896.085C2.21106 895.984 2.37249 895.842 2.49684 895.669L36.8662 915.849H36.9608L72.3327 895.045L106.494 915.093C106.434 915.276 106.402 915.467 106.4 915.66C106.397 915.999 106.519 916.326 106.742 916.581C106.965 916.835 107.274 916.999 107.61 917.041V957.155L72.1436 977.959V1018.28C71.7724 1018.31 71.4263 1018.48 71.1815 1018.76C70.9368 1019.04 70.8133 1019.4 70.8384 1019.77C70.8635 1020.15 71.035 1020.49 71.3153 1020.74C71.5955 1020.98 71.9615 1021.1 72.3327 1021.08C72.5448 1021.08 72.7534 1021.03 72.941 1020.93C73.1286 1020.83 73.2898 1020.69 73.4109 1020.51L107.648 1040.79H107.742L143.304 1019.98V979.547C143.64 979.506 143.948 979.342 144.172 979.087C144.395 978.833 144.517 978.505 144.514 978.167C144.517 977.978 144.478 977.79 144.401 977.618L178.751 957.457V915.641L143.379 894.837V854.723C143.715 854.673 144.022 854.505 144.244 854.248C144.466 853.991 144.589 853.663 144.59 853.324C144.59 853.135 144.552 852.948 144.476 852.775L178.657 832.728L212.837 852.775C212.762 852.987 212.738 853.213 212.768 853.435C212.797 853.657 212.879 853.869 213.007 854.054C213.134 854.239 213.303 854.39 213.501 854.497C213.698 854.603 213.918 854.661 214.142 854.667C214.326 854.664 214.507 854.625 214.676 854.553C214.845 854.48 214.998 854.375 215.126 854.243C215.254 854.112 215.356 853.956 215.424 853.785C215.492 853.614 215.525 853.432 215.523 853.248C215.523 853.059 215.485 852.873 215.409 852.7L249.76 832.539V792.292C250.098 792.251 250.409 792.088 250.635 791.834C250.861 791.58 250.987 791.252 250.989 790.912C250.983 790.724 250.944 790.538 250.876 790.363L285.037 770.316L320.333 791.025V832.425L286.134 852.492C286.013 852.311 285.85 852.164 285.659 852.062C285.468 851.959 285.254 851.906 285.037 851.905C284.685 851.919 284.351 852.063 284.099 852.309C283.848 852.555 283.697 852.886 283.675 853.237C283.654 853.589 283.764 853.935 283.985 854.21C284.205 854.485 284.519 854.668 284.867 854.723V894.837L249.419 915.641V955.982C249.188 956.006 248.967 956.088 248.775 956.22C248.584 956.351 248.428 956.528 248.322 956.734C248.216 956.941 248.163 957.171 248.168 957.403C248.173 957.635 248.235 957.863 248.35 958.065C248.465 958.267 248.628 958.437 248.825 958.56C249.022 958.683 249.246 958.756 249.478 958.77C249.71 958.785 249.942 958.742 250.153 958.645C250.364 958.548 250.547 958.4 250.687 958.214L284.867 978.28V1019.89L319.123 1039.99C319.05 1040.17 319.017 1040.35 319.028 1040.54C319.026 1040.72 319.06 1040.91 319.128 1041.08C319.196 1041.25 319.297 1041.4 319.425 1041.54C319.553 1041.67 319.706 1041.77 319.875 1041.85C320.044 1041.92 320.225 1041.96 320.409 1041.96C320.782 1041.95 321.138 1041.8 321.4 1041.54C321.662 1041.27 321.809 1040.91 321.809 1040.54C321.814 1040.35 321.775 1040.16 321.695 1039.99L356.046 1019.83V979.547C356.417 979.525 356.764 979.356 357.011 979.077C357.257 978.799 357.383 978.434 357.36 978.063C357.338 977.691 357.169 977.344 356.89 977.098C356.612 976.851 356.247 976.726 355.876 976.748C355.659 976.75 355.446 976.805 355.255 976.907C355.064 977.009 354.901 977.156 354.778 977.334L320.636 957.268V917.135C320.974 917.094 321.285 916.931 321.511 916.677C321.738 916.423 321.864 916.095 321.866 915.755C321.866 915.56 321.828 915.367 321.752 915.187L356.103 895.045V854.723C356.442 854.678 356.753 854.511 356.979 854.254C357.205 853.996 357.331 853.666 357.332 853.324C357.333 853.135 357.294 852.948 357.219 852.775L391.38 832.728L426.846 853.532L461.14 833.409C461.261 833.583 461.423 833.725 461.61 833.824C461.798 833.922 462.006 833.975 462.218 833.976C462.59 833.999 462.955 833.873 463.233 833.626C463.512 833.38 463.681 833.033 463.703 832.662C463.726 832.29 463.6 831.925 463.353 831.647C463.107 831.369 462.76 831.2 462.389 831.177V790.817L428.133 770.713C428.193 770.536 428.225 770.351 428.227 770.165C428.25 769.968 428.231 769.77 428.172 769.581C428.113 769.393 428.014 769.219 427.883 769.072C427.751 768.924 427.59 768.806 427.41 768.725C427.23 768.644 427.035 768.603 426.837 768.603C426.639 768.603 426.444 768.644 426.264 768.725C426.084 768.806 425.923 768.924 425.791 769.072C425.66 769.219 425.561 769.393 425.502 769.581C425.443 769.77 425.424 769.968 425.447 770.165C425.418 770.346 425.418 770.531 425.447 770.713L391.38 790.704L357.2 770.656C357.275 770.483 357.314 770.296 357.313 770.108C357.311 769.768 357.185 769.44 356.959 769.186C356.733 768.932 356.421 768.769 356.084 768.727V728.594L390.283 708.528C390.406 708.706 390.57 708.852 390.761 708.954C390.951 709.056 391.164 709.111 391.38 709.114C391.596 709.108 391.807 709.051 391.997 708.95C392.188 708.848 392.352 708.704 392.477 708.528L426.846 728.689L462.408 707.885V667.468C462.615 667.437 462.813 667.36 462.987 667.242C463.161 667.124 463.305 666.968 463.411 666.787C463.516 666.605 463.579 666.402 463.596 666.193C463.612 665.983 463.581 665.773 463.505 665.577L497.685 645.53L533.151 666.334H533.246L567.521 646.211C567.645 646.386 567.809 646.529 568 646.628C568.191 646.727 568.403 646.778 568.618 646.778C568.989 646.801 569.354 646.675 569.633 646.428C569.911 646.182 570.08 645.835 570.103 645.463C570.125 645.092 569.999 644.727 569.753 644.449C569.506 644.171 569.159 644.001 568.788 643.979V603.543L533.246 582.739H533.151L498.877 602.844C498.753 602.668 498.588 602.525 498.397 602.426C498.206 602.327 497.994 602.275 497.779 602.275C497.564 602.275 497.353 602.327 497.162 602.426C496.971 602.525 496.806 602.668 496.682 602.844L462.502 582.739V542.626C462.838 542.584 463.147 542.42 463.37 542.166C463.593 541.911 463.715 541.583 463.713 541.245C463.712 541.052 463.68 540.86 463.618 540.678L497.95 520.536V478.719L463.694 458.615C463.754 458.439 463.786 458.254 463.788 458.067C463.811 457.871 463.792 457.672 463.733 457.483C463.674 457.295 463.575 457.121 463.444 456.974C463.312 456.826 463.151 456.708 462.971 456.627C462.791 456.547 462.596 456.505 462.398 456.505C462.201 456.505 462.005 456.547 461.825 456.627C461.645 456.708 461.484 456.826 461.352 456.974C461.221 457.121 461.123 457.295 461.063 457.483C461.004 457.672 460.985 457.871 461.008 458.067C460.979 458.249 460.979 458.434 461.008 458.615L427.944 478.02C427.813 477.846 427.645 477.705 427.452 477.606C427.258 477.508 427.045 477.455 426.828 477.452C426.611 477.453 426.397 477.506 426.206 477.609C426.015 477.711 425.851 477.859 425.73 478.039L391.531 457.972V416.553L426.828 395.749L460.989 415.816C460.92 415.991 460.882 416.176 460.875 416.364C460.875 416.735 461.023 417.091 461.285 417.354C461.548 417.616 461.904 417.764 462.275 417.764C462.646 417.764 463.002 417.616 463.265 417.354C463.527 417.091 463.675 416.735 463.675 416.364C463.705 416.183 463.705 415.997 463.675 415.816L498.006 395.655V355.371C498.344 355.329 498.655 355.166 498.882 354.912C499.108 354.658 499.234 354.33 499.236 353.99C499.238 353.804 499.204 353.619 499.135 353.446C499.066 353.273 498.964 353.115 498.834 352.982C498.704 352.848 498.549 352.741 498.378 352.668C498.206 352.594 498.022 352.555 497.836 352.553C497.62 352.559 497.409 352.616 497.219 352.717C497.029 352.819 496.864 352.963 496.739 353.139L462.313 332.959H462.218L427.925 353.082C427.804 352.906 427.644 352.761 427.456 352.659C427.269 352.557 427.06 352.501 426.846 352.496C426.63 352.5 426.418 352.555 426.227 352.657C426.036 352.759 425.872 352.904 425.749 353.082L391.55 333.016V291.673L425.749 271.606C425.873 271.782 426.038 271.925 426.229 272.024C426.42 272.122 426.632 272.174 426.846 272.174C427.058 272.172 427.267 272.12 427.455 272.021C427.642 271.923 427.803 271.78 427.925 271.606L462.294 291.767L496.569 271.663C496.695 271.836 496.86 271.978 497.05 272.076C497.241 272.175 497.452 272.227 497.666 272.23C498.037 272.253 498.402 272.127 498.681 271.881C498.959 271.634 499.128 271.287 499.151 270.916C499.173 270.545 499.048 270.18 498.801 269.901C498.554 269.623 498.207 269.454 497.836 269.431V229.242L532.035 209.175C532.157 209.354 532.321 209.501 532.512 209.603C532.703 209.705 532.916 209.76 533.132 209.762C533.348 209.755 533.559 209.699 533.75 209.597C533.94 209.495 534.104 209.351 534.23 209.175L568.599 229.355L604.16 208.551V168.116C604.509 168.059 604.823 167.875 605.043 167.598C605.263 167.322 605.371 166.973 605.348 166.621C605.324 166.269 605.17 165.938 604.915 165.693C604.661 165.448 604.324 165.307 603.971 165.298C603.758 165.303 603.548 165.359 603.361 165.461C603.173 165.563 603.013 165.708 602.893 165.884L568.694 145.629H568.599L533.227 166.433L499.047 146.385C499.121 146.205 499.159 146.012 499.16 145.818C499.158 145.478 499.032 145.15 498.806 144.896C498.58 144.641 498.269 144.479 497.931 144.437V104.418L533.397 83.6138V43.273C533.581 43.2606 533.761 43.2121 533.926 43.1303C534.091 43.0485 534.238 42.935 534.359 42.7962C534.48 42.6575 534.573 42.4962 534.632 42.3217C534.691 42.1471 534.715 41.9627 534.702 41.7789C534.69 41.5951 534.641 41.4156 534.56 41.2505C534.478 41.0855 534.364 40.9381 534.226 40.817C534.087 40.6958 533.926 40.6031 533.751 40.5443C533.576 40.4854 533.392 40.4615 533.208 40.4739C532.996 40.4768 532.788 40.5297 532.601 40.6283C532.414 40.7269 532.252 40.8684 532.13 41.0413L497.761 20.8047L462.199 41.6087V82.1197C461.86 82.1654 461.549 82.3322 461.323 82.5894C461.097 82.8466 460.971 83.1769 460.97 83.5193C460.979 83.7008 461.017 83.8797 461.083 84.0488L426.657 104.21V146.026L462.029 166.83V206.944C461.69 206.989 461.378 207.156 461.152 207.413C460.927 207.671 460.801 208.001 460.8 208.343C460.808 208.531 460.847 208.716 460.913 208.892L426.752 228.939L392.572 208.892C392.649 208.713 392.688 208.519 392.685 208.324C392.685 208.141 392.649 207.959 392.579 207.789C392.508 207.619 392.405 207.465 392.275 207.335C392.145 207.205 391.991 207.102 391.821 207.031C391.651 206.961 391.469 206.925 391.285 206.925C391.102 206.925 390.92 206.961 390.75 207.031C390.58 207.102 390.426 207.205 390.296 207.335C390.166 207.465 390.063 207.619 389.992 207.789C389.922 207.959 389.886 208.141 389.886 208.324C389.885 208.513 389.924 208.7 389.999 208.873L355.743 229.034V269.375C355.405 269.416 355.094 269.579 354.868 269.833C354.642 270.087 354.516 270.415 354.514 270.755C354.513 270.944 354.552 271.131 354.627 271.304L320.447 291.351L285.17 270.547V229.242L319.369 209.175C319.485 209.355 319.645 209.503 319.833 209.605C320.022 209.708 320.233 209.762 320.447 209.762C320.82 209.757 321.176 209.605 321.438 209.34C321.7 209.074 321.847 208.716 321.847 208.343C321.85 208.003 321.729 207.673 321.506 207.415C321.283 207.157 320.974 206.99 320.636 206.944V166.83L356.084 146.026V105.685C356.315 105.66 356.536 105.579 356.728 105.447C356.919 105.316 357.075 105.139 357.181 104.932C357.287 104.726 357.34 104.496 357.335 104.264C357.331 104.032 357.268 103.804 357.153 103.602C357.038 103.4 356.875 103.23 356.678 103.107C356.481 102.984 356.257 102.911 356.025 102.897C355.793 102.882 355.561 102.925 355.35 103.022C355.139 103.119 354.956 103.267 354.816 103.453L320.636 83.3869V41.7789L286.286 21.6368C286.316 21.4489 286.316 21.2574 286.286 21.0695C286.286 20.7141 286.152 20.3717 285.91 20.1118C285.667 19.8519 285.335 19.6939 284.98 19.6699V19.6699ZM497.761 104.021L485.957 97.1932L463.542 83.9543C463.618 83.7813 463.657 83.5945 463.656 83.4058C463.659 83.0673 463.537 82.7396 463.313 82.4851C463.09 82.2306 462.781 82.0669 462.445 82.0252V41.9869L497.723 21.1829L531.903 41.2493C531.825 41.4216 531.786 41.6089 531.789 41.7978C531.791 42.138 531.918 42.4659 532.144 42.72C532.37 42.9741 532.681 43.1371 533.019 43.1784V83.4058L497.761 104.021ZM485.825 152.645L462.294 166.452L427.017 145.648V104.418L461.216 84.3514C461.34 84.5269 461.504 84.67 461.695 84.7687C461.886 84.8674 462.098 84.9189 462.313 84.9188C462.525 84.9175 462.734 84.8652 462.921 84.7665C463.109 84.6677 463.27 84.5254 463.391 84.3514L474.059 90.6115L497.59 104.418V144.532C497.251 144.577 496.94 144.744 496.714 145.001C496.488 145.259 496.362 145.589 496.361 145.931C496.369 146.113 496.408 146.292 496.474 146.461L485.825 152.645ZM534.513 208.816C534.591 208.637 534.629 208.444 534.627 208.249C534.625 207.908 534.499 207.581 534.272 207.326C534.046 207.072 533.735 206.909 533.397 206.868V166.83L568.694 146.026L602.855 166.073C602.793 166.256 602.761 166.448 602.76 166.641C602.758 166.979 602.88 167.307 603.103 167.561C603.326 167.816 603.635 167.98 603.971 168.021V208.23L568.694 229.034L534.513 208.816ZM497.761 228.864L485.957 222.036L463.542 208.797C463.618 208.624 463.657 208.437 463.656 208.249C463.659 207.908 463.538 207.578 463.315 207.32C463.092 207.063 462.783 206.895 462.445 206.849V166.83L474.211 159.927L496.626 146.688C496.754 146.864 496.922 147.007 497.116 147.105C497.31 147.204 497.524 147.255 497.742 147.255C497.953 147.249 498.16 147.195 498.347 147.097C498.534 146.998 498.695 146.858 498.82 146.688L533.019 166.754V206.868C532.68 206.914 532.368 207.08 532.142 207.338C531.916 207.595 531.791 207.925 531.789 208.268C531.789 208.456 531.827 208.643 531.903 208.816L497.761 228.864ZM428.133 271.228C428.161 271.046 428.161 270.861 428.133 270.68C428.135 270.341 428.013 270.013 427.79 269.759C427.567 269.504 427.258 269.341 426.922 269.299V229.242L461.121 209.175C461.238 209.355 461.398 209.503 461.586 209.605C461.774 209.708 461.985 209.762 462.199 209.762C462.416 209.761 462.63 209.708 462.821 209.605C463.012 209.503 463.176 209.355 463.297 209.175L473.965 215.435L497.496 229.242V269.375C497.158 269.416 496.847 269.579 496.62 269.833C496.394 270.087 496.268 270.415 496.266 270.755C496.266 270.944 496.304 271.131 496.38 271.304L462.199 291.351L428.133 271.228ZM391.38 291.351L379.615 284.448L357.2 271.209C357.275 271.036 357.314 270.849 357.313 270.661C357.311 270.32 357.185 269.993 356.959 269.738C356.733 269.484 356.421 269.321 356.084 269.28V229.242L390.283 209.175C390.405 209.354 390.568 209.501 390.759 209.603C390.95 209.705 391.163 209.76 391.38 209.762C391.596 209.755 391.807 209.699 391.997 209.597C392.188 209.495 392.352 209.351 392.477 209.175L426.657 229.242V269.375C426.321 269.416 426.012 269.58 425.789 269.835C425.566 270.089 425.444 270.417 425.447 270.755C425.446 270.944 425.485 271.131 425.56 271.304L391.38 291.351ZM391.21 333.073L379.444 339.976L355.913 353.782L321.733 333.716C321.813 333.544 321.852 333.356 321.847 333.167C321.849 332.829 321.727 332.501 321.504 332.246C321.281 331.992 320.972 331.828 320.636 331.787V291.673L354.816 271.606C354.94 271.782 355.105 271.925 355.296 272.024C355.487 272.123 355.698 272.175 355.913 272.175C356.128 272.175 356.34 272.123 356.531 272.024C356.722 271.925 356.887 271.782 357.011 271.606L367.679 277.866L391.21 291.673V333.073ZM320.447 334.586C320.661 334.583 320.872 334.53 321.062 334.431C321.253 334.333 321.418 334.191 321.544 334.018L355.743 354.085V394.217C355.405 394.259 355.094 394.422 354.868 394.676C354.642 394.93 354.516 395.258 354.514 395.598C354.513 395.787 354.552 395.974 354.627 396.147L320.277 416.308V456.629C320.046 456.654 319.824 456.736 319.633 456.867C319.441 456.998 319.285 457.175 319.179 457.382C319.073 457.589 319.02 457.818 319.025 458.051C319.03 458.283 319.092 458.51 319.207 458.712C319.322 458.914 319.485 459.084 319.682 459.208C319.879 459.331 320.104 459.403 320.335 459.418C320.567 459.433 320.799 459.389 321.01 459.292C321.221 459.195 321.405 459.047 321.544 458.861L355.743 478.928V519.041C355.505 519.06 355.275 519.138 355.075 519.268C354.875 519.399 354.711 519.578 354.599 519.789C354.486 520 354.429 520.236 354.433 520.475C354.436 520.714 354.499 520.948 354.617 521.156C354.735 521.364 354.904 521.539 355.108 521.664C355.311 521.789 355.543 521.861 355.782 521.872C356.021 521.884 356.258 521.835 356.473 521.731C356.688 521.626 356.873 521.468 357.011 521.273L391.21 541.358V581.472C390.874 581.514 390.565 581.678 390.342 581.932C390.118 582.187 389.997 582.514 389.999 582.853C389.999 583.226 390.146 583.584 390.408 583.849C390.67 584.115 391.026 584.266 391.399 584.271C391.615 584.269 391.828 584.215 392.019 584.113C392.21 584.011 392.374 583.864 392.496 583.685L426.676 603.752V645.17L391.38 665.88L357.2 645.813C357.277 645.641 357.316 645.454 357.313 645.265C357.313 645.081 357.277 644.899 357.207 644.729C357.136 644.56 357.033 644.405 356.903 644.275C356.773 644.145 356.619 644.042 356.449 643.972C356.279 643.902 356.097 643.865 355.913 643.865C355.73 643.865 355.548 643.902 355.378 643.972C355.208 644.042 355.054 644.145 354.924 644.275C354.794 644.405 354.691 644.56 354.62 644.729C354.55 644.899 354.514 645.081 354.514 645.265C354.511 645.454 354.55 645.641 354.627 645.813L320.277 665.974V706.296C319.939 706.342 319.63 706.51 319.407 706.767C319.184 707.025 319.063 707.355 319.066 707.696C319.059 707.883 319.091 708.07 319.161 708.244L286.078 727.649C285.956 727.473 285.793 727.33 285.604 727.231C285.414 727.132 285.204 727.08 284.99 727.08C284.776 727.08 284.566 727.132 284.376 727.231C284.187 727.33 284.024 727.473 283.902 727.649L249.722 707.582V667.45C250.06 667.408 250.371 667.245 250.597 666.991C250.823 666.737 250.949 666.409 250.952 666.069C250.943 665.881 250.905 665.696 250.838 665.52L285.189 645.378V605.038C285.372 605.025 285.552 604.977 285.717 604.895C285.882 604.813 286.029 604.699 286.151 604.561C286.272 604.422 286.364 604.261 286.423 604.086C286.482 603.912 286.506 603.727 286.494 603.543C286.481 603.36 286.433 603.18 286.351 603.015C286.269 602.85 286.156 602.703 286.017 602.582C285.878 602.46 285.717 602.368 285.542 602.309C285.368 602.25 285.183 602.226 284.999 602.238C284.788 602.241 284.58 602.294 284.392 602.393C284.205 602.491 284.043 602.633 283.921 602.806L249.722 582.739V542.626C250.061 542.58 250.373 542.413 250.599 542.156C250.825 541.899 250.95 541.568 250.952 541.226C250.947 540.851 250.796 540.493 250.531 540.228C250.266 539.964 249.908 539.813 249.533 539.808C249.32 539.814 249.111 539.871 248.924 539.972C248.737 540.074 248.576 540.219 248.455 540.394L214.237 520.327V480.195C214.574 480.153 214.885 479.99 215.112 479.736C215.338 479.482 215.464 479.154 215.466 478.814C215.466 478.441 215.319 478.083 215.057 477.818C214.795 477.552 214.439 477.401 214.066 477.396C213.849 477.396 213.636 477.45 213.445 477.552C213.253 477.654 213.09 477.802 212.969 477.982L178.77 457.915V416.497L214.066 395.693L248.228 415.759C248.197 415.941 248.197 416.126 248.228 416.308C248.228 416.679 248.375 417.035 248.638 417.297C248.9 417.56 249.256 417.707 249.627 417.707C249.999 417.707 250.355 417.56 250.617 417.297C250.88 417.035 251.027 416.679 251.027 416.308C251.021 416.12 250.982 415.934 250.914 415.759L285.264 395.598V355.371C285.6 355.321 285.907 355.152 286.129 354.895C286.351 354.639 286.474 354.311 286.475 353.971C286.503 353.789 286.503 353.604 286.475 353.423L319.539 334.018C319.645 334.168 319.78 334.296 319.936 334.394C320.092 334.491 320.265 334.556 320.447 334.586V334.586ZM427.017 395.485V355.371C427.353 355.329 427.662 355.165 427.885 354.911C428.108 354.656 428.23 354.329 428.227 353.99C428.258 353.802 428.258 353.611 428.227 353.423L462.408 333.375L496.569 353.423C496.491 353.602 496.453 353.795 496.455 353.99C496.457 354.33 496.583 354.658 496.81 354.912C497.036 355.166 497.347 355.329 497.685 355.371V395.485L463.486 415.551C463.362 415.376 463.197 415.232 463.006 415.134C462.815 415.035 462.604 414.984 462.389 414.984C462.177 414.985 461.968 415.037 461.78 415.136C461.593 415.235 461.432 415.377 461.31 415.551L427.017 395.485ZM391.38 416.194L379.615 409.291L357.2 396.052C357.275 395.879 357.314 395.692 357.313 395.504C357.315 395.162 357.191 394.832 356.964 394.577C356.737 394.322 356.423 394.16 356.084 394.123V354.085L367.849 347.182L391.38 333.375L425.56 353.423C425.484 353.618 425.453 353.829 425.469 354.038C425.485 354.247 425.549 354.45 425.654 354.632C425.759 354.814 425.904 354.969 426.078 355.087C426.252 355.205 426.45 355.283 426.657 355.314V395.428L391.38 416.194ZM391.21 457.915L379.444 464.819L355.913 478.606L321.733 458.559C321.809 458.386 321.847 458.199 321.847 458.01C321.849 457.672 321.727 457.344 321.504 457.089C321.281 456.835 320.972 456.671 320.636 456.629V416.497L354.816 396.43C354.938 396.61 355.101 396.757 355.292 396.858C355.484 396.96 355.697 397.013 355.913 397.013C356.13 397.013 356.343 396.96 356.535 396.858C356.726 396.757 356.889 396.61 357.011 396.43L367.679 402.69L391.21 416.497V457.915ZM425.56 478.266C425.484 478.461 425.453 478.672 425.469 478.881C425.485 479.09 425.549 479.293 425.654 479.475C425.759 479.657 425.904 479.812 426.078 479.93C426.252 480.048 426.45 480.126 426.657 480.157V520.29L391.38 541.037L357.2 520.989C357.275 520.816 357.314 520.63 357.313 520.441C357.316 520.097 357.192 519.765 356.965 519.507C356.738 519.249 356.425 519.083 356.084 519.041V478.928L367.849 472.024L391.38 458.218L425.56 478.266ZM462.332 539.826C462.117 539.826 461.905 539.878 461.714 539.977C461.523 540.075 461.359 540.218 461.235 540.394L450.566 534.134L427.036 520.327V480.195C427.368 480.149 427.673 479.983 427.892 479.729C428.111 479.475 428.23 479.15 428.227 478.814C428.258 478.639 428.258 478.46 428.227 478.285L461.329 458.861C461.451 459.037 461.614 459.18 461.803 459.279C461.993 459.378 462.203 459.43 462.417 459.43C462.631 459.43 462.841 459.378 463.031 459.279C463.22 459.18 463.383 459.037 463.505 458.861L497.704 478.928V520.327L463.505 540.394C463.373 540.208 463.197 540.058 462.992 539.958C462.786 539.859 462.559 539.814 462.332 539.826ZM462.143 582.739L450.377 589.643L426.865 603.449L392.685 583.401C392.761 583.228 392.799 583.042 392.799 582.853C392.797 582.513 392.671 582.185 392.444 581.931C392.218 581.677 391.907 581.514 391.569 581.472V541.34L426.865 520.536L438.631 527.439L461.027 540.583C460.996 540.771 460.996 540.962 461.027 541.15C461.024 541.489 461.146 541.817 461.369 542.071C461.592 542.326 461.901 542.489 462.237 542.531L462.143 582.739ZM497.95 645.151V605.038C498.287 604.996 498.599 604.833 498.825 604.579C499.051 604.325 499.177 603.997 499.179 603.657C499.18 603.468 499.141 603.281 499.066 603.108L533.246 583.061L568.542 603.752V643.884C568.204 643.926 567.893 644.089 567.667 644.343C567.441 644.597 567.315 644.925 567.313 645.265C567.31 645.454 567.349 645.641 567.426 645.813L533.246 665.88L497.95 645.151ZM462.332 664.632C462.116 664.635 461.903 664.69 461.712 664.792C461.522 664.894 461.358 665.04 461.235 665.218L450.566 658.939L427.036 645.151V603.733L438.801 596.848L462.332 583.042L496.493 603.09C496.418 603.263 496.379 603.449 496.38 603.638C496.382 603.978 496.508 604.306 496.734 604.56C496.96 604.814 497.271 604.977 497.609 605.019V645.151L463.41 665.218C463.287 665.046 463.125 664.905 462.938 664.807C462.751 664.708 462.543 664.655 462.332 664.65V664.632ZM392.685 708.225C392.761 708.052 392.799 707.866 392.799 707.677C392.797 707.335 392.672 707.004 392.446 706.747C392.22 706.49 391.908 706.323 391.569 706.277V666.182L426.865 645.473L438.631 652.376L461.027 665.52C460.996 665.708 460.996 665.9 461.027 666.088C461.024 666.426 461.146 666.754 461.369 667.009C461.592 667.263 461.901 667.427 462.237 667.468V707.582L426.96 728.292L392.685 708.225ZM355.932 728.273L344.091 721.389L321.676 708.244C321.752 708.071 321.791 707.885 321.79 707.696C321.792 707.352 321.669 707.02 321.442 706.762C321.215 706.504 320.901 706.338 320.56 706.296V666.182L354.76 646.116C354.881 646.295 355.044 646.442 355.236 646.544C355.427 646.646 355.64 646.699 355.857 646.699C356.073 646.699 356.287 646.646 356.478 646.544C356.669 646.442 356.833 646.295 356.954 646.116L391.134 666.182V706.296C390.796 706.342 390.487 706.51 390.264 706.767C390.042 707.025 389.92 707.355 389.923 707.696C389.923 707.885 389.961 708.071 390.037 708.244L355.932 728.273ZM391.569 832.406V791.025L425.768 770.959C425.892 771.134 426.057 771.277 426.248 771.376C426.439 771.475 426.65 771.526 426.865 771.526C427.08 771.523 427.29 771.47 427.481 771.372C427.671 771.274 427.836 771.132 427.962 770.959L462.143 791.025V831.139C461.805 831.18 461.494 831.344 461.268 831.598C461.041 831.852 460.915 832.18 460.913 832.52C460.92 832.708 460.958 832.893 461.027 833.068L426.865 853.116L391.569 832.406ZM285.189 978.261L296.935 971.358L320.466 957.552L354.646 977.599C354.571 977.772 354.532 977.959 354.533 978.148C354.535 978.488 354.661 978.816 354.887 979.07C355.113 979.324 355.424 979.487 355.762 979.528V1019.66L321.563 1039.73C321.44 1039.55 321.276 1039.4 321.085 1039.3C320.894 1039.2 320.682 1039.14 320.466 1039.14C320.25 1039.15 320.039 1039.2 319.849 1039.31C319.658 1039.41 319.494 1039.55 319.369 1039.73L285.189 1019.66V978.261ZM284.999 895.045L296.803 902.137L319.217 915.282C319.148 915.463 319.116 915.656 319.123 915.849C319.12 916.188 319.242 916.515 319.465 916.77C319.689 917.024 319.997 917.188 320.333 917.23V957.363L308.568 964.266L285.037 978.053L250.838 957.911C250.905 957.735 250.943 957.55 250.952 957.363C250.949 957.022 250.823 956.695 250.597 956.44C250.371 956.186 250.06 956.023 249.722 955.982V915.849L284.999 895.045ZM320.466 832.633L332.231 839.536L354.646 852.681C354.571 852.854 354.532 853.041 354.533 853.229C354.534 853.572 354.659 853.902 354.885 854.159C355.111 854.416 355.423 854.583 355.762 854.629V894.743L321.563 914.809C321.439 914.634 321.274 914.49 321.084 914.392C320.893 914.293 320.681 914.242 320.466 914.242C320.251 914.245 320.041 914.297 319.85 914.396C319.66 914.494 319.495 914.636 319.369 914.809L308.7 908.549L285.189 894.743V854.723C285.524 854.673 285.831 854.505 286.053 854.248C286.276 853.991 286.398 853.663 286.399 853.324C286.428 853.142 286.428 852.957 286.399 852.775L320.466 832.633ZM320.636 790.931L332.402 784.009L354.835 770.864C354.959 771.04 355.124 771.183 355.315 771.282C355.505 771.381 355.717 771.433 355.932 771.433C356.147 771.433 356.359 771.381 356.55 771.282C356.741 771.183 356.905 771.04 357.029 770.864L391.21 790.931V832.331L357.029 852.397C356.908 852.218 356.745 852.071 356.553 851.969C356.362 851.867 356.149 851.814 355.932 851.814C355.716 851.814 355.502 851.867 355.311 851.969C355.12 852.071 354.957 852.218 354.835 852.397L344.091 846.231L320.56 832.425L320.636 790.931ZM285.189 769.9V729.88C285.524 729.839 285.833 729.675 286.057 729.42C286.28 729.166 286.402 728.838 286.399 728.5C286.431 728.318 286.431 728.133 286.399 727.951L319.463 708.528C319.589 708.704 319.753 708.848 319.943 708.95C320.133 709.051 320.345 709.108 320.56 709.114C320.777 709.111 320.989 709.056 321.18 708.954C321.371 708.852 321.534 708.706 321.658 708.528L332.326 714.788L355.857 728.594V768.727C355.519 768.769 355.208 768.932 354.982 769.186C354.755 769.44 354.629 769.768 354.627 770.108C354.627 770.296 354.665 770.483 354.741 770.656L344.091 776.897L320.56 790.704L285.189 769.9ZM107.648 957.571L119.451 964.549L141.866 977.694C141.791 977.867 141.752 978.054 141.753 978.242C141.759 978.581 141.886 978.907 142.111 979.16C142.337 979.414 142.646 979.578 142.982 979.623V1019.76L107.648 1040.37L73.6001 1020.32C73.6373 1020.14 73.6373 1019.96 73.6001 1019.77C73.598 1019.43 73.472 1019.11 73.2458 1018.85C73.0195 1018.6 72.7083 1018.44 72.3706 1018.39V978.261L107.648 957.571ZM119.602 908.946L143.114 895.14L178.411 915.944V957.344L144.249 977.316C144.125 977.14 143.961 976.997 143.77 976.898C143.579 976.8 143.367 976.748 143.152 976.748C142.94 976.75 142.732 976.802 142.544 976.9C142.356 976.999 142.195 977.142 142.074 977.316L131.387 971.055L107.875 957.249V917.135C108.214 917.093 108.526 916.927 108.749 916.668C108.973 916.41 109.093 916.077 109.085 915.736C109.084 915.547 109.046 915.361 108.972 915.187L119.602 908.946ZM70.9519 852.775C70.8758 852.971 70.8447 853.181 70.861 853.391C70.8772 853.6 70.9403 853.803 71.0457 853.985C71.1511 854.166 71.2959 854.322 71.4696 854.44C71.6433 854.558 71.8413 854.635 72.049 854.667V894.78L36.7717 915.584L2.59142 895.537C2.66891 895.358 2.70759 895.165 2.70491 894.97C2.70284 894.629 2.57687 894.302 2.35058 894.047C2.12429 893.793 1.81317 893.63 1.4754 893.589V853.437L36.7717 832.728L70.9519 852.775ZM107.648 832.728L119.451 839.726L141.866 852.87C141.791 853.043 141.752 853.23 141.753 853.418C141.754 853.761 141.879 854.091 142.105 854.348C142.331 854.605 142.643 854.772 142.982 854.818V894.932L131.217 901.835L108.783 915.074C108.659 914.898 108.494 914.755 108.303 914.657C108.113 914.558 107.901 914.506 107.686 914.506C107.474 914.508 107.265 914.56 107.078 914.659C106.89 914.757 106.729 914.9 106.608 915.074L72.4084 894.837V854.723C72.7478 854.678 73.0592 854.511 73.2851 854.254C73.5111 853.996 73.6364 853.666 73.6379 853.324C73.6538 853.14 73.6411 852.955 73.6001 852.775L107.648 832.728ZM177.295 790.363C177.217 790.536 177.178 790.723 177.181 790.912C177.183 791.252 177.309 791.58 177.536 791.834C177.762 792.088 178.073 792.251 178.411 792.292V832.425L144.249 852.492C144.128 852.311 143.965 852.164 143.774 852.062C143.583 851.959 143.369 851.906 143.152 851.905C142.938 851.905 142.727 851.959 142.539 852.062C142.35 852.164 142.191 852.312 142.074 852.492L131.387 846.231L107.875 832.425V792.292C108.211 792.251 108.52 792.087 108.743 791.832C108.966 791.578 109.088 791.25 109.085 790.912C109.088 790.723 109.05 790.536 108.972 790.363L143.152 770.316L177.295 790.363ZM214.047 770.316L225.851 777.314L248.247 790.458C248.216 790.639 248.216 790.825 248.247 791.006C248.249 791.347 248.375 791.674 248.601 791.929C248.827 792.183 249.138 792.346 249.476 792.387V832.52L215.182 852.492C215.056 852.312 214.889 852.166 214.695 852.064C214.501 851.962 214.286 851.907 214.066 851.905C213.853 851.912 213.645 851.968 213.457 852.07C213.27 852.172 213.109 852.316 212.988 852.492L178.789 832.425V792.292C179.127 792.251 179.438 792.088 179.664 791.834C179.89 791.58 180.016 791.252 180.018 790.912C180.021 790.723 179.983 790.536 179.905 790.363L214.047 770.316ZM214.218 728.594L225.983 721.691L249.514 707.885L283.694 727.951C283.662 728.133 283.662 728.318 283.694 728.5C283.692 728.838 283.813 729.166 284.037 729.42C284.26 729.675 284.569 729.839 284.905 729.88V769.994L250.649 790.061C250.521 789.885 250.353 789.742 250.159 789.643C249.965 789.545 249.75 789.493 249.533 789.493C249.321 789.496 249.113 789.549 248.926 789.648C248.738 789.746 248.577 789.888 248.455 790.061L237.786 783.801L214.256 769.994L214.218 728.594ZM178.411 666.182V706.296C178.073 706.338 177.762 706.501 177.536 706.755C177.309 707.009 177.183 707.337 177.181 707.677C177.179 707.872 177.217 708.065 177.295 708.244L143.114 728.292L108.972 708.244C109.048 708.049 109.079 707.838 109.063 707.629C109.047 707.42 108.984 707.217 108.878 707.035C108.773 706.853 108.628 706.698 108.454 706.58C108.281 706.462 108.083 706.384 107.875 706.353V666.182L142.074 646.116C142.195 646.29 142.356 646.432 142.544 646.531C142.732 646.63 142.94 646.682 143.152 646.683C143.367 646.683 143.579 646.632 143.77 646.533C143.961 646.435 144.125 646.291 144.249 646.116L178.411 666.182ZM214.047 645.473L225.813 652.376L248.209 665.52C248.18 665.702 248.18 665.887 248.209 666.069C248.207 666.41 248.331 666.74 248.558 666.995C248.785 667.25 249.099 667.412 249.438 667.45V707.582L237.673 714.485L214.142 728.292L179.905 708.244C179.981 708.047 180.012 707.835 179.994 707.625C179.977 707.414 179.912 707.21 179.805 707.028C179.698 706.847 179.55 706.691 179.374 706.574C179.199 706.457 178.998 706.382 178.789 706.353V666.182L214.047 645.473ZM214.218 603.752L225.983 596.867L249.514 583.061L283.694 603.108C283.665 603.29 283.665 603.475 283.694 603.657C283.692 603.995 283.813 604.323 284.037 604.578C284.26 604.832 284.569 604.996 284.905 605.038V645.17L250.649 665.237C250.522 665.059 250.354 664.913 250.161 664.811C249.967 664.709 249.752 664.654 249.533 664.65C249.32 664.657 249.111 664.713 248.924 664.815C248.737 664.917 248.576 665.061 248.455 665.237L237.786 658.958L214.256 645.17L214.218 603.752ZM179.905 583.401C179.98 583.228 180.019 583.042 180.018 582.853C180.021 582.509 179.897 582.177 179.67 581.919C179.444 581.661 179.13 581.495 178.789 581.453V541.34L214.085 520.536L248.247 540.583C248.218 540.765 248.218 540.95 248.247 541.131C248.244 541.475 248.368 541.807 248.595 542.065C248.821 542.324 249.135 542.489 249.476 542.531V582.645L237.711 589.548L214.18 603.354L179.905 583.401ZM143.133 521.841C143.348 521.841 143.56 521.789 143.751 521.69C143.942 521.592 144.106 521.449 144.23 521.273L154.937 527.533L178.467 541.34V581.472C178.131 581.514 177.823 581.678 177.599 581.932C177.376 582.187 177.254 582.514 177.257 582.853C177.254 583.036 177.293 583.217 177.37 583.382L144.268 602.806C144.144 602.63 143.98 602.487 143.789 602.389C143.598 602.29 143.386 602.238 143.171 602.238C142.959 602.24 142.751 602.292 142.563 602.391C142.375 602.49 142.214 602.632 142.093 602.806L107.856 582.739V541.34L142.055 521.273C142.176 521.447 142.337 521.589 142.525 521.688C142.713 521.787 142.921 521.839 143.133 521.841V521.841ZM143.323 478.928L155.088 472.024L178.6 458.218L212.78 478.266C212.705 478.439 212.666 478.625 212.667 478.814C212.669 479.154 212.795 479.482 213.021 479.736C213.247 479.99 213.558 480.153 213.896 480.195V520.327L178.6 541.037L166.834 534.134L144.42 520.989C144.496 520.794 144.527 520.583 144.511 520.374C144.494 520.165 144.431 519.962 144.326 519.78C144.22 519.598 144.076 519.443 143.902 519.325C143.728 519.207 143.53 519.129 143.323 519.098V478.928ZM107.497 416.516V456.648C107.161 456.69 106.852 456.854 106.629 457.108C106.405 457.363 106.283 457.69 106.286 458.029C106.285 458.218 106.324 458.404 106.4 458.577L72.2193 478.606L36.923 457.915V417.783C37.2608 417.741 37.5719 417.578 37.7982 417.324C38.0245 417.07 38.1504 416.742 38.1525 416.402C38.1554 416.213 38.1167 416.026 38.039 415.854L72.2193 395.787L107.497 416.516ZM143.133 397.035C143.35 397.032 143.562 396.977 143.753 396.875C143.944 396.773 144.107 396.627 144.23 396.449L154.937 402.69L178.467 416.497V457.915L166.702 464.819L143.171 478.606L108.972 458.559C109.039 458.383 109.077 458.198 109.085 458.01C109.083 457.67 108.957 457.342 108.731 457.088C108.505 456.834 108.194 456.671 107.856 456.629V416.497L142.055 396.43C142.175 396.607 142.336 396.752 142.523 396.854C142.711 396.956 142.92 397.012 143.133 397.017V397.035ZM212.78 353.442C212.705 353.615 212.666 353.801 212.667 353.99C212.668 354.332 212.793 354.663 213.019 354.92C213.245 355.177 213.557 355.344 213.896 355.39V395.504L178.6 416.194L166.834 409.291L144.42 396.052C144.496 395.856 144.527 395.646 144.511 395.437C144.494 395.227 144.431 395.024 144.326 394.843C144.22 394.661 144.076 394.505 143.902 394.387C143.728 394.269 143.53 394.192 143.323 394.161V354.085L178.6 333.375L212.78 353.442ZM249.514 333.375L261.26 340.278L283.675 353.517C283.647 353.699 283.647 353.884 283.675 354.066C283.676 354.405 283.799 354.733 284.021 354.99C284.243 355.247 284.55 355.415 284.886 355.465V395.579L250.63 415.551C250.509 415.372 250.345 415.225 250.154 415.123C249.963 415.021 249.749 414.968 249.533 414.968C249.316 414.968 249.103 415.021 248.912 415.123C248.72 415.225 248.557 415.372 248.436 415.551L214.237 395.485V355.371C214.576 355.325 214.887 355.158 215.113 354.901C215.339 354.644 215.465 354.314 215.466 353.971C215.467 353.782 215.428 353.596 215.353 353.423L249.514 333.375ZM250.8 291.011L261.45 284.77L284.962 270.963L320.258 291.673V331.787C319.922 331.828 319.613 331.992 319.39 332.246C319.167 332.501 319.045 332.829 319.047 333.167C319.006 333.348 319.006 333.535 319.047 333.716L285.964 353.139C285.845 352.96 285.683 352.812 285.494 352.711C285.304 352.609 285.092 352.555 284.876 352.555C284.661 352.555 284.449 352.609 284.259 352.711C284.069 352.812 283.908 352.96 283.789 353.139L273.12 346.879L249.59 333.073V292.959C249.927 292.909 250.237 292.741 250.462 292.485C250.687 292.229 250.814 291.9 250.819 291.559C250.847 291.377 250.847 291.192 250.819 291.011H250.8ZM213.896 229.242V270.642L179.697 290.727C179.576 290.548 179.412 290.401 179.221 290.299C179.03 290.197 178.816 290.144 178.6 290.144C178.383 290.144 178.17 290.197 177.979 290.299C177.787 290.401 177.624 290.548 177.503 290.727L143.323 270.642V230.528C143.658 230.486 143.967 230.322 144.191 230.068C144.414 229.813 144.536 229.486 144.533 229.147C144.536 228.958 144.497 228.771 144.42 228.599L178.6 208.551L213.896 229.242ZM249.514 209.762C249.731 209.76 249.943 209.705 250.134 209.603C250.325 209.501 250.489 209.354 250.611 209.175L261.26 215.435L284.791 229.242V270.642L273.026 277.564L250.611 290.803C250.49 290.623 250.326 290.476 250.135 290.375C249.944 290.273 249.731 290.22 249.514 290.22C249.297 290.22 249.084 290.273 248.893 290.375C248.702 290.476 248.538 290.623 248.417 290.803L214.237 270.642V229.242L248.436 209.175C248.556 209.352 248.716 209.497 248.904 209.599C249.091 209.701 249.301 209.757 249.514 209.762ZM284.962 147.35C285.176 147.35 285.388 147.298 285.579 147.2C285.77 147.101 285.934 146.958 286.059 146.782L296.727 153.042L320.258 166.849V206.963C319.92 207.009 319.611 207.176 319.388 207.434C319.165 207.691 319.044 208.022 319.047 208.362C319.009 208.543 319.009 208.73 319.047 208.911L284.867 228.958L273.12 222.055L250.706 208.816C250.772 208.64 250.81 208.455 250.819 208.268C250.818 207.925 250.692 207.595 250.466 207.338C250.24 207.08 249.929 206.914 249.59 206.868V166.83L283.789 146.763C283.922 146.953 284.101 147.104 284.31 147.204C284.519 147.303 284.75 147.347 284.98 147.331L284.962 147.35ZM285.151 104.418L296.916 97.5147L320.428 83.7273L354.608 103.775C354.533 103.948 354.494 104.135 354.495 104.323C354.497 104.663 354.623 104.991 354.849 105.245C355.075 105.5 355.387 105.663 355.724 105.704V145.818L320.428 166.622L308.663 159.719L286.267 146.48C286.295 146.292 286.295 146.1 286.267 145.912C286.269 145.574 286.147 145.246 285.924 144.992C285.701 144.737 285.392 144.573 285.056 144.532L285.151 104.418ZM284.962 22.5068C285.176 22.5069 285.388 22.4555 285.579 22.3567C285.77 22.258 285.934 22.1149 286.059 21.9394L320.277 41.9869V83.3869L308.511 90.29L284.98 104.021L250.819 83.9732C250.886 83.7975 250.924 83.6124 250.933 83.4247C250.931 83.0845 250.805 82.7566 250.578 82.5025C250.352 82.2484 250.041 82.0854 249.703 82.0441V41.9869L283.902 21.9205C284.024 22.0934 284.186 22.2349 284.373 22.3335C284.561 22.4321 284.769 22.485 284.98 22.4879L284.962 22.5068Z" fill="white"/>
</g>
</svg>
