<svg width="55" height="55" viewBox="0 0 55 55" fill="none" xmlns="http://www.w3.org/2000/svg">
<rect x="27.2125" width="38.4844" height="38.4844" rx="7.08987" transform="rotate(45 27.2125 0)" fill="#37474F"/>
<mask id="mask0_700_12681" style="mask-type:alpha" maskUnits="userSpaceOnUse" x="2" y="2" width="50" height="50">
<rect x="27.2125" width="38.4844" height="38.4844" rx="7.08987" transform="rotate(45 27.2125 0)" fill="#FDCE25"/>
</mask>
<g mask="url(#mask0_700_12681)">
</g>
<g clip-path="url(#clip0_700_12681)">
<path d="M31.049 34.5006C27.987 34.4966 25.0515 33.2785 22.8863 31.1133C20.7211 28.9481 19.503 26.0126 19.499 22.9506C19.499 22.0356 19.8625 21.1581 20.5095 20.5111C21.1565 19.8641 22.034 19.5006 22.949 19.5006C23.1428 19.4991 23.3362 19.5167 23.5265 19.5531C23.7105 19.5803 23.8914 19.6255 24.0665 19.6881C24.1897 19.7313 24.2995 19.8059 24.385 19.9046C24.4705 20.0032 24.5287 20.1225 24.554 20.2506L25.5815 24.7506C25.6092 24.8727 25.6059 24.9999 25.5718 25.1204C25.5378 25.2409 25.4741 25.351 25.3865 25.4406C25.289 25.5456 25.2815 25.5531 24.359 26.0331C25.0978 27.6537 26.3939 28.9552 28.0115 29.7006C28.499 28.7706 28.5065 28.7631 28.6115 28.6656C28.7011 28.578 28.8112 28.5143 28.9317 28.4803C29.0522 28.4462 29.1794 28.4429 29.3015 28.4706L33.8015 29.4981C33.9255 29.5268 34.0401 29.5867 34.1346 29.672C34.2291 29.7573 34.3003 29.8652 34.3415 29.9856C34.4048 30.1636 34.4525 30.3468 34.484 30.5331C34.5142 30.7216 34.5293 30.9122 34.529 31.1031C34.5152 32.0142 34.1415 32.8828 33.4895 33.5193C32.8375 34.1558 31.9602 34.5086 31.049 34.5006ZM22.949 21.0006C22.4325 21.0025 21.9376 21.2086 21.5723 21.5739C21.2071 21.9392 21.001 22.434 20.999 22.9506C21.001 25.6154 22.0605 28.1705 23.9448 30.0548C25.8291 31.9391 28.3842 32.9986 31.049 33.0006C31.5656 32.9986 32.0604 32.7925 32.4257 32.4272C32.791 32.062 32.997 31.5671 32.999 31.0506V30.8031L29.519 30.0006L29.3015 30.4131C28.964 31.0656 28.7165 31.5381 28.0865 31.2831C26.8437 30.8382 25.7155 30.1221 24.7841 29.1867C23.8526 28.2514 23.1412 27.1203 22.7015 25.8756C22.4315 25.2906 22.9415 25.0206 23.5865 24.6831L23.999 24.4806L23.1965 21.0006H22.949Z" fill="white"/>
</g>
<defs>
<clipPath id="clip0_700_12681">
<rect width="18" height="18" fill="white" transform="translate(17.9996 18)"/>
</clipPath>
</defs>
</svg>
