<svg width="32" height="32" viewBox="0 0 32 32" fill="none" xmlns="http://www.w3.org/2000/svg">
<g clip-path="url(#clip0_190_16510)">
<path d="M12.8003 0.320312H22.6803C23.2326 0.320312 23.6803 0.768028 23.6803 1.32031V18.5203C23.6803 19.0726 23.2326 19.5203 22.6803 19.5203H9.32031C8.76803 19.5203 8.32031 19.0726 8.32031 18.5203V1.32031C8.32031 0.768027 8.76803 0.320312 9.32031 0.320312H11.5203M20.8003 4.20031V12.4403C20.8003 12.9926 20.3526 13.4403 19.8003 13.4403H12.2003C11.648 13.4403 11.2003 12.9926 11.2003 12.4403V4.20031C11.2003 3.64803 11.648 3.20031 12.2003 3.20031H19.8003C20.3526 3.20031 20.8003 3.64803 20.8003 4.20031Z" stroke="white"/>
<path d="M9.91992 19.8398V28.4798" stroke="white"/>
<path d="M21.7607 19.8398V28.4798" stroke="white"/>
<rect x="8.17969" y="28.6602" width="15.64" height="2.84" rx="1.42" stroke="white"/>
<rect x="12.4102" y="16.8906" width="7.82" height="1.42" rx="0.71" stroke="white" stroke-width="0.5"/>
<rect x="9.20996" y="14.3301" width="3.98" height="1.42" rx="0.71" stroke="white" stroke-width="0.5"/>
<rect x="18.8096" y="14.3301" width="3.98" height="1.42" rx="0.71" stroke="white" stroke-width="0.5"/>
</g>
<defs>
<clipPath id="clip0_190_16510">
<rect width="32" height="32" fill="white"/>
</clipPath>
</defs>
</svg>
