<svg width="32" height="32" viewBox="0 0 32 32" fill="none" xmlns="http://www.w3.org/2000/svg">
<g clip-path="url(#clip0_185_1147)">
<path d="M12.8003 0.319824H22.6803C23.2326 0.319824 23.6803 0.76754 23.6803 1.31982V18.5198C23.6803 19.0721 23.2326 19.5198 22.6803 19.5198H9.32031C8.76803 19.5198 8.32031 19.0721 8.32031 18.5198V1.31982C8.32031 0.767539 8.76803 0.319824 9.32031 0.319824H11.5203M20.8003 4.19983V12.4398C20.8003 12.9921 20.3526 13.4398 19.8003 13.4398H12.2003C11.648 13.4398 11.2003 12.9921 11.2003 12.4398V4.19982C11.2003 3.64754 11.648 3.19982 12.2003 3.19982H19.8003C20.3526 3.19982 20.8003 3.64754 20.8003 4.19983Z" stroke="white"/>
<path d="M9.91992 19.8398V28.4798" stroke="white"/>
<path d="M21.7607 19.8398V28.4798" stroke="white"/>
<rect x="8.17969" y="28.6602" width="15.64" height="2.84" rx="1.42" stroke="white"/>
<rect x="12.4102" y="16.8901" width="7.82" height="1.42" rx="0.71" stroke="white" stroke-width="0.5"/>
<rect x="9.20996" y="14.3301" width="3.98" height="1.42" rx="0.71" stroke="white" stroke-width="0.5"/>
<rect x="18.8096" y="14.3301" width="3.98" height="1.42" rx="0.71" stroke="white" stroke-width="0.5"/>
</g>
<defs>
<clipPath id="clip0_185_1147">
<rect width="32" height="32" fill="white"/>
</clipPath>
</defs>
</svg>
