<svg width="1440" height="379" viewBox="0 0 1440 379" fill="none" xmlns="http://www.w3.org/2000/svg">
<g filter="url(#filter0_d_190_21913)">
<path d="M1440 1H0V43.9226C0 82.9471 27.8261 116.424 66.193 123.558L1331.18 358.767C1387.76 369.287 1440 325.865 1440 268.317V1Z" fill="#37474F"/>
<mask id="mask0_190_21913" style="mask-type:alpha" maskUnits="userSpaceOnUse" x="-1" y="0" width="1442" height="361">
<path d="M1440 1H0V43.9226C0 82.9471 27.8261 116.424 66.193 123.558L1331.18 358.767C1387.76 369.287 1440 325.865 1440 268.317V1Z" fill="#37474F" stroke="black"/>
</mask>
<g mask="url(#mask0_190_21913)">
<g opacity="0.4">
<g opacity="0.1">
<path opacity="0.3" d="M1193.73 153.425L1162.71 171.622L1131.67 153.425V116.996L1162.71 98.7988L1193.73 116.996V153.425Z" fill="white"/>
<path opacity="0.6" d="M1161.13 96.0147L1130.09 114.229L1099.06 96.0147V59.6031L1130.09 41.3887L1161.13 59.6031V96.0147Z" fill="white"/>
<path opacity="0.3" d="M1193.73 38.6065L1162.71 56.821L1131.67 38.6065V2.19489L1162.71 -16.0195L1193.73 2.19489V38.6065Z" fill="white"/>
<path opacity="0.1" d="M1226.35 210.818L1195.31 229.032L1164.29 210.818V174.406L1195.31 156.192L1226.35 174.406V210.818Z" fill="white"/>
<path opacity="0.3" d="M1258.97 383.031L1227.93 401.246L1196.89 383.031V346.62L1227.93 328.405L1258.97 346.62V383.031Z" fill="white"/>
<path opacity="0.6" d="M1324.19 383.031L1293.15 401.246L1262.13 383.031V346.62L1293.15 328.405L1324.19 346.62V383.031Z" fill="white"/>
<path opacity="0.3" d="M1291.57 210.818L1260.55 229.032L1229.51 210.818V174.406L1260.55 156.192L1291.57 174.406V210.818Z" fill="white"/>
<path opacity="0.6" d="M1258.97 153.425L1227.93 171.622L1196.89 153.425V116.996L1227.93 98.7988L1258.97 116.996V153.425Z" fill="white"/>
<path opacity="0.6" d="M1258.97 268.228L1227.93 286.425L1196.89 268.228V231.799L1227.93 213.602L1258.97 231.799V268.228Z" fill="white"/>
<path opacity="0.3" d="M1193.73 268.228L1162.71 286.425L1131.67 268.228V231.799L1162.71 213.602L1193.73 231.799V268.228Z" fill="white"/>
<path opacity="0.6" d="M1128.51 268.228L1097.47 286.425L1066.44 268.228V231.799L1097.47 213.602L1128.51 231.799V268.228Z" fill="white"/>
<path opacity="0.1" d="M1291.57 96.0147L1260.55 114.212L1229.51 96.0147V59.5859L1260.55 41.3887L1291.57 59.5859V96.0147Z" fill="white"/>
<path opacity="0.1" d="M1161.13 325.621L1130.09 343.835L1099.06 325.621V289.209L1130.09 271.012L1161.13 289.209V325.621Z" fill="white"/>
<path opacity="0.6" d="M1128.51 383.031L1097.47 401.246L1066.44 383.031V346.62L1097.47 328.405L1128.51 346.62V383.031Z" fill="white"/>
<path opacity="0.6" d="M1258.97 38.6065L1227.93 56.821L1196.9 38.6065V2.19489L1227.93 -16.0195L1258.97 2.19489V38.6065Z" fill="white"/>
<path opacity="0.1" d="M1291.57 325.621L1260.55 343.835L1229.51 325.621V289.209L1260.55 271.012L1291.57 289.209V325.621Z" fill="white"/>
</g>
<path d="M1198.7 -78H1198.61L1166.32 -59.0982V-20.9511L1198.48 -2.04932V35.5824L1166.25 54.4841V92.2876L1134.18 111.189L1101.96 92.2876L1069.65 111.189V149.182L1101.94 168.084H1102.03L1134.17 149.182L1166.23 167.981V205.612L1134.27 224.514L1102.05 205.612L1069.74 224.514V262.318L1037.62 281.236L1005.39 262.335L973.1 281.236V319.229L1005.41 338.131L1037.56 319.229L1069.62 338.131V375.745L1037.39 394.647V432.64L1069.68 451.541L1101.99 432.64V394.836L1134.2 375.934V338.045L1102.06 319.143V281.511L1134.11 262.61L1166.34 281.511L1198.63 262.61V224.806L1230.68 205.99L1262.75 224.806V262.421L1230.53 281.322V319.315L1262.66 338.217V376.02H1262.75L1295.04 394.922H1295.13L1327.42 376.02V338.045H1327.34L1295.2 319.143V281.511L1327.27 262.61L1359.49 281.511L1391.8 262.61V224.617H1391.71L1359.42 205.715H1359.34L1327.2 224.617L1295.13 205.818V168.187L1327.59 149.285L1359.82 168.187L1392.13 149.285V111.482L1424.18 92.5798L1456.4 111.482L1488.69 92.5798V54.4841H1488.61L1456.49 35.4105H1456.4L1424.26 54.3123L1392.2 35.5824V-2.04932L1424.4 -20.9511V-58.9436L1392.09 -77.8453L1359.78 -58.9436V-21.1401L1327.58 -2.23833V35.7542L1359.71 54.6559V92.2876L1327.66 111.189L1295.44 92.2876H1295.35L1263.06 111.189V148.993L1230.99 167.792L1198.87 149.01V111.378L1231.09 92.4767V54.6731L1263.32 35.7714V-2.23833L1231.18 -21.1401V-58.9436L1198.7 -78ZM1392.01 -2.39298L1381.32 -8.66493L1359.95 -21.2088V-58.7546L1392.01 -77.6563L1424.08 -58.7546V-21.1401L1392.01 -2.39298ZM1391.85 35.5136L1381.16 41.7684L1359.82 54.3123L1327.75 35.5824V-2.04932L1359.82 -20.848L1370.56 -14.576L1391.92 -2.04932L1391.85 35.5136ZM1424.38 92.2189V54.6731L1456.45 35.7714L1488.5 54.6731V92.2876L1456.45 111.189L1424.38 92.2189ZM1392.01 111.121L1381.32 104.849L1359.95 92.3048V54.6731L1370.64 48.4012L1392.01 35.8573L1424.08 54.759V92.2876L1392.01 111.121ZM1327.73 149.027V111.396L1359.8 92.4938L1370.49 98.7658L1391.85 111.31V148.941L1359.8 167.74L1327.73 149.027ZM1295.35 167.826L1284.63 161.537L1263.27 149.01V111.378L1295.32 92.4767L1327.39 111.378V149.01L1295.35 167.826ZM1327.73 262.438V224.806L1359.8 205.99L1391.85 224.806V262.421L1359.8 281.236L1327.73 262.438ZM1263.32 338.234L1273.99 331.962L1295.37 319.418L1327.44 338.32V375.934L1295.37 394.75L1263.32 375.848V338.234ZM1263.15 262.627L1273.84 268.899L1295.22 281.443V319.074L1284.53 325.329L1263.15 337.873L1231.09 319.074V281.443L1263.15 262.627ZM1263.32 224.737L1273.99 218.465L1295.37 205.922L1327.44 224.737V262.352L1295.37 281.168L1284.63 274.965L1263.27 262.421L1263.32 224.737ZM1231.09 205.647V168.015L1263.15 149.216L1273.84 155.488L1295.22 168.015V205.647L1284.53 211.919L1263.15 224.445L1231.09 205.647ZM1069.8 376.123L1080.49 382.395L1101.87 394.939V432.554L1069.8 451.369L1037.77 432.554V394.939L1069.8 376.123ZM1069.98 338.32L1080.67 332.048L1102.03 319.504L1134.1 338.406V376.02L1102.05 394.647L1091.36 388.392L1069.99 375.848L1069.98 338.32ZM1037.43 281.614V319.246L1005.37 338.045L973.306 319.246V281.614L1005.37 262.713L1037.43 281.614ZM1069.8 262.713L1080.49 268.985L1101.87 281.529V319.16L1091.18 325.415L1069.8 337.942L1037.77 319.143V281.511L1069.8 262.713ZM1134.1 224.823V262.438L1102.05 281.236L1091.36 274.965L1069.99 262.421V224.806L1102.05 205.99L1134.1 224.823ZM1166.48 206.007L1177.17 212.279L1198.54 224.823V262.438L1166.49 281.236L1134.42 262.421V224.806L1166.48 206.007ZM1166.63 168.101L1177.32 161.846L1198.7 149.285L1230.75 168.084V205.715L1198.7 224.514L1188.01 218.259L1166.63 205.715V168.101ZM1134.1 111.396V149.027L1102.05 167.809L1069.99 149.01V111.378L1102.05 92.4767L1134.1 111.396ZM1166.48 92.4938L1177.17 98.7658L1198.54 111.31V148.941L1187.85 155.196L1166.48 167.74L1134.42 149.01V111.378L1166.48 92.4938ZM1198.7 35.7886L1209.37 42.0605L1230.75 54.6044V92.2876L1198.7 111.103L1188.01 104.832L1166.63 92.2876V54.6731L1198.7 35.7886ZM1198.85 -2.11804L1209.54 -8.37282L1230.91 -20.9167L1262.97 -2.11804V35.5136L1230.92 54.3123L1220.25 48.0575L1198.87 35.5824L1198.85 -2.11804ZM1198.7 -77.5704L1230.75 -58.6687V-21.1401L1220.06 -14.8681L1198.7 -2.39298L1166.63 -21.2947V-58.7546L1198.7 -77.5704Z" fill="white"/>
<path d="M1230.92 -60.1289C1230.59 -60.1244 1230.27 -59.9884 1230.03 -59.7504C1229.8 -59.5125 1229.67 -59.1916 1229.67 -58.8573C1229.64 -58.6866 1229.64 -58.5126 1229.67 -58.3418L1198.56 -40.0415V-3.38929C1198.25 -3.35169 1197.97 -3.20362 1197.77 -2.97274C1197.56 -2.74187 1197.45 -2.44401 1197.44 -2.13489C1197.44 -1.79605 1197.58 -1.47083 1197.82 -1.22963C1198.05 -0.988422 1198.38 -0.850651 1198.72 -0.846134C1198.91 -0.847969 1199.11 -0.897377 1199.28 -0.990131C1199.45 -1.08289 1199.6 -1.21625 1199.71 -1.37883L1230.77 16.8528V53.316C1230.46 53.3539 1230.18 53.5026 1229.98 53.7339C1229.78 53.9651 1229.67 54.2628 1229.67 54.5704C1229.64 54.7412 1229.64 54.915 1229.67 55.0859L1198.56 73.3862V110.021C1198.25 110.059 1197.97 110.21 1197.76 110.444C1197.55 110.679 1197.44 110.981 1197.44 111.293C1197.44 111.464 1197.48 111.634 1197.55 111.791L1166.49 130.006L1134.27 111.104L1103.04 129.421C1102.93 129.262 1102.78 129.132 1102.61 129.042C1102.43 128.952 1102.24 128.906 1102.05 128.906C1101.71 128.885 1101.38 129 1101.12 129.224C1100.87 129.448 1100.72 129.763 1100.7 130.1C1100.68 130.437 1100.79 130.769 1101.01 131.022C1101.24 131.275 1101.55 131.428 1101.89 131.449V168.084L1133.01 186.35C1132.95 186.507 1132.91 186.677 1132.91 186.848C1132.91 187.186 1133.05 187.509 1133.28 187.747C1133.52 187.986 1133.85 188.12 1134.18 188.12C1134.52 188.12 1134.84 187.986 1135.08 187.747C1135.32 187.509 1135.46 187.186 1135.46 186.848C1135.46 186.677 1135.42 186.507 1135.35 186.35L1166.41 168.136L1197.44 186.35C1197.42 186.515 1197.42 186.683 1197.44 186.848C1197.45 187.159 1197.56 187.459 1197.77 187.693C1197.97 187.927 1198.25 188.078 1198.56 188.12V224.566L1167.49 242.849C1167.38 242.689 1167.23 242.558 1167.05 242.466C1166.88 242.373 1166.69 242.322 1166.49 242.316C1166.3 242.32 1166.1 242.37 1165.93 242.462C1165.76 242.555 1165.61 242.687 1165.5 242.849L1134.27 224.514L1101.96 243.416V280.051C1101.65 280.089 1101.37 280.237 1101.16 280.468C1100.96 280.699 1100.84 280.996 1100.84 281.306C1100.85 281.482 1100.88 281.656 1100.95 281.821L1069.81 300.139L1037.6 281.237L1006.39 299.554C1006.27 299.397 1006.12 299.268 1005.95 299.179C1005.78 299.089 1005.59 299.041 1005.39 299.039C1005.22 299.039 1005.06 299.072 1004.9 299.137C1004.75 299.202 1004.61 299.297 1004.49 299.417C1004.37 299.537 1004.28 299.679 1004.21 299.836C1004.15 299.992 1004.12 300.159 1004.12 300.328C1004.12 300.637 1004.24 300.935 1004.44 301.165C1004.65 301.396 1004.93 301.544 1005.24 301.582V338.234L1037.55 357.136L1068.71 338.853C1068.82 339.012 1068.96 339.143 1069.14 339.233C1069.31 339.323 1069.5 339.37 1069.69 339.37C1069.89 339.37 1070.08 339.323 1070.25 339.233C1070.42 339.143 1070.57 339.012 1070.68 338.853L1101.75 357.084V393.53C1101.45 393.568 1101.16 393.716 1100.96 393.947C1100.75 394.178 1100.64 394.476 1100.64 394.785C1100.64 394.961 1100.68 395.135 1100.74 395.3L1069.67 413.652V451.645L1100.79 469.911C1100.73 470.07 1100.7 470.238 1100.69 470.409C1100.69 470.746 1100.82 471.07 1101.06 471.308C1101.3 471.547 1101.62 471.681 1101.96 471.681C1102.3 471.681 1102.62 471.547 1102.86 471.308C1103.1 471.07 1103.23 470.746 1103.23 470.409C1103.23 470.237 1103.2 470.068 1103.13 469.911L1133.19 452.28C1133.3 452.438 1133.46 452.567 1133.63 452.656C1133.81 452.745 1134 452.793 1134.2 452.796C1134.4 452.794 1134.59 452.745 1134.76 452.652C1134.94 452.559 1135.09 452.426 1135.2 452.263L1166.27 470.495V508.127L1134.29 526.994L1103.23 508.762C1103.3 508.606 1103.34 508.436 1103.33 508.264C1103.33 507.927 1103.2 507.603 1102.96 507.365C1102.72 507.126 1102.4 506.992 1102.06 506.992C1101.73 506.992 1101.4 507.126 1101.16 507.365C1100.93 507.603 1100.79 507.927 1100.79 508.264C1100.79 508.436 1100.82 508.606 1100.89 508.762L1069.68 527.08V563.715C1069.38 563.753 1069.1 563.902 1068.9 564.133C1068.69 564.364 1068.58 564.662 1068.58 564.969C1068.58 565.308 1068.71 565.635 1068.94 565.88C1069.18 566.124 1069.5 566.266 1069.84 566.275C1070.04 566.273 1070.23 566.224 1070.4 566.131C1070.58 566.038 1070.73 565.905 1070.84 565.743L1102.06 584.06L1133.2 565.777C1133.31 565.94 1133.46 566.073 1133.64 566.166C1133.81 566.258 1134 566.306 1134.2 566.306C1134.4 566.306 1134.59 566.258 1134.76 566.166C1134.94 566.073 1135.09 565.94 1135.2 565.777L1166.27 584.009V621.623L1135.28 639.82C1135.17 639.661 1135.02 639.531 1134.85 639.441C1134.67 639.351 1134.48 639.304 1134.29 639.304C1134.09 639.304 1133.9 639.351 1133.73 639.441C1133.55 639.531 1133.4 639.661 1133.29 639.82L1102.06 621.503L1070.84 639.82C1070.72 639.66 1070.58 639.529 1070.4 639.439C1070.23 639.349 1070.03 639.303 1069.84 639.305C1069.5 639.284 1069.17 639.398 1068.92 639.622C1068.66 639.846 1068.51 640.162 1068.49 640.499C1068.47 640.836 1068.58 641.168 1068.81 641.421C1069.03 641.674 1069.35 641.827 1069.68 641.848V678.311L1038.61 696.543C1038.5 696.379 1038.35 696.245 1038.18 696.152C1038.01 696.059 1037.81 696.01 1037.62 696.01C1037.42 696.016 1037.23 696.067 1037.06 696.16C1036.89 696.252 1036.75 696.383 1036.64 696.543L1005.41 678.208L973.117 697.11V733.745C972.809 733.786 972.526 733.938 972.321 734.172C972.115 734.405 972.001 734.705 972 735.016C972.004 735.357 972.142 735.682 972.382 735.923C972.623 736.163 972.948 736.301 973.289 736.305C973.482 736.295 973.67 736.242 973.839 736.15C974.009 736.058 974.156 735.929 974.269 735.772L1005.5 754.107H1005.58L1037.72 735.205L1068.76 753.42C1068.7 753.586 1068.67 753.76 1068.67 753.935C1068.67 754.243 1068.78 754.54 1068.98 754.772C1069.18 755.003 1069.47 755.152 1069.77 755.19V791.636L1037.55 810.537V847.172C1037.21 847.195 1036.9 847.351 1036.67 847.606C1036.45 847.86 1036.34 848.193 1036.36 848.53C1036.38 848.867 1036.54 849.182 1036.79 849.404C1037.05 849.626 1037.38 849.738 1037.72 849.716C1037.91 849.714 1038.1 849.667 1038.27 849.577C1038.44 849.487 1038.59 849.358 1038.7 849.2L1069.81 867.621H1069.89L1102.2 848.719V811.981C1102.51 811.943 1102.79 811.794 1102.99 811.563C1103.19 811.332 1103.3 811.034 1103.3 810.726C1103.3 810.555 1103.27 810.385 1103.2 810.228L1134.41 791.911V753.918L1102.27 735.016V698.57C1102.57 698.525 1102.85 698.372 1103.06 698.138C1103.26 697.905 1103.37 697.607 1103.37 697.299C1103.37 697.127 1103.33 696.958 1103.27 696.8L1134.32 678.586L1165.38 696.8C1165.31 696.992 1165.29 697.198 1165.31 697.4C1165.34 697.602 1165.41 697.795 1165.53 697.962C1165.65 698.13 1165.8 698.268 1165.98 698.365C1166.16 698.461 1166.36 698.514 1166.56 698.519C1166.73 698.516 1166.89 698.481 1167.05 698.415C1167.2 698.349 1167.34 698.254 1167.46 698.134C1167.57 698.015 1167.66 697.873 1167.73 697.718C1167.79 697.563 1167.82 697.397 1167.82 697.23C1167.82 697.059 1167.78 696.889 1167.71 696.732L1198.92 678.414V641.848C1199.23 641.81 1199.51 641.662 1199.72 641.431C1199.92 641.2 1200.04 640.903 1200.04 640.594C1200.03 640.423 1200 640.254 1199.94 640.095L1230.97 621.881L1263.04 640.697V678.311L1231.97 696.543C1231.86 696.379 1231.71 696.245 1231.54 696.152C1231.37 696.059 1231.17 696.01 1230.97 696.01C1230.65 696.022 1230.35 696.153 1230.12 696.376C1229.89 696.6 1229.76 696.901 1229.74 697.22C1229.72 697.539 1229.82 697.854 1230.02 698.104C1230.22 698.353 1230.5 698.52 1230.82 698.57V735.016L1198.61 753.918V790.57C1198.4 790.593 1198.2 790.667 1198.03 790.786C1197.85 790.905 1197.71 791.066 1197.62 791.254C1197.52 791.442 1197.47 791.651 1197.48 791.862C1197.48 792.073 1197.54 792.279 1197.64 792.463C1197.75 792.646 1197.89 792.801 1198.07 792.913C1198.25 793.025 1198.46 793.09 1198.67 793.104C1198.88 793.117 1199.09 793.078 1199.28 792.99C1199.47 792.901 1199.64 792.767 1199.76 792.598L1230.82 810.83V848.633L1261.94 866.899C1261.88 867.056 1261.85 867.227 1261.86 867.397C1261.86 867.564 1261.89 867.73 1261.95 867.885C1262.01 868.04 1262.1 868.182 1262.22 868.302C1262.33 868.421 1262.47 868.517 1262.63 868.583C1262.78 868.649 1262.95 868.684 1263.11 868.686C1263.45 868.682 1263.77 868.544 1264.01 868.303C1264.25 868.061 1264.38 867.736 1264.38 867.397C1264.39 867.225 1264.35 867.055 1264.28 866.899L1295.49 848.581V811.981C1295.83 811.96 1296.14 811.807 1296.37 811.554C1296.59 811.301 1296.71 810.969 1296.68 810.632C1296.66 810.295 1296.51 809.979 1296.26 809.755C1296 809.531 1295.67 809.417 1295.34 809.438C1295.14 809.44 1294.95 809.489 1294.77 809.582C1294.6 809.674 1294.45 809.808 1294.34 809.97L1263.32 791.739V755.276C1263.63 755.238 1263.91 755.09 1264.11 754.859C1264.32 754.628 1264.43 754.33 1264.44 754.021C1264.44 753.844 1264.4 753.669 1264.33 753.506L1295.54 735.205V698.57C1295.85 698.529 1296.13 698.377 1296.34 698.144C1296.54 697.91 1296.66 697.61 1296.66 697.299C1296.66 697.127 1296.62 696.958 1296.56 696.8L1327.59 678.586L1359.82 697.488L1390.98 679.205C1391.09 679.363 1391.23 679.492 1391.4 679.582C1391.57 679.671 1391.76 679.719 1391.95 679.72C1392.29 679.741 1392.62 679.626 1392.88 679.402C1393.13 679.178 1393.28 678.863 1393.3 678.526C1393.32 678.189 1393.21 677.857 1392.99 677.604C1392.76 677.351 1392.45 677.198 1392.11 677.177V640.508L1360.99 622.242C1361.04 622.081 1361.07 621.913 1361.07 621.743C1361.09 621.565 1361.08 621.384 1361.02 621.213C1360.97 621.042 1360.88 620.884 1360.76 620.75C1360.64 620.616 1360.49 620.509 1360.33 620.436C1360.17 620.362 1359.99 620.324 1359.81 620.324C1359.63 620.324 1359.45 620.362 1359.29 620.436C1359.12 620.509 1358.98 620.616 1358.86 620.75C1358.74 620.884 1358.65 621.042 1358.6 621.213C1358.54 621.384 1358.52 621.565 1358.55 621.743C1358.52 621.908 1358.52 622.077 1358.55 622.242L1327.59 640.404L1296.54 622.19C1296.61 622.033 1296.64 621.863 1296.64 621.692C1296.64 621.383 1296.53 621.085 1296.32 620.854C1296.11 620.623 1295.83 620.475 1295.52 620.437V583.974L1326.6 565.743C1326.71 565.904 1326.86 566.037 1327.03 566.129C1327.2 566.222 1327.4 566.272 1327.59 566.275C1327.79 566.269 1327.98 566.218 1328.15 566.126C1328.33 566.033 1328.48 565.902 1328.59 565.743L1359.82 584.06L1392.13 565.158V528.437C1392.32 528.409 1392.5 528.339 1392.65 528.231C1392.81 528.124 1392.94 527.983 1393.04 527.818C1393.13 527.653 1393.19 527.468 1393.21 527.278C1393.22 527.088 1393.19 526.897 1393.12 526.719L1424.18 508.505L1456.4 527.406H1456.49L1487.63 509.123C1487.74 509.283 1487.89 509.413 1488.06 509.502C1488.24 509.592 1488.43 509.639 1488.63 509.639C1488.96 509.659 1489.29 509.545 1489.55 509.321C1489.8 509.097 1489.95 508.782 1489.97 508.444C1490 508.107 1489.88 507.776 1489.66 507.523C1489.43 507.27 1489.12 507.116 1488.78 507.096V470.357L1456.49 451.456H1456.4L1425.26 469.722C1425.15 469.562 1425 469.432 1424.83 469.342C1424.65 469.252 1424.46 469.205 1424.26 469.205C1424.07 469.205 1423.88 469.252 1423.7 469.342C1423.53 469.432 1423.38 469.562 1423.27 469.722L1392.21 451.456V415.01C1392.52 414.972 1392.8 414.823 1393 414.592C1393.2 414.361 1393.31 414.063 1393.31 413.755C1393.31 413.58 1393.28 413.406 1393.23 413.24L1424.42 394.939V356.947L1393.3 338.681C1393.35 338.52 1393.38 338.352 1393.38 338.183C1393.4 338.004 1393.39 337.824 1393.33 337.653C1393.28 337.481 1393.19 337.324 1393.07 337.19C1392.95 337.056 1392.8 336.948 1392.64 336.875C1392.48 336.801 1392.3 336.763 1392.12 336.763C1391.94 336.763 1391.76 336.801 1391.6 336.875C1391.43 336.948 1391.29 337.056 1391.17 337.19C1391.05 337.324 1390.96 337.481 1390.91 337.653C1390.85 337.824 1390.83 338.004 1390.85 338.183C1390.83 338.348 1390.83 338.516 1390.85 338.681L1360.81 356.311C1360.7 356.153 1360.54 356.025 1360.37 355.935C1360.19 355.846 1360 355.798 1359.8 355.796C1359.6 355.796 1359.41 355.845 1359.24 355.938C1359.06 356.031 1358.91 356.165 1358.8 356.328L1327.73 338.097V300.465L1359.8 281.563L1390.84 299.795C1390.78 299.954 1390.74 300.122 1390.73 300.293C1390.73 300.63 1390.87 300.954 1391.11 301.192C1391.35 301.431 1391.67 301.565 1392.01 301.565C1392.34 301.565 1392.67 301.431 1392.91 301.192C1393.14 300.954 1393.28 300.63 1393.28 300.293C1393.31 300.128 1393.31 299.96 1393.28 299.795L1424.47 281.477V244.877C1424.78 244.839 1425.06 244.691 1425.27 244.46C1425.47 244.229 1425.59 243.931 1425.59 243.622C1425.59 243.453 1425.56 243.285 1425.5 243.128C1425.43 242.971 1425.34 242.827 1425.22 242.706C1425.1 242.585 1424.96 242.488 1424.81 242.421C1424.65 242.354 1424.49 242.319 1424.32 242.316C1424.12 242.322 1423.93 242.373 1423.76 242.466C1423.58 242.558 1423.43 242.689 1423.32 242.849L1392.04 224.514H1391.95L1360.8 242.797C1360.69 242.637 1360.54 242.505 1360.37 242.413C1360.2 242.32 1360.01 242.269 1359.82 242.265C1359.62 242.268 1359.43 242.318 1359.25 242.411C1359.08 242.503 1358.93 242.636 1358.82 242.797L1327.75 224.566V187.003L1358.82 168.771C1358.93 168.931 1359.08 169.061 1359.26 169.15C1359.43 169.24 1359.62 169.287 1359.82 169.287C1360.01 169.286 1360.2 169.238 1360.37 169.148C1360.54 169.059 1360.69 168.929 1360.8 168.771L1392.02 187.089L1423.16 168.823C1423.28 168.98 1423.43 169.109 1423.6 169.198C1423.78 169.288 1423.97 169.336 1424.16 169.338C1424.5 169.359 1424.83 169.245 1425.08 169.021C1425.34 168.797 1425.49 168.481 1425.51 168.144C1425.53 167.807 1425.42 167.475 1425.19 167.222C1424.97 166.969 1424.65 166.816 1424.32 166.795V130.28L1455.39 112.049C1455.5 112.211 1455.65 112.345 1455.82 112.438C1455.99 112.53 1456.19 112.58 1456.38 112.582C1456.58 112.576 1456.77 112.524 1456.95 112.432C1457.12 112.34 1457.27 112.208 1457.38 112.049L1488.61 130.384L1520.92 111.482V74.7437C1521.23 74.6922 1521.52 74.5245 1521.72 74.2733C1521.92 74.022 1522.02 73.7054 1522 73.3853C1521.98 73.0652 1521.84 72.7647 1521.6 72.5424C1521.37 72.3201 1521.07 72.1921 1520.75 72.1833C1520.55 72.1879 1520.36 72.2386 1520.19 72.3313C1520.02 72.4239 1519.88 72.5558 1519.77 72.7161L1488.69 54.3126H1488.61L1456.47 73.2144L1425.42 54.9999C1425.48 54.8363 1425.52 54.6613 1425.52 54.4845C1425.52 54.1753 1425.4 53.8775 1425.2 53.6466C1424.99 53.4157 1424.71 53.2676 1424.4 53.2301V16.87L1456.63 -2.03179V-38.684C1456.79 -38.6953 1456.96 -38.7394 1457.11 -38.8137C1457.26 -38.888 1457.39 -38.9911 1457.5 -39.1172C1457.61 -39.2432 1457.69 -39.3898 1457.75 -39.5484C1457.8 -39.7069 1457.82 -39.8745 1457.81 -40.0415C1457.8 -40.2085 1457.76 -40.3716 1457.68 -40.5216C1457.61 -40.6715 1457.5 -40.8054 1457.38 -40.9155C1457.25 -41.0256 1457.11 -41.1098 1456.95 -41.1632C1456.79 -41.2167 1456.62 -41.2384 1456.45 -41.2272C1456.26 -41.2245 1456.07 -41.1765 1455.9 -41.0869C1455.73 -40.9973 1455.59 -40.8687 1455.47 -40.7117L1424.25 -59.0979L1391.94 -40.1961V-3.38929C1391.63 -3.34781 1391.35 -3.19624 1391.14 -2.96253C1390.94 -2.72883 1390.82 -2.42876 1390.82 -2.1177C1390.83 -1.95277 1390.86 -1.79024 1390.92 -1.63657L1359.65 16.6809V54.6735L1391.78 73.5752V110.021C1391.47 110.063 1391.19 110.214 1390.99 110.448C1390.78 110.682 1390.67 110.982 1390.67 111.293C1390.67 111.463 1390.71 111.632 1390.77 111.791L1359.73 130.006L1328.68 111.791C1328.75 111.629 1328.78 111.453 1328.78 111.276C1328.78 111.109 1328.75 110.943 1328.68 110.789C1328.62 110.635 1328.53 110.495 1328.41 110.376C1328.29 110.258 1328.15 110.165 1327.99 110.101C1327.84 110.037 1327.67 110.004 1327.51 110.004C1327.34 110.004 1327.18 110.037 1327.02 110.101C1326.87 110.165 1326.73 110.258 1326.61 110.376C1326.49 110.495 1326.4 110.635 1326.33 110.789C1326.27 110.943 1326.24 111.109 1326.24 111.276C1326.24 111.447 1326.27 111.617 1326.34 111.774L1295.22 130.091V166.744C1294.91 166.781 1294.63 166.929 1294.42 167.16C1294.21 167.391 1294.1 167.689 1294.1 167.998C1294.1 168.17 1294.13 168.339 1294.2 168.496L1263.15 186.711L1231.09 167.809V130.28L1262.17 112.049C1262.27 112.212 1262.42 112.347 1262.59 112.44C1262.76 112.533 1262.95 112.581 1263.15 112.582C1263.49 112.577 1263.81 112.439 1264.05 112.198C1264.28 111.957 1264.42 111.632 1264.42 111.293C1264.42 110.983 1264.31 110.683 1264.11 110.449C1263.91 110.215 1263.63 110.063 1263.32 110.021V73.5752L1295.52 54.6735V18.0212C1295.73 17.999 1295.94 17.9248 1296.11 17.8055C1296.28 17.6861 1296.43 17.5253 1296.52 17.3376C1296.62 17.1498 1296.67 16.941 1296.66 16.73C1296.66 16.519 1296.6 16.3125 1296.5 16.1289C1296.39 15.9454 1296.24 15.7907 1296.07 15.6788C1295.89 15.5668 1295.68 15.5012 1295.47 15.4878C1295.26 15.4744 1295.05 15.5136 1294.86 15.6019C1294.67 15.6902 1294.5 15.8248 1294.37 15.9936L1263.32 -2.238V-40.0415L1232.11 -58.3418C1232.14 -58.5126 1232.14 -58.6866 1232.11 -58.8573C1232.11 -59.1802 1231.99 -59.4913 1231.77 -59.7274C1231.55 -59.9636 1231.25 -60.1071 1230.92 -60.1289ZM1424.25 16.5091L1413.52 10.3059L1393.16 -1.72249C1393.23 -1.87966 1393.26 -2.04935 1393.26 -2.22081C1393.26 -2.52836 1393.15 -2.82605 1392.95 -3.05732C1392.75 -3.28858 1392.47 -3.43729 1392.16 -3.47519V-39.8525L1424.21 -58.7542L1455.27 -40.5226C1455.2 -40.3661 1455.16 -40.196 1455.16 -40.0243C1455.17 -39.7152 1455.28 -39.4173 1455.49 -39.1865C1455.69 -38.9556 1455.97 -38.8075 1456.28 -38.7699V-2.22081L1424.25 16.5091ZM1413.4 60.6877L1392.02 73.2316L1359.97 54.3298V16.87L1391.04 -1.36164C1391.16 -1.20224 1391.31 -1.07222 1391.48 -0.982517C1391.65 -0.892815 1391.85 -0.846039 1392.04 -0.846134C1392.23 -0.847363 1392.42 -0.894829 1392.59 -0.984535C1392.76 -1.07424 1392.91 -1.20358 1393.02 -1.36164L1402.71 4.32608L1424.09 16.87V53.316C1423.78 53.3574 1423.5 53.509 1423.3 53.7427C1423.09 53.9764 1422.98 54.2765 1422.98 54.5876C1422.98 54.7525 1423.02 54.915 1423.08 55.0687L1413.4 60.6877ZM1457.64 111.722C1457.71 111.56 1457.74 111.384 1457.74 111.207C1457.74 110.898 1457.63 110.6 1457.42 110.369C1457.21 110.138 1456.93 109.99 1456.63 109.953V73.5752L1488.69 54.6735L1519.73 72.8879C1519.68 73.0539 1519.65 73.228 1519.65 73.4034C1519.64 73.7109 1519.75 74.0086 1519.96 74.2399C1520.16 74.4711 1520.44 74.6199 1520.75 74.6578V111.19L1488.69 130.091L1457.64 111.722ZM1424.25 129.937L1413.52 123.734L1393.16 111.705C1393.23 111.548 1393.26 111.378 1393.26 111.207C1393.26 110.897 1393.15 110.598 1392.95 110.363C1392.75 110.129 1392.47 109.977 1392.16 109.935V73.5752L1402.85 67.3033L1423.22 55.2749C1423.33 55.4346 1423.49 55.5646 1423.66 55.6542C1423.84 55.7437 1424.03 55.7904 1424.23 55.7904C1424.42 55.7851 1424.61 55.7359 1424.78 55.6465C1424.95 55.5571 1425.1 55.43 1425.21 55.2749L1456.28 73.5065V109.953C1455.97 109.994 1455.69 110.146 1455.49 110.379C1455.28 110.613 1455.17 110.913 1455.16 111.224C1455.16 111.396 1455.2 111.565 1455.27 111.722L1424.25 129.937ZM1360.99 168.428C1361.01 168.263 1361.01 168.094 1360.99 167.929C1360.99 167.622 1360.88 167.324 1360.67 167.093C1360.47 166.862 1360.19 166.713 1359.89 166.675V130.28L1390.96 112.049C1391.06 112.212 1391.21 112.347 1391.38 112.44C1391.55 112.533 1391.74 112.581 1391.94 112.582C1392.13 112.581 1392.33 112.532 1392.5 112.44C1392.68 112.347 1392.82 112.213 1392.93 112.049L1402.63 117.737L1424.01 130.28V166.744C1423.7 166.781 1423.42 166.929 1423.21 167.16C1423.01 167.391 1422.89 167.689 1422.89 167.998C1422.89 168.17 1422.92 168.339 1422.99 168.496L1391.94 186.711L1360.99 168.428ZM1327.59 186.711L1316.9 180.439L1296.54 168.41C1296.61 168.253 1296.64 168.084 1296.64 167.912C1296.64 167.603 1296.53 167.305 1296.32 167.074C1296.11 166.843 1295.83 166.695 1295.52 166.658V130.28L1326.6 112.049C1326.71 112.211 1326.86 112.345 1327.03 112.438C1327.2 112.53 1327.4 112.58 1327.59 112.582C1327.79 112.576 1327.98 112.524 1328.15 112.432C1328.33 112.34 1328.48 112.208 1328.59 112.049L1359.65 130.28V166.744C1359.34 166.782 1359.06 166.93 1358.86 167.162C1358.65 167.393 1358.54 167.691 1358.55 167.998C1358.54 168.17 1358.58 168.339 1358.65 168.496L1327.59 186.711ZM1327.44 224.617L1316.75 230.889L1295.37 243.433L1264.32 225.202C1264.39 225.046 1264.42 224.875 1264.42 224.703C1264.42 224.396 1264.31 224.098 1264.11 223.867C1263.9 223.636 1263.62 223.487 1263.32 223.449V187.003L1294.37 168.771C1294.49 168.931 1294.64 169.061 1294.81 169.151C1294.98 169.241 1295.17 169.288 1295.37 169.288C1295.57 169.288 1295.76 169.241 1295.93 169.151C1296.1 169.061 1296.25 168.931 1296.37 168.771L1306.06 174.459L1327.44 187.003V224.617ZM1263.15 225.992C1263.34 225.989 1263.53 225.941 1263.71 225.852C1263.88 225.763 1264.03 225.634 1264.14 225.477L1295.22 243.708V280.171C1294.91 280.209 1294.63 280.357 1294.42 280.588C1294.21 280.819 1294.1 281.117 1294.1 281.426C1294.1 281.597 1294.13 281.767 1294.2 281.924L1262.99 300.242V336.877C1262.78 336.899 1262.58 336.973 1262.41 337.092C1262.23 337.212 1262.09 337.373 1261.99 337.56C1261.9 337.748 1261.85 337.957 1261.85 338.168C1261.86 338.379 1261.92 338.585 1262.02 338.769C1262.12 338.953 1262.27 339.107 1262.45 339.219C1262.63 339.331 1262.83 339.397 1263.05 339.41C1263.26 339.424 1263.47 339.384 1263.66 339.296C1263.85 339.208 1264.02 339.073 1264.14 338.904L1295.22 357.136V393.582C1295 393.598 1294.79 393.669 1294.61 393.788C1294.43 393.907 1294.28 394.07 1294.18 394.261C1294.07 394.453 1294.02 394.667 1294.02 394.885C1294.03 395.102 1294.09 395.314 1294.19 395.503C1294.3 395.692 1294.45 395.851 1294.64 395.965C1294.82 396.078 1295.03 396.144 1295.25 396.154C1295.47 396.165 1295.68 396.12 1295.88 396.025C1296.07 395.93 1296.24 395.787 1296.37 395.61L1327.44 413.858V450.304C1327.13 450.342 1326.85 450.491 1326.65 450.722C1326.45 450.954 1326.34 451.251 1326.34 451.559C1326.34 451.898 1326.47 452.223 1326.71 452.464C1326.95 452.705 1327.27 452.843 1327.61 452.847C1327.81 452.846 1328 452.796 1328.17 452.703C1328.35 452.611 1328.5 452.477 1328.61 452.315L1359.66 470.546V508.178L1327.59 526.994L1296.54 508.762C1296.61 508.606 1296.64 508.436 1296.64 508.264C1296.64 508.097 1296.61 507.932 1296.55 507.777C1296.48 507.623 1296.39 507.483 1296.27 507.365C1296.15 507.247 1296.01 507.153 1295.86 507.089C1295.7 507.025 1295.54 506.992 1295.37 506.992C1295.2 506.992 1295.04 507.025 1294.88 507.089C1294.73 507.153 1294.59 507.247 1294.47 507.365C1294.35 507.483 1294.26 507.623 1294.2 507.777C1294.13 507.932 1294.1 508.097 1294.1 508.264C1294.1 508.436 1294.13 508.606 1294.2 508.762L1262.99 527.08V563.715C1262.69 563.757 1262.4 563.909 1262.2 564.143C1262 564.377 1261.89 564.677 1261.89 564.986C1261.89 565.157 1261.91 565.327 1261.98 565.485L1231.92 583.115C1231.81 582.955 1231.66 582.825 1231.49 582.735C1231.32 582.645 1231.13 582.598 1230.93 582.598C1230.74 582.598 1230.55 582.645 1230.37 582.735C1230.2 582.825 1230.05 582.955 1229.94 583.115L1198.89 564.883V528.42C1199.2 528.383 1199.48 528.234 1199.68 528.004C1199.89 527.773 1200 527.475 1200.01 527.166C1200 526.995 1199.96 526.827 1199.9 526.667L1231.11 508.367V471.715C1231.28 471.704 1231.44 471.66 1231.59 471.585C1231.74 471.511 1231.88 471.408 1231.99 471.282C1232.1 471.156 1232.18 471.009 1232.23 470.851C1232.29 470.692 1232.31 470.524 1232.3 470.357C1232.29 470.19 1232.24 470.027 1232.17 469.877C1232.09 469.727 1231.99 469.594 1231.86 469.483C1231.74 469.373 1231.59 469.289 1231.43 469.236C1231.27 469.182 1231.11 469.16 1230.94 469.172C1230.75 469.174 1230.56 469.222 1230.39 469.312C1230.22 469.402 1230.07 469.53 1229.96 469.687L1198.89 451.456V415.01C1199.2 414.968 1199.48 414.817 1199.68 414.583C1199.89 414.349 1200 414.049 1200.01 413.738C1200 413.398 1199.86 413.072 1199.62 412.832C1199.38 412.591 1199.06 412.454 1198.72 412.449C1198.52 412.455 1198.33 412.507 1198.16 412.599C1197.99 412.692 1197.85 412.823 1197.74 412.982L1166.65 394.75V358.287C1166.95 358.25 1167.24 358.102 1167.44 357.871C1167.65 357.64 1167.76 357.342 1167.76 357.033C1167.76 356.694 1167.63 356.369 1167.39 356.128C1167.16 355.886 1166.83 355.749 1166.49 355.744C1166.3 355.744 1166.1 355.793 1165.93 355.886C1165.75 355.979 1165.61 356.113 1165.5 356.277L1134.42 338.045V300.413L1166.49 281.512L1197.53 299.743C1197.5 299.908 1197.5 300.077 1197.53 300.242C1197.53 300.579 1197.66 300.902 1197.9 301.141C1198.14 301.379 1198.47 301.513 1198.8 301.513C1199.14 301.513 1199.46 301.379 1199.7 301.141C1199.94 300.902 1200.07 300.579 1200.07 300.242C1200.07 300.071 1200.03 299.902 1199.97 299.743L1231.18 281.426V244.877C1231.49 244.831 1231.76 244.678 1231.97 244.445C1232.17 244.212 1232.28 243.914 1232.28 243.605C1232.31 243.44 1232.31 243.272 1232.28 243.107L1262.32 225.477C1262.42 225.613 1262.54 225.729 1262.68 225.818C1262.82 225.906 1262.98 225.965 1263.15 225.992ZM1359.97 281.323V244.877C1360.28 244.839 1360.56 244.69 1360.76 244.459C1360.96 244.228 1361.07 243.93 1361.07 243.622C1361.1 243.452 1361.1 243.277 1361.07 243.107L1392.13 224.892L1423.16 243.107C1423.09 243.269 1423.06 243.445 1423.06 243.622C1423.06 243.931 1423.18 244.229 1423.38 244.46C1423.59 244.691 1423.87 244.839 1424.18 244.877V281.323L1393.11 299.554C1392.99 299.395 1392.84 299.265 1392.67 299.175C1392.5 299.085 1392.3 299.039 1392.11 299.039C1391.92 299.04 1391.73 299.087 1391.56 299.177C1391.39 299.267 1391.24 299.396 1391.13 299.554L1359.97 281.323ZM1327.59 300.139L1316.9 293.867L1296.54 281.838C1296.61 281.681 1296.64 281.511 1296.64 281.34C1296.64 281.03 1296.53 280.73 1296.32 280.498C1296.12 280.266 1295.83 280.12 1295.52 280.086V243.708L1306.21 237.436L1327.59 224.892L1358.65 243.107C1358.58 243.285 1358.55 243.476 1358.57 243.666C1358.58 243.856 1358.64 244.04 1358.73 244.206C1358.83 244.371 1358.96 244.512 1359.12 244.619C1359.28 244.726 1359.46 244.797 1359.65 244.825V281.271L1327.59 300.139ZM1327.44 338.045L1316.75 344.317L1295.37 356.844L1264.32 338.629C1264.38 338.472 1264.42 338.303 1264.42 338.131C1264.42 337.824 1264.31 337.526 1264.11 337.295C1263.9 337.063 1263.62 336.915 1263.32 336.877V300.413L1294.37 282.182C1294.48 282.345 1294.63 282.478 1294.81 282.571C1294.98 282.663 1295.17 282.711 1295.37 282.711C1295.57 282.711 1295.76 282.663 1295.93 282.571C1296.11 282.478 1296.26 282.345 1296.37 282.182L1306.06 287.87L1327.44 300.413V338.045ZM1358.65 356.534C1358.58 356.712 1358.55 356.903 1358.57 357.094C1358.58 357.284 1358.64 357.468 1358.73 357.633C1358.83 357.798 1358.96 357.94 1359.12 358.047C1359.28 358.154 1359.46 358.225 1359.65 358.253V394.716L1327.59 413.566L1296.54 395.352C1296.61 395.195 1296.64 395.025 1296.64 394.853C1296.64 394.541 1296.53 394.239 1296.33 394.005C1296.12 393.77 1295.83 393.62 1295.52 393.582V357.136L1306.21 350.864L1327.59 338.32L1358.65 356.534ZM1392.06 412.466C1391.86 412.466 1391.67 412.513 1391.5 412.603C1391.32 412.693 1391.17 412.823 1391.06 412.982L1381.37 407.294L1359.99 394.75V358.287C1360.29 358.245 1360.57 358.095 1360.77 357.864C1360.97 357.633 1361.07 357.338 1361.07 357.033C1361.1 356.874 1361.1 356.711 1361.07 356.552L1391.15 338.904C1391.26 339.064 1391.41 339.194 1391.58 339.284C1391.75 339.374 1391.94 339.421 1392.14 339.421C1392.33 339.421 1392.52 339.374 1392.69 339.284C1392.87 339.194 1393.01 339.064 1393.12 338.904L1424.2 357.136V394.75L1393.12 412.982C1393 412.813 1392.84 412.677 1392.66 412.586C1392.47 412.496 1392.26 412.455 1392.06 412.466ZM1391.89 451.456L1381.2 457.728L1359.83 470.271L1328.78 452.057C1328.85 451.9 1328.88 451.73 1328.88 451.559C1328.88 451.25 1328.77 450.952 1328.56 450.721C1328.36 450.49 1328.07 450.342 1327.77 450.304V413.841L1359.83 394.939L1370.52 401.211L1390.87 413.154C1390.84 413.325 1390.84 413.499 1390.87 413.669C1390.87 413.977 1390.98 414.275 1391.18 414.506C1391.39 414.737 1391.67 414.886 1391.97 414.924L1391.89 451.456ZM1424.42 508.161V471.715C1424.73 471.677 1425.01 471.529 1425.21 471.298C1425.42 471.068 1425.53 470.77 1425.54 470.461C1425.54 470.289 1425.5 470.119 1425.43 469.962L1456.49 451.748L1488.56 470.546V507.01C1488.25 507.047 1487.97 507.195 1487.76 507.426C1487.56 507.657 1487.44 507.955 1487.44 508.264C1487.44 508.436 1487.47 508.606 1487.54 508.762L1456.49 526.994L1424.42 508.161ZM1392.06 525.86C1391.86 525.863 1391.67 525.913 1391.5 526.006C1391.32 526.098 1391.17 526.231 1391.06 526.393L1381.37 520.688L1359.99 508.161V470.529L1370.68 464.274L1392.06 451.731L1423.1 469.945C1423.03 470.102 1422.99 470.272 1422.99 470.443C1422.99 470.753 1423.11 471.05 1423.31 471.281C1423.52 471.512 1423.8 471.66 1424.11 471.698V508.161L1393.04 526.393C1392.93 526.236 1392.78 526.109 1392.61 526.019C1392.44 525.93 1392.25 525.881 1392.06 525.877V525.86ZM1328.78 565.468C1328.85 565.31 1328.88 565.141 1328.88 564.969C1328.88 564.658 1328.77 564.358 1328.56 564.124C1328.36 563.891 1328.07 563.739 1327.77 563.698V527.269L1359.83 508.453L1370.52 514.725L1390.87 526.667C1390.84 526.838 1390.84 527.012 1390.87 527.183C1390.87 527.49 1390.98 527.788 1391.18 528.019C1391.39 528.251 1391.67 528.399 1391.97 528.437V564.883L1359.92 583.699L1328.78 565.468ZM1295.39 583.682L1284.63 577.427L1264.26 565.485C1264.33 565.328 1264.37 565.158 1264.37 564.986C1264.37 564.674 1264.26 564.372 1264.05 564.138C1263.84 563.903 1263.56 563.753 1263.25 563.715V527.269L1294.32 509.037C1294.43 509.2 1294.58 509.334 1294.75 509.426C1294.93 509.518 1295.12 509.567 1295.32 509.567C1295.52 509.567 1295.71 509.518 1295.88 509.426C1296.06 509.334 1296.21 509.2 1296.32 509.037L1327.37 527.269V563.715C1327.06 563.757 1326.78 563.909 1326.58 564.143C1326.38 564.377 1326.27 564.677 1326.27 564.986C1326.27 565.158 1326.3 565.328 1326.37 565.485L1295.39 583.682ZM1327.77 678.294V640.697L1358.84 622.465C1358.95 622.624 1359.1 622.754 1359.27 622.844C1359.45 622.934 1359.64 622.981 1359.83 622.98C1360.03 622.978 1360.22 622.93 1360.39 622.84C1360.57 622.751 1360.72 622.622 1360.83 622.465L1391.89 640.697V677.143C1391.58 677.18 1391.3 677.328 1391.09 677.559C1390.89 677.79 1390.77 678.088 1390.77 678.397C1390.77 678.568 1390.81 678.736 1390.87 678.895L1359.83 697.11L1327.77 678.294ZM1231.11 810.812L1241.78 804.54L1263.16 791.997L1294.22 810.211C1294.15 810.368 1294.11 810.538 1294.12 810.709C1294.12 811.018 1294.23 811.316 1294.44 811.547C1294.64 811.778 1294.93 811.926 1295.23 811.964V848.427L1264.16 866.658C1264.05 866.497 1263.9 866.364 1263.73 866.272C1263.55 866.179 1263.36 866.129 1263.16 866.126C1262.97 866.132 1262.78 866.183 1262.6 866.275C1262.43 866.368 1262.28 866.499 1262.17 866.658L1231.11 848.427V810.812ZM1230.94 735.205L1241.66 741.649L1262.03 753.592C1261.97 753.756 1261.94 753.931 1261.94 754.107C1261.94 754.415 1262.05 754.712 1262.25 754.944C1262.46 755.175 1262.74 755.324 1263.04 755.361V791.825L1252.35 798.097L1230.97 810.623L1199.9 792.323C1199.96 792.163 1200 791.995 1200.01 791.825C1200 791.516 1199.89 791.218 1199.68 790.987C1199.48 790.756 1199.2 790.608 1198.89 790.57V754.107L1230.94 735.205ZM1263.16 678.5L1273.85 684.772L1294.22 696.715C1294.15 696.872 1294.11 697.041 1294.12 697.213C1294.12 697.524 1294.23 697.824 1294.44 698.058C1294.64 698.291 1294.92 698.443 1295.23 698.484V734.93L1264.16 753.162C1264.05 753.003 1263.9 752.873 1263.72 752.783C1263.55 752.693 1263.36 752.646 1263.16 752.647C1262.97 752.649 1262.78 752.697 1262.6 752.787C1262.43 752.876 1262.28 753.005 1262.17 753.162L1252.47 747.474L1231.11 734.93V698.57C1231.42 698.525 1231.7 698.372 1231.9 698.138C1232.1 697.905 1232.21 697.607 1232.21 697.299C1232.24 697.134 1232.24 696.966 1232.21 696.8L1263.16 678.5ZM1263.32 640.611L1274.01 634.322L1294.39 622.379C1294.5 622.539 1294.65 622.669 1294.83 622.759C1295 622.849 1295.19 622.895 1295.39 622.895C1295.58 622.895 1295.78 622.849 1295.95 622.759C1296.12 622.669 1296.27 622.539 1296.38 622.379L1327.44 640.611V678.225L1296.38 696.457C1296.27 696.294 1296.13 696.16 1295.95 696.068C1295.78 695.976 1295.58 695.927 1295.39 695.927C1295.19 695.927 1295 695.976 1294.82 696.068C1294.65 696.16 1294.5 696.294 1294.39 696.457L1284.63 690.855L1263.25 678.311L1263.32 640.611ZM1231.11 621.503V585.143C1231.42 585.105 1231.7 584.956 1231.9 584.725C1232.1 584.493 1232.21 584.196 1232.21 583.888C1232.24 583.723 1232.24 583.555 1232.21 583.39L1262.25 565.743C1262.37 565.902 1262.52 566.033 1262.69 566.126C1262.86 566.218 1263.05 566.269 1263.25 566.275C1263.45 566.272 1263.64 566.222 1263.81 566.129C1263.99 566.037 1264.13 565.904 1264.25 565.743L1273.94 571.43L1295.32 583.974V620.437C1295.01 620.475 1294.73 620.623 1294.52 620.854C1294.32 621.085 1294.2 621.383 1294.2 621.692C1294.2 621.863 1294.24 622.033 1294.3 622.19L1284.63 627.861L1263.25 640.404L1231.11 621.503ZM1069.81 792.014L1080.53 798.354L1100.89 810.297C1100.83 810.454 1100.79 810.624 1100.79 810.795C1100.8 811.103 1100.91 811.399 1101.12 811.629C1101.32 811.859 1101.6 812.008 1101.91 812.049V848.513L1069.81 867.243L1038.87 849.028C1038.9 848.864 1038.9 848.694 1038.87 848.53C1038.87 848.221 1038.75 847.923 1038.55 847.692C1038.34 847.461 1038.06 847.313 1037.75 847.275V810.812L1069.81 792.014ZM1080.67 747.835L1102.03 735.291L1134.1 754.193V791.807L1103.06 809.953C1102.95 809.794 1102.8 809.664 1102.62 809.574C1102.45 809.484 1102.26 809.438 1102.06 809.438C1101.87 809.439 1101.68 809.486 1101.51 809.576C1101.34 809.666 1101.19 809.795 1101.08 809.953L1091.37 804.266L1070.01 791.722V755.276C1070.32 755.237 1070.6 755.086 1070.81 754.851C1071.01 754.616 1071.12 754.315 1071.11 754.004C1071.11 753.833 1071.08 753.663 1071.01 753.506L1080.67 747.835ZM1036.46 696.8C1036.4 696.978 1036.37 697.169 1036.38 697.359C1036.4 697.55 1036.45 697.734 1036.55 697.899C1036.65 698.064 1036.78 698.206 1036.93 698.313C1037.09 698.42 1037.27 698.49 1037.46 698.519V734.965L1005.41 753.867L974.354 735.652C974.425 735.49 974.46 735.314 974.458 735.137C974.456 734.828 974.341 734.53 974.136 734.299C973.93 734.068 973.647 733.92 973.34 733.882V697.402L1005.41 678.586L1036.46 696.8ZM1069.81 678.586L1080.53 684.944L1100.89 696.886C1100.83 697.044 1100.79 697.213 1100.79 697.385C1100.79 697.696 1100.91 697.996 1101.11 698.229C1101.32 698.463 1101.6 698.615 1101.91 698.656V735.102L1091.22 741.374L1070.84 753.403C1070.72 753.243 1070.57 753.113 1070.4 753.023C1070.23 752.934 1070.03 752.887 1069.84 752.887C1069.65 752.888 1069.46 752.936 1069.29 753.025C1069.12 753.115 1068.97 753.245 1068.86 753.403L1037.79 735.016V698.57C1038.1 698.529 1038.38 698.377 1038.58 698.144C1038.79 697.91 1038.9 697.61 1038.9 697.299C1038.92 697.132 1038.91 696.964 1038.87 696.8L1069.81 678.586ZM1133.08 640.095C1133.01 640.252 1132.98 640.422 1132.98 640.594C1132.98 640.903 1133.1 641.2 1133.3 641.431C1133.51 641.662 1133.79 641.81 1134.1 641.848V678.311L1103.06 696.543C1102.95 696.379 1102.8 696.245 1102.63 696.152C1102.45 696.059 1102.26 696.01 1102.06 696.01C1101.87 696.01 1101.68 696.059 1101.51 696.152C1101.33 696.245 1101.19 696.379 1101.08 696.543L1091.37 690.855L1070.01 678.311V641.848C1070.32 641.81 1070.6 641.661 1070.8 641.43C1071 641.199 1071.11 640.901 1071.11 640.594C1071.11 640.422 1071.08 640.252 1071.01 640.095L1102.06 621.881L1133.08 640.095ZM1166.48 621.881L1177.2 628.239L1197.55 640.181C1197.52 640.346 1197.52 640.514 1197.55 640.679C1197.55 640.989 1197.66 641.286 1197.87 641.517C1198.08 641.748 1198.36 641.896 1198.66 641.934V678.397L1167.51 696.543C1167.39 696.38 1167.24 696.247 1167.06 696.154C1166.89 696.061 1166.69 696.012 1166.49 696.01C1166.3 696.016 1166.11 696.067 1165.94 696.16C1165.77 696.252 1165.62 696.383 1165.51 696.543L1134.44 678.311V641.848C1134.75 641.81 1135.03 641.662 1135.24 641.431C1135.44 641.2 1135.56 640.903 1135.56 640.594C1135.56 640.422 1135.53 640.252 1135.46 640.095L1166.48 621.881ZM1166.63 583.974L1177.32 577.702L1198.7 565.158L1229.75 583.39C1229.73 583.555 1229.73 583.723 1229.75 583.888C1229.75 584.196 1229.86 584.493 1230.07 584.725C1230.27 584.956 1230.55 585.105 1230.85 585.143V621.589L1199.73 639.82C1199.61 639.66 1199.46 639.531 1199.29 639.441C1199.11 639.351 1198.91 639.305 1198.72 639.305C1198.52 639.307 1198.34 639.355 1198.16 639.445C1197.99 639.535 1197.85 639.663 1197.74 639.82L1188.04 634.133L1166.66 621.589L1166.63 583.974ZM1134.1 527.269V563.715C1133.79 563.753 1133.51 563.901 1133.3 564.131C1133.1 564.362 1132.98 564.66 1132.98 564.969C1132.98 565.146 1133.01 565.322 1133.08 565.485L1102.03 583.699L1071.01 565.485C1071.08 565.307 1071.11 565.116 1071.09 564.926C1071.08 564.735 1071.02 564.551 1070.92 564.386C1070.83 564.221 1070.7 564.08 1070.54 563.972C1070.38 563.865 1070.2 563.795 1070.01 563.766V527.269L1101.08 509.037C1101.19 509.195 1101.34 509.325 1101.51 509.414C1101.68 509.504 1101.87 509.552 1102.06 509.553C1102.26 509.553 1102.45 509.506 1102.62 509.416C1102.8 509.327 1102.95 509.197 1103.06 509.037L1134.1 527.269ZM1166.48 508.453L1177.17 514.725L1197.51 526.667C1197.49 526.833 1197.49 527.001 1197.51 527.166C1197.51 527.476 1197.62 527.776 1197.83 528.007C1198.04 528.239 1198.32 528.386 1198.63 528.42V564.883L1187.94 571.155L1166.56 583.699L1135.46 565.485C1135.52 565.306 1135.55 565.113 1135.54 564.922C1135.52 564.731 1135.46 564.545 1135.36 564.38C1135.27 564.215 1135.13 564.074 1134.97 563.967C1134.81 563.861 1134.63 563.792 1134.44 563.766V527.269L1166.48 508.453ZM1166.63 470.546L1177.32 464.292L1198.7 451.748L1229.75 469.962C1229.73 470.127 1229.73 470.295 1229.75 470.461C1229.75 470.768 1229.86 471.066 1230.07 471.297C1230.27 471.528 1230.55 471.677 1230.85 471.715V508.178L1199.73 526.41C1199.61 526.248 1199.46 526.115 1199.29 526.023C1199.11 525.93 1198.92 525.88 1198.72 525.877C1198.52 525.883 1198.33 525.934 1198.16 526.027C1197.99 526.119 1197.85 526.25 1197.74 526.41L1188.04 520.705L1166.66 508.178L1166.63 470.546ZM1135.46 452.057C1135.52 451.9 1135.56 451.73 1135.56 451.559C1135.56 451.247 1135.45 450.945 1135.24 450.71C1135.04 450.476 1134.75 450.325 1134.44 450.287V413.841L1166.51 394.939L1197.55 413.154C1197.52 413.319 1197.52 413.487 1197.55 413.652C1197.55 413.964 1197.66 414.266 1197.86 414.501C1198.07 414.735 1198.36 414.886 1198.66 414.924V451.37L1187.98 457.642L1166.6 470.186L1135.46 452.057ZM1102.05 396.125C1102.24 396.125 1102.43 396.078 1102.61 395.989C1102.78 395.899 1102.93 395.769 1103.04 395.61L1112.77 401.297L1134.15 413.841V450.304C1133.84 450.342 1133.56 450.491 1133.36 450.722C1133.16 450.954 1133.05 451.251 1133.05 451.559C1133.05 451.725 1133.08 451.889 1133.15 452.04L1103.08 469.687C1102.96 469.528 1102.81 469.398 1102.64 469.308C1102.47 469.218 1102.28 469.172 1102.08 469.172C1101.89 469.173 1101.7 469.22 1101.53 469.31C1101.36 469.4 1101.21 469.529 1101.1 469.687L1069.99 451.456V413.841L1101.07 395.61C1101.18 395.768 1101.32 395.897 1101.49 395.987C1101.66 396.076 1101.85 396.124 1102.05 396.125ZM1102.22 357.136L1112.91 350.864L1134.27 338.32L1165.32 356.534C1165.26 356.692 1165.22 356.861 1165.22 357.033C1165.22 357.342 1165.34 357.64 1165.54 357.871C1165.75 358.102 1166.03 358.25 1166.34 358.287V394.75L1134.27 413.566L1123.58 407.294L1103.21 395.352C1103.28 395.174 1103.31 394.983 1103.3 394.793C1103.28 394.603 1103.22 394.418 1103.13 394.253C1103.03 394.088 1102.9 393.947 1102.74 393.839C1102.59 393.732 1102.41 393.662 1102.22 393.633V357.136ZM1069.67 300.431V336.894C1069.36 336.932 1069.08 337.081 1068.88 337.312C1068.68 337.543 1068.57 337.841 1068.57 338.148C1068.57 338.32 1068.6 338.489 1068.67 338.647L1037.62 356.844L1005.55 338.045V301.582C1005.85 301.544 1006.14 301.396 1006.34 301.165C1006.55 300.935 1006.66 300.637 1006.66 300.328C1006.67 300.156 1006.63 299.986 1006.56 299.829L1037.62 281.598L1069.67 300.431ZM1102.05 282.732C1102.24 282.728 1102.44 282.678 1102.61 282.586C1102.78 282.493 1102.93 282.361 1103.04 282.199L1112.77 287.87L1134.15 300.413V338.045L1123.46 344.317L1102.08 356.844L1071.01 338.629C1071.07 338.47 1071.1 338.302 1071.11 338.131C1071.11 337.822 1070.99 337.524 1070.79 337.293C1070.58 337.062 1070.3 336.914 1069.99 336.877V300.413L1101.07 282.182C1101.18 282.342 1101.32 282.474 1101.49 282.567C1101.66 282.659 1101.85 282.71 1102.05 282.715V282.732ZM1165.32 243.124C1165.26 243.281 1165.22 243.451 1165.22 243.622C1165.22 243.933 1165.34 244.233 1165.54 244.467C1165.75 244.701 1166.03 244.852 1166.34 244.894V281.34L1134.27 300.139L1123.58 293.867L1103.21 281.838C1103.28 281.66 1103.31 281.469 1103.3 281.279C1103.28 281.089 1103.22 280.904 1103.13 280.739C1103.03 280.574 1102.9 280.433 1102.74 280.326C1102.59 280.218 1102.41 280.148 1102.22 280.12V243.708L1134.27 224.892L1165.32 243.124ZM1198.7 224.892L1209.37 231.164L1229.74 243.193C1229.71 243.358 1229.71 243.526 1229.74 243.691C1229.74 243.999 1229.85 244.297 1230.05 244.531C1230.25 244.764 1230.53 244.917 1230.84 244.963V281.409L1199.71 299.554C1199.6 299.391 1199.45 299.258 1199.28 299.165C1199.11 299.073 1198.91 299.025 1198.72 299.025C1198.52 299.025 1198.33 299.073 1198.15 299.165C1197.98 299.258 1197.83 299.391 1197.72 299.554L1166.65 281.323V244.877C1166.96 244.835 1167.24 244.684 1167.44 244.45C1167.65 244.216 1167.76 243.916 1167.76 243.605C1167.77 243.434 1167.73 243.264 1167.66 243.107L1198.7 224.892ZM1199.87 186.402L1209.54 180.731L1230.91 168.187L1262.97 187.003V223.449C1262.67 223.487 1262.39 223.636 1262.19 223.867C1261.98 224.098 1261.87 224.396 1261.87 224.703C1261.84 224.867 1261.84 225.038 1261.87 225.202L1231.82 242.849C1231.71 242.686 1231.56 242.552 1231.39 242.46C1231.22 242.367 1231.02 242.319 1230.83 242.319C1230.63 242.319 1230.44 242.367 1230.27 242.46C1230.1 242.552 1229.95 242.686 1229.84 242.849L1220.15 237.161L1198.77 224.617V188.171C1199.07 188.127 1199.36 187.974 1199.56 187.741C1199.77 187.508 1199.88 187.21 1199.89 186.9C1199.91 186.735 1199.91 186.567 1199.89 186.402H1199.87ZM1166.34 130.28V167.895L1135.27 186.144C1135.16 185.981 1135.01 185.847 1134.83 185.755C1134.66 185.663 1134.47 185.614 1134.27 185.614C1134.07 185.614 1133.88 185.663 1133.71 185.755C1133.53 185.847 1133.38 185.981 1133.27 186.144L1102.22 167.895V131.449C1102.52 131.411 1102.8 131.262 1103.01 131.031C1103.21 130.8 1103.32 130.502 1103.32 130.195C1103.32 130.023 1103.28 129.853 1103.21 129.696L1134.27 111.482L1166.34 130.28ZM1198.7 112.582C1198.9 112.58 1199.09 112.53 1199.26 112.438C1199.44 112.345 1199.59 112.211 1199.7 112.049L1209.37 117.737L1230.75 130.28V167.895L1220.06 174.184L1199.7 186.212C1199.59 186.049 1199.44 185.916 1199.26 185.824C1199.09 185.731 1198.9 185.683 1198.7 185.683C1198.5 185.683 1198.31 185.731 1198.13 185.824C1197.96 185.916 1197.81 186.049 1197.7 186.212L1166.65 167.895V130.28L1197.72 112.049C1197.83 112.209 1197.97 112.341 1198.15 112.434C1198.32 112.526 1198.51 112.577 1198.7 112.582ZM1230.91 55.8763C1231.1 55.8764 1231.29 55.8296 1231.47 55.7399C1231.64 55.6502 1231.79 55.5202 1231.9 55.3608L1241.6 61.0485L1262.97 73.5924V110.038C1262.67 110.08 1262.39 110.232 1262.18 110.467C1261.98 110.701 1261.87 111.001 1261.87 111.31C1261.84 111.474 1261.84 111.644 1261.87 111.808L1230.82 130.023L1220.15 123.751L1199.78 111.722C1199.84 111.563 1199.88 111.395 1199.89 111.224C1199.88 110.913 1199.77 110.613 1199.56 110.379C1199.36 110.146 1199.08 109.994 1198.77 109.953V73.5752L1229.84 55.3436C1229.96 55.5155 1230.12 55.6532 1230.31 55.7435C1230.5 55.8338 1230.71 55.8737 1230.92 55.8591L1230.91 55.8763ZM1231.08 16.87L1241.77 10.598L1263.13 -1.9287L1294.18 16.2857C1294.12 16.4429 1294.08 16.6126 1294.08 16.784C1294.08 17.0932 1294.2 17.391 1294.4 17.6219C1294.61 17.8528 1294.89 18.0008 1295.2 18.0384V54.4845L1263.13 73.3862L1252.44 67.1143L1232.09 55.0859C1232.12 54.915 1232.12 54.7412 1232.09 54.5704C1232.09 54.2628 1231.98 53.9651 1231.78 53.7339C1231.58 53.5026 1231.3 53.3539 1230.99 53.316L1231.08 16.87ZM1230.91 -57.5514C1231.1 -57.5513 1231.29 -57.5981 1231.47 -57.6878C1231.64 -57.7775 1231.79 -57.9075 1231.9 -58.0669L1262.99 -39.8525V-2.238L1252.3 4.03395L1230.92 16.5091L1199.89 -1.7053C1199.95 -1.86492 1199.98 -2.03312 1199.99 -2.20362C1199.99 -2.51275 1199.87 -2.81061 1199.67 -3.04148C1199.46 -3.27235 1199.18 -3.42043 1198.87 -3.45802V-39.8525L1229.94 -58.0841C1230.05 -57.927 1230.2 -57.7985 1230.37 -57.7089C1230.54 -57.6193 1230.73 -57.5712 1230.92 -57.5686L1230.91 -57.5514Z" fill="white"/>
</g>
</g>
</g>
<defs>
<filter id="filter0_d_190_21913" x="-4" y="0.5" width="1448.5" height="368.345" filterUnits="userSpaceOnUse" color-interpolation-filters="sRGB">
<feFlood flood-opacity="0" result="BackgroundImageFix"/>
<feColorMatrix in="SourceAlpha" type="matrix" values="0 0 0 0 0 0 0 0 0 0 0 0 0 0 0 0 0 0 127 0" result="hardAlpha"/>
<feOffset dy="4"/>
<feGaussianBlur stdDeviation="2"/>
<feComposite in2="hardAlpha" operator="out"/>
<feColorMatrix type="matrix" values="0 0 0 0 0 0 0 0 0 0 0 0 0 0 0 0 0 0 0.25 0"/>
<feBlend mode="normal" in2="BackgroundImageFix" result="effect1_dropShadow_190_21913"/>
<feBlend mode="normal" in="SourceGraphic" in2="effect1_dropShadow_190_21913" result="shape"/>
</filter>
</defs>
</svg>
