<svg width="130" height="127" viewBox="0 0 130 127" fill="none" xmlns="http://www.w3.org/2000/svg">
<rect x="44.2959" width="49.1385" height="49.1385" rx="8.08166" transform="rotate(45 44.2959 0)" fill="#FDCE25"/>
<rect x="15.1152" y="72.9941" width="21.3768" height="21.3768" rx="3.51578" transform="rotate(45 15.1152 72.9941)" fill="#E9660B"/>
<rect x="77.3799" y="3.51258" width="87.2793" height="87.2793" rx="14.1308" transform="rotate(45 77.3799 3.51258)" stroke="#0C478B" stroke-width="0.666889"/>
<mask id="mask0_453_4" style="mask-type:alpha" maskUnits="userSpaceOnUse" x="21" y="9" width="113" height="113">
<rect x="77.3799" y="3.04102" width="87.9462" height="87.9462" rx="14.4643" transform="rotate(45 77.3799 3.04102)" fill="#E9660B"/>
</mask>
<g mask="url(#mask0_453_4)">
<path d="M129.834 120.286V135.218C129.834 135.242 129.843 135.266 129.86 135.283C129.876 135.3 129.898 135.31 129.921 135.31C129.944 135.31 129.966 135.3 129.983 135.283C129.999 135.266 130.008 135.242 130.008 135.218V120.286C130.008 120.262 129.999 120.238 129.983 120.221C129.966 120.204 129.944 120.194 129.921 120.194C129.898 120.194 129.876 120.204 129.86 120.221C129.843 120.238 129.834 120.262 129.834 120.286Z" fill="#0C478B"/>
<path d="M142.94 112.776L131.478 119.281L129.874 120.189C129.853 120.201 129.838 120.221 129.832 120.245C129.826 120.269 129.829 120.294 129.841 120.316C129.852 120.337 129.871 120.353 129.894 120.359C129.916 120.366 129.941 120.363 129.961 120.351L141.426 113.842L143.027 112.934C143.125 112.879 143.027 112.718 142.94 112.776V112.776Z" fill="#0C478B"/>
<path d="M116.816 112.938L128.278 119.442L129.882 120.354C129.903 120.366 129.927 120.369 129.949 120.363C129.972 120.356 129.991 120.34 130.003 120.319C130.014 120.297 130.017 120.272 130.011 120.248C130.005 120.224 129.99 120.204 129.969 120.192L118.507 113.673L116.903 112.761C116.883 112.749 116.859 112.746 116.836 112.752C116.814 112.759 116.795 112.775 116.783 112.796C116.771 112.818 116.768 112.843 116.775 112.867C116.781 112.89 116.796 112.911 116.816 112.923V112.938Z" fill="#0C478B"/>
<path d="M116.946 127.737V112.857C116.946 112.832 116.937 112.809 116.92 112.792C116.904 112.774 116.882 112.765 116.859 112.765C116.836 112.765 116.813 112.774 116.797 112.792C116.781 112.809 116.771 112.832 116.771 112.857V127.737C116.771 127.761 116.781 127.785 116.797 127.802C116.813 127.819 116.836 127.829 116.859 127.829C116.882 127.829 116.904 127.819 116.92 127.802C116.937 127.785 116.946 127.761 116.946 127.737Z" fill="#0C478B"/>
<path d="M129.891 105.496L141.353 112.023L142.957 112.934C143.054 112.989 143.142 112.831 143.044 112.776L131.568 106.249L129.964 105.338C129.866 105.283 129.779 105.441 129.877 105.496H129.891Z" fill="#0C478B"/>
<path d="M129.887 105.334L118.425 111.861L116.821 112.773C116.723 112.828 116.821 112.986 116.908 112.931L128.374 106.408L129.974 105.496C129.995 105.484 130.01 105.464 130.016 105.44C130.022 105.416 130.019 105.391 130.007 105.369C129.996 105.348 129.977 105.332 129.954 105.326C129.932 105.319 129.907 105.322 129.887 105.334V105.334Z" fill="#0C478B"/>
<path d="M103.71 120.286V135.218C103.71 135.242 103.719 135.266 103.736 135.283C103.752 135.3 103.774 135.31 103.797 135.31C103.82 135.31 103.842 135.3 103.859 135.283C103.875 135.266 103.884 135.242 103.884 135.218V120.286C103.884 120.262 103.875 120.238 103.859 120.221C103.842 120.204 103.82 120.194 103.797 120.194C103.774 120.194 103.752 120.204 103.736 120.221C103.719 120.238 103.71 120.262 103.71 120.286Z" fill="#0C478B"/>
<path d="M116.821 112.776L105.359 119.281L103.755 120.189C103.734 120.201 103.719 120.221 103.713 120.245C103.707 120.269 103.71 120.294 103.721 120.316C103.733 120.337 103.752 120.353 103.775 120.359C103.797 120.366 103.821 120.363 103.842 120.351L115.307 113.842L116.908 112.934C117.006 112.879 116.908 112.718 116.821 112.776V112.776Z" fill="#0C478B"/>
<path d="M116.946 127.733V112.853C116.946 112.828 116.937 112.805 116.92 112.788C116.904 112.77 116.882 112.761 116.859 112.761C116.836 112.761 116.813 112.77 116.797 112.788C116.781 112.805 116.771 112.828 116.771 112.853V127.733C116.771 127.757 116.781 127.781 116.797 127.798C116.813 127.815 116.836 127.825 116.859 127.825C116.882 127.825 116.904 127.815 116.92 127.798C116.937 127.781 116.946 127.757 116.946 127.733Z" fill="#0C478B"/>
<path d="M90.6931 112.938L102.155 119.442L103.759 120.354C103.78 120.366 103.804 120.369 103.826 120.363C103.849 120.356 103.868 120.34 103.88 120.319C103.891 120.297 103.894 120.272 103.888 120.248C103.882 120.224 103.867 120.204 103.846 120.192L92.3843 113.673L90.7803 112.761C90.7599 112.749 90.7358 112.746 90.7132 112.752C90.6907 112.759 90.6715 112.775 90.66 112.796C90.6484 112.818 90.6454 112.843 90.6516 112.867C90.6578 112.89 90.6727 112.911 90.6931 112.923V112.938Z" fill="#0C478B"/>
<path d="M90.8326 127.737V112.857C90.8326 112.832 90.8234 112.809 90.807 112.792C90.7907 112.774 90.7685 112.765 90.7454 112.765C90.7223 112.765 90.7001 112.774 90.6837 112.792C90.6674 112.809 90.6582 112.832 90.6582 112.857V127.737C90.6582 127.761 90.6674 127.785 90.6837 127.802C90.7001 127.819 90.7223 127.829 90.7454 127.829C90.7685 127.829 90.7907 127.819 90.807 127.802C90.8234 127.785 90.8326 127.761 90.8326 127.737Z" fill="#0C478B"/>
<path d="M103.753 105.496L115.215 112.023L116.819 112.934C116.916 112.989 117.004 112.831 116.906 112.776L105.444 106.249L103.84 105.338C103.742 105.283 103.655 105.441 103.753 105.496V105.496Z" fill="#0C478B"/>
<path d="M103.76 105.334L92.2981 111.861L90.694 112.773C90.5964 112.828 90.694 112.986 90.7812 112.931L102.247 106.408L103.847 105.496C103.868 105.484 103.883 105.464 103.889 105.44C103.895 105.416 103.892 105.391 103.88 105.369C103.869 105.348 103.85 105.332 103.827 105.326C103.805 105.319 103.78 105.322 103.76 105.334Z" fill="#0C478B"/>
<path d="M51.4658 120.286V135.207C51.4658 135.231 51.475 135.255 51.4914 135.272C51.5077 135.289 51.5299 135.299 51.553 135.299C51.5761 135.299 51.5983 135.289 51.6146 135.272C51.631 135.255 51.6402 135.231 51.6402 135.207V120.286C51.6402 120.262 51.631 120.238 51.6146 120.221C51.5983 120.204 51.5761 120.194 51.553 120.194C51.5299 120.194 51.5077 120.204 51.4914 120.221C51.475 120.238 51.4658 120.262 51.4658 120.286Z" fill="#0C478B"/>
<path d="M64.5726 112.783L53.1106 119.291L51.5065 120.199C51.4089 120.254 51.5065 120.416 51.5937 120.357L63.0593 113.852L64.6773 112.937C64.7749 112.882 64.6773 112.724 64.5901 112.779L64.5726 112.783Z" fill="#0C478B"/>
<path d="M64.7027 127.74V112.863C64.7027 112.839 64.6935 112.816 64.6771 112.798C64.6608 112.781 64.6386 112.771 64.6155 112.771C64.5924 112.771 64.5702 112.781 64.5538 112.798C64.5375 112.816 64.5283 112.839 64.5283 112.863V127.74C64.5283 127.764 64.5375 127.788 64.5538 127.805C64.5702 127.822 64.5924 127.832 64.6155 127.832C64.6386 127.832 64.6608 127.822 64.6771 127.805C64.6935 127.788 64.7027 127.764 64.7027 127.74V127.74Z" fill="#0C478B"/>
<path d="M38.4497 112.937L49.9117 119.445L51.5158 120.353C51.6134 120.408 51.7006 120.25 51.603 120.195L40.1409 113.694L38.5264 112.786C38.4287 112.731 38.3416 112.889 38.4392 112.944L38.4497 112.937Z" fill="#0C478B"/>
<path d="M38.5845 127.744V112.867C38.5845 112.843 38.5753 112.82 38.559 112.802C38.5426 112.785 38.5205 112.775 38.4973 112.775C38.4742 112.775 38.452 112.785 38.4357 112.802C38.4193 112.82 38.4102 112.843 38.4102 112.867V127.744C38.4102 127.768 38.4193 127.792 38.4357 127.809C38.452 127.826 38.4742 127.836 38.4973 127.836C38.5205 127.836 38.5426 127.826 38.559 127.809C38.5753 127.792 38.5845 127.768 38.5845 127.744Z" fill="#0C478B"/>
<path d="M51.5085 105.506L62.9706 112.03L64.5747 112.941C64.5943 112.95 64.6166 112.952 64.6371 112.945C64.6577 112.938 64.6751 112.923 64.6859 112.904C64.6968 112.884 64.7003 112.861 64.6959 112.838C64.6914 112.816 64.6793 112.796 64.6618 112.783L53.1998 106.26L51.5957 105.348C51.4981 105.293 51.4109 105.451 51.5085 105.506V105.506Z" fill="#0C478B"/>
<path d="M51.5148 105.345L40.0527 111.868L38.4487 112.78C38.4344 112.793 38.4248 112.812 38.4214 112.831C38.4179 112.851 38.4207 112.872 38.4295 112.89C38.4382 112.908 38.4524 112.922 38.4697 112.931C38.4871 112.94 38.5066 112.942 38.5254 112.938L49.9909 106.411L51.5915 105.5C51.6892 105.444 51.5915 105.286 51.5043 105.342L51.5148 105.345Z" fill="#0C478B"/>
<path d="M77.582 120.286V135.207C77.582 135.231 77.5912 135.255 77.6076 135.272C77.6239 135.289 77.6461 135.299 77.6692 135.299C77.6923 135.299 77.7145 135.289 77.7309 135.272C77.7472 135.255 77.7564 135.231 77.7564 135.207V120.286C77.7564 120.262 77.7472 120.238 77.7309 120.221C77.7145 120.204 77.6923 120.194 77.6692 120.194C77.6461 120.194 77.6239 120.204 77.6076 120.221C77.5912 120.238 77.582 120.262 77.582 120.286Z" fill="#0C478B"/>
<path d="M90.6996 112.783L79.2341 119.291L77.6335 120.199C77.5358 120.254 77.6335 120.416 77.7207 120.357L89.1827 113.852L90.7868 112.941C90.8844 112.886 90.7868 112.728 90.6996 112.783Z" fill="#0C478B"/>
<path d="M90.8326 127.74V112.863C90.8326 112.839 90.8234 112.816 90.807 112.798C90.7907 112.781 90.7685 112.771 90.7454 112.771C90.7223 112.771 90.7001 112.781 90.6837 112.798C90.6674 112.816 90.6582 112.839 90.6582 112.863V127.74C90.6582 127.764 90.6674 127.788 90.6837 127.805C90.7001 127.822 90.7223 127.832 90.7454 127.832C90.7685 127.832 90.7907 127.822 90.807 127.805C90.8234 127.788 90.8326 127.764 90.8326 127.74V127.74Z" fill="#0C478B"/>
<path d="M64.5786 112.937L76.0406 119.445L77.6412 120.353C77.7423 120.408 77.8295 120.25 77.7319 120.195L66.2663 113.686L64.6832 112.786C64.5856 112.731 64.4949 112.889 64.596 112.944L64.5786 112.937Z" fill="#0C478B"/>
<path d="M64.7027 127.744V112.867C64.7027 112.843 64.6935 112.82 64.6771 112.802C64.6608 112.785 64.6386 112.775 64.6155 112.775C64.5924 112.775 64.5702 112.785 64.5538 112.802C64.5375 112.82 64.5283 112.843 64.5283 112.867V127.744C64.5283 127.768 64.5375 127.792 64.5538 127.809C64.5702 127.826 64.5924 127.836 64.6155 127.836C64.6386 127.836 64.6608 127.826 64.6771 127.809C64.6935 127.792 64.7027 127.768 64.7027 127.744Z" fill="#0C478B"/>
<path d="M77.6316 105.506L89.0867 112.03L90.6907 112.941C90.7104 112.95 90.7327 112.952 90.7532 112.945C90.7738 112.938 90.7912 112.923 90.802 112.904C90.8128 112.884 90.8164 112.861 90.8119 112.838C90.8075 112.816 90.7954 112.796 90.7779 112.783L79.3228 106.26L77.7188 105.348C77.6211 105.293 77.5339 105.451 77.6316 105.506V105.506Z" fill="#0C478B"/>
<path d="M77.6381 105.345L66.176 111.868L64.5754 112.779C64.4743 112.838 64.5754 112.996 64.6626 112.941L76.1247 106.414L77.7287 105.503C77.8264 105.447 77.7287 105.289 77.6381 105.345V105.345Z" fill="#0C478B"/>
<path d="M25.3457 120.286V135.207C25.3457 135.231 25.3549 135.255 25.3712 135.272C25.3876 135.289 25.4098 135.299 25.4329 135.299C25.456 135.299 25.4782 135.289 25.4945 135.272C25.5109 135.255 25.5201 135.231 25.5201 135.207V120.286C25.5201 120.262 25.5109 120.238 25.4945 120.221C25.4782 120.204 25.456 120.194 25.4329 120.194C25.4098 120.194 25.3876 120.204 25.3712 120.221C25.3549 120.238 25.3457 120.262 25.3457 120.286Z" fill="#0C478B"/>
<path d="M38.4525 112.783L26.9905 119.291L25.3864 120.199C25.2888 120.254 25.3864 120.416 25.4736 120.357L36.9391 113.852L38.5258 112.937C38.6234 112.882 38.5258 112.724 38.4386 112.779L38.4525 112.783Z" fill="#0C478B"/>
<path d="M38.5845 127.74V112.863C38.5845 112.839 38.5753 112.816 38.559 112.798C38.5426 112.781 38.5205 112.771 38.4973 112.771C38.4742 112.771 38.452 112.781 38.4357 112.798C38.4193 112.816 38.4102 112.839 38.4102 112.863V127.74C38.4102 127.764 38.4193 127.788 38.4357 127.805C38.452 127.822 38.4742 127.832 38.4973 127.832C38.5205 127.832 38.5426 127.822 38.559 127.805C38.5753 127.788 38.5845 127.764 38.5845 127.74V127.74Z" fill="#0C478B"/>
<path d="M12.3269 112.937L23.789 119.445L25.393 120.353C25.4907 120.408 25.5778 120.25 25.4802 120.195L14.0181 113.694L12.4141 112.786C12.3164 112.731 12.2293 112.889 12.3269 112.944V112.937Z" fill="#0C478B"/>
<path d="M25.3835 105.506L36.8456 112.03L38.4497 112.941C38.4693 112.95 38.4916 112.952 38.5121 112.945C38.5327 112.938 38.5501 112.923 38.5609 112.904C38.5718 112.884 38.5753 112.861 38.5709 112.838C38.5664 112.816 38.5543 112.796 38.5368 112.783L27.0748 106.26L25.4707 105.348C25.3731 105.293 25.2859 105.451 25.3835 105.506V105.506Z" fill="#0C478B"/>
<path d="M25.392 105.345L13.9265 111.868L12.3259 112.779C12.3055 112.791 12.2906 112.812 12.2844 112.835C12.2782 112.859 12.2812 112.884 12.2928 112.906C12.3043 112.927 12.3235 112.943 12.3461 112.95C12.3686 112.956 12.3927 112.953 12.4131 112.941L23.8786 106.414L25.4827 105.503C25.5803 105.447 25.4827 105.289 25.3955 105.345H25.392Z" fill="#0C478B"/>
<path d="M64.5244 97.9542V112.886C64.5244 112.91 64.5336 112.934 64.5499 112.951C64.5663 112.968 64.5885 112.978 64.6116 112.978C64.6347 112.978 64.6569 112.968 64.6732 112.951C64.6896 112.934 64.6988 112.91 64.6988 112.886V97.9542C64.6988 97.9298 64.6896 97.9064 64.6732 97.8892C64.6569 97.872 64.6347 97.8623 64.6116 97.8623C64.5885 97.8623 64.5663 97.872 64.5499 97.8892C64.5336 97.9064 64.5244 97.9298 64.5244 97.9542Z" fill="#0C478B"/>
<path d="M77.6312 90.4605L66.1657 96.9653L64.5651 97.8693C64.4675 97.9245 64.5651 98.0825 64.6523 98.0274L76.1144 91.5189L77.7184 90.6111C77.8161 90.556 77.7184 90.3943 77.6312 90.4531V90.4605Z" fill="#0C478B"/>
<path d="M77.7632 105.418V90.5382C77.7632 90.5138 77.754 90.4904 77.7377 90.4732C77.7213 90.456 77.6992 90.4463 77.676 90.4463C77.6529 90.4463 77.6307 90.456 77.6144 90.4732C77.598 90.4904 77.5889 90.5138 77.5889 90.5382V105.418C77.5889 105.443 77.598 105.466 77.6144 105.483C77.6307 105.501 77.6529 105.51 77.676 105.51C77.6992 105.51 77.7213 105.501 77.7377 105.483C77.754 105.466 77.7632 105.443 77.7632 105.418V105.418Z" fill="#0C478B"/>
<path d="M64.6523 112.938L76.1144 106.415L77.7184 105.5C77.8161 105.444 77.7184 105.286 77.6312 105.342L66.1657 111.868L64.5651 112.78C64.4675 112.835 64.5651 112.993 64.6523 112.938Z" fill="#0C478B"/>
<path d="M51.5066 90.6227L62.9687 97.1349L64.5692 98.0463C64.6704 98.1014 64.7575 97.9434 64.6599 97.8846L53.1944 91.3798L51.5938 90.472C51.5741 90.4627 51.5519 90.4613 51.5313 90.4682C51.5107 90.4752 51.4934 90.4899 51.4825 90.5096C51.4717 90.5292 51.4681 90.5524 51.4726 90.5747C51.477 90.5969 51.4892 90.6167 51.5066 90.63V90.6227Z" fill="#0C478B"/>
<path d="M51.6402 105.421V90.5411C51.6402 90.5167 51.631 90.4934 51.6146 90.4761C51.5983 90.4589 51.5761 90.4492 51.553 90.4492C51.5299 90.4492 51.5077 90.4589 51.4914 90.4761C51.475 90.4934 51.4658 90.5167 51.4658 90.5411V105.421C51.4658 105.446 51.475 105.469 51.4914 105.486C51.5077 105.504 51.5299 105.513 51.553 105.513C51.5761 105.513 51.5983 105.504 51.6146 105.486C51.631 105.469 51.6402 105.446 51.6402 105.421Z" fill="#0C478B"/>
<path d="M64.68 112.776L53.2144 106.253L51.6139 105.342C51.5162 105.286 51.4256 105.444 51.5267 105.5L62.9887 112.026L64.5893 112.938C64.6904 112.993 64.7776 112.835 64.68 112.776V112.776Z" fill="#0C478B"/>
<path d="M64.5681 83.169L76.0301 89.6922L77.6342 90.6036C77.7318 90.6587 77.819 90.5007 77.7214 90.4455L66.2593 83.9187L64.6553 83.0073C64.6349 82.9951 64.6108 82.9919 64.5882 82.9985C64.5657 83.005 64.5465 83.0207 64.535 83.0422C64.5234 83.0636 64.5204 83.089 64.5266 83.1128C64.5328 83.1366 64.5477 83.1568 64.5681 83.169Z" fill="#0C478B"/>
<path d="M64.5692 83.0214L53.1071 89.5446L51.5065 90.456C51.4089 90.5112 51.5065 90.6692 51.5937 90.6141L63.0558 84.0909L64.6773 83.1684C64.6971 83.1557 64.7114 83.1353 64.717 83.1115C64.7226 83.0877 64.7189 83.0626 64.7069 83.0416C64.6949 83.0207 64.6754 83.0056 64.6529 82.9998C64.6303 82.9939 64.6065 82.9977 64.5866 83.0104L64.5692 83.0214Z" fill="#0C478B"/>
<path d="M90.6465 97.9542V112.886C90.6465 112.91 90.6557 112.934 90.672 112.951C90.6884 112.968 90.7105 112.978 90.7337 112.978C90.7568 112.978 90.779 112.968 90.7953 112.951C90.8117 112.934 90.8208 112.91 90.8208 112.886V97.9542C90.8208 97.9298 90.8117 97.9064 90.7953 97.8892C90.779 97.872 90.7568 97.8623 90.7337 97.8623C90.7105 97.8623 90.6884 97.872 90.672 97.8892C90.6557 97.9064 90.6465 97.9298 90.6465 97.9542Z" fill="#0C478B"/>
<path d="M103.758 90.4605L92.2961 96.9653L90.6956 97.8693C90.5944 97.9245 90.6956 98.0825 90.7827 98.0274L102.245 91.5189L103.849 90.6111C103.947 90.556 103.849 90.3943 103.758 90.4531V90.4605Z" fill="#0C478B"/>
<path d="M103.886 105.418V90.5382C103.886 90.5138 103.877 90.4904 103.861 90.4732C103.844 90.456 103.822 90.4463 103.799 90.4463C103.776 90.4463 103.754 90.456 103.737 90.4732C103.721 90.4904 103.712 90.5138 103.712 90.5382V105.418C103.712 105.443 103.721 105.466 103.737 105.483C103.754 105.501 103.776 105.51 103.799 105.51C103.822 105.51 103.844 105.501 103.861 105.483C103.877 105.466 103.886 105.443 103.886 105.418V105.418Z" fill="#0C478B"/>
<path d="M90.7827 112.938L102.245 106.415L103.849 105.5C103.947 105.444 103.849 105.286 103.758 105.342L92.2961 111.868L90.6956 112.78C90.5944 112.835 90.6956 112.993 90.7827 112.938Z" fill="#0C478B"/>
<path d="M77.633 90.6222L89.0881 97.1344L90.6887 98.0458C90.6987 98.0518 90.7098 98.0557 90.7213 98.0572C90.7328 98.0588 90.7445 98.0579 90.7557 98.0546C90.7668 98.0514 90.7773 98.0458 90.7864 98.0383C90.7956 98.0308 90.8032 98.0215 90.809 98.0109C90.8147 98.0003 90.8184 97.9886 90.8198 97.9765C90.8212 97.9643 90.8204 97.9521 90.8173 97.9403C90.8142 97.9285 90.809 97.9175 90.8019 97.9079C90.7948 97.8982 90.7859 97.8901 90.7758 97.8841L79.3242 91.3719L77.7237 90.4642C77.704 90.4548 77.6817 90.4535 77.6612 90.4604C77.6406 90.4674 77.6232 90.4821 77.6124 90.5018C77.6016 90.5214 77.598 90.5446 77.6025 90.5669C77.6069 90.5891 77.619 90.6089 77.6365 90.6222H77.633Z" fill="#0C478B"/>
<path d="M77.7632 105.421V90.5411C77.7632 90.5167 77.754 90.4934 77.7377 90.4761C77.7213 90.4589 77.6992 90.4492 77.676 90.4492C77.6529 90.4492 77.6307 90.4589 77.6144 90.4761C77.598 90.4934 77.5889 90.5167 77.5889 90.5411V105.421C77.5889 105.446 77.598 105.469 77.6144 105.486C77.6307 105.504 77.6529 105.513 77.676 105.513C77.6992 105.513 77.7213 105.504 77.7377 105.486C77.754 105.469 77.7632 105.446 77.7632 105.421Z" fill="#0C478B"/>
<path d="M90.7841 112.776L79.3255 106.253L77.7249 105.342C77.6238 105.286 77.5366 105.444 77.6377 105.5L89.0893 112.026L90.6899 112.938C90.7875 112.993 90.8782 112.835 90.7771 112.776H90.7841Z" fill="#0C478B"/>
<path d="M90.6927 83.1693L102.155 89.6925L103.755 90.6039C103.856 90.659 103.944 90.501 103.846 90.4459L92.3804 83.919L90.7799 83.0076C90.6822 82.9525 90.5916 83.1105 90.6927 83.1693Z" fill="#0C478B"/>
<path d="M90.6937 83.0218L79.2317 89.545L77.6311 90.4564C77.53 90.5116 77.6311 90.6696 77.7183 90.6145L89.1804 84.0913L90.7809 83.1799C90.7984 83.1665 90.8105 83.1467 90.815 83.1245C90.8194 83.1022 90.8159 83.079 90.805 83.0594C90.7942 83.0397 90.7768 83.025 90.7562 83.018C90.7357 83.0111 90.7134 83.0125 90.6937 83.0218Z" fill="#0C478B"/>
<path d="M38.4043 97.9542V112.886C38.4043 112.91 38.4135 112.934 38.4298 112.951C38.4462 112.968 38.4684 112.978 38.4915 112.978C38.5146 112.978 38.5368 112.968 38.5531 112.951C38.5695 112.934 38.5787 112.91 38.5787 112.886V97.9542C38.5787 97.9298 38.5695 97.9064 38.5531 97.8892C38.5368 97.872 38.5146 97.8623 38.4915 97.8623C38.4684 97.8623 38.4462 97.872 38.4298 97.8892C38.4135 97.9064 38.4043 97.9298 38.4043 97.9542Z" fill="#0C478B"/>
<path d="M51.5111 90.4605L40.0456 96.9653L38.445 97.8693C38.3474 97.9245 38.445 98.0825 38.5322 98.0274L49.9942 91.5189L51.5983 90.6111C51.6959 90.556 51.5983 90.3943 51.5111 90.4531V90.4605Z" fill="#0C478B"/>
<path d="M51.6402 105.418V90.5382C51.6402 90.5138 51.631 90.4904 51.6146 90.4732C51.5983 90.456 51.5761 90.4463 51.553 90.4463C51.5299 90.4463 51.5077 90.456 51.4914 90.4732C51.475 90.4904 51.4658 90.5138 51.4658 90.5382V105.418C51.4658 105.443 51.475 105.466 51.4914 105.483C51.5077 105.501 51.5299 105.51 51.553 105.51C51.5761 105.51 51.5983 105.501 51.6146 105.483C51.631 105.466 51.6402 105.443 51.6402 105.418V105.418Z" fill="#0C478B"/>
<path d="M38.5252 112.938L49.9873 106.415L51.5913 105.5C51.689 105.444 51.5913 105.286 51.5042 105.342L40.0456 111.865L38.445 112.776C38.3474 112.831 38.445 112.989 38.5322 112.934L38.5252 112.938Z" fill="#0C478B"/>
<path d="M25.3894 90.6227L36.8515 97.1349L38.4521 98.0463C38.5532 98.1014 38.6404 97.9434 38.5427 97.8846L27.0772 91.3798L25.4766 90.472C25.4569 90.4627 25.4347 90.4613 25.4141 90.4682C25.3936 90.4752 25.3762 90.4899 25.3653 90.5096C25.3545 90.5292 25.3509 90.5524 25.3554 90.5747C25.3598 90.5969 25.372 90.6167 25.3894 90.63V90.6227Z" fill="#0C478B"/>
<path d="M25.5152 105.421V90.5411C25.5152 90.5167 25.506 90.4934 25.4896 90.4761C25.4733 90.4589 25.4511 90.4492 25.428 90.4492C25.4049 90.4492 25.3827 90.4589 25.3664 90.4761C25.35 90.4934 25.3408 90.5167 25.3408 90.5411V105.421C25.3408 105.446 25.35 105.469 25.3664 105.486C25.3827 105.504 25.4049 105.513 25.428 105.513C25.4511 105.513 25.4733 105.504 25.4896 105.486C25.506 105.469 25.5152 105.446 25.5152 105.421Z" fill="#0C478B"/>
<path d="M38.5244 112.776L27.0728 106.253L25.4723 105.342C25.3746 105.286 25.284 105.444 25.3851 105.5L36.8471 112.026L38.4477 112.938C38.5488 112.993 38.636 112.835 38.5384 112.776H38.5244Z" fill="#0C478B"/>
<path d="M38.4461 83.1689L49.9082 89.6921L51.5123 90.6035C51.6099 90.6586 51.6971 90.5006 51.5994 90.4455L40.1374 83.9333L38.5264 83.0219C38.506 83.0097 38.4819 83.0066 38.4593 83.0131C38.4368 83.0196 38.4176 83.0354 38.406 83.0568C38.3945 83.0783 38.3915 83.1037 38.3977 83.1274C38.4039 83.1512 38.4188 83.1714 38.4392 83.1836L38.4461 83.1689Z" fill="#0C478B"/>
<path d="M38.4457 83.0214L26.9836 89.5446L25.3831 90.456C25.2819 90.5112 25.3831 90.6692 25.4702 90.6141L36.9323 84.0909L38.5224 83.1684C38.5423 83.1557 38.5566 83.1353 38.5622 83.1115C38.5677 83.0877 38.5641 83.0626 38.5521 83.0416C38.54 83.0207 38.5206 83.0056 38.498 82.9998C38.4755 82.9939 38.4516 82.9977 38.4317 83.0104L38.4457 83.0214Z" fill="#0C478B"/>
<path d="M129.844 75.6251V90.5568C129.844 90.5811 129.853 90.6045 129.869 90.6217C129.886 90.639 129.908 90.6486 129.931 90.6486C129.954 90.6486 129.976 90.639 129.993 90.6217C130.009 90.6045 130.018 90.5811 130.018 90.5568V75.6251C130.018 75.6007 130.009 75.5773 129.993 75.5601C129.976 75.5429 129.954 75.5332 129.931 75.5332C129.908 75.5332 129.886 75.5429 129.869 75.5601C129.853 75.5773 129.844 75.6007 129.844 75.6251Z" fill="#0C478B"/>
<path d="M142.949 68.1311L131.483 74.6359L129.886 75.5473C129.789 75.6025 129.886 75.7605 129.974 75.7054L141.432 69.2042L143.036 68.2965C143.134 68.2414 143.036 68.0833 142.949 68.1385V68.1311Z" fill="#0C478B"/>
<path d="M129.97 90.6036L141.432 84.0804L143.036 83.169C143.057 83.1568 143.071 83.1366 143.078 83.1128C143.084 83.089 143.081 83.0636 143.069 83.0422C143.058 83.0207 143.039 83.005 143.016 82.9985C142.993 82.9919 142.969 82.9951 142.949 83.0073L131.483 89.5341L129.886 90.4455C129.789 90.5007 129.886 90.6587 129.974 90.6036H129.97Z" fill="#0C478B"/>
<path d="M116.823 68.2928L128.285 74.7976L129.889 75.709C129.987 75.7641 130.074 75.6061 129.976 75.551L118.514 69.0425L116.91 68.1348C116.813 68.0759 116.725 68.2377 116.823 68.2928V68.2928Z" fill="#0C478B"/>
<path d="M116.956 83.0922V68.212C116.956 68.1876 116.946 68.1643 116.93 68.147C116.914 68.1298 116.892 68.1201 116.868 68.1201C116.845 68.1201 116.823 68.1298 116.807 68.147C116.79 68.1643 116.781 68.1876 116.781 68.212V83.0922C116.781 83.1166 116.79 83.14 116.807 83.1572C116.823 83.1744 116.845 83.1841 116.868 83.1841C116.892 83.1841 116.914 83.1744 116.93 83.1572C116.946 83.14 116.956 83.1166 116.956 83.0922V83.0922Z" fill="#0C478B"/>
<path d="M129.976 90.4488L118.514 83.9219L116.91 83.0105C116.813 82.9554 116.725 83.1134 116.823 83.1685L128.285 89.6954L129.889 90.6068C129.987 90.662 130.074 90.5039 129.976 90.4488Z" fill="#0C478B"/>
<path d="M129.885 60.8549L141.344 67.3671L142.948 68.2785C143.045 68.3336 143.133 68.1756 143.035 68.1205L131.573 61.5973L129.969 60.6859C129.949 60.6765 129.927 60.6752 129.906 60.6821C129.886 60.689 129.868 60.7038 129.858 60.7234C129.847 60.7431 129.843 60.7663 129.848 60.7886C129.852 60.8108 129.864 60.8305 129.882 60.8439L129.885 60.8549Z" fill="#0C478B"/>
<path d="M129.887 60.6924L118.422 67.2156L116.821 68.127C116.723 68.1821 116.821 68.3401 116.908 68.285L128.37 61.7618L129.974 60.8504C130.072 60.7953 129.974 60.6336 129.887 60.6924V60.6924Z" fill="#0C478B"/>
<path d="M129.888 45.9674L141.35 52.4759L142.951 53.3836C143.052 53.4387 143.139 53.2807 143.038 53.2256L131.576 46.7208L129.975 45.8094C129.878 45.7542 129.787 45.9123 129.888 45.9674V45.9674Z" fill="#0C478B"/>
<path d="M130.018 60.7516V45.8897C130.018 45.8654 130.009 45.842 129.993 45.8248C129.976 45.8075 129.954 45.7979 129.931 45.7979C129.908 45.7979 129.886 45.8075 129.869 45.8248C129.853 45.842 129.844 45.8654 129.844 45.8897V60.7516C129.844 60.776 129.853 60.7993 129.869 60.8166C129.886 60.8338 129.908 60.8435 129.931 60.8435C129.954 60.8435 129.976 60.8338 129.993 60.8166C130.009 60.7993 130.018 60.776 130.018 60.7516Z" fill="#0C478B"/>
<path d="M143.038 68.124L131.576 61.6008L129.975 60.6894C129.878 60.6306 129.787 60.7923 129.888 60.8475L141.35 67.367L142.951 68.2784C143.052 68.3372 143.139 68.1755 143.038 68.1204V68.124Z" fill="#0C478B"/>
<path d="M142.945 38.367L131.483 44.8902L129.886 45.8016C129.785 45.8604 129.886 46.0184 129.973 45.9633L141.432 39.4364L143.032 38.525C143.133 38.4699 143.032 38.3118 142.945 38.367V38.367Z" fill="#0C478B"/>
<path d="M129.892 90.6109L141.35 97.1341L142.951 98.0418C142.96 98.0481 142.971 98.0522 142.983 98.0541C142.994 98.0559 143.006 98.0553 143.017 98.0524C143.028 98.0495 143.039 98.0444 143.048 98.0372C143.057 98.03 143.065 98.0209 143.071 98.0106C143.077 98.0002 143.081 97.9887 143.083 97.9767C143.084 97.9647 143.084 97.9525 143.081 97.9407C143.078 97.9289 143.073 97.9178 143.067 97.9081C143.06 97.8983 143.051 97.89 143.041 97.8838L131.576 91.379L129.975 90.4675C129.878 90.4124 129.787 90.5704 129.888 90.6292L129.892 90.6109Z" fill="#0C478B"/>
<path d="M130.018 105.411V90.5196C130.018 90.4952 130.009 90.4719 129.993 90.4546C129.976 90.4374 129.954 90.4277 129.931 90.4277C129.908 90.4277 129.886 90.4374 129.869 90.4546C129.853 90.4719 129.844 90.4952 129.844 90.5196V105.4C129.844 105.424 129.853 105.448 129.869 105.465C129.886 105.482 129.908 105.492 129.931 105.492C129.954 105.492 129.976 105.482 129.993 105.465C130.009 105.448 130.018 105.424 130.018 105.4V105.411Z" fill="#0C478B"/>
<path d="M143.041 112.764L131.576 106.241L129.975 105.33C129.878 105.275 129.787 105.433 129.888 105.488L141.35 112.011L142.951 112.926C143.052 112.981 143.139 112.823 143.041 112.764V112.764Z" fill="#0C478B"/>
<path d="M142.945 83.0076L131.483 89.5345L129.886 90.4459C129.785 90.501 129.886 90.659 129.973 90.6039L141.435 84.0807L143.039 83.1693C143.137 83.1105 143.039 82.9525 142.949 83.0076H142.945Z" fill="#0C478B"/>
<path d="M116.776 97.9434V112.875C116.776 112.899 116.786 112.923 116.802 112.94C116.818 112.957 116.84 112.967 116.864 112.967C116.887 112.967 116.909 112.957 116.925 112.94C116.942 112.923 116.951 112.899 116.951 112.875V97.9434C116.951 97.9191 116.942 97.8957 116.925 97.8785C116.909 97.8612 116.887 97.8516 116.864 97.8516C116.84 97.8516 116.818 97.8612 116.802 97.8785C116.786 97.8957 116.776 97.9191 116.776 97.9434Z" fill="#0C478B"/>
<path d="M129.885 90.4497L118.423 96.9545L116.819 97.8696C116.717 97.9284 116.819 98.0864 116.906 98.0313L128.368 91.5228L129.972 90.615C130.07 90.5599 129.972 90.3982 129.881 90.457L129.885 90.4497Z" fill="#0C478B"/>
<path d="M130.018 105.407V90.5196C130.018 90.4952 130.009 90.4719 129.993 90.4546C129.976 90.4374 129.954 90.4277 129.931 90.4277C129.908 90.4277 129.886 90.4374 129.869 90.4546C129.853 90.4719 129.844 90.4952 129.844 90.5196V105.4C129.844 105.424 129.853 105.448 129.869 105.465C129.886 105.482 129.908 105.492 129.931 105.492C129.954 105.492 129.976 105.482 129.993 105.465C130.009 105.448 130.018 105.424 130.018 105.4V105.407Z" fill="#0C478B"/>
<path d="M116.906 112.938L128.368 106.411L129.972 105.5C130.07 105.444 129.972 105.286 129.881 105.342L118.419 111.835L116.819 112.75C116.717 112.806 116.819 112.964 116.906 112.908V112.938Z" fill="#0C478B"/>
<path d="M103.761 90.6109L115.241 97.1341L116.841 98.0418C116.851 98.0481 116.862 98.0522 116.873 98.0541C116.885 98.0559 116.896 98.0553 116.908 98.0524C116.919 98.0495 116.929 98.0444 116.939 98.0372C116.948 98.03 116.956 98.0209 116.962 98.0106C116.968 98.0002 116.971 97.9887 116.973 97.9767C116.975 97.9647 116.974 97.9525 116.972 97.9407C116.969 97.9289 116.964 97.9178 116.957 97.9081C116.95 97.8983 116.942 97.89 116.932 97.8838L105.466 91.379L103.866 90.4675C103.768 90.4124 103.678 90.5704 103.779 90.6292L103.761 90.6109Z" fill="#0C478B"/>
<path d="M103.89 105.411V90.5196C103.89 90.4952 103.881 90.4719 103.865 90.4546C103.848 90.4374 103.826 90.4277 103.803 90.4277C103.78 90.4277 103.758 90.4374 103.741 90.4546C103.725 90.4719 103.716 90.4952 103.716 90.5196V105.4C103.716 105.424 103.725 105.448 103.741 105.465C103.758 105.482 103.78 105.492 103.803 105.492C103.826 105.492 103.848 105.482 103.865 105.465C103.881 105.448 103.89 105.424 103.89 105.4V105.411Z" fill="#0C478B"/>
<path d="M116.918 112.764L105.453 106.241L103.852 105.33C103.755 105.275 103.664 105.433 103.765 105.488L115.244 112.011L116.845 112.926C116.946 112.981 117.033 112.823 116.936 112.764H116.918Z" fill="#0C478B"/>
<path d="M116.821 83.1685L128.283 89.6954L129.883 90.6068C129.984 90.662 130.072 90.5039 129.974 90.4488L118.508 83.9219L116.908 83.0105C116.81 82.9554 116.72 83.1134 116.821 83.1685Z" fill="#0C478B"/>
<path d="M116.826 83.0076L105.364 89.5345L103.763 90.4459C103.662 90.501 103.763 90.659 103.85 90.6039L115.312 84.0807L116.916 83.1693C117.014 83.1105 116.916 82.9525 116.826 83.0076V83.0076Z" fill="#0C478B"/>
<path d="M90.6533 53.3204V68.2484C90.6533 68.2728 90.6625 68.2961 90.6788 68.3134C90.6952 68.3306 90.7174 68.3403 90.7405 68.3403C90.7636 68.3403 90.7858 68.3306 90.8021 68.3134C90.8185 68.2961 90.8277 68.2728 90.8277 68.2484V53.3204C90.8277 53.296 90.8185 53.2727 90.8021 53.2554C90.7858 53.2382 90.7636 53.2285 90.7405 53.2285C90.7174 53.2285 90.6952 53.2382 90.6788 53.2554C90.6625 53.2727 90.6533 53.296 90.6533 53.3204Z" fill="#0C478B"/>
<path d="M103.76 45.823L92.298 52.3315L90.6939 53.2393C90.5963 53.2944 90.6939 53.4524 90.7846 53.3973L102.247 46.8925L103.847 45.981C103.948 45.9259 103.847 45.7679 103.76 45.823Z" fill="#0C478B"/>
<path d="M103.895 60.78V45.9034C103.895 45.879 103.886 45.8557 103.87 45.8384C103.853 45.8212 103.831 45.8115 103.808 45.8115C103.785 45.8115 103.763 45.8212 103.746 45.8384C103.73 45.8557 103.721 45.879 103.721 45.9034V60.78C103.721 60.8043 103.73 60.8277 103.746 60.8449C103.763 60.8622 103.785 60.8718 103.808 60.8718C103.831 60.8718 103.853 60.8622 103.87 60.8449C103.886 60.8277 103.895 60.8043 103.895 60.78V60.78Z" fill="#0C478B"/>
<path d="M90.7846 68.2957L102.247 61.7725L103.847 60.8611C103.948 60.806 103.847 60.6443 103.76 60.7031L92.298 67.2263L90.6939 68.1377C90.5963 68.1929 90.6939 68.3509 90.7846 68.2957V68.2957Z" fill="#0C478B"/>
<path d="M77.635 45.9859L89.0866 52.4944L90.6871 53.4022C90.7848 53.4573 90.8754 53.2993 90.7743 53.2441L79.3227 46.7356L77.7221 45.8279C77.621 45.7728 77.5338 45.9308 77.6315 45.9859H77.635Z" fill="#0C478B"/>
<path d="M77.772 60.7849V45.9083C77.772 45.8839 77.7628 45.8605 77.7465 45.8433C77.7301 45.8261 77.708 45.8164 77.6848 45.8164C77.6617 45.8164 77.6395 45.8261 77.6232 45.8433C77.6068 45.8605 77.5977 45.8839 77.5977 45.9083V60.7849C77.5977 60.8092 77.6068 60.8326 77.6232 60.8498C77.6395 60.867 77.6617 60.8767 77.6848 60.8767C77.708 60.8767 77.7301 60.867 77.7465 60.8498C77.7628 60.8326 77.772 60.8092 77.772 60.7849Z" fill="#0C478B"/>
<path d="M90.7879 68.1423L79.3224 61.6191L77.7218 60.7077C77.7019 60.695 77.6781 60.6912 77.6555 60.697C77.633 60.7029 77.6135 60.7179 77.6015 60.7389C77.5895 60.7599 77.5859 60.785 77.5914 60.8088C77.597 60.8325 77.6113 60.853 77.6311 60.8657L89.0862 67.3889L90.6868 68.3003C90.7844 68.3554 90.8751 68.1974 90.774 68.1423H90.7879Z" fill="#0C478B"/>
<path d="M90.6959 38.5467L102.161 45.0699L103.762 45.9813C103.86 46.0401 103.95 45.8784 103.849 45.8233L92.3872 39.3001L90.7866 38.3887C90.6855 38.3299 90.5983 38.4916 90.6959 38.5467Z" fill="#0C478B"/>
<path d="M90.7061 38.3855L79.244 44.9087L77.6399 45.8201C77.6201 45.8328 77.6058 45.8533 77.6002 45.8771C77.5946 45.9008 77.5983 45.926 77.6103 45.9469C77.6223 45.9679 77.6417 45.9829 77.6643 45.9888C77.6869 45.9947 77.7107 45.9908 77.7306 45.9782L89.1927 39.455L90.7932 38.5435C90.8944 38.4884 90.7932 38.3304 90.7061 38.3855Z" fill="#0C478B"/>
<path d="M116.776 53.3204V68.2484C116.776 68.2728 116.786 68.2961 116.802 68.3134C116.818 68.3306 116.84 68.3403 116.864 68.3403C116.887 68.3403 116.909 68.3306 116.925 68.3134C116.942 68.2961 116.951 68.2728 116.951 68.2484V53.3204C116.951 53.296 116.942 53.2727 116.925 53.2554C116.909 53.2382 116.887 53.2285 116.864 53.2285C116.84 53.2285 116.818 53.2382 116.802 53.2554C116.786 53.2727 116.776 53.296 116.776 53.3204Z" fill="#0C478B"/>
<path d="M129.887 45.823L118.425 52.3315L116.821 53.2393C116.723 53.2944 116.821 53.4524 116.908 53.3973L128.374 46.8925L129.974 45.981C130.072 45.9259 129.974 45.7679 129.887 45.823V45.823Z" fill="#0C478B"/>
<path d="M130.018 60.78V45.9034C130.018 45.879 130.009 45.8557 129.993 45.8384C129.976 45.8212 129.954 45.8115 129.931 45.8115C129.908 45.8115 129.886 45.8212 129.869 45.8384C129.853 45.8557 129.844 45.879 129.844 45.9034V60.78C129.844 60.8043 129.853 60.8277 129.869 60.8449C129.886 60.8622 129.908 60.8718 129.931 60.8718C129.954 60.8718 129.976 60.8622 129.993 60.8449C130.009 60.8277 130.018 60.8043 130.018 60.78V60.78Z" fill="#0C478B"/>
<path d="M116.908 68.2957L128.374 61.7725L129.974 60.8611C130.072 60.806 129.974 60.6443 129.887 60.7031L118.425 67.2263L116.821 68.1377C116.723 68.1929 116.821 68.3509 116.908 68.2957V68.2957Z" fill="#0C478B"/>
<path d="M103.763 45.9859L115.243 52.4944L116.847 53.4022C116.945 53.4573 117.032 53.2993 116.934 53.2441L105.455 46.7356L103.851 45.8279C103.753 45.7728 103.666 45.9308 103.763 45.9859V45.9859Z" fill="#0C478B"/>
<path d="M103.895 60.7849V45.9083C103.895 45.8839 103.886 45.8605 103.87 45.8433C103.853 45.8261 103.831 45.8164 103.808 45.8164C103.785 45.8164 103.763 45.8261 103.746 45.8433C103.73 45.8605 103.721 45.8839 103.721 45.9083V60.7849C103.721 60.8092 103.73 60.8326 103.746 60.8498C103.763 60.867 103.785 60.8767 103.808 60.8767C103.831 60.8767 103.853 60.867 103.87 60.8498C103.886 60.8326 103.895 60.8092 103.895 60.7849Z" fill="#0C478B"/>
<path d="M116.92 68.142L105.458 61.6188L103.854 60.7074C103.834 60.698 103.812 60.6967 103.791 60.7036C103.771 60.7105 103.753 60.7253 103.742 60.7449C103.731 60.7646 103.728 60.7878 103.732 60.81C103.737 60.8323 103.749 60.852 103.766 60.8654L115.246 67.3886L116.85 68.3C116.948 68.3551 117.035 68.1971 116.937 68.142H116.92Z" fill="#0C478B"/>
<path d="M116.819 38.5467L128.281 45.0699L129.885 45.9813C129.983 46.0401 130.07 45.8784 129.972 45.8233L118.51 39.3001L116.906 38.3887C116.809 38.3299 116.721 38.4916 116.819 38.5467Z" fill="#0C478B"/>
<path d="M116.832 38.3855L105.367 44.9087L103.766 45.8201C103.749 45.8335 103.737 45.8532 103.732 45.8755C103.728 45.8977 103.731 45.921 103.742 45.9406C103.753 45.9603 103.771 45.975 103.791 45.9819C103.812 45.9889 103.834 45.9875 103.854 45.9782L115.316 39.455L116.92 38.5435C117.017 38.4884 116.92 38.3304 116.832 38.3855V38.3855Z" fill="#0C478B"/>
<path d="M64.5332 53.3204V68.2484C64.5332 68.2728 64.5424 68.2961 64.5587 68.3134C64.5751 68.3306 64.5973 68.3403 64.6204 68.3403C64.6435 68.3403 64.6657 68.3306 64.682 68.3134C64.6984 68.2961 64.7076 68.2728 64.7076 68.2484V53.3204C64.7076 53.296 64.6984 53.2727 64.682 53.2554C64.6657 53.2382 64.6435 53.2285 64.6204 53.2285C64.5973 53.2285 64.5751 53.2382 64.5587 53.2554C64.5424 53.2727 64.5332 53.296 64.5332 53.3204Z" fill="#0C478B"/>
<path d="M77.6399 45.823L66.1779 52.3315L64.5738 53.2393C64.4762 53.2944 64.5738 53.4524 64.6645 53.3973L76.1265 46.8925L77.7271 45.981C77.8282 45.9259 77.7271 45.7679 77.6399 45.823V45.823Z" fill="#0C478B"/>
<path d="M77.772 60.78V45.9034C77.772 45.879 77.7628 45.8557 77.7465 45.8384C77.7301 45.8212 77.708 45.8115 77.6848 45.8115C77.6617 45.8115 77.6395 45.8212 77.6232 45.8384C77.6068 45.8557 77.5977 45.879 77.5977 45.9034V60.78C77.5977 60.8043 77.6068 60.8277 77.6232 60.8449C77.6395 60.8622 77.6617 60.8718 77.6848 60.8718C77.708 60.8718 77.7301 60.8622 77.7465 60.8449C77.7628 60.8277 77.772 60.8043 77.772 60.78V60.78Z" fill="#0C478B"/>
<path d="M64.6784 68.2957L76.1405 61.7725L77.7411 60.8611C77.8422 60.806 77.7411 60.6443 77.6539 60.7031L66.1779 67.2263L64.5738 68.1377C64.4762 68.1929 64.5738 68.3509 64.6645 68.2957H64.6784Z" fill="#0C478B"/>
<path d="M51.5133 45.9859L62.9754 52.4944L64.5794 53.4022C64.6771 53.4573 64.7643 53.2993 64.6666 53.2441L53.2046 46.7356L51.604 45.8279C51.5029 45.7728 51.4157 45.9308 51.5133 45.9859V45.9859Z" fill="#0C478B"/>
<path d="M51.6538 60.7849V45.9083C51.6538 45.8839 51.6447 45.8605 51.6283 45.8433C51.612 45.8261 51.5898 45.8164 51.5667 45.8164C51.5435 45.8164 51.5214 45.8261 51.505 45.8433C51.4887 45.8605 51.4795 45.8839 51.4795 45.9083V60.7849C51.4795 60.8092 51.4887 60.8326 51.505 60.8498C51.5214 60.867 51.5435 60.8767 51.5667 60.8767C51.5898 60.8767 51.612 60.867 51.6283 60.8498C51.6447 60.8326 51.6538 60.8092 51.6538 60.7849Z" fill="#0C478B"/>
<path d="M64.6767 68.1423L53.2042 61.6191L51.6036 60.7077C51.5838 60.695 51.5599 60.6912 51.5374 60.697C51.5148 60.7029 51.4954 60.7179 51.4833 60.7389C51.4713 60.7599 51.4677 60.785 51.4732 60.8088C51.4788 60.8325 51.4931 60.853 51.513 60.8657L62.975 67.3889L64.5791 68.3003C64.6767 68.3554 64.7639 68.1974 64.6663 68.1423H64.6767Z" fill="#0C478B"/>
<path d="M64.5755 38.5467L76.0411 45.0699L77.6417 45.9813C77.7393 46.0401 77.83 45.8784 77.7288 45.8233L66.2668 39.3001L64.6802 38.3887C64.579 38.3299 64.4919 38.4916 64.5895 38.5467H64.5755Z" fill="#0C478B"/>
<path d="M64.5791 38.3855L53.117 44.9087L51.513 45.8201C51.4931 45.8328 51.4788 45.8533 51.4732 45.8771C51.4677 45.9008 51.4713 45.926 51.4833 45.9469C51.4954 45.9679 51.5148 45.9829 51.5374 45.9888C51.5599 45.9947 51.5838 45.9908 51.6036 45.9782L63.0657 39.455L64.6767 38.5435C64.7744 38.4884 64.6767 38.3304 64.5896 38.3855H64.5791Z" fill="#0C478B"/>
<path d="M103.712 30.9825V45.9252C103.712 45.9496 103.721 45.973 103.737 45.9902C103.754 46.0074 103.776 46.0171 103.799 46.0171C103.822 46.0171 103.844 46.0074 103.861 45.9902C103.877 45.973 103.886 45.9496 103.886 45.9252V30.9825C103.886 30.9581 103.877 30.9348 103.861 30.9175C103.844 30.9003 103.822 30.8906 103.799 30.8906C103.776 30.8906 103.754 30.9003 103.737 30.9175C103.721 30.9348 103.712 30.9581 103.712 30.9825Z" fill="#0C478B"/>
<path d="M116.821 23.5013L105.359 30.0061L103.755 30.9139C103.745 30.9199 103.736 30.928 103.729 30.9376C103.721 30.9472 103.716 30.9583 103.713 30.97C103.71 30.9818 103.709 30.9941 103.711 31.0062C103.712 31.0183 103.716 31.03 103.721 31.0407C103.727 31.0513 103.735 31.0606 103.744 31.0681C103.753 31.0756 103.764 31.0811 103.775 31.0844C103.786 31.0876 103.798 31.0885 103.809 31.087C103.821 31.0855 103.832 31.0816 103.842 31.0756L115.307 24.5671L116.908 23.6593C116.925 23.646 116.937 23.6262 116.942 23.604C116.946 23.5817 116.943 23.5585 116.932 23.5389C116.921 23.5192 116.904 23.5045 116.883 23.4975C116.863 23.4906 116.84 23.492 116.821 23.5013V23.5013Z" fill="#0C478B"/>
<path d="M116.951 38.4594V23.5792C116.951 23.5548 116.942 23.5314 116.925 23.5142C116.909 23.497 116.887 23.4873 116.864 23.4873C116.84 23.4873 116.818 23.497 116.802 23.5142C116.786 23.5314 116.776 23.5548 116.776 23.5792V38.4594C116.776 38.4838 116.786 38.5072 116.802 38.5244C116.818 38.5416 116.84 38.5513 116.864 38.5513C116.887 38.5513 116.909 38.5416 116.925 38.5244C116.942 38.5072 116.951 38.4838 116.951 38.4594Z" fill="#0C478B"/>
<path d="M103.842 45.9743L115.307 39.4364L116.908 38.525C117.006 38.4699 116.908 38.3118 116.821 38.367L105.359 44.9012L103.755 45.8126C103.745 45.8186 103.736 45.8267 103.729 45.8363C103.721 45.846 103.716 45.857 103.713 45.8688C103.71 45.8805 103.709 45.8928 103.711 45.905C103.712 45.9171 103.716 45.9288 103.721 45.9394C103.727 45.95 103.735 45.9593 103.744 45.9668C103.753 45.9743 103.764 45.9799 103.775 45.9831C103.786 45.9863 103.798 45.9872 103.809 45.9857C103.821 45.9842 103.832 45.9803 103.842 45.9743V45.9743Z" fill="#0C478B"/>
<path d="M90.698 23.6631L102.16 30.1679L103.764 31.0757C103.784 31.085 103.806 31.0864 103.827 31.0794C103.847 31.0725 103.865 31.0578 103.875 31.0381C103.886 31.0185 103.89 30.9952 103.885 30.973C103.881 30.9507 103.869 30.931 103.851 30.9176L92.3892 24.4128L90.7851 23.5014C90.7648 23.4892 90.7407 23.486 90.7181 23.4926C90.6956 23.4991 90.6764 23.5149 90.6648 23.5363C90.6533 23.5578 90.6503 23.5832 90.6565 23.6069C90.6627 23.6307 90.6776 23.6509 90.698 23.6631V23.6631Z" fill="#0C478B"/>
<path d="M90.8326 38.4624V23.5821C90.8326 23.5577 90.8234 23.5344 90.807 23.5171C90.7907 23.4999 90.7685 23.4902 90.7454 23.4902C90.7223 23.4902 90.7001 23.4999 90.6837 23.5171C90.6674 23.5344 90.6582 23.5577 90.6582 23.5821V38.4624C90.6582 38.4867 90.6674 38.5101 90.6837 38.5273C90.7001 38.5446 90.7223 38.5542 90.7454 38.5542C90.7685 38.5542 90.7907 38.5446 90.807 38.5273C90.8234 38.5101 90.8326 38.4867 90.8326 38.4624Z" fill="#0C478B"/>
<path d="M103.849 45.8162L92.3873 39.293L90.7832 38.3816C90.6856 38.3265 90.5984 38.4845 90.696 38.5396L102.158 45.0628L103.762 45.9779C103.782 45.9901 103.807 45.9933 103.829 45.9867C103.852 45.9802 103.871 45.9645 103.882 45.943C103.894 45.9216 103.897 45.8962 103.891 45.8724C103.885 45.8486 103.87 45.8284 103.849 45.8162Z" fill="#0C478B"/>
<path d="M103.755 16.2213L115.217 22.7482L116.821 23.6596C116.918 23.7147 117.006 23.5567 116.908 23.5015L105.446 16.9747L103.842 16.0633C103.744 16.0081 103.657 16.1662 103.755 16.2213Z" fill="#0C478B"/>
<path d="M103.76 16.059L92.2946 22.5859L90.694 23.4973C90.5964 23.5524 90.694 23.7105 90.7812 23.6553L102.247 17.1321L103.847 16.2207C103.857 16.2147 103.866 16.2066 103.873 16.197C103.88 16.1873 103.886 16.1763 103.889 16.1646C103.892 16.1528 103.893 16.1405 103.891 16.1284C103.89 16.1162 103.886 16.1045 103.88 16.0939C103.875 16.0833 103.867 16.074 103.858 16.0665C103.849 16.059 103.838 16.0535 103.827 16.0502C103.816 16.047 103.804 16.0461 103.793 16.0476C103.781 16.0491 103.77 16.053 103.76 16.059V16.059Z" fill="#0C478B"/>
<path d="M129.844 30.9825V45.9252C129.844 45.9496 129.853 45.973 129.869 45.9902C129.886 46.0074 129.908 46.0171 129.931 46.0171C129.954 46.0171 129.976 46.0074 129.993 45.9902C130.009 45.973 130.018 45.9496 130.018 45.9252V30.9825C130.018 30.9581 130.009 30.9348 129.993 30.9175C129.976 30.9003 129.954 30.8906 129.931 30.8906C129.908 30.8906 129.886 30.9003 129.869 30.9175C129.853 30.9348 129.844 30.9581 129.844 30.9825Z" fill="#0C478B"/>
<path d="M142.948 23.5013L131.482 30.0061L129.888 30.9139C129.868 30.9261 129.853 30.9463 129.847 30.97C129.841 30.9938 129.844 31.0192 129.855 31.0407C129.867 31.0621 129.886 31.0778 129.909 31.0844C129.931 31.0909 129.955 31.0878 129.976 31.0756L141.431 24.5671L143.035 23.6593C143.052 23.646 143.064 23.6262 143.069 23.604C143.073 23.5817 143.07 23.5585 143.059 23.5389C143.048 23.5192 143.031 23.5045 143.01 23.4975C142.989 23.4906 142.967 23.492 142.948 23.5013V23.5013Z" fill="#0C478B"/>
<path d="M129.969 45.9743L141.431 39.4364L143.035 38.525C143.132 38.4699 143.035 38.3118 142.948 38.367L131.482 44.9012L129.888 45.8126C129.868 45.8248 129.853 45.845 129.847 45.8688C129.841 45.8925 129.844 45.9179 129.855 45.9394C129.867 45.9608 129.886 45.9766 129.909 45.9831C129.931 45.9897 129.955 45.9865 129.976 45.9743H129.969Z" fill="#0C478B"/>
<path d="M116.821 23.6634L128.283 30.1682L129.887 31.076C129.907 31.0887 129.931 31.0925 129.953 31.0866C129.976 31.0808 129.995 31.0657 130.007 31.0447C130.019 31.0238 130.023 30.9987 130.018 30.9749C130.012 30.9511 129.998 30.9306 129.978 30.918L118.512 24.4131L116.912 23.5017C116.814 23.4466 116.723 23.6046 116.825 23.6634H116.821Z" fill="#0C478B"/>
<path d="M116.951 38.4624V23.5821C116.951 23.5577 116.942 23.5344 116.925 23.5171C116.909 23.4999 116.887 23.4902 116.864 23.4902C116.84 23.4902 116.818 23.4999 116.802 23.5171C116.786 23.5344 116.776 23.5577 116.776 23.5821V38.4624C116.776 38.4867 116.786 38.5101 116.802 38.5273C116.818 38.5446 116.84 38.5542 116.864 38.5542C116.887 38.5542 116.909 38.5446 116.925 38.5273C116.942 38.5101 116.951 38.4867 116.951 38.4624Z" fill="#0C478B"/>
<path d="M129.974 45.8162L118.508 39.293L116.908 38.3816C116.81 38.3265 116.72 38.4845 116.821 38.5396L128.283 45.0628L129.887 45.9779C129.988 46.0331 130.075 45.875 129.977 45.8162H129.974Z" fill="#0C478B"/>
<path d="M129.886 16.2213L141.348 22.7482L142.952 23.6596C143.049 23.7147 143.137 23.5567 143.039 23.5015L131.57 16.9747L129.966 16.0633C129.868 16.0081 129.781 16.1662 129.879 16.2213H129.886Z" fill="#0C478B"/>
<path d="M129.885 16.0593L118.419 22.5862L116.819 23.4976C116.717 23.5527 116.819 23.7108 116.906 23.6557L128.368 17.1325L129.972 16.221C130.07 16.1622 129.972 16.0042 129.881 16.0593H129.885Z" fill="#0C478B"/>
<path d="M77.582 30.9825V45.9252C77.582 45.9496 77.5912 45.973 77.6076 45.9902C77.6239 46.0074 77.6461 46.0171 77.6692 46.0171C77.6923 46.0171 77.7145 46.0074 77.7309 45.9902C77.7472 45.973 77.7564 45.9496 77.7564 45.9252V30.9825C77.7564 30.9581 77.7472 30.9348 77.7309 30.9175C77.7145 30.9003 77.6923 30.8906 77.6692 30.8906C77.6461 30.8906 77.6239 30.9003 77.6076 30.9175C77.5912 30.9348 77.582 30.9581 77.582 30.9825Z" fill="#0C478B"/>
<path d="M90.6996 23.5013L79.2376 30.0061L77.6335 30.9139C77.6132 30.9261 77.5982 30.9463 77.592 30.97C77.5858 30.9938 77.5888 31.0192 77.6004 31.0407C77.6119 31.0621 77.6311 31.0778 77.6537 31.0844C77.6762 31.0909 77.7003 31.0878 77.7207 31.0756L89.1862 24.5671L90.7868 23.6593C90.8043 23.646 90.8164 23.6262 90.8208 23.604C90.8253 23.5817 90.8217 23.5585 90.8109 23.5389C90.8001 23.5192 90.7827 23.5045 90.7621 23.4975C90.7416 23.4906 90.7193 23.492 90.6996 23.5013Z" fill="#0C478B"/>
<path d="M90.8326 38.4594V23.5792C90.8326 23.5548 90.8234 23.5314 90.807 23.5142C90.7907 23.497 90.7685 23.4873 90.7454 23.4873C90.7223 23.4873 90.7001 23.497 90.6837 23.5142C90.6674 23.5314 90.6582 23.5548 90.6582 23.5792V38.4594C90.6582 38.4838 90.6674 38.5072 90.6837 38.5244C90.7001 38.5416 90.7223 38.5513 90.7454 38.5513C90.7685 38.5513 90.7907 38.5416 90.807 38.5244C90.8234 38.5072 90.8326 38.4838 90.8326 38.4594Z" fill="#0C478B"/>
<path d="M77.7207 45.9743L89.1862 39.4364L90.7868 38.525C90.8844 38.4699 90.7868 38.3118 90.6996 38.367L79.2376 44.9012L77.6335 45.8126C77.6132 45.8248 77.5982 45.845 77.592 45.8688C77.5858 45.8925 77.5888 45.9179 77.6004 45.9394C77.6119 45.9608 77.6311 45.9766 77.6537 45.9831C77.6762 45.9897 77.7003 45.9865 77.7207 45.9743Z" fill="#0C478B"/>
<path d="M64.579 23.6631L76.041 30.1679L77.6451 31.0757C77.6648 31.085 77.687 31.0864 77.7076 31.0794C77.7281 31.0725 77.7455 31.0578 77.7564 31.0381C77.7672 31.0185 77.7707 30.9952 77.7663 30.973C77.7618 30.9507 77.7497 30.931 77.7323 30.9176L66.2702 24.4128L64.6836 23.5014C64.6632 23.4892 64.6391 23.486 64.6166 23.4926C64.594 23.4991 64.5748 23.5149 64.5633 23.5363C64.5517 23.5578 64.5487 23.5832 64.5549 23.6069C64.5611 23.6307 64.5761 23.6509 64.5964 23.6631H64.579Z" fill="#0C478B"/>
<path d="M64.7076 38.4624V23.5821C64.7076 23.5577 64.6984 23.5344 64.682 23.5171C64.6657 23.4999 64.6435 23.4902 64.6204 23.4902C64.5973 23.4902 64.5751 23.4999 64.5587 23.5171C64.5424 23.5344 64.5332 23.5577 64.5332 23.5821V38.4624C64.5332 38.4867 64.5424 38.5101 64.5587 38.5273C64.5751 38.5446 64.5973 38.5542 64.6204 38.5542C64.6435 38.5542 64.6657 38.5446 64.682 38.5273C64.6984 38.5101 64.7076 38.4867 64.7076 38.4624Z" fill="#0C478B"/>
<path d="M77.7323 45.8162L66.2702 39.293L64.6836 38.3816C64.586 38.3265 64.4988 38.4845 64.5964 38.5396L76.0585 45.0628L77.6625 45.9779C77.6726 45.984 77.6837 45.9878 77.6952 45.9894C77.7067 45.9909 77.7184 45.99 77.7296 45.9867C77.7407 45.9835 77.7512 45.978 77.7603 45.9705C77.7695 45.963 77.7771 45.9536 77.7829 45.943C77.7886 45.9324 77.7923 45.9207 77.7937 45.9086C77.7951 45.8965 77.7943 45.8842 77.7912 45.8724C77.7881 45.8606 77.7829 45.8496 77.7758 45.84C77.7686 45.8303 77.7598 45.8223 77.7497 45.8162H77.7323Z" fill="#0C478B"/>
<path d="M77.6316 16.2213L89.0867 22.7482L90.6907 23.6596C90.7884 23.7147 90.8755 23.5567 90.7779 23.5015L79.3228 16.9747L77.7188 16.0633C77.6211 16.0081 77.5339 16.1662 77.6316 16.2213Z" fill="#0C478B"/>
<path d="M77.64 16.059L66.1745 22.5859L64.5739 23.4973C64.4763 23.5524 64.5739 23.7105 64.6611 23.6553L76.1232 17.1321L77.7272 16.2207C77.7476 16.2085 77.7625 16.1883 77.7687 16.1646C77.7749 16.1408 77.7719 16.1154 77.7603 16.0939C77.7488 16.0725 77.7296 16.0568 77.707 16.0502C77.6845 16.0437 77.6604 16.0468 77.64 16.059V16.059Z" fill="#0C478B"/>
<path d="M77.582 75.6358V90.5675C77.582 90.5919 77.5912 90.6153 77.6076 90.6325C77.6239 90.6497 77.6461 90.6594 77.6692 90.6594C77.6923 90.6594 77.7145 90.6497 77.7309 90.6325C77.7472 90.6153 77.7564 90.5919 77.7564 90.5675V75.6358C77.7564 75.6115 77.7472 75.5881 77.7309 75.5709C77.7145 75.5536 77.6923 75.5439 77.6692 75.5439C77.6461 75.5439 77.6239 75.5536 77.6076 75.5709C77.5912 75.5881 77.582 75.6115 77.582 75.6358Z" fill="#0C478B"/>
<path d="M90.6996 68.1421L79.2375 74.6469L77.6335 75.5584C77.5358 75.6135 77.6335 75.7715 77.7207 75.7164L89.1862 69.2042L90.7868 68.2965C90.8844 68.2414 90.7868 68.0833 90.6996 68.1385V68.1421Z" fill="#0C478B"/>
<path d="M90.8326 83.1V68.2198C90.8326 68.1954 90.8234 68.1721 90.807 68.1548C90.7907 68.1376 90.7685 68.1279 90.7454 68.1279C90.7223 68.1279 90.7001 68.1376 90.6837 68.1548C90.6674 68.1721 90.6582 68.1954 90.6582 68.2198V83.1C90.6582 83.1244 90.6674 83.1478 90.6837 83.165C90.7001 83.1822 90.7223 83.1919 90.7454 83.1919C90.7685 83.1919 90.7907 83.1822 90.807 83.165C90.8234 83.1478 90.8326 83.1244 90.8326 83.1Z" fill="#0C478B"/>
<path d="M77.7207 90.6153L89.1862 84.0921L90.7868 83.1807C90.8071 83.1685 90.822 83.1483 90.8283 83.1245C90.8345 83.1007 90.8315 83.0753 90.8199 83.0539C90.8083 83.0324 90.7892 83.0167 90.7666 83.0102C90.7441 83.0036 90.7199 83.0068 90.6996 83.019L79.2375 89.5458L77.6335 90.4573C77.5358 90.5124 77.6335 90.6704 77.7207 90.6153Z" fill="#0C478B"/>
<path d="M64.5759 68.3035L76.038 74.8083L77.642 75.7198C77.7397 75.7749 77.8269 75.6169 77.7292 75.5617L66.2672 69.0532L64.6631 68.1455C64.5655 68.0867 64.4783 68.2484 64.5759 68.3035V68.3035Z" fill="#0C478B"/>
<path d="M64.7076 83.103V68.2227C64.7076 68.1984 64.6984 68.175 64.682 68.1578C64.6657 68.1405 64.6435 68.1309 64.6204 68.1309C64.5973 68.1309 64.5751 68.1405 64.5587 68.1578C64.5424 68.175 64.5332 68.1984 64.5332 68.2227V83.103C64.5332 83.1273 64.5424 83.1507 64.5587 83.1679C64.5751 83.1852 64.5973 83.1949 64.6204 83.1949C64.6435 83.1949 64.6657 83.1852 64.682 83.1679C64.6984 83.1507 64.7076 83.1273 64.7076 83.103V83.103Z" fill="#0C478B"/>
<path d="M77.7323 90.4615L66.2702 83.9346L64.6836 83.0232C64.586 82.9681 64.4988 83.1261 64.5964 83.1812L76.0585 89.7081L77.6625 90.6195C77.7602 90.6747 77.8474 90.5166 77.7497 90.4615H77.7323Z" fill="#0C478B"/>
<path d="M77.6336 60.8654L89.0886 67.3886L90.6927 68.3C90.7903 68.3551 90.8775 68.1971 90.7799 68.142L79.3248 61.6188L77.7207 60.7074C77.7011 60.698 77.6788 60.6967 77.6583 60.7036C77.6377 60.7105 77.6203 60.7253 77.6095 60.7449C77.5986 60.7646 77.5951 60.7878 77.5995 60.81C77.604 60.8323 77.6161 60.852 77.6336 60.8654V60.8654Z" fill="#0C478B"/>
<path d="M77.64 60.7031L66.178 67.2263L64.5739 68.1377C64.4763 68.1929 64.5739 68.3509 64.6611 68.2957L76.1266 61.7725L77.7272 60.8611C77.8248 60.806 77.7272 60.6443 77.64 60.7031V60.7031Z" fill="#0C478B"/>
<path d="M103.734 75.6358V90.5675C103.734 90.5919 103.744 90.6153 103.76 90.6325C103.776 90.6497 103.798 90.6594 103.822 90.6594C103.845 90.6594 103.867 90.6497 103.883 90.6325C103.9 90.6153 103.909 90.5919 103.909 90.5675V75.6358C103.909 75.6115 103.9 75.5881 103.883 75.5709C103.867 75.5536 103.845 75.5439 103.822 75.5439C103.798 75.5439 103.776 75.5536 103.76 75.5709C103.744 75.5881 103.734 75.6115 103.734 75.6358Z" fill="#0C478B"/>
<path d="M116.828 68.1421L105.362 74.6469L103.761 75.5584C103.664 75.6135 103.761 75.7715 103.849 75.7164L115.311 69.2042L116.915 68.2965C117.012 68.2414 116.915 68.0833 116.828 68.1385V68.1421Z" fill="#0C478B"/>
<path d="M116.951 83.1V68.2198C116.951 68.1954 116.942 68.1721 116.925 68.1548C116.909 68.1376 116.887 68.1279 116.864 68.1279C116.84 68.1279 116.818 68.1376 116.802 68.1548C116.786 68.1721 116.776 68.1954 116.776 68.2198V83.1C116.776 83.1244 116.786 83.1478 116.802 83.165C116.818 83.1822 116.84 83.1919 116.864 83.1919C116.887 83.1919 116.909 83.1822 116.925 83.165C116.942 83.1478 116.951 83.1244 116.951 83.1Z" fill="#0C478B"/>
<path d="M103.849 90.6153L115.311 84.0921L116.915 83.1807C116.935 83.1685 116.95 83.1483 116.956 83.1245C116.962 83.1007 116.959 83.0753 116.948 83.0539C116.936 83.0324 116.917 83.0167 116.895 83.0102C116.872 83.0036 116.848 83.0068 116.828 83.019L105.362 89.5458L103.761 90.4573C103.664 90.5124 103.761 90.6704 103.849 90.6153V90.6153Z" fill="#0C478B"/>
<path d="M90.6976 68.3035L102.16 74.8083L103.76 75.7198C103.861 75.7749 103.949 75.6169 103.851 75.5617L92.3888 69.0532L90.7848 68.1455C90.6871 68.0867 90.5965 68.2484 90.6976 68.3035V68.3035Z" fill="#0C478B"/>
<path d="M90.8326 83.103V68.2227C90.8326 68.1984 90.8234 68.175 90.807 68.1578C90.7907 68.1405 90.7685 68.1309 90.7454 68.1309C90.7223 68.1309 90.7001 68.1405 90.6837 68.1578C90.6674 68.175 90.6582 68.1984 90.6582 68.2227V83.103C90.6582 83.1273 90.6674 83.1507 90.6837 83.1679C90.7001 83.1852 90.7223 83.1949 90.7454 83.1949C90.7685 83.1949 90.7907 83.1852 90.807 83.1679C90.8234 83.1507 90.8326 83.1273 90.8326 83.103V83.103Z" fill="#0C478B"/>
<path d="M103.854 90.4615L92.3922 83.9346L90.7881 83.0232C90.6905 82.9681 90.6033 83.1261 90.7009 83.1812L102.163 89.7081L103.764 90.6195C103.865 90.6747 103.952 90.5166 103.854 90.4615Z" fill="#0C478B"/>
<path d="M103.761 60.8654L115.224 67.3886L116.828 68.3C116.925 68.3551 117.012 68.1971 116.915 68.142L105.453 61.6188L103.849 60.7074C103.829 60.698 103.807 60.6967 103.786 60.7036C103.766 60.7105 103.748 60.7253 103.737 60.7449C103.727 60.7646 103.723 60.7878 103.727 60.81C103.732 60.8323 103.744 60.852 103.761 60.8654V60.8654Z" fill="#0C478B"/>
<path d="M103.768 60.7031L92.3063 67.2263L90.7057 68.1377C90.6081 68.1929 90.7057 68.3509 90.7929 68.2957L102.255 61.7725L103.859 60.8611C103.957 60.806 103.859 60.6443 103.768 60.7031Z" fill="#0C478B"/>
<path d="M51.4688 75.6358V90.5675C51.4688 90.5919 51.4779 90.6153 51.4943 90.6325C51.5106 90.6497 51.5328 90.6594 51.5559 90.6594C51.579 90.6594 51.6012 90.6497 51.6176 90.6325C51.6339 90.6153 51.6431 90.5919 51.6431 90.5675V75.6358C51.6431 75.6115 51.6339 75.5881 51.6176 75.5709C51.6012 75.5536 51.579 75.5439 51.5559 75.5439C51.5328 75.5439 51.5106 75.5536 51.4943 75.5709C51.4779 75.5881 51.4688 75.6115 51.4688 75.6358Z" fill="#0C478B"/>
<path d="M64.5775 68.1421L53.1155 74.6469L51.5114 75.5584C51.4138 75.6135 51.5114 75.7715 51.5986 75.7164L63.0641 69.2042L64.6647 68.2965C64.7624 68.2414 64.6647 68.0833 64.5775 68.1385V68.1421Z" fill="#0C478B"/>
<path d="M64.7076 83.1V68.2198C64.7076 68.1954 64.6984 68.1721 64.682 68.1548C64.6657 68.1376 64.6435 68.1279 64.6204 68.1279C64.5973 68.1279 64.5751 68.1376 64.5587 68.1548C64.5424 68.1721 64.5332 68.1954 64.5332 68.2198V83.1C64.5332 83.1244 64.5424 83.1478 64.5587 83.165C64.5751 83.1822 64.5973 83.1919 64.6204 83.1919C64.6435 83.1919 64.6657 83.1822 64.682 83.165C64.6984 83.1478 64.7076 83.1244 64.7076 83.1Z" fill="#0C478B"/>
<path d="M51.5964 90.6146L63.0619 84.0914L64.6764 83.169C64.6968 83.1568 64.7117 83.1366 64.7179 83.1128C64.7241 83.089 64.7211 83.0636 64.7096 83.0422C64.698 83.0207 64.6788 83.005 64.6563 82.9985C64.6337 82.9919 64.6096 82.9951 64.5893 83.0073L53.1272 89.5341L51.5231 90.4455C51.4255 90.5007 51.5231 90.6587 51.6103 90.6036L51.5964 90.6146Z" fill="#0C478B"/>
<path d="M38.4531 68.3035L49.9152 74.8083L51.5193 75.7198C51.6169 75.7749 51.7041 75.6169 51.6064 75.5617L40.1444 69.0532L38.5264 68.1455C38.4287 68.0867 38.3416 68.2484 38.4392 68.3035H38.4531Z" fill="#0C478B"/>
<path d="M38.5845 83.103V68.2227C38.5845 68.1984 38.5753 68.175 38.559 68.1578C38.5426 68.1405 38.5205 68.1309 38.4973 68.1309C38.4742 68.1309 38.452 68.1405 38.4357 68.1578C38.4193 68.175 38.4102 68.1984 38.4102 68.2227V83.103C38.4102 83.1273 38.4193 83.1507 38.4357 83.1679C38.452 83.1852 38.4742 83.1949 38.4973 83.1949C38.5205 83.1949 38.5426 83.1852 38.559 83.1679C38.5753 83.1507 38.5845 83.1273 38.5845 83.103V83.103Z" fill="#0C478B"/>
<path d="M51.6064 90.4615L40.1444 83.9346L38.5264 83.0232C38.4287 82.9681 38.3416 83.1261 38.4392 83.1812L49.9013 89.7081L51.5053 90.6195C51.603 90.6747 51.6901 90.5166 51.5925 90.4615H51.6064Z" fill="#0C478B"/>
<path d="M51.5154 60.8654L62.9775 67.3886L64.5815 68.3C64.6792 68.3551 64.7663 68.1971 64.6687 68.142L53.2066 61.6188L51.6026 60.7074C51.5829 60.698 51.5606 60.6967 51.5401 60.7036C51.5195 60.7105 51.5022 60.7253 51.4913 60.7449C51.4805 60.7646 51.4769 60.7878 51.4814 60.81C51.4858 60.8323 51.4979 60.852 51.5154 60.8654V60.8654Z" fill="#0C478B"/>
<path d="M51.5199 60.7031L40.0579 67.2263L38.4538 68.1377C38.3562 68.1929 38.4538 68.3509 38.541 68.2957L50.0065 61.7725L51.6071 60.8611C51.7047 60.806 51.6071 60.6443 51.5199 60.7031V60.7031Z" fill="#0C478B"/>
<path d="M25.3486 31.0059V45.934C25.3486 45.9583 25.3578 45.9817 25.3742 45.9989C25.3905 46.0162 25.4127 46.0258 25.4358 46.0258C25.4589 46.0258 25.4811 46.0162 25.4975 45.9989C25.5138 45.9817 25.523 45.9583 25.523 45.934V31.0059C25.523 30.9816 25.5138 30.9582 25.4975 30.941C25.4811 30.9237 25.4589 30.9141 25.4358 30.9141C25.4127 30.9141 25.3905 30.9237 25.3742 30.941C25.3578 30.9582 25.3486 30.9816 25.3486 31.0059Z" fill="#0C478B"/>
<path d="M38.4555 23.5095L26.9934 30.018L25.3893 30.9258C25.2917 30.9809 25.3893 31.1389 25.4765 31.0838L36.9421 24.579L38.5426 23.6676C38.6403 23.6124 38.5426 23.4544 38.4555 23.5095V23.5095Z" fill="#0C478B"/>
<path d="M38.5845 38.4665V23.5899C38.5845 23.5656 38.5753 23.5422 38.559 23.525C38.5426 23.5077 38.5205 23.498 38.4973 23.498C38.4742 23.498 38.452 23.5077 38.4357 23.525C38.4193 23.5422 38.4102 23.5656 38.4102 23.5899V38.4665C38.4102 38.4909 38.4193 38.5142 38.4357 38.5315C38.452 38.5487 38.4742 38.5584 38.4973 38.5584C38.5205 38.5584 38.5426 38.5487 38.559 38.5315C38.5753 38.5142 38.5845 38.4909 38.5845 38.4665Z" fill="#0C478B"/>
<path d="M25.4765 45.9813L36.9421 39.4581L38.5426 38.5467C38.6403 38.4916 38.5426 38.3299 38.4555 38.3887L26.9934 44.9119L25.3893 45.8233C25.2917 45.8784 25.3893 46.0401 25.4765 45.9813V45.9813Z" fill="#0C478B"/>
<path d="M12.3269 23.6695L23.789 30.178L25.393 31.0858C25.4907 31.1409 25.5778 30.9829 25.4802 30.9277L14.0181 24.4192L12.4141 23.5115C12.3164 23.4564 12.2293 23.6144 12.3269 23.6695V23.6695Z" fill="#0C478B"/>
<path d="M25.489 45.8275L14.0269 39.3043L12.4229 38.3929C12.4032 38.3836 12.381 38.3822 12.3604 38.3891C12.3398 38.3961 12.3225 38.4108 12.3116 38.4305C12.3008 38.4501 12.2972 38.4733 12.3017 38.4956C12.3061 38.5178 12.3183 38.5376 12.3357 38.5509L23.7978 45.0741L25.4018 45.9856C25.4995 46.0407 25.5866 45.8827 25.489 45.8275Z" fill="#0C478B"/>
<path d="M25.3913 16.233L36.8534 22.7562L38.4575 23.6676C38.5551 23.7264 38.6423 23.5647 38.5446 23.5096L27.0826 16.9864L25.4785 16.075C25.3809 16.0198 25.2937 16.1779 25.3913 16.233Z" fill="#0C478B"/>
<path d="M25.3949 16.0701L13.9294 22.5933L12.3288 23.5047C12.3085 23.5169 12.2936 23.5371 12.2873 23.5609C12.2811 23.5846 12.2841 23.61 12.2957 23.6315C12.3073 23.6529 12.3264 23.6687 12.349 23.6752C12.3716 23.6818 12.3957 23.6786 12.416 23.6664L23.8781 17.1395L25.4821 16.2281C25.5798 16.173 25.4821 16.015 25.3949 16.0701Z" fill="#0C478B"/>
<path d="M51.4688 31.0059V45.934C51.4688 45.9583 51.4779 45.9817 51.4943 45.9989C51.5106 46.0162 51.5328 46.0258 51.5559 46.0258C51.579 46.0258 51.6012 46.0162 51.6176 45.9989C51.6339 45.9817 51.6431 45.9583 51.6431 45.934V31.0059C51.6431 30.9816 51.6339 30.9582 51.6176 30.941C51.6012 30.9237 51.579 30.9141 51.5559 30.9141C51.5328 30.9141 51.5106 30.9237 51.4943 30.941C51.4779 30.9582 51.4688 30.9816 51.4688 31.0059Z" fill="#0C478B"/>
<path d="M64.5828 23.5095L53.1208 30.018L51.5202 30.9258C51.4226 30.9809 51.5202 31.1389 51.6074 31.0838L63.0694 24.579L64.6735 23.6676C64.7711 23.6124 64.6735 23.4544 64.5828 23.5095V23.5095Z" fill="#0C478B"/>
<path d="M64.7095 38.4665V23.5899C64.7095 23.5656 64.7003 23.5422 64.684 23.525C64.6676 23.5077 64.6455 23.498 64.6223 23.498C64.5992 23.498 64.577 23.5077 64.5607 23.525C64.5443 23.5422 64.5352 23.5656 64.5352 23.5899V38.4665C64.5352 38.4909 64.5443 38.5142 64.5607 38.5315C64.577 38.5487 64.5992 38.5584 64.6223 38.5584C64.6455 38.5584 64.6676 38.5487 64.684 38.5315C64.7003 38.5142 64.7095 38.4909 64.7095 38.4665Z" fill="#0C478B"/>
<path d="M51.6074 45.9813L63.0694 39.4581L64.6735 38.5467C64.7711 38.4916 64.6735 38.3299 64.5828 38.3887L53.1208 44.9119L51.5202 45.8233C51.4226 45.8784 51.5202 46.0401 51.6074 45.9813V45.9813Z" fill="#0C478B"/>
<path d="M38.4573 23.6695L49.9194 30.178L51.52 31.0858C51.6211 31.1409 51.7083 30.9829 51.6106 30.9277L40.1451 24.4192L38.5445 23.5115C38.4469 23.4564 38.3562 23.6144 38.4573 23.6695Z" fill="#0C478B"/>
<path d="M38.5845 38.4694V23.5929C38.5845 23.5685 38.5753 23.5451 38.559 23.5279C38.5426 23.5107 38.5205 23.501 38.4973 23.501C38.4742 23.501 38.452 23.5107 38.4357 23.5279C38.4193 23.5451 38.4102 23.5685 38.4102 23.5929V38.4694C38.4102 38.4938 38.4193 38.5172 38.4357 38.5344C38.452 38.5516 38.4742 38.5613 38.4973 38.5613C38.5205 38.5613 38.5426 38.5516 38.559 38.5344C38.5753 38.5172 38.5845 38.4938 38.5845 38.4694Z" fill="#0C478B"/>
<path d="M51.6091 45.8275L40.1436 39.3043L38.543 38.3929C38.5233 38.3836 38.5011 38.3822 38.4805 38.3891C38.46 38.3961 38.4426 38.4108 38.4317 38.4305C38.4209 38.4501 38.4173 38.4733 38.4218 38.4956C38.4262 38.5178 38.4384 38.5376 38.4558 38.5509L49.9179 45.0741L51.5185 45.9856C51.6196 46.0407 51.7068 45.8827 51.6091 45.8275Z" fill="#0C478B"/>
<path d="M51.5134 16.233L62.9755 22.7562L64.5761 23.6676C64.6772 23.7264 64.7644 23.5647 64.6667 23.5096L53.2047 16.9864L51.6006 16.075C51.503 16.0198 51.4158 16.1779 51.5134 16.233Z" fill="#0C478B"/>
<path d="M51.518 16.0701L40.0559 22.5933L38.4553 23.5047C38.3542 23.5635 38.4553 23.7215 38.5425 23.6664L50.0046 17.1395L51.6086 16.2281C51.7063 16.173 51.6086 16.015 51.518 16.0701V16.0701Z" fill="#0C478B"/>
<path d="M38.4102 8.67977V23.6115C38.4102 23.6358 38.4193 23.6592 38.4357 23.6764C38.452 23.6937 38.4742 23.7033 38.4973 23.7033C38.5205 23.7033 38.5426 23.6937 38.559 23.6764C38.5753 23.6592 38.5845 23.6358 38.5845 23.6115V8.67977C38.5845 8.6554 38.5753 8.63203 38.559 8.6148C38.5426 8.59757 38.5205 8.58789 38.4973 8.58789C38.4742 8.58789 38.452 8.59757 38.4357 8.6148C38.4193 8.63203 38.4102 8.6554 38.4102 8.67977Z" fill="#0C478B"/>
<path d="M51.6431 16.144V1.26375C51.6431 1.23938 51.6339 1.21602 51.6176 1.19879C51.6012 1.18156 51.579 1.17188 51.5559 1.17188C51.5328 1.17188 51.5106 1.18156 51.4943 1.19879C51.4779 1.21602 51.4688 1.23938 51.4688 1.26375V16.144C51.4688 16.1684 51.4779 16.1917 51.4943 16.209C51.5106 16.2262 51.5328 16.2359 51.5559 16.2359C51.579 16.2359 51.6012 16.2262 51.6176 16.209C51.6339 16.1917 51.6431 16.1684 51.6431 16.144Z" fill="#0C478B"/>
<path d="M38.5276 23.6596L50.0001 17.1364L51.6042 16.2213C51.7018 16.1662 51.6042 16.0081 51.5135 16.0633L40.0514 22.5865L38.4509 23.5015C38.3532 23.5567 38.4509 23.7147 38.538 23.6596H38.5276Z" fill="#0C478B"/>
<path d="M25.5201 16.1469V1.26668C25.5201 1.24231 25.5109 1.21894 25.4945 1.20171C25.4782 1.18448 25.456 1.1748 25.4329 1.1748C25.4098 1.1748 25.3876 1.18448 25.3712 1.20171C25.3549 1.21894 25.3457 1.24231 25.3457 1.26668V16.1469C25.3457 16.1713 25.3549 16.1947 25.3712 16.2119C25.3876 16.2291 25.4098 16.2388 25.4329 16.2388C25.456 16.2388 25.4782 16.2291 25.4945 16.2119C25.5109 16.1947 25.5201 16.1713 25.5201 16.1469Z" fill="#0C478B"/>
<path d="M38.5433 23.5018L27.0777 16.9786L25.4771 16.0672C25.3795 16.012 25.2888 16.1701 25.39 16.2252L36.852 22.7521L38.4526 23.6635C38.5537 23.7186 38.6409 23.5606 38.5433 23.5018V23.5018Z" fill="#0C478B"/>
<path d="M64.5283 8.67977V23.6115C64.5283 23.6358 64.5375 23.6592 64.5538 23.6764C64.5702 23.6937 64.5924 23.7033 64.6155 23.7033C64.6386 23.7033 64.6608 23.6937 64.6771 23.6764C64.6935 23.6592 64.7027 23.6358 64.7027 23.6115V8.67977C64.7027 8.6554 64.6935 8.63203 64.6771 8.6148C64.6608 8.59757 64.6386 8.58789 64.6155 8.58789C64.5924 8.58789 64.5702 8.59757 64.5538 8.6148C64.5375 8.63203 64.5283 8.6554 64.5283 8.67977Z" fill="#0C478B"/>
<path d="M77.772 16.144V1.26375C77.772 1.23938 77.7628 1.21602 77.7465 1.19879C77.7301 1.18156 77.708 1.17188 77.6848 1.17188C77.6617 1.17188 77.6395 1.18156 77.6232 1.19879C77.6068 1.21602 77.5977 1.23938 77.5977 1.26375V16.144C77.5977 16.1684 77.6068 16.1917 77.6232 16.209C77.6395 16.2262 77.6617 16.2359 77.6848 16.2359C77.708 16.2359 77.7301 16.2262 77.7465 16.209C77.7628 16.1917 77.772 16.1684 77.772 16.144Z" fill="#0C478B"/>
<path d="M64.6801 23.6596L76.1421 17.1364L77.7427 16.2213C77.8438 16.1662 77.7427 16.0081 77.6555 16.0633L66.176 22.5865L64.5754 23.5015C64.4743 23.5567 64.5754 23.7147 64.6626 23.6596H64.6801Z" fill="#0C478B"/>
<path d="M51.6431 16.1469V1.26668C51.6431 1.24231 51.6339 1.21894 51.6176 1.20171C51.6012 1.18448 51.579 1.1748 51.5559 1.1748C51.5328 1.1748 51.5106 1.18448 51.4943 1.20171C51.4779 1.21894 51.4688 1.24231 51.4688 1.26668V16.1469C51.4688 16.1713 51.4779 16.1947 51.4943 16.2119C51.5106 16.2291 51.5328 16.2388 51.5559 16.2388C51.579 16.2388 51.6012 16.2291 51.6176 16.2119C51.6339 16.1947 51.6431 16.1713 51.6431 16.1469Z" fill="#0C478B"/>
<path d="M64.6775 23.5018L53.2015 16.9786L51.6009 16.0672C51.4998 16.012 51.4126 16.1701 51.5137 16.2252L62.9758 22.7521L64.5763 23.6635C64.674 23.7186 64.7646 23.5606 64.6635 23.5018H64.6775Z" fill="#0C478B"/>
<path d="M25.523 16.144V1.26375C25.523 1.23938 25.5138 1.21602 25.4975 1.19879C25.4811 1.18156 25.4589 1.17188 25.4358 1.17188C25.4127 1.17188 25.3905 1.18156 25.3742 1.19879C25.3578 1.21602 25.3486 1.23938 25.3486 1.26375V16.144C25.3486 16.1684 25.3578 16.1917 25.3742 16.209C25.3905 16.2262 25.4127 16.2359 25.4358 16.2359C25.4589 16.2359 25.4811 16.2262 25.4975 16.209C25.5138 16.1917 25.523 16.1684 25.523 16.144Z" fill="#0C478B"/>
<path d="M12.4121 23.6596L23.8776 17.1364L25.4817 16.2213C25.5793 16.1662 25.4817 16.0081 25.391 16.0633L13.9255 22.5865L12.3249 23.5015C12.2273 23.5567 12.3249 23.7147 12.4121 23.6596Z" fill="#0C478B"/>
<path d="M25.391 45.8279L13.9255 52.3327L12.3249 53.2441C12.2273 53.2993 12.3249 53.4573 12.4121 53.4022L23.8776 46.8973L25.4817 45.9859C25.5793 45.9308 25.4817 45.7728 25.3945 45.8279H25.391Z" fill="#0C478B"/>
<path d="M25.523 60.7849V45.9083C25.523 45.8839 25.5138 45.8605 25.4975 45.8433C25.4811 45.8261 25.4589 45.8164 25.4358 45.8164C25.4127 45.8164 25.3905 45.8261 25.3742 45.8433C25.3578 45.8605 25.3486 45.8839 25.3486 45.9083V60.7849C25.3486 60.8092 25.3578 60.8326 25.3742 60.8498C25.3905 60.867 25.4127 60.8767 25.4358 60.8767C25.4589 60.8767 25.4811 60.867 25.4975 60.8498C25.5138 60.8326 25.523 60.8092 25.523 60.7849Z" fill="#0C478B"/>
<path d="M12.4121 68.3L23.8776 61.7768L25.4817 60.8654C25.4991 60.852 25.5113 60.8323 25.5157 60.81C25.5202 60.7878 25.5166 60.7646 25.5058 60.7449C25.4949 60.7253 25.4775 60.7105 25.457 60.7036C25.4364 60.6967 25.4142 60.698 25.3945 60.7074L13.9255 67.2306L12.3249 68.142C12.2273 68.1971 12.3249 68.3551 12.4121 68.3Z" fill="#0C478B"/>
<path d="M12.3269 38.5509L23.789 45.0741L25.393 45.9856C25.4907 46.0407 25.5779 45.8827 25.4802 45.8275L14.0182 39.3043L12.4141 38.3929C12.3944 38.3836 12.3722 38.3822 12.3516 38.3891C12.3311 38.3961 12.3137 38.4108 12.3028 38.4305C12.292 38.4501 12.2884 38.4733 12.2929 38.4956C12.2973 38.5178 12.3095 38.5376 12.3269 38.5509V38.5509Z" fill="#0C478B"/>
<path d="M38.4102 53.3204V68.2521C38.4102 68.2765 38.4193 68.2998 38.4357 68.3171C38.452 68.3343 38.4742 68.344 38.4973 68.344C38.5205 68.344 38.5426 68.3343 38.559 68.3171C38.5753 68.2998 38.5845 68.2765 38.5845 68.2521V53.3204C38.5845 53.296 38.5753 53.2727 38.559 53.2554C38.5426 53.2382 38.5205 53.2285 38.4973 53.2285C38.4742 53.2285 38.452 53.2382 38.4357 53.2554C38.4193 53.2727 38.4102 53.296 38.4102 53.3204Z" fill="#0C478B"/>
<path d="M51.515 45.8279L40.053 52.3327L38.4524 53.2441C38.3513 53.2993 38.4524 53.4573 38.5396 53.4022L50.0016 46.8973L51.6057 45.9859C51.7033 45.9308 51.6057 45.7728 51.515 45.8279V45.8279Z" fill="#0C478B"/>
<path d="M51.6538 60.7849V45.9083C51.6538 45.8839 51.6447 45.8605 51.6283 45.8433C51.612 45.8261 51.5898 45.8164 51.5667 45.8164C51.5435 45.8164 51.5214 45.8261 51.505 45.8433C51.4887 45.8605 51.4795 45.8839 51.4795 45.9083V60.7849C51.4795 60.8092 51.4887 60.8326 51.505 60.8498C51.5214 60.867 51.5435 60.8767 51.5667 60.8767C51.5898 60.8767 51.612 60.867 51.6283 60.8498C51.6447 60.8326 51.6538 60.8092 51.6538 60.7849Z" fill="#0C478B"/>
<path d="M38.5256 68.3003L49.9877 61.7771L51.5918 60.8657C51.6016 60.8594 51.6102 60.8512 51.617 60.8414C51.6238 60.8316 51.6287 60.8205 51.6315 60.8088C51.6342 60.797 51.6348 60.7848 51.633 60.7728C51.6313 60.7608 51.6273 60.7493 51.6214 60.7389C51.6154 60.7285 51.6076 60.7195 51.5983 60.7123C51.5891 60.7051 51.5785 60.6999 51.5674 60.697C51.5562 60.6941 51.5446 60.6936 51.5332 60.6954C51.5219 60.6972 51.5109 60.7014 51.5011 60.7077L40.053 67.2309L38.4524 68.1423C38.3513 68.1974 38.4524 68.3554 38.5396 68.3003H38.5256Z" fill="#0C478B"/>
<path d="M25.3936 45.9889L36.8557 52.4937L38.4562 53.4014C38.5574 53.4565 38.6445 53.2985 38.5434 53.2434L27.0813 46.7386L25.4808 45.8308C25.3796 45.7757 25.2925 45.9337 25.3936 45.9889V45.9889Z" fill="#0C478B"/>
<path d="M25.523 60.7885V45.9083C25.523 45.8839 25.5138 45.8605 25.4975 45.8433C25.4811 45.8261 25.4589 45.8164 25.4358 45.8164C25.4127 45.8164 25.3905 45.8261 25.3742 45.8433C25.3578 45.8605 25.3486 45.8839 25.3486 45.9083V60.7885C25.3486 60.8129 25.3578 60.8363 25.3742 60.8535C25.3905 60.8707 25.4127 60.8804 25.4358 60.8804C25.4589 60.8804 25.4811 60.8707 25.4975 60.8535C25.5138 60.8363 25.523 60.8129 25.523 60.7885Z" fill="#0C478B"/>
<path d="M38.5431 68.1457L27.081 61.6189L25.4805 60.7075C25.4601 60.6953 25.436 60.6921 25.4134 60.6986C25.3909 60.7052 25.3717 60.7209 25.3602 60.7424C25.3486 60.7638 25.3456 60.7892 25.3518 60.813C25.358 60.8368 25.3729 60.857 25.3933 60.8692L36.8553 67.3924L38.4559 68.3038C38.5535 68.3589 38.6442 68.2009 38.5431 68.1457V68.1457Z" fill="#0C478B"/>
<path d="M38.4512 38.5509L49.9133 45.0741L51.5138 45.9856C51.615 46.0407 51.7022 45.8827 51.6045 45.8275L40.139 39.3043L38.5244 38.3929C38.5048 38.3836 38.4825 38.3822 38.462 38.3891C38.4414 38.3961 38.424 38.4108 38.4132 38.4305C38.4023 38.4501 38.3988 38.4733 38.4032 38.4956C38.4077 38.5178 38.4198 38.5376 38.4373 38.5509H38.4512Z" fill="#0C478B"/>
<path d="M38.4584 38.3887L26.9963 44.9119L25.3958 45.8233C25.2946 45.8784 25.3958 46.0401 25.4829 45.9813L36.945 39.4581L38.5456 38.5467C38.6467 38.4916 38.5456 38.3299 38.4584 38.3887V38.3887Z" fill="#0C478B"/>
<path d="M25.3949 90.4636L13.9329 96.9721L12.3323 97.8689C12.2312 97.924 12.3323 98.082 12.4195 98.0269L23.8815 91.5331L25.4821 90.6217C25.5832 90.5665 25.4821 90.4085 25.3949 90.4636Z" fill="#0C478B"/>
<path d="M25.5279 105.423V90.546C25.5279 90.5216 25.5187 90.4982 25.5023 90.481C25.486 90.4638 25.4638 90.4541 25.4407 90.4541C25.4176 90.4541 25.3954 90.4638 25.379 90.481C25.3627 90.4982 25.3535 90.5216 25.3535 90.546V105.423C25.3535 105.447 25.3627 105.47 25.379 105.488C25.3954 105.505 25.4176 105.514 25.4407 105.514C25.4638 105.514 25.486 105.505 25.5023 105.488C25.5187 105.47 25.5279 105.447 25.5279 105.423V105.423Z" fill="#0C478B"/>
<path d="M12.4195 112.937L23.8815 106.414L25.4821 105.503C25.5832 105.448 25.4821 105.286 25.3949 105.345L13.9329 111.868L12.3323 112.779C12.2312 112.834 12.3323 112.992 12.4195 112.937Z" fill="#0C478B"/>
<path d="M12.3284 83.1873L23.7905 89.7105L25.3911 90.6219C25.4922 90.6807 25.5794 90.519 25.4782 90.4639L14.0162 83.9407L12.4156 83.0293C12.318 82.9705 12.2273 83.1322 12.3284 83.1873Z" fill="#0C478B"/>
<path d="M25.3457 75.6358V90.5675C25.3457 90.5919 25.3549 90.6153 25.3712 90.6325C25.3876 90.6497 25.4098 90.6594 25.4329 90.6594C25.456 90.6594 25.4782 90.6497 25.4945 90.6325C25.5109 90.6153 25.5201 90.5919 25.5201 90.5675V75.6358C25.5201 75.6115 25.5109 75.5881 25.4945 75.5709C25.4782 75.5536 25.456 75.5439 25.4329 75.5439C25.4098 75.5439 25.3876 75.5536 25.3712 75.5709C25.3549 75.5881 25.3457 75.6115 25.3457 75.6358Z" fill="#0C478B"/>
<path d="M38.4524 68.1429L26.9904 74.6477L25.3863 75.5555C25.2887 75.6143 25.3863 75.7723 25.477 75.7172L36.939 69.205L38.5257 68.3009C38.5431 68.2876 38.5553 68.2678 38.5597 68.2456C38.5642 68.2233 38.5606 68.2001 38.5498 68.1805C38.5389 68.1608 38.5215 68.1461 38.501 68.1391C38.4804 68.1322 38.4582 68.1336 38.4385 68.1429H38.4524Z" fill="#0C478B"/>
<path d="M38.5845 83.1V68.2198C38.5845 68.1954 38.5753 68.1721 38.559 68.1548C38.5426 68.1376 38.5205 68.1279 38.4973 68.1279C38.4742 68.1279 38.452 68.1376 38.4357 68.1548C38.4193 68.1721 38.4102 68.1954 38.4102 68.2198V83.1C38.4102 83.1244 38.4193 83.1478 38.4357 83.165C38.452 83.1822 38.4742 83.1919 38.4973 83.1919C38.5205 83.1919 38.5426 83.1822 38.559 83.165C38.5753 83.1478 38.5845 83.1244 38.5845 83.1Z" fill="#0C478B"/>
<path d="M25.477 90.6142L36.939 84.0873L38.5257 83.1685C38.6268 83.1134 38.5257 82.9554 38.4385 83.0105L26.9904 89.5411L25.3863 90.4525C25.2887 90.5113 25.3863 90.6693 25.477 90.6142Z" fill="#0C478B"/>
<path d="M12.3268 68.304L23.7889 74.8089L25.3929 75.7166C25.4126 75.726 25.4348 75.7273 25.4554 75.7204C25.476 75.7135 25.4933 75.6987 25.5042 75.6791C25.515 75.6594 25.5186 75.6362 25.5141 75.6139C25.5097 75.5917 25.4975 75.572 25.4801 75.5586L14.018 69.0538L12.4175 68.1423C12.3163 68.0872 12.2292 68.2452 12.3268 68.304Z" fill="#0C478B"/>
<path d="M25.4801 90.4578L14.018 83.9346L12.4175 83.0232C12.3163 82.9681 12.2292 83.1261 12.3268 83.1812L23.7889 89.7044L25.3929 90.6158C25.4126 90.6252 25.4348 90.6266 25.4554 90.6196C25.476 90.6127 25.4933 90.598 25.5042 90.5783C25.515 90.5586 25.5186 90.5354 25.5141 90.5132C25.5097 90.4909 25.4975 90.4712 25.4801 90.4578V90.4578Z" fill="#0C478B"/>
<path d="M25.3834 60.8619L36.849 67.3888L38.4496 68.3002C38.5472 68.3553 38.6379 68.1973 38.5367 68.1422L27.0747 61.6153L25.4741 60.7039C25.373 60.6488 25.2858 60.8068 25.3834 60.8619Z" fill="#0C478B"/>
<path d="M25.3909 60.7006L13.9289 67.2275L12.3248 68.1389C12.2272 68.194 12.3248 68.3521 12.4155 68.2969L23.8775 61.7737L25.4781 60.8623C25.4882 60.8563 25.497 60.8482 25.5041 60.8386C25.5113 60.8289 25.5165 60.8179 25.5196 60.8062C25.5227 60.7944 25.5235 60.7821 25.5221 60.77C25.5206 60.7578 25.5169 60.7461 25.5112 60.7355C25.5055 60.7249 25.4978 60.7156 25.4887 60.7081C25.4796 60.7006 25.4691 60.6951 25.4579 60.6918C25.4468 60.6886 25.4351 60.6877 25.4236 60.6892C25.4121 60.6907 25.401 60.6946 25.3909 60.7006V60.7006Z" fill="#0C478B"/>
<path d="M116.776 8.67977V23.6115C116.776 23.6358 116.786 23.6592 116.802 23.6764C116.818 23.6937 116.84 23.7033 116.864 23.7033C116.887 23.7033 116.909 23.6937 116.925 23.6764C116.942 23.6592 116.951 23.6358 116.951 23.6115V8.67977C116.951 8.6554 116.942 8.63203 116.925 8.6148C116.909 8.59757 116.887 8.58789 116.864 8.58789C116.84 8.58789 116.818 8.59757 116.802 8.6148C116.786 8.63203 116.776 8.6554 116.776 8.67977Z" fill="#0C478B"/>
<path d="M130.018 16.144V1.26375C130.018 1.23938 130.009 1.21602 129.993 1.19879C129.976 1.18156 129.954 1.17188 129.931 1.17188C129.908 1.17188 129.886 1.18156 129.869 1.19879C129.853 1.21602 129.844 1.23938 129.844 1.26375V16.144C129.844 16.1684 129.853 16.1917 129.869 16.209C129.886 16.2262 129.908 16.2359 129.931 16.2359C129.954 16.2359 129.976 16.2262 129.993 16.209C130.009 16.1917 130.018 16.1684 130.018 16.144Z" fill="#0C478B"/>
<path d="M116.909 23.6559L128.375 17.1327L129.975 16.2213C130.073 16.1662 129.975 16.0081 129.888 16.0633L118.423 22.5865L116.822 23.4979C116.805 23.5112 116.792 23.531 116.788 23.5532C116.784 23.5755 116.787 23.5987 116.798 23.6183C116.809 23.638 116.826 23.6527 116.847 23.6597C116.867 23.6666 116.89 23.6653 116.909 23.6559V23.6559Z" fill="#0C478B"/>
<path d="M103.895 16.1433V1.26668C103.895 1.24231 103.886 1.21894 103.87 1.20171C103.853 1.18448 103.831 1.1748 103.808 1.1748C103.785 1.1748 103.763 1.18448 103.746 1.20171C103.73 1.21894 103.721 1.24231 103.721 1.26668V16.1433C103.721 16.1676 103.73 16.191 103.746 16.2082C103.763 16.2254 103.785 16.2351 103.808 16.2351C103.831 16.2351 103.853 16.2254 103.87 16.2082C103.886 16.191 103.895 16.1676 103.895 16.1433Z" fill="#0C478B"/>
<path d="M116.917 23.5018L105.455 16.9786L103.851 16.0672C103.753 16.012 103.666 16.1701 103.763 16.2252L115.243 22.7484L116.847 23.6598C116.945 23.7186 117.032 23.5569 116.934 23.5018H116.917Z" fill="#0C478B"/>
<path d="M130.018 16.1433V1.26668C130.018 1.24231 130.009 1.21894 129.993 1.20171C129.976 1.18448 129.954 1.1748 129.931 1.1748C129.908 1.1748 129.886 1.18448 129.869 1.20171C129.853 1.21894 129.844 1.24231 129.844 1.26668V16.1433C129.844 16.1676 129.853 16.191 129.869 16.2082C129.886 16.2254 129.908 16.2351 129.931 16.2351C129.954 16.2351 129.976 16.2254 129.993 16.2082C130.009 16.191 130.018 16.1676 130.018 16.1433Z" fill="#0C478B"/>
<path d="M143.041 23.5018L131.576 16.9786L129.975 16.0672C129.878 16.012 129.787 16.1701 129.888 16.2252L141.35 22.7484L142.951 23.6598C143.052 23.7186 143.139 23.5569 143.041 23.5018V23.5018Z" fill="#0C478B"/>
<path d="M90.6582 8.67977V23.6115C90.6582 23.6358 90.6674 23.6592 90.6837 23.6764C90.7001 23.6937 90.7223 23.7033 90.7454 23.7033C90.7685 23.7033 90.7907 23.6937 90.807 23.6764C90.8234 23.6592 90.8326 23.6358 90.8326 23.6115V8.67977C90.8326 8.6554 90.8234 8.63203 90.807 8.6148C90.7907 8.59757 90.7685 8.58789 90.7454 8.58789C90.7223 8.58789 90.7001 8.59757 90.6837 8.6148C90.6674 8.63203 90.6582 8.6554 90.6582 8.67977Z" fill="#0C478B"/>
<path d="M103.895 16.144V1.26375C103.895 1.23938 103.886 1.21602 103.87 1.19879C103.853 1.18156 103.831 1.17188 103.808 1.17188C103.785 1.17188 103.763 1.18156 103.746 1.19879C103.73 1.21602 103.721 1.23938 103.721 1.26375V16.144C103.721 16.1684 103.73 16.1917 103.746 16.209C103.763 16.2262 103.785 16.2359 103.808 16.2359C103.831 16.2359 103.853 16.2262 103.87 16.209C103.886 16.1917 103.895 16.1684 103.895 16.144Z" fill="#0C478B"/>
<path d="M90.7881 23.6559L102.25 17.1327L103.854 16.2213C103.952 16.1662 103.854 16.0081 103.767 16.0633L92.3015 22.5865L90.7009 23.4979C90.6835 23.5112 90.6714 23.531 90.6669 23.5532C90.6625 23.5755 90.666 23.5987 90.6769 23.6183C90.6877 23.638 90.7051 23.6527 90.7256 23.6597C90.7462 23.6666 90.7685 23.6653 90.7881 23.6559Z" fill="#0C478B"/>
<path d="M77.772 16.1433V1.26668C77.772 1.24231 77.7628 1.21894 77.7465 1.20171C77.7301 1.18448 77.708 1.1748 77.6848 1.1748C77.6617 1.1748 77.6395 1.18448 77.6232 1.20171C77.6068 1.21894 77.5977 1.24231 77.5977 1.26668V16.1433C77.5977 16.1676 77.6068 16.191 77.6232 16.2082C77.6395 16.2254 77.6617 16.2351 77.6848 16.2351C77.708 16.2351 77.7301 16.2254 77.7465 16.2082C77.7628 16.191 77.772 16.1676 77.772 16.1433Z" fill="#0C478B"/>
<path d="M90.7919 23.5018L79.3228 16.9786L77.7188 16.0672C77.6211 16.012 77.5339 16.1701 77.6316 16.2252L89.0867 22.7484L90.6907 23.6598C90.7884 23.7186 90.8755 23.5569 90.7779 23.5018H90.7919Z" fill="#0C478B"/>
</g>
</svg>
