<svg width="71" height="71" viewBox="0 0 71 71" fill="none" xmlns="http://www.w3.org/2000/svg">
<path d="M36.7393 44.3027H33.5049L28.1729 36.5215L26.4854 37.8926V44.3027H23.6729V27.1699H26.4854V35.3613C26.8291 34.9395 27.1768 34.5176 27.5283 34.0957C27.8799 33.6738 28.2314 33.252 28.583 32.8301L33.4111 27.1699H36.5869L30.1885 34.6699L36.7393 44.3027ZM49.8174 44.3027H37.501V42.3691L46.2197 29.5605H37.7705V27.1699H49.583V29.0918L40.8643 41.9121H49.8174V44.3027Z" fill="white"/>
<path fill-rule="evenodd" clip-rule="evenodd" d="M66.001 34.8027C66.001 51.6474 52.3457 65.3027 35.501 65.3027C18.6563 65.3027 5.00098 51.6474 5.00098 34.8027C5.00098 17.958 18.6563 4.30273 35.501 4.30273C40.3277 4.30273 44.8926 5.42394 48.9494 7.42012C49.3102 6.82918 49.7628 6.30034 50.2872 5.85339C45.8517 3.58335 40.8259 2.30273 35.501 2.30273C17.5517 2.30273 3.00098 16.8535 3.00098 34.8027C3.00098 52.752 17.5517 67.3027 35.501 67.3027C53.4502 67.3027 68.001 52.752 68.001 34.8027C68.001 26.7839 65.0968 19.4433 60.2829 13.7754C59.9652 14.392 59.5518 14.9513 59.0623 15.4335C63.3977 20.7011 66.001 27.4479 66.001 34.8027Z" fill="white"/>
<path fill-rule="evenodd" clip-rule="evenodd" d="M24.009 14.4744C35.3281 8.09058 49.7029 12.0026 56.2142 23.2835C62.7658 34.6342 58.8754 49.1468 47.5247 55.6983C36.1741 62.2499 21.6615 58.3595 15.1099 47.0089C13.1825 43.6696 12.1589 40.0567 11.963 36.4534C11.266 36.2449 10.5864 35.9774 9.9323 35.6529C10.0114 39.8599 11.1255 44.1066 13.3778 48.0087C20.4815 60.3159 36.2173 64.5342 48.5245 57.4305C60.8318 50.3268 65.0501 34.591 57.9464 22.2837C50.8426 9.97644 35.1069 5.75814 22.7996 12.8619C22.6109 12.9708 22.424 13.0818 22.2391 13.1948C22.8604 13.5674 23.453 13.9947 24.009 14.4744Z" fill="white"/>
</svg>
