<svg width="242" height="27" viewBox="0 0 242 27" fill="none" xmlns="http://www.w3.org/2000/svg">
<path d="M16.973 4.2525C17.8319 4.2525 18.416 4.42897 18.7639 4.77761C18.9552 4.99398 19.1003 5.24722 19.1904 5.52181C19.2805 5.79641 19.3137 6.08655 19.2879 6.37445V21.1592C19.2879 21.5251 19.0946 21.7102 18.7124 21.7102H16.0024C15.9283 21.7195 15.8531 21.7116 15.7826 21.6871C15.7121 21.6626 15.6482 21.6221 15.5959 21.5688C15.5435 21.5155 15.5041 21.4508 15.4808 21.3798C15.4574 21.3088 15.4508 21.2333 15.4612 21.1592V8.31563C15.4612 7.98421 15.2895 7.82065 14.9416 7.82065H4.35505C4.00718 7.82065 3.83109 7.98421 3.83109 8.31563V21.1592C3.84173 21.2337 3.835 21.3096 3.81141 21.381C3.78783 21.4524 3.74805 21.5174 3.69519 21.5708C3.64233 21.6241 3.57784 21.6645 3.50678 21.6887C3.43572 21.7129 3.36003 21.7203 3.28566 21.7102H0.571384C0.189152 21.7102 0.000183727 21.5208 0.000183727 21.1592V6.37445C-0.0256109 6.08655 0.00755895 5.79641 0.0976584 5.52181C0.187758 5.24722 0.332887 4.99398 0.524142 4.77761C0.872016 4.42897 1.46898 4.2525 2.31505 4.2525H16.973ZM36.6859 4.2525C38.5927 4.2525 39.9613 4.68292 40.7916 5.54375C41.6248 6.40458 42.0371 7.69583 42.0371 9.38736V11.2338C42.0371 12.9297 41.6076 14.2123 40.7916 15.0775C39.9756 15.9426 38.5927 16.3687 36.6859 16.3687H26.3785V21.1592C26.3891 21.2337 26.3824 21.3096 26.3588 21.381C26.3352 21.4524 26.2954 21.5174 26.2426 21.5708C26.1897 21.6241 26.1252 21.6645 26.0542 21.6887C25.9831 21.7129 25.9074 21.7203 25.833 21.7102H23.1488C22.7666 21.7102 22.5776 21.5251 22.5776 21.1592V5.00142C22.5633 4.89973 22.5728 4.79608 22.6053 4.69868C22.6378 4.60127 22.6924 4.51277 22.7649 4.44014C22.8373 4.36752 22.9256 4.31277 23.0228 4.2802C23.12 4.24764 23.2234 4.23815 23.3249 4.2525H36.6859ZM26.3785 13.0803H35.9128C36.7718 13.0803 37.3601 12.8996 37.708 12.5337C38.0887 12.063 38.2734 11.4632 38.2234 10.8594V9.89956C38.2719 9.29651 38.0857 8.69802 37.7037 8.22954C37.3558 7.86369 36.7589 7.68292 35.9085 7.68292H26.7092C26.4901 7.68292 26.3828 7.78191 26.3828 7.9799L26.3785 13.0803Z" fill="white"/>
<path d="M96.5201 4.2525C96.5938 4.2433 96.6685 4.25114 96.7386 4.27543C96.8088 4.29971 96.8724 4.33979 96.9247 4.39258C96.9769 4.44537 97.0164 4.50947 97.0401 4.57995C97.0638 4.65043 97.071 4.72541 97.0613 4.79913V7.24389C97.073 7.32045 97.0669 7.39869 97.0436 7.47253C97.0202 7.54637 96.9802 7.61381 96.9266 7.66961C96.873 7.72542 96.8073 7.76807 96.7345 7.79427C96.6618 7.82047 96.584 7.82949 96.5072 7.82065H85.4655C84.922 7.80818 84.3793 7.86605 83.8506 7.99282C83.471 8.07234 83.1238 8.26427 82.8543 8.54375C82.5875 8.83079 82.3996 9.18226 82.3088 9.56384C82.1971 10.106 82.1452 10.6588 82.1542 11.2123V14.7503C82.1463 15.3124 82.1981 15.8736 82.3088 16.4247C82.4037 16.8123 82.5908 17.1712 82.8543 17.4706C83.1332 17.7366 83.4767 17.925 83.8506 18.0172C84.3814 18.1292 84.9232 18.1797 85.4655 18.1679H96.5373C96.6098 18.1622 96.6827 18.1727 96.7506 18.1988C96.8185 18.2248 96.8798 18.2657 96.93 18.3185C96.9801 18.3713 97.0179 18.4346 97.0407 18.5038C97.0634 18.573 97.0704 18.6465 97.0613 18.7188V21.1592C97.0713 21.2343 97.0638 21.3108 97.0395 21.3825C97.0151 21.4542 96.9745 21.5193 96.9208 21.5727C96.8672 21.626 96.8019 21.6662 96.7301 21.6901C96.6584 21.7139 96.5821 21.7208 96.5072 21.7102H85.3023C84.221 21.7307 83.1416 21.6136 82.0898 21.3615C81.2933 21.1682 80.5561 20.7825 79.9424 20.2382C79.37 19.6701 78.9492 18.9671 78.7184 18.1937C78.45 17.1935 78.3242 16.1603 78.3448 15.1248V10.8207C78.3226 9.79357 78.4485 8.76866 78.7184 7.77761C78.9462 7.0091 79.3678 6.31238 79.9424 5.75465C80.5513 5.19883 81.2896 4.80515 82.0898 4.60975C83.1387 4.33943 84.2194 4.21345 85.3023 4.23529L96.5201 4.2525ZM102.962 4.2525C103.037 4.2411 103.113 4.24729 103.185 4.27059C103.257 4.29389 103.322 4.33365 103.376 4.38672C103.43 4.43979 103.47 4.5047 103.495 4.57629C103.519 4.64788 103.526 4.72418 103.516 4.79913V17.8192C103.516 17.9871 103.581 18.0689 103.714 18.0689H103.937C104.006 18.0752 104.076 18.0621 104.138 18.0309C104.201 17.9997 104.253 17.9517 104.289 17.8924L111.663 5.6987C111.8 5.44451 111.958 5.20258 112.136 4.9756C112.291 4.80164 112.476 4.65601 112.681 4.54519C112.916 4.42499 113.171 4.34912 113.433 4.32137C113.803 4.26827 114.176 4.2438 114.549 4.2482H116.74C117.044 4.22234 117.35 4.25735 117.641 4.35119C117.931 4.44503 118.2 4.59584 118.432 4.79483C118.797 5.14777 118.977 5.82782 118.977 6.84361V21.1592C118.977 21.5251 118.788 21.7102 118.406 21.7102H115.722C115.647 21.721 115.571 21.7142 115.499 21.6903C115.428 21.6665 115.363 21.6262 115.309 21.5727C115.256 21.5192 115.216 21.454 115.192 21.3822C115.168 21.3105 115.161 21.2341 115.172 21.1592V8.14346C115.172 7.9756 115.108 7.89382 114.975 7.89382H114.751C114.685 7.88462 114.618 7.89677 114.559 7.9285C114.501 7.96024 114.453 8.00991 114.425 8.07029L106.991 20.2295C106.841 20.4878 106.665 20.7301 106.467 20.9526C106.321 21.128 106.143 21.274 105.943 21.3831C105.721 21.5098 105.478 21.5944 105.226 21.6327C104.862 21.6711 104.496 21.6884 104.13 21.6844H101.983C101.365 21.7303 100.752 21.543 100.265 21.1592C99.8986 20.792 99.7168 20.1019 99.7197 19.0889V4.79913C99.7197 4.43328 99.913 4.2525 100.291 4.2525H102.962ZM140.249 4.2525C140.323 4.24184 140.399 4.24859 140.47 4.27222C140.542 4.29585 140.606 4.33572 140.66 4.3887C140.713 4.44167 140.753 4.50631 140.777 4.57752C140.802 4.64874 140.809 4.7246 140.799 4.79913V7.24389C140.799 7.62696 140.614 7.82065 140.249 7.82065H129.194C128.65 7.80819 128.105 7.86606 127.575 7.99282C127.196 8.07431 126.85 8.26594 126.579 8.54375C126.311 8.82974 126.123 9.18162 126.034 9.56384C125.921 10.1059 125.871 10.6589 125.883 11.2123V14.7503C125.872 15.3123 125.922 15.8738 126.034 16.4247C126.127 16.813 126.314 17.1723 126.579 17.4706C126.859 17.7349 127.202 17.923 127.575 18.0172C128.108 18.1291 128.651 18.1797 129.194 18.1679H140.266C140.341 18.157 140.417 18.1638 140.489 18.1877C140.56 18.2115 140.626 18.2518 140.679 18.3053C140.732 18.3588 140.772 18.424 140.796 18.4958C140.82 18.5676 140.827 18.6439 140.816 18.7188V21.1592C140.827 21.2341 140.82 21.3105 140.796 21.3822C140.772 21.454 140.732 21.5192 140.679 21.5727C140.626 21.6262 140.56 21.6665 140.489 21.6903C140.417 21.7142 140.341 21.721 140.266 21.7102H129.04C127.96 21.7305 126.882 21.6134 125.832 21.3615C125.037 21.1624 124.302 20.7741 123.689 20.2295C123.119 19.6609 122.701 18.9579 122.473 18.1851C122.203 17.1851 122.076 16.1519 122.095 15.1162V10.812C122.074 9.78475 122.202 8.75981 122.473 7.769C122.698 7.00116 123.117 6.3044 123.689 5.74605C124.299 5.19246 125.037 4.7991 125.836 4.60114C126.884 4.33105 127.963 4.20508 129.044 4.22668L140.249 4.2525ZM162.389 4.2525C162.771 4.2525 162.96 4.43328 162.96 4.79913V7.24389C162.971 7.32191 162.964 7.40151 162.94 7.4764C162.915 7.5513 162.873 7.61942 162.818 7.67538C162.763 7.73135 162.695 7.77361 162.62 7.79882C162.546 7.82403 162.466 7.83151 162.389 7.82065H154.611V21.1635C154.622 21.2384 154.615 21.3148 154.591 21.3865C154.567 21.4583 154.527 21.5235 154.474 21.577C154.42 21.6305 154.355 21.6708 154.284 21.6946C154.212 21.7185 154.136 21.7253 154.061 21.7145H151.351C151.277 21.7246 151.201 21.7172 151.13 21.693C151.059 21.6688 150.994 21.6285 150.942 21.5751C150.889 21.5217 150.849 21.4567 150.825 21.3853C150.802 21.3139 150.795 21.238 150.806 21.1635V7.82065H142.989C142.911 7.83151 142.832 7.82403 142.757 7.79882C142.683 7.77361 142.615 7.73135 142.56 7.67538C142.504 7.61942 142.463 7.5513 142.438 7.4764C142.413 7.40151 142.407 7.32191 142.418 7.24389V4.79913C142.418 4.43328 142.607 4.2525 142.989 4.2525H162.389ZM183.093 4.2525C183.168 4.24166 183.243 4.24832 183.314 4.27196C183.385 4.29559 183.45 4.33555 183.503 4.38864C183.556 4.44174 183.596 4.5065 183.62 4.57776C183.643 4.64903 183.65 4.72483 183.639 4.79913V7.17072C183.65 7.24502 183.643 7.32082 183.62 7.39209C183.596 7.46336 183.556 7.52812 183.503 7.58121C183.45 7.6343 183.385 7.67426 183.314 7.6979C183.243 7.72153 183.168 7.72819 183.093 7.71735H169.247C169.033 7.71735 168.925 7.83356 168.925 8.07029V11.3587H182.956C183.338 11.3587 183.527 11.5437 183.527 11.9096V13.8809C183.527 14.2468 183.338 14.4275 182.956 14.4275H168.925V17.8709C168.925 18.1205 169.033 18.2453 169.247 18.2453H183.111C183.185 18.2345 183.26 18.2411 183.332 18.2648C183.403 18.2884 183.467 18.3284 183.52 18.3815C183.573 18.4346 183.613 18.4993 183.637 18.5706C183.66 18.6419 183.667 18.7177 183.656 18.792V21.1592C183.667 21.2337 183.66 21.3096 183.636 21.381C183.613 21.4524 183.573 21.5174 183.52 21.5708C183.467 21.6241 183.403 21.6645 183.332 21.6887C183.261 21.7129 183.185 21.7203 183.111 21.7102H166.589C166.21 21.7398 165.833 21.6429 165.515 21.4347C165.394 21.3061 165.302 21.1523 165.246 20.9842C165.191 20.8161 165.172 20.6379 165.193 20.462V5.50071C165.178 5.17004 165.294 4.84679 165.515 4.60114C165.662 4.47495 165.833 4.37918 166.017 4.31934C166.201 4.25951 166.396 4.23679 166.589 4.2525H183.093ZM191.464 4.2525C191.78 4.24935 192.097 4.27384 192.409 4.32567C192.661 4.37046 192.899 4.47363 193.105 4.62696C193.32 4.77529 193.5 4.97109 193.628 5.19942C193.828 5.49537 193.994 5.81303 194.122 6.14633L199.319 18.1205C199.346 18.1898 199.394 18.2488 199.457 18.289C199.519 18.3291 199.593 18.3485 199.667 18.3443H199.968C200.041 18.3472 200.114 18.3273 200.177 18.2873C200.239 18.2473 200.287 18.189 200.315 18.1205L205.491 6.14633C205.62 5.81741 205.778 5.50055 205.963 5.19942C206.105 4.97404 206.29 4.7794 206.508 4.62696C206.708 4.47765 206.938 4.37473 207.183 4.32567C207.495 4.27366 207.811 4.24918 208.128 4.2525H210.79C211.649 4.2525 212.233 4.45049 212.534 4.85078C212.835 5.25107 212.963 5.89669 212.963 6.84791V21.1592C212.963 21.5251 212.77 21.7102 212.388 21.7102H209.854C209.78 21.7203 209.704 21.7129 209.633 21.6887C209.562 21.6645 209.497 21.6241 209.444 21.5708C209.392 21.5174 209.352 21.4524 209.328 21.381C209.305 21.3096 209.298 21.2337 209.309 21.1592V8.14346C209.309 7.9756 209.236 7.89382 209.107 7.89382H208.883C208.815 7.88493 208.746 7.89973 208.687 7.93576C208.629 7.97179 208.584 8.02687 208.561 8.09181L203.536 19.2826C203.36 19.6827 203.15 20.0671 202.909 20.4318C202.726 20.7136 202.5 20.9648 202.239 21.1765C202.002 21.3824 201.719 21.5298 201.415 21.6069C201.067 21.6953 200.709 21.7373 200.35 21.7317H199.152C198.783 21.7366 198.415 21.6947 198.056 21.6069C197.757 21.5232 197.479 21.3764 197.24 21.1765C196.986 20.956 196.758 20.706 196.562 20.4318C196.34 20.062 196.142 19.6781 195.969 19.2826L190.944 8.09181C190.919 8.02742 190.874 7.97312 190.815 7.93733C190.756 7.90154 190.686 7.88624 190.618 7.89382H190.395C190.261 7.89382 190.197 7.9756 190.197 8.14346V21.1592C190.208 21.2341 190.201 21.3105 190.177 21.3822C190.153 21.454 190.113 21.5192 190.06 21.5727C190.006 21.6262 189.941 21.6665 189.87 21.6903C189.798 21.7142 189.722 21.721 189.647 21.7102H187.109C186.727 21.7102 186.538 21.5251 186.538 21.1592V6.84791C186.538 5.89669 186.684 5.23385 186.967 4.85078C187.251 4.46771 187.852 4.2525 188.737 4.2525H191.464ZM241.442 4.2525C241.516 4.24147 241.591 4.24803 241.662 4.27167C241.733 4.29531 241.798 4.33535 241.85 4.38857C241.903 4.44178 241.943 4.50668 241.966 4.578C241.989 4.64932 241.995 4.72507 241.983 4.79913V21.1549C241.994 21.2292 241.988 21.305 241.965 21.3765C241.942 21.4479 241.903 21.513 241.85 21.5665C241.798 21.62 241.733 21.6605 241.663 21.6847C241.592 21.7089 241.516 21.7161 241.442 21.7059H238.788C238.405 21.7059 238.216 21.5208 238.216 21.1549V4.79913C238.216 4.43328 238.405 4.2525 238.788 4.2525H241.442ZM219.513 4.2525C219.587 4.24091 219.663 4.24701 219.735 4.27031C219.807 4.29361 219.872 4.33346 219.926 4.38665C219.979 4.43983 220.019 4.50487 220.043 4.57652C220.067 4.64817 220.074 4.72442 220.063 4.79913V9.66283H230.37C232.271 9.66283 233.64 10.0932 234.476 10.9541C235.3 11.8149 235.717 13.1062 235.717 14.7934V16.571C235.717 18.2668 235.287 19.5495 234.476 20.4146C233.664 21.2798 232.273 21.7059 230.37 21.7059H217.022C216.92 21.7202 216.817 21.7107 216.72 21.6782C216.623 21.6456 216.534 21.5909 216.462 21.5182C216.389 21.4456 216.335 21.3571 216.302 21.2597C216.27 21.1623 216.26 21.0586 216.275 20.9569V4.79913C216.275 4.43328 216.464 4.2525 216.846 4.2525H219.513ZM220.063 12.9555V17.9699C220.063 18.1679 220.174 18.2668 220.385 18.2668H229.593C230.452 18.2668 231.04 18.0861 231.388 17.7202C231.773 17.253 231.962 16.6544 231.916 16.0502V15.1894C231.965 14.5863 231.778 13.9878 231.396 13.5194C231.049 13.1535 230.447 12.9684 229.601 12.9684L220.063 12.9555Z" fill="white"/>
<path d="M72.1947 6.37876L60.5559 12.9125L48.8828 6.37876C49.1147 5.90961 50.6007 5.19942 51.2106 4.85078L59.1515 0.430411C59.4115 0.284861 59.6885 0.172097 59.9761 0.0946868C60.1724 0.0432744 60.3745 0.0172381 60.5774 0.0172119H60.8866L61.2731 0.0430369C61.3973 0.0514963 61.5207 0.0687561 61.6425 0.0946868C61.7503 0.12116 61.8565 0.15422 61.9603 0.193683L62.1879 0.28407L70.9707 5.20373L71.2756 5.41463L71.34 5.46198C71.5261 5.59699 71.6974 5.75136 71.8511 5.92252C71.9262 6.00743 71.9964 6.09653 72.0615 6.18938L72.1947 6.37876Z" fill="white"/>
<path d="M48.8828 6.37876L60.5559 12.9125L72.1947 6.37876C71.9627 5.90961 70.4768 5.19942 69.8669 4.85078L61.9259 0.430411C61.6659 0.284861 61.389 0.172097 61.1013 0.0946868C60.905 0.0432744 60.703 0.0172381 60.5001 0.0172119H60.1909L59.8 0.0430369C59.6773 0.051794 59.5553 0.0690518 59.435 0.0946868C59.3271 0.12116 59.221 0.15422 59.1172 0.193683L58.8896 0.28407L50.1068 5.18651L49.8019 5.39741L49.7375 5.44476C49.55 5.57971 49.3773 5.73407 49.2221 5.9053C49.1491 5.99139 49.0804 6.08177 49.0159 6.17216L48.8828 6.37876Z" fill="white"/>
<path d="M60.96 27V13.6227L72.6889 7.13629L72.792 7.32567C72.9536 7.63239 73.0859 7.95377 73.1871 8.2855C73.2648 8.64316 73.3022 9.00843 73.2987 9.37446L73.2558 17.6471C73.2623 17.7359 73.2623 17.8251 73.2558 17.9139L73.2343 18.0559C73.1843 18.353 73.0963 18.6423 72.9723 18.9168L72.8865 19.0846C72.79 19.2821 72.6764 19.4708 72.5472 19.6485C72.3461 19.9289 72.0992 20.1734 71.8171 20.3716L63.992 25.924L63.3951 26.3544C63.1538 26.5305 62.8912 26.6752 62.6134 26.7848C62.3574 26.8822 62.088 26.9403 61.8146 26.957L60.96 27Z" fill="white"/>
<path d="M60.1264 27V13.6227L48.3889 7.13629L48.2858 7.32567C48.1242 7.63239 47.9919 7.95377 47.8907 8.2855C47.813 8.64316 47.7755 9.00843 47.779 9.37446L47.822 17.6427C47.8226 17.7321 47.8297 17.8213 47.8435 17.9096V18.0516C47.8934 18.3487 47.9815 18.638 48.1054 18.9125L48.1913 19.0803C48.2878 19.2778 48.4013 19.4665 48.5306 19.6442C48.7317 19.9246 48.9785 20.1691 49.2607 20.3673L57.0686 25.9067L57.6655 26.3372C57.9068 26.5133 58.1694 26.658 58.4472 26.7676C58.7032 26.865 58.9726 26.9231 59.246 26.9397L60.1264 27Z" fill="white"/>
</svg>
