<svg width="142" height="57" viewBox="0 0 142 57" fill="none" xmlns="http://www.w3.org/2000/svg">
<path d="M115.491 21.7404C115.479 22.5569 115.554 23.3723 115.716 24.1728C115.85 24.7463 116.127 25.2769 116.521 25.7158C116.934 26.1103 117.444 26.3908 118 26.5294C118.792 26.6905 119.599 26.764 120.407 26.7486H131.402C132.198 26.7656 132.993 26.6921 133.771 26.5294C134.351 26.4193 134.882 26.1338 135.292 25.712C135.702 25.2902 135.972 24.7527 136.063 24.1728C136.251 23.3759 136.338 22.5587 136.322 21.7404V16.2179C136.34 15.4119 136.253 14.607 136.063 13.8234C135.958 13.2447 135.689 12.7079 135.288 12.2762C134.875 11.8617 134.347 11.5798 133.771 11.4668C132.997 11.2766 132.2 11.1901 131.402 11.2097H120.415C119.605 11.1919 118.796 11.2784 118.008 11.4668C117.443 11.5834 116.925 11.8652 116.521 12.2762C116.114 12.7087 115.832 13.2436 115.708 13.8234C115.543 14.6108 115.468 15.4139 115.483 16.2179L115.491 21.7404ZM131.631 6.08762C133.241 6.05597 134.847 6.24174 136.407 6.63987C137.609 6.91451 138.719 7.49564 139.627 8.32614C140.496 9.13633 141.123 10.169 141.441 11.3108C141.841 12.7733 142.027 14.2852 141.996 15.8005V22.124C142.025 23.6531 141.839 25.1787 141.441 26.6558C141.118 27.8053 140.492 28.8477 139.627 29.6743C138.71 30.4865 137.603 31.0562 136.407 31.331C134.843 31.7042 133.239 31.877 131.631 31.8453H120.191C118.583 31.8773 116.978 31.7044 115.415 31.331C114.223 31.0459 113.118 30.4774 112.195 29.6743C111.348 28.8336 110.724 27.7962 110.381 26.6558C109.981 25.1791 109.794 23.6532 109.826 22.124V15.8005C109.792 14.2851 109.979 12.7729 110.381 11.3108C110.719 10.1777 111.343 9.14991 112.195 8.32614C113.109 7.50473 114.217 6.92492 115.415 6.63987C116.975 6.24174 118.581 6.05597 120.191 6.08762H131.631ZM83.1821 19.1267H97.3601C98.62 19.1267 99.5084 18.8569 100.025 18.3173C100.542 17.7777 100.801 16.9542 100.801 15.8469V14.4473C100.801 13.3428 100.542 12.5207 100.025 11.9811C99.5084 11.4415 98.62 11.1717 97.3601 11.1717H83.6652C83.3431 11.1717 83.1821 11.3193 83.1821 11.6144V19.1267ZM98.5084 6.08762C101.333 6.08762 103.369 6.72559 104.614 8.00153C105.86 9.27747 106.477 11.1689 106.466 13.6758V16.3991C106.466 18.9032 105.849 20.7947 104.614 22.0734C103.38 23.3522 101.345 23.9901 98.5084 23.9873H83.1821V31.057C83.1976 31.1669 83.1873 31.2789 83.1519 31.3841C83.1165 31.4894 83.057 31.585 82.9781 31.6635C82.8993 31.7419 82.8031 31.8011 82.6974 31.8363C82.5916 31.8716 82.479 31.8818 82.3685 31.8664H78.3855C77.8219 31.8664 77.538 31.5966 77.538 31.057V7.19213C77.5169 7.04216 77.531 6.88936 77.5793 6.74575C77.6276 6.60215 77.7088 6.47167 77.8164 6.36458C77.9241 6.2575 78.0552 6.17675 78.1996 6.12869C78.3439 6.08063 78.4975 6.06657 78.6482 6.08762H98.5084ZM69.1821 6.08762C70.442 6.08762 71.3304 6.34618 71.8474 6.8633C72.3643 7.35232 72.6228 8.128 72.6228 9.21986V31.057C72.6228 31.5966 72.3403 31.8664 71.7753 31.8664H67.7414C67.6323 31.879 67.5217 31.8666 67.4181 31.8301C67.3145 31.7936 67.2207 31.734 67.1438 31.6559C67.0669 31.5778 67.009 31.4832 66.9745 31.3794C66.94 31.2756 66.9299 31.1653 66.9448 31.057V12.0865C66.9448 11.5975 66.6863 11.3488 66.1694 11.3488H50.4194C49.8982 11.3488 49.6397 11.5975 49.6397 12.0865V31.057C49.6553 31.1669 49.6449 31.2789 49.6095 31.3841C49.5741 31.4894 49.5146 31.585 49.4358 31.6635C49.3569 31.7419 49.2608 31.8011 49.155 31.8363C49.0492 31.8716 48.9366 31.8818 48.8262 31.8664H44.7923C44.2273 31.8664 43.9448 31.5966 43.9448 31.057V9.21986C43.9448 8.14065 44.2033 7.35232 44.7202 6.8633C45.2372 6.37429 46.127 6.08762 47.3855 6.08762H69.1821Z" fill="#0C4784"/>
<path d="M141.458 44.0536C141.805 44.0536 141.979 44.2348 141.979 44.5974V56.4898C141.989 56.5602 141.982 56.6319 141.959 56.6992C141.937 56.7666 141.898 56.8279 141.848 56.8781C141.797 56.9284 141.736 56.9663 141.668 56.9889C141.6 57.0114 141.528 57.0181 141.458 57.0083H139.131C139.061 57.0181 138.988 57.0114 138.921 56.9889C138.853 56.9663 138.791 56.9284 138.741 56.8781C138.69 56.8279 138.652 56.7666 138.63 56.6992C138.607 56.6319 138.6 56.5602 138.61 56.4898V44.5974C138.61 44.2348 138.784 44.0536 139.131 44.0536H141.458ZM123.038 50.4909V54.0784C123.038 54.2681 123.119 54.3609 123.275 54.3609H131.356C131.88 54.4106 132.406 54.2861 132.852 54.0067C133.001 53.8601 133.117 53.6825 133.19 53.4865C133.263 53.2906 133.292 53.0811 133.275 52.8727V51.979C133.294 51.7743 133.266 51.5681 133.192 51.376C133.119 51.1839 133.002 51.0109 132.852 50.8703C132.413 50.573 131.884 50.4386 131.356 50.4909H123.038ZM122.538 44.0536C122.873 44.0536 123.038 44.2433 123.038 44.6227V47.9952H132.034C133.695 47.9952 134.881 48.317 135.593 48.9606C135.963 49.3102 136.251 49.7366 136.436 50.2095C136.621 50.6824 136.7 51.1902 136.665 51.6966V53.2774C136.665 54.5 136.308 55.4274 135.593 56.0598C134.878 56.6921 133.692 57.0055 132.034 56.9999H120.309C120.217 57.0115 120.124 57.0016 120.036 56.9711C119.949 56.9405 119.87 56.8901 119.805 56.8239C119.74 56.7576 119.692 56.6773 119.664 56.5893C119.636 56.5013 119.629 56.4081 119.644 56.3169V44.6227C119.644 44.2433 119.809 44.0536 120.144 44.0536H122.538ZM98.2838 44.0536C98.5792 44.0482 98.874 44.0808 99.161 44.1505C99.3879 44.1912 99.6007 44.2883 99.7796 44.433C99.9841 44.5745 100.154 44.7605 100.275 44.9768C100.471 45.2538 100.646 45.544 100.801 45.8452L104.741 53.6063C104.77 53.6694 104.817 53.723 104.875 53.7604C104.934 53.7978 105.002 53.8175 105.072 53.817H105.453C105.524 53.8204 105.593 53.8019 105.652 53.7641C105.712 53.7263 105.758 53.6712 105.784 53.6063L109.725 45.8452C109.915 45.4869 110.08 45.196 110.225 44.9768C110.357 44.7681 110.524 44.584 110.72 44.433C110.91 44.291 111.131 44.1943 111.364 44.1505C111.651 44.0808 111.946 44.0482 112.241 44.0536H114.614C114.96 44.0455 115.305 44.0939 115.636 44.1969C115.889 44.265 116.113 44.4129 116.275 44.6185C116.45 44.8371 116.566 45.097 116.61 45.3731C116.679 45.7542 116.71 46.141 116.703 46.5282V56.4898C116.713 56.5602 116.707 56.6319 116.684 56.6992C116.661 56.7666 116.623 56.8279 116.572 56.8781C116.522 56.9284 116.46 56.9663 116.393 56.9889C116.325 57.0114 116.253 57.0181 116.182 57.0083H113.83C113.76 57.0181 113.688 57.0114 113.62 56.9889C113.552 56.9663 113.491 56.9284 113.44 56.8781C113.39 56.8279 113.352 56.7666 113.329 56.6992C113.306 56.6319 113.299 56.5602 113.309 56.4898V47.0973C113.309 46.9413 113.246 46.8612 113.119 46.8612H112.907C112.832 46.8574 112.757 46.8734 112.691 46.9076C112.645 46.9442 112.612 46.9945 112.597 47.0509L108.703 54.6897C108.483 55.1112 108.28 55.478 108.085 55.7773C107.927 56.0429 107.727 56.2808 107.491 56.4813C107.287 56.6813 107.035 56.8263 106.758 56.9029C106.441 56.9883 106.113 57.0281 105.784 57.0209H104.741C104.404 57.0271 104.068 56.9874 103.741 56.9029C103.469 56.8183 103.218 56.6743 103.008 56.4813C102.781 56.2729 102.582 56.0363 102.415 55.7773C102.196 55.4269 101.998 55.0637 101.822 54.6897L97.9279 47.0509C97.9191 47.0202 97.9041 46.9916 97.8836 46.9669C97.8632 46.9422 97.8379 46.922 97.8093 46.9076C97.7528 46.871 97.6856 46.8547 97.6186 46.8612H97.4067C97.2796 46.8612 97.216 46.9413 97.216 47.0973V56.4898C97.2259 56.5602 97.2192 56.6319 97.1965 56.6992C97.1738 56.7666 97.1357 56.8279 97.0852 56.8781C97.0347 56.9284 96.9731 56.9663 96.9054 56.9889C96.8377 57.0114 96.7656 57.0181 96.6949 57.0083H94.3686C94.0042 57.0083 93.822 56.8355 93.822 56.4898V46.5408C93.8154 46.1537 93.8466 45.7668 93.9152 45.3857C93.96 45.1106 94.0736 44.8511 94.2457 44.6311C94.4092 44.4253 94.6351 44.2774 94.8898 44.2095C95.227 44.1051 95.5791 44.0566 95.9321 44.0662L98.2838 44.0536ZM77.9449 49.4075H87.5593C87.616 49.4161 87.674 49.411 87.7284 49.3925C87.7827 49.374 87.8317 49.3427 87.8713 49.3013C87.9108 49.2599 87.9397 49.2096 87.9555 49.1547C87.9712 49.0997 87.9734 49.0418 87.9618 48.9859V48.0163C87.9986 47.6444 87.8893 47.2727 87.6567 46.9792C87.3288 46.7386 86.9221 46.6288 86.5169 46.6715H80.572C79.5466 46.6715 78.8474 46.8359 78.483 47.1689C78.2888 47.3851 78.1422 47.6393 78.0524 47.9152C77.9627 48.191 77.9318 48.4825 77.9618 48.7709L77.9449 49.4075ZM87.1779 44.0536C87.8498 44.0379 88.5208 44.1102 89.1737 44.2686C89.6531 44.359 90.0951 44.5877 90.4449 44.9262C90.7794 45.2555 91.0105 45.6743 91.1101 46.1319C91.2486 46.7188 91.3127 47.3207 91.3008 47.9235V50.1663C91.3203 50.3567 91.3006 50.549 91.2431 50.7316C91.1855 50.9143 91.0913 51.0833 90.966 51.2286C90.6704 51.4408 90.3082 51.541 89.9449 51.5111H77.966V52.076C77.939 52.3649 77.9713 52.6562 78.0609 52.9323C78.1505 53.2084 78.2955 53.4635 78.4872 53.6821C78.8516 54.011 79.5508 54.1754 80.5762 54.1754H90.4788C90.5362 54.1677 90.5947 54.1734 90.6496 54.1919C90.7045 54.2104 90.7544 54.2412 90.7953 54.282C90.8363 54.3227 90.8673 54.3724 90.8859 54.427C90.9045 54.4816 90.9102 54.5398 90.9025 54.5969V56.5783C90.9111 56.6356 90.906 56.6942 90.8878 56.7492C90.8695 56.8042 90.8385 56.8543 90.7973 56.8953C90.7561 56.9362 90.7059 56.967 90.6505 56.9852C90.5952 57.0034 90.5364 57.0084 90.4788 56.9999H80.2415C79.332 57.0173 78.4236 56.931 77.5338 56.7427C76.8981 56.6034 76.3052 56.3142 75.805 55.8996C75.37 55.4947 75.05 54.9828 74.8771 54.4157C74.6736 53.7016 74.5779 52.9614 74.5932 52.2193V48.8468C74.5769 48.113 74.6726 47.3809 74.8771 46.6757C75.0414 46.1047 75.3628 45.5907 75.805 45.1918C76.3026 44.7731 76.8965 44.4835 77.5338 44.3487C78.4213 44.1443 79.3307 44.0494 80.2415 44.0662L87.1779 44.0536ZM72.8516 44.0536C72.9089 44.0468 72.967 44.053 73.0215 44.0718C73.076 44.0906 73.1255 44.1214 73.1663 44.162C73.2071 44.2026 73.2381 44.2519 73.257 44.3061C73.2759 44.3603 73.2822 44.4181 73.2754 44.4751V46.4565C73.2822 46.5135 73.2759 46.5713 73.257 46.6255C73.2381 46.6797 73.2071 46.729 73.1663 46.7696C73.1255 46.8102 73.076 46.841 73.0215 46.8598C72.967 46.8786 72.9089 46.8848 72.8516 46.8781H65.8643V56.4898C65.8742 56.5602 65.8675 56.6319 65.8448 56.6992C65.8221 56.7666 65.784 56.8279 65.7335 56.8781C65.683 56.9284 65.6214 56.9663 65.5537 56.9889C65.486 57.0114 65.4139 57.0181 65.3432 57.0083H63.0169C62.6525 57.0083 62.4703 56.8355 62.4703 56.4898V46.8865H55.466C55.4086 46.8941 55.3501 46.8885 55.2952 46.87C55.2403 46.8515 55.1904 46.8207 55.1495 46.7799C55.1085 46.7391 55.0775 46.6895 55.0589 46.6349C55.0403 46.5802 55.0346 46.5221 55.0423 46.4649V44.4836C55.0346 44.4264 55.0403 44.3682 55.0589 44.3136C55.0775 44.259 55.1085 44.2094 55.1495 44.1686C55.1904 44.1278 55.2403 44.097 55.2952 44.0785C55.3501 44.06 55.4086 44.0544 55.466 44.062L72.8516 44.0536ZM53.072 44.0536C53.1293 44.0468 53.1873 44.053 53.2419 44.0718C53.2964 44.0906 53.3459 44.1214 53.3867 44.162C53.4275 44.2026 53.4585 44.2519 53.4774 44.3061C53.4962 44.3603 53.5025 44.4181 53.4957 44.4751V46.4565C53.5025 46.5135 53.4962 46.5713 53.4774 46.6255C53.4585 46.6797 53.4275 46.729 53.3867 46.7696C53.3459 46.8102 53.2964 46.841 53.2419 46.8598C53.1873 46.8786 53.1293 46.8848 53.072 46.8781H43.8771C43.449 46.8683 43.0215 46.9151 42.6059 47.0172C42.3077 47.0754 42.0343 47.2225 41.822 47.4387C41.6053 47.6589 41.458 47.9373 41.3982 48.2397C41.3109 48.6426 41.2711 49.0544 41.2796 49.4665V51.5743C41.2692 51.999 41.309 52.4235 41.3982 52.839C41.4635 53.1394 41.61 53.4164 41.822 53.64C42.0421 53.8458 42.3122 53.991 42.6059 54.0615C43.0237 54.1491 43.4502 54.1887 43.8771 54.1796H53.0889C53.1462 54.1728 53.2043 54.179 53.2588 54.1978C53.3133 54.2166 53.3628 54.2475 53.4036 54.2881C53.4444 54.3286 53.4754 54.3779 53.4943 54.4321C53.5132 54.4864 53.5195 54.5442 53.5126 54.6012V56.5825C53.5203 56.6397 53.5146 56.6978 53.4961 56.7525C53.4775 56.8071 53.4465 56.8567 53.4055 56.8975C53.3645 56.9383 53.3146 56.9691 53.2597 56.9876C53.2048 57.0061 53.1464 57.0117 53.0889 57.0041H43.5465C42.6371 57.0215 41.7286 56.9352 40.8389 56.7469C40.2022 56.6066 39.6081 56.3176 39.1059 55.9038C38.6707 55.4998 38.3518 54.9875 38.1821 54.4199C37.9771 53.706 37.88 52.9658 37.894 52.2235V48.851C37.879 48.117 37.9761 47.3849 38.1821 46.6799C38.3434 46.1086 38.6636 45.5942 39.1059 45.196C39.6056 44.7782 40.2006 44.4887 40.8389 44.3529C41.7264 44.1485 42.6358 44.0537 43.5465 44.0704L53.072 44.0536ZM20.7626 44.0536C21.1101 44.0536 21.2838 44.2348 21.2838 44.5974V53.6526C21.2838 53.8086 21.3474 53.8887 21.4745 53.8887H21.6864C21.7483 53.8934 21.8103 53.8805 21.8651 53.8514C21.9199 53.8222 21.9652 53.7782 21.9957 53.7243L29.1101 45.4447C29.2831 45.2236 29.4669 45.0112 29.661 44.8082C29.84 44.6433 30.0393 44.5016 30.2542 44.3866C30.4775 44.271 30.7177 44.1914 30.966 44.1505C31.3104 44.0806 31.6613 44.0481 32.0126 44.0536H33.3389C33.6291 44.0293 33.9213 44.0627 34.1984 44.1517C34.4755 44.2407 34.7321 44.3836 34.9533 44.5721C35.3008 44.9178 35.4745 45.5712 35.4745 46.5324V56.4898C35.4745 56.8355 35.2965 57.0083 34.9321 57.0083H32.6271C32.5557 57.0196 32.4826 57.014 32.4138 56.9921C32.3449 56.9701 32.2822 56.9324 32.2307 56.882C32.1792 56.8316 32.1403 56.7698 32.1171 56.7017C32.094 56.6335 32.0872 56.561 32.0974 56.4898V47.405C32.0974 47.2448 32.0338 47.1689 31.911 47.1689H31.6949C31.6345 47.1728 31.5756 47.1895 31.5223 47.2178C31.4689 47.2462 31.4223 47.2856 31.3855 47.3333L24.2415 55.6087C24.0211 55.8616 23.8177 56.0808 23.6482 56.2706C23.4803 56.4375 23.2891 56.5795 23.0804 56.6921C22.8564 56.8058 22.6164 56.8854 22.3686 56.9282C22.0306 56.9786 21.6891 57.0012 21.3474 56.9956H20.0762C19.4823 57.04 18.8935 56.8593 18.4279 56.4898C18.0804 56.1441 17.9025 55.4907 17.9025 54.5337V44.5974C17.8919 44.5235 17.8987 44.4482 17.9224 44.3774C17.9461 44.3066 17.986 44.2422 18.0391 44.1895C18.0921 44.1367 18.1568 44.0969 18.228 44.0734C18.2991 44.0498 18.3748 44.043 18.4491 44.0536H20.7626ZM15.2542 44.0536C15.3115 44.0468 15.3695 44.053 15.4241 44.0718C15.4786 44.0906 15.5281 44.1214 15.5689 44.162C15.6097 44.2026 15.6407 44.2519 15.6596 44.3061C15.6784 44.3603 15.6847 44.4181 15.6779 44.4751V46.4565C15.6847 46.5135 15.6784 46.5713 15.6596 46.6255C15.6407 46.6797 15.6097 46.729 15.5689 46.7696C15.5281 46.8102 15.4786 46.841 15.4241 46.8598C15.3695 46.8786 15.3115 46.8848 15.2542 46.8781H6.02536C5.59732 46.8684 5.16987 46.9152 4.75417 47.0172C4.45634 47.0764 4.18326 47.2233 3.97027 47.4387C3.76287 47.6626 3.62332 47.9403 3.56773 48.2397C3.48036 48.6426 3.44054 49.0544 3.44909 49.4665V51.5743C3.43869 51.999 3.47851 52.4235 3.56773 52.839C3.62904 53.1365 3.76786 53.4127 3.97027 53.64C4.19097 53.845 4.46089 53.9901 4.75417 54.0615C5.17199 54.149 5.59849 54.1886 6.02536 54.1796H15.2542C15.3115 54.1728 15.3695 54.179 15.4241 54.1978C15.4786 54.2166 15.5281 54.2475 15.5689 54.2881C15.6097 54.3286 15.6407 54.3779 15.6596 54.4321C15.6784 54.4864 15.6847 54.5442 15.6779 54.6012V56.5825C15.6856 56.6397 15.6799 56.6978 15.6613 56.7525C15.6427 56.8071 15.6118 56.8567 15.5708 56.8975C15.5298 56.9383 15.4799 56.9691 15.425 56.9876C15.3701 57.0061 15.3116 57.0117 15.2542 57.0041H5.69061C4.78256 57.0216 3.87549 56.9353 2.98722 56.7469C2.34989 56.6084 1.75545 56.3192 1.25417 55.9038C0.819165 55.4989 0.499096 54.987 0.326205 54.4199C0.12273 53.7058 0.027052 52.9656 0.0423067 52.2235V48.851C0.0260102 48.1172 0.121733 47.3852 0.326205 46.6799C0.493796 46.1039 0.821311 45.5867 1.27112 45.1876C1.76977 44.7682 2.36525 44.4785 3.00417 44.3444C3.89013 44.1396 4.79817 44.0448 5.70756 44.062L15.2542 44.0536Z" fill="#0C4784"/>
<path d="M34.5762 8.96672L18.0508 18.1611L1.52539 8.96672C1.8559 8.30907 3.93641 7.31418 4.82624 6.82094L16.0974 0.577546C16.4674 0.373267 16.8618 0.216056 17.2712 0.109607C17.5479 0.0376498 17.8326 0.000821466 18.1186 0L18.5423 0L19.0932 0.037941C19.2687 0.0470191 19.443 0.070995 19.6144 0.109607C19.769 0.143754 19.9206 0.190278 20.0678 0.248724L20.3898 0.37941L32.839 7.2931L33.2627 7.59241L33.3517 7.65565C33.6168 7.84602 33.8611 8.06362 34.0805 8.30486C34.1862 8.42333 34.2839 8.54867 34.3728 8.68005L34.5762 8.96672Z" fill="#FDCE25"/>
<path d="M1.55957 8.96672L18.085 18.1611L34.6104 8.96672C34.2799 8.30907 32.2036 7.31418 31.3138 6.82094L20.0341 0.577546C19.6653 0.37391 19.2725 0.216723 18.8647 0.109607C18.5879 0.0376498 18.3032 0.000821466 18.0172 0L17.5935 0L17.0426 0.037941C16.8672 0.0473003 16.6928 0.071273 16.5214 0.109607C16.3623 0.142228 16.2063 0.188781 16.0553 0.248724L15.7333 0.37941L3.29686 7.2931L2.87313 7.59241L2.78415 7.65565C2.51456 7.84531 2.26599 8.06293 2.04262 8.30486C1.93691 8.42333 1.83923 8.54867 1.75025 8.68005L1.55957 8.96672Z" fill="#FDCE25"/>
<path d="M18.665 37.9623V19.152L35.2752 10.0293L35.4193 10.2991C35.6489 10.7318 35.8376 11.1848 35.9828 11.6523C36.0922 12.155 36.1448 12.6683 36.1396 13.1826L36.0803 24.8094C36.0788 24.9336 36.0689 25.0575 36.0506 25.1804L36.0125 25.3785C35.9453 25.8066 35.8199 26.2236 35.6396 26.6179L35.5252 26.8498C35.3856 27.1263 35.224 27.3913 35.0422 27.6423C34.7558 28.0375 34.4066 28.3835 34.0083 28.6667L22.9489 36.4489L22.1015 37.0517C21.7611 37.298 21.3892 37.4979 20.9955 37.6461C20.6329 37.7837 20.2515 37.8661 19.8642 37.8906L18.665 37.9623Z" fill="#0C4784"/>
<path d="M17.4743 37.9623V19.152L0.84715 10.0293L0.703082 10.2991C0.480651 10.7325 0.299083 11.1855 0.160709 11.6523C0.0499738 12.1549 -0.00403284 12.6681 -0.000308003 13.1826L0.059014 24.8094C0.0618942 24.9337 0.0732195 25.0576 0.0929123 25.1804L0.122573 25.3785C0.19168 25.8062 0.31705 26.2229 0.495455 26.6179L0.614099 26.8498C0.753736 27.1263 0.915262 27.3913 1.09715 27.6423C1.37941 28.0367 1.72432 28.3827 2.11834 28.6667L13.1777 36.4531L14.0251 37.0559C14.3666 37.3004 14.7383 37.5002 15.131 37.6503C15.495 37.7884 15.8779 37.8708 16.2666 37.8948L17.4743 37.9623Z" fill="#E9660B"/>
</svg>
